<?xml version="1.0" standalone="no"?>
<!DOCTYPE svg PUBLIC "-//W3C//DTD SVG 1.1//EN" "http://www.w3.org/Graphics/SVG/1.1/DTD/svg11.dtd" >
<svg xmlns="http://www.w3.org/2000/svg" xmlns:xlink="http://www.w3.org/1999/xlink" version="1.1">
<metadata>
Created by FontForge 20170910 at Sat Jan  2 15:05:41 2016
 By Jimmy Wärting
Copyright (c) 2015 by Kostas Bartsokas. All rights reserved.
</metadata>
<defs>
<font id="AvertaStd-LightItalic" horiz-adv-x="548" >
  <font-face 
    font-family="Averta Std Light"
    font-weight="300"
    font-style="italic"
    font-stretch="normal"
    units-per-em="1000"
    panose-1="0 0 4 0 0 0 0 0 0 0"
    ascent="772"
    descent="-228"
    x-height="485"
    cap-height="710"
    bbox="-109 -339 1323 974"
    underline-thickness="28"
    underline-position="-81"
    slope="-7"
    stemh="44"
    stemv="44"
    unicode-range="U+0020-2715"
  />
<missing-glyph horiz-adv-x="404" 
 />
    <glyph glyph-name=".notdef" horiz-adv-x="404" 
 />
    <glyph glyph-name="A" unicode="A" horiz-adv-x="613" 
d="M494 0l-41 191h-305l-87 -191h-59l331 710h60l159 -710h-58zM172 242h270l-86 398h-2z" />
    <glyph glyph-name="Aacute" unicode="&#xc1;" horiz-adv-x="613" 
d="M546 934l-129 -139h-57l124 139h62zM494 0l-41 191h-305l-87 -191h-59l331 710h60l159 -710h-58zM172 242h270l-86 398h-2z" />
    <glyph glyph-name="Abreve" unicode="&#x102;" horiz-adv-x="613" 
d="M381 795c-65 0 -111 48 -106 134l43 -1c-3 -53 15 -92 64 -92c52 0 87 40 96 93l43 -1c-16 -84 -72 -133 -140 -133zM494 0l-41 191h-305l-87 -191h-59l331 710h60l159 -710h-58zM172 242h270l-86 398h-2z" />
    <glyph glyph-name="uni1EAE" unicode="&#x1eae;" horiz-adv-x="613" 
d="M551 945l-147 -105h-50l138 106zM372 752c-60 0 -105 36 -112 101h39c5 -39 28 -64 76 -64c45 0 79 24 97 64h41c-25 -64 -78 -101 -141 -101zM494 0l-41 191h-305l-87 -191h-59l331 710h60l159 -710h-58zM172 242h270l-86 398h-2z" />
    <glyph glyph-name="uni1EB6" unicode="&#x1eb6;" horiz-adv-x="613" 
d="M376 795c-65 0 -111 48 -106 134l43 -1c-3 -53 15 -92 64 -92c52 0 87 40 96 93l43 -1c-16 -84 -72 -133 -140 -133zM552 0h-58l-41 191h-305l-87 -191h-59l331 710h60zM172 242h270l-86 398h-2zM264 -124c22 0 38 -17 38 -39c0 -24 -17 -41 -40 -41c-22 0 -39 17 -39 39
c0 23 17 41 41 41z" />
    <glyph glyph-name="uni1EB0" unicode="&#x1eb0;" horiz-adv-x="613" 
d="M414 840h-51l-134 105l61 1zM299 853c5 -39 28 -64 76 -64c45 0 79 24 97 64h41c-25 -64 -78 -101 -141 -101c-60 0 -105 36 -112 101h39zM494 0l-41 191h-305l-87 -191h-59l331 710h60l159 -710h-58zM172 242h270l-86 398h-2z" />
    <glyph glyph-name="uni1EB2" unicode="&#x1eb2;" horiz-adv-x="613" 
d="M403 930c-25 0 -51 -14 -65 -32l-20 24c22 23 53 41 89 41c34 0 57 -23 57 -52c0 -42 -39 -62 -69 -79l-8 -23l-16 1c-7 4 -10 9 -10 17c0 38 70 45 70 82c0 13 -12 21 -28 21zM372 752c-60 0 -105 36 -112 101h39c5 -39 28 -64 76 -64c45 0 79 24 97 64h41
c-25 -64 -78 -101 -141 -101zM494 0l-41 191h-305l-87 -191h-59l331 710h60l159 -710h-58zM172 242h270l-86 398h-2z" />
    <glyph glyph-name="uni1EB4" unicode="&#x1eb4;" horiz-adv-x="613" 
d="M331 926c-22 0 -42 -14 -57 -46l-32 12c21 44 51 68 88 68c31 0 52 -15 72 -28c16 -12 31 -21 52 -21s43 11 57 45l31 -11c-20 -48 -55 -69 -88 -69c-28 0 -49 13 -68 26c-19 12 -36 24 -55 24zM375 789c45 0 79 24 97 64h41c-25 -64 -78 -101 -141 -101
c-60 0 -105 36 -112 101h39c5 -39 28 -64 76 -64zM494 0l-41 191h-305l-87 -191h-59l331 710h60l159 -710h-58zM172 242h270l-86 398h-2z" />
    <glyph glyph-name="Acircumflex" unicode="&#xc2;" horiz-adv-x="613" 
d="M389 901l-90 -106h-56l123 140h51l93 -140h-55l-64 106h-2zM494 0l-41 191h-305l-87 -191h-59l331 710h60l159 -710h-58zM172 242h270l-86 398h-2z" />
    <glyph glyph-name="uni1EA4" unicode="&#x1ea4;" horiz-adv-x="613" 
d="M671 948l-134 -139h-47l120 138zM385 875l-90 -106h-56l123 140h51l93 -140h-55l-64 106h-2zM333 710h60l159 -710h-58l-41 191h-305l-87 -191h-59zM172 242h270l-86 398h-2z" />
    <glyph glyph-name="uni1EAC" unicode="&#x1eac;" horiz-adv-x="613" 
d="M389 901l-90 -106h-56l123 140h51l93 -140h-55l-64 106h-2zM552 0h-58l-41 191h-305l-87 -191h-59l331 710h60zM172 242h270l-86 398h-2zM264 -124c22 0 38 -17 38 -39c0 -24 -17 -41 -40 -41c-22 0 -39 17 -39 39c0 23 17 41 41 41z" />
    <glyph glyph-name="uni1EA6" unicode="&#x1ea6;" horiz-adv-x="613" 
d="M590 809h-46l-107 138h60zM384 875l-90 -106h-56l123 140h51l93 -140h-55l-64 106h-2zM333 710h60l159 -710h-58l-41 191h-305l-87 -191h-59zM172 242h270l-86 398h-2z" />
    <glyph glyph-name="uni1EA8" unicode="&#x1ea8;" horiz-adv-x="613" 
d="M563 954c45 0 70 -27 70 -64c-1 -44 -39 -69 -85 -92l-8 -23l-22 1c-5 8 -9 14 -8 22c1 26 84 47 85 91c0 22 -18 30 -37 30c-26 0 -52 -14 -68 -32l-21 25c23 24 57 42 94 42zM386 875l-90 -106h-56l123 140h51l93 -140h-55l-64 106h-2zM333 710h60l159 -710h-58
l-41 191h-305l-87 -191h-59zM172 242h270l-86 398h-2z" />
    <glyph glyph-name="uni1EAA" unicode="&#x1eaa;" horiz-adv-x="613" 
d="M337 926c-21 0 -40 -15 -54 -47l-29 14c19 44 46 67 79 67c29 0 48 -16 65 -30c15 -10 29 -19 47 -19c20 0 41 12 55 46l28 -13c-20 -48 -50 -68 -79 -68c-26 0 -46 14 -63 27c-17 12 -32 23 -49 23zM380 825l-93 -91h-50l123 122h46l97 -122h-50l-69 91h-4zM494 0
l-41 191h-305l-87 -191h-59l331 710h60l159 -710h-58zM172 242h270l-86 398h-2z" />
    <glyph glyph-name="Adieresis" unicode="&#xc4;" horiz-adv-x="613" 
d="M309 831c-22 0 -38 17 -38 39c0 24 17 41 40 41c22 0 39 -17 39 -39c0 -23 -17 -41 -41 -41zM461 831c-22 0 -38 17 -38 39c0 24 17 41 40 41c22 0 39 -17 39 -39c0 -23 -17 -41 -41 -41zM494 0l-41 191h-305l-87 -191h-59l331 710h60l159 -710h-58zM172 242h270l-86 398
h-2z" />
    <glyph glyph-name="uni1EA0" unicode="&#x1ea0;" horiz-adv-x="613" 
d="M552 0h-58l-41 191h-305l-87 -191h-59l331 710h60zM172 242h270l-86 398h-2zM264 -124c22 0 38 -17 38 -39c0 -24 -17 -41 -40 -41c-22 0 -39 17 -39 39c0 23 17 41 41 41z" />
    <glyph glyph-name="Agrave" unicode="&#xc0;" horiz-adv-x="613" 
d="M397 795h-57l-95 139h62zM494 0l-41 191h-305l-87 -191h-59l331 710h60l159 -710h-58zM172 242h270l-86 398h-2z" />
    <glyph glyph-name="uni1EA2" unicode="&#x1ea2;" horiz-adv-x="613" 
d="M399 914c-26 0 -52 -14 -68 -33l-21 25c23 25 56 43 94 43c45 0 70 -28 69 -64c0 -44 -38 -69 -85 -92l-7 -22h-22c-5 8 -9 13 -8 22c1 26 84 47 85 91c0 22 -18 30 -37 30zM494 0l-41 191h-305l-87 -191h-59l331 710h60l159 -710h-58zM172 242h270l-86 398h-2z" />
    <glyph glyph-name="Amacron" unicode="&#x100;" horiz-adv-x="613" 
d="M515 891l-6 -46h-252l7 46h251zM494 0l-41 191h-305l-87 -191h-59l331 710h60l159 -710h-58zM172 242h270l-86 398h-2z" />
    <glyph glyph-name="Aogonek" unicode="&#x104;" horiz-adv-x="613" 
d="M556 -132l2 -39c-17 -9 -37 -13 -62 -13c-50 0 -78 25 -75 72c1 41 33 82 73 113l-41 190h-305l-87 -191h-59l331 710h60l159 -710c-52 -30 -85 -67 -86 -104c-1 -22 11 -40 40 -40c24 0 36 4 50 12zM172 242h270l-86 398h-2z" />
    <glyph glyph-name="Aring" unicode="&#xc5;" horiz-adv-x="613" 
d="M383 785c-47 0 -82 35 -82 82c0 49 36 84 85 84c48 0 83 -34 83 -81c0 -49 -36 -85 -86 -85zM386 914c-28 0 -48 -19 -48 -46s19 -46 46 -46c28 0 48 20 48 48c0 25 -19 44 -46 44zM494 0l-41 191h-305l-87 -191h-59l331 710h60l159 -710h-58zM172 242h270l-86 398h-2z
" />
    <glyph glyph-name="Aringacute" unicode="&#x1fa;" horiz-adv-x="613" 
d="M382 784c-47 0 -82 35 -82 82c0 49 36 84 85 84c25 0 47 -9 62 -25l70 48l67 1l-119 -83c2 -7 3 -14 3 -22c0 -49 -36 -85 -86 -85zM385 913c-28 0 -48 -19 -48 -46s19 -46 46 -46c28 0 48 20 48 48c0 25 -19 44 -46 44zM333 710h60l159 -710h-58l-41 191h-305l-87 -191
h-59zM172 242h270l-86 398h-2z" />
    <glyph glyph-name="Atilde" unicode="&#xc3;" horiz-adv-x="613" 
d="M326 873c-26 0 -48 -22 -64 -59l-35 17c23 55 54 87 95 87c32 0 50 -17 68 -32s36 -32 57 -32c22 0 46 20 62 60l35 -15c-23 -60 -58 -90 -93 -90c-32 0 -55 23 -74 39c-18 14 -34 25 -51 25zM494 0l-41 191h-305l-87 -191h-59l331 710h60l159 -710h-58zM172 242h270
l-86 398h-2z" />
    <glyph glyph-name="AE" unicode="&#xc6;" horiz-adv-x="848" 
d="M830 659h-331l-34 -279h277l-6 -52h-278l-33 -276h347l-5 -52h-403l24 191h-228l-118 -191h-63l440 710h416zM394 242l50 408h-2l-251 -408h203z" />
    <glyph glyph-name="AEacute" unicode="&#x1fc;" horiz-adv-x="848" 
d="M649 935l-129 -139h-57l124 139h62zM830 659h-331l-34 -279h277l-6 -52h-278l-33 -276h347l-5 -52h-403l24 191h-228l-118 -191h-63l440 710h416zM394 242l50 408h-2l-251 -408h203z" />
    <glyph glyph-name="B" unicode="B" horiz-adv-x="594" 
d="M417 372c64 -16 112 -59 112 -143c0 -137 -103 -229 -248 -229h-214l87 710h211c100 0 173 -38 173 -140c0 -80 -41 -163 -120 -195zM204 659l-33 -265h150c93 0 159 74 159 168c0 63 -38 97 -128 97h-148zM272 52c112 0 199 69 199 175c0 78 -48 115 -151 115h-154
l-37 -290h143z" />
    <glyph glyph-name="C" unicode="C" horiz-adv-x="679" 
d="M604 114c-63 -70 -157 -119 -255 -119c-162 0 -273 110 -273 299c0 224 147 421 359 421c88 0 173 -38 243 -151l-48 -32c-53 93 -115 130 -196 130c-180 0 -301 -179 -301 -367c0 -152 83 -247 219 -247c72 0 152 35 210 101z" />
    <glyph glyph-name="Cacute" unicode="&#x106;" horiz-adv-x="679" 
d="M550 934h62l-129 -139h-57zM604 114c-63 -70 -157 -119 -255 -119c-162 0 -273 110 -273 299c0 224 147 421 359 421c88 0 173 -38 243 -151l-48 -32c-53 93 -115 130 -196 130c-180 0 -301 -179 -301 -367c0 -152 83 -247 219 -247c72 0 152 35 210 101z" />
    <glyph glyph-name="Ccaron" unicode="&#x10c;" horiz-adv-x="679" 
d="M493 795h-51l-90 140h54l64 -104h3l89 104h57zM434 662c-180 0 -301 -179 -301 -367c0 -152 83 -247 219 -247c72 0 152 35 210 101l42 -35c-63 -70 -157 -119 -255 -119c-162 0 -273 110 -273 299c0 224 147 421 359 421c88 0 173 -38 243 -151l-48 -32
c-53 93 -115 130 -196 130z" />
    <glyph glyph-name="Ccedilla" unicode="&#xc7;" horiz-adv-x="679" 
d="M434 662c-180 0 -301 -179 -301 -367c0 -152 83 -247 219 -247c72 0 152 35 210 101l42 -35c-63 -70 -157 -119 -255 -119h-1l-17 -29l1 -1c43 -3 70 -22 70 -62c0 -49 -42 -89 -100 -89c-18 0 -34 3 -45 7l3 33c10 -5 21 -7 39 -7c29 0 63 17 63 55c0 24 -22 35 -69 37
l3 26l16 30l-1 2c-141 16 -235 123 -235 297c0 224 147 421 359 421c88 0 173 -38 243 -151l-48 -32c-53 93 -115 130 -196 130z" />
    <glyph glyph-name="Ccircumflex" unicode="&#x108;" horiz-adv-x="679" 
d="M479 901l-90 -106h-56l123 140h51l93 -140h-55l-64 106h-2zM434 662c-180 0 -301 -179 -301 -367c0 -152 83 -247 219 -247c72 0 152 35 210 101l42 -35c-63 -70 -157 -119 -255 -119c-162 0 -273 110 -273 299c0 224 147 421 359 421c88 0 173 -38 243 -151l-48 -32
c-53 93 -115 130 -196 130z" />
    <glyph glyph-name="Cdotaccent" unicode="&#x10a;" horiz-adv-x="679" 
d="M478 911c22 0 39 -17 39 -39c0 -23 -17 -41 -41 -41c-22 0 -38 17 -38 39c0 24 17 41 40 41zM604 114c-63 -70 -157 -119 -255 -119c-162 0 -273 110 -273 299c0 224 147 421 359 421c88 0 173 -38 243 -151l-48 -32c-53 93 -115 130 -196 130
c-180 0 -301 -179 -301 -367c0 -152 83 -247 219 -247c72 0 152 35 210 101z" />
    <glyph glyph-name="D" unicode="D" horiz-adv-x="677" 
d="M251 0h-184l87 710h190c185 0 285 -111 285 -290c0 -247 -150 -420 -378 -420zM255 52c190 0 317 155 317 367c0 148 -81 240 -233 240h-134l-75 -607h125z" />
    <glyph glyph-name="Eth" unicode="&#xd0;" horiz-adv-x="676" 
d="M345 710c185 0 285 -111 285 -290c0 -247 -150 -420 -378 -420h-184l42 343h-57l6 51h57l39 316h190zM256 52c190 0 317 155 317 367c0 148 -81 240 -233 240h-134l-33 -265h150l-6 -51h-150l-36 -291h125z" />
    <glyph glyph-name="Dcaron" unicode="&#x10e;" horiz-adv-x="677" 
d="M432 795h-51l-90 140h54l64 -104h3l89 104h57zM344 710c185 0 285 -111 285 -290c0 -247 -150 -420 -378 -420h-184l87 710h190zM255 52c190 0 317 155 317 367c0 148 -81 240 -233 240h-134l-75 -607h125z" />
    <glyph glyph-name="Dcroat" unicode="&#x110;" horiz-adv-x="676" 
d="M345 710c185 0 285 -111 285 -290c0 -247 -150 -420 -378 -420h-184l42 343h-57l6 51h57l39 316h190zM256 52c190 0 317 155 317 367c0 148 -81 240 -233 240h-134l-33 -265h150l-6 -51h-150l-36 -291h125z" />
    <glyph glyph-name="E" unicode="E" horiz-adv-x="552" 
d="M477 52l-6 -52h-404l87 710h384l-6 -51h-328l-35 -279h273l-6 -51h-273l-34 -277h348z" />
    <glyph glyph-name="Eacute" unicode="&#xc9;" horiz-adv-x="552" 
d="M412 937h62l-129 -139h-57zM477 52l-6 -52h-404l87 710h384l-6 -51h-328l-35 -279h273l-6 -51h-273l-34 -277h348z" />
    <glyph glyph-name="Ebreve" unicode="&#x114;" horiz-adv-x="552" 
d="M369 797c-65 0 -111 48 -106 134l43 -1c-3 -53 15 -92 64 -92c52 0 87 40 96 93l43 -1c-16 -84 -72 -133 -140 -133zM477 52l-6 -52h-404l87 710h384l-6 -51h-328l-35 -279h273l-6 -51h-273l-34 -277h348z" />
    <glyph glyph-name="Ecaron" unicode="&#x11a;" horiz-adv-x="552" 
d="M391 797h-51l-90 140h54l64 -104h3l89 104h57zM532 659h-328l-35 -279h273l-6 -51h-273l-34 -277h348l-6 -52h-404l87 710h384z" />
    <glyph glyph-name="Ecircumflex" unicode="&#xca;" horiz-adv-x="552" 
d="M377 903l-90 -106h-56l123 140h51l93 -140h-55l-64 106h-2zM532 659h-328l-35 -279h273l-6 -51h-273l-34 -277h348l-6 -52h-404l87 710h384z" />
    <glyph glyph-name="uni1EBE" unicode="&#x1ebe;" horiz-adv-x="552" 
d="M659 950l-134 -139h-47l120 138zM373 877l-90 -106h-56l123 140h51l93 -140h-55l-64 106h-2zM67 0l87 710h384l-6 -51h-328l-35 -279h273l-6 -51h-273l-34 -277h348l-6 -52h-404z" />
    <glyph glyph-name="uni1EC6" unicode="&#x1ec6;" horiz-adv-x="552" 
d="M377 903l-90 -106h-56l123 140h51l93 -140h-55l-64 106h-2zM532 659h-328l-35 -279h273l-6 -51h-273l-34 -277h348l-6 -52h-404l87 710h384zM258 -124c22 0 38 -17 38 -39c0 -24 -17 -41 -40 -41c-22 0 -39 17 -39 39c0 23 17 41 41 41z" />
    <glyph glyph-name="uni1EC0" unicode="&#x1ec0;" horiz-adv-x="552" 
d="M578 811h-46l-107 138h60zM372 877l-90 -106h-56l123 140h51l93 -140h-55l-64 106h-2zM67 0l87 710h384l-6 -51h-328l-35 -279h273l-6 -51h-273l-34 -277h348l-6 -52h-404z" />
    <glyph glyph-name="uni1EC2" unicode="&#x1ec2;" horiz-adv-x="552" 
d="M551 956c45 0 70 -27 70 -64c-1 -44 -39 -69 -85 -92l-8 -23l-22 1c-5 8 -9 14 -8 22c1 26 84 47 85 91c0 22 -18 30 -37 30c-26 0 -52 -14 -68 -32l-21 25c23 24 57 42 94 42zM374 877l-90 -106h-56l123 140h51l93 -140h-55l-64 106h-2zM67 0l87 710h384l-6 -51h-328
l-35 -279h273l-6 -51h-273l-34 -277h348l-6 -52h-404z" />
    <glyph glyph-name="uni1EC4" unicode="&#x1ec4;" horiz-adv-x="552" 
d="M325 928c-21 0 -40 -15 -54 -47l-29 14c19 44 46 67 79 67c29 0 48 -16 65 -30c15 -10 29 -19 47 -19c20 0 41 12 55 46l28 -13c-20 -48 -50 -68 -79 -68c-26 0 -46 14 -63 27c-17 12 -32 23 -49 23zM368 827l-93 -91h-50l123 122h46l97 -122h-50l-69 91h-4zM532 659
h-328l-35 -279h273l-6 -51h-273l-34 -277h348l-6 -52h-404l87 710h384z" />
    <glyph glyph-name="Edieresis" unicode="&#xcb;" horiz-adv-x="552" 
d="M299 913c22 0 39 -17 39 -39c0 -23 -17 -41 -41 -41c-22 0 -38 17 -38 39c0 24 17 41 40 41zM451 913c22 0 39 -17 39 -39c0 -23 -17 -41 -41 -41c-22 0 -38 17 -38 39c0 24 17 41 40 41zM477 52l-6 -52h-404l87 710h384l-6 -51h-328l-35 -279h273l-6 -51h-273l-34 -277
h348z" />
    <glyph glyph-name="Edotaccent" unicode="&#x116;" horiz-adv-x="552" 
d="M376 913c22 0 39 -17 39 -39c0 -23 -17 -41 -41 -41c-22 0 -38 17 -38 39c0 24 17 41 40 41zM477 52l-6 -52h-404l87 710h384l-6 -51h-328l-35 -279h273l-6 -51h-273l-34 -277h348z" />
    <glyph glyph-name="uni1EB8" unicode="&#x1eb8;" horiz-adv-x="552" 
d="M477 52l-6 -52h-404l87 710h384l-6 -51h-328l-35 -279h273l-6 -51h-273l-34 -277h348zM256 -204c-22 0 -39 17 -39 39c0 23 17 41 41 41c22 0 38 -17 38 -39c0 -24 -17 -41 -40 -41z" />
    <glyph glyph-name="Egrave" unicode="&#xc8;" horiz-adv-x="552" 
d="M350 937l90 -139h-57l-95 139h62zM477 52l-6 -52h-404l87 710h384l-6 -51h-328l-35 -279h273l-6 -51h-273l-34 -277h348z" />
    <glyph glyph-name="uni1EBA" unicode="&#x1eba;" horiz-adv-x="552" 
d="M319 883l-21 25c23 25 56 43 94 43c45 0 70 -28 69 -64c0 -44 -38 -69 -85 -92l-7 -22h-22c-5 8 -9 13 -8 22c1 26 84 47 85 91c0 22 -18 30 -37 30c-26 0 -52 -14 -68 -33zM477 52l-6 -52h-404l87 710h384l-6 -51h-328l-35 -279h273l-6 -51h-273l-34 -277h348z" />
    <glyph glyph-name="Emacron" unicode="&#x112;" horiz-adv-x="552" 
d="M252 893h251l-6 -46h-252zM477 52l-6 -52h-404l87 710h384l-6 -51h-328l-35 -279h273l-6 -51h-273l-34 -277h348z" />
    <glyph glyph-name="Eogonek" unicode="&#x118;" horiz-adv-x="552" 
d="M532 659h-328l-35 -279h273l-6 -51h-273l-34 -277h348l-6 -52c-52 -30 -85 -67 -86 -104c-1 -22 11 -40 40 -40c24 0 36 4 50 12l2 -39c-17 -9 -37 -13 -62 -13c-50 0 -78 25 -75 72c1 40 31 79 68 110l1 2h-342l87 710h384z" />
    <glyph glyph-name="uni1EBC" unicode="&#x1ebc;" horiz-adv-x="552" 
d="M216 833c23 55 54 87 95 87c32 0 50 -17 68 -32s36 -32 57 -32c22 0 46 20 62 60l35 -15c-23 -60 -58 -90 -93 -90c-32 0 -55 23 -74 39c-18 14 -34 25 -51 25c-26 0 -48 -22 -64 -59zM477 52l-6 -52h-404l87 710h384l-6 -51h-328l-35 -279h273l-6 -51h-273l-34 -277h348
z" />
    <glyph glyph-name="F" unicode="F" horiz-adv-x="536" 
d="M204 659l-36 -286h296l-6 -52h-295l-40 -321h-56l87 710h401l-6 -51h-345z" />
    <glyph glyph-name="G" unicode="G" horiz-adv-x="711" 
d="M644 354l-32 -267c-68 -61 -166 -92 -257 -92c-170 0 -279 110 -279 298c0 225 147 422 359 422c86 0 167 -30 231 -113l-44 -36c-55 69 -118 96 -188 96c-178 0 -301 -173 -301 -368c0 -152 82 -246 225 -246c71 0 144 23 201 69l23 185h-208l6 52h264z" />
    <glyph glyph-name="Gbreve" unicode="&#x11e;" horiz-adv-x="711" 
d="M455 795c-65 0 -111 48 -106 134l43 -1c-3 -53 15 -92 64 -92c52 0 87 40 96 93l43 -1c-16 -84 -72 -133 -140 -133zM644 354l-32 -267c-68 -61 -166 -92 -257 -92c-170 0 -279 110 -279 298c0 225 147 422 359 422c86 0 167 -30 231 -113l-44 -36
c-55 69 -118 96 -188 96c-178 0 -301 -173 -301 -368c0 -152 82 -246 225 -246c71 0 144 23 201 69l23 185h-208l6 52h264z" />
    <glyph glyph-name="Gcaron" unicode="&#x1e6;" horiz-adv-x="711" 
d="M477 795h-51l-90 140h54l64 -104h3l89 104h57zM374 302l6 52h264l-32 -267c-68 -61 -166 -92 -257 -92c-170 0 -279 110 -279 298c0 225 147 422 359 422c86 0 167 -30 231 -113l-44 -36c-55 69 -118 96 -188 96c-178 0 -301 -173 -301 -368c0 -152 82 -246 225 -246
c71 0 144 23 201 69l23 185h-208z" />
    <glyph glyph-name="Gcircumflex" unicode="&#x11c;" horiz-adv-x="711" 
d="M463 901l-90 -106h-56l123 140h51l93 -140h-55l-64 106h-2zM374 302l6 52h264l-32 -267c-68 -61 -166 -92 -257 -92c-170 0 -279 110 -279 298c0 225 147 422 359 422c86 0 167 -30 231 -113l-44 -36c-55 69 -118 96 -188 96c-178 0 -301 -173 -301 -368
c0 -152 82 -246 225 -246c71 0 144 23 201 69l23 185h-208z" />
    <glyph glyph-name="Gcommaaccent" unicode="&#x122;" horiz-adv-x="711" 
d="M644 354l-32 -267c-68 -61 -166 -92 -257 -92c-170 0 -279 110 -279 298c0 225 147 422 359 422c86 0 167 -30 231 -113l-44 -36c-55 69 -118 96 -188 96c-178 0 -301 -173 -301 -368c0 -152 82 -246 225 -246c71 0 144 23 201 69l23 185h-208l6 52h264zM365 -54v-22
c0 -74 -31 -124 -106 -130l-9 34c48 7 68 35 68 98v20h47z" />
    <glyph glyph-name="Gdotaccent" unicode="&#x120;" horiz-adv-x="711" 
d="M462 911c22 0 39 -17 39 -39c0 -23 -17 -41 -41 -41c-22 0 -38 17 -38 39c0 24 17 41 40 41zM644 354l-32 -267c-68 -61 -166 -92 -257 -92c-170 0 -279 110 -279 298c0 225 147 422 359 422c86 0 167 -30 231 -113l-44 -36c-55 69 -118 96 -188 96
c-178 0 -301 -173 -301 -368c0 -152 82 -246 225 -246c71 0 144 23 201 69l23 185h-208l6 52h264z" />
    <glyph glyph-name="H" unicode="H" horiz-adv-x="675" 
d="M635 710l-87 -710h-55l38 310h-370l-38 -310h-56l87 710h56l-43 -348h370l43 348h55z" />
    <glyph glyph-name="Hbar" unicode="&#x126;" horiz-adv-x="677" 
d="M670 575l-5 -41h-51l-65 -534h-55l38 310h-370l-38 -310h-56l65 534h-59l5 41h59l17 135h56l-17 -135h370l17 135h55l-17 -135h51zM538 362l21 172h-370l-21 -172h370z" />
    <glyph glyph-name="Hcircumflex" unicode="&#x124;" horiz-adv-x="675" 
d="M421 901l-90 -106h-56l123 140h51l93 -140h-55l-64 106h-2zM580 710h55l-87 -710h-55l38 310h-370l-38 -310h-56l87 710h56l-43 -348h370z" />
    <glyph glyph-name="I" unicode="I" horiz-adv-x="262" 
d="M129 0h-56l87 710h56z" />
    <glyph glyph-name="IJ" unicode="&#x132;" horiz-adv-x="720" 
d="M129 0h-56l87 710h56zM314 129c29 -47 73 -81 128 -81c67 0 120 49 136 180l59 482h56l-59 -485c-19 -155 -83 -230 -190 -230c-71 0 -130 33 -168 94z" />
    <glyph glyph-name="Iacute" unicode="&#xcd;" horiz-adv-x="262" 
d="M305 934h62l-129 -139h-57zM129 0h-56l87 710h56z" />
    <glyph glyph-name="Ibreve" unicode="&#x12c;" horiz-adv-x="262" 
d="M204 795c-65 0 -111 48 -106 134l43 -1c-3 -53 15 -92 64 -92c52 0 87 40 96 93l43 -1c-16 -84 -72 -133 -140 -133zM129 0h-56l87 710h56z" />
    <glyph glyph-name="Icircumflex" unicode="&#xce;" horiz-adv-x="262" 
d="M240 935l93 -140h-55l-64 106h-2l-90 -106h-56l123 140h51zM73 0l87 710h56l-87 -710h-56z" />
    <glyph glyph-name="Idieresis" unicode="&#xcf;" horiz-adv-x="262" 
d="M134 911c22 0 39 -17 39 -39c0 -23 -17 -41 -41 -41c-22 0 -38 17 -38 39c0 24 17 41 40 41zM286 911c22 0 39 -17 39 -39c0 -23 -17 -41 -41 -41c-22 0 -38 17 -38 39c0 24 17 41 40 41zM129 0h-56l87 710h56z" />
    <glyph glyph-name="Idotaccent" unicode="&#x130;" horiz-adv-x="262" 
d="M211 911c22 0 39 -17 39 -39c0 -23 -17 -41 -41 -41c-22 0 -38 17 -38 39c0 24 17 41 40 41zM129 0h-56l87 710h56z" />
    <glyph glyph-name="uni1ECA" unicode="&#x1eca;" horiz-adv-x="262" 
d="M129 0h-56l87 710h56zM82 -204c-22 0 -39 17 -39 39c0 23 17 41 41 41c22 0 38 -17 38 -39c0 -24 -17 -41 -40 -41z" />
    <glyph glyph-name="Igrave" unicode="&#xcc;" horiz-adv-x="262" 
d="M132 934l90 -139h-57l-95 139h62zM129 0h-56l87 710h56z" />
    <glyph glyph-name="uni1EC8" unicode="&#x1ec8;" horiz-adv-x="262" 
d="M154 881l-21 25c23 25 56 43 94 43c45 0 70 -28 69 -64c0 -44 -38 -69 -85 -92l-7 -22h-22c-5 8 -9 13 -8 22c1 26 84 47 85 91c0 22 -18 30 -37 30c-26 0 -52 -14 -68 -33zM129 0h-56l87 710h56z" />
    <glyph glyph-name="Imacron" unicode="&#x12a;" horiz-adv-x="262" 
d="M87 891h251l-6 -46h-252zM129 0h-56l87 710h56z" />
    <glyph glyph-name="Iogonek" unicode="&#x12e;" horiz-adv-x="262" 
d="M83 -144c24 0 36 4 50 12l2 -39c-17 -9 -37 -13 -62 -13c-50 0 -78 25 -75 72c1 42 35 84 75 115l87 707h56l-87 -710c-52 -30 -85 -67 -86 -104c-1 -22 11 -40 40 -40z" />
    <glyph glyph-name="Itilde" unicode="&#x128;" horiz-adv-x="262" 
d="M50 831c23 55 54 87 95 87c32 0 50 -17 68 -32s36 -32 57 -32c22 0 46 20 62 60l35 -15c-23 -60 -58 -90 -93 -90c-32 0 -55 23 -74 39c-18 14 -34 25 -51 25c-26 0 -48 -22 -64 -59zM129 0h-56l87 710h56z" />
    <glyph glyph-name="J" unicode="J" horiz-adv-x="458" 
d="M52 129c29 -47 73 -81 128 -81c67 0 120 49 136 180l59 482h56l-59 -485c-19 -155 -83 -230 -190 -230c-71 0 -130 33 -168 94z" />
    <glyph glyph-name="Jcircumflex" unicode="&#x134;" horiz-adv-x="458" 
d="M454 935l93 -140h-55l-64 106h-2l-90 -106h-56l123 140h51zM316 228l59 482h56l-59 -485c-19 -155 -83 -230 -190 -230c-71 0 -130 33 -168 94l38 40c29 -47 73 -81 128 -81c67 0 120 49 136 180z" />
    <glyph glyph-name="K" unicode="K" horiz-adv-x="599" 
d="M609 710l-293 -330l211 -380h-68l-184 332h-2l-128 -143l-22 -189h-56l87 710h56l-53 -428h2l379 428h71z" />
    <glyph glyph-name="Kcommaaccent" unicode="&#x136;" horiz-adv-x="599" 
d="M609 710l-293 -330l211 -380h-68l-184 332h-2l-128 -143l-22 -189h-56l87 710h56l-53 -428h2l379 428h71zM242 -74v20h47v-22c0 -74 -31 -124 -106 -130l-9 34c48 7 68 35 68 98z" />
    <glyph glyph-name="L" unicode="L" horiz-adv-x="515" 
d="M461 52l-6 -52h-388l87 710h56l-81 -658h332z" />
    <glyph glyph-name="Lacute" unicode="&#x139;" horiz-adv-x="515" 
d="M376 935h62l-129 -139h-57zM461 52l-6 -52h-388l87 710h56l-81 -658h332z" />
    <glyph glyph-name="Lcaron" unicode="&#x13d;" horiz-adv-x="515" 
d="M344 764h55l-59 -172h-41zM461 52l-6 -52h-388l87 710h56l-81 -658h332z" />
    <glyph glyph-name="Lcommaaccent" unicode="&#x13b;" horiz-adv-x="515" 
d="M461 52l-6 -52h-388l87 710h56l-81 -658h332zM274 -54v-22c0 -74 -31 -124 -106 -130l-9 34c48 7 68 35 68 98v20h47z" />
    <glyph glyph-name="Ldot" unicode="&#x13f;" horiz-adv-x="515" 
d="M461 52l-6 -52h-388l87 710h56l-81 -658h332zM383 376c22 0 39 -17 39 -39c0 -24 -17 -41 -40 -41c-22 0 -39 17 -39 39c0 24 17 41 40 41z" />
    <glyph glyph-name="Lslash" unicode="&#x141;" horiz-adv-x="525" 
d="M139 52h332l-6 -52h-388l36 295l-84 -40l7 50l83 40l45 365h56l-41 -336l88 43l-7 -51l-88 -42z" />
    <glyph glyph-name="M" unicode="M" horiz-adv-x="814" 
d="M716 710h59l-87 -710h-55l72 595h-2l-286 -446h-41l-179 448h-1l-73 -597h-56l87 710h58l192 -489h2z" />
    <glyph glyph-name="N" unicode="N" horiz-adv-x="704" 
d="M607 710h56l-86 -710h-59l-318 609h-2l-75 -609h-56l87 710h57l320 -613h1z" />
    <glyph glyph-name="Nacute" unicode="&#x143;" horiz-adv-x="704" 
d="M533 935l-129 -139h-57l124 139h62zM607 710h56l-86 -710h-59l-318 609h-2l-75 -609h-56l87 710h57l320 -613h1z" />
    <glyph glyph-name="Ncaron" unicode="&#x147;" horiz-adv-x="704" 
d="M450 795h-51l-90 140h54l64 -104h3l89 104h57zM607 710h56l-86 -710h-59l-318 609h-2l-75 -609h-56l87 710h57l320 -613h1z" />
    <glyph glyph-name="Ncommaaccent" unicode="&#x145;" horiz-adv-x="704" 
d="M607 710h56l-86 -710h-59l-318 609h-2l-75 -609h-56l87 710h57l320 -613h1zM290 -74v20h47v-22c0 -74 -31 -124 -106 -130l-9 34c48 7 68 35 68 98z" />
    <glyph glyph-name="Eng" unicode="&#x14a;" horiz-adv-x="703" 
d="M608 710h56l-95 -766c-11 -98 -48 -147 -126 -147c-27 0 -47 6 -67 18l13 45c19 -14 33 -15 49 -15c37 0 65 19 76 105l6 45l-320 613h-2l-75 -608h-56l87 710h57l320 -613h1z" />
    <glyph glyph-name="uni019D" unicode="&#x19d;" horiz-adv-x="704" 
d="M608 710h55l-86 -710h-59l-318 609h-2l-81 -665c-13 -98 -50 -147 -127 -147c-27 0 -47 6 -67 18l13 45c19 -14 33 -15 49 -15c37 0 66 19 76 105l93 760h57l320 -614h1z" />
    <glyph glyph-name="Ntilde" unicode="&#xd1;" horiz-adv-x="704" 
d="M373 873c-26 0 -48 -22 -64 -59l-35 17c23 55 54 87 95 87c32 0 50 -17 68 -32s36 -32 57 -32c22 0 46 20 62 60l35 -15c-23 -60 -58 -90 -93 -90c-32 0 -55 23 -74 39c-18 14 -34 25 -51 25zM607 710h56l-86 -710h-59l-318 609h-2l-75 -609h-56l87 710h57l320 -613h1z
" />
    <glyph glyph-name="O" unicode="O" horiz-adv-x="766" 
d="M438 715c167 0 280 -106 280 -296c0 -227 -140 -424 -364 -424c-168 0 -279 109 -279 297c0 222 145 423 363 423zM357 48c184 0 303 174 303 370c0 160 -87 244 -226 244c-181 0 -301 -178 -301 -370c0 -157 87 -244 224 -244z" />
    <glyph glyph-name="Oacute" unicode="&#xd3;" horiz-adv-x="766" 
d="M556 934h62l-129 -139h-57zM438 715c167 0 280 -106 280 -296c0 -227 -140 -424 -364 -424c-168 0 -279 109 -279 297c0 222 145 423 363 423zM357 48c184 0 303 174 303 370c0 160 -87 244 -226 244c-181 0 -301 -178 -301 -370c0 -157 87 -244 224 -244z" />
    <glyph glyph-name="Obreve" unicode="&#x14e;" horiz-adv-x="766" 
d="M463 795c-65 0 -111 48 -106 134l43 -1c-3 -53 15 -92 64 -92c52 0 87 40 96 93l43 -1c-16 -84 -72 -133 -140 -133zM438 715c167 0 280 -106 280 -296c0 -227 -140 -424 -364 -424c-168 0 -279 109 -279 297c0 222 145 423 363 423zM357 48c184 0 303 174 303 370
c0 160 -87 244 -226 244c-181 0 -301 -178 -301 -370c0 -157 87 -244 224 -244z" />
    <glyph glyph-name="Ocircumflex" unicode="&#xd4;" horiz-adv-x="766" 
d="M471 901l-90 -106h-56l123 140h51l93 -140h-55l-64 106h-2zM438 715c167 0 280 -106 280 -296c0 -227 -140 -424 -364 -424c-168 0 -279 109 -279 297c0 222 145 423 363 423zM357 48c184 0 303 174 303 370c0 160 -87 244 -226 244c-181 0 -301 -178 -301 -370
c0 -157 87 -244 224 -244z" />
    <glyph glyph-name="uni1ED0" unicode="&#x1ed0;" horiz-adv-x="766" 
d="M753 948l-134 -139h-47l120 138zM467 875l-90 -106h-56l123 140h51l93 -140h-55l-64 106h-2zM438 715c167 0 280 -106 280 -296c0 -227 -140 -424 -364 -424c-168 0 -279 109 -279 297c0 222 145 423 363 423zM357 48c184 0 303 174 303 370c0 160 -87 244 -226 244
c-181 0 -301 -178 -301 -370c0 -157 87 -244 224 -244z" />
    <glyph glyph-name="uni1ED8" unicode="&#x1ed8;" horiz-adv-x="766" 
d="M471 901l-90 -106h-56l123 140h51l93 -140h-55l-64 106h-2zM438 715c167 0 280 -106 280 -296c0 -227 -140 -424 -364 -424c-168 0 -279 109 -279 297c0 222 145 423 363 423zM357 48c184 0 303 174 303 370c0 160 -87 244 -226 244c-181 0 -301 -178 -301 -370
c0 -157 87 -244 224 -244zM337 -124c22 0 38 -17 38 -39c0 -24 -17 -41 -40 -41c-22 0 -39 17 -39 39c0 23 17 41 41 41z" />
    <glyph glyph-name="uni1ED2" unicode="&#x1ed2;" horiz-adv-x="766" 
d="M672 809h-46l-107 138h60zM466 875l-90 -106h-56l123 140h51l93 -140h-55l-64 106h-2zM438 715c167 0 280 -106 280 -296c0 -227 -140 -424 -364 -424c-168 0 -279 109 -279 297c0 222 145 423 363 423zM357 48c184 0 303 174 303 370c0 160 -87 244 -226 244
c-181 0 -301 -178 -301 -370c0 -157 87 -244 224 -244z" />
    <glyph glyph-name="uni1ED4" unicode="&#x1ed4;" horiz-adv-x="766" 
d="M640 919c-26 0 -52 -14 -68 -32l-21 25c23 24 57 42 94 42c45 0 70 -27 70 -64c-1 -44 -39 -69 -85 -92l-8 -23l-22 1c-5 8 -9 14 -8 22c1 26 84 47 85 91c0 22 -18 30 -37 30zM468 875l-90 -106h-56l123 140h51l93 -140h-55l-64 106h-2zM438 715
c167 0 280 -106 280 -296c0 -227 -140 -424 -364 -424c-168 0 -279 109 -279 297c0 222 145 423 363 423zM357 48c184 0 303 174 303 370c0 160 -87 244 -226 244c-181 0 -301 -178 -301 -370c0 -157 87 -244 224 -244z" />
    <glyph glyph-name="uni1ED6" unicode="&#x1ed6;" horiz-adv-x="766" 
d="M419 926c-21 0 -40 -15 -54 -47l-29 14c19 44 46 67 79 67c29 0 48 -16 65 -30c15 -10 29 -19 47 -19c20 0 41 12 55 46l28 -13c-20 -48 -50 -68 -79 -68c-26 0 -46 14 -63 27c-17 12 -32 23 -49 23zM462 825l-93 -91h-50l123 122h46l97 -122h-50l-69 91h-4zM438 715
c167 0 280 -106 280 -296c0 -227 -140 -424 -364 -424c-168 0 -279 109 -279 297c0 222 145 423 363 423zM357 48c184 0 303 174 303 370c0 160 -87 244 -226 244c-181 0 -301 -178 -301 -370c0 -157 87 -244 224 -244z" />
    <glyph glyph-name="Odieresis" unicode="&#xd6;" horiz-adv-x="766" 
d="M393 911c22 0 39 -17 39 -39c0 -23 -17 -41 -41 -41c-22 0 -38 17 -38 39c0 24 17 41 40 41zM545 911c22 0 39 -17 39 -39c0 -23 -17 -41 -41 -41c-22 0 -38 17 -38 39c0 24 17 41 40 41zM438 715c167 0 280 -106 280 -296c0 -227 -140 -424 -364 -424
c-168 0 -279 109 -279 297c0 222 145 423 363 423zM357 48c184 0 303 174 303 370c0 160 -87 244 -226 244c-181 0 -301 -178 -301 -370c0 -157 87 -244 224 -244z" />
    <glyph glyph-name="uni1ECC" unicode="&#x1ecc;" horiz-adv-x="766" 
d="M438 715c167 0 280 -106 280 -296c0 -227 -140 -424 -364 -424c-168 0 -279 109 -279 297c0 222 145 423 363 423zM357 48c184 0 303 174 303 370c0 160 -87 244 -226 244c-181 0 -301 -178 -301 -370c0 -157 87 -244 224 -244zM335 -204c-22 0 -39 17 -39 39
c0 23 17 41 41 41c22 0 38 -17 38 -39c0 -24 -17 -41 -40 -41z" />
    <glyph glyph-name="Ograve" unicode="&#xd2;" horiz-adv-x="766" 
d="M399 934l90 -139h-57l-95 139h62zM438 715c167 0 280 -106 280 -296c0 -227 -140 -424 -364 -424c-168 0 -279 109 -279 297c0 222 145 423 363 423zM357 48c184 0 303 174 303 370c0 160 -87 244 -226 244c-181 0 -301 -178 -301 -370c0 -157 87 -244 224 -244z" />
    <glyph glyph-name="uni1ECE" unicode="&#x1ece;" horiz-adv-x="766" 
d="M413 881l-21 25c23 25 56 43 94 43c45 0 70 -28 69 -64c0 -44 -38 -69 -85 -92l-7 -22h-22c-5 8 -9 13 -8 22c1 26 84 47 85 91c0 22 -18 30 -37 30c-26 0 -52 -14 -68 -33zM438 715c167 0 280 -106 280 -296c0 -227 -140 -424 -364 -424c-168 0 -279 109 -279 297
c0 222 145 423 363 423zM357 48c184 0 303 174 303 370c0 160 -87 244 -226 244c-181 0 -301 -178 -301 -370c0 -157 87 -244 224 -244z" />
    <glyph glyph-name="Ohorn" unicode="&#x1a0;" horiz-adv-x="820" 
d="M776 774h51l-13 -99c-13 -104 -53 -144 -111 -146c10 -33 15 -70 15 -110c0 -227 -140 -424 -364 -424c-168 0 -279 109 -279 297c0 222 145 423 363 423c115 0 204 -50 248 -143h10c40 0 59 34 69 110zM357 48c184 0 303 174 303 370c0 160 -87 244 -226 244
c-181 0 -301 -178 -301 -370c0 -157 87 -244 224 -244z" />
    <glyph glyph-name="uni1EDA" unicode="&#x1eda;" horiz-adv-x="820" 
d="M618 934l-129 -139h-57l124 139h62zM776 774h51l-13 -99c-13 -104 -53 -144 -111 -146c10 -33 15 -70 15 -110c0 -227 -140 -424 -364 -424c-168 0 -279 109 -279 297c0 222 145 423 363 423c115 0 204 -50 248 -143h10c40 0 59 34 69 110zM357 48c184 0 303 174 303 370
c0 160 -87 244 -226 244c-181 0 -301 -178 -301 -370c0 -157 87 -244 224 -244z" />
    <glyph glyph-name="uni1EE2" unicode="&#x1ee2;" horiz-adv-x="820" 
d="M776 774h51l-13 -99c-13 -104 -53 -144 -111 -146c10 -33 15 -70 15 -110c0 -227 -140 -424 -364 -424c-168 0 -279 109 -279 297c0 222 145 423 363 423c115 0 204 -50 248 -143h10c40 0 59 34 69 110zM357 48c184 0 303 174 303 370c0 160 -87 244 -226 244
c-181 0 -301 -178 -301 -370c0 -157 87 -244 224 -244zM337 -124c22 0 38 -17 38 -39c0 -24 -17 -41 -40 -41c-22 0 -39 17 -39 39c0 23 17 41 41 41z" />
    <glyph glyph-name="uni1EDC" unicode="&#x1edc;" horiz-adv-x="820" 
d="M489 795h-57l-95 139h62zM776 774h51l-13 -99c-13 -104 -53 -144 -111 -146c10 -33 15 -70 15 -110c0 -227 -140 -424 -364 -424c-168 0 -279 109 -279 297c0 222 145 423 363 423c115 0 204 -50 248 -143h10c40 0 59 34 69 110zM357 48c184 0 303 174 303 370
c0 160 -87 244 -226 244c-181 0 -301 -178 -301 -370c0 -157 87 -244 224 -244z" />
    <glyph glyph-name="uni1EDE" unicode="&#x1ede;" horiz-adv-x="820" 
d="M481 914c-26 0 -52 -14 -68 -33l-21 25c23 25 56 43 94 43c45 0 70 -28 69 -64c0 -44 -38 -69 -85 -92l-7 -22h-22c-5 8 -9 13 -8 22c1 26 84 47 85 91c0 22 -18 30 -37 30zM776 774h51l-13 -99c-13 -104 -53 -144 -111 -146c10 -33 15 -70 15 -110
c0 -227 -140 -424 -364 -424c-168 0 -279 109 -279 297c0 222 145 423 363 423c115 0 204 -50 248 -143h10c40 0 59 34 69 110zM357 48c184 0 303 174 303 370c0 160 -87 244 -226 244c-181 0 -301 -178 -301 -370c0 -157 87 -244 224 -244z" />
    <glyph glyph-name="uni1EE0" unicode="&#x1ee0;" horiz-adv-x="820" 
d="M409 873c-26 0 -48 -22 -64 -59l-35 17c23 55 54 87 95 87c32 0 50 -17 68 -32s36 -32 57 -32c22 0 46 20 62 60l35 -15c-23 -60 -58 -90 -93 -90c-32 0 -55 23 -74 39c-18 14 -34 25 -51 25zM776 774h51l-13 -99c-13 -104 -53 -144 -111 -146c10 -33 15 -70 15 -110
c0 -227 -140 -424 -364 -424c-168 0 -279 109 -279 297c0 222 145 423 363 423c115 0 204 -50 248 -143h10c40 0 59 34 69 110zM357 48c184 0 303 174 303 370c0 160 -87 244 -226 244c-181 0 -301 -178 -301 -370c0 -157 87 -244 224 -244z" />
    <glyph glyph-name="Ohungarumlaut" unicode="&#x150;" horiz-adv-x="766" 
d="M496 934h59l-129 -139h-54zM632 934h59l-129 -139h-53zM438 715c167 0 280 -106 280 -296c0 -227 -140 -424 -364 -424c-168 0 -279 109 -279 297c0 222 145 423 363 423zM357 48c184 0 303 174 303 370c0 160 -87 244 -226 244c-181 0 -301 -178 -301 -370
c0 -157 87 -244 224 -244z" />
    <glyph glyph-name="Omacron" unicode="&#x14c;" horiz-adv-x="766" 
d="M346 891h251l-6 -46h-252zM438 715c167 0 280 -106 280 -296c0 -227 -140 -424 -364 -424c-168 0 -279 109 -279 297c0 222 145 423 363 423zM357 48c184 0 303 174 303 370c0 160 -87 244 -226 244c-181 0 -301 -178 -301 -370c0 -157 87 -244 224 -244z" />
    <glyph glyph-name="uni01EA" unicode="&#x1ea;" horiz-adv-x="766" 
d="M391 -3c-49 -30 -80 -65 -81 -101c-1 -22 11 -40 40 -40c24 0 36 4 50 12l2 -39c-17 -9 -37 -13 -62 -13c-50 0 -78 25 -75 72c1 38 29 76 64 107l1 1c-155 10 -255 117 -255 296c0 222 145 423 363 423c167 0 280 -106 280 -296c0 -214 -125 -402 -327 -422zM133 292
c0 -157 87 -244 224 -244c184 0 303 174 303 370c0 160 -87 244 -226 244c-181 0 -301 -178 -301 -370z" />
    <glyph glyph-name="Oslash" unicode="&#xd8;" horiz-adv-x="766" 
d="M735 692l-72 -80c35 -48 55 -113 55 -193c0 -227 -140 -424 -364 -424c-78 0 -143 23 -191 67l-71 -78l-30 31l72 79c-38 49 -59 116 -59 198c0 222 145 423 363 423c80 0 148 -24 197 -71l70 77zM133 292c0 -63 14 -115 40 -155l424 465c-39 40 -95 60 -163 60
c-181 0 -301 -178 -301 -370zM660 418c0 62 -13 112 -37 151l-422 -465c38 -37 92 -56 156 -56c184 0 303 174 303 370z" />
    <glyph glyph-name="Oslashacute" unicode="&#x1fe;" horiz-adv-x="766" 
d="M610 935l-129 -139h-57l124 139h62zM735 692l-72 -80c35 -48 55 -113 55 -193c0 -227 -140 -424 -364 -424c-78 0 -143 23 -191 67l-71 -78l-30 31l72 79c-38 49 -59 116 -59 198c0 222 145 423 363 423c80 0 148 -24 197 -71l70 77zM133 292c0 -63 14 -115 40 -155
l424 465c-39 40 -95 60 -163 60c-181 0 -301 -178 -301 -370zM660 418c0 62 -13 112 -37 151l-422 -465c38 -37 92 -56 156 -56c184 0 303 174 303 370z" />
    <glyph glyph-name="Otilde" unicode="&#xd5;" horiz-adv-x="766" 
d="M309 831c23 55 54 87 95 87c32 0 50 -17 68 -32s36 -32 57 -32c22 0 46 20 62 60l35 -15c-23 -60 -58 -90 -93 -90c-32 0 -55 23 -74 39c-18 14 -34 25 -51 25c-26 0 -48 -22 -64 -59zM438 715c167 0 280 -106 280 -296c0 -227 -140 -424 -364 -424
c-168 0 -279 109 -279 297c0 222 145 423 363 423zM357 48c184 0 303 174 303 370c0 160 -87 244 -226 244c-181 0 -301 -178 -301 -370c0 -157 87 -244 224 -244z" />
    <glyph glyph-name="OE" unicode="&#x152;" horiz-adv-x="874" 
d="M854 659h-327l-35 -279h272l-6 -51h-272l-34 -277h346l-6 -52h-401h-40c-168 0 -275 112 -275 296c0 221 144 414 360 414h61h363zM397 53l75 604h-41c-178 1 -298 -170 -298 -360c0 -153 84 -244 221 -244h43z" />
    <glyph glyph-name="P" unicode="P" horiz-adv-x="569" 
d="M374 710c124 0 181 -66 181 -174c0 -149 -91 -248 -251 -248h-146l-35 -288h-56l87 710h220zM311 339c117 0 187 78 187 197c0 86 -58 123 -134 123h-160l-39 -320h146z" />
    <glyph glyph-name="Thorn" unicode="&#xde;" horiz-adv-x="584" 
d="M141 140l-18 -140h-56l87 710h56l-18 -147h178c123 0 183 -66 183 -175c0 -148 -92 -248 -251 -248h-161zM309 191c117 0 186 80 186 198c0 85 -57 122 -134 122h-175l-40 -320h163z" />
    <glyph glyph-name="Q" unicode="Q" horiz-adv-x="778" 
d="M718 419c0 -117 -37 -227 -104 -305l74 -83l-37 -40l-76 85c-58 -51 -133 -81 -221 -81c-168 0 -279 109 -279 297c0 222 145 423 363 423c167 0 280 -106 280 -296zM357 48c71 0 133 26 181 69l-75 85l37 39l75 -84c54 68 85 162 85 261c0 160 -87 244 -226 244
c-181 0 -301 -178 -301 -370c0 -157 87 -244 224 -244z" />
    <glyph glyph-name="R" unicode="R" horiz-adv-x="600" 
d="M365 293l-1 -2l144 -291h-65l-140 288h-145l-35 -288h-56l87 710h222c123 0 181 -66 181 -174c0 -128 -70 -221 -192 -243zM204 659l-39 -320h148c117 0 187 79 187 197c0 86 -58 123 -135 123h-161z" />
    <glyph glyph-name="Racute" unicode="&#x154;" horiz-adv-x="600" 
d="M472 935l-129 -139h-57l124 139h62zM365 293l-1 -2l144 -291h-65l-140 288h-145l-35 -288h-56l87 710h222c123 0 181 -66 181 -174c0 -128 -70 -221 -192 -243zM204 659l-39 -320h148c117 0 187 79 187 197c0 86 -58 123 -135 123h-161z" />
    <glyph glyph-name="Rcaron" unicode="&#x158;" horiz-adv-x="600" 
d="M389 795h-51l-90 140h54l64 -104h3l89 104h57zM365 293l-1 -2l144 -291h-65l-140 288h-145l-35 -288h-56l87 710h222c123 0 181 -66 181 -174c0 -128 -70 -221 -192 -243zM204 659l-39 -320h148c117 0 187 79 187 197c0 86 -58 123 -135 123h-161z" />
    <glyph glyph-name="Rcommaaccent" unicode="&#x156;" horiz-adv-x="600" 
d="M365 293l-1 -2l144 -291h-65l-140 288h-145l-35 -288h-56l87 710h222c123 0 181 -66 181 -174c0 -128 -70 -221 -192 -243zM204 659l-39 -320h148c117 0 187 79 187 197c0 86 -58 123 -135 123h-161zM233 -74v20h47v-22c0 -74 -31 -124 -106 -130l-9 34c48 7 68 35 68 98
z" />
    <glyph glyph-name="S" unicode="S" horiz-adv-x="545" 
d="M296 391c93 -52 185 -96 185 -194c0 -127 -95 -202 -223 -202c-86 0 -175 39 -226 115l43 39c43 -70 113 -101 181 -101c97 0 167 57 167 143c0 69 -70 102 -152 147c-81 46 -171 93 -171 192c0 111 89 185 213 185c72 0 145 -32 192 -87l-42 -38c-42 52 -101 72 -154 72
c-86 0 -152 -50 -151 -125c0 -71 64 -105 138 -146z" />
    <glyph glyph-name="Sacute" unicode="&#x15a;" horiz-adv-x="545" 
d="M441 934h62l-129 -139h-57zM296 391c93 -52 185 -96 185 -194c0 -127 -95 -202 -223 -202c-86 0 -175 39 -226 115l43 39c43 -70 113 -101 181 -101c97 0 167 57 167 143c0 69 -70 102 -152 147c-81 46 -171 93 -171 192c0 111 89 185 213 185c72 0 145 -32 192 -87
l-42 -38c-42 52 -101 72 -154 72c-86 0 -152 -50 -151 -125c0 -71 64 -105 138 -146z" />
    <glyph glyph-name="Scaron" unicode="&#x160;" horiz-adv-x="545" 
d="M356 795h-51l-90 140h54l64 -104h3l89 104h57zM296 391c93 -52 185 -96 185 -194c0 -127 -95 -202 -223 -202c-86 0 -175 39 -226 115l43 39c43 -70 113 -101 181 -101c97 0 167 57 167 143c0 69 -70 102 -152 147c-81 46 -171 93 -171 192c0 111 89 185 213 185
c72 0 145 -32 192 -87l-42 -38c-42 52 -101 72 -154 72c-86 0 -152 -50 -151 -125c0 -71 64 -105 138 -146z" />
    <glyph glyph-name="Scedilla" unicode="&#x15e;" horiz-adv-x="545" 
d="M296 391c93 -52 185 -96 185 -194c0 -127 -95 -202 -223 -202h-5l-17 -29l1 -1c43 -3 70 -22 70 -62c0 -49 -42 -89 -100 -89c-18 0 -34 3 -45 7l3 33c10 -5 21 -7 39 -7c29 0 63 17 63 55c0 24 -22 35 -69 37l3 26l18 33c-73 10 -144 48 -187 112l43 39
c43 -70 113 -101 181 -101c97 0 167 57 167 143c0 69 -70 102 -152 147c-81 46 -171 93 -171 192c0 111 89 185 213 185c72 0 145 -32 192 -87l-42 -38c-42 52 -101 72 -154 72c-86 0 -152 -50 -151 -125c0 -71 64 -105 138 -146z" />
    <glyph glyph-name="Scircumflex" unicode="&#x15c;" horiz-adv-x="545" 
d="M342 901l-90 -106h-56l123 140h51l93 -140h-55l-64 106h-2zM296 391c93 -52 185 -96 185 -194c0 -127 -95 -202 -223 -202c-86 0 -175 39 -226 115l43 39c43 -70 113 -101 181 -101c97 0 167 57 167 143c0 69 -70 102 -152 147c-81 46 -171 93 -171 192
c0 111 89 185 213 185c72 0 145 -32 192 -87l-42 -38c-42 52 -101 72 -154 72c-86 0 -152 -50 -151 -125c0 -71 64 -105 138 -146z" />
    <glyph glyph-name="Scommaaccent" unicode="&#x218;" horiz-adv-x="545" 
d="M296 391c93 -52 185 -96 185 -194c0 -127 -95 -202 -223 -202c-86 0 -175 39 -226 115l43 39c43 -70 113 -101 181 -101c97 0 167 57 167 143c0 69 -70 102 -152 147c-81 46 -171 93 -171 192c0 111 89 185 213 185c72 0 145 -32 192 -87l-42 -38c-42 52 -101 72 -154 72
c-86 0 -152 -50 -151 -125c0 -71 64 -105 138 -146zM265 -54v-22c0 -74 -31 -124 -106 -130l-9 34c48 7 68 35 68 98v20h47z" />
    <glyph glyph-name="uni1E9E" unicode="&#x1e9e;" horiz-adv-x="708" 
d="M499 387c90 -52 182 -95 182 -192c0 -125 -95 -200 -214 -200c-72 0 -152 32 -204 92l32 50c43 -63 110 -89 171 -89c89 0 158 56 158 143c0 70 -71 102 -149 148c-30 17 -44 25 -79 47l167 258c-61 12 -129 18 -184 18c-127 0 -190 -47 -204 -162l-61 -500h-55l60 504
c18 146 107 211 260 211c73 0 178 -14 268 -37l-176 -275z" />
    <glyph glyph-name="uni018F" unicode="&#x18f;" horiz-adv-x="646" 
d="M341 715c156 0 262 -121 262 -292c0 -237 -139 -428 -371 -428c-109 0 -186 64 -186 154c0 188 236 262 424 260c19 0 48 -2 75 -5v19c0 140 -80 239 -208 239c-77 0 -138 -28 -180 -67l-34 40c46 40 123 80 218 80zM237 48c159 0 279 123 303 304c-24 3 -51 5 -70 5
c-221 2 -366 -88 -366 -202c0 -61 52 -107 133 -107z" />
    <glyph glyph-name="T" unicode="T" horiz-adv-x="520" 
d="M539 659h-201l-81 -659h-55l80 659h-199l6 51h456z" />
    <glyph glyph-name="Tbar" unicode="&#x166;" horiz-adv-x="520" 
d="M539 659h-201l-33 -267h113l-7 -47h-112l-42 -345h-55l42 345h-101l8 47h99l32 267h-199l6 51h456z" />
    <glyph glyph-name="Tcaron" unicode="&#x164;" horiz-adv-x="520" 
d="M353 795h-51l-90 140h54l64 -104h3l89 104h57zM89 710h456l-6 -51h-201l-81 -659h-55l80 659h-199z" />
    <glyph glyph-name="uni0162" unicode="&#x162;" horiz-adv-x="520" 
d="M89 710h456l-6 -51h-201l-81 -659h-20l-20 -34l1 -1c43 -3 70 -22 70 -62c0 -49 -42 -89 -100 -89c-18 0 -34 3 -45 7l3 33c10 -5 21 -7 39 -7c29 0 63 17 63 55c0 24 -22 35 -69 37l3 26l20 38l80 656h-199z" />
    <glyph glyph-name="uni021A" unicode="&#x21a;" horiz-adv-x="520" 
d="M539 659h-201l-81 -659h-55l80 659h-199l6 51h456zM246 -54v-22c0 -74 -31 -124 -106 -130l-9 34c48 7 68 35 68 98v20h47z" />
    <glyph glyph-name="U" unicode="U" horiz-adv-x="660" 
d="M578 283c-24 -196 -121 -288 -280 -288c-145 0 -209 94 -209 234c0 20 1 41 4 62l52 419h55l-52 -420c-2 -21 -4 -42 -4 -58c0 -110 46 -184 156 -184c121 0 203 73 223 236l52 426h55z" />
    <glyph glyph-name="Uacute" unicode="&#xda;" horiz-adv-x="660" 
d="M483 934h62l-129 -139h-57zM578 283c-24 -196 -121 -288 -280 -288c-145 0 -209 94 -209 234c0 20 1 41 4 62l52 419h55l-52 -420c-2 -21 -4 -42 -4 -58c0 -110 46 -184 156 -184c121 0 203 73 223 236l52 426h55z" />
    <glyph glyph-name="Ubreve" unicode="&#x16c;" horiz-adv-x="660" 
d="M405 795c-65 0 -111 48 -106 134l43 -1c-3 -53 15 -92 64 -92c52 0 87 40 96 93l43 -1c-16 -84 -72 -133 -140 -133zM578 283c-24 -196 -121 -288 -280 -288c-145 0 -209 94 -209 234c0 20 1 41 4 62l52 419h55l-52 -420c-2 -21 -4 -42 -4 -58c0 -110 46 -184 156 -184
c121 0 203 73 223 236l52 426h55z" />
    <glyph glyph-name="Ucircumflex" unicode="&#xdb;" horiz-adv-x="660" 
d="M413 901l-90 -106h-56l123 140h51l93 -140h-55l-64 106h-2zM575 710h55l-52 -427c-24 -196 -121 -288 -280 -288c-145 0 -209 94 -209 234c0 20 1 41 4 62l52 419h55l-52 -420c-2 -21 -4 -42 -4 -58c0 -110 46 -184 156 -184c121 0 203 73 223 236z" />
    <glyph glyph-name="Udieresis" unicode="&#xdc;" horiz-adv-x="660" 
d="M335 911c22 0 39 -17 39 -39c0 -23 -17 -41 -41 -41c-22 0 -38 17 -38 39c0 24 17 41 40 41zM487 911c22 0 39 -17 39 -39c0 -23 -17 -41 -41 -41c-22 0 -38 17 -38 39c0 24 17 41 40 41zM578 283c-24 -196 -121 -288 -280 -288c-145 0 -209 94 -209 234c0 20 1 41 4 62
l52 419h55l-52 -420c-2 -21 -4 -42 -4 -58c0 -110 46 -184 156 -184c121 0 203 73 223 236l52 426h55z" />
    <glyph glyph-name="uni1EE4" unicode="&#x1ee4;" horiz-adv-x="660" 
d="M578 283c-24 -196 -121 -288 -280 -288c-145 0 -209 94 -209 234c0 20 1 41 4 62l52 419h55l-52 -420c-2 -21 -4 -42 -4 -58c0 -110 46 -184 156 -184c121 0 203 73 223 236l52 426h55zM278 -204c-22 0 -39 17 -39 39c0 23 17 41 41 41c22 0 38 -17 38 -39
c0 -24 -17 -41 -40 -41z" />
    <glyph glyph-name="Ugrave" unicode="&#xd9;" horiz-adv-x="660" 
d="M335 934l90 -139h-57l-95 139h62zM578 283c-24 -196 -121 -288 -280 -288c-145 0 -209 94 -209 234c0 20 1 41 4 62l52 419h55l-52 -420c-2 -21 -4 -42 -4 -58c0 -110 46 -184 156 -184c121 0 203 73 223 236l52 426h55z" />
    <glyph glyph-name="uni1EE6" unicode="&#x1ee6;" horiz-adv-x="660" 
d="M355 881l-21 25c23 25 56 43 94 43c45 0 70 -28 69 -64c0 -44 -38 -69 -85 -92l-7 -22h-22c-5 8 -9 13 -8 22c1 26 84 47 85 91c0 22 -18 30 -37 30c-26 0 -52 -14 -68 -33zM578 283c-24 -196 -121 -288 -280 -288c-145 0 -209 94 -209 234c0 20 1 41 4 62l52 419h55
l-52 -420c-2 -21 -4 -42 -4 -58c0 -110 46 -184 156 -184c121 0 203 73 223 236l52 426h55z" />
    <glyph glyph-name="Uhorn" unicode="&#x1af;" horiz-adv-x="727" 
d="M713 774h51l-13 -99c-13 -107 -56 -146 -116 -146c-9 0 -18 1 -27 2l-30 -248c-24 -196 -121 -288 -280 -288c-145 0 -209 94 -209 234c0 20 1 41 4 62l52 419h55l-52 -420c-2 -21 -4 -42 -4 -58c0 -110 46 -184 156 -184c121 0 203 73 223 236l52 426h55l-17 -136
c8 -1 14 -2 20 -2c40 0 59 34 69 110z" />
    <glyph glyph-name="uni1EE8" unicode="&#x1ee8;" horiz-adv-x="727" 
d="M545 934l-129 -139h-57l124 139h62zM713 774h51l-13 -99c-13 -107 -56 -146 -116 -146c-9 0 -18 1 -27 2l-30 -248c-24 -196 -121 -288 -280 -288c-145 0 -209 94 -209 234c0 20 1 41 4 62l52 419h55l-52 -420c-2 -21 -4 -42 -4 -58c0 -110 46 -184 156 -184
c121 0 203 73 223 236l52 426h55l-17 -136c8 -1 14 -2 20 -2c40 0 59 34 69 110z" />
    <glyph glyph-name="uni1EF0" unicode="&#x1ef0;" horiz-adv-x="727" 
d="M713 774h51l-13 -99c-13 -107 -56 -146 -116 -146c-9 0 -18 1 -27 2l-30 -248c-24 -196 -121 -288 -280 -288c-145 0 -209 94 -209 234c0 20 1 41 4 62l52 419h55l-52 -420c-2 -21 -4 -42 -4 -58c0 -110 46 -184 156 -184c121 0 203 73 223 236l52 426h55l-17 -136
c8 -1 14 -2 20 -2c40 0 59 34 69 110zM280 -124c22 0 38 -17 38 -39c0 -24 -17 -41 -40 -41c-22 0 -39 17 -39 39c0 23 17 41 41 41z" />
    <glyph glyph-name="uni1EEA" unicode="&#x1eea;" horiz-adv-x="727" 
d="M425 795h-57l-95 139h62zM713 774h51l-13 -99c-13 -107 -56 -146 -116 -146c-9 0 -18 1 -27 2l-30 -248c-24 -196 -121 -288 -280 -288c-145 0 -209 94 -209 234c0 20 1 41 4 62l52 419h55l-52 -420c-2 -21 -4 -42 -4 -58c0 -110 46 -184 156 -184c121 0 203 73 223 236
l52 426h55l-17 -136c8 -1 14 -2 20 -2c40 0 59 34 69 110z" />
    <glyph glyph-name="uni1EEC" unicode="&#x1eec;" horiz-adv-x="727" 
d="M423 914c-26 0 -52 -14 -68 -33l-21 25c23 25 56 43 94 43c45 0 70 -28 69 -64c0 -44 -38 -69 -85 -92l-7 -22h-22c-5 8 -9 13 -8 22c1 26 84 47 85 91c0 22 -18 30 -37 30zM713 774h51l-13 -99c-13 -107 -56 -146 -116 -146c-9 0 -18 1 -27 2l-30 -248
c-24 -196 -121 -288 -280 -288c-145 0 -209 94 -209 234c0 20 1 41 4 62l52 419h55l-52 -420c-2 -21 -4 -42 -4 -58c0 -110 46 -184 156 -184c121 0 203 73 223 236l52 426h55l-17 -136c8 -1 14 -2 20 -2c40 0 59 34 69 110z" />
    <glyph glyph-name="uni1EEE" unicode="&#x1eee;" horiz-adv-x="727" 
d="M351 873c-26 0 -48 -22 -64 -59l-35 17c23 55 54 87 95 87c32 0 50 -17 68 -32s36 -32 57 -32c22 0 46 20 62 60l35 -15c-23 -60 -58 -90 -93 -90c-32 0 -55 23 -74 39c-18 14 -34 25 -51 25zM713 774h51l-13 -99c-13 -107 -56 -146 -116 -146c-9 0 -18 1 -27 2l-30 -248
c-24 -196 -121 -288 -280 -288c-145 0 -209 94 -209 234c0 20 1 41 4 62l52 419h55l-52 -420c-2 -21 -4 -42 -4 -58c0 -110 46 -184 156 -184c121 0 203 73 223 236l52 426h55l-17 -136c8 -1 14 -2 20 -2c40 0 59 34 69 110z" />
    <glyph glyph-name="Uhungarumlaut" unicode="&#x170;" horiz-adv-x="660" 
d="M399 934h59l-129 -139h-54zM535 934h59l-129 -139h-53zM578 283c-24 -196 -121 -288 -280 -288c-145 0 -209 94 -209 234c0 20 1 41 4 62l52 419h55l-52 -420c-2 -21 -4 -42 -4 -58c0 -110 46 -184 156 -184c121 0 203 73 223 236l52 426h55z" />
    <glyph glyph-name="Umacron" unicode="&#x16a;" horiz-adv-x="660" 
d="M288 891h251l-6 -46h-252zM578 283c-24 -196 -121 -288 -280 -288c-145 0 -209 94 -209 234c0 20 1 41 4 62l52 419h55l-52 -420c-2 -21 -4 -42 -4 -58c0 -110 46 -184 156 -184c121 0 203 73 223 236l52 426h55z" />
    <glyph glyph-name="Uogonek" unicode="&#x172;" horiz-adv-x="660" 
d="M575 710h55l-52 -427c-19 -155 -84 -245 -189 -276c-63 -26 -115 -71 -117 -111c-1 -23 15 -40 41 -40c23 0 34 3 49 12l3 -39c-17 -9 -37 -13 -62 -13c-55 0 -77 34 -76 72c2 36 30 74 72 105v2h-1c-145 0 -209 94 -209 234c0 20 1 41 4 62l52 419h55l-52 -420
c-2 -21 -4 -42 -4 -58c0 -110 46 -184 156 -184c121 0 203 73 223 236z" />
    <glyph glyph-name="Uring" unicode="&#x16e;" horiz-adv-x="660" 
d="M410 951c48 0 83 -34 83 -81c0 -49 -36 -85 -86 -85c-47 0 -82 35 -82 82c0 49 36 84 85 84zM410 914c-28 0 -48 -19 -48 -46s19 -46 46 -46c28 0 48 20 48 48c0 25 -19 44 -46 44zM578 283c-24 -196 -121 -288 -280 -288c-145 0 -209 94 -209 234c0 20 1 41 4 62l52 419
h55l-52 -420c-2 -21 -4 -42 -4 -58c0 -110 46 -184 156 -184c121 0 203 73 223 236l52 426h55z" />
    <glyph glyph-name="Utilde" unicode="&#x168;" horiz-adv-x="660" 
d="M251 831c23 55 54 87 95 87c32 0 50 -17 68 -32s36 -32 57 -32c22 0 46 20 62 60l35 -15c-23 -60 -58 -90 -93 -90c-32 0 -55 23 -74 39c-18 14 -34 25 -51 25c-26 0 -48 -22 -64 -59zM578 283c-24 -196 -121 -288 -280 -288c-145 0 -209 94 -209 234c0 20 1 41 4 62
l52 419h55l-52 -420c-2 -21 -4 -42 -4 -58c0 -110 46 -184 156 -184c121 0 203 73 223 236l52 426h55z" />
    <glyph glyph-name="V" unicode="V" horiz-adv-x="606" 
d="M568 710h63l-329 -710h-54l-156 710h59l132 -627h2z" />
    <glyph glyph-name="W" unicode="W" horiz-adv-x="925" 
d="M885 710h60l-292 -710h-58l-85 615h-3l-235 -615h-58l-118 710h58l98 -614h3l232 614h65l83 -612h1z" />
    <glyph glyph-name="Wacute" unicode="&#x1e82;" horiz-adv-x="925" 
d="M700 934l-129 -139h-57l124 139h62zM885 710h60l-292 -710h-58l-85 615h-3l-235 -615h-58l-118 710h58l98 -614h3l232 614h65l83 -612h1z" />
    <glyph glyph-name="Wcircumflex" unicode="&#x174;" horiz-adv-x="925" 
d="M543 901l-90 -106h-56l123 140h51l93 -140h-55l-64 106h-2zM885 710h60l-292 -710h-58l-85 615h-3l-235 -615h-58l-118 710h58l98 -614h3l232 614h65l83 -612h1z" />
    <glyph glyph-name="Wdieresis" unicode="&#x1e84;" horiz-adv-x="925" 
d="M463 831c-22 0 -38 17 -38 39c0 24 17 41 40 41c22 0 39 -17 39 -39c0 -23 -17 -41 -41 -41zM615 831c-22 0 -38 17 -38 39c0 24 17 41 40 41c22 0 39 -17 39 -39c0 -23 -17 -41 -41 -41zM885 710h60l-292 -710h-58l-85 615h-3l-235 -615h-58l-118 710h58l98 -614h3
l232 614h65l83 -612h1z" />
    <glyph glyph-name="Wgrave" unicode="&#x1e80;" horiz-adv-x="925" 
d="M558 795h-57l-95 139h62zM885 710h60l-292 -710h-58l-85 615h-3l-235 -615h-58l-118 710h58l98 -614h3l232 614h65l83 -612h1z" />
    <glyph glyph-name="X" unicode="X" horiz-adv-x="595" 
d="M613 710l-264 -357l178 -353h-65l-154 308h-3l-230 -308h-67l266 355l-177 355h63l155 -311h1l228 311h69z" />
    <glyph glyph-name="Y" unicode="Y" horiz-adv-x="538" 
d="M510 710h66l-269 -390l-40 -320h-56l40 320l-172 390h61l142 -334h2z" />
    <glyph glyph-name="Yacute" unicode="&#xdd;" horiz-adv-x="538" 
d="M488 934l-129 -139h-57l124 139h62zM510 710h66l-269 -390l-40 -320h-56l40 320l-172 390h61l142 -334h2z" />
    <glyph glyph-name="Ycircumflex" unicode="&#x176;" horiz-adv-x="538" 
d="M347 901l-90 -106h-56l123 140h51l93 -140h-55l-64 106h-2zM510 710h66l-269 -390l-40 -320h-56l40 320l-172 390h61l142 -334h2z" />
    <glyph glyph-name="Ydieresis" unicode="&#x178;" horiz-adv-x="538" 
d="M267 831c-22 0 -38 17 -38 39c0 24 17 41 40 41c22 0 39 -17 39 -39c0 -23 -17 -41 -41 -41zM419 831c-22 0 -38 17 -38 39c0 24 17 41 40 41c22 0 39 -17 39 -39c0 -23 -17 -41 -41 -41zM510 710h66l-269 -390l-40 -320h-56l40 320l-172 390h61l142 -334h2z" />
    <glyph glyph-name="uni1EF4" unicode="&#x1ef4;" horiz-adv-x="538" 
d="M510 710h66l-269 -390l-40 -320h-56l40 320l-172 390h61l142 -334h2zM222 -124c22 0 38 -17 38 -39c0 -24 -17 -41 -40 -41c-22 0 -39 17 -39 39c0 23 17 41 41 41z" />
    <glyph glyph-name="Ygrave" unicode="&#x1ef2;" horiz-adv-x="538" 
d="M368 795h-57l-95 139h62zM510 710h66l-269 -390l-40 -320h-56l40 320l-172 390h61l142 -334h2z" />
    <glyph glyph-name="uni1EF6" unicode="&#x1ef6;" horiz-adv-x="538" 
d="M357 914c-26 0 -52 -14 -68 -33l-21 25c23 25 56 43 94 43c45 0 70 -28 69 -64c0 -44 -38 -69 -85 -92l-7 -22h-22c-5 8 -9 13 -8 22c1 26 84 47 85 91c0 22 -18 30 -37 30zM510 710h66l-269 -390l-40 -320h-56l40 320l-172 390h61l142 -334h2z" />
    <glyph glyph-name="uni0232" unicode="&#x232;" horiz-adv-x="538" 
d="M473 891l-6 -46h-252l7 46h251zM510 710h66l-269 -390l-40 -320h-56l40 320l-172 390h61l142 -334h2z" />
    <glyph glyph-name="uni1EF8" unicode="&#x1ef8;" horiz-adv-x="538" 
d="M285 873c-26 0 -48 -22 -64 -59l-35 17c23 55 54 87 95 87c32 0 50 -17 68 -32s36 -32 57 -32c22 0 46 20 62 60l35 -15c-23 -60 -58 -90 -93 -90c-32 0 -55 23 -74 39c-18 14 -34 25 -51 25zM510 710h66l-269 -390l-40 -320h-56l40 320l-172 390h61l142 -334h2z" />
    <glyph glyph-name="Z" unicode="Z" horiz-adv-x="569" 
d="M549 664l-440 -610l-1 -2h369l-6 -52h-438l6 46l438 611l1 2h-344l6 51h414z" />
    <glyph glyph-name="Zacute" unicode="&#x179;" horiz-adv-x="569" 
d="M463 935l-129 -139h-57l124 139h62zM549 664l-440 -610l-1 -2h369l-6 -52h-438l6 46l438 611l1 2h-344l6 51h414z" />
    <glyph glyph-name="Zcaron" unicode="&#x17d;" horiz-adv-x="569" 
d="M380 795h-51l-90 140h54l64 -104h3l89 104h57zM549 664l-440 -610l-1 -2h369l-6 -52h-438l6 46l438 611l1 2h-344l6 51h414z" />
    <glyph glyph-name="Zdotaccent" unicode="&#x17b;" horiz-adv-x="569" 
d="M363 831c-22 0 -38 17 -38 39c0 24 17 41 40 41c22 0 39 -17 39 -39c0 -23 -17 -41 -41 -41zM549 664l-440 -610l-1 -2h369l-6 -52h-438l6 46l438 611l1 2h-344l6 51h414z" />
    <glyph glyph-name="Q.alt" horiz-adv-x="766" 
d="M718 419c0 -167 -76 -318 -205 -386l121 -126l-41 -42l-137 145c-32 -10 -66 -15 -102 -15c-168 0 -279 109 -279 297c0 222 145 423 363 423c167 0 280 -106 280 -296zM133 292c0 -157 87 -244 224 -244c184 0 303 174 303 370c0 160 -87 244 -226 244
c-181 0 -301 -178 -301 -370z" />
    <glyph glyph-name="a" unicode="a" 
d="M451 485h51l-59 -485h-52l16 126h-2c-43 -75 -110 -131 -190 -131c-109 0 -167 86 -167 194c0 160 98 301 248 301c56 0 112 -18 146 -56h2zM223 43c103 0 189 122 205 260l10 79c-36 45 -101 59 -140 59c-120 0 -196 -120 -196 -253c0 -84 42 -145 121 -145z" />
    <glyph glyph-name="aacute" unicode="&#xe1;" 
d="M493 698l-129 -139h-57l124 139h62zM451 485h51l-59 -485h-52l16 126h-2c-43 -75 -110 -131 -190 -131c-109 0 -167 86 -167 194c0 160 98 301 248 301c56 0 112 -18 146 -56h2zM223 43c103 0 189 122 205 260l10 79c-36 45 -101 59 -140 59c-120 0 -196 -120 -196 -253
c0 -84 42 -145 121 -145z" />
    <glyph glyph-name="abreve" unicode="&#x103;" 
d="M344 558c-65 0 -111 48 -106 134l43 -1c-3 -53 15 -92 64 -92c52 0 87 40 96 93l43 -1c-16 -84 -72 -133 -140 -133zM451 485h51l-59 -485h-52l16 126h-2c-43 -75 -110 -131 -190 -131c-109 0 -167 86 -167 194c0 160 98 301 248 301c56 0 112 -18 146 -56h2zM223 43
c103 0 189 122 205 260l10 79c-36 45 -101 59 -140 59c-120 0 -196 -120 -196 -253c0 -84 42 -145 121 -145z" />
    <glyph glyph-name="uni1EAF" unicode="&#x1eaf;" 
d="M489 841l-129 -139h-57l124 139h62zM341 558c-65 0 -111 48 -106 134l43 -1c-3 -53 15 -92 64 -92c52 0 87 40 96 93l43 -1c-16 -84 -72 -133 -140 -133zM451 485h51l-59 -485h-52l16 126h-2c-43 -75 -110 -131 -190 -131c-109 0 -167 86 -167 194c0 160 98 301 248 301
c56 0 112 -18 146 -56h2zM223 43c103 0 189 122 205 260l10 79c-36 45 -101 59 -140 59c-120 0 -196 -120 -196 -253c0 -84 42 -145 121 -145z" />
    <glyph glyph-name="uni1EB7" unicode="&#x1eb7;" 
d="M339 558c-65 0 -111 48 -106 134l43 -1c-3 -53 15 -92 64 -92c52 0 87 40 96 93l43 -1c-16 -84 -72 -133 -140 -133zM451 485h51l-59 -485h-52l16 126h-2c-43 -75 -110 -131 -190 -131c-109 0 -167 86 -167 194c0 160 98 301 248 301c56 0 112 -18 146 -56h2zM223 43
c103 0 189 122 205 260l10 79c-36 45 -101 59 -140 59c-120 0 -196 -120 -196 -253c0 -84 42 -145 121 -145zM233 -124c22 0 38 -17 38 -39c0 -24 -17 -41 -40 -41c-22 0 -39 17 -39 39c0 23 17 41 41 41z" />
    <glyph glyph-name="uni1EB1" unicode="&#x1eb1;" 
d="M373 702h-57l-95 139h62zM277 691c-3 -53 15 -92 64 -92c52 0 87 40 96 93l43 -1c-16 -84 -72 -133 -140 -133c-65 0 -111 48 -106 134zM451 485h51l-59 -485h-52l16 126h-2c-43 -75 -110 -131 -190 -131c-109 0 -167 86 -167 194c0 160 98 301 248 301
c56 0 112 -18 146 -56h2zM223 43c103 0 189 122 205 260l10 79c-36 45 -101 59 -140 59c-120 0 -196 -120 -196 -253c0 -84 42 -145 121 -145z" />
    <glyph glyph-name="uni1EB3" unicode="&#x1eb3;" 
d="M384 822c-26 0 -52 -14 -68 -33l-21 25c23 25 56 43 94 43c45 0 70 -28 69 -64c0 -44 -38 -69 -85 -92l-7 -22h-22c-5 8 -9 13 -8 22c1 26 84 47 85 91c0 22 -18 30 -37 30zM342 558c-65 0 -111 48 -106 134l43 -1c-3 -53 15 -92 64 -92c52 0 87 40 96 93l43 -1
c-16 -84 -72 -133 -140 -133zM451 485h51l-59 -485h-52l16 126h-2c-43 -75 -110 -131 -190 -131c-109 0 -167 86 -167 194c0 160 98 301 248 301c56 0 112 -18 146 -56h2zM223 43c103 0 189 122 205 260l10 79c-36 45 -101 59 -140 59c-120 0 -196 -120 -196 -253
c0 -84 42 -145 121 -145z" />
    <glyph glyph-name="uni1EB5" unicode="&#x1eb5;" 
d="M315 781c-25 0 -47 -22 -63 -59l-33 17c22 55 53 87 92 87c31 0 49 -16 66 -32c19 -13 36 -32 56 -32c22 0 45 20 60 60l34 -15c-23 -60 -56 -90 -90 -90c-30 0 -54 23 -72 39c-18 13 -33 25 -50 25zM236 692l43 -1c-3 -53 15 -92 64 -92c52 0 87 40 96 93l43 -1
c-16 -84 -72 -133 -140 -133c-65 0 -111 48 -106 134zM444 434l7 51h51l-59 -485h-52l16 126h-2c-43 -75 -110 -131 -190 -131c-109 0 -167 86 -167 194c0 160 98 301 248 301c56 0 112 -18 146 -56h2zM223 43c103 0 189 122 205 260l10 79c-36 45 -101 59 -140 59
c-120 0 -196 -120 -196 -253c0 -84 42 -145 121 -145z" />
    <glyph glyph-name="acircumflex" unicode="&#xe2;" 
d="M352 664l-90 -106h-56l123 140h51l93 -140h-55l-64 106h-2zM451 485h51l-59 -485h-52l16 126h-2c-43 -75 -110 -131 -190 -131c-109 0 -167 86 -167 194c0 160 98 301 248 301c56 0 112 -18 146 -56h2zM223 43c103 0 189 122 205 260l10 79c-36 45 -101 59 -140 59
c-120 0 -196 -120 -196 -253c0 -84 42 -145 121 -145z" />
    <glyph glyph-name="uni1EA5" unicode="&#x1ea5;" 
d="M609 780l-134 -138h-46l119 138h61zM351 664l-90 -106h-56l123 140h51l93 -140h-55l-64 106h-2zM444 434l7 51h51l-59 -485h-52l16 126h-2c-43 -75 -110 -131 -190 -131c-109 0 -167 86 -167 194c0 160 98 301 248 301c56 0 112 -18 146 -56h2zM223 43
c103 0 189 122 205 260l10 79c-36 45 -101 59 -140 59c-120 0 -196 -120 -196 -253c0 -84 42 -145 121 -145z" />
    <glyph glyph-name="uni1EAD" unicode="&#x1ead;" 
d="M352 664l-90 -106h-56l123 140h51l93 -140h-55l-64 106h-2zM451 485h51l-59 -485h-52l16 126h-2c-43 -75 -110 -131 -190 -131c-109 0 -167 86 -167 194c0 160 98 301 248 301c56 0 112 -18 146 -56h2zM223 43c103 0 189 122 205 260l10 79c-36 45 -101 59 -140 59
c-120 0 -196 -120 -196 -253c0 -84 42 -145 121 -145zM233 -124c22 0 38 -17 38 -39c0 -24 -17 -41 -40 -41c-22 0 -39 17 -39 39c0 23 17 41 41 41z" />
    <glyph glyph-name="uni1EA7" unicode="&#x1ea7;" 
d="M526 642h-46l-108 138h60zM351 664l-90 -106h-56l123 140h51l93 -140h-55l-64 106h-2zM444 434l7 51h51l-59 -485h-52l16 126h-2c-43 -75 -110 -131 -190 -131c-109 0 -167 86 -167 194c0 160 98 301 248 301c56 0 112 -18 146 -56h2zM223 43c103 0 189 122 205 260
l10 79c-36 45 -101 59 -140 59c-120 0 -196 -120 -196 -253c0 -84 42 -145 121 -145z" />
    <glyph glyph-name="uni1EA9" unicode="&#x1ea9;" 
d="M496 795c45 0 70 -27 70 -64c-1 -44 -38 -69 -85 -91l-8 -23l-22 1c-5 7 -8 13 -8 22c2 25 85 46 85 90c1 22 -18 31 -36 31c-27 0 -53 -15 -68 -33l-22 25c24 24 57 42 94 42zM351 664l-90 -106h-56l123 140h51l93 -140h-55l-64 106h-2zM444 434l7 51h51l-59 -485h-52
l16 126h-2c-43 -75 -110 -131 -190 -131c-109 0 -167 86 -167 194c0 160 98 301 248 301c56 0 112 -18 146 -56h2zM223 43c103 0 189 122 205 260l10 79c-36 45 -101 59 -140 59c-120 0 -196 -120 -196 -253c0 -84 42 -145 121 -145z" />
    <glyph glyph-name="uni1EAB" unicode="&#x1eab;" 
d="M310 781c-25 0 -47 -22 -63 -59l-33 17c22 55 53 87 92 87c31 0 49 -16 66 -32c19 -13 36 -32 56 -32c22 0 45 20 60 60l34 -15c-23 -60 -56 -90 -90 -90c-30 0 -54 23 -72 39c-18 13 -33 25 -50 25zM352 664l-90 -106h-56l123 140h51l93 -140h-55l-64 106h-2zM444 434
l7 51h51l-59 -485h-52l16 126h-2c-43 -75 -110 -131 -190 -131c-109 0 -167 86 -167 194c0 160 98 301 248 301c56 0 112 -18 146 -56h2zM223 43c103 0 189 122 205 260l10 79c-36 45 -101 59 -140 59c-120 0 -196 -120 -196 -253c0 -84 42 -145 121 -145z" />
    <glyph glyph-name="adieresis" unicode="&#xe4;" 
d="M272 594c-22 0 -38 17 -38 39c0 24 17 41 40 41c22 0 39 -17 39 -39c0 -23 -17 -41 -41 -41zM424 594c-22 0 -38 17 -38 39c0 24 17 41 40 41c22 0 39 -17 39 -39c0 -23 -17 -41 -41 -41zM451 485h51l-59 -485h-52l16 126h-2c-43 -75 -110 -131 -190 -131
c-109 0 -167 86 -167 194c0 160 98 301 248 301c56 0 112 -18 146 -56h2zM223 43c103 0 189 122 205 260l10 79c-36 45 -101 59 -140 59c-120 0 -196 -120 -196 -253c0 -84 42 -145 121 -145z" />
    <glyph glyph-name="uni1EA1" unicode="&#x1ea1;" 
d="M451 485h51l-59 -485h-52l16 126h-2c-43 -75 -110 -131 -190 -131c-109 0 -167 86 -167 194c0 160 98 301 248 301c56 0 112 -18 146 -56h2zM223 43c103 0 189 122 205 260l10 79c-36 45 -101 59 -140 59c-120 0 -196 -120 -196 -253c0 -84 42 -145 121 -145zM233 -124
c22 0 38 -17 38 -39c0 -24 -17 -41 -40 -41c-22 0 -39 17 -39 39c0 23 17 41 41 41z" />
    <glyph glyph-name="agrave" unicode="&#xe0;" 
d="M373 559h-57l-95 139h62zM451 485h51l-59 -485h-52l16 126h-2c-43 -75 -110 -131 -190 -131c-109 0 -167 86 -167 194c0 160 98 301 248 301c56 0 112 -18 146 -56h2zM223 43c103 0 189 122 205 260l10 79c-36 45 -101 59 -140 59c-120 0 -196 -120 -196 -253
c0 -84 42 -145 121 -145z" />
    <glyph glyph-name="uni1EA3" unicode="&#x1ea3;" 
d="M362 677c-26 0 -52 -14 -68 -33l-21 25c23 25 56 43 94 43c45 0 70 -28 69 -64c0 -44 -38 -69 -85 -92l-7 -22h-22c-5 8 -9 13 -8 22c1 26 84 47 85 91c0 22 -18 30 -37 30zM451 485h51l-59 -485h-52l16 126h-2c-43 -75 -110 -131 -190 -131c-109 0 -167 86 -167 194
c0 160 98 301 248 301c56 0 112 -18 146 -56h2zM223 43c103 0 189 122 205 260l10 79c-36 45 -101 59 -140 59c-120 0 -196 -120 -196 -253c0 -84 42 -145 121 -145z" />
    <glyph glyph-name="amacron" unicode="&#x101;" 
d="M478 654l-6 -46h-252l7 46h251zM451 485h51l-59 -485h-52l16 126h-2c-43 -75 -110 -131 -190 -131c-109 0 -167 86 -167 194c0 160 98 301 248 301c56 0 112 -18 146 -56h2zM223 43c103 0 189 122 205 260l10 79c-36 45 -101 59 -140 59c-120 0 -196 -120 -196 -253
c0 -84 42 -145 121 -145z" />
    <glyph glyph-name="aogonek" unicode="&#x105;" 
d="M397 -144c24 0 36 4 50 12l2 -39c-17 -9 -37 -13 -62 -13c-50 0 -78 25 -75 72c1 44 37 87 80 119l15 119h-2c-43 -75 -110 -131 -190 -131c-109 0 -167 86 -167 194c0 160 98 301 248 301c56 0 112 -18 146 -56h2l7 51h51l-59 -485c-52 -30 -85 -67 -86 -104
c-1 -22 11 -40 40 -40zM223 43c103 0 189 122 205 260l10 79c-36 45 -101 59 -140 59c-120 0 -196 -120 -196 -253c0 -84 42 -145 121 -145z" />
    <glyph glyph-name="aring" unicode="&#xe5;" 
d="M346 548c-47 0 -82 35 -82 82c0 49 36 84 85 84c48 0 83 -34 83 -81c0 -49 -36 -85 -86 -85zM349 677c-28 0 -48 -19 -48 -46s19 -46 46 -46c28 0 48 20 48 48c0 25 -19 44 -46 44zM451 485h51l-59 -485h-52l16 126h-2c-43 -75 -110 -131 -190 -131
c-109 0 -167 86 -167 194c0 160 98 301 248 301c56 0 112 -18 146 -56h2zM223 43c103 0 189 122 205 260l10 79c-36 45 -101 59 -140 59c-120 0 -196 -120 -196 -253c0 -84 42 -145 121 -145z" />
    <glyph glyph-name="aringacute" unicode="&#x1fb;" horiz-adv-x="551" 
d="M348 548c-47 0 -82 35 -82 82c0 49 36 84 85 84c26 0 48 -10 63 -26l75 50h67l-124 -85c1 -6 2 -13 2 -20c0 -49 -36 -85 -86 -85zM351 677c-28 0 -48 -19 -48 -46s19 -46 46 -46c28 0 48 20 48 48c0 25 -19 44 -46 44zM444 434l7 51h51l-59 -485h-52l16 126h-2
c-43 -75 -110 -131 -190 -131c-109 0 -167 86 -167 194c0 160 98 301 248 301c56 0 112 -18 146 -56h2zM223 43c103 0 189 122 205 260l10 79c-36 45 -101 59 -140 59c-120 0 -196 -120 -196 -253c0 -84 42 -145 121 -145z" />
    <glyph glyph-name="atilde" unicode="&#xe3;" 
d="M289 636c-26 0 -48 -22 -64 -59l-35 17c23 55 54 87 95 87c32 0 50 -17 68 -32s36 -32 57 -32c22 0 46 20 62 60l35 -15c-23 -60 -58 -90 -93 -90c-32 0 -55 23 -74 39c-18 14 -34 25 -51 25zM444 434l7 51h51l-59 -485h-52l16 126h-2c-43 -75 -110 -131 -190 -131
c-109 0 -167 86 -167 194c0 160 98 301 248 301c56 0 112 -18 146 -56h2zM223 43c103 0 189 122 205 260l10 79c-36 45 -101 59 -140 59c-120 0 -196 -120 -196 -253c0 -84 42 -145 121 -145z" />
    <glyph glyph-name="ae" unicode="&#xe6;" horiz-adv-x="667" 
d="M466 44c34 0 86 21 122 69l41 -30c-42 -55 -105 -87 -164 -87c-79 0 -138 41 -164 114h-2c-33 -64 -81 -114 -148 -115s-118 54 -118 146c0 186 129 332 318 332c23 0 48 -3 72 -10c31 17 67 27 106 27c74 0 126 -41 126 -108c0 -116 -147 -184 -312 -218
c11 -76 59 -120 123 -120zM602 378c0 48 -44 63 -78 63c-104 0 -178 -101 -183 -233c136 30 261 87 261 170zM157 44c56 0 104 71 131 157c1 88 31 167 82 221v2h-26c-155 0 -259 -127 -258 -282c0 -53 23 -98 71 -98z" />
    <glyph glyph-name="aeacute" unicode="&#x1fd;" horiz-adv-x="667" 
d="M572 698l-129 -139h-57l124 139h62zM466 44c34 0 86 21 122 69l41 -30c-42 -55 -105 -87 -164 -87c-79 0 -138 41 -164 114h-2c-33 -64 -81 -114 -148 -115s-118 54 -118 146c0 186 129 332 318 332c23 0 48 -3 72 -10c31 17 67 27 106 27c74 0 126 -41 126 -108
c0 -116 -147 -184 -312 -218c11 -76 59 -120 123 -120zM602 378c0 48 -44 63 -78 63c-104 0 -178 -101 -183 -233c136 30 261 87 261 170zM157 44c56 0 104 71 131 157c1 88 31 167 82 221v2h-26c-155 0 -259 -127 -258 -282c0 -53 23 -98 71 -98z" />
    <glyph glyph-name="b" unicode="b" horiz-adv-x="561" 
d="M344 490c114 0 168 -87 168 -204c0 -150 -95 -291 -265 -291c-70 0 -134 15 -187 51l85 690h52l-45 -368h2c45 73 112 122 190 122zM244 44c135 0 215 117 215 248c0 86 -39 149 -123 149c-108 0 -191 -121 -207 -259l-14 -112c41 -20 87 -26 129 -26z" />
    <glyph glyph-name="c" unicode="c" horiz-adv-x="487" 
d="M232 -4c-99 0 -184 69 -184 200c0 158 96 294 255 294c64 0 127 -25 163 -79l-42 -31c-28 42 -74 61 -122 61c-124 0 -201 -111 -201 -242c0 -96 60 -155 134 -155c62 0 112 21 152 69l41 -30c-50 -58 -110 -87 -196 -87z" />
    <glyph glyph-name="cacute" unicode="&#x107;" horiz-adv-x="487" 
d="M409 698h62l-129 -139h-57zM232 -4c-99 0 -184 69 -184 200c0 158 96 294 255 294c64 0 127 -25 163 -79l-42 -31c-28 42 -74 61 -122 61c-124 0 -201 -111 -201 -242c0 -96 60 -155 134 -155c62 0 112 21 152 69l41 -30c-50 -58 -110 -87 -196 -87z" />
    <glyph glyph-name="ccaron" unicode="&#x10d;" horiz-adv-x="487" 
d="M346 558h-51l-90 140h54l64 -104h3l89 104h57zM302 441c-124 0 -201 -111 -201 -242c0 -96 60 -155 134 -155c62 0 112 21 152 69l41 -30c-50 -58 -110 -87 -196 -87c-99 0 -184 69 -184 200c0 158 96 294 255 294c64 0 127 -25 163 -79l-42 -31c-28 42 -74 61 -122 61z
" />
    <glyph glyph-name="ccedilla" unicode="&#xe7;" horiz-adv-x="487" 
d="M235 44c62 0 112 21 152 69l41 -30c-47 -55 -103 -84 -182 -87l-18 -30l1 -1c43 -3 70 -22 70 -62c0 -49 -42 -89 -100 -89c-18 0 -34 3 -45 7l3 33c10 -5 21 -7 39 -7c29 0 63 17 63 55c0 24 -22 35 -69 37l3 26l16 30v2c-89 10 -161 78 -161 199c0 158 96 294 255 294
c64 0 127 -25 163 -79l-42 -31c-28 42 -74 61 -122 61c-124 0 -201 -111 -201 -242c0 -96 60 -155 134 -155z" />
    <glyph glyph-name="ccircumflex" unicode="&#x109;" horiz-adv-x="487" 
d="M332 664l-90 -106h-56l123 140h51l93 -140h-55l-64 106h-2zM235 44c62 0 112 21 152 69l41 -30c-50 -58 -110 -87 -196 -87c-99 0 -184 69 -184 200c0 158 96 294 255 294c64 0 127 -25 163 -79l-42 -31c-28 42 -74 61 -122 61c-124 0 -201 -111 -201 -242
c0 -96 60 -155 134 -155z" />
    <glyph glyph-name="cdotaccent" unicode="&#x10b;" horiz-adv-x="487" 
d="M331 674c22 0 39 -17 39 -39c0 -23 -17 -41 -41 -41c-22 0 -38 17 -38 39c0 24 17 41 40 41zM232 -4c-99 0 -184 69 -184 200c0 158 96 294 255 294c64 0 127 -25 163 -79l-42 -31c-28 42 -74 61 -122 61c-124 0 -201 -111 -201 -242c0 -96 60 -155 134 -155
c62 0 112 21 152 69l41 -30c-50 -58 -110 -87 -196 -87z" />
    <glyph glyph-name="d" unicode="d" horiz-adv-x="560" 
d="M484 736h52l-90 -736h-52l15 128h-1c-43 -76 -111 -133 -193 -133c-109 0 -167 86 -167 194c0 160 98 301 248 301c55 0 114 -15 149 -53h2zM223 43c101 0 182 110 205 238l12 98c-34 50 -100 62 -142 62c-120 0 -196 -121 -196 -253c0 -84 42 -145 121 -145z" />
    <glyph glyph-name="eth" unicode="&#xf0;" horiz-adv-x="547" 
d="M500 308c0 -18 0 -36 -2 -60c-13 -140 -111 -253 -252 -253c-120 0 -198 76 -198 205c0 153 104 289 251 289c58 0 104 -25 132 -61l1 1c-21 82 -64 151 -122 201l-78 -60l-23 30l70 55c-24 17 -51 32 -79 43l27 41c34 -13 65 -31 94 -52l71 56l23 -33l-63 -48
c92 -83 148 -208 148 -354zM247 44c116 0 199 104 199 244c0 90 -55 152 -142 152c-119 0 -203 -110 -203 -237c0 -102 57 -159 146 -159z" />
    <glyph glyph-name="dcaron" unicode="&#x10f;" horiz-adv-x="599" 
d="M631 764h56l-60 -172h-41zM447 437l37 299h52l-90 -736h-52l15 128h-1c-43 -76 -111 -133 -193 -133c-109 0 -167 86 -167 194c0 160 98 301 248 301c55 0 114 -15 149 -53h2zM223 43c101 0 182 110 205 238l12 98c-34 50 -100 62 -142 62c-120 0 -196 -121 -196 -253
c0 -84 42 -145 121 -145z" />
    <glyph glyph-name="dcroat" unicode="&#x111;" 
d="M579 619l-6 -40h-56l-71 -579h-52l15 128h-1c-43 -76 -111 -133 -193 -133c-109 0 -167 86 -167 194c0 160 98 301 248 301c55 0 114 -15 149 -53h2l18 142h-128l5 40h128l14 117h52l-14 -117h57zM223 43c101 0 182 110 205 238l12 98c-34 50 -100 62 -142 62
c-120 0 -196 -121 -196 -253c0 -84 42 -145 121 -145z" />
    <glyph glyph-name="e" unicode="e" horiz-adv-x="473" 
d="M240 44c54 0 99 24 139 69l41 -30c-49 -56 -104 -87 -182 -87c-113 0 -190 75 -190 201c0 158 100 293 252 293c56 0 146 -29 146 -117c0 -128 -190 -178 -345 -192c6 -87 63 -137 139 -137zM297 441c-99 0 -184 -86 -196 -213c127 11 292 51 292 142c0 56 -59 71 -96 71
z" />
    <glyph glyph-name="eacute" unicode="&#xe9;" horiz-adv-x="473" 
d="M463 698l-129 -139h-57l124 139h62zM446 373c0 -128 -190 -178 -345 -192c6 -87 63 -137 139 -137c54 0 99 24 139 69l41 -30c-49 -56 -104 -87 -182 -87c-113 0 -190 75 -190 201c0 158 100 293 252 293c56 0 146 -29 146 -117zM101 228c127 11 292 51 292 142
c0 56 -59 71 -96 71c-99 0 -184 -86 -196 -213z" />
    <glyph glyph-name="ebreve" unicode="&#x115;" horiz-adv-x="473" 
d="M314 558c-65 0 -111 48 -106 134l43 -1c-3 -53 15 -92 64 -92c52 0 87 40 96 93l43 -1c-16 -84 -72 -133 -140 -133zM446 373c0 -128 -190 -178 -345 -192c6 -87 63 -137 139 -137c54 0 99 24 139 69l41 -30c-49 -56 -104 -87 -182 -87c-113 0 -190 75 -190 201
c0 158 100 293 252 293c56 0 146 -29 146 -117zM101 228c127 11 292 51 292 142c0 56 -59 71 -96 71c-99 0 -184 -86 -196 -213z" />
    <glyph glyph-name="ecaron" unicode="&#x11b;" horiz-adv-x="473" 
d="M336 558h-51l-90 140h54l64 -104h3l89 104h57zM446 373c0 -128 -190 -178 -345 -192c6 -87 63 -137 139 -137c54 0 99 24 139 69l41 -30c-49 -56 -104 -87 -182 -87c-113 0 -190 75 -190 201c0 158 100 293 252 293c56 0 146 -29 146 -117zM101 228
c127 11 292 51 292 142c0 56 -59 71 -96 71c-99 0 -184 -86 -196 -213z" />
    <glyph glyph-name="ecircumflex" unicode="&#xea;" horiz-adv-x="473" 
d="M322 664l-90 -106h-56l123 140h51l93 -140h-55l-64 106h-2zM240 44c54 0 99 24 139 69l41 -30c-49 -56 -104 -87 -182 -87c-113 0 -190 75 -190 201c0 158 100 293 252 293c56 0 146 -29 146 -117c0 -128 -190 -178 -345 -192c6 -87 63 -137 139 -137zM297 441
c-99 0 -184 -86 -196 -213c127 11 292 51 292 142c0 56 -59 71 -96 71z" />
    <glyph glyph-name="uni1EBF" unicode="&#x1ebf;" horiz-adv-x="473" 
d="M579 780l-134 -138h-46l119 138h61zM321 664l-90 -106h-56l123 140h51l93 -140h-55l-64 106h-2zM446 373c0 -128 -190 -178 -345 -192c6 -87 63 -137 139 -137c54 0 99 24 139 69l41 -30c-49 -56 -104 -87 -182 -87c-113 0 -190 75 -190 201c0 158 100 293 252 293
c56 0 146 -29 146 -117zM101 228c127 11 292 51 292 142c0 56 -59 71 -96 71c-99 0 -184 -86 -196 -213z" />
    <glyph glyph-name="uni1EC7" unicode="&#x1ec7;" horiz-adv-x="473" 
d="M322 664l-90 -106h-56l123 140h51l93 -140h-55l-64 106h-2zM240 44c54 0 99 24 139 69l41 -30c-49 -56 -104 -87 -182 -87c-113 0 -190 75 -190 201c0 158 100 293 252 293c56 0 146 -29 146 -117c0 -128 -190 -178 -345 -192c6 -87 63 -137 139 -137zM297 441
c-99 0 -184 -86 -196 -213c127 11 292 51 292 142c0 56 -59 71 -96 71zM221 -124c22 0 38 -17 38 -39c0 -24 -17 -41 -40 -41c-22 0 -39 17 -39 39c0 23 17 41 41 41z" />
    <glyph glyph-name="uni1EC1" unicode="&#x1ec1;" horiz-adv-x="473" 
d="M402 780l94 -138h-46l-108 138h60zM321 664l-90 -106h-56l123 140h51l93 -140h-55l-64 106h-2zM446 373c0 -128 -190 -178 -345 -192c6 -87 63 -137 139 -137c54 0 99 24 139 69l41 -30c-49 -56 -104 -87 -182 -87c-113 0 -190 75 -190 201c0 158 100 293 252 293
c56 0 146 -29 146 -117zM101 228c127 11 292 51 292 142c0 56 -59 71 -96 71c-99 0 -184 -86 -196 -213z" />
    <glyph glyph-name="uni1EC3" unicode="&#x1ec3;" horiz-adv-x="473" 
d="M466 795c45 0 70 -27 70 -64c-1 -44 -38 -69 -85 -91l-8 -23l-22 1c-5 7 -8 13 -8 22c2 25 85 46 85 90c1 22 -18 31 -36 31c-27 0 -53 -15 -68 -33l-22 25c24 24 57 42 94 42zM321 664l-90 -106h-56l123 140h51l93 -140h-55l-64 106h-2zM446 373
c0 -128 -190 -178 -345 -192c6 -87 63 -137 139 -137c54 0 99 24 139 69l41 -30c-49 -56 -104 -87 -182 -87c-113 0 -190 75 -190 201c0 158 100 293 252 293c56 0 146 -29 146 -117zM101 228c127 11 292 51 292 142c0 56 -59 71 -96 71c-99 0 -184 -86 -196 -213z" />
    <glyph glyph-name="uni1EC5" unicode="&#x1ec5;" horiz-adv-x="473" 
d="M458 822l34 -15c-23 -60 -56 -90 -90 -90c-30 0 -54 23 -72 39c-18 13 -33 25 -50 25c-25 0 -47 -22 -63 -59l-33 17c22 55 53 87 92 87c31 0 49 -16 66 -32c19 -13 36 -32 56 -32c22 0 45 20 60 60zM324 664h-2l-90 -106h-56l123 140h51l93 -140h-55zM446 373
c0 -128 -190 -178 -345 -192c6 -87 63 -137 139 -137c54 0 99 24 139 69l41 -30c-49 -56 -104 -87 -182 -87c-113 0 -190 75 -190 201c0 158 100 293 252 293c56 0 146 -29 146 -117zM101 228c127 11 292 51 292 142c0 56 -59 71 -96 71c-99 0 -184 -86 -196 -213z" />
    <glyph glyph-name="edieresis" unicode="&#xeb;" horiz-adv-x="473" 
d="M242 594c-22 0 -38 17 -38 39c0 24 17 41 40 41c22 0 39 -17 39 -39c0 -23 -17 -41 -41 -41zM394 594c-22 0 -38 17 -38 39c0 24 17 41 40 41c22 0 39 -17 39 -39c0 -23 -17 -41 -41 -41zM240 44c54 0 99 24 139 69l41 -30c-49 -56 -104 -87 -182 -87
c-113 0 -190 75 -190 201c0 158 100 293 252 293c56 0 146 -29 146 -117c0 -128 -190 -178 -345 -192c6 -87 63 -137 139 -137zM297 441c-99 0 -184 -86 -196 -213c127 11 292 51 292 142c0 56 -59 71 -96 71z" />
    <glyph glyph-name="edotaccent" unicode="&#x117;" horiz-adv-x="473" 
d="M319 594c-22 0 -38 17 -38 39c0 24 17 41 40 41c22 0 39 -17 39 -39c0 -23 -17 -41 -41 -41zM240 44c54 0 99 24 139 69l41 -30c-49 -56 -104 -87 -182 -87c-113 0 -190 75 -190 201c0 158 100 293 252 293c56 0 146 -29 146 -117c0 -128 -190 -178 -345 -192
c6 -87 63 -137 139 -137zM297 441c-99 0 -184 -86 -196 -213c127 11 292 51 292 142c0 56 -59 71 -96 71z" />
    <glyph glyph-name="uni1EB9" unicode="&#x1eb9;" horiz-adv-x="473" 
d="M240 44c54 0 99 24 139 69l41 -30c-49 -56 -104 -87 -182 -87c-113 0 -190 75 -190 201c0 158 100 293 252 293c56 0 146 -29 146 -117c0 -128 -190 -178 -345 -192c6 -87 63 -137 139 -137zM297 441c-99 0 -184 -86 -196 -213c127 11 292 51 292 142c0 56 -59 71 -96 71
zM221 -124c22 0 38 -17 38 -39c0 -24 -17 -41 -40 -41c-22 0 -39 17 -39 39c0 23 17 41 41 41z" />
    <glyph glyph-name="egrave" unicode="&#xe8;" horiz-adv-x="473" 
d="M356 559h-57l-95 139h62zM240 44c54 0 99 24 139 69l41 -30c-49 -56 -104 -87 -182 -87c-113 0 -190 75 -190 201c0 158 100 293 252 293c56 0 146 -29 146 -117c0 -128 -190 -178 -345 -192c6 -87 63 -137 139 -137zM297 441c-99 0 -184 -86 -196 -213
c127 11 292 51 292 142c0 56 -59 71 -96 71z" />
    <glyph glyph-name="uni1EBB" unicode="&#x1ebb;" horiz-adv-x="473" 
d="M332 677c-26 0 -52 -14 -68 -33l-21 25c23 25 56 43 94 43c45 0 70 -28 69 -64c0 -44 -38 -69 -85 -92l-7 -22h-22c-5 8 -9 13 -8 22c1 26 84 47 85 91c0 22 -18 30 -37 30zM240 44c54 0 99 24 139 69l41 -30c-49 -56 -104 -87 -182 -87c-113 0 -190 75 -190 201
c0 158 100 293 252 293c56 0 146 -29 146 -117c0 -128 -190 -178 -345 -192c6 -87 63 -137 139 -137zM297 441c-99 0 -184 -86 -196 -213c127 11 292 51 292 142c0 56 -59 71 -96 71z" />
    <glyph glyph-name="emacron" unicode="&#x113;" horiz-adv-x="473" 
d="M448 654l-6 -46h-252l7 46h251zM446 373c0 -128 -190 -178 -345 -192c6 -87 63 -137 139 -137c54 0 99 24 139 69l41 -30c-49 -56 -104 -87 -182 -87c-113 0 -190 75 -190 201c0 158 100 293 252 293c56 0 146 -29 146 -117zM101 228c127 11 292 51 292 142
c0 56 -59 71 -96 71c-99 0 -184 -86 -196 -213z" />
    <glyph glyph-name="eogonek" unicode="&#x119;" horiz-adv-x="473" 
d="M240 44c54 0 99 24 139 69l41 -30c-32 -37 -66 -62 -108 -76c-59 -21 -109 -70 -109 -113c0 -21 12 -38 42 -38c20 0 33 3 47 12l2 -39c-16 -9 -36 -13 -61 -13c-48 0 -76 24 -76 67c0 42 29 84 67 111v2c-105 6 -176 80 -176 201c0 158 100 293 252 293
c56 0 146 -29 146 -117c0 -128 -190 -178 -345 -192c6 -87 63 -137 139 -137zM297 441c-99 0 -184 -86 -196 -213c127 11 292 51 292 142c0 56 -59 71 -96 71z" />
    <glyph glyph-name="uni1EBD" unicode="&#x1ebd;" horiz-adv-x="473" 
d="M260 636c-26 0 -48 -22 -64 -59l-35 17c23 55 54 87 95 87c32 0 50 -17 68 -32s36 -32 57 -32c22 0 46 20 62 60l35 -15c-23 -60 -58 -90 -93 -90c-32 0 -55 23 -74 39c-18 14 -34 25 -51 25zM446 373c0 -128 -190 -178 -345 -192c6 -87 63 -137 139 -137
c54 0 99 24 139 69l41 -30c-49 -56 -104 -87 -182 -87c-113 0 -190 75 -190 201c0 158 100 293 252 293c56 0 146 -29 146 -117zM101 228c127 11 292 51 292 142c0 56 -59 71 -96 71c-99 0 -184 -86 -196 -213z" />
    <glyph glyph-name="f" unicode="f" horiz-adv-x="302" 
d="M350 668c-20 16 -47 24 -74 24c-41 0 -74 -24 -84 -109l-12 -98h134l-5 -46h-135l-53 -439h-53l54 439h-56l5 46h57l13 109c12 103 59 147 130 147c36 0 67 -8 94 -26z" />
    <glyph glyph-name="g" unicode="g" horiz-adv-x="550" 
d="M451 485h52l-52 -421c-27 -218 -132 -267 -263 -267c-58 0 -110 14 -160 41l17 49c51 -30 101 -41 145 -41c106 0 187 38 210 222l9 75h-1c-43 -75 -112 -133 -193 -133c-109 0 -167 86 -167 194c0 145 98 286 248 286c56 0 113 -19 147 -57h1zM223 58
c103 0 189 122 205 245l10 78c-36 45 -101 60 -140 60c-120 0 -196 -121 -196 -238c0 -84 42 -145 121 -145z" />
    <glyph glyph-name="gbreve" unicode="&#x11f;" horiz-adv-x="550" 
d="M332 558c-65 0 -111 48 -106 134l43 -1c-3 -53 15 -92 64 -92c52 0 87 40 96 93l43 -1c-16 -84 -72 -133 -140 -133zM451 485h52l-52 -421c-27 -218 -132 -267 -263 -267c-58 0 -110 14 -160 41l17 49c51 -30 101 -41 145 -41c106 0 187 38 210 222l9 75h-1
c-43 -75 -112 -133 -193 -133c-109 0 -167 86 -167 194c0 145 98 286 248 286c56 0 113 -19 147 -57h1zM223 58c103 0 189 122 205 245l10 78c-36 45 -101 60 -140 60c-120 0 -196 -121 -196 -238c0 -84 42 -145 121 -145z" />
    <glyph glyph-name="gcaron" unicode="&#x1e7;" horiz-adv-x="550" 
d="M354 558h-51l-90 140h54l64 -104h3l89 104h57zM451 485h52l-52 -421c-27 -218 -132 -267 -263 -267c-58 0 -110 14 -160 41l17 49c51 -30 101 -41 145 -41c106 0 187 38 210 222l9 75h-1c-43 -75 -112 -133 -193 -133c-109 0 -167 86 -167 194c0 145 98 286 248 286
c56 0 113 -19 147 -57h1zM223 58c103 0 189 122 205 245l10 78c-36 45 -101 60 -140 60c-120 0 -196 -121 -196 -238c0 -84 42 -145 121 -145z" />
    <glyph glyph-name="gcircumflex" unicode="&#x11d;" horiz-adv-x="550" 
d="M340 664l-90 -106h-56l123 140h51l93 -140h-55l-64 106h-2zM451 485h52l-52 -421c-27 -218 -132 -267 -263 -267c-58 0 -110 14 -160 41l17 49c51 -30 101 -41 145 -41c106 0 187 38 210 222l9 75h-1c-43 -75 -112 -133 -193 -133c-109 0 -167 86 -167 194
c0 145 98 286 248 286c56 0 113 -19 147 -57h1zM223 58c103 0 189 122 205 245l10 78c-36 45 -101 60 -140 60c-120 0 -196 -121 -196 -238c0 -84 42 -145 121 -145z" />
    <glyph glyph-name="gcommaaccent" unicode="&#x123;" horiz-adv-x="550" 
d="M358 574v-20h-47v22c0 74 31 124 106 130l9 -34c-48 -7 -68 -35 -68 -98zM451 485h52l-52 -421c-27 -218 -132 -267 -263 -267c-58 0 -110 14 -160 41l17 49c51 -30 101 -41 145 -41c106 0 187 38 210 222l9 75h-1c-43 -75 -112 -133 -193 -133c-109 0 -167 86 -167 194
c0 145 98 286 248 286c56 0 113 -19 147 -57h1zM223 58c103 0 189 122 205 245l10 78c-36 45 -101 60 -140 60c-120 0 -196 -121 -196 -238c0 -84 42 -145 121 -145z" />
    <glyph glyph-name="gdotaccent" unicode="&#x121;" horiz-adv-x="550" 
d="M337 594c-22 0 -38 17 -38 39c0 24 17 41 40 41c22 0 39 -17 39 -39c0 -23 -17 -41 -41 -41zM451 485h52l-52 -421c-27 -218 -132 -267 -263 -267c-58 0 -110 14 -160 41l17 49c51 -30 101 -41 145 -41c106 0 187 38 210 222l9 75h-1c-43 -75 -112 -133 -193 -133
c-109 0 -167 86 -167 194c0 145 98 286 248 286c56 0 113 -19 147 -57h1zM223 58c103 0 189 122 205 245l10 78c-36 45 -101 60 -140 60c-120 0 -196 -121 -196 -238c0 -84 42 -145 121 -145z" />
    <glyph glyph-name="h" unicode="h" 
d="M360 490c95 0 139 -60 120 -198l-38 -292h-52l38 289c15 116 -21 152 -81 152c-86 0 -190 -99 -213 -225l-26 -216h-52l90 736h52l-45 -369h1c55 77 133 123 206 123z" />
    <glyph glyph-name="hbar" unicode="&#x127;" 
d="M360 490c95 0 139 -60 120 -198l-38 -292h-52l38 289c15 116 -21 152 -81 152c-86 0 -190 -99 -213 -225l-26 -216h-52l71 579h-82l5 40h82l14 117h52l-14 -117h103l-5 -40h-103l-26 -212h1c55 77 133 123 206 123z" />
    <glyph glyph-name="hcircumflex" unicode="&#x125;" 
d="M315 913l-90 -106h-56l123 140h51l93 -140h-55l-64 106h-2zM360 490c95 0 139 -60 120 -198l-38 -292h-52l38 289c15 116 -21 152 -81 152c-86 0 -190 -99 -213 -225l-26 -216h-52l90 736h52l-45 -369h1c55 77 133 123 206 123z" />
    <glyph glyph-name="i" unicode="i" horiz-adv-x="229" 
d="M165 674c22 0 39 -17 39 -39c0 -23 -17 -41 -41 -41c-22 0 -38 17 -38 39c0 24 17 41 40 41zM118 485h52l-59 -485h-52z" />
    <glyph glyph-name="dotlessi" unicode="&#x131;" horiz-adv-x="229" 
d="M118 485h52l-59 -485h-52z" />
    <glyph glyph-name="iacute" unicode="&#xed;" horiz-adv-x="234" 
d="M259 698h62l-129 -139h-57zM118 485h52l-59 -485h-52z" />
    <glyph glyph-name="ibreve" unicode="&#x12d;" horiz-adv-x="229" 
d="M158 558c-61 0 -104 48 -98 134l42 -1c-5 -53 12 -92 58 -92s74 40 80 93l44 -1c-15 -84 -64 -133 -126 -133zM118 485h52l-59 -485h-52z" />
    <glyph glyph-name="icircumflex" unicode="&#xee;" horiz-adv-x="229" 
d="M194 698l93 -140h-55l-64 106h-2l-90 -106h-56l123 140h51zM59 0l59 485h52l-59 -485h-52z" />
    <glyph glyph-name="idieresis" unicode="&#xef;" horiz-adv-x="229" 
d="M88 674c22 0 39 -17 39 -39c0 -23 -17 -41 -41 -41c-22 0 -38 17 -38 39c0 24 17 41 40 41zM238 674c22 0 39 -17 39 -39c0 -23 -17 -41 -40 -41c-22 0 -39 17 -39 39c0 24 17 41 40 41zM118 485h52l-59 -485h-52z" />
    <glyph glyph-name="i.loclTRK" horiz-adv-x="229" 
d="M165 674c22 0 39 -17 39 -39c0 -23 -17 -41 -41 -41c-22 0 -38 17 -38 39c0 24 17 41 40 41zM118 485h52l-59 -485h-52z" />
    <glyph glyph-name="uni1ECB" unicode="&#x1ecb;" horiz-adv-x="229" 
d="M165 674c22 0 39 -17 39 -39c0 -23 -17 -41 -41 -41c-22 0 -38 17 -38 39c0 24 17 41 40 41zM118 485h52l-59 -485h-52zM65 -204c-22 0 -39 17 -39 39c0 23 17 41 41 41c22 0 38 -17 38 -39c0 -24 -17 -41 -40 -41z" />
    <glyph glyph-name="igrave" unicode="&#xec;" horiz-adv-x="232" 
d="M123 702l59 -139h-56l-64 139h61zM118 485h52l-59 -485h-52z" />
    <glyph glyph-name="uni1EC9" unicode="&#x1ec9;" horiz-adv-x="229" 
d="M108 644l-21 25c23 25 56 43 94 43c45 0 70 -28 69 -64c0 -44 -38 -69 -85 -92l-7 -22h-22c-5 8 -9 13 -8 22c1 26 84 47 85 91c0 22 -18 30 -37 30c-26 0 -52 -14 -68 -33zM118 485h52l-59 -485h-52z" />
    <glyph glyph-name="ij" unicode="&#x133;" horiz-adv-x="424" 
d="M165 674c22 0 39 -17 39 -39c0 -23 -17 -41 -41 -41c-22 0 -38 17 -38 39c0 24 17 41 40 41zM372 674c22 0 39 -17 39 -39c0 -23 -17 -41 -41 -41c-22 0 -38 17 -38 39c0 24 17 41 40 41zM118 485h52l-59 -485h-52zM134 -140c19 -14 32 -15 49 -15c37 0 66 19 76 105
l66 535h52l-66 -541c-13 -98 -50 -147 -123 -147c-27 0 -46 6 -66 18z" />
    <glyph glyph-name="imacron" unicode="&#x12b;" horiz-adv-x="229" 
d="M41 654h251l-6 -46h-252zM118 485h52l-59 -485h-52z" />
    <glyph glyph-name="iogonek" unicode="&#x12f;" horiz-adv-x="229" 
d="M165 674c22 0 39 -17 39 -39c0 -23 -17 -41 -41 -41c-22 0 -38 17 -38 39c0 24 17 41 40 41zM111 0c-52 -30 -85 -67 -86 -104c-1 -22 11 -40 40 -40c24 0 36 4 50 12l2 -39c-17 -9 -37 -13 -62 -13c-50 0 -78 25 -75 72c1 44 37 87 80 119l58 478h52z" />
    <glyph glyph-name="itilde" unicode="&#x129;" horiz-adv-x="229" 
d="M11 594c22 55 53 87 92 87c31 0 49 -16 66 -32c19 -13 36 -32 56 -32c22 0 45 20 60 60l34 -15c-23 -60 -56 -90 -90 -90c-30 0 -54 23 -72 39c-18 13 -33 25 -50 25c-25 0 -47 -22 -63 -59zM118 485h52l-59 -485h-52z" />
    <glyph glyph-name="j" unicode="j" horiz-adv-x="195" 
d="M143 674c22 0 39 -17 39 -39c0 -23 -17 -41 -41 -41c-22 0 -38 17 -38 39c0 24 17 41 40 41zM-95 -140c19 -14 32 -15 49 -15c37 0 66 19 76 105l66 535h52l-66 -541c-13 -98 -50 -147 -123 -147c-27 0 -46 6 -66 18z" />
    <glyph glyph-name="uni0237" unicode="&#x237;" horiz-adv-x="195" 
d="M-95 -140c19 -14 32 -15 49 -15c37 0 66 19 76 105l66 535h52l-66 -541c-13 -98 -50 -147 -123 -147c-27 0 -46 6 -66 18z" />
    <glyph glyph-name="jcircumflex" unicode="&#x135;" horiz-adv-x="195" 
d="M172 698l93 -140h-55l-64 106h-2l-90 -106h-56l123 140h51zM30 -50l66 535h52l-66 -541c-13 -98 -50 -147 -123 -147c-27 0 -46 6 -66 18l12 45c19 -14 32 -15 49 -15c37 0 66 19 76 105z" />
    <glyph glyph-name="k" unicode="k" horiz-adv-x="488" 
d="M346 138c34 -80 50 -94 80 -100l-15 -42c-6 -1 -12 0 -17 1c-49 7 -67 55 -97 124l-34 79h-2c-45 -37 -93 -68 -141 -91l-14 -109h-52l91 736h52l-69 -568h2c138 77 244 204 280 317h54c-24 -89 -85 -176 -161 -248z" />
    <glyph glyph-name="kcommaaccent" unicode="&#x137;" horiz-adv-x="488" 
d="M346 138c34 -80 50 -94 80 -100l-15 -42c-6 -1 -12 0 -17 1c-49 7 -67 55 -97 124l-34 79h-2c-45 -37 -93 -68 -141 -91l-14 -109h-52l91 736h52l-69 -568h2c138 77 244 204 280 317h54c-24 -89 -85 -176 -161 -248zM187 -74v20h47v-22c0 -74 -31 -124 -106 -130l-9 34
c48 7 68 35 68 98z" />
    <glyph glyph-name="kgreenlandic" unicode="&#x138;" horiz-adv-x="488" 
d="M346 138c34 -80 50 -94 80 -100l-15 -42c-6 -1 -12 0 -17 1c-49 7 -67 55 -97 124l-34 80h-1c-45 -37 -94 -69 -142 -92l-14 -109h-52l60 485h52l-39 -318h2c138 77 245 204 281 318h54c-24 -89 -85 -176 -161 -248z" />
    <glyph glyph-name="l" unicode="l" horiz-adv-x="223" 
d="M150 736h53l-90 -736h-52z" />
    <glyph glyph-name="lacute" unicode="&#x13a;" horiz-adv-x="223" 
d="M286 948h62l-129 -139h-57zM150 736h53l-90 -736h-52z" />
    <glyph glyph-name="lcaron" unicode="&#x13e;" horiz-adv-x="265" 
d="M298 764h56l-59 -172h-42zM150 736h53l-90 -736h-52z" />
    <glyph glyph-name="lcommaaccent" unicode="&#x13c;" horiz-adv-x="223" 
d="M150 736h53l-90 -736h-52zM104 -54v-22c0 -74 -31 -124 -106 -130l-9 34c48 7 68 35 68 98v20h47z" />
    <glyph glyph-name="ldot" unicode="&#x140;" horiz-adv-x="300" 
d="M150 736h53l-90 -736h-52zM272 301c22 0 39 -17 39 -39c0 -24 -17 -41 -40 -41c-22 0 -39 17 -39 39c0 24 17 41 40 41z" />
    <glyph glyph-name="lslash" unicode="&#x142;" horiz-adv-x="235" 
d="M226 396l-6 -53l-64 -30l-38 -313h-52l35 287l-65 -31l6 52l65 31l48 397h53l-45 -370z" />
    <glyph glyph-name="m" unicode="m" horiz-adv-x="827" 
d="M646 490c91 0 135 -60 117 -198l-39 -292h-52l38 289c15 116 -21 152 -76 152c-73 0 -164 -96 -188 -218l-30 -223h-52l38 289c15 116 -20 152 -75 152c-74 0 -171 -99 -193 -224l-26 -217h-52l59 485h52l-14 -113h2c51 74 120 118 184 118c70 0 112 -36 119 -118h1
c50 75 119 118 187 118z" />
    <glyph glyph-name="n" unicode="n" horiz-adv-x="547" 
d="M359 490c95 0 139 -60 120 -198l-38 -292h-52l38 289c15 116 -21 152 -81 152c-86 0 -190 -99 -213 -224l-26 -217h-52l59 485h52l-14 -119h1c54 78 132 124 206 124z" />
    <glyph glyph-name="nacute" unicode="&#x144;" horiz-adv-x="547" 
d="M464 698l-129 -139h-57l124 139h62zM359 490c95 0 139 -60 120 -198l-38 -292h-52l38 289c15 116 -21 152 -81 152c-86 0 -190 -99 -213 -224l-26 -217h-52l59 485h52l-14 -119h1c54 78 132 124 206 124z" />
    <glyph glyph-name="napostrophe" unicode="&#x149;" horiz-adv-x="637" 
d="M104 710h55l-58 -181h-42zM449 490c95 0 139 -60 120 -198l-38 -292h-52l38 289c15 116 -21 152 -81 152c-86 0 -190 -99 -213 -224l-26 -217h-52l59 485h52l-14 -119h1c54 78 132 124 206 124z" />
    <glyph glyph-name="ncaron" unicode="&#x148;" horiz-adv-x="547" 
d="M356 558h-51l-90 140h54l64 -104h3l89 104h57zM359 490c95 0 139 -60 120 -198l-38 -292h-52l38 289c15 116 -21 152 -81 152c-86 0 -190 -99 -213 -224l-26 -217h-52l59 485h52l-14 -119h1c54 78 132 124 206 124z" />
    <glyph glyph-name="ncommaaccent" unicode="&#x146;" horiz-adv-x="547" 
d="M359 490c95 0 139 -60 120 -198l-38 -292h-52l38 289c15 116 -21 152 -81 152c-86 0 -190 -99 -213 -224l-26 -217h-52l59 485h52l-14 -119h1c54 78 132 124 206 124zM214 -74v20h47v-22c0 -74 -31 -124 -106 -130l-9 34c48 7 68 35 68 98z" />
    <glyph glyph-name="eng" unicode="&#x14b;" horiz-adv-x="527" 
d="M345 490c89 0 132 -61 115 -191l-45 -353c-13 -98 -50 -146 -123 -146c-27 0 -46 5 -66 17l12 45c19 -13 33 -15 49 -15c37 0 65 19 76 105l44 343c15 110 -19 146 -77 146c-75 0 -173 -97 -196 -219l-27 -222h-52l59 485h52l-14 -119h1c52 78 125 124 192 124z" />
    <glyph glyph-name="uni0272" unicode="&#x272;" horiz-adv-x="547" 
d="M359 490c95 0 139 -60 120 -198l-38 -292h-52l38 289c15 116 -21 152 -81 152c-89 0 -197 -106 -214 -237l-32 -260c-12 -98 -49 -147 -122 -147c-27 0 -47 6 -67 18l12 45c19 -14 33 -15 49 -15c37 0 66 19 77 105l65 535h52l-15 -120h2c53 79 132 125 206 125z" />
    <glyph glyph-name="ntilde" unicode="&#xf1;" horiz-adv-x="547" 
d="M279 636c-26 0 -48 -22 -64 -59l-35 17c23 55 54 87 95 87c32 0 50 -17 68 -32s36 -32 57 -32c22 0 46 20 62 60l35 -15c-23 -60 -58 -90 -93 -90c-32 0 -55 23 -74 39c-18 14 -34 25 -51 25zM359 490c95 0 139 -60 120 -198l-38 -292h-52l38 289c15 116 -21 152 -81 152
c-86 0 -190 -99 -213 -224l-26 -217h-52l59 485h52l-14 -119h1c54 78 132 124 206 124z" />
    <glyph glyph-name="o" unicode="o" horiz-adv-x="546" 
d="M302 490c117 0 197 -70 197 -198c0 -165 -95 -297 -253 -297c-120 0 -198 74 -198 203c0 155 97 292 254 292zM300 441c-117 0 -199 -107 -199 -238c0 -98 56 -159 146 -159c116 0 198 102 198 245c0 104 -62 152 -145 152z" />
    <glyph glyph-name="oacute" unicode="&#xf3;" horiz-adv-x="546" 
d="M419 698h62l-129 -139h-57zM302 490c117 0 197 -70 197 -198c0 -165 -95 -297 -253 -297c-120 0 -198 74 -198 203c0 155 97 292 254 292zM300 441c-117 0 -199 -107 -199 -238c0 -98 56 -159 146 -159c116 0 198 102 198 245c0 104 -62 152 -145 152z" />
    <glyph glyph-name="obreve" unicode="&#x14f;" horiz-adv-x="546" 
d="M323 558c-65 0 -111 48 -106 134l43 -1c-3 -53 15 -92 64 -92c52 0 87 40 96 93l43 -1c-16 -84 -72 -133 -140 -133zM302 490c117 0 197 -70 197 -198c0 -165 -95 -297 -253 -297c-120 0 -198 74 -198 203c0 155 97 292 254 292zM300 441c-117 0 -199 -107 -199 -238
c0 -98 56 -159 146 -159c116 0 198 102 198 245c0 104 -62 152 -145 152z" />
    <glyph glyph-name="ocircumflex" unicode="&#xf4;" horiz-adv-x="546" 
d="M331 664l-90 -106h-56l123 140h51l93 -140h-55l-64 106h-2zM302 490c117 0 197 -70 197 -198c0 -165 -95 -297 -253 -297c-120 0 -198 74 -198 203c0 155 97 292 254 292zM247 44c116 0 198 102 198 245c0 104 -62 152 -145 152c-117 0 -199 -107 -199 -238
c0 -98 56 -159 146 -159z" />
    <glyph glyph-name="uni1ED1" unicode="&#x1ed1;" horiz-adv-x="546" 
d="M588 780l-134 -138h-46l119 138h61zM330 664l-90 -106h-56l123 140h51l93 -140h-55l-64 106h-2zM302 490c117 0 197 -70 197 -198c0 -165 -95 -297 -253 -297c-120 0 -198 74 -198 203c0 155 97 292 254 292zM247 44c116 0 198 102 198 245c0 104 -62 152 -145 152
c-117 0 -199 -107 -199 -238c0 -98 56 -159 146 -159z" />
    <glyph glyph-name="uni1ED9" unicode="&#x1ed9;" horiz-adv-x="546" 
d="M331 664l-90 -106h-56l123 140h51l93 -140h-55l-64 106h-2zM302 490c117 0 197 -70 197 -198c0 -165 -95 -297 -253 -297c-120 0 -198 74 -198 203c0 155 97 292 254 292zM247 44c116 0 198 102 198 245c0 104 -62 152 -145 152c-117 0 -199 -107 -199 -238
c0 -98 56 -159 146 -159zM226 -124c22 0 38 -17 38 -39c0 -24 -17 -41 -40 -41c-22 0 -39 17 -39 39c0 23 17 41 41 41z" />
    <glyph glyph-name="uni1ED3" unicode="&#x1ed3;" horiz-adv-x="546" 
d="M505 642h-46l-108 138h60zM330 664l-90 -106h-56l123 140h51l93 -140h-55l-64 106h-2zM302 490c117 0 197 -70 197 -198c0 -165 -95 -297 -253 -297c-120 0 -198 74 -198 203c0 155 97 292 254 292zM247 44c116 0 198 102 198 245c0 104 -62 152 -145 152
c-117 0 -199 -107 -199 -238c0 -98 56 -159 146 -159z" />
    <glyph glyph-name="uni1ED5" unicode="&#x1ed5;" horiz-adv-x="546" 
d="M475 795c45 0 70 -27 70 -64c-1 -44 -38 -69 -85 -91l-8 -23l-22 1c-5 7 -8 13 -8 22c2 25 85 46 85 90c1 22 -18 31 -36 31c-27 0 -53 -15 -68 -33l-22 25c24 24 57 42 94 42zM330 664l-90 -106h-56l123 140h51l93 -140h-55l-64 106h-2zM302 490c117 0 197 -70 197 -198
c0 -165 -95 -297 -253 -297c-120 0 -198 74 -198 203c0 155 97 292 254 292zM247 44c116 0 198 102 198 245c0 104 -62 152 -145 152c-117 0 -199 -107 -199 -238c0 -98 56 -159 146 -159z" />
    <glyph glyph-name="uni1ED7" unicode="&#x1ed7;" horiz-adv-x="546" 
d="M289 781c-25 0 -47 -22 -63 -59l-33 17c22 55 53 87 92 87c31 0 49 -16 66 -32c19 -13 36 -32 56 -32c22 0 45 20 60 60l34 -15c-23 -60 -56 -90 -90 -90c-30 0 -54 23 -72 39c-18 13 -33 25 -50 25zM331 664l-90 -106h-56l123 140h51l93 -140h-55l-64 106h-2zM302 490
c117 0 197 -70 197 -198c0 -165 -95 -297 -253 -297c-120 0 -198 74 -198 203c0 155 97 292 254 292zM247 44c116 0 198 102 198 245c0 104 -62 152 -145 152c-117 0 -199 -107 -199 -238c0 -98 56 -159 146 -159z" />
    <glyph glyph-name="odieresis" unicode="&#xf6;" horiz-adv-x="546" 
d="M253 674c22 0 39 -17 39 -39c0 -23 -17 -41 -41 -41c-22 0 -38 17 -38 39c0 24 17 41 40 41zM405 674c22 0 39 -17 39 -39c0 -23 -17 -41 -41 -41c-22 0 -38 17 -38 39c0 24 17 41 40 41zM302 490c117 0 197 -70 197 -198c0 -165 -95 -297 -253 -297
c-120 0 -198 74 -198 203c0 155 97 292 254 292zM300 441c-117 0 -199 -107 -199 -238c0 -98 56 -159 146 -159c116 0 198 102 198 245c0 104 -62 152 -145 152z" />
    <glyph glyph-name="uni1ECD" unicode="&#x1ecd;" horiz-adv-x="546" 
d="M302 490c117 0 197 -70 197 -198c0 -165 -95 -297 -253 -297c-120 0 -198 74 -198 203c0 155 97 292 254 292zM300 441c-117 0 -199 -107 -199 -238c0 -98 56 -159 146 -159c116 0 198 102 198 245c0 104 -62 152 -145 152zM224 -204c-22 0 -39 17 -39 39
c0 23 17 41 41 41c22 0 38 -17 38 -39c0 -24 -17 -41 -40 -41z" />
    <glyph glyph-name="ograve" unicode="&#xf2;" horiz-adv-x="546" 
d="M272 698l90 -139h-57l-95 139h62zM302 490c117 0 197 -70 197 -198c0 -165 -95 -297 -253 -297c-120 0 -198 74 -198 203c0 155 97 292 254 292zM300 441c-117 0 -199 -107 -199 -238c0 -98 56 -159 146 -159c116 0 198 102 198 245c0 104 -62 152 -145 152z" />
    <glyph glyph-name="uni1ECF" unicode="&#x1ecf;" horiz-adv-x="546" 
d="M273 644l-21 25c23 25 56 43 94 43c45 0 70 -28 69 -64c0 -44 -38 -69 -85 -92l-7 -22h-22c-5 8 -9 13 -8 22c1 26 84 47 85 91c0 22 -18 30 -37 30c-26 0 -52 -14 -68 -33zM302 490c117 0 197 -70 197 -198c0 -165 -95 -297 -253 -297c-120 0 -198 74 -198 203
c0 155 97 292 254 292zM300 441c-117 0 -199 -107 -199 -238c0 -98 56 -159 146 -159c116 0 198 102 198 245c0 104 -62 152 -145 152z" />
    <glyph glyph-name="ohorn" unicode="&#x1a1;" horiz-adv-x="618" 
d="M579 565h51l-13 -99c-13 -107 -56 -146 -116 -146h-3c1 -9 1 -18 1 -28c0 -165 -95 -297 -253 -297c-120 0 -198 74 -198 203c0 155 97 292 254 292c93 0 163 -44 187 -126c4 -1 7 -1 10 -1c40 0 59 34 69 110zM247 44c116 0 198 102 198 245c0 104 -62 152 -145 152
c-117 0 -199 -107 -199 -238c0 -98 56 -159 146 -159z" />
    <glyph glyph-name="uni1EDB" unicode="&#x1edb;" horiz-adv-x="618" 
d="M481 698l-129 -139h-57l124 139h62zM579 565h51l-13 -99c-13 -107 -56 -146 -116 -146h-3c1 -9 1 -18 1 -28c0 -165 -95 -297 -253 -297c-120 0 -198 74 -198 203c0 155 97 292 254 292c93 0 163 -44 187 -126c4 -1 7 -1 10 -1c40 0 59 34 69 110zM247 44
c116 0 198 102 198 245c0 104 -62 152 -145 152c-117 0 -199 -107 -199 -238c0 -98 56 -159 146 -159z" />
    <glyph glyph-name="uni1EE3" unicode="&#x1ee3;" horiz-adv-x="618" 
d="M579 565h51l-13 -99c-13 -107 -56 -146 -116 -146h-3c1 -9 1 -18 1 -28c0 -165 -95 -297 -253 -297c-120 0 -198 74 -198 203c0 155 97 292 254 292c93 0 163 -44 187 -126c4 -1 7 -1 10 -1c40 0 59 34 69 110zM247 44c116 0 198 102 198 245c0 104 -62 152 -145 152
c-117 0 -199 -107 -199 -238c0 -98 56 -159 146 -159zM226 -124c22 0 38 -17 38 -39c0 -24 -17 -41 -40 -41c-22 0 -39 17 -39 39c0 23 17 41 41 41z" />
    <glyph glyph-name="uni1EDD" unicode="&#x1edd;" horiz-adv-x="618" 
d="M362 559h-57l-95 139h62zM579 565h51l-13 -99c-13 -107 -56 -146 -116 -146h-3c1 -9 1 -18 1 -28c0 -165 -95 -297 -253 -297c-120 0 -198 74 -198 203c0 155 97 292 254 292c93 0 163 -44 187 -126c4 -1 7 -1 10 -1c40 0 59 34 69 110zM247 44c116 0 198 102 198 245
c0 104 -62 152 -145 152c-117 0 -199 -107 -199 -238c0 -98 56 -159 146 -159z" />
    <glyph glyph-name="uni1EDF" unicode="&#x1edf;" horiz-adv-x="618" 
d="M341 677c-26 0 -52 -14 -68 -33l-21 25c23 25 56 43 94 43c45 0 70 -28 69 -64c0 -44 -38 -69 -85 -92l-7 -22h-22c-5 8 -9 13 -8 22c1 26 84 47 85 91c0 22 -18 30 -37 30zM579 565h51l-13 -99c-13 -107 -56 -146 -116 -146h-3c1 -9 1 -18 1 -28
c0 -165 -95 -297 -253 -297c-120 0 -198 74 -198 203c0 155 97 292 254 292c93 0 163 -44 187 -126c4 -1 7 -1 10 -1c40 0 59 34 69 110zM247 44c116 0 198 102 198 245c0 104 -62 152 -145 152c-117 0 -199 -107 -199 -238c0 -98 56 -159 146 -159z" />
    <glyph glyph-name="uni1EE1" unicode="&#x1ee1;" horiz-adv-x="618" 
d="M269 636c-26 0 -48 -22 -64 -59l-35 17c23 55 54 87 95 87c32 0 50 -17 68 -32s36 -32 57 -32c22 0 46 20 62 60l35 -15c-23 -60 -58 -90 -93 -90c-32 0 -55 23 -74 39c-18 14 -34 25 -51 25zM579 565h51l-13 -99c-13 -107 -56 -146 -116 -146h-3c1 -9 1 -18 1 -28
c0 -165 -95 -297 -253 -297c-120 0 -198 74 -198 203c0 155 97 292 254 292c93 0 163 -44 187 -126c4 -1 7 -1 10 -1c40 0 59 34 69 110zM247 44c116 0 198 102 198 245c0 104 -62 152 -145 152c-117 0 -199 -107 -199 -238c0 -98 56 -159 146 -159z" />
    <glyph glyph-name="ohungarumlaut" unicode="&#x151;" 
d="M344 698h59l-129 -139h-54zM480 698h59l-129 -139h-53zM302 490c117 0 197 -70 197 -198c0 -165 -95 -297 -253 -297c-120 0 -198 74 -198 203c0 155 97 292 254 292zM300 441c-117 0 -199 -107 -199 -238c0 -98 56 -159 146 -159c116 0 198 102 198 245
c0 104 -62 152 -145 152z" />
    <glyph glyph-name="omacron" unicode="&#x14d;" horiz-adv-x="546" 
d="M206 654h251l-6 -46h-252zM302 490c117 0 197 -70 197 -198c0 -165 -95 -297 -253 -297c-120 0 -198 74 -198 203c0 155 97 292 254 292zM300 441c-117 0 -199 -107 -199 -238c0 -98 56 -159 146 -159c116 0 198 102 198 245c0 104 -62 152 -145 152z" />
    <glyph glyph-name="uni01EB" unicode="&#x1eb;" horiz-adv-x="546" 
d="M285 -2c-50 -30 -81 -66 -82 -102c-1 -22 11 -40 40 -40c24 0 36 4 50 12l2 -39c-17 -9 -37 -13 -62 -13c-50 0 -78 25 -75 72c1 39 29 77 65 107v1c-107 9 -175 81 -175 202c0 155 97 292 254 292c117 0 197 -70 197 -198c0 -151 -79 -274 -214 -294zM101 203
c0 -98 56 -159 146 -159c116 0 198 102 198 245c0 104 -62 152 -145 152c-117 0 -199 -107 -199 -238z" />
    <glyph glyph-name="oslash" unicode="&#xf8;" 
d="M522 471l-56 -58c21 -31 33 -72 33 -121c0 -165 -95 -297 -253 -297c-57 0 -104 17 -138 48l-57 -59l-29 26l60 62c-22 33 -34 75 -34 126c0 155 97 292 254 292c57 0 105 -17 139 -48l54 55zM101 203c0 -35 7 -66 21 -90l282 290c-26 26 -62 38 -104 38
c-117 0 -199 -107 -199 -238zM445 289c0 34 -6 61 -18 84l-282 -291c25 -25 60 -38 102 -38c116 0 198 102 198 245z" />
    <glyph glyph-name="oslashacute" unicode="&#x1ff;" 
d="M455 699l-129 -139h-57l124 139h62zM522 471l-56 -58c21 -31 33 -72 33 -121c0 -165 -95 -297 -253 -297c-57 0 -104 17 -138 48l-57 -59l-29 26l60 62c-22 33 -34 75 -34 126c0 155 97 292 254 292c57 0 105 -17 139 -48l54 55zM101 203c0 -35 7 -66 21 -90l282 290
c-26 26 -62 38 -104 38c-117 0 -199 -107 -199 -238zM445 289c0 34 -6 61 -18 84l-282 -291c25 -25 60 -38 102 -38c116 0 198 102 198 245z" />
    <glyph glyph-name="otilde" unicode="&#xf5;" horiz-adv-x="546" 
d="M169 594c23 55 54 87 95 87c32 0 50 -17 68 -32s36 -32 57 -32c22 0 46 20 62 60l35 -15c-23 -60 -58 -90 -93 -90c-32 0 -55 23 -74 39c-18 14 -34 25 -51 25c-26 0 -48 -22 -64 -59zM302 490c117 0 197 -70 197 -198c0 -165 -95 -297 -253 -297
c-120 0 -198 74 -198 203c0 155 97 292 254 292zM300 441c-117 0 -199 -107 -199 -238c0 -98 56 -159 146 -159c116 0 198 102 198 245c0 104 -62 152 -145 152z" />
    <glyph glyph-name="oe" unicode="&#x153;" horiz-adv-x="743" 
d="M542 44c34 0 85 21 122 69l41 -30c-42 -55 -105 -87 -165 -87c-79 0 -138 43 -162 117h-2c-39 -70 -101 -117 -178 -117c-95 0 -162 74 -162 197c0 168 98 297 230 297c69 0 121 -43 142 -118h2c41 73 110 118 194 118c74 0 126 -41 126 -108c0 -117 -148 -176 -313 -203
c7 -86 56 -135 125 -135zM202 44c86 0 161 97 168 229c5 103 -38 168 -107 168c-96 0 -174 -108 -174 -245c0 -101 50 -152 113 -152zM600 441c-96 0 -171 -87 -182 -217c135 24 259 72 259 154c0 48 -44 63 -77 63z" />
    <glyph glyph-name="p" unicode="p" horiz-adv-x="559" 
d="M347 490c108 0 165 -87 165 -194c0 -160 -97 -301 -250 -301c-56 0 -113 18 -148 56h-2l-30 -249h-52l84 683h52l-15 -122h1c44 74 111 127 195 127zM257 44c123 0 202 117 202 255c0 79 -41 142 -121 142c-102 0 -183 -109 -207 -238l-11 -95c29 -49 93 -64 137 -64z
" />
    <glyph glyph-name="thorn" unicode="&#xfe;" horiz-adv-x="560" 
d="M348 490c107 0 165 -87 165 -194c0 -160 -98 -301 -251 -301c-56 0 -112 18 -147 55h-3l-29 -248h-52l114 934h52l-46 -373h2c44 74 110 127 195 127zM258 44c122 0 201 117 201 255c0 79 -40 142 -121 142c-107 0 -192 -121 -209 -259l-9 -72c28 -51 93 -66 138 -66z
" />
    <glyph glyph-name="q" unicode="q" horiz-adv-x="551" 
d="M451 485h51l-83 -683h-52l40 323h-3c-43 -75 -110 -130 -189 -130c-109 0 -167 86 -167 194c0 160 98 301 248 301c56 0 111 -18 145 -55h3zM223 43c97 0 179 109 203 238l12 101c-36 45 -101 59 -140 59c-120 0 -196 -121 -196 -253c0 -84 42 -145 121 -145z" />
    <glyph glyph-name="r" unicode="r" horiz-adv-x="309" 
d="M155 373c42 65 101 105 167 117l-8 -62c-93 -9 -161 -92 -180 -208l-27 -220h-52l59 485h52l-14 -112h3z" />
    <glyph glyph-name="racute" unicode="&#x155;" horiz-adv-x="310" 
d="M348 698l-129 -139h-57l124 139h62zM155 373c42 65 101 105 167 117l-8 -62c-93 -9 -161 -92 -180 -208l-27 -220h-52l59 485h52l-14 -112h3z" />
    <glyph glyph-name="rcaron" unicode="&#x159;" horiz-adv-x="309" 
d="M261 558h-51l-90 140h54l64 -104h3l89 104h57zM155 373c42 65 101 105 167 117l-8 -62c-93 -9 -161 -92 -180 -208l-27 -220h-52l59 485h52l-14 -112h3z" />
    <glyph glyph-name="rcommaaccent" unicode="&#x157;" horiz-adv-x="309" 
d="M155 373c42 65 101 105 167 117l-8 -62c-93 -9 -161 -92 -180 -208l-27 -220h-52l59 485h52l-14 -112h3zM51 -74v20h47v-22c0 -74 -31 -124 -106 -130l-9 34c48 7 68 35 68 98z" />
    <glyph glyph-name="s" unicode="s" horiz-adv-x="410" 
d="M51 104c36 -41 79 -61 131 -61c67 0 117 32 117 87c0 53 -55 73 -115 99c-62 26 -117 59 -117 129c0 82 72 132 154 132c52 0 103 -15 145 -61l-35 -36c-35 39 -71 49 -113 49c-54 0 -98 -30 -98 -82c0 -44 44 -68 94 -89c63 -29 138 -57 138 -135
c1 -94 -77 -141 -170 -141c-68 0 -126 26 -165 73z" />
    <glyph glyph-name="sacute" unicode="&#x15b;" horiz-adv-x="410" 
d="M337 698h62l-129 -139h-57zM51 104c36 -41 79 -61 131 -61c67 0 117 32 117 87c0 53 -55 73 -115 99c-62 26 -117 59 -117 129c0 82 72 132 154 132c52 0 103 -15 145 -61l-35 -36c-35 39 -71 49 -113 49c-54 0 -98 -30 -98 -82c0 -44 44 -68 94 -89
c63 -29 138 -57 138 -135c1 -94 -77 -141 -170 -141c-68 0 -126 26 -165 73z" />
    <glyph glyph-name="scaron" unicode="&#x161;" horiz-adv-x="410" 
d="M270 558h-51l-90 140h54l64 -104h3l89 104h57zM218 442c-54 0 -98 -30 -98 -82c0 -44 44 -68 94 -89c63 -29 138 -57 138 -135c1 -94 -77 -141 -170 -141c-68 0 -126 26 -165 73l34 36c36 -41 79 -61 131 -61c67 0 117 32 117 87c0 53 -55 73 -115 99
c-62 26 -117 59 -117 129c0 82 72 132 154 132c52 0 103 -15 145 -61l-35 -36c-35 39 -71 49 -113 49z" />
    <glyph glyph-name="scedilla" unicode="&#x15f;" horiz-adv-x="410" 
d="M214 271c63 -29 138 -57 138 -135c1 -94 -77 -141 -170 -141h-6l-17 -29l1 -1c43 -3 70 -22 70 -62c0 -49 -42 -89 -100 -89c-18 0 -34 3 -45 7l3 33c10 -5 21 -7 39 -7c29 0 63 17 63 55c0 24 -22 35 -69 37l3 26l18 33c-51 8 -94 33 -125 70l34 36
c36 -41 79 -61 131 -61c67 0 117 32 117 87c0 53 -55 73 -115 99c-62 26 -117 59 -117 129c0 82 72 132 154 132c52 0 103 -15 145 -61l-35 -36c-35 39 -71 49 -113 49c-54 0 -98 -30 -98 -82c0 -44 44 -68 94 -89z" />
    <glyph glyph-name="scircumflex" unicode="&#x15d;" horiz-adv-x="410" 
d="M256 664l-90 -106h-56l123 140h51l93 -140h-55l-64 106h-2zM218 442c-54 0 -98 -30 -98 -82c0 -44 44 -68 94 -89c63 -29 138 -57 138 -135c1 -94 -77 -141 -170 -141c-68 0 -126 26 -165 73l34 36c36 -41 79 -61 131 -61c67 0 117 32 117 87c0 53 -55 73 -115 99
c-62 26 -117 59 -117 129c0 82 72 132 154 132c52 0 103 -15 145 -61l-35 -36c-35 39 -71 49 -113 49z" />
    <glyph glyph-name="scommaaccent" unicode="&#x219;" horiz-adv-x="410" 
d="M51 104c36 -41 79 -61 131 -61c67 0 117 32 117 87c0 53 -55 73 -115 99c-62 26 -117 59 -117 129c0 82 72 132 154 132c52 0 103 -15 145 -61l-35 -36c-35 39 -71 49 -113 49c-54 0 -98 -30 -98 -82c0 -44 44 -68 94 -89c63 -29 138 -57 138 -135
c1 -94 -77 -141 -170 -141c-68 0 -126 26 -165 73zM188 -54v-22c0 -74 -31 -124 -106 -130l-9 34c48 7 68 35 68 98v20h47z" />
    <glyph glyph-name="germandbls" unicode="&#xdf;" horiz-adv-x="586" 
d="M552 135c0 -92 -73 -140 -166 -140c-81 0 -136 32 -169 73l35 36c30 -33 64 -61 134 -61c67 0 113 36 113 90c0 49 -41 71 -102 104c-67 36 -121 68 -117 136c3 68 65 100 116 134c41 28 74 56 74 101c0 51 -48 84 -130 84c-69 0 -152 -35 -166 -149l-67 -543h-52l68 552
c16 132 115 189 216 189c115 0 183 -51 183 -130c0 -70 -47 -108 -104 -146c-42 -27 -83 -50 -85 -88c-3 -43 33 -65 88 -95c72 -40 131 -71 131 -147z" />
    <glyph glyph-name="longs" unicode="&#x17f;" horiz-adv-x="283" 
d="M350 668c-20 16 -47 24 -74 24c-41 0 -74 -24 -84 -109l-71 -583h-53l54 439h-56l5 46h57l13 109c12 103 59 147 130 147c36 0 67 -8 94 -26z" />
    <glyph glyph-name="uni0259" unicode="&#x259;" horiz-adv-x="453" 
d="M233 490c102 0 181 -75 181 -198c0 -158 -101 -296 -264 -296c-75 0 -126 40 -126 103c0 136 187 197 336 211c-5 82 -59 131 -131 131c-48 0 -96 -22 -124 -48l-33 36c39 34 97 61 161 61zM155 44c108 0 192 88 204 218l-1 1c-135 -16 -280 -66 -280 -159
c0 -35 26 -60 77 -60z" />
    <glyph glyph-name="t" unicode="t" horiz-adv-x="338" 
d="M265 79l7 -50c-32 -22 -72 -34 -110 -34c-76 0 -97 55 -87 136l38 308h-57l5 46h58l20 168l53 9l-22 -177h155l-5 -46h-155l-37 -302c-6 -54 1 -91 48 -91c29 0 59 12 89 33z" />
    <glyph glyph-name="tbar" unicode="&#x167;" horiz-adv-x="338" 
d="M320 439h-155l-17 -140h132l-5 -40h-132l-15 -122c-6 -54 1 -91 48 -91c29 0 59 12 89 33l7 -50c-32 -22 -72 -34 -110 -34c-76 0 -97 55 -87 136l16 128h-50l5 40h50l17 140h-57l5 46h58l20 168l53 9l-22 -177h155z" />
    <glyph glyph-name="tcaron" unicode="&#x165;" horiz-adv-x="343" 
d="M309 764h55l-59 -172h-41zM265 79l7 -50c-32 -22 -72 -34 -110 -34c-76 0 -97 55 -87 136l38 308h-57l5 46h58l20 168l53 9l-22 -177h155l-5 -46h-155l-37 -302c-6 -54 1 -91 48 -91c29 0 59 12 89 33z" />
    <glyph glyph-name="uni0163" unicode="&#x163;" horiz-adv-x="338" 
d="M165 439l-37 -302c-6 -54 1 -91 48 -91c29 0 59 12 89 33l7 -50c-32 -22 -72 -34 -110 -34h-8l-18 -29l1 -1c43 -3 70 -22 70 -62c0 -49 -42 -89 -100 -89c-18 0 -34 3 -45 7l3 33c10 -5 21 -7 39 -7c29 0 63 17 63 55c0 24 -22 35 -69 37l3 26l20 37
c-42 17 -54 65 -46 129l38 308h-57l5 46h58l20 168l53 9l-22 -177h155l-5 -46h-155z" />
    <glyph glyph-name="uni021B" unicode="&#x21b;" horiz-adv-x="338" 
d="M265 79l7 -50c-32 -22 -72 -34 -110 -34c-76 0 -97 55 -87 136l38 308h-57l5 46h58l20 168l53 9l-22 -177h155l-5 -46h-155l-37 -302c-6 -54 1 -91 48 -91c29 0 59 12 89 33zM165 -54v-22c0 -74 -31 -124 -106 -130l-9 34c48 7 68 35 68 98v20h47z" />
    <glyph glyph-name="u" unicode="u" horiz-adv-x="529" 
d="M429 485h52l-59 -485h-52l14 113h-3c-46 -71 -114 -118 -186 -118c-98 0 -146 57 -129 197l36 293h52l-35 -290c-15 -119 25 -151 88 -151c80 0 176 99 195 222z" />
    <glyph glyph-name="uacute" unicode="&#xfa;" horiz-adv-x="529" 
d="M453 698l-129 -139h-57l124 139h62zM429 485h52l-59 -485h-52l14 113h-3c-46 -71 -114 -118 -186 -118c-98 0 -146 57 -129 197l36 293h52l-35 -290c-15 -119 25 -151 88 -151c80 0 176 99 195 222z" />
    <glyph glyph-name="ubreve" unicode="&#x16d;" horiz-adv-x="529" 
d="M303 558c-65 0 -111 48 -106 134l43 -1c-3 -53 15 -92 64 -92c52 0 87 40 96 93l43 -1c-16 -84 -72 -133 -140 -133zM429 485h52l-59 -485h-52l14 113h-3c-46 -71 -114 -118 -186 -118c-98 0 -146 57 -129 197l36 293h52l-35 -290c-15 -119 25 -151 88 -151
c80 0 176 99 195 222z" />
    <glyph glyph-name="ucircumflex" unicode="&#xfb;" horiz-adv-x="529" 
d="M311 664l-90 -106h-56l123 140h51l93 -140h-55l-64 106h-2zM429 485h52l-59 -485h-52l14 113h-3c-46 -71 -114 -118 -186 -118c-98 0 -146 57 -129 197l36 293h52l-35 -290c-15 -119 25 -151 88 -151c80 0 176 99 195 222z" />
    <glyph glyph-name="udieresis" unicode="&#xfc;" horiz-adv-x="529" 
d="M231 594c-22 0 -38 17 -38 39c0 24 17 41 40 41c22 0 39 -17 39 -39c0 -23 -17 -41 -41 -41zM383 594c-22 0 -38 17 -38 39c0 24 17 41 40 41c22 0 39 -17 39 -39c0 -23 -17 -41 -41 -41zM429 485h52l-59 -485h-52l14 113h-3c-46 -71 -114 -118 -186 -118
c-98 0 -146 57 -129 197l36 293h52l-35 -290c-15 -119 25 -151 88 -151c80 0 176 99 195 222z" />
    <glyph glyph-name="uni1EE5" unicode="&#x1ee5;" horiz-adv-x="529" 
d="M429 485h52l-59 -485h-52l14 113h-3c-46 -71 -114 -118 -186 -118c-98 0 -146 57 -129 197l36 293h52l-35 -290c-15 -119 25 -151 88 -151c80 0 176 99 195 222zM225 -124c22 0 38 -17 38 -39c0 -24 -17 -41 -40 -41c-22 0 -39 17 -39 39c0 23 17 41 41 41z" />
    <glyph glyph-name="ugrave" unicode="&#xf9;" horiz-adv-x="529" 
d="M341 559h-57l-95 139h62zM429 485h52l-59 -485h-52l14 113h-3c-46 -71 -114 -118 -186 -118c-98 0 -146 57 -129 197l36 293h52l-35 -290c-15 -119 25 -151 88 -151c80 0 176 99 195 222z" />
    <glyph glyph-name="uni1EE7" unicode="&#x1ee7;" horiz-adv-x="529" 
d="M321 677c-26 0 -52 -14 -68 -33l-21 25c23 25 56 43 94 43c45 0 70 -28 69 -64c0 -44 -38 -69 -85 -92l-7 -22h-22c-5 8 -9 13 -8 22c1 26 84 47 85 91c0 22 -18 30 -37 30zM429 485h52l-59 -485h-52l14 113h-3c-46 -71 -114 -118 -186 -118c-98 0 -146 57 -129 197
l36 293h52l-35 -290c-15 -119 25 -151 88 -151c80 0 176 99 195 222z" />
    <glyph glyph-name="uhorn" unicode="&#x1b0;" horiz-adv-x="598" 
d="M565 565h51l-13 -99c-13 -107 -56 -146 -116 -146c-8 0 -17 1 -26 2l-39 -322h-52l14 113h-3c-46 -71 -114 -118 -186 -118c-98 0 -146 57 -129 197l36 293h52l-35 -290c-15 -119 25 -151 88 -151c80 0 176 99 195 222l27 219h52l-15 -120c7 -2 13 -2 19 -2
c40 0 59 34 69 110z" />
    <glyph glyph-name="uni1EE9" unicode="&#x1ee9;" horiz-adv-x="598" 
d="M453 698l-129 -139h-57l124 139h62zM565 565h51l-13 -99c-13 -107 -56 -146 -116 -146c-8 0 -17 1 -26 2l-39 -322h-52l14 113h-3c-46 -71 -114 -118 -186 -118c-98 0 -146 57 -129 197l36 293h52l-35 -290c-15 -119 25 -151 88 -151c80 0 176 99 195 222l27 219h52
l-15 -120c7 -2 13 -2 19 -2c40 0 59 34 69 110z" />
    <glyph glyph-name="uni1EF1" unicode="&#x1ef1;" horiz-adv-x="598" 
d="M565 565h51l-13 -99c-13 -107 -56 -146 -116 -146c-8 0 -17 1 -26 2l-39 -322h-52l14 113h-3c-46 -71 -114 -118 -186 -118c-98 0 -146 57 -129 197l36 293h52l-35 -290c-15 -119 25 -151 88 -151c80 0 176 99 195 222l27 219h52l-15 -120c7 -2 13 -2 19 -2
c40 0 59 34 69 110zM225 -124c22 0 38 -17 38 -39c0 -24 -17 -41 -40 -41c-22 0 -39 17 -39 39c0 23 17 41 41 41z" />
    <glyph glyph-name="uni1EEB" unicode="&#x1eeb;" horiz-adv-x="598" 
d="M341 559h-57l-95 139h62zM565 565h51l-13 -99c-13 -107 -56 -146 -116 -146c-8 0 -17 1 -26 2l-39 -322h-52l14 113h-3c-46 -71 -114 -118 -186 -118c-98 0 -146 57 -129 197l36 293h52l-35 -290c-15 -119 25 -151 88 -151c80 0 176 99 195 222l27 219h52l-15 -120
c7 -2 13 -2 19 -2c40 0 59 34 69 110z" />
    <glyph glyph-name="uni1EED" unicode="&#x1eed;" horiz-adv-x="598" 
d="M321 677c-26 0 -52 -14 -68 -33l-21 25c23 25 56 43 94 43c45 0 70 -28 69 -64c0 -44 -38 -69 -85 -92l-7 -22h-22c-5 8 -9 13 -8 22c1 26 84 47 85 91c0 22 -18 30 -37 30zM565 565h51l-13 -99c-13 -107 -56 -146 -116 -146c-8 0 -17 1 -26 2l-39 -322h-52l14 113h-3
c-46 -71 -114 -118 -186 -118c-98 0 -146 57 -129 197l36 293h52l-35 -290c-15 -119 25 -151 88 -151c80 0 176 99 195 222l27 219h52l-15 -120c7 -2 13 -2 19 -2c40 0 59 34 69 110z" />
    <glyph glyph-name="uni1EEF" unicode="&#x1eef;" horiz-adv-x="598" 
d="M249 636c-26 0 -48 -22 -64 -59l-35 17c23 55 54 87 95 87c32 0 50 -17 68 -32s36 -32 57 -32c22 0 46 20 62 60l35 -15c-23 -60 -58 -90 -93 -90c-32 0 -55 23 -74 39c-18 14 -34 25 -51 25zM565 565h51l-13 -99c-13 -107 -56 -146 -116 -146c-8 0 -17 1 -26 2l-39 -322
h-52l14 113h-3c-46 -71 -114 -118 -186 -118c-98 0 -146 57 -129 197l36 293h52l-35 -290c-15 -119 25 -151 88 -151c80 0 176 99 195 222l27 219h52l-15 -120c7 -2 13 -2 19 -2c40 0 59 34 69 110z" />
    <glyph glyph-name="uhungarumlaut" unicode="&#x171;" horiz-adv-x="533" 
d="M378 698l-129 -139h-54l124 139h59zM385 559h-53l123 139h59zM402 266l27 219h52l-59 -485h-52l14 113h-3c-46 -71 -114 -118 -186 -118c-98 0 -146 57 -129 197l36 293h52l-35 -290c-15 -119 25 -151 88 -151c80 0 176 99 195 222z" />
    <glyph glyph-name="umacron" unicode="&#x16b;" horiz-adv-x="529" 
d="M437 654l-6 -46h-252l7 46h251zM429 485h52l-59 -485h-52l14 113h-3c-46 -71 -114 -118 -186 -118c-98 0 -146 57 -129 197l36 293h52l-35 -290c-15 -119 25 -151 88 -151c80 0 176 99 195 222z" />
    <glyph glyph-name="uogonek" unicode="&#x173;" horiz-adv-x="529" 
d="M376 -144c24 0 36 4 50 12l2 -39c-17 -9 -37 -13 -62 -13c-50 0 -78 25 -75 72c1 44 37 87 80 119l13 106h-3c-46 -71 -114 -118 -186 -118c-98 0 -146 57 -129 197l36 293h52l-35 -290c-15 -119 25 -151 88 -151c80 0 176 99 195 222l27 219h52l-59 -485
c-52 -30 -85 -67 -86 -104c-1 -22 11 -40 40 -40z" />
    <glyph glyph-name="uring" unicode="&#x16f;" horiz-adv-x="529" 
d="M305 548c-47 0 -82 35 -82 82c0 49 36 84 85 84c48 0 83 -34 83 -81c0 -49 -36 -85 -86 -85zM308 677c-28 0 -48 -19 -48 -46s19 -46 46 -46c28 0 48 20 48 48c0 25 -19 44 -46 44zM429 485h52l-59 -485h-52l14 113h-3c-46 -71 -114 -118 -186 -118
c-98 0 -146 57 -129 197l36 293h52l-35 -290c-15 -119 25 -151 88 -151c80 0 176 99 195 222z" />
    <glyph glyph-name="utilde" unicode="&#x169;" horiz-adv-x="529" 
d="M248 636c-26 0 -48 -22 -64 -59l-35 17c23 55 54 87 95 87c32 0 50 -17 68 -32s36 -32 57 -32c22 0 46 20 62 60l35 -15c-23 -60 -58 -90 -93 -90c-32 0 -55 23 -74 39c-18 14 -34 25 -51 25zM429 485h52l-59 -485h-52l14 113h-3c-46 -71 -114 -118 -186 -118
c-98 0 -146 57 -129 197l36 293h52l-35 -290c-15 -119 25 -151 88 -151c80 0 176 99 195 222z" />
    <glyph glyph-name="v" unicode="v" horiz-adv-x="489" 
d="M193 -5c-99 0 -143 63 -125 210l35 280h52l-35 -277c-16 -128 19 -164 77 -164c85 0 190 111 204 293c4 51 1 96 -7 148h54c7 -41 10 -96 7 -137c-17 -251 -156 -353 -262 -353z" />
    <glyph glyph-name="w" unicode="w" horiz-adv-x="691" 
d="M650 485c9 -50 12 -96 6 -150c-20 -236 -137 -340 -228 -340c-60 0 -97 29 -108 96h-1c-38 -65 -95 -96 -141 -96c-85 0 -128 61 -111 203l36 287h52l-35 -283c-15 -122 21 -158 68 -158c58 0 120 79 134 187l32 254h52l-36 -288c-14 -120 20 -153 65 -153
c71 0 156 124 169 298c4 55 0 95 -7 143h53z" />
    <glyph glyph-name="wacute" unicode="&#x1e83;" horiz-adv-x="691" 
d="M553 698l-129 -139h-57l124 139h62zM650 485c9 -50 12 -96 6 -150c-20 -236 -137 -340 -228 -340c-60 0 -97 29 -108 96h-1c-38 -65 -95 -96 -141 -96c-85 0 -128 61 -111 203l36 287h52l-35 -283c-15 -122 21 -158 68 -158c58 0 120 79 134 187l32 254h52l-36 -288
c-14 -120 20 -153 65 -153c71 0 156 124 169 298c4 55 0 95 -7 143h53z" />
    <glyph glyph-name="wcircumflex" unicode="&#x175;" horiz-adv-x="691" 
d="M399 664l-90 -106h-56l123 140h51l93 -140h-55l-64 106h-2zM650 485c9 -50 12 -96 6 -150c-20 -236 -137 -340 -228 -340c-60 0 -97 29 -108 96h-1c-38 -65 -95 -96 -141 -96c-85 0 -128 61 -111 203l36 287h52l-35 -283c-15 -122 21 -158 68 -158c58 0 120 79 134 187
l32 254h52l-36 -288c-14 -120 20 -153 65 -153c71 0 156 124 169 298c4 55 0 95 -7 143h53z" />
    <glyph glyph-name="wdieresis" unicode="&#x1e85;" horiz-adv-x="691" 
d="M319 594c-22 0 -38 17 -38 39c0 24 17 41 40 41c22 0 39 -17 39 -39c0 -23 -17 -41 -41 -41zM471 594c-22 0 -38 17 -38 39c0 24 17 41 40 41c22 0 39 -17 39 -39c0 -23 -17 -41 -41 -41zM650 485c9 -50 12 -96 6 -150c-20 -236 -137 -340 -228 -340
c-60 0 -97 29 -108 96h-1c-38 -65 -95 -96 -141 -96c-85 0 -128 61 -111 203l36 287h52l-35 -283c-15 -122 21 -158 68 -158c58 0 120 79 134 187l32 254h52l-36 -288c-14 -120 20 -153 65 -153c71 0 156 124 169 298c4 55 0 95 -7 143h53z" />
    <glyph glyph-name="wgrave" unicode="&#x1e81;" horiz-adv-x="691" 
d="M411 559h-57l-95 139h62zM650 485c9 -50 12 -96 6 -150c-20 -236 -137 -340 -228 -340c-60 0 -97 29 -108 96h-1c-38 -65 -95 -96 -141 -96c-85 0 -128 61 -111 203l36 287h52l-35 -283c-15 -122 21 -158 68 -158c58 0 120 79 134 187l32 254h52l-36 -288
c-14 -120 20 -153 65 -153c71 0 156 124 169 298c4 55 0 95 -7 143h53z" />
    <glyph glyph-name="x" unicode="x" horiz-adv-x="456" 
d="M452 485l-192 -241l134 -244h-62l-109 199h-1l-156 -199h-62l193 245l-133 240h61l106 -199h2l155 199h64z" />
    <glyph glyph-name="y" unicode="y" horiz-adv-x="528" 
d="M429 485h52l-51 -421c-27 -218 -135 -267 -248 -267c-51 0 -105 14 -155 41l17 48c51 -30 101 -40 139 -40c91 0 172 38 195 222l6 52h-2c-45 -75 -114 -125 -189 -125c-98 0 -146 57 -129 197l36 293h52l-35 -290c-15 -119 25 -151 88 -151c85 0 183 105 198 233h1z" />
    <glyph glyph-name="yacute" unicode="&#xfd;" horiz-adv-x="528" 
d="M455 698l-129 -139h-57l124 139h62zM429 485h52l-51 -421c-27 -218 -135 -267 -248 -267c-51 0 -105 14 -155 41l17 48c51 -30 101 -40 139 -40c91 0 172 38 195 222l6 52h-2c-45 -75 -114 -125 -189 -125c-98 0 -146 57 -129 197l36 293h52l-35 -290
c-15 -119 25 -151 88 -151c85 0 183 105 198 233h1z" />
    <glyph glyph-name="ycircumflex" unicode="&#x177;" horiz-adv-x="528" 
d="M312 664l-90 -106h-56l123 140h51l93 -140h-55l-64 106h-2zM429 485h52l-51 -421c-27 -218 -135 -267 -248 -267c-51 0 -105 14 -155 41l17 48c51 -30 101 -40 139 -40c91 0 172 38 195 222l6 52h-2c-45 -75 -114 -125 -189 -125c-98 0 -146 57 -129 197l36 293h52
l-35 -290c-15 -119 25 -151 88 -151c85 0 183 105 198 233h1z" />
    <glyph glyph-name="ydieresis" unicode="&#xff;" horiz-adv-x="528" 
d="M232 594c-22 0 -38 17 -38 39c0 24 17 41 40 41c22 0 39 -17 39 -39c0 -23 -17 -41 -41 -41zM384 594c-22 0 -38 17 -38 39c0 24 17 41 40 41c22 0 39 -17 39 -39c0 -23 -17 -41 -41 -41zM429 485h52l-51 -421c-27 -218 -135 -267 -248 -267c-51 0 -105 14 -155 41l17 48
c51 -30 101 -40 139 -40c91 0 172 38 195 222l6 52h-2c-45 -75 -114 -125 -189 -125c-98 0 -146 57 -129 197l36 293h52l-35 -290c-15 -119 25 -151 88 -151c85 0 183 105 198 233h1z" />
    <glyph glyph-name="uni1EF5" unicode="&#x1ef5;" horiz-adv-x="528" 
d="M429 485h52l-51 -421c-27 -218 -135 -267 -248 -267c-51 0 -105 14 -155 41l17 48c51 -30 101 -40 139 -40c91 0 172 38 195 222l6 52h-2c-45 -75 -114 -125 -189 -125c-98 0 -146 57 -129 197l36 293h52l-35 -290c-15 -119 25 -151 88 -151c85 0 183 105 198 233h1z
M201 -259c22 0 38 -17 38 -39c0 -24 -17 -41 -40 -41c-22 0 -39 17 -39 39c0 23 17 41 41 41z" />
    <glyph glyph-name="ygrave" unicode="&#x1ef3;" horiz-adv-x="528" 
d="M338 559h-57l-95 139h62zM429 485h52l-51 -421c-27 -218 -135 -267 -248 -267c-51 0 -105 14 -155 41l17 48c51 -30 101 -40 139 -40c91 0 172 38 195 222l6 52h-2c-45 -75 -114 -125 -189 -125c-98 0 -146 57 -129 197l36 293h52l-35 -290c-15 -119 25 -151 88 -151
c85 0 183 105 198 233h1z" />
    <glyph glyph-name="uni1EF7" unicode="&#x1ef7;" horiz-adv-x="528" 
d="M322 677c-26 0 -52 -14 -68 -33l-21 25c23 25 56 43 94 43c45 0 70 -28 69 -64c0 -44 -38 -69 -85 -92l-7 -22h-22c-5 8 -9 13 -8 22c1 26 84 47 85 91c0 22 -18 30 -37 30zM429 485h52l-51 -421c-27 -218 -135 -267 -248 -267c-51 0 -105 14 -155 41l17 48
c51 -30 101 -40 139 -40c91 0 172 38 195 222l6 52h-2c-45 -75 -114 -125 -189 -125c-98 0 -146 57 -129 197l36 293h52l-35 -290c-15 -119 25 -151 88 -151c85 0 183 105 198 233h1z" />
    <glyph glyph-name="uni0233" unicode="&#x233;" horiz-adv-x="528" 
d="M438 654l-6 -46h-252l7 46h251zM429 485h52l-51 -421c-27 -218 -135 -267 -248 -267c-51 0 -105 14 -155 41l17 48c51 -30 101 -40 139 -40c91 0 172 38 195 222l6 52h-2c-45 -75 -114 -125 -189 -125c-98 0 -146 57 -129 197l36 293h52l-35 -290
c-15 -119 25 -151 88 -151c85 0 183 105 198 233h1z" />
    <glyph glyph-name="uni1EF9" unicode="&#x1ef9;" horiz-adv-x="528" 
d="M250 636c-26 0 -48 -22 -64 -59l-35 17c23 55 54 87 95 87c32 0 50 -17 68 -32s36 -32 57 -32c22 0 46 20 62 60l35 -15c-23 -60 -58 -90 -93 -90c-32 0 -55 23 -74 39c-18 14 -34 25 -51 25zM429 485h52l-51 -421c-27 -218 -135 -267 -248 -267c-51 0 -105 14 -155 41
l17 48c51 -30 101 -40 139 -40c91 0 172 38 195 222l6 52h-2c-45 -75 -114 -125 -189 -125c-98 0 -146 57 -129 197l36 293h52l-35 -290c-15 -119 25 -151 88 -151c85 0 183 105 198 233h1z" />
    <glyph glyph-name="z" unicode="z" horiz-adv-x="434" 
d="M411 446l-327 -399v-1c129 0 219 -2 286 -25l-14 -45c-79 24 -178 24 -348 24l5 42l325 395v2h-263l5 46h336z" />
    <glyph glyph-name="zacute" unicode="&#x17a;" horiz-adv-x="434" 
d="M388 698l-129 -139h-57l124 139h62zM411 446l-327 -399v-1c129 0 219 -2 286 -25l-14 -45c-79 24 -178 24 -348 24l5 42l325 395v2h-263l5 46h336z" />
    <glyph glyph-name="zcaron" unicode="&#x17e;" horiz-adv-x="434" 
d="M281 558h-51l-90 140h54l64 -104h3l89 104h57zM411 446l-327 -399v-1c129 0 219 -2 286 -25l-14 -45c-79 24 -178 24 -348 24l5 42l325 395v2h-263l5 46h336z" />
    <glyph glyph-name="zdotaccent" unicode="&#x17c;" horiz-adv-x="434" 
d="M264 594c-22 0 -38 17 -38 39c0 24 17 41 40 41c22 0 39 -17 39 -39c0 -23 -17 -41 -41 -41zM411 446l-327 -399v-1c129 0 219 -2 286 -25l-14 -45c-79 24 -178 24 -348 24l5 42l325 395v2h-263l5 46h336z" />
    <glyph glyph-name="f.calt" horiz-adv-x="303" 
d="M317 685c-12 4 -25 7 -41 7c-41 0 -74 -24 -84 -109l-12 -98h134l-5 -46h-135l-53 -439h-53l54 439h-56l5 46h57l13 109c12 103 59 147 130 147c22 0 42 -3 61 -10z" />
    <glyph glyph-name="germandbls.calt" horiz-adv-x="708" 
d="M499 387c90 -52 182 -95 182 -192c0 -125 -95 -200 -214 -200c-72 0 -152 32 -204 92l32 50c43 -63 110 -89 171 -89c89 0 158 56 158 143c0 70 -71 102 -149 148c-30 17 -44 25 -79 47l167 258c-61 12 -129 18 -184 18c-127 0 -190 -47 -204 -162l-61 -500h-55l60 504
c18 146 107 211 260 211c73 0 178 -14 268 -37l-176 -275z" />
    <glyph glyph-name="ordfeminine" unicode="&#xaa;" horiz-adv-x="373" 
d="M326 687h42l-36 -291h-41l7 60h-2c-29 -38 -69 -62 -114 -62c-58 0 -102 42 -102 117c0 97 61 179 154 179c36 0 68 -13 87 -32h2zM189 434c53 0 107 51 121 124l7 59c-12 21 -46 33 -79 33c-67 0 -115 -59 -115 -137c0 -49 23 -79 66 -79z" />
    <glyph glyph-name="ordmasculine" unicode="&#xba;" horiz-adv-x="357" 
d="M233 690c68 0 117 -40 117 -119c0 -94 -57 -177 -152 -177c-71 0 -118 44 -118 122c0 91 59 174 153 174zM231 650c-61 0 -107 -58 -107 -130c0 -53 29 -86 77 -86c60 0 107 57 107 134c0 56 -32 82 -77 82z" />
    <glyph glyph-name="Alpha" unicode="&#x391;" horiz-adv-x="613" 
d="M494 0l-41 191h-305l-87 -191h-59l331 710h60l159 -710h-58zM172 242h270l-86 398h-2z" />
    <glyph glyph-name="Beta" unicode="&#x392;" horiz-adv-x="594" 
d="M417 372c64 -16 112 -59 112 -143c0 -137 -103 -229 -248 -229h-214l87 710h211c100 0 173 -38 173 -140c0 -80 -41 -163 -120 -195zM204 659l-33 -265h150c93 0 159 74 159 168c0 63 -38 97 -128 97h-148zM272 52c112 0 199 69 199 175c0 78 -48 115 -151 115h-154
l-37 -290h143z" />
    <glyph glyph-name="Gamma" unicode="&#x393;" horiz-adv-x="519" 
d="M542 659h-339l-81 -659h-56l88 710h394z" />
    <glyph glyph-name="uni0394" unicode="&#x394;" horiz-adv-x="593" 
d="M383 710l149 -665l-6 -45h-43h-468h-8l5 45l311 665h60zM74 52h398l-125 589h-3z" />
    <glyph glyph-name="Epsilon" unicode="&#x395;" horiz-adv-x="552" 
d="M477 52l-6 -52h-404l87 710h384l-6 -51h-328l-35 -279h273l-6 -51h-273l-34 -277h348z" />
    <glyph glyph-name="Zeta" unicode="&#x396;" horiz-adv-x="569" 
d="M549 664l-440 -610l-1 -2h369l-6 -52h-438l6 46l438 611l1 2h-344l6 51h414z" />
    <glyph glyph-name="Eta" unicode="&#x397;" horiz-adv-x="675" 
d="M635 710l-87 -710h-55l38 310h-370l-38 -310h-56l87 710h56l-43 -348h370l43 348h55z" />
    <glyph glyph-name="Theta" unicode="&#x398;" horiz-adv-x="766" 
d="M441 715c167 0 280 -106 280 -296c0 -227 -140 -424 -364 -424c-168 0 -279 109 -279 297c0 222 145 423 363 423zM360 48c184 0 303 174 303 370c0 160 -87 244 -226 244c-181 0 -301 -178 -301 -370c0 -157 87 -244 224 -244zM223 326l6 52h337l-6 -52h-337z" />
    <glyph glyph-name="Iota" unicode="&#x399;" horiz-adv-x="262" 
d="M129 0h-56l87 710h56z" />
    <glyph glyph-name="Kappa" unicode="&#x39a;" horiz-adv-x="599" 
d="M609 710l-293 -330l211 -380h-68l-184 332h-2l-128 -143l-22 -189h-56l87 710h56l-53 -428h2l379 428h71z" />
    <glyph glyph-name="Lambda" unicode="&#x39b;" horiz-adv-x="612" 
d="M490 0l-135 639h-2l-290 -639h-59l328 710h60l156 -710h-58z" />
    <glyph glyph-name="Mu" unicode="&#x39c;" horiz-adv-x="814" 
d="M716 710h59l-87 -710h-55l72 595h-2l-286 -446h-41l-179 448h-1l-73 -597h-56l87 710h58l192 -489h2z" />
    <glyph glyph-name="Nu" unicode="&#x39d;" horiz-adv-x="704" 
d="M607 710h56l-86 -710h-59l-318 609h-2l-75 -609h-56l87 710h57l320 -613h1z" />
    <glyph glyph-name="Xi" unicode="&#x39e;" horiz-adv-x="579" 
d="M554 657h-427l6 53h428zM474 326h-350l6 52h350zM480 0h-440l6 53h440z" />
    <glyph glyph-name="Omicron" unicode="&#x39f;" horiz-adv-x="766" 
d="M438 715c167 0 280 -106 280 -296c0 -227 -140 -424 -364 -424c-168 0 -279 109 -279 297c0 222 145 423 363 423zM357 48c184 0 303 174 303 370c0 160 -87 244 -226 244c-181 0 -301 -178 -301 -370c0 -157 87 -244 224 -244z" />
    <glyph glyph-name="Pi" unicode="&#x3a0;" horiz-adv-x="653" 
d="M154 710h459l-87 -710h-55l80 659h-348l-81 -659h-56z" />
    <glyph glyph-name="Rho" unicode="&#x3a1;" horiz-adv-x="569" 
d="M374 710c124 0 181 -66 181 -174c0 -149 -91 -248 -251 -248h-146l-35 -288h-56l87 710h220zM311 339c117 0 187 78 187 197c0 86 -58 123 -134 123h-160l-39 -320h146z" />
    <glyph glyph-name="Sigma" unicode="&#x3a3;" horiz-adv-x="534" 
d="M535 659h-350l-1 -5l143 -297l-216 -303v-2h349l-6 -52h-423l5 42l224 315l-147 310l5 43h423z" />
    <glyph glyph-name="Tau" unicode="&#x3a4;" horiz-adv-x="520" 
d="M539 659h-201l-81 -659h-55l80 659h-199l6 51h456z" />
    <glyph glyph-name="Upsilon" unicode="&#x3a5;" horiz-adv-x="538" 
d="M510 710h66l-269 -390l-40 -320h-56l40 320l-172 390h61l142 -334h2z" />
    <glyph glyph-name="Phi" unicode="&#x3a6;" horiz-adv-x="761" 
d="M719 411c3 -186 -121 -344 -335 -354l-7 -57h-55l7 58c-155 12 -257 103 -259 258c-3 179 125 343 334 353l7 51h55l-6 -51c153 -12 257 -102 259 -258zM127 318c2 -125 79 -201 210 -210l63 510c-165 -11 -275 -142 -273 -300zM390 108c168 11 275 138 272 301
c-2 126 -81 199 -210 209z" />
    <glyph glyph-name="Chi" unicode="&#x3a7;" horiz-adv-x="595" 
d="M613 710l-264 -357l178 -353h-65l-154 308h-3l-230 -308h-67l266 355l-177 355h63l155 -311h1l228 311h69z" />
    <glyph glyph-name="Psi" unicode="&#x3a8;" horiz-adv-x="731" 
d="M653 710h55l-32 -254c-23 -185 -108 -281 -292 -281l-22 -175h-55l21 175c-174 1 -245 96 -222 283l31 252h56l-31 -250c-19 -150 21 -232 173 -233l59 483h56l-60 -483c140 1 211 69 232 235z" />
    <glyph glyph-name="uni03A9" unicode="&#x3a9;" horiz-adv-x="725" 
d="M475 53l-1 -1h154l-6 -52h-236l6 52c141 77 231 205 231 369c0 133 -83 241 -204 241c-171 0 -281 -157 -281 -327c0 -121 56 -224 148 -283l-7 -52h-235l6 52h160v1c-81 65 -130 169 -130 284c0 206 139 378 341 378c154 0 260 -130 260 -289c0 -158 -82 -293 -206 -373
z" />
    <glyph glyph-name="Alphatonos" unicode="&#x386;" horiz-adv-x="612" 
d="M493 0l-41 191h-305l-87 -191h-59l331 710h60l159 -710h-58zM201 703l-97 -159h-52l87 159h62zM171 242h270l-86 398h-2z" />
    <glyph glyph-name="Epsilontonos" unicode="&#x388;" horiz-adv-x="554" 
d="M479 52l-6 -52h-404l87 710h384l-6 -51h-328l-35 -279h273l-6 -51h-273l-34 -277h348zM22 704h62l-97 -159h-52z" />
    <glyph glyph-name="Etatonos" unicode="&#x389;" horiz-adv-x="676" 
d="M636 710l-87 -710h-55l38 310h-370l-38 -310h-56l87 710h56l-43 -348h370l43 348h55zM21 704h62l-97 -159h-52z" />
    <glyph glyph-name="Iotatonos" unicode="&#x38a;" horiz-adv-x="260" 
d="M128 0h-56l87 710h56zM20 704h62l-97 -159h-52z" />
    <glyph glyph-name="Omicrontonos" unicode="&#x38c;" horiz-adv-x="767" 
d="M439 715c167 0 280 -106 280 -296c0 -227 -140 -424 -364 -424c-168 0 -279 109 -279 297c0 222 145 423 363 423zM78 704h62l-97 -159h-52zM358 48c184 0 303 174 303 370c0 160 -87 244 -226 244c-181 0 -301 -178 -301 -370c0 -157 87 -244 224 -244z" />
    <glyph glyph-name="Upsilontonos" unicode="&#x38e;" horiz-adv-x="541" 
d="M512 710h66l-269 -390l-40 -320h-56l40 320l-172 390h61l142 -334h2zM-109 545l87 159h62l-97 -159h-52z" />
    <glyph glyph-name="Omegatonos" unicode="&#x38f;" horiz-adv-x="727" 
d="M476 53l-1 -1h154l-6 -52h-236l6 52c141 77 231 205 231 369c0 133 -83 241 -204 241c-171 0 -281 -157 -281 -327c0 -121 56 -224 148 -283l-7 -52h-235l6 52h160v1c-81 65 -130 169 -130 284c0 206 139 378 341 378c154 0 260 -130 260 -289c0 -158 -82 -293 -206 -373
zM71 704h62l-97 -159h-52z" />
    <glyph glyph-name="Iotadieresis" unicode="&#x3aa;" horiz-adv-x="262" 
d="M101 911c22 0 39 -17 39 -39c0 -23 -17 -41 -41 -41c-22 0 -38 17 -38 39c0 24 17 41 40 41zM309 911c23 0 39 -17 39 -39c0 -23 -17 -41 -40 -41c-22 0 -39 17 -39 39c0 24 17 41 40 41zM129 0h-56l87 710h56z" />
    <glyph glyph-name="Upsilondieresis" unicode="&#x3ab;" horiz-adv-x="538" 
d="M235 831c-22 0 -38 17 -38 39c0 24 17 41 40 41c22 0 39 -17 39 -39c0 -23 -17 -41 -41 -41zM444 831c-22 0 -39 17 -39 39c0 24 17 41 40 41s39 -17 39 -39c0 -23 -17 -41 -40 -41zM510 710h66l-269 -390l-40 -320h-56l40 320l-172 390h61l142 -334h2z" />
    <glyph glyph-name="alpha" unicode="&#x3b1;" horiz-adv-x="573" 
d="M483 43c17 0 28 4 41 9l11 -41c-20 -11 -40 -16 -66 -16c-56 0 -81 42 -80 134v8h-2c-45 -83 -113 -142 -194 -142c-83 0 -149 72 -149 194c0 148 89 301 227 301c92 0 138 -70 152 -168h2l66 170l48 -19l-103 -245v-84c0 -67 9 -101 47 -101zM200 44
c84 0 146 84 187 192c0 122 -38 204 -114 204c-111 0 -176 -134 -176 -246c0 -90 39 -150 103 -150z" />
    <glyph glyph-name="beta" unicode="&#x3b2;" horiz-adv-x="525" 
d="M515 595c0 -77 -46 -151 -130 -210v-1c52 -33 87 -92 87 -160c0 -130 -88 -228 -212 -228c-111 0 -200 79 -199 255c2 265 124 489 301 489c101 0 154 -63 153 -145zM359 691c-137 0 -224 -184 -242 -370c210 51 345 160 345 271c0 61 -37 99 -103 99zM420 224
c0 57 -31 109 -80 132c-61 -35 -138 -64 -226 -82v-24c0 -126 58 -206 148 -206c92 0 158 80 158 180z" />
    <glyph glyph-name="gamma" unicode="&#x3b3;" horiz-adv-x="488" 
d="M470 485c-43 -206 -147 -365 -252 -503c1 -56 -4 -116 -10 -180h-56c15 126 15 229 0 351c-26 213 -51 291 -93 291c-7 0 -13 -2 -20 -4l-2 43c12 4 24 7 35 7c66 0 99 -83 122 -257c7 -52 14 -115 18 -174h3c79 110 161 248 200 426h55z" />
    <glyph glyph-name="delta" unicode="&#x3b4;" horiz-adv-x="531" 
d="M351 476c90 -48 132 -102 132 -198c0 -156 -97 -283 -243 -283c-124 0 -194 86 -194 200c0 126 72 231 184 284l1 2c-59 35 -77 77 -77 122c0 80 71 137 179 138c46 1 116 -10 173 -58l-27 -43c-53 41 -100 52 -148 52c-72 -1 -123 -35 -123 -88c0 -33 16 -62 71 -92
c25 -12 48 -24 72 -36zM241 44c112 0 190 102 190 228c0 75 -32 124 -107 161l-43 21c-107 -45 -183 -142 -182 -256c1 -95 59 -154 142 -154z" />
    <glyph glyph-name="epsilon" unicode="&#x3b5;" horiz-adv-x="447" 
d="M261 441c-75 0 -136 -37 -136 -100c0 -33 25 -68 91 -68h86l-5 -47h-93c-68 0 -116 -49 -116 -105c0 -50 39 -77 110 -77c69 0 120 17 179 60l19 -43c-66 -46 -127 -66 -205 -66c-99 0 -155 44 -155 115c0 64 34 118 92 142v2c-38 21 -56 52 -56 89c0 90 83 147 183 147
c44 0 111 -8 170 -56l-22 -40c-54 40 -109 47 -142 47z" />
    <glyph glyph-name="zeta" unicode="&#x3b6;" horiz-adv-x="409" 
d="M467 694c-204 -155 -368 -352 -368 -497c0 -85 59 -107 151 -144c80 -33 110 -56 110 -104c0 -49 -34 -103 -78 -156l-43 28c38 45 68 82 68 122c0 33 -25 43 -86 68c-94 38 -175 71 -175 184c0 172 183 359 343 493l1 2h-265l5 46h341z" />
    <glyph glyph-name="eta" unicode="&#x3b7;" horiz-adv-x="550" 
d="M358 490c97 0 142 -60 123 -198l-64 -490h-52l64 487c15 116 -21 152 -81 152c-77 0 -180 -103 -200 -229l-26 -212h-52l43 353c9 73 0 91 -24 91c-7 0 -14 -1 -22 -4l-2 43c14 5 25 7 38 7c50 0 71 -35 63 -121h1c51 77 123 121 191 121z" />
    <glyph glyph-name="theta" unicode="&#x3b8;" horiz-adv-x="544" 
d="M329 741c108 0 182 -66 182 -263c0 -236 -80 -483 -268 -483c-100 0 -180 69 -180 262c0 230 86 484 266 484zM328 692c-98 0 -173 -126 -201 -291h328c2 25 3 50 3 76c0 145 -41 215 -130 215zM244 44c108 0 182 134 206 310h-329c-3 -31 -5 -62 -5 -94
c0 -140 47 -216 128 -216z" />
    <glyph glyph-name="iota" unicode="&#x3b9;" horiz-adv-x="267" 
d="M229 12c-21 -10 -46 -17 -72 -17c-82 0 -93 57 -84 132l44 358h52l-43 -346c-7 -62 -2 -95 48 -95c17 0 32 5 46 11z" />
    <glyph glyph-name="kappa" unicode="&#x3ba;" horiz-adv-x="526" 
d="M432 44c14 0 29 4 43 9l9 -42c-18 -9 -35 -16 -66 -16c-63 0 -91 49 -105 126c-9 45 -14 97 -18 154h-1c-67 -69 -130 -138 -183 -204l-9 -71h-50l59 485h53l-37 -301c-1 -6 -2 -14 -4 -24h2c92 115 212 237 331 341l40 -36c-54 -47 -108 -96 -159 -146
c6 -65 12 -128 23 -177c14 -59 35 -98 72 -98z" />
    <glyph glyph-name="lambda" unicode="&#x3bb;" horiz-adv-x="480" 
d="M364 0c-18 123 -43 270 -72 412h-2l-226 -412h-60l270 485l-25 113c-14 60 -41 95 -81 95c-16 0 -29 -2 -46 -7l-3 45c12 5 33 10 60 10c71 0 103 -53 124 -139c53 -213 90 -426 117 -602h-56z" />
    <glyph glyph-name="uni03BC" unicode="&#x3bc;" 
d="M499 48l10 -40c-16 -8 -34 -13 -58 -13c-60 0 -77 40 -76 92h-2c-37 -57 -92 -92 -164 -92c-51 0 -85 25 -102 71h-1c-1 -35 -3 -72 -7 -107l-20 -157h-52l84 683h52l-38 -308c-6 -100 40 -133 89 -133c79 0 165 69 180 209l29 232h52l-45 -358c-6 -51 -6 -84 40 -84
c9 0 18 2 29 5z" />
    <glyph glyph-name="nu" unicode="&#x3bd;" horiz-adv-x="488" 
d="M415 485h55c-43 -198 -134 -368 -250 -485h-60l-100 485h55l85 -435h2c117 131 178 274 213 435z" />
    <glyph glyph-name="xi" unicode="&#x3be;" horiz-adv-x="429" 
d="M465 690c-194 -32 -281 -96 -281 -183c0 -56 42 -94 134 -94h68l-4 -47h-80c-111 0 -204 -56 -204 -158c0 -70 41 -104 127 -142c99 -43 142 -61 142 -121c0 -47 -34 -97 -80 -152l-43 28c45 52 69 89 69 119c0 34 -24 45 -113 82c-97 42 -155 86 -155 181
s63 163 148 192l1 4c-39 20 -63 55 -63 103c0 97 82 155 170 187v1h-166l6 46h330z" />
    <glyph glyph-name="omicron" unicode="&#x3bf;" horiz-adv-x="536" 
d="M298 490c113 0 192 -73 192 -198c0 -164 -91 -297 -251 -297c-111 0 -193 73 -193 202c0 155 94 293 252 293zM295 441c-113 0 -196 -108 -196 -239c0 -98 61 -158 142 -158c117 0 197 102 197 245c0 101 -63 152 -143 152z" />
    <glyph glyph-name="pi" unicode="&#x3c0;" horiz-adv-x="560" 
d="M457 439l-39 -310c-6 -53 -5 -86 40 -86c9 0 19 2 31 6l10 -41c-18 -8 -34 -13 -57 -13c-68 0 -86 49 -77 124l40 320h-220l-54 -439h-52l54 439h-86l6 41c29 4 60 5 93 5h419l-7 -46h-101z" />
    <glyph glyph-name="rho" unicode="&#x3c1;" horiz-adv-x="538" 
d="M304 490c114 0 189 -75 189 -195c0 -171 -106 -300 -243 -300c-66 0 -121 32 -149 75h-1l-33 -268h-52l54 445c21 171 121 243 235 243zM246 44c110 0 194 109 194 247c0 89 -54 150 -138 150c-90 0 -165 -65 -181 -196l-12 -95c23 -81 89 -106 137 -106z" />
    <glyph glyph-name="uni03C2" unicode="&#x3c2;" horiz-adv-x="455" 
d="M99 206c0 -95 59 -116 148 -153c80 -34 110 -59 110 -108c0 -46 -35 -95 -78 -152l-43 28c33 39 68 82 68 119c0 32 -28 47 -89 72c-87 35 -169 69 -169 193c-1 151 98 285 243 285c55 0 121 -25 157 -79l-42 -31c-28 43 -77 61 -114 61c-113 0 -191 -108 -191 -235z" />
    <glyph glyph-name="sigma" unicode="&#x3c3;" horiz-adv-x="540" 
d="M533 439h-119v-1c38 -32 65 -86 65 -156c0 -151 -95 -286 -249 -286c-109 0 -184 73 -184 202c0 154 92 287 245 287h248zM426 285c0 82 -37 134 -95 154h-40c-113 0 -192 -103 -192 -239c0 -95 51 -156 133 -156c111 0 194 102 194 241z" />
    <glyph glyph-name="tau" unicode="&#x3c4;" horiz-adv-x="422" 
d="M138 135l37 304h-137l5 46h374l-5 -46h-184l-37 -302c-7 -56 1 -93 48 -93c29 0 58 11 87 31l9 -46c-33 -22 -72 -34 -110 -34c-76 0 -97 54 -87 140z" />
    <glyph glyph-name="upsilon" unicode="&#x3c5;" horiz-adv-x="519" 
d="M216 -5c-92 0 -152 63 -145 169s35 181 37 242c1 34 -15 37 -29 37c-6 0 -15 -1 -21 -3l-2 42c13 5 26 8 41 8c33 0 66 -13 65 -74c-2 -68 -31 -145 -38 -246c-6 -75 31 -126 96 -126c122 0 198 150 199 328c1 36 -2 72 -7 111l49 10c8 -42 12 -87 12 -123
c-2 -193 -86 -375 -257 -375z" />
    <glyph glyph-name="phi" unicode="&#x3c6;" horiz-adv-x="630" 
d="M439 489c76 0 149 -61 148 -190c-2 -193 -131 -299 -279 -304l-23 -193h-53l24 194c-114 2 -209 73 -209 214c0 123 56 217 129 287l41 -18c-78 -81 -117 -167 -117 -264c0 -109 67 -170 162 -171l35 285c16 129 81 161 142 160zM315 44c121 6 219 102 219 257
c0 85 -37 140 -98 140c-34 -1 -76 -19 -88 -115z" />
    <glyph glyph-name="chi" unicode="&#x3c7;" horiz-adv-x="480" 
d="M394 -156c5 0 12 1 19 3l2 -42c-12 -5 -23 -8 -34 -8c-49 0 -74 21 -103 117l-56 188h-2l-191 -300h-59l233 360l-65 206c-21 70 -43 75 -64 75c-6 0 -12 -1 -19 -3l-2 43c12 4 23 7 33 7c50 0 76 -20 104 -117l46 -159h1l174 271h60l-217 -329l76 -237
c22 -69 43 -75 64 -75z" />
    <glyph glyph-name="psi" unicode="&#x3c8;" horiz-adv-x="633" 
d="M586 367c-1 -186 -76 -369 -272 -372l-24 -193h-52l24 193c-100 0 -195 46 -195 176c0 101 33 167 33 250c0 17 -2 49 -11 64h56c5 -12 8 -47 8 -65c0 -85 -33 -152 -33 -243c0 -102 73 -132 148 -133l72 592l53 3l-73 -595c146 3 212 151 213 327c1 37 -2 73 -8 112
l49 11c8 -41 12 -87 12 -127z" />
    <glyph glyph-name="omega" unicode="&#x3c9;" horiz-adv-x="689" 
d="M579 495c31 -50 63 -121 63 -217c0 -147 -74 -283 -197 -283c-68 0 -107 38 -119 109h-2c-31 -70 -79 -109 -144 -109c-83 0 -136 66 -136 183c0 114 47 236 130 319l44 -18c-79 -83 -121 -203 -121 -298c0 -90 35 -137 90 -137c68 0 115 77 131 202v2c1 2 1 3 1 5
l14 111h51l-17 -134h1c-13 -108 5 -186 77 -186c94 0 144 119 144 238c0 86 -31 158 -55 198z" />
    <glyph glyph-name="iotatonos" unicode="&#x3af;" horiz-adv-x="267" 
d="M208 718h63l-89 -159h-54zM229 12c-21 -10 -46 -17 -72 -17c-82 0 -93 57 -84 132l44 358h52l-43 -346c-7 -62 -2 -95 48 -95c17 0 32 5 46 11z" />
    <glyph glyph-name="iotadieresis" unicode="&#x3ca;" horiz-adv-x="267" 
d="M58 674c22 0 39 -17 39 -39c0 -23 -17 -41 -41 -41c-22 0 -38 17 -38 39c0 24 17 41 40 41zM266 674c23 0 39 -17 39 -39c0 -23 -17 -41 -40 -41c-22 0 -39 17 -39 39c0 24 17 41 40 41zM229 12c-21 -10 -46 -17 -72 -17c-82 0 -93 57 -84 132l44 358h52l-43 -346
c-7 -62 -2 -95 48 -95c17 0 32 5 46 11z" />
    <glyph glyph-name="iotadieresistonos" unicode="&#x390;" horiz-adv-x="267" 
d="M206 718h53l-83 -159h-45zM45 674c23 0 39 -17 39 -39c0 -23 -17 -41 -40 -41c-22 0 -39 17 -39 39c0 24 17 41 40 41zM302 674c23 0 40 -17 40 -39c0 -23 -18 -41 -41 -41c-22 0 -39 17 -39 39c0 24 18 41 40 41zM229 12c-21 -10 -46 -17 -72 -17c-82 0 -93 57 -84 132
l44 358h52l-43 -346c-7 -62 -2 -95 48 -95c17 0 32 5 46 11z" />
    <glyph glyph-name="upsilontonos" unicode="&#x3cd;" horiz-adv-x="519" 
d="M353 719h63l-89 -159h-54zM216 -5c-92 0 -152 63 -145 169s35 181 37 242c1 34 -15 37 -29 37c-6 0 -15 -1 -21 -3l-2 42c13 5 26 8 41 8c33 0 66 -13 65 -74c-2 -68 -31 -145 -38 -246c-6 -75 31 -126 96 -126c122 0 198 150 199 328c1 36 -2 72 -7 111l49 10
c8 -42 12 -87 12 -123c-2 -193 -86 -375 -257 -375z" />
    <glyph glyph-name="upsilondieresis" unicode="&#x3cb;" horiz-adv-x="519" 
d="M203 675c22 0 39 -17 39 -39c0 -23 -17 -41 -41 -41c-22 0 -38 17 -38 39c0 24 17 41 40 41zM411 675c23 0 39 -17 39 -39c0 -23 -17 -41 -40 -41c-22 0 -39 17 -39 39c0 24 17 41 40 41zM216 -5c-92 0 -152 63 -145 169s35 181 37 242c1 34 -15 37 -29 37
c-6 0 -15 -1 -21 -3l-2 42c13 5 26 8 41 8c33 0 66 -13 65 -74c-2 -68 -31 -145 -38 -246c-6 -75 31 -126 96 -126c122 0 198 150 199 328c1 36 -2 72 -7 111l49 10c8 -42 12 -87 12 -123c-2 -193 -86 -375 -257 -375z" />
    <glyph glyph-name="upsilondieresistonos" unicode="&#x3b0;" horiz-adv-x="519" 
d="M351 719h53l-83 -159h-45zM190 675c23 0 39 -17 39 -39c0 -23 -17 -41 -40 -41c-22 0 -39 17 -39 39c0 24 17 41 40 41zM447 675c23 0 40 -17 40 -39c0 -23 -18 -41 -41 -41c-22 0 -39 17 -39 39c0 24 18 41 40 41zM216 -5c-92 0 -152 63 -145 169s35 181 37 242
c1 34 -15 37 -29 37c-6 0 -15 -1 -21 -3l-2 42c13 5 26 8 41 8c33 0 66 -13 65 -74c-2 -68 -31 -145 -38 -246c-6 -75 31 -126 96 -126c122 0 198 150 199 328c1 36 -2 72 -7 111l49 10c8 -42 12 -87 12 -123c-2 -193 -86 -375 -257 -375z" />
    <glyph glyph-name="omicrontonos" unicode="&#x3cc;" horiz-adv-x="536" 
d="M358 718h63l-89 -159h-54zM298 490c113 0 192 -73 192 -198c0 -164 -91 -297 -251 -297c-111 0 -193 73 -193 202c0 155 94 293 252 293zM295 441c-113 0 -196 -108 -196 -239c0 -98 61 -158 142 -158c117 0 197 102 197 245c0 101 -63 152 -143 152z" />
    <glyph glyph-name="omegatonos" unicode="&#x3ce;" horiz-adv-x="689" 
d="M502 719l-89 -159h-54l80 159h63zM579 495c31 -50 63 -121 63 -217c0 -147 -74 -283 -197 -283c-68 0 -107 38 -119 109h-2c-31 -70 -79 -109 -144 -109c-83 0 -136 66 -136 183c0 114 47 236 130 319l44 -18c-79 -83 -121 -203 -121 -298c0 -90 35 -137 90 -137
c68 0 115 77 131 202v2c1 2 1 3 1 5l14 111h51l-17 -134h1c-13 -108 5 -186 77 -186c94 0 144 119 144 238c0 86 -31 158 -55 198z" />
    <glyph glyph-name="alphatonos" unicode="&#x3ac;" horiz-adv-x="573" 
d="M431 719l-89 -159h-54l80 159h63zM483 43c17 0 28 4 41 9l11 -41c-20 -11 -40 -16 -66 -16c-56 0 -81 42 -80 134v8h-2c-45 -83 -113 -142 -194 -142c-83 0 -149 72 -149 194c0 148 89 301 227 301c92 0 138 -70 152 -168h2l66 170l48 -19l-103 -245v-84
c0 -67 9 -101 47 -101zM200 44c84 0 146 84 187 192c0 122 -38 204 -114 204c-111 0 -176 -134 -176 -246c0 -90 39 -150 103 -150z" />
    <glyph glyph-name="epsilontonos" unicode="&#x3ad;" horiz-adv-x="447" 
d="M384 719l-89 -159h-54l80 159h63zM261 441c-75 0 -136 -37 -136 -100c0 -33 25 -68 91 -68h86l-5 -47h-93c-68 0 -116 -49 -116 -105c0 -50 39 -77 110 -77c69 0 120 17 179 60l19 -43c-66 -46 -127 -66 -205 -66c-99 0 -155 44 -155 115c0 64 34 118 92 142v2
c-38 21 -56 52 -56 89c0 90 83 147 183 147c44 0 111 -8 170 -56l-22 -40c-54 40 -109 47 -142 47z" />
    <glyph glyph-name="etatonos" unicode="&#x3ae;" horiz-adv-x="550" 
d="M429 719l-89 -159h-54l80 159h63zM358 490c97 0 142 -60 123 -198l-64 -490h-52l64 487c15 116 -21 152 -81 152c-77 0 -180 -103 -200 -229l-26 -212h-52l43 353c9 73 0 91 -24 91c-7 0 -14 -1 -22 -4l-2 43c14 5 25 7 38 7c50 0 71 -35 63 -121h1
c51 77 123 121 191 121z" />
    <glyph glyph-name="uni03D7" unicode="&#x3d7;" horiz-adv-x="579" 
d="M452 38c16 -3 31 -3 49 -4l-3 -28c-131 -152 -234 -222 -371 -222c-71 0 -137 23 -183 65l27 35c44 -35 93 -54 152 -54c105 0 197 50 301 165v1c-66 5 -101 42 -118 125l-29 132h-1c-59 -64 -113 -127 -163 -186l-8 -67h-50l59 485h52l-36 -301l-5 -35h1
c89 109 205 235 324 349l36 -33c-60 -56 -117 -113 -170 -170l38 -157c23 -90 64 -95 98 -100z" />
    <glyph glyph-name="zero" unicode="0" horiz-adv-x="580" 
d="M348 692c112 0 188 -84 188 -261c0 -215 -89 -436 -278 -436c-108 0 -189 84 -189 260c0 213 92 437 279 437zM345 640c-153 0 -221 -208 -221 -386c0 -143 60 -207 136 -207c156 0 221 205 221 385c0 144 -55 208 -136 208z" />
    <glyph glyph-name="one" unicode="1" horiz-adv-x="342" 
d="M249 687h46l-85 -687h-54l76 613l-142 -108l-26 43z" />
    <glyph glyph-name="two" unicode="2" horiz-adv-x="473" 
d="M99 54v-3h301l-7 -51h-383l5 41l238 235c74 73 139 151 139 248c0 61 -34 116 -106 116c-63 0 -132 -41 -164 -111l-41 30c38 78 119 132 211 132c89 0 155 -67 155 -162c0 -112 -67 -200 -150 -281z" />
    <glyph glyph-name="three" unicode="3" horiz-adv-x="486" 
d="M336 358c58 -24 91 -74 91 -144c0 -131 -94 -219 -224 -219c-104 0 -169 57 -188 134l51 20c15 -62 59 -102 136 -102c102 0 170 71 170 173c0 67 -40 113 -129 113h-60l6 49h59c92 0 149 71 149 155c0 67 -45 103 -112 103c-70 0 -118 -35 -152 -81l-45 27
c43 60 111 106 200 106c94 0 164 -50 164 -148c0 -89 -45 -155 -116 -185v-1z" />
    <glyph glyph-name="four" unicode="4" horiz-adv-x="512" 
d="M376 176h94l-6 -50h-94l-16 -126h-54l15 126h-299l5 42l371 519h46zM322 175l49 399l-283 -399h234z" />
    <glyph glyph-name="five" unicode="5" horiz-adv-x="509" 
d="M481 636h-272l-38 -227c38 16 84 23 112 23c108 0 175 -63 175 -179c0 -150 -102 -258 -244 -258c-89 0 -157 48 -185 123l46 27c22 -61 71 -99 139 -99c112 0 189 88 189 203c0 88 -49 133 -134 133c-41 0 -95 -13 -126 -40l-35 10l59 335h320z" />
    <glyph glyph-name="six" unicode="6" horiz-adv-x="539" 
d="M325 428c93 0 161 -68 161 -175c0 -146 -103 -257 -240 -257c-113 0 -187 80 -187 208c0 220 150 456 368 505l8 -48c-150 -40 -258 -166 -301 -310h1c49 48 118 77 190 77zM247 47c99 0 184 87 184 204c0 77 -46 126 -125 126c-83 0 -156 -51 -191 -120
c-1 -15 -2 -31 -2 -46c0 -99 50 -164 134 -164z" />
    <glyph glyph-name="seven" unicode="7" horiz-adv-x="454" 
d="M87 687h382l-5 -42l-337 -655l-54 13l327 633h-319z" />
    <glyph glyph-name="eight" unicode="8" horiz-adv-x="533" 
d="M372 372c63 -19 104 -73 104 -149c0 -137 -104 -227 -247 -227c-117 0 -187 64 -187 163c0 95 56 180 149 211v1c-38 15 -77 54 -77 121c0 117 89 199 210 199c95 0 161 -55 161 -143c0 -78 -46 -150 -113 -175v-1zM315 642c-85 0 -148 -62 -148 -145
c0 -66 47 -101 118 -101c80 0 147 58 147 142c0 67 -44 104 -117 104zM238 46c103 0 182 75 182 173c0 84 -56 125 -139 125c-109 0 -183 -78 -183 -172c0 -80 56 -126 140 -126z" />
    <glyph glyph-name="nine" unicode="9" horiz-adv-x="539" 
d="M324 692c109 0 181 -70 181 -220c0 -224 -159 -455 -375 -496l-7 48c155 35 271 169 312 320l-2 1c-49 -53 -121 -88 -195 -88c-102 0 -161 67 -161 168c0 148 104 267 247 267zM250 308c74 0 151 44 200 128c1 14 1 27 1 41c-4 117 -54 163 -132 163
c-108 0 -188 -90 -188 -208c0 -72 38 -124 119 -124z" />
    <glyph glyph-name="fraction" unicode="&#x2044;" horiz-adv-x="198" 
d="M323 701l-365 -713l-43 19l365 714z" />
    <glyph glyph-name="onehalf" unicode="&#xbd;" horiz-adv-x="716" 
d="M501 721l43 -20l-365 -713l-43 19zM178 299h-46l43 351l-85 -60l-20 36l122 84h36zM479 45v-2h178l-5 -43h-249l3 33l154 143c42 39 76 77 76 128c0 41 -22 68 -64 68c-31 0 -72 -20 -95 -60l-33 27c27 45 79 77 133 77c61 0 106 -40 106 -106c0 -64 -34 -110 -86 -157z
" />
    <glyph glyph-name="onequarter" unicode="&#xbc;" horiz-adv-x="683" 
d="M501 721l43 -20l-365 -713l-43 19zM178 299h-46l43 351l-85 -60l-20 36l122 84h36zM583 114h58l-5 -42h-58l-9 -72h-46l10 72h-181l4 33l227 306h37zM410 112h130l27 214z" />
    <glyph glyph-name="threequarters" unicode="&#xbe;" horiz-adv-x="747" 
d="M565 721l43 -20l-365 -713l-43 19zM309 425c0 -81 -62 -130 -141 -130c-68 0 -113 35 -127 82l44 16c10 -36 37 -56 82 -56c57 0 94 38 94 91c0 37 -27 65 -77 65h-35l5 38h39c49 0 85 36 85 83c0 38 -26 58 -67 58c-40 0 -67 -17 -86 -45l-37 24c25 38 68 64 124 64
c63 0 111 -34 111 -94c0 -51 -27 -90 -70 -108v-1c37 -16 56 -46 56 -87zM647 114h58l-5 -42h-58l-9 -72h-46l10 72h-181l4 33l227 306h37zM474 112h130l27 214z" />
    <glyph glyph-name="uni2070" unicode="&#x2070;" horiz-adv-x="368" 
d="M258 853c80 0 130 -61 130 -167c0 -130 -63 -255 -178 -255c-80 0 -130 59 -130 166c0 129 63 256 178 256zM257 809c-88 0 -131 -111 -131 -213c0 -81 34 -121 86 -121c88 0 131 111 131 212c0 81 -35 122 -86 122z" />
    <glyph glyph-name="uni00B9" unicode="&#xb9;" horiz-adv-x="239" 
d="M208 847h36l-50 -411h-46l43 351l-85 -60l-20 36z" />
    <glyph glyph-name="uni00B2" unicode="&#xb2;" horiz-adv-x="314" 
d="M130 481v-2h178l-5 -43h-249l3 33l154 143c42 39 76 77 76 128c0 41 -22 68 -64 68c-31 0 -72 -20 -95 -60l-33 27c27 45 79 77 133 77c61 0 106 -40 106 -106c0 -64 -34 -110 -86 -157z" />
    <glyph glyph-name="uni00B3" unicode="&#xb3;" horiz-adv-x="316" 
d="M269 649c37 -16 56 -46 56 -87c0 -81 -62 -130 -141 -130c-68 0 -113 35 -127 82l44 16c10 -36 37 -56 82 -56c57 0 94 38 94 91c0 37 -27 65 -77 65h-35l5 38h39c49 0 85 36 85 83c0 38 -26 58 -67 58c-40 0 -67 -17 -86 -45l-37 24c25 38 68 64 124 64
c63 0 111 -34 111 -94c0 -51 -27 -90 -70 -108v-1z" />
    <glyph glyph-name="asterisk" unicode="*" horiz-adv-x="391" 
d="M334 461l-88 67l-13 -129h-38l19 129l-103 -68l-16 35l108 59l-94 61l23 34l89 -67l12 128h38l-19 -128l104 67l16 -34l-108 -60l94 -60z" />
    <glyph glyph-name="backslash" unicode="\" horiz-adv-x="361" 
d="M53 737l44 21l244 -852l-45 -20z" />
    <glyph glyph-name="periodcentered" unicode="&#xb7;" horiz-adv-x="208" 
d="M116 278c22 0 39 -17 39 -39c0 -24 -17 -41 -40 -41c-22 0 -39 17 -39 39c0 24 17 41 40 41z" />
    <glyph glyph-name="bullet" unicode="&#x2022;" horiz-adv-x="406" 
d="M214 409c53 0 92 -39 92 -92c0 -54 -41 -95 -96 -95c-52 0 -91 40 -91 93s41 94 95 94z" />
    <glyph glyph-name="colon" unicode=":" horiz-adv-x="214" 
d="M134 491c22 0 39 -17 39 -39c0 -24 -17 -41 -40 -41c-22 0 -39 17 -39 39c0 24 17 41 40 41zM83 75c22 0 39 -17 39 -39c0 -24 -17 -41 -40 -41c-22 0 -39 17 -39 39c0 24 17 41 40 41z" />
    <glyph glyph-name="comma" unicode="," horiz-adv-x="192" 
d="M51 100h58l-76 -229h-41z" />
    <glyph glyph-name="ellipsis" unicode="&#x2026;" horiz-adv-x="1000" 
d="M144 75c22 0 39 -17 39 -39c0 -24 -17 -41 -40 -41c-22 0 -39 17 -39 39c0 24 17 41 40 41zM477 75c22 0 39 -17 39 -39c0 -24 -17 -41 -40 -41c-22 0 -39 17 -39 39c0 24 17 41 40 41zM811 75c22 0 39 -17 39 -39c0 -24 -17 -41 -40 -41c-22 0 -39 17 -39 39
c0 24 17 41 40 41z" />
    <glyph glyph-name="exclam" unicode="!" horiz-adv-x="232" 
d="M95 195l57 541h58l-76 -541h-39zM101 75c22 0 39 -17 39 -39c0 -24 -17 -41 -40 -41c-22 0 -39 17 -39 39c0 24 17 41 40 41z" />
    <glyph glyph-name="exclamdown" unicode="&#xa1;" horiz-adv-x="226" 
d="M124 410c-22 0 -39 17 -39 39c0 24 17 41 40 41c22 0 39 -17 39 -39c0 -24 -17 -41 -40 -41zM130 290l-57 -541h-58l76 541h39z" />
    <glyph glyph-name="numbersign" unicode="#" horiz-adv-x="579" 
d="M472 656h41l-55 -214h115l-5 -42h-123l-44 -173h126l-5 -43h-133l-55 -214h-41l56 214h-157l-56 -214h-40l55 214h-110l5 43h117l45 173h-122l5 42h129l54 214h41l-55 -214h157zM405 400h-157l-45 -173h158z" />
    <glyph glyph-name="period" unicode="." horiz-adv-x="216" 
d="M83 75c22 0 39 -17 39 -39c0 -24 -17 -41 -40 -41c-22 0 -39 17 -39 39c0 24 17 41 40 41z" />
    <glyph glyph-name="question" unicode="?" horiz-adv-x="410" 
d="M114 612l-34 35c45 62 113 94 181 94c88 0 149 -59 149 -155c0 -89 -51 -150 -108 -208c-47 -46 -87 -83 -94 -130l-9 -56h-47l6 56c8 62 53 103 102 154c53 56 91 104 91 178c0 71 -42 108 -102 108c-53 0 -102 -27 -135 -76zM165 75c22 0 39 -17 39 -39
c0 -24 -17 -41 -40 -41c-22 0 -39 17 -39 39c0 24 17 41 40 41z" />
    <glyph glyph-name="questiondown" unicode="&#xbf;" horiz-adv-x="381" 
d="M244 410c-22 0 -39 17 -39 39c0 24 17 41 40 41c22 0 39 -17 39 -39c0 -24 -17 -41 -40 -41zM295 -127c-33 -49 -82 -76 -135 -76c-60 0 -102 37 -102 108c0 74 38 122 91 178c49 51 94 92 102 154l6 56h-47l-9 -56c-7 -47 -47 -84 -94 -130c-57 -58 -108 -119 -108 -208
c0 -96 61 -155 149 -155c68 0 136 32 181 94z" />
    <glyph glyph-name="quotedbl" unicode="&#x22;" horiz-adv-x="294" 
d="M137 710h58l-72 -229h-44zM245 710h58l-73 -229h-44z" />
    <glyph glyph-name="quotesingle" unicode="'" horiz-adv-x="187" 
d="M137 710h58l-72 -229h-44z" />
    <glyph glyph-name="semicolon" unicode=";" horiz-adv-x="208" 
d="M129 491c22 0 39 -17 39 -39c0 -24 -17 -41 -40 -41c-22 0 -39 17 -39 39c0 24 17 41 40 41zM62 100h58l-76 -229h-41z" />
    <glyph glyph-name="slash" unicode="/" horiz-adv-x="355" 
d="M424 737l-451 -851l-39 20l452 852z" />
    <glyph glyph-name="underscore" unicode="_" horiz-adv-x="471" 
d="M436 -68h-477l5 40h476z" />
    <glyph glyph-name="bullet.case" horiz-adv-x="425" 
d="M214 426c53 0 92 -39 92 -92c0 -54 -41 -95 -96 -95c-52 0 -91 40 -91 93s41 94 95 94z" />
    <glyph glyph-name="exclamdown.case" horiz-adv-x="234" 
d="M143 452c-22 0 -39 17 -39 39c0 24 17 41 40 41c22 0 39 -17 39 -39c0 -24 -17 -41 -40 -41zM149 332l-57 -541h-58l76 541h39z" />
    <glyph glyph-name="questiondown.case" horiz-adv-x="411" 
d="M250 452c-22 0 -39 17 -39 39c0 24 17 41 40 41c22 0 39 -17 39 -39c0 -24 -17 -41 -40 -41zM301 -85c-33 -49 -82 -76 -135 -76c-60 0 -102 37 -102 108c0 74 38 122 91 178c49 51 94 92 102 154l6 56h-47l-9 -56c-7 -47 -47 -84 -94 -130c-57 -58 -108 -119 -108 -208
c0 -96 61 -155 149 -155c68 0 136 32 181 94z" />
    <glyph glyph-name="braceleft" unicode="{" horiz-adv-x="305" 
d="M267 727h40l-5 -40h-24c-37 0 -65 -31 -70 -71l-29 -235c-7 -54 -19 -83 -64 -93v-2c40 -11 48 -38 41 -96l-26 -211c-7 -60 9 -82 49 -82h27l-5 -39h-39c-51 0 -88 38 -80 101l28 232c4 37 8 69 -60 74l3 44c70 6 76 41 80 76l31 242c6 55 44 100 103 100z" />
    <glyph glyph-name="braceright" unicode="}" horiz-adv-x="306" 
d="M207 383c-4 -35 -8 -68 60 -74l-3 -44c-70 -5 -76 -40 -80 -76l-29 -232c-8 -63 -52 -99 -104 -99h-41l5 39h25c43 0 64 25 71 84l27 211c7 60 19 84 64 95v2c-40 10 -48 41 -41 95l29 235c5 40 -14 68 -51 68h-27l5 40h39c58 0 88 -47 81 -102z" />
    <glyph glyph-name="bracketleft" unicode="[" horiz-adv-x="284" 
d="M183 684l-97 -784h109l-5 -43h-156l107 870h156l-5 -43h-109z" />
    <glyph glyph-name="bracketright" unicode="]" horiz-adv-x="285" 
d="M211 684h-110l5 43h157l-106 -870h-158l5 43h111z" />
    <glyph glyph-name="parenleft" unicode="(" horiz-adv-x="257" 
d="M118 171c0 -111 19 -206 47 -294l-46 -20c-31 88 -51 188 -51 306c0 202 58 413 164 573l38 -19c-98 -157 -152 -356 -152 -546z" />
    <glyph glyph-name="parenright" unicode=")" horiz-adv-x="258" 
d="M203 427c0 -205 -56 -394 -160 -568l-39 16c94 167 148 349 148 545c0 114 -18 213 -48 295l43 23c36 -84 56 -190 56 -311z" />
    <glyph glyph-name="braceleft.case" horiz-adv-x="262" 
d="M273 773h40l-5 -40h-24c-37 0 -65 -31 -70 -71l-29 -235c-7 -54 -19 -83 -64 -93v-2c40 -11 48 -38 41 -96l-26 -211c-7 -60 9 -82 49 -82h27l-5 -39h-39c-51 0 -88 38 -80 101l28 232c4 37 8 69 -60 74l3 44c70 6 76 41 80 76l31 242c6 55 44 100 103 100z" />
    <glyph glyph-name="braceright.case" horiz-adv-x="264" 
d="M172 429c-4 -35 -8 -68 60 -74l-3 -44c-70 -5 -76 -40 -80 -76l-29 -232c-8 -63 -52 -99 -104 -99h-41l5 39h25c43 0 64 25 71 84l27 211c7 60 19 84 64 95v2c-40 10 -48 41 -41 95l29 235c5 40 -14 68 -51 68h-27l5 40h39c58 0 88 -47 81 -102z" />
    <glyph glyph-name="bracketleft.case" horiz-adv-x="241" 
d="M189 728l-97 -784h109l-5 -43h-156l107 870h156l-5 -43h-109z" />
    <glyph glyph-name="bracketright.case" horiz-adv-x="262" 
d="M194 729h-110l5 43h157l-106 -870h-158l5 43h111z" />
    <glyph glyph-name="parenleft.case" horiz-adv-x="230" 
d="M124 216c0 -111 19 -206 47 -294l-46 -20c-31 88 -51 188 -51 306c0 202 58 413 164 573l38 -19c-98 -157 -152 -356 -152 -546z" />
    <glyph glyph-name="parenright.case" horiz-adv-x="254" 
d="M214 472c0 -205 -56 -394 -160 -568l-39 16c94 167 148 349 148 545c0 114 -18 213 -48 295l43 23c36 -84 56 -190 56 -311z" />
    <glyph glyph-name="emdash" unicode="&#x2014;" horiz-adv-x="1058" 
d="M1000 273h-934l6 48h933z" />
    <glyph glyph-name="endash" unicode="&#x2013;" horiz-adv-x="591" 
d="M533 273h-467l6 48h466z" />
    <glyph glyph-name="uni2015" unicode="&#x2015;" horiz-adv-x="1205" 
d="M1146 273h-1080l6 48h1080z" />
    <glyph glyph-name="hyphen" unicode="-" horiz-adv-x="388" 
d="M331 282h-264l6 52h264z" />
    <glyph glyph-name="emdash.case" horiz-adv-x="1040" 
d="M995 301h-934l6 48h933z" />
    <glyph glyph-name="endash.case" horiz-adv-x="573" 
d="M528 301h-467l6 48h466z" />
    <glyph glyph-name="uni2015.case" horiz-adv-x="1186" 
d="M1141 301h-1080l6 48h1080z" />
    <glyph glyph-name="hyphen.case" horiz-adv-x="360" 
d="M315 306h-254l6 50h254z" />
    <glyph glyph-name="guillemotleft" unicode="&#xab;" horiz-adv-x="413" 
d="M184 20h-51l-89 225l144 224h51l-142 -224zM335 20h-50l-89 225l143 224h51l-141 -224z" />
    <glyph glyph-name="guillemotright" unicode="&#xbb;" horiz-adv-x="414" 
d="M23 20l142 225l-87 224h51l89 -224l-144 -225h-51zM176 20l141 225l-87 224h51l89 -224l-143 -225h-51z" />
    <glyph glyph-name="guilsinglleft" unicode="&#x2039;" horiz-adv-x="263" 
d="M184 20h-50l-89 225l143 224h51l-141 -224z" />
    <glyph glyph-name="guilsinglright" unicode="&#x203a;" horiz-adv-x="261" 
d="M23 20l142 225l-87 224h51l89 -224l-144 -225h-51z" />
    <glyph glyph-name="quotedblbase" unicode="&#x201e;" horiz-adv-x="298" 
d="M58 154h58l-72 -229h-44zM166 154h58l-73 -229h-44z" />
    <glyph glyph-name="quotedblleft" unicode="&#x201c;" horiz-adv-x="296" 
d="M135 480h-58l73 229h44zM243 480h-58l72 229h44z" />
    <glyph glyph-name="quotedblright" unicode="&#x201d;" horiz-adv-x="292" 
d="M137 710h58l-72 -229h-44zM245 710h58l-73 -229h-44z" />
    <glyph glyph-name="quoteleft" unicode="&#x2018;" horiz-adv-x="188" 
d="M136 480h-58l72 229h44z" />
    <glyph glyph-name="quoteright" unicode="&#x2019;" horiz-adv-x="185" 
d="M137 710h58l-72 -229h-44z" />
    <glyph glyph-name="quotesinglbase" unicode="&#x201a;" horiz-adv-x="192" 
d="M53 100h58l-76 -229h-41z" />
    <glyph glyph-name="guillemotleft.case" horiz-adv-x="413" 
d="M192 71h-51l-89 225l144 224h51l-142 -224zM343 71h-50l-89 225l143 224h51l-141 -224z" />
    <glyph glyph-name="guillemotright.case" horiz-adv-x="413" 
d="M31 64l142 225l-87 224h51l89 -224l-144 -225h-51zM184 64l141 225l-87 224h51l89 -224l-143 -225h-51z" />
    <glyph glyph-name="anoteleia" unicode="&#x387;" horiz-adv-x="216" 
d="M137 491c22 0 39 -17 39 -39c0 -24 -17 -41 -40 -41c-22 0 -39 17 -39 39c0 24 17 41 40 41z" />
    <glyph glyph-name="uni037E" unicode="&#x37e;" horiz-adv-x="208" 
d="M129 491c22 0 39 -17 39 -39c0 -24 -17 -41 -40 -41c-22 0 -39 17 -39 39c0 24 17 41 40 41zM62 100h58l-76 -229h-41z" />
    <glyph glyph-name="uni2003" unicode="&#x2003;" horiz-adv-x="934" 
 />
    <glyph glyph-name="uni2002" unicode="&#x2002;" horiz-adv-x="467" 
 />
    <glyph glyph-name="space" unicode=" " horiz-adv-x="228" 
 />
    <glyph glyph-name="uni2009" unicode="&#x2009;" horiz-adv-x="28" 
 />
    <glyph glyph-name="CR" horiz-adv-x="224" 
 />
    <glyph glyph-name="cent" unicode="&#xa2;" horiz-adv-x="496" 
d="M250 99c64 0 113 21 153 68l41 -30c-43 -50 -93 -78 -161 -85l-13 -110h-44l13 108c-95 4 -175 75 -175 199c0 152 89 284 236 295l14 115h44l-14 -115c54 -6 106 -31 138 -78l-42 -31c-28 43 -75 61 -120 61c-124 0 -203 -112 -203 -245c0 -92 60 -152 133 -152z" />
    <glyph glyph-name="currency" unicode="&#xa4;" horiz-adv-x="463" 
d="M418 410c0 -54 -20 -106 -55 -144l59 -74l-30 -27l-59 75c-30 -22 -67 -35 -108 -35c-42 0 -77 13 -102 35l-75 -74l-25 28l76 75c-14 23 -22 52 -22 85c0 57 20 110 53 149l-60 75l31 27l58 -74c31 23 69 37 110 37c39 0 74 -13 100 -36l75 74l26 -27l-77 -76
c16 -25 25 -56 25 -93zM119 358c0 -67 42 -111 109 -111c84 0 148 72 148 159c0 74 -44 121 -110 121c-83 0 -147 -75 -147 -169z" />
    <glyph glyph-name="dollar" unicode="$" horiz-adv-x="527" 
d="M293 365c85 -48 172 -89 172 -180c0 -117 -85 -186 -202 -189l-15 -120h-46l15 123c-66 10 -133 45 -172 105l42 39c39 -67 104 -95 167 -95c91 0 154 53 154 131c0 62 -64 91 -140 134c-76 42 -159 86 -159 180c0 102 80 170 190 173l15 126h46l-15 -129
c54 -9 106 -38 142 -80l-40 -37c-39 48 -93 69 -143 69c-78 0 -138 -46 -138 -116c1 -64 58 -95 127 -134z" />
    <glyph glyph-name="dong" unicode="&#x20ab;" 
d="M579 619l-6 -40h-56l-71 -579h-52l15 128h-1c-43 -76 -111 -133 -193 -133c-109 0 -167 86 -167 194c0 160 98 301 248 301c55 0 114 -15 149 -53h2l18 142h-128l5 40h128l14 117h52l-14 -117h57zM223 43c101 0 182 110 205 238l12 98c-34 50 -100 62 -142 62
c-120 0 -196 -121 -196 -253c0 -84 42 -145 121 -145zM15 -134l6 49h419l-6 -49h-419z" />
    <glyph glyph-name="Euro" unicode="&#x20ac;" horiz-adv-x="544" 
d="M390 625c-117 0 -203 -88 -240 -210h273l-5 -39h-277c-6 -27 -9 -54 -10 -83h277l-5 -38h-271c8 -138 85 -208 181 -208c61 0 107 20 149 51l28 -43c-49 -36 -107 -59 -179 -59c-123 0 -227 85 -235 259h-58l5 38h52c1 29 4 56 9 83h-51l5 39h55c41 153 151 262 297 262
c61 0 117 -19 164 -59l-37 -40c-36 32 -79 47 -127 47z" />
    <glyph glyph-name="florin" unicode="&#x192;" horiz-adv-x="474" 
d="M426 692c-45 0 -83 -27 -103 -112l-26 -113h141l-12 -48h-142l-92 -377c-25 -108 -76 -151 -151 -151c-53 0 -88 18 -109 42l27 36c20 -20 46 -28 76 -28c49 0 87 28 107 112l88 366h-71l12 48h72l30 125c26 107 77 149 148 149c51 0 88 -18 108 -40l-27 -37
c-21 19 -47 28 -76 28z" />
    <glyph glyph-name="uni20BA" unicode="&#x20ba;" horiz-adv-x="542" 
d="M453 189l45 -20c-62 -127 -155 -169 -265 -169h-148l30 245l-66 -31l-12 38l84 39l9 76l-67 -31l-12 39l85 40l34 272h56l-30 -245l151 71l13 -39l-170 -79l-10 -76l153 72l12 -39l-170 -79l-28 -224h86c113 0 169 46 220 140z" />
    <glyph glyph-name="sterling" unicode="&#xa3;" horiz-adv-x="514" 
d="M466 556c-23 53 -63 81 -112 81c-71 0 -130 -48 -146 -179l-7 -57h153l-5 -43h-153l-37 -306h302l-6 -52h-434l6 52h76l38 306h-60l5 43h60l8 65c21 171 108 224 196 224c70 0 124 -38 152 -99z" />
    <glyph glyph-name="yen" unicode="&#xa5;" horiz-adv-x="501" 
d="M539 687l-183 -283h100l-5 -38h-120l-45 -70l-1 -9h156l-4 -38h-157l-30 -249h-57l31 249h-161l5 38h161l1 9l-28 70h-124l5 38h104l-112 283h64l126 -334l209 334h65z" />
    <glyph glyph-name="uni2126" unicode="&#x2126;" horiz-adv-x="725" 
d="M475 53l-1 -1h154l-6 -52h-236l6 52c141 77 231 205 231 369c0 133 -83 241 -204 241c-171 0 -281 -157 -281 -327c0 -121 56 -224 148 -283l-7 -52h-235l6 52h160v1c-81 65 -130 169 -130 284c0 206 139 378 341 378c154 0 260 -130 260 -289c0 -158 -82 -293 -206 -373
z" />
    <glyph glyph-name="approxequal" unicode="&#x2248;" horiz-adv-x="559" 
d="M393 380c43 0 75 26 101 49l13 -40c-27 -28 -64 -57 -113 -57c-66 0 -115 48 -182 48c-50 0 -95 -26 -113 -40l-13 40c17 15 69 49 126 49c79 0 115 -49 181 -49zM366 164c43 0 75 25 101 49l13 -41c-27 -27 -63 -56 -113 -56c-66 0 -115 48 -181 48
c-51 0 -95 -25 -114 -40l-13 40c17 14 69 49 127 49c79 0 114 -49 180 -49z" />
    <glyph glyph-name="asciitilde" unicode="~" horiz-adv-x="523" 
d="M70 242c27 56 65 91 114 91c39 0 63 -16 85 -29c30 -18 52 -33 79 -33c29 0 57 20 75 58l39 -16c-27 -61 -70 -92 -111 -92c-39 0 -67 20 -89 33c-30 18 -52 29 -74 29c-34 0 -60 -22 -80 -58z" />
    <glyph glyph-name="divide" unicode="&#xf7;" horiz-adv-x="552" 
d="M315 509c22 0 39 -17 39 -39c0 -23 -17 -41 -41 -41c-22 0 -38 17 -38 39c0 24 17 41 40 41zM499 252h-419l6 49h419zM272 120c22 0 39 -17 39 -39c0 -23 -17 -41 -41 -41c-22 0 -38 17 -38 39c0 24 17 41 40 41z" />
    <glyph glyph-name="emptyset" unicode="&#x2205;" horiz-adv-x="698" 
d="M571 512c44 -52 71 -121 71 -194c0 -160 -129 -296 -294 -296c-75 0 -142 28 -193 74l-43 -43l-27 27l43 43c-46 52 -73 121 -73 195c0 160 130 296 295 296c75 0 143 -28 194 -75l37 37l27 -27zM101 317c0 -61 22 -118 59 -162l352 352c-43 38 -99 61 -162 61
c-141 0 -249 -114 -249 -251zM348 68c140 0 248 115 248 250c0 61 -21 117 -58 161l-351 -351c43 -37 99 -60 161 -60z" />
    <glyph glyph-name="equal" unicode="=" horiz-adv-x="541" 
d="M508 364h-419l6 49h419zM481 140h-419l6 49h419z" />
    <glyph glyph-name="greater" unicode="&#x3e;" horiz-adv-x="531" 
d="M60 107l345 173l-302 174l6 54l372 -209l-4 -38l-423 -207z" />
    <glyph glyph-name="greaterequal" unicode="&#x2265;" horiz-adv-x="544" 
d="M83 196l345 173l-302 174l6 54l372 -209l-4 -38l-423 -207zM458 0h-400l6 49h400z" />
    <glyph glyph-name="uni2206" unicode="&#x2206;" horiz-adv-x="593" 
d="M383 710l149 -665l-6 -45h-43h-468h-8l5 45l311 665h60zM74 52h398l-125 589h-3z" />
    <glyph glyph-name="infinity" unicode="&#x221e;" horiz-adv-x="713" 
d="M532 430c73 0 126 -58 126 -137c0 -93 -72 -176 -159 -176c-57 0 -103 30 -144 116c-48 -69 -103 -116 -167 -116c-73 0 -126 58 -126 136c0 94 72 177 160 177c54 0 102 -31 141 -116c50 67 104 116 169 116zM191 162c44 0 87 31 142 113c-25 62 -58 110 -110 110
c-64 0 -115 -64 -115 -130c0 -55 35 -93 83 -93zM499 162c60 0 113 63 113 130c0 55 -35 93 -82 93c-43 0 -88 -31 -143 -114c26 -61 58 -109 112 -109z" />
    <glyph glyph-name="integral" unicode="&#x222b;" horiz-adv-x="221" 
d="M254 651h-16c-65 0 -68 -17 -82 -109l-88 -583c-12 -76 -37 -116 -80 -125c-21 -3 -39 -3 -64 -2l4 43h9c65 0 69 22 83 108l87 580c12 79 38 120 81 127c29 4 51 0 71 1z" />
    <glyph glyph-name="less" unicode="&#x3c;" horiz-adv-x="533" 
d="M439 107l-6 -53l-372 207l4 38l423 209l-6 -54l-344 -174z" />
    <glyph glyph-name="lessequal" unicode="&#x2264;" horiz-adv-x="536" 
d="M452 195l-7 -53l-372 207l5 38l423 209l-6 -54l-345 -173zM29 0l7 49h400l-7 -49h-400z" />
    <glyph glyph-name="logicalnot" unicode="&#xac;" horiz-adv-x="534" 
d="M458 175h-49l19 156h-349l6 48h398z" />
    <glyph glyph-name="uni00B5" unicode="&#xb5;" 
d="M499 48l10 -40c-16 -8 -34 -13 -58 -13c-60 0 -77 40 -76 92h-2c-37 -57 -92 -92 -164 -92c-51 0 -85 25 -102 71h-1c-1 -35 -3 -72 -7 -107l-20 -157h-52l84 683h52l-38 -308c-6 -100 40 -133 89 -133c79 0 165 69 180 209l29 232h52l-45 -358c-6 -51 -6 -84 40 -84
c9 0 18 2 29 5z" />
    <glyph glyph-name="minus" unicode="&#x2212;" horiz-adv-x="555" 
d="M488 252h-419l6 49h419z" />
    <glyph glyph-name="multiply" unicode="&#xd7;" horiz-adv-x="473" 
d="M356 86l-120 156l-157 -156l-32 34l159 156l-120 156l38 35l119 -156l159 156l32 -34l-159 -157l120 -156z" />
    <glyph glyph-name="notequal" unicode="&#x2260;" horiz-adv-x="533" 
d="M496 364h-165l-94 -175h238l-6 -49h-259l-72 -134l-37 16l64 118h-115l6 49h135l95 175h-209l6 49h229l74 136l36 -16l-65 -120h145z" />
    <glyph glyph-name="partialdiff" unicode="&#x2202;" horiz-adv-x="526" 
d="M311 692c143 0 178 -151 178 -289c0 -207 -79 -407 -261 -407c-108 0 -183 73 -183 188c0 137 89 249 225 249c72 0 128 -34 160 -87h2c1 18 2 36 2 54c1 120 -27 241 -138 241c-41 0 -97 -16 -142 -45l-8 47c55 35 116 49 165 49zM233 49c101 0 162 95 187 216
c-20 63 -70 118 -148 118c-105 0 -171 -90 -171 -189c0 -87 48 -145 132 -145z" />
    <glyph glyph-name="percent" unicode="%" horiz-adv-x="949" 
d="M690 701l-365 -713l-43 19l365 714zM279 714c104 0 181 -72 181 -178c0 -122 -90 -210 -202 -210c-102 0 -178 74 -178 180c0 116 88 208 199 208zM278 670c-84 0 -152 -72 -152 -164c0 -81 57 -136 133 -136c86 0 155 68 155 165c0 81 -58 135 -136 135zM710 383
c104 0 181 -72 181 -178c0 -122 -91 -210 -202 -210c-102 0 -179 74 -179 180c0 116 89 208 200 208zM709 339c-84 0 -152 -72 -152 -164c0 -81 57 -136 133 -136c86 0 154 68 154 165c0 81 -57 135 -135 135z" />
    <glyph glyph-name="perthousand" unicode="&#x2030;" horiz-adv-x="1381" 
d="M690 701l-365 -713l-43 19l365 714zM279 714c104 0 181 -72 181 -178c0 -122 -90 -210 -202 -210c-102 0 -178 74 -178 180c0 116 88 208 199 208zM278 670c-84 0 -152 -72 -152 -164c0 -81 57 -136 133 -136c86 0 155 68 155 165c0 81 -58 135 -136 135zM710 383
c104 0 181 -72 181 -178c0 -122 -91 -210 -202 -210c-102 0 -179 74 -179 180c0 116 89 208 200 208zM1142 383c104 0 181 -72 181 -178c0 -122 -91 -210 -202 -210c-102 0 -179 74 -179 180c0 116 89 208 200 208zM709 339c-84 0 -152 -72 -152 -164
c0 -81 57 -136 133 -136c86 0 154 68 154 165c0 81 -57 135 -135 135zM1141 339c-84 0 -152 -72 -152 -164c0 -81 57 -136 133 -136c86 0 154 68 154 165c0 81 -57 135 -135 135z" />
    <glyph glyph-name="plus" unicode="+" 
d="M484 252h-184l-26 -208h-49l25 208h-185l6 49h185l26 208h50l-26 -208h184z" />
    <glyph glyph-name="plusminus" unicode="&#xb1;" horiz-adv-x="543" 
d="M497 357h-184l-26 -208h-49l25 208h-185l6 49h185l26 208h50l-26 -208h184zM452 -1h-419l6 49h419z" />
    <glyph glyph-name="product" unicode="&#x220f;" horiz-adv-x="640" 
d="M148 710h459l-99 -811h-55l92 760h-348l-93 -760h-56z" />
    <glyph glyph-name="radical" unicode="&#x221a;" horiz-adv-x="614" 
d="M683 822h46l-433 -822h-41l-89 499h-98l6 48h141l78 -460h2z" />
    <glyph glyph-name="uni2236" unicode="&#x2236;" horiz-adv-x="214" 
d="M141 549c22 0 39 -17 39 -39c0 -24 -17 -41 -40 -41c-22 0 -39 17 -39 39c0 24 17 41 40 41zM90 133c22 0 39 -17 39 -39c0 -24 -17 -41 -40 -41c-22 0 -39 17 -39 39c0 24 17 41 40 41z" />
    <glyph glyph-name="summation" unicode="&#x2211;" horiz-adv-x="549" 
d="M559 659h-375v-3l153 -345l-237 -346v-3h373l-6 -52h-447l5 43l248 358l-160 356l5 43h447z" />
    <glyph glyph-name="plus.case" 
d="M491 308h-184l-26 -208h-49l25 208h-185l6 49h185l26 208h50l-26 -208h184z" />
    <glyph glyph-name="uni2713" unicode="&#x2713;" horiz-adv-x="588" 
d="M595 740l-382 -625l-193 200l32 32l152 -158l352 576z" />
    <glyph glyph-name="uni2715" unicode="&#x2715;" horiz-adv-x="386" 
d="M334 104l-141 141l-142 -141l-31 31l141 141l-141 142l31 31l141 -141l142 142l32 -32l-142 -142l142 -142z" />
    <glyph glyph-name="bar" unicode="|" horiz-adv-x="284" 
d="M179 737h47l-105 -852h-47z" />
    <glyph glyph-name="brokenbar" unicode="&#xa6;" horiz-adv-x="284" 
d="M179 737h47l-43 -351h-47zM118 240h48l-44 -354h-48z" />
    <glyph glyph-name="at" unicode="@" horiz-adv-x="906" 
d="M653 44c-61 0 -90 46 -89 105h-2c-41 -57 -103 -93 -172 -93c-86 0 -143 58 -143 163c0 134 81 248 217 248c56 0 104 -20 130 -49h2l5 45h52l-34 -276c-5 -62 -3 -98 49 -98c101 0 143 129 143 209c0 187 -128 314 -317 314c-281 0 -394 -222 -394 -385
c0 -186 135 -320 311 -320c84 0 161 19 222 53l22 -33c-68 -40 -153 -62 -244 -62c-203 0 -355 149 -355 362c0 167 116 426 438 426c214 0 361 -141 361 -354c0 -102 -50 -255 -202 -255zM403 104c77 0 160 81 177 184l10 84c-31 31 -80 45 -120 45
c-108 0 -169 -94 -169 -194c0 -74 34 -119 102 -119z" />
    <glyph glyph-name="ampersand" unicode="&#x26;" horiz-adv-x="728" 
d="M717 424l-6 -49h-169c-16 -209 -116 -380 -320 -380c-104 0 -176 68 -176 176c0 104 60 192 148 230c-36 24 -62 64 -62 115c0 112 86 199 203 199c103 0 152 -60 164 -129l-49 -16c-7 55 -43 96 -113 97c-94 0 -150 -65 -150 -151c0 -47 30 -92 77 -92h453zM228 46
c157 0 250 142 263 329h-218c-89 0 -171 -97 -171 -199c0 -75 45 -130 126 -130z" />
    <glyph glyph-name="paragraph" unicode="&#xb6;" horiz-adv-x="411" 
d="M239 641h121l-96 -790h-39l92 750h-53l-74 -601h-39l48 383c-67 1 -116 38 -116 106c0 81 58 152 156 152z" />
    <glyph glyph-name="copyright" unicode="&#xa9;" horiz-adv-x="690" 
d="M346 615c165 0 293 -136 293 -297c0 -160 -129 -297 -295 -297c-164 0 -294 136 -294 297s130 297 296 297zM598 318c0 140 -111 256 -252 256c-144 0 -255 -117 -255 -257c0 -139 110 -255 253 -255s254 117 254 256zM353 191c43 0 75 19 97 47l29 -24
c-28 -35 -68 -60 -126 -60c-88 0 -161 56 -161 161c0 92 57 165 161 165c45 0 91 -18 126 -62l-29 -23c-25 31 -60 48 -97 48c-78 0 -122 -53 -122 -128c0 -79 52 -124 122 -124z" />
    <glyph glyph-name="registered" unicode="&#xae;" horiz-adv-x="691" 
d="M347 616c165 0 294 -136 294 -298c0 -161 -130 -297 -296 -297c-165 0 -295 135 -295 297c0 161 131 298 297 298zM345 61c143 0 254 118 254 257c0 140 -111 257 -253 257c-144 0 -255 -118 -255 -258c0 -139 111 -256 254 -256zM462 385c0 -56 -31 -86 -79 -95l93 -132
h-45l-90 129h-58v-129h-37v324h111c74 0 105 -42 105 -97zM283 447v-125h65c57 0 75 30 75 63c0 38 -26 62 -69 62h-71z" />
    <glyph glyph-name="section" unicode="&#xa7;" horiz-adv-x="492" 
d="M284 414c82 -36 149 -63 149 -144c0 -74 -43 -121 -105 -147c36 -24 61 -54 61 -103c0 -107 -78 -172 -189 -172c-73 0 -137 28 -177 90l36 37c30 -54 88 -77 141 -77c77 0 132 41 132 115c0 56 -49 80 -120 113c-80 37 -145 69 -145 148c0 67 40 119 102 143
c-32 23 -54 54 -54 101c0 101 79 166 175 166c64 0 127 -27 161 -66l-35 -37c-33 36 -81 52 -125 52c-64 0 -119 -42 -119 -110c0 -57 47 -80 112 -109zM281 149c56 18 98 55 98 114c0 54 -47 74 -119 106c-15 6 -29 13 -44 20c-56 -13 -95 -58 -95 -109
c0 -53 46 -75 118 -111z" />
    <glyph glyph-name="trademark" unicode="&#x2122;" horiz-adv-x="620" 
d="M77 674l4 36h212l-5 -36h-87l-35 -287h-39l36 287h-86zM586 710h40l-40 -323h-38l32 252l-116 -186h-26l-71 185l-31 -251h-38l40 323h40l78 -210z" />
    <glyph glyph-name="degree" unicode="&#xb0;" horiz-adv-x="380" 
d="M247 715c65 0 111 -45 111 -116c0 -79 -58 -150 -144 -150c-69 0 -110 44 -110 109c0 86 61 157 143 157zM245 675c-58 0 -101 -49 -101 -114c0 -45 27 -72 73 -72c58 0 101 48 101 107c0 48 -28 79 -73 79z" />
    <glyph glyph-name="estimated" unicode="&#x212e;" horiz-adv-x="793" 
d="M174 302v-181c58 -79 151 -105 222 -105c81 0 160 33 208 86h41c-57 -71 -157 -112 -249 -112c-195 0 -331 144 -331 321c0 189 148 321 331 321c195 0 331 -145 331 -321v-9h-553zM614 508c-53 67 -143 97 -218 97c-80 0 -170 -32 -221 -104l-1 -171h439z" />
    <glyph glyph-name="uni2113" unicode="&#x2113;" horiz-adv-x="448" 
d="M402 104l23 -17c-42 -61 -101 -92 -169 -92c-97 0 -149 64 -154 158c-16 -14 -36 -30 -54 -43l-16 22c24 19 48 36 70 56l2 271c1 166 72 220 154 220c73 0 107 -57 107 -146c0 -107 -78 -217 -197 -325v-25c0 -120 54 -155 104 -155c56 0 104 42 130 76zM262 645
c-49 0 -94 -38 -94 -178v-222c107 103 167 195 167 287c0 75 -20 113 -73 113z" />
    <glyph glyph-name="uni2116" unicode="&#x2116;" horiz-adv-x="993" 
d="M827 416c-71 0 -118 44 -118 122c0 91 59 174 153 174c68 0 117 -40 117 -119c0 -94 -57 -177 -152 -177zM532 97l75 613h56l-86 -710h-59l-318 609h-2l-75 -609h-56l87 710h57l320 -613h1zM860 672c-61 0 -107 -58 -107 -130c0 -53 29 -86 77 -86c60 0 107 57 107 134
c0 56 -32 82 -77 82zM686 316l3 43h247l-3 -43h-247z" />
    <glyph glyph-name="asciicircum" unicode="^" horiz-adv-x="442" 
d="M101 500l154 210h45l103 -210h-50l-79 170l-122 -170h-51z" />
    <glyph glyph-name="dagger" unicode="&#x2020;" horiz-adv-x="380" 
d="M354 545l-91 4h-18l-14 -112l-13 -138l-24 -38l-16 38l20 138l13 112h-18l-93 -3l4 40l93 -2h17l12 101h40l-16 -101h17l92 2z" />
    <glyph glyph-name="daggerdbl" unicode="&#x2021;" horiz-adv-x="380" 
d="M187 378l12 74l12 97h-19l-92 -3l4 40l92 -3h18l11 102h40l-15 -102h16l93 2l-5 -39l-92 3h-17l-13 -97l-4 -74l-14 -72l-13 -110h17l94 3l-5 -40l-93 1h-16l-10 -100h-39l14 100h-18l-93 -2l5 40l91 -2h19l14 110z" />
    <glyph glyph-name="at.case" horiz-adv-x="896" 
d="M653 113c-61 0 -90 46 -89 105h-2c-41 -57 -103 -93 -172 -93c-86 0 -143 58 -143 163c0 134 81 248 217 248c56 0 104 -20 130 -49h2l5 45h52l-34 -276c-5 -62 -3 -98 49 -98c101 0 143 129 143 209c0 187 -128 314 -317 314c-281 0 -394 -222 -394 -385
c0 -186 135 -320 311 -320c84 0 161 19 222 53l22 -33c-68 -40 -153 -62 -244 -62c-203 0 -355 149 -355 362c0 167 116 426 438 426c214 0 361 -141 361 -354c0 -102 -50 -255 -202 -255zM403 173c77 0 160 81 177 184l10 84c-31 31 -80 45 -120 45
c-108 0 -169 -94 -169 -194c0 -74 34 -119 102 -119z" />
    <glyph glyph-name="uni0374" unicode="&#x374;" horiz-adv-x="236" 
d="M150 723h56l-80 -239h-48z" />
    <glyph glyph-name="uni0375" unicode="&#x375;" horiz-adv-x="236" 
d="M112 97h56l-80 -239h-48z" />
    <glyph glyph-name="acute" unicode="&#xb4;" horiz-adv-x="466" 
d="M326 683h62l-129 -139h-57z" />
    <glyph glyph-name="breve" unicode="&#x2d8;" horiz-adv-x="432" 
d="M252 543c-65 0 -111 48 -106 134l43 -1c-3 -53 15 -92 64 -92c52 0 87 40 96 93l43 -1c-16 -84 -72 -133 -140 -133z" />
    <glyph glyph-name="caron" unicode="&#x2c7;" horiz-adv-x="466" 
d="M364 683h57l-126 -140h-51l-90 140h54l64 -104h3z" />
    <glyph glyph-name="cedilla" unicode="&#xb8;" horiz-adv-x="313" 
d="M113 -35c43 -3 70 -22 70 -62c0 -49 -42 -89 -100 -89c-18 0 -34 3 -45 7l3 33c10 -5 21 -7 39 -7c29 0 63 17 63 55c0 24 -22 35 -69 37l3 26l22 41h37l-24 -40z" />
    <glyph glyph-name="circumflex" unicode="&#x2c6;" horiz-adv-x="466" 
d="M348 543l-64 106h-2l-90 -106h-56l123 140h51l93 -140h-55z" />
    <glyph glyph-name="dieresis" unicode="&#xa8;" horiz-adv-x="466" 
d="M204 659c22 0 39 -17 39 -39c0 -23 -17 -41 -41 -41c-22 0 -38 17 -38 39c0 24 17 41 40 41zM356 659c22 0 39 -17 39 -39c0 -23 -17 -41 -41 -41c-22 0 -38 17 -38 39c0 24 17 41 40 41z" />
    <glyph glyph-name="dotaccent" unicode="&#x2d9;" horiz-adv-x="458" 
d="M276 659c22 0 39 -17 39 -39c0 -23 -17 -41 -41 -41c-22 0 -38 17 -38 39c0 24 17 41 40 41z" />
    <glyph glyph-name="grave" unicode="`" horiz-adv-x="468" 
d="M249 683l90 -139h-57l-95 139h62z" />
    <glyph glyph-name="hungarumlaut" unicode="&#x2dd;" horiz-adv-x="474" 
d="M248 683h59l-129 -139h-54zM384 683h59l-129 -139h-53z" />
    <glyph glyph-name="macron" unicode="&#xaf;" horiz-adv-x="429" 
d="M138 639h251l-6 -46h-252z" />
    <glyph glyph-name="ogonek" unicode="&#x2db;" horiz-adv-x="435" 
d="M261 -171c-17 -9 -37 -13 -62 -13c-50 0 -78 25 -75 72c1 47 43 94 90 126l41 -14c-52 -30 -85 -67 -86 -104c-1 -22 11 -40 40 -40c24 0 36 4 50 12z" />
    <glyph glyph-name="ring" unicode="&#x2da;" horiz-adv-x="425" 
d="M259 699c48 0 83 -34 83 -81c0 -49 -36 -85 -86 -85c-47 0 -82 35 -82 82c0 49 36 84 85 84zM259 662c-28 0 -48 -19 -48 -46s19 -46 46 -46c28 0 48 20 48 48c0 25 -19 44 -46 44z" />
    <glyph glyph-name="tilde" unicode="&#x2dc;" horiz-adv-x="471" 
d="M123 579c23 55 54 87 95 87c32 0 50 -17 68 -32s36 -32 57 -32c22 0 46 20 62 60l35 -15c-23 -60 -58 -90 -93 -90c-32 0 -55 23 -74 39c-18 14 -34 25 -51 25c-26 0 -48 -22 -64 -59z" />
    <glyph glyph-name="breve.short" horiz-adv-x="409" 
d="M244 543c-61 0 -104 48 -98 134l42 -1c-5 -53 12 -92 58 -92s74 40 80 93l44 -1c-15 -84 -64 -133 -126 -133z" />
    <glyph glyph-name="dieresis.short" horiz-adv-x="464" 
d="M204 659c22 0 39 -17 39 -39c0 -23 -17 -41 -41 -41c-22 0 -38 17 -38 39c0 24 17 41 40 41zM354 659c22 0 39 -17 39 -39c0 -23 -17 -41 -40 -41c-22 0 -39 17 -39 39c0 24 17 41 40 41z" />
    <glyph glyph-name="grave.short" horiz-adv-x="436" 
d="M248 683l59 -139h-56l-64 139h61z" />
    <glyph glyph-name="tilde.short" horiz-adv-x="462" 
d="M123 579c22 55 53 87 92 87c31 0 49 -16 66 -32c19 -13 36 -32 56 -32c22 0 45 20 60 60l34 -15c-23 -60 -56 -90 -90 -90c-30 0 -54 23 -72 39c-18 13 -33 25 -50 25c-25 0 -47 -22 -63 -59z" />
    <glyph glyph-name="tonos" unicode="&#x384;" horiz-adv-x="428" 
d="M282 703h63l-89 -159h-54z" />
    <glyph glyph-name="dieresistonos" unicode="&#x385;" horiz-adv-x="535" 
d="M342 703h53l-83 -159h-45zM181 659c23 0 39 -17 39 -39c0 -23 -17 -41 -40 -41c-22 0 -39 17 -39 39c0 24 17 41 40 41zM438 659c23 0 40 -17 40 -39c0 -23 -18 -41 -41 -41c-22 0 -39 17 -39 39c0 24 18 41 40 41z" />
    <glyph glyph-name="NULL" horiz-adv-x="0" 
 />
    <glyph glyph-name="KB" horiz-adv-x="928" 
d="M450 305c105 -13 257 -38 257 -152c0 -85 -82 -154 -234 -154c-130 0 -219 57 -254 131l21 9c52 -69 116 -94 200 -94c64 0 122 28 122 101c0 57 -61 119 -161 157c-6 -22 -13 -47 -19 -74c23 -4 47 -9 71 -17l-5 -36h-248l-1 34c29 20 62 38 98 50l73 382l-65 19l-2 30
c26 16 68 29 117 29l70 -35l-63 -194l-66 -189l10 -2c49 184 127 244 221 244c70 0 122 -29 122 -98c0 -74 -59 -136 -195 -136c-22 0 -45 1 -69 4v-9zM542 504c-28 0 -86 -42 -132 -174c133 5 173 74 173 124c0 27 -15 50 -41 50zM89 -107l-12 -39h-6l-8 29l-8 -29h-6
l-12 39h6l9 -28l8 28h6l8 -28l9 28h6zM146 -107l-12 -39h-7l-7 29l-9 -29h-6l-12 39h7l8 -28l8 28h7l7 -28l9 28h7zM202 -107l-12 -39h-6l-8 29l-9 -29h-5l-13 39h7l9 -28l7 28h7l8 -28l8 28h7zM229 -130l-4 -5v-11h-7v39h7v-19l15 19h8l-15 -18l16 -21h-9zM270 -107
c11 0 19 -8 19 -19c0 -13 -8 -20 -19 -20c-12 0 -20 8 -20 20c0 11 8 19 20 19zM310 -123c6 -2 12 -4 12 -12s-8 -11 -13 -11s-11 1 -15 6l4 5c3 -4 7 -5 11 -5s6 1 6 4c0 4 -2 5 -7 7c-6 2 -12 4 -12 11c0 6 5 11 12 11c5 0 9 -1 13 -5l-4 -5c-3 3 -6 4 -9 4s-5 -1 -5 -4
s2 -4 7 -6zM343 -113v-33h-7v33h-11v6h29v-6h-11zM379 -138h-16l-3 -8h-7l15 39h6l15 -39h-7zM407 -123c7 -2 12 -4 12 -12s-7 -11 -13 -11c-5 0 -10 1 -14 6l4 5c3 -4 6 -5 10 -5s6 1 6 4c0 4 -2 5 -7 7c-6 2 -12 4 -12 11c0 6 5 11 12 11c5 0 9 -1 13 -5l-4 -5
c-3 3 -6 4 -9 4s-5 -1 -5 -4s2 -4 7 -6zM447 -125c4 -1 8 -5 8 -10c0 -7 -5 -11 -13 -11h-16v39h14c8 0 13 -3 13 -10c0 -4 -2 -7 -6 -8zM483 -138h-15l-3 -8h-7l14 39h7l14 -39h-7zM520 -146l-9 14h-5v-14h-7v39h15c8 0 13 -6 13 -13c0 -6 -4 -10 -9 -11l10 -15h-8z
M548 -113v-33h-6v33h-11v6h29v-6h-12zM579 -123c6 -2 12 -4 12 -12s-8 -11 -13 -11s-11 1 -15 6l5 5c2 -4 6 -5 10 -5s6 1 6 4c0 4 -2 5 -7 7c-6 2 -12 4 -12 11c0 6 5 11 12 11c5 0 9 -1 13 -5l-4 -5c-3 3 -6 4 -9 4s-5 -1 -5 -4s2 -4 7 -6zM616 -107c11 0 20 -8 20 -19
c0 -13 -9 -20 -20 -20c-12 0 -19 8 -19 20c0 11 7 19 19 19zM654 -130l-4 -5v-11h-7v39h7v-19l15 19h8l-14 -18l15 -21h-8zM702 -138h-16l-3 -8h-7l14 39h7l14 -39h-6zM730 -123c7 -2 12 -4 12 -12s-7 -11 -13 -11c-5 0 -10 1 -14 6l4 5c3 -4 7 -5 10 -5c4 0 6 1 6 4
c0 4 -3 5 -7 7c-6 2 -12 4 -12 11c0 6 6 11 12 11c5 0 9 -1 13 -5l-4 -5c-3 3 -6 4 -9 4s-5 -1 -5 -4s3 -4 7 -6zM779 -140c4 0 8 2 10 5l5 -4c-3 -4 -8 -7 -15 -7c-11 0 -20 6 -20 19c0 11 7 20 20 20c5 0 11 -2 15 -7l-5 -4c-2 3 -6 5 -10 5c-8 0 -13 -6 -13 -14
s5 -13 13 -13zM818 -107c12 0 20 -8 20 -19c0 -13 -8 -20 -20 -20c-11 0 -19 8 -19 20c0 11 8 19 19 19zM884 -107v-39h-6v26l-11 -19h-4l-11 19v-26h-6v39h6l13 -23l13 23h6zM270 -140c7 0 12 5 12 14c0 7 -5 13 -12 13c-8 0 -13 -6 -13 -13c0 -8 5 -14 13 -14zM433 -124h6
c3 0 7 2 7 6c0 3 -2 5 -8 5h-5v-11zM506 -126h6c6 0 8 2 8 6s-3 7 -7 7h-7v-13zM616 -140c7 0 13 5 13 14c0 7 -6 13 -13 13c-8 0 -12 -6 -12 -13c0 -8 4 -14 12 -14zM818 -140c8 0 13 5 13 14c0 7 -5 13 -13 13c-7 0 -12 -6 -12 -13c0 -8 5 -14 12 -14zM376 -132l-5 17
l-6 -17h11zM481 -132l-5 17l-6 -17h11zM700 -132l-6 17l-6 -17h12zM440 -140c4 0 8 2 8 5c0 4 -3 6 -8 6h-7v-11h7zM210 -143c0 -2 -1 -3 -3 -3c-3 0 -4 1 -4 3c0 3 1 5 4 5c2 0 3 -2 3 -5zM755 -143c0 -2 -2 -3 -4 -3s-4 1 -4 3c0 3 2 5 4 5s4 -2 4 -5z" />
    <glyph glyph-name="jacute" horiz-adv-x="195" 
d="M229 698h62l-129 -139h-57zM-95 -140c19 -14 32 -15 49 -15c37 0 66 19 76 105l66 535h52l-66 -541c-13 -98 -50 -147 -123 -147c-27 0 -46 6 -66 18z" />
    <glyph glyph-name="Jacute" horiz-adv-x="458" 
d="M510 934h62l-129 -139h-57zM52 129c29 -47 73 -81 128 -81c67 0 120 49 136 180l59 482h56l-59 -485c-19 -155 -83 -230 -190 -230c-71 0 -130 33 -168 94z" />
    </font>
</defs>
</svg>
