<?xml version="1.0" standalone="no"?>
<!DOCTYPE svg PUBLIC "-//W3C//DTD SVG 1.1//EN" "http://www.w3.org/Graphics/SVG/1.1/DTD/svg11.dtd" >
<svg xmlns="http://www.w3.org/2000/svg" xmlns:xlink="http://www.w3.org/1999/xlink" version="1.1">
<metadata>
Created by FontForge 20170910 at Sat Jan  2 15:08:34 2016
 By Jimmy Wärting
Copyright (c) 2015 by Kostas Bartsokas. All rights reserved.
</metadata>
<defs>
<font id="AvertaStd-RegularItalic" horiz-adv-x="629" >
  <font-face 
    font-family="Averta Std Regular"
    font-weight="400"
    font-style="italic"
    font-stretch="normal"
    units-per-em="1000"
    panose-1="0 0 5 0 0 0 0 0 0 0"
    ascent="772"
    descent="-228"
    x-height="487"
    cap-height="710"
    bbox="-136 -363 1354 978"
    underline-thickness="38"
    underline-position="-83"
    slope="-7"
    stemh="63"
    stemv="68"
    unicode-range="U+0020-2715"
  />
<missing-glyph horiz-adv-x="404" 
 />
    <glyph glyph-name=".notdef" horiz-adv-x="404" 
 />
    <glyph glyph-name="A" unicode="A" 
d="M483 0l-35 174h-281l-78 -174h-90l328 710h90l154 -710h-88zM201 250h232l-72 353h-3z" />
    <glyph glyph-name="Aacute" unicode="&#xc1;" 
d="M565 933l-129 -141h-82l122 140zM483 0l-35 174h-281l-78 -174h-90l328 710h90l154 -710h-88zM201 250h232l-72 353h-3z" />
    <glyph glyph-name="Abreve" unicode="&#x102;" 
d="M385 789c-73 0 -125 50 -119 140h63c-4 -48 13 -81 57 -81c45 0 78 34 85 81h64c-17 -87 -75 -140 -150 -140zM483 0l-35 174h-281l-78 -174h-90l328 710h90l154 -710h-88zM201 250h232l-72 353h-3z" />
    <glyph glyph-name="uni1EAE" unicode="&#x1eae;" 
d="M560 947l-141 -104l-65 1l123 103h83zM380 747c-67 0 -116 39 -123 109h53c5 -36 26 -60 75 -60c39 0 69 21 88 60h55c-24 -68 -78 -109 -148 -109zM483 0l-35 174h-281l-78 -174h-90l328 710h90l154 -710h-88zM201 250h232l-72 353h-3z" />
    <glyph glyph-name="uni1EB6" unicode="&#x1eb6;" 
d="M386 789c-73 0 -125 50 -119 140h63c-4 -48 13 -81 57 -81c45 0 78 34 85 81h64c-17 -87 -75 -140 -150 -140zM571 0h-88l-35 174h-281l-78 -174h-90l328 710h90zM201 250h232l-72 353h-3zM270 -113c31 0 54 -23 54 -54c0 -32 -24 -56 -56 -56c-31 0 -55 23 -55 54
c0 33 25 56 57 56z" />
    <glyph glyph-name="uni1EB0" unicode="&#x1eb0;" 
d="M428 844l-65 -1l-128 104h85zM310 856c4 -36 25 -60 74 -60c39 0 69 21 89 60h55c-24 -68 -79 -109 -148 -109c-67 0 -117 39 -123 109h53zM483 0l-35 174h-281l-78 -174h-90l328 710h90l154 -710h-88zM201 250h232l-72 353h-3z" />
    <glyph glyph-name="uni1EB2" unicode="&#x1eb2;" 
d="M406 924c-25 0 -50 -14 -65 -31l-27 32c23 23 60 40 96 40c39 0 63 -24 63 -57c0 -41 -35 -62 -71 -76l-9 -18h-19c-9 2 -14 10 -14 19c0 33 68 42 68 73c0 11 -9 18 -22 18zM380 747c-67 0 -117 39 -123 109h53c4 -36 25 -60 74 -60c39 0 69 21 89 60h55
c-24 -68 -79 -109 -148 -109zM483 0l-35 174h-281l-78 -174h-90l328 710h90l154 -710h-88zM201 250h232l-72 353h-3z" />
    <glyph glyph-name="uni1EB4" unicode="&#x1eb4;" 
d="M337 918c-17 0 -36 -14 -51 -40l-42 16c21 44 54 71 92 71c32 0 52 -14 71 -26c15 -9 29 -17 46 -17c21 0 41 13 56 40l42 -12c-21 -49 -57 -75 -95 -75c-27 0 -48 12 -67 23c-18 11 -34 20 -52 20zM384 796c39 0 69 21 89 60h55c-24 -68 -79 -109 -148 -109
c-67 0 -117 39 -123 109h53c4 -36 25 -60 74 -60zM483 0l-35 174h-281l-78 -174h-90l328 710h90l154 -710h-88zM201 250h232l-72 353h-3z" />
    <glyph glyph-name="Acircumflex" unicode="&#xc2;" 
d="M396 884l-75 -93h-81l121 143h76l90 -143h-79l-51 93h-1zM483 0l-35 174h-281l-78 -174h-90l328 710h90l154 -710h-88zM201 250h232l-72 353h-3z" />
    <glyph glyph-name="uni1EA4" unicode="&#x1ea4;" 
d="M630 950h89l-144 -141h-62zM394 862l-75 -93h-81l121 143h76l90 -143h-79l-51 93h-1zM327 710h90l154 -710h-88l-35 174h-281l-78 -174h-90zM201 250h232l-72 353h-3z" />
    <glyph glyph-name="uni1EAC" unicode="&#x1eac;" 
d="M396 884l-75 -93h-81l121 143h76l90 -143h-79l-51 93h-1zM571 0h-88l-35 174h-281l-78 -174h-90l328 710h90zM201 250h232l-72 353h-3zM270 -113c31 0 54 -23 54 -54c0 -32 -24 -56 -56 -56c-31 0 -55 23 -55 54c0 33 25 56 57 56z" />
    <glyph glyph-name="uni1EA6" unicode="&#x1ea6;" 
d="M626 808h-62l-107 141h89zM392 862l-75 -93h-81l121 143h76l90 -143h-79l-51 93h-1zM327 710h90l154 -710h-88l-35 174h-281l-78 -174h-90zM201 250h232l-72 353h-3z" />
    <glyph glyph-name="uni1EA8" unicode="&#x1ea8;" 
d="M588 958c51 0 77 -30 77 -68c-1 -45 -35 -72 -87 -90l-9 -24l-31 1c-7 9 -12 16 -11 28c2 28 85 43 86 84c0 15 -14 22 -30 22c-27 0 -52 -14 -69 -33l-30 35c26 26 65 45 104 45zM391 862l-75 -93h-81l121 143h76l90 -143h-79l-51 93h-1zM327 710h90l154 -710h-88
l-35 174h-281l-78 -174h-90zM201 250h232l-72 353h-3z" />
    <glyph glyph-name="uni1EAA" unicode="&#x1eaa;" 
d="M349 918c-18 0 -36 -15 -50 -41l-39 18c20 44 48 70 81 70c31 0 50 -15 65 -27c15 -9 27 -16 42 -16c21 0 41 14 54 41l38 -15c-20 -49 -51 -73 -84 -73c-26 0 -45 13 -62 25c-16 10 -31 18 -45 18zM387 815l-80 -80h-71l120 122h68l94 -122h-69l-59 80h-3zM483 0
l-35 174h-281l-78 -174h-90l328 710h90l154 -710h-88zM201 250h232l-72 353h-3z" />
    <glyph glyph-name="Adieresis" unicode="&#xc4;" 
d="M308 813c-31 0 -54 23 -54 54c0 32 25 56 57 56c31 0 54 -23 54 -54c0 -33 -24 -56 -57 -56zM478 813c-31 0 -54 23 -54 54c0 32 24 56 57 56c30 0 54 -23 54 -54c0 -33 -25 -56 -57 -56zM483 0l-35 174h-281l-78 -174h-90l328 710h90l154 -710h-88zM201 250h232l-72 353
h-3z" />
    <glyph glyph-name="uni1EA0" unicode="&#x1ea0;" 
d="M571 0h-88l-35 174h-281l-78 -174h-90l328 710h90zM201 250h232l-72 353h-3zM270 -113c31 0 54 -23 54 -54c0 -32 -24 -56 -56 -56c-31 0 -55 23 -55 54c0 33 25 56 57 56z" />
    <glyph glyph-name="Agrave" unicode="&#xc0;" 
d="M416 792h-83l-95 141l91 -1zM483 0l-35 174h-281l-78 -174h-90l328 710h90l154 -710h-88zM201 250h232l-72 353h-3z" />
    <glyph glyph-name="uni1EA2" unicode="&#x1ea2;" 
d="M406 902c-27 0 -53 -14 -70 -33l-29 35c25 25 65 44 104 44c50 0 77 -29 77 -68c0 -44 -35 -71 -87 -89l-10 -24l-30 1c-7 9 -12 16 -12 27c3 28 86 43 86 84c0 16 -13 23 -29 23zM483 0l-35 174h-281l-78 -174h-90l328 710h90l154 -710h-88zM201 250h232l-72 353h-3z
" />
    <glyph glyph-name="Amacron" unicode="&#x100;" 
d="M530 899l-9 -68h-262l8 68h263zM483 0l-35 174h-281l-78 -174h-90l328 710h90l154 -710h-88zM201 250h232l-72 353h-3z" />
    <glyph glyph-name="Aogonek" unicode="&#x104;" 
d="M570 0c-53 -21 -88 -60 -89 -96c-1 -21 11 -35 34 -35c21 0 33 3 45 10l2 -53c-17 -8 -42 -12 -65 -12c-55 0 -84 26 -83 74c1 42 31 83 69 112l-35 174h-281l-78 -174h-90l328 710h90l154 -710h-1zM201 250h232l-72 353h-3z" />
    <glyph glyph-name="Aring" unicode="&#xc5;" 
d="M392 774c-52 0 -92 40 -92 93s40 93 95 93c53 0 93 -38 93 -90c0 -55 -41 -96 -96 -96zM395 910c-25 0 -44 -19 -44 -43s18 -42 42 -42c25 0 44 19 44 44c0 23 -18 41 -42 41zM483 0l-35 174h-281l-78 -174h-90l328 710h90l154 -710h-88zM201 250h232l-72 353h-3z" />
    <glyph glyph-name="Aringacute" unicode="&#x1fa;" 
d="M393 773c-52 0 -92 40 -92 93s40 93 95 93c29 0 54 -11 71 -30l66 49h93l-137 -100v-9c0 -55 -41 -96 -96 -96zM396 909c-25 0 -44 -19 -44 -43s18 -42 42 -42c25 0 44 19 44 44c0 23 -18 41 -42 41zM327 710h90l154 -710h-88l-35 174h-281l-78 -174h-90zM201 250h232
l-72 353h-3z" />
    <glyph glyph-name="Atilde" unicode="&#xc3;" 
d="M338 856c-26 0 -47 -22 -62 -56l-51 25c24 59 61 96 106 96c35 0 52 -17 70 -30c18 -14 34 -28 52 -28c23 0 46 20 62 56l50 -20c-25 -66 -63 -102 -104 -102c-33 0 -57 21 -75 36c-17 13 -32 23 -48 23zM483 0l-35 174h-281l-78 -174h-90l328 710h90l154 -710h-88z
M201 250h232l-72 353h-3z" />
    <glyph glyph-name="AE" unicode="&#xc6;" horiz-adv-x="862" 
d="M837 633h-313l-30 -241h261l-10 -77h-260l-29 -238h332l-10 -77h-415l22 174h-211l-102 -174h-93l424 710h444zM219 250h175l45 368h-3z" />
    <glyph glyph-name="AEacute" unicode="&#x1fc;" horiz-adv-x="862" 
d="M656 933l-129 -141h-82l122 140zM837 633h-313l-30 -241h261l-10 -77h-260l-29 -238h332l-10 -77h-415l22 174h-211l-102 -174h-93l424 710h444zM219 250h175l45 368h-3z" />
    <glyph glyph-name="B" unicode="B" horiz-adv-x="603" 
d="M435 375c64 -17 108 -61 108 -144c0 -136 -96 -231 -242 -231h-237l87 710h220c114 0 181 -41 181 -143c0 -78 -41 -158 -117 -190v-2zM228 633l-28 -229h125c78 0 138 63 138 148c0 54 -34 81 -111 81h-124zM283 77c101 0 172 64 172 154c0 67 -40 98 -130 98h-135
l-30 -252h123z" />
    <glyph glyph-name="C" unicode="C" horiz-adv-x="679" 
d="M609 113c-64 -70 -157 -119 -258 -119c-162 0 -279 105 -279 298c0 228 147 425 363 425c89 0 176 -38 245 -150l-73 -50c-46 83 -102 119 -174 119c-164 0 -272 -168 -272 -344c0 -134 70 -218 193 -218c68 0 141 36 191 94z" />
    <glyph glyph-name="Cacute" unicode="&#x106;" horiz-adv-x="679" 
d="M530 932l89 1l-129 -141h-82zM609 113c-64 -70 -157 -119 -258 -119c-162 0 -279 105 -279 298c0 228 147 425 363 425c89 0 176 -38 245 -150l-73 -50c-46 83 -102 119 -174 119c-164 0 -272 -168 -272 -344c0 -134 70 -218 193 -218c68 0 141 36 191 94z" />
    <glyph glyph-name="Ccaron" unicode="&#x10c;" horiz-adv-x="679" 
d="M502 790h-76l-87 143h78l51 -94h1l75 94h82zM354 74c68 0 141 36 191 94l64 -55c-64 -70 -157 -119 -258 -119c-162 0 -279 105 -279 298c0 228 147 425 363 425c89 0 176 -38 245 -150l-73 -50c-46 83 -102 119 -174 119c-164 0 -272 -168 -272 -344
c0 -134 70 -218 193 -218z" />
    <glyph glyph-name="Ccedilla" unicode="&#xc7;" horiz-adv-x="679" 
d="M354 74c68 0 141 36 191 94l64 -55c-63 -69 -155 -118 -255 -119l-17 -26l2 -2c45 -2 73 -22 73 -63c0 -49 -45 -91 -108 -91c-18 0 -38 3 -51 7l3 42c11 -4 24 -6 41 -6c31 0 58 16 58 47c0 21 -22 31 -69 32l3 30l16 29v4c-138 18 -233 121 -233 295
c0 228 147 425 363 425c89 0 176 -38 245 -150l-73 -50c-46 83 -102 119 -174 119c-164 0 -272 -168 -272 -344c0 -134 70 -218 193 -218z" />
    <glyph glyph-name="Ccircumflex" unicode="&#x108;" horiz-adv-x="679" 
d="M476 884l-75 -93h-81l121 143h76l90 -143h-79l-51 93h-1zM354 74c68 0 141 36 191 94l64 -55c-64 -70 -157 -119 -258 -119c-162 0 -279 105 -279 298c0 228 147 425 363 425c89 0 176 -38 245 -150l-73 -50c-46 83 -102 119 -174 119c-164 0 -272 -168 -272 -344
c0 -134 70 -218 193 -218z" />
    <glyph glyph-name="Cdotaccent" unicode="&#x10a;" horiz-adv-x="679" 
d="M477 923c31 0 55 -23 55 -54c0 -33 -25 -56 -57 -56c-31 0 -54 23 -54 54c0 32 24 56 56 56zM609 113c-64 -70 -157 -119 -258 -119c-162 0 -279 105 -279 298c0 228 147 425 363 425c89 0 176 -38 245 -150l-73 -50c-46 83 -102 119 -174 119
c-164 0 -272 -168 -272 -344c0 -134 70 -218 193 -218c68 0 141 36 191 94z" />
    <glyph glyph-name="D" unicode="D" horiz-adv-x="685" 
d="M263 0h-199l87 710h201c189 0 288 -112 288 -292c0 -248 -147 -418 -377 -418zM271 77c170 0 280 144 280 341c0 132 -71 215 -206 215h-117l-68 -556h111z" />
    <glyph glyph-name="Eth" unicode="&#xd0;" horiz-adv-x="683" 
d="M353 710c189 0 288 -112 288 -292c0 -248 -147 -418 -377 -418h-199l40 324h-56l9 75h56l38 311h201zM272 77c170 0 280 144 280 341c0 132 -71 215 -206 215h-117l-29 -234h126l-9 -75h-126l-30 -247h111z" />
    <glyph glyph-name="Dcaron" unicode="&#x10e;" horiz-adv-x="685" 
d="M447 790h-76l-87 143h78l51 -94h1l75 94h82zM352 710c189 0 288 -112 288 -292c0 -248 -147 -418 -377 -418h-199l87 710h201zM271 77c170 0 280 144 280 341c0 132 -71 215 -206 215h-117l-68 -556h111z" />
    <glyph glyph-name="Dcroat" unicode="&#x110;" horiz-adv-x="683" 
d="M353 710c189 0 288 -112 288 -292c0 -248 -147 -418 -377 -418h-199l40 324h-56l9 75h56l38 311h201zM272 77c170 0 280 144 280 341c0 132 -71 215 -206 215h-117l-29 -234h126l-9 -75h-126l-30 -247h111z" />
    <glyph glyph-name="E" unicode="E" horiz-adv-x="563" 
d="M489 77l-10 -77h-415l87 710h396l-9 -77h-311l-30 -241h255l-9 -77h-255l-29 -238h330z" />
    <glyph glyph-name="Eacute" unicode="&#xc9;" horiz-adv-x="563" 
d="M402 933l89 1l-129 -141h-82zM489 77l-10 -77h-415l87 710h396l-9 -77h-311l-30 -241h255l-9 -77h-255l-29 -238h330z" />
    <glyph glyph-name="Ebreve" unicode="&#x114;" horiz-adv-x="563" 
d="M367 790c-73 0 -125 50 -119 140h63c-4 -48 13 -81 57 -81c45 0 78 34 85 81h64c-17 -87 -75 -140 -150 -140zM489 77l-10 -77h-415l87 710h396l-9 -77h-311l-30 -241h255l-9 -77h-255l-29 -238h330z" />
    <glyph glyph-name="Ecaron" unicode="&#x11a;" horiz-adv-x="563" 
d="M404 791h-76l-87 143h78l51 -94h1l75 94h82zM538 633h-311l-30 -241h255l-9 -77h-255l-29 -238h330l-10 -77h-415l87 710h396z" />
    <glyph glyph-name="Ecircumflex" unicode="&#xca;" horiz-adv-x="563" 
d="M378 885l-75 -93h-81l121 143h76l90 -143h-79l-51 93h-1zM538 633h-311l-30 -241h255l-9 -77h-255l-29 -238h330l-10 -77h-415l87 710h396z" />
    <glyph glyph-name="uni1EBE" unicode="&#x1ebe;" horiz-adv-x="563" 
d="M612 951h89l-144 -141h-62zM376 863l-75 -93h-81l121 143h76l90 -143h-79l-51 93h-1zM64 0l87 710h396l-9 -77h-311l-30 -241h255l-9 -77h-255l-29 -238h330l-10 -77h-415z" />
    <glyph glyph-name="uni1EC6" unicode="&#x1ec6;" horiz-adv-x="563" 
d="M378 885l-75 -93h-81l121 143h76l90 -143h-79l-51 93h-1zM538 633h-311l-30 -241h255l-9 -77h-255l-29 -238h330l-10 -77h-415l87 710h396zM260 -113c31 0 54 -23 54 -54c0 -32 -24 -56 -56 -56c-31 0 -55 23 -55 54c0 33 25 56 57 56z" />
    <glyph glyph-name="uni1EC0" unicode="&#x1ec0;" horiz-adv-x="563" 
d="M608 809h-62l-107 141h89zM374 863l-75 -93h-81l121 143h76l90 -143h-79l-51 93h-1zM64 0l87 710h396l-9 -77h-311l-30 -241h255l-9 -77h-255l-29 -238h330l-10 -77h-415z" />
    <glyph glyph-name="uni1EC2" unicode="&#x1ec2;" horiz-adv-x="563" 
d="M570 959c51 0 77 -30 77 -68c-1 -45 -35 -72 -87 -90l-9 -24l-31 1c-7 9 -12 16 -11 28c2 28 85 43 86 84c0 15 -14 22 -30 22c-27 0 -52 -14 -69 -33l-30 35c26 26 65 45 104 45zM373 863l-75 -93h-81l121 143h76l90 -143h-79l-51 93h-1zM64 0l87 710h396l-9 -77h-311
l-30 -241h255l-9 -77h-255l-29 -238h330l-10 -77h-415z" />
    <glyph glyph-name="uni1EC4" unicode="&#x1ec4;" horiz-adv-x="563" 
d="M331 919c-18 0 -36 -15 -50 -41l-39 18c20 44 48 70 81 70c31 0 50 -15 65 -27c15 -9 27 -16 42 -16c21 0 41 14 54 41l38 -15c-20 -49 -51 -73 -84 -73c-26 0 -45 13 -62 25c-16 10 -31 18 -45 18zM369 816l-80 -80h-71l120 122h68l94 -122h-69l-59 80h-3zM538 633h-311
l-30 -241h255l-9 -77h-255l-29 -238h330l-10 -77h-415l87 710h396z" />
    <glyph glyph-name="Edieresis" unicode="&#xcb;" horiz-adv-x="563" 
d="M293 924c31 0 54 -23 54 -54c0 -33 -24 -56 -57 -56c-31 0 -54 23 -54 54c0 32 25 56 57 56zM463 924c30 0 54 -23 54 -54c0 -33 -25 -56 -57 -56c-31 0 -54 23 -54 54c0 32 24 56 57 56zM489 77l-10 -77h-415l87 710h396l-9 -77h-311l-30 -241h255l-9 -77h-255l-29 -238
h330z" />
    <glyph glyph-name="Edotaccent" unicode="&#x116;" horiz-adv-x="563" 
d="M379 924c31 0 55 -23 55 -54c0 -33 -25 -56 -57 -56c-31 0 -54 23 -54 54c0 32 24 56 56 56zM489 77l-10 -77h-415l87 710h396l-9 -77h-311l-30 -241h255l-9 -77h-255l-29 -238h330z" />
    <glyph glyph-name="uni1EB8" unicode="&#x1eb8;" horiz-adv-x="563" 
d="M489 77l-10 -77h-415l87 710h396l-9 -77h-311l-30 -241h255l-9 -77h-255l-29 -238h330zM258 -223c-31 0 -55 23 -55 54c0 33 25 56 57 56c31 0 54 -23 54 -54c0 -32 -24 -56 -56 -56z" />
    <glyph glyph-name="Egrave" unicode="&#xc8;" horiz-adv-x="563" 
d="M367 933l87 -140h-83l-95 141zM489 77l-10 -77h-415l87 710h396l-9 -77h-311l-30 -241h255l-9 -77h-255l-29 -238h330z" />
    <glyph glyph-name="uni1EBA" unicode="&#x1eba;" horiz-adv-x="563" 
d="M318 870l-29 35c25 25 65 44 104 44c50 0 77 -29 77 -68c0 -44 -35 -71 -87 -89l-10 -24l-30 1c-7 9 -12 16 -12 27c3 28 86 43 86 84c0 16 -13 23 -29 23c-27 0 -53 -14 -70 -33zM489 77l-10 -77h-415l87 710h396l-9 -77h-311l-30 -241h255l-9 -77h-255l-29 -238h330z
" />
    <glyph glyph-name="Emacron" unicode="&#x112;" horiz-adv-x="563" 
d="M249 900h263l-9 -68h-262zM489 77l-10 -77h-415l87 710h396l-9 -77h-311l-30 -241h255l-9 -77h-255l-29 -238h330z" />
    <glyph glyph-name="Eogonek" unicode="&#x118;" horiz-adv-x="563" 
d="M538 633h-311l-30 -241h255l-9 -77h-255l-29 -238h330l-10 -77c-53 -21 -88 -60 -89 -96c-1 -21 11 -35 34 -35c21 0 33 3 45 10l2 -53c-17 -8 -42 -12 -65 -12c-55 0 -84 26 -83 74c1 41 30 82 67 111l1 1h-327l87 710h396z" />
    <glyph glyph-name="uni1EBC" unicode="&#x1ebc;" horiz-adv-x="563" 
d="M207 826c24 59 61 96 106 96c35 0 52 -17 70 -30c18 -14 34 -28 52 -28c23 0 46 20 62 56l50 -20c-25 -66 -63 -102 -104 -102c-33 0 -57 21 -75 36c-17 13 -32 23 -48 23c-26 0 -47 -22 -62 -56zM489 77l-10 -77h-415l87 710h396l-9 -77h-311l-30 -241h255l-9 -77h-255
l-29 -238h330z" />
    <glyph glyph-name="F" unicode="F" horiz-adv-x="548" 
d="M228 633l-32 -253h277l-9 -77h-277l-37 -303h-86l87 710h412l-9 -77h-326z" />
    <glyph glyph-name="G" unicode="G" horiz-adv-x="709" 
d="M647 365l-33 -282c-66 -57 -165 -89 -259 -89c-167 0 -284 105 -284 297c0 229 150 426 362 426c94 0 177 -35 236 -117l-69 -54c-44 61 -101 90 -170 90c-158 0 -269 -159 -269 -343c0 -136 71 -220 198 -220c61 0 126 16 175 59l20 156h-181l10 77h264z" />
    <glyph glyph-name="Gbreve" unicode="&#x11e;" horiz-adv-x="709" 
d="M451 789c-73 0 -125 50 -119 140h63c-4 -48 13 -81 57 -81c45 0 78 34 85 81h64c-17 -87 -75 -140 -150 -140zM647 365l-33 -282c-66 -57 -165 -89 -259 -89c-167 0 -284 105 -284 297c0 229 150 426 362 426c94 0 177 -35 236 -117l-69 -54c-44 61 -101 90 -170 90
c-158 0 -269 -159 -269 -343c0 -136 71 -220 198 -220c61 0 126 16 175 59l20 156h-181l10 77h264z" />
    <glyph glyph-name="Gcaron" unicode="&#x1e6;" horiz-adv-x="709" 
d="M488 790h-76l-87 143h78l51 -94h1l75 94h82zM373 288l10 77h264l-33 -282c-66 -57 -165 -89 -259 -89c-167 0 -284 105 -284 297c0 229 150 426 362 426c94 0 177 -35 236 -117l-69 -54c-44 61 -101 90 -170 90c-158 0 -269 -159 -269 -343c0 -136 71 -220 198 -220
c61 0 126 16 175 59l20 156h-181z" />
    <glyph glyph-name="Gcircumflex" unicode="&#x11c;" horiz-adv-x="709" 
d="M462 884l-75 -93h-81l121 143h76l90 -143h-79l-51 93h-1zM373 288l10 77h264l-33 -282c-66 -57 -165 -89 -259 -89c-167 0 -284 105 -284 297c0 229 150 426 362 426c94 0 177 -35 236 -117l-69 -54c-44 61 -101 90 -170 90c-158 0 -269 -159 -269 -343
c0 -136 71 -220 198 -220c61 0 126 16 175 59l20 156h-181z" />
    <glyph glyph-name="Gcommaaccent" unicode="&#x122;" horiz-adv-x="709" 
d="M647 365l-33 -282c-66 -57 -165 -89 -259 -89c-167 0 -284 105 -284 297c0 229 150 426 362 426c94 0 177 -35 236 -117l-69 -54c-44 61 -101 90 -170 90c-158 0 -269 -159 -269 -343c0 -136 71 -220 198 -220c61 0 126 16 175 59l20 156h-181l10 77h264zM377 -53
c1 -5 1 -9 1 -23c0 -77 -40 -129 -122 -136l-13 49c45 11 64 35 64 87c0 8 0 14 -1 23h71z" />
    <glyph glyph-name="Gdotaccent" unicode="&#x120;" horiz-adv-x="709" 
d="M463 923c31 0 55 -23 55 -54c0 -33 -25 -56 -57 -56c-31 0 -54 23 -54 54c0 32 24 56 56 56zM647 365l-33 -282c-66 -57 -165 -89 -259 -89c-167 0 -284 105 -284 297c0 229 150 426 362 426c94 0 177 -35 236 -117l-69 -54c-44 61 -101 90 -170 90
c-158 0 -269 -159 -269 -343c0 -136 71 -220 198 -220c61 0 126 16 175 59l20 156h-181l10 77h264z" />
    <glyph glyph-name="H" unicode="H" horiz-adv-x="686" 
d="M649 710l-87 -710h-85l37 299h-327l-37 -299h-86l87 710h86l-41 -334h327l41 334h85z" />
    <glyph glyph-name="Hbar" unicode="&#x126;" horiz-adv-x="691" 
d="M682 583l-7 -57h-47l-64 -526h-85l37 299h-327l-37 -299h-86l64 526h-52l7 57h52l16 127h86l-16 -127h327l16 127h85l-16 -127h47zM525 376l18 150h-327l-18 -150h327z" />
    <glyph glyph-name="Hcircumflex" unicode="&#x124;" horiz-adv-x="686" 
d="M425 884l-75 -93h-81l121 143h76l90 -143h-79l-51 93h-1zM564 710h85l-87 -710h-85l37 299h-327l-37 -299h-86l87 710h86l-41 -334h327z" />
    <glyph glyph-name="I" unicode="I" horiz-adv-x="285" 
d="M155 0h-85l87 710h86z" />
    <glyph glyph-name="IJ" unicode="&#x132;" horiz-adv-x="756" 
d="M155 0h-85l87 710h86zM357 146c28 -43 59 -71 105 -71c60 0 111 46 126 169l57 466h87l-58 -470c-20 -164 -91 -246 -208 -246c-74 0 -129 32 -167 93z" />
    <glyph glyph-name="Iacute" unicode="&#xcd;" horiz-adv-x="285" 
d="M301 932l89 1l-129 -141h-82zM155 0h-85l87 710h86z" />
    <glyph glyph-name="Ibreve" unicode="&#x12c;" horiz-adv-x="285" 
d="M210 789c-73 0 -125 50 -119 140h63c-4 -48 13 -81 57 -81c45 0 78 34 85 81h64c-17 -87 -75 -140 -150 -140zM155 0h-85l87 710h86z" />
    <glyph glyph-name="Icircumflex" unicode="&#xce;" horiz-adv-x="285" 
d="M262 934l90 -143h-79l-51 93h-1l-75 -93h-81l121 143h76zM70 0l87 710h86l-88 -710h-85z" />
    <glyph glyph-name="Idieresis" unicode="&#xcf;" horiz-adv-x="285" 
d="M136 923c31 0 54 -23 54 -54c0 -33 -24 -56 -57 -56c-31 0 -54 23 -54 54c0 32 25 56 57 56zM306 923c30 0 54 -23 54 -54c0 -33 -25 -56 -57 -56c-31 0 -54 23 -54 54c0 32 24 56 57 56zM155 0h-85l87 710h86z" />
    <glyph glyph-name="Idotaccent" unicode="&#x130;" horiz-adv-x="285" 
d="M222 923c31 0 55 -23 55 -54c0 -33 -25 -56 -57 -56c-31 0 -54 23 -54 54c0 32 24 56 56 56zM155 0h-85l87 710h86z" />
    <glyph glyph-name="uni1ECA" unicode="&#x1eca;" horiz-adv-x="285" 
d="M155 0h-85l87 710h86zM91 -223c-31 0 -55 23 -55 54c0 33 25 56 57 56c31 0 54 -23 54 -54c0 -32 -24 -56 -56 -56z" />
    <glyph glyph-name="Igrave" unicode="&#xcc;" horiz-adv-x="285" 
d="M160 932l87 -140h-83l-95 141zM155 0h-85l87 710h86z" />
    <glyph glyph-name="uni1EC8" unicode="&#x1ec8;" horiz-adv-x="285" 
d="M161 869l-29 35c25 25 65 44 104 44c50 0 77 -29 77 -68c0 -44 -35 -71 -87 -89l-10 -24l-30 1c-7 9 -12 16 -12 27c3 28 86 43 86 84c0 16 -13 23 -29 23c-27 0 -53 -14 -70 -33zM155 0h-85l87 710h86z" />
    <glyph glyph-name="Imacron" unicode="&#x12a;" horiz-adv-x="285" 
d="M92 899h263l-9 -68h-262zM155 0h-85l87 710h86z" />
    <glyph glyph-name="Iogonek" unicode="&#x12e;" horiz-adv-x="285" 
d="M155 0c-53 -21 -88 -60 -89 -96c-1 -21 11 -35 34 -35c21 0 33 3 45 10l2 -53c-17 -8 -42 -12 -65 -12c-55 0 -84 26 -83 74c1 42 32 84 71 113l87 709h86z" />
    <glyph glyph-name="Itilde" unicode="&#x128;" horiz-adv-x="285" 
d="M50 825c24 59 61 96 106 96c35 0 52 -17 70 -30c18 -14 34 -28 52 -28c23 0 46 20 62 56l50 -20c-25 -66 -63 -102 -104 -102c-33 0 -57 21 -75 36c-17 13 -32 23 -48 23c-26 0 -47 -22 -62 -56zM155 0h-85l87 710h86z" />
    <glyph glyph-name="J" unicode="J" horiz-adv-x="471" 
d="M72 146c28 -43 59 -71 105 -71c60 0 111 46 126 169l57 466h87l-58 -470c-20 -164 -91 -246 -208 -246c-74 0 -129 32 -167 93z" />
    <glyph glyph-name="Jcircumflex" unicode="&#x134;" horiz-adv-x="471" 
d="M466 934l90 -143h-79l-51 93h-1l-75 -93h-81l121 143h76zM303 244l57 466h87l-58 -470c-20 -164 -91 -246 -208 -246c-74 0 -129 32 -167 93l58 59c28 -43 59 -71 105 -71c60 0 111 46 126 169z" />
    <glyph glyph-name="K" unicode="K" horiz-adv-x="613" 
d="M632 710l-285 -323l204 -387h-104l-163 313h-3l-108 -122l-23 -191h-86l87 710h86l-47 -382h3l329 382h110z" />
    <glyph glyph-name="Kcommaaccent" unicode="&#x136;" horiz-adv-x="613" 
d="M632 710l-285 -323l204 -387h-104l-163 313h-3l-108 -122l-23 -191h-86l87 710h86l-47 -382h3l329 382h110zM240 -53h71c1 -5 1 -9 1 -23c0 -77 -40 -129 -122 -136l-13 49c45 11 64 35 64 87c0 8 0 14 -1 23z" />
    <glyph glyph-name="L" unicode="L" horiz-adv-x="530" 
d="M473 77l-10 -77h-399l87 710h86l-78 -633h314z" />
    <glyph glyph-name="Lacute" unicode="&#x139;" horiz-adv-x="530" 
d="M384 932l89 1l-129 -141h-82zM473 77l-10 -77h-399l87 710h86l-78 -633h314z" />
    <glyph glyph-name="Lcaron" unicode="&#x13d;" horiz-adv-x="530" 
d="M373 772h82l-70 -184h-61zM473 77l-10 -77h-399l87 710h86l-78 -633h314z" />
    <glyph glyph-name="Lcommaaccent" unicode="&#x13b;" horiz-adv-x="530" 
d="M473 77l-10 -77h-399l87 710h86l-78 -633h314zM288 -53c1 -5 1 -9 1 -23c0 -77 -40 -129 -122 -136l-13 49c45 11 64 35 64 87c0 8 0 14 -1 23h71z" />
    <glyph glyph-name="Ldot" unicode="&#x13f;" horiz-adv-x="530" 
d="M473 77l-10 -77h-399l87 710h86l-78 -633h314zM409 393c30 0 54 -23 54 -55s-25 -56 -57 -56c-31 0 -54 23 -54 54c0 33 24 57 57 57z" />
    <glyph glyph-name="Lslash" unicode="&#x141;" horiz-adv-x="536" 
d="M165 77h314l-10 -77h-399l35 285l-78 -37l10 72l77 36l43 354h86l-38 -310l85 40l-10 -72l-84 -40z" />
    <glyph glyph-name="M" unicode="M" horiz-adv-x="823" 
d="M693 710h93l-88 -710h-85l66 535h-3l-246 -391h-60l-152 398h-3l-65 -542h-86l87 710h91l170 -455h2z" />
    <glyph glyph-name="N" unicode="N" horiz-adv-x="712" 
d="M589 710h86l-88 -710h-91l-276 559h-2l-68 -559h-86l87 710h90l277 -566h3z" />
    <glyph glyph-name="Nacute" unicode="&#x143;" horiz-adv-x="712" 
d="M553 933l-129 -141h-82l122 140zM589 710h86l-88 -710h-91l-276 559h-2l-68 -559h-86l87 710h90l277 -566h3z" />
    <glyph glyph-name="Ncaron" unicode="&#x147;" horiz-adv-x="712" 
d="M466 790h-76l-87 143h78l51 -94h1l75 94h82zM589 710h86l-88 -710h-91l-276 559h-2l-68 -559h-86l87 710h90l277 -566h3z" />
    <glyph glyph-name="Ncommaaccent" unicode="&#x145;" horiz-adv-x="712" 
d="M589 710h86l-88 -710h-91l-276 559h-2l-68 -559h-86l87 710h90l277 -566h3zM284 -53h71c1 -5 1 -9 1 -23c0 -77 -40 -129 -122 -136l-13 49c45 11 64 35 64 87c0 8 0 14 -1 23z" />
    <glyph glyph-name="Eng" unicode="&#x14a;" horiz-adv-x="712" 
d="M589 710h86l-73 -602l-19 -154c-14 -107 -59 -158 -141 -158c-34 0 -56 7 -77 20l19 65c17 -12 31 -16 47 -16c35 0 58 22 67 99l3 23l-281 573h-1l-69 -560h-86l87 710h90l278 -567h1z" />
    <glyph glyph-name="uni019D" unicode="&#x19d;" horiz-adv-x="712" 
d="M589 710h86l-88 -710h-91l-275 559h-2l-75 -605c-13 -107 -58 -158 -140 -158c-35 0 -56 7 -77 20l19 65c17 -12 31 -16 47 -16c34 0 57 22 67 99l91 746h90l277 -566h2z" />
    <glyph glyph-name="Ntilde" unicode="&#xd1;" horiz-adv-x="712" 
d="M382 856c-26 0 -47 -22 -62 -56l-51 25c24 59 61 96 106 96c35 0 52 -17 70 -30c18 -14 34 -28 52 -28c23 0 46 20 62 56l50 -20c-25 -66 -63 -102 -104 -102c-33 0 -57 21 -75 36c-17 13 -32 23 -48 23zM589 710h86l-88 -710h-91l-276 559h-2l-68 -559h-86l87 710h90
l277 -566h3z" />
    <glyph glyph-name="O" unicode="O" horiz-adv-x="765" 
d="M439 716c168 0 282 -107 282 -296c0 -228 -139 -426 -368 -426c-169 0 -281 109 -281 297c0 223 146 425 367 425zM359 73c164 0 273 164 273 344c0 146 -77 219 -202 219c-160 0 -270 -168 -270 -343c0 -143 78 -220 199 -220z" />
    <glyph glyph-name="Oacute" unicode="&#xd3;" horiz-adv-x="765" 
d="M537 932l89 1l-129 -141h-82zM439 716c168 0 282 -107 282 -296c0 -228 -139 -426 -368 -426c-169 0 -281 109 -281 297c0 223 146 425 367 425zM359 73c164 0 273 164 273 344c0 146 -77 219 -202 219c-160 0 -270 -168 -270 -343c0 -143 78 -220 199 -220z" />
    <glyph glyph-name="Obreve" unicode="&#x14e;" horiz-adv-x="765" 
d="M472 789c-73 0 -125 50 -119 140h63c-4 -48 13 -81 57 -81c45 0 78 34 85 81h64c-17 -87 -75 -140 -150 -140zM439 716c168 0 282 -107 282 -296c0 -228 -139 -426 -368 -426c-169 0 -281 109 -281 297c0 223 146 425 367 425zM359 73c164 0 273 164 273 344
c0 146 -77 219 -202 219c-160 0 -270 -168 -270 -343c0 -143 78 -220 199 -220z" />
    <glyph glyph-name="Ocircumflex" unicode="&#xd4;" horiz-adv-x="765" 
d="M483 884l-75 -93h-81l121 143h76l90 -143h-79l-51 93h-1zM439 716c168 0 282 -107 282 -296c0 -228 -139 -426 -368 -426c-169 0 -281 109 -281 297c0 223 146 425 367 425zM359 73c164 0 273 164 273 344c0 146 -77 219 -202 219c-160 0 -270 -168 -270 -343
c0 -143 78 -220 199 -220z" />
    <glyph glyph-name="uni1ED0" unicode="&#x1ed0;" horiz-adv-x="765" 
d="M806 950l-144 -141h-62l117 141h89zM481 862l-75 -93h-81l121 143h76l90 -143h-79l-51 93h-1zM439 716c168 0 282 -107 282 -296c0 -228 -139 -426 -368 -426c-169 0 -281 109 -281 297c0 223 146 425 367 425zM359 73c164 0 273 164 273 344c0 146 -77 219 -202 219
c-160 0 -270 -168 -270 -343c0 -143 78 -220 199 -220z" />
    <glyph glyph-name="uni1ED8" unicode="&#x1ed8;" horiz-adv-x="765" 
d="M483 884l-75 -93h-81l121 143h76l90 -143h-79l-51 93h-1zM439 716c168 0 282 -107 282 -296c0 -228 -139 -426 -368 -426c-169 0 -281 109 -281 297c0 223 146 425 367 425zM359 73c164 0 273 164 273 344c0 146 -77 219 -202 219c-160 0 -270 -168 -270 -343
c0 -143 78 -220 199 -220zM333 -113c31 0 54 -23 54 -54c0 -32 -24 -56 -56 -56c-31 0 -55 23 -55 54c0 33 25 56 57 56z" />
    <glyph glyph-name="uni1ED2" unicode="&#x1ed2;" horiz-adv-x="765" 
d="M713 808h-62l-107 141h89zM479 862l-75 -93h-81l121 143h76l90 -143h-79l-51 93h-1zM439 716c168 0 282 -107 282 -296c0 -228 -139 -426 -368 -426c-169 0 -281 109 -281 297c0 223 146 425 367 425zM359 73c164 0 273 164 273 344c0 146 -77 219 -202 219
c-160 0 -270 -168 -270 -343c0 -143 78 -220 199 -220z" />
    <glyph glyph-name="uni1ED4" unicode="&#x1ed4;" horiz-adv-x="765" 
d="M675 958c51 0 77 -30 77 -68c-1 -45 -35 -72 -87 -90l-9 -24l-31 1c-7 9 -12 16 -11 28c2 28 85 43 86 84c0 15 -14 22 -30 22c-27 0 -52 -14 -69 -33l-30 35c26 26 65 45 104 45zM478 862l-75 -93h-81l121 143h76l90 -143h-79l-51 93h-1zM439 716
c168 0 282 -107 282 -296c0 -228 -139 -426 -368 -426c-169 0 -281 109 -281 297c0 223 146 425 367 425zM359 73c164 0 273 164 273 344c0 146 -77 219 -202 219c-160 0 -270 -168 -270 -343c0 -143 78 -220 199 -220z" />
    <glyph glyph-name="uni1ED6" unicode="&#x1ed6;" horiz-adv-x="765" 
d="M436 918c-18 0 -36 -15 -50 -41l-39 18c20 44 48 70 81 70c31 0 50 -15 65 -27c15 -9 27 -16 42 -16c21 0 41 14 54 41l38 -15c-20 -49 -51 -73 -84 -73c-26 0 -45 13 -62 25c-16 10 -31 18 -45 18zM474 815l-80 -80h-71l120 122h68l94 -122h-69l-59 80h-3zM439 716
c168 0 282 -107 282 -296c0 -228 -139 -426 -368 -426c-169 0 -281 109 -281 297c0 223 146 425 367 425zM359 73c164 0 273 164 273 344c0 146 -77 219 -202 219c-160 0 -270 -168 -270 -343c0 -143 78 -220 199 -220z" />
    <glyph glyph-name="Odieresis" unicode="&#xd6;" horiz-adv-x="765" 
d="M398 923c31 0 54 -23 54 -54c0 -33 -24 -56 -57 -56c-31 0 -54 23 -54 54c0 32 25 56 57 56zM568 923c30 0 54 -23 54 -54c0 -33 -25 -56 -57 -56c-31 0 -54 23 -54 54c0 32 24 56 57 56zM439 716c168 0 282 -107 282 -296c0 -228 -139 -426 -368 -426
c-169 0 -281 109 -281 297c0 223 146 425 367 425zM359 73c164 0 273 164 273 344c0 146 -77 219 -202 219c-160 0 -270 -168 -270 -343c0 -143 78 -220 199 -220z" />
    <glyph glyph-name="uni1ECC" unicode="&#x1ecc;" horiz-adv-x="765" 
d="M439 716c168 0 282 -107 282 -296c0 -228 -139 -426 -368 -426c-169 0 -281 109 -281 297c0 223 146 425 367 425zM359 73c164 0 273 164 273 344c0 146 -77 219 -202 219c-160 0 -270 -168 -270 -343c0 -143 78 -220 199 -220zM331 -223c-31 0 -55 23 -55 54
c0 33 25 56 57 56c31 0 54 -23 54 -54c0 -32 -24 -56 -56 -56z" />
    <glyph glyph-name="Ograve" unicode="&#xd2;" horiz-adv-x="765" 
d="M428 932l87 -140h-83l-95 141zM439 716c168 0 282 -107 282 -296c0 -228 -139 -426 -368 -426c-169 0 -281 109 -281 297c0 223 146 425 367 425zM359 73c164 0 273 164 273 344c0 146 -77 219 -202 219c-160 0 -270 -168 -270 -343c0 -143 78 -220 199 -220z" />
    <glyph glyph-name="uni1ECE" unicode="&#x1ece;" horiz-adv-x="765" 
d="M423 869l-29 35c25 25 65 44 104 44c50 0 77 -29 77 -68c0 -44 -35 -71 -87 -89l-10 -24l-30 1c-7 9 -12 16 -12 27c3 28 86 43 86 84c0 16 -13 23 -29 23c-27 0 -53 -14 -70 -33zM439 716c168 0 282 -107 282 -296c0 -228 -139 -426 -368 -426c-169 0 -281 109 -281 297
c0 223 146 425 367 425zM359 73c164 0 273 164 273 344c0 146 -77 219 -202 219c-160 0 -270 -168 -270 -343c0 -143 78 -220 199 -220z" />
    <glyph glyph-name="Ohorn" unicode="&#x1a0;" horiz-adv-x="807" 
d="M758 774h75l-12 -95c-13 -98 -53 -147 -112 -156l-1 -1c9 -31 13 -65 13 -102c0 -228 -139 -426 -368 -426c-169 0 -281 109 -281 297c0 223 146 425 367 425c116 0 205 -51 250 -144c37 5 49 49 58 119zM359 73c164 0 273 164 273 344c0 146 -77 219 -202 219
c-160 0 -270 -168 -270 -343c0 -143 78 -220 199 -220z" />
    <glyph glyph-name="uni1EDA" unicode="&#x1eda;" horiz-adv-x="807" 
d="M626 933l-129 -141h-82l122 140zM758 774h75l-12 -95c-13 -98 -53 -147 -112 -156l-1 -1c9 -31 13 -65 13 -102c0 -228 -139 -426 -368 -426c-169 0 -281 109 -281 297c0 223 146 425 367 425c116 0 205 -51 250 -144c37 5 49 49 58 119zM359 73c164 0 273 164 273 344
c0 146 -77 219 -202 219c-160 0 -270 -168 -270 -343c0 -143 78 -220 199 -220z" />
    <glyph glyph-name="uni1EE2" unicode="&#x1ee2;" horiz-adv-x="807" 
d="M758 774h75l-12 -95c-13 -98 -53 -147 -112 -156l-1 -1c9 -31 13 -65 13 -102c0 -228 -139 -426 -368 -426c-169 0 -281 109 -281 297c0 223 146 425 367 425c116 0 205 -51 250 -144c37 5 49 49 58 119zM359 73c164 0 273 164 273 344c0 146 -77 219 -202 219
c-160 0 -270 -168 -270 -343c0 -143 78 -220 199 -220zM333 -113c31 0 54 -23 54 -54c0 -32 -24 -56 -56 -56c-31 0 -55 23 -55 54c0 33 25 56 57 56z" />
    <glyph glyph-name="uni1EDC" unicode="&#x1edc;" horiz-adv-x="807" 
d="M515 792h-83l-95 141l91 -1zM758 774h75l-12 -95c-13 -98 -53 -147 -112 -156l-1 -1c9 -31 13 -65 13 -102c0 -228 -139 -426 -368 -426c-169 0 -281 109 -281 297c0 223 146 425 367 425c116 0 205 -51 250 -144c37 5 49 49 58 119zM359 73c164 0 273 164 273 344
c0 146 -77 219 -202 219c-160 0 -270 -168 -270 -343c0 -143 78 -220 199 -220z" />
    <glyph glyph-name="uni1EDE" unicode="&#x1ede;" horiz-adv-x="807" 
d="M493 902c-27 0 -53 -14 -70 -33l-29 35c25 25 65 44 104 44c50 0 77 -29 77 -68c0 -44 -35 -71 -87 -89l-10 -24l-30 1c-7 9 -12 16 -12 27c3 28 86 43 86 84c0 16 -13 23 -29 23zM758 774h75l-12 -95c-13 -98 -53 -147 -112 -156l-1 -1c9 -31 13 -65 13 -102
c0 -228 -139 -426 -368 -426c-169 0 -281 109 -281 297c0 223 146 425 367 425c116 0 205 -51 250 -144c37 5 49 49 58 119zM359 73c164 0 273 164 273 344c0 146 -77 219 -202 219c-160 0 -270 -168 -270 -343c0 -143 78 -220 199 -220z" />
    <glyph glyph-name="uni1EE0" unicode="&#x1ee0;" horiz-adv-x="807" 
d="M425 856c-26 0 -47 -22 -62 -56l-51 25c24 59 61 96 106 96c35 0 52 -17 70 -30c18 -14 34 -28 52 -28c23 0 46 20 62 56l50 -20c-25 -66 -63 -102 -104 -102c-33 0 -57 21 -75 36c-17 13 -32 23 -48 23zM758 774h75l-12 -95c-13 -98 -53 -147 -112 -156l-1 -1
c9 -31 13 -65 13 -102c0 -228 -139 -426 -368 -426c-169 0 -281 109 -281 297c0 223 146 425 367 425c116 0 205 -51 250 -144c37 5 49 49 58 119zM359 73c164 0 273 164 273 344c0 146 -77 219 -202 219c-160 0 -270 -168 -270 -343c0 -143 78 -220 199 -220z" />
    <glyph glyph-name="Ohungarumlaut" unicode="&#x150;" horiz-adv-x="765" 
d="M467 932l86 1l-129 -141h-78zM626 932l86 1l-129 -141h-78zM439 716c168 0 282 -107 282 -296c0 -228 -139 -426 -368 -426c-169 0 -281 109 -281 297c0 223 146 425 367 425zM359 73c164 0 273 164 273 344c0 146 -77 219 -202 219c-160 0 -270 -168 -270 -343
c0 -143 78 -220 199 -220z" />
    <glyph glyph-name="Omacron" unicode="&#x14c;" horiz-adv-x="765" 
d="M354 899h263l-9 -68h-262zM439 716c168 0 282 -107 282 -296c0 -228 -139 -426 -368 -426c-169 0 -281 109 -281 297c0 223 146 425 367 425zM359 73c164 0 273 164 273 344c0 146 -77 219 -202 219c-160 0 -270 -168 -270 -343c0 -143 78 -220 199 -220z" />
    <glyph glyph-name="uni01EA" unicode="&#x1ea;" horiz-adv-x="765" 
d="M420 0c-53 -21 -88 -60 -89 -96c-1 -21 11 -35 34 -35c21 0 33 3 45 10l2 -53c-17 -8 -42 -12 -65 -12c-55 0 -84 26 -83 74c1 38 26 75 59 104v3c-152 12 -251 119 -251 296c0 223 146 425 367 425c168 0 282 -107 282 -296c0 -205 -112 -386 -301 -420zM160 293
c0 -143 78 -220 199 -220c164 0 273 164 273 344c0 146 -77 219 -202 219c-160 0 -270 -168 -270 -343z" />
    <glyph glyph-name="Oslash" unicode="&#xd8;" horiz-adv-x="766" 
d="M744 687l-74 -80c33 -48 51 -111 51 -187c0 -228 -139 -426 -368 -426c-77 0 -143 23 -191 66l-76 -82l-43 44l78 84c-31 48 -49 110 -49 185c0 223 146 425 367 425c76 0 141 -22 190 -64l72 78zM160 293c0 -47 8 -87 24 -119l386 415c-34 31 -82 47 -140 47
c-160 0 -270 -168 -270 -343zM632 417c0 49 -9 90 -25 122l-387 -416c35 -33 82 -50 139 -50c164 0 273 164 273 344z" />
    <glyph glyph-name="Oslashacute" unicode="&#x1fe;" horiz-adv-x="766" 
d="M622 933l-129 -141h-82l122 140zM744 687l-74 -80c33 -48 51 -111 51 -187c0 -228 -139 -426 -368 -426c-77 0 -143 23 -191 66l-76 -82l-43 44l78 84c-31 48 -49 110 -49 185c0 223 146 425 367 425c76 0 141 -22 190 -64l72 78zM160 293c0 -47 8 -87 24 -119l386 415
c-34 31 -82 47 -140 47c-160 0 -270 -168 -270 -343zM632 417c0 49 -9 90 -25 122l-387 -416c35 -33 82 -50 139 -50c164 0 273 164 273 344z" />
    <glyph glyph-name="Otilde" unicode="&#xd5;" horiz-adv-x="765" 
d="M312 825c24 59 61 96 106 96c35 0 52 -17 70 -30c18 -14 34 -28 52 -28c23 0 46 20 62 56l50 -20c-25 -66 -63 -102 -104 -102c-33 0 -57 21 -75 36c-17 13 -32 23 -48 23c-26 0 -47 -22 -62 -56zM439 716c168 0 282 -107 282 -296c0 -228 -139 -426 -368 -426
c-169 0 -281 109 -281 297c0 223 146 425 367 425zM359 73c164 0 273 164 273 344c0 146 -77 219 -202 219c-160 0 -270 -168 -270 -343c0 -143 78 -220 199 -220z" />
    <glyph glyph-name="OE" unicode="&#x152;" horiz-adv-x="883" 
d="M858 633h-309l-29 -241h252l-10 -77h-252l-29 -238h328l-10 -77h-412h-35c-170 0 -280 111 -280 293c0 224 146 417 367 417h62h366zM358 81h39l67 549h-34c-160 1 -270 -158 -270 -335c0 -137 76 -214 198 -214z" />
    <glyph glyph-name="P" unicode="P" horiz-adv-x="582" 
d="M381 710c130 0 187 -67 187 -182c0 -156 -94 -256 -266 -256h-119l-33 -272h-86l87 710h230zM314 350c103 0 165 65 165 178c0 70 -48 105 -117 105h-134l-36 -283h122z" />
    <glyph glyph-name="Thorn" unicode="&#xde;" horiz-adv-x="599" 
d="M166 132l-16 -132h-86l87 710h86l-17 -139h157c131 0 191 -68 191 -182c0 -154 -94 -257 -266 -257h-136zM313 210c103 0 166 68 166 179c0 69 -48 105 -117 105h-152l-35 -284h138z" />
    <glyph glyph-name="Q" unicode="Q" horiz-adv-x="781" 
d="M721 420c0 -113 -34 -218 -96 -296l70 -77l-55 -61l-72 81c-58 -46 -130 -73 -215 -73c-169 0 -281 109 -281 297c0 223 146 425 367 425c168 0 282 -107 282 -296zM359 73c59 0 111 21 153 56l-68 76l55 58l67 -73c42 62 66 143 66 227c0 146 -77 219 -202 219
c-160 0 -270 -168 -270 -343c0 -143 78 -220 199 -220z" />
    <glyph glyph-name="R" unicode="R" horiz-adv-x="612" 
d="M393 282l136 -282h-99l-127 272h-120l-33 -272h-86l87 710h233c130 0 187 -67 187 -182c0 -125 -62 -216 -178 -246zM228 633l-36 -283h125c102 0 165 67 165 178c0 70 -48 105 -117 105h-137z" />
    <glyph glyph-name="Racute" unicode="&#x154;" horiz-adv-x="612" 
d="M496 933l-129 -141h-82l122 140zM393 282l136 -282h-99l-127 272h-120l-33 -272h-86l87 710h233c130 0 187 -67 187 -182c0 -125 -62 -216 -178 -246zM228 633l-36 -283h125c102 0 165 67 165 178c0 70 -48 105 -117 105h-137z" />
    <glyph glyph-name="Rcaron" unicode="&#x158;" horiz-adv-x="612" 
d="M409 790h-76l-87 143h78l51 -94h1l75 94h82zM393 282l136 -282h-99l-127 272h-120l-33 -272h-86l87 710h233c130 0 187 -67 187 -182c0 -125 -62 -216 -178 -246zM228 633l-36 -283h125c102 0 165 67 165 178c0 70 -48 105 -117 105h-137z" />
    <glyph glyph-name="Rcommaaccent" unicode="&#x156;" horiz-adv-x="612" 
d="M393 282l136 -282h-99l-127 272h-120l-33 -272h-86l87 710h233c130 0 187 -67 187 -182c0 -125 -62 -216 -178 -246zM228 633l-36 -283h125c102 0 165 67 165 178c0 70 -48 105 -117 105h-137zM234 -53h71c1 -5 1 -9 1 -23c0 -77 -40 -129 -122 -136l-13 49
c45 11 64 35 64 87c0 8 0 14 -1 23z" />
    <glyph glyph-name="S" unicode="S" horiz-adv-x="554" 
d="M305 405c93 -53 189 -92 189 -198c0 -139 -102 -213 -232 -213c-94 0 -184 43 -232 117l64 58c35 -65 100 -96 163 -96c86 0 148 52 148 123c-1 60 -60 85 -138 129c-82 47 -173 93 -173 197c0 118 95 195 221 195c77 0 151 -36 200 -95l-62 -56c-41 55 -97 73 -143 73
c-76 0 -128 -46 -127 -107c1 -58 51 -86 122 -127z" />
    <glyph glyph-name="Sacute" unicode="&#x15a;" horiz-adv-x="554" 
d="M424 932l89 1l-129 -141h-82zM305 405c93 -53 189 -92 189 -198c0 -139 -102 -213 -232 -213c-94 0 -184 43 -232 117l64 58c35 -65 100 -96 163 -96c86 0 148 52 148 123c-1 60 -60 85 -138 129c-82 47 -173 93 -173 197c0 118 95 195 221 195c77 0 151 -36 200 -95
l-62 -56c-41 55 -97 73 -143 73c-76 0 -128 -46 -127 -107c1 -58 51 -86 122 -127z" />
    <glyph glyph-name="Scaron" unicode="&#x160;" horiz-adv-x="554" 
d="M372 790h-76l-87 143h78l51 -94h1l75 94h82zM305 405c93 -53 189 -92 189 -198c0 -139 -102 -213 -232 -213c-94 0 -184 43 -232 117l64 58c35 -65 100 -96 163 -96c86 0 148 52 148 123c-1 60 -60 85 -138 129c-82 47 -173 93 -173 197c0 118 95 195 221 195
c77 0 151 -36 200 -95l-62 -56c-41 55 -97 73 -143 73c-76 0 -128 -46 -127 -107c1 -58 51 -86 122 -127z" />
    <glyph glyph-name="Scedilla" unicode="&#x15e;" horiz-adv-x="554" 
d="M305 405c93 -53 189 -92 189 -198c0 -139 -102 -213 -232 -213h-3l-17 -26l2 -2c45 -2 73 -22 73 -63c0 -49 -45 -91 -108 -91c-18 0 -38 3 -51 7l3 42c11 -4 24 -6 41 -6c31 0 58 16 58 47c0 21 -22 31 -69 32l3 30l19 34c-76 12 -144 52 -183 113l64 58
c35 -65 100 -96 163 -96c86 0 148 52 148 123c-1 60 -60 85 -138 129c-82 47 -173 93 -173 197c0 118 95 195 221 195c77 0 151 -36 200 -95l-62 -56c-41 55 -97 73 -143 73c-76 0 -128 -46 -127 -107c1 -58 51 -86 122 -127z" />
    <glyph glyph-name="Scircumflex" unicode="&#x15c;" horiz-adv-x="554" 
d="M346 884l-75 -93h-81l121 143h76l90 -143h-79l-51 93h-1zM305 405c93 -53 189 -92 189 -198c0 -139 -102 -213 -232 -213c-94 0 -184 43 -232 117l64 58c35 -65 100 -96 163 -96c86 0 148 52 148 123c-1 60 -60 85 -138 129c-82 47 -173 93 -173 197
c0 118 95 195 221 195c77 0 151 -36 200 -95l-62 -56c-41 55 -97 73 -143 73c-76 0 -128 -46 -127 -107c1 -58 51 -86 122 -127z" />
    <glyph glyph-name="Scommaaccent" unicode="&#x218;" horiz-adv-x="554" 
d="M305 405c93 -53 189 -92 189 -198c0 -139 -102 -213 -232 -213c-94 0 -184 43 -232 117l64 58c35 -65 100 -96 163 -96c86 0 148 52 148 123c-1 60 -60 85 -138 129c-82 47 -173 93 -173 197c0 118 95 195 221 195c77 0 151 -36 200 -95l-62 -56c-41 55 -97 73 -143 73
c-76 0 -128 -46 -127 -107c1 -58 51 -86 122 -127zM281 -53c1 -5 1 -9 1 -23c0 -77 -40 -129 -122 -136l-13 49c45 11 64 35 64 87c0 8 0 14 -1 23h71z" />
    <glyph glyph-name="uni1E9E" unicode="&#x1e9e;" horiz-adv-x="718" 
d="M505 399c92 -54 187 -93 187 -195c0 -136 -102 -210 -218 -210c-79 0 -161 34 -210 92l48 74c36 -61 99 -88 157 -88c76 0 134 52 134 124c1 62 -59 87 -135 131l-81 46l156 246l1 4c-59 8 -118 14 -159 14c-114 0 -174 -41 -187 -150l-60 -487h-85l60 492
c19 157 117 225 272 225c69 0 186 -18 285 -42l-173 -271z" />
    <glyph glyph-name="uni018F" unicode="&#x18f;" horiz-adv-x="644" 
d="M342 717c158 0 267 -122 267 -294c0 -239 -140 -429 -376 -429c-109 0 -188 65 -188 157c0 190 228 264 417 261c14 0 35 -2 57 -5l2 1v15c0 124 -69 214 -186 214c-61 0 -114 -21 -160 -61l-53 60c58 46 131 81 220 81zM243 76c136 0 239 101 269 253l-1 2
c-18 1 -36 3 -49 3c-208 4 -329 -79 -329 -173c0 -46 38 -85 110 -85z" />
    <glyph glyph-name="T" unicode="T" horiz-adv-x="532" 
d="M547 633h-191l-78 -633h-85l78 633h-190l9 77h467z" />
    <glyph glyph-name="Tbar" unicode="&#x166;" horiz-adv-x="532" 
d="M547 633h-191l-29 -235h111l-10 -72h-110l-40 -326h-85l40 326h-99l9 72h99l29 235h-190l9 77h467z" />
    <glyph glyph-name="Tcaron" unicode="&#x164;" horiz-adv-x="532" 
d="M371 790h-76l-87 143h78l51 -94h1l75 94h82zM90 710h467l-10 -77h-191l-78 -633h-85l78 633h-190z" />
    <glyph glyph-name="uni0162" unicode="&#x162;" horiz-adv-x="532" 
d="M90 710h467l-10 -77h-191l-78 -633h-32l-21 -32l2 -2c45 -2 73 -22 73 -63c0 -49 -45 -91 -108 -91c-18 0 -38 3 -51 7l3 42c11 -4 24 -6 41 -6c31 0 58 16 58 47c0 21 -22 31 -69 32l3 30l20 36h-4l78 633h-190z" />
    <glyph glyph-name="uni021A" unicode="&#x21a;" horiz-adv-x="532" 
d="M547 633h-191l-78 -633h-85l78 633h-190l9 77h467zM264 -53c1 -5 1 -9 1 -23c0 -77 -40 -129 -122 -136l-13 49c45 11 64 35 64 87c0 8 0 14 -1 23h71z" />
    <glyph glyph-name="U" unicode="U" horiz-adv-x="669" 
d="M591 289c-25 -202 -121 -295 -286 -295c-152 0 -219 96 -219 242c0 19 2 39 4 60l51 414h85l-51 -414c-3 -21 -4 -40 -4 -56c0 -99 40 -165 138 -165c106 0 178 62 197 214l51 421h86z" />
    <glyph glyph-name="Uacute" unicode="&#xda;" horiz-adv-x="669" 
d="M475 932l89 1l-129 -141h-82zM591 289c-25 -202 -121 -295 -286 -295c-152 0 -219 96 -219 242c0 19 2 39 4 60l51 414h85l-51 -414c-3 -21 -4 -40 -4 -56c0 -99 40 -165 138 -165c106 0 178 62 197 214l51 421h86z" />
    <glyph glyph-name="Ubreve" unicode="&#x16c;" horiz-adv-x="669" 
d="M407 789c-73 0 -125 50 -119 140h63c-4 -48 13 -81 57 -81c45 0 78 34 85 81h64c-17 -87 -75 -140 -150 -140zM591 289c-25 -202 -121 -295 -286 -295c-152 0 -219 96 -219 242c0 19 2 39 4 60l51 414h85l-51 -414c-3 -21 -4 -40 -4 -56c0 -99 40 -165 138 -165
c106 0 178 62 197 214l51 421h86z" />
    <glyph glyph-name="Ucircumflex" unicode="&#xdb;" horiz-adv-x="669" 
d="M418 884l-75 -93h-81l121 143h76l90 -143h-79l-51 93h-1zM557 710h86l-52 -421c-25 -202 -121 -295 -286 -295c-152 0 -219 96 -219 242c0 19 2 39 4 60l51 414h85l-51 -414c-3 -21 -4 -40 -4 -56c0 -99 40 -165 138 -165c106 0 178 62 197 214z" />
    <glyph glyph-name="Udieresis" unicode="&#xdc;" horiz-adv-x="669" 
d="M333 923c31 0 54 -23 54 -54c0 -33 -24 -56 -57 -56c-31 0 -54 23 -54 54c0 32 25 56 57 56zM503 923c30 0 54 -23 54 -54c0 -33 -25 -56 -57 -56c-31 0 -54 23 -54 54c0 32 24 56 57 56zM591 289c-25 -202 -121 -295 -286 -295c-152 0 -219 96 -219 242c0 19 2 39 4 60
l51 414h85l-51 -414c-3 -21 -4 -40 -4 -56c0 -99 40 -165 138 -165c106 0 178 62 197 214l51 421h86z" />
    <glyph glyph-name="uni1EE4" unicode="&#x1ee4;" horiz-adv-x="669" 
d="M591 289c-25 -202 -121 -295 -286 -295c-152 0 -219 96 -219 242c0 19 2 39 4 60l51 414h85l-51 -414c-3 -21 -4 -40 -4 -56c0 -99 40 -165 138 -165c106 0 178 62 197 214l51 421h86zM283 -223c-31 0 -55 23 -55 54c0 33 25 56 57 56c31 0 54 -23 54 -54
c0 -32 -24 -56 -56 -56z" />
    <glyph glyph-name="Ugrave" unicode="&#xd9;" horiz-adv-x="669" 
d="M348 932l87 -140h-83l-95 141zM591 289c-25 -202 -121 -295 -286 -295c-152 0 -219 96 -219 242c0 19 2 39 4 60l51 414h85l-51 -414c-3 -21 -4 -40 -4 -56c0 -99 40 -165 138 -165c106 0 178 62 197 214l51 421h86z" />
    <glyph glyph-name="uni1EE6" unicode="&#x1ee6;" horiz-adv-x="669" 
d="M358 869l-29 35c25 25 65 44 104 44c50 0 77 -29 77 -68c0 -44 -35 -71 -87 -89l-10 -24l-30 1c-7 9 -12 16 -12 27c3 28 86 43 86 84c0 16 -13 23 -29 23c-27 0 -53 -14 -70 -33zM591 289c-25 -202 -121 -295 -286 -295c-152 0 -219 96 -219 242c0 19 2 39 4 60l51 414
h85l-51 -414c-3 -21 -4 -40 -4 -56c0 -99 40 -165 138 -165c106 0 178 62 197 214l51 421h86z" />
    <glyph glyph-name="Uhorn" unicode="&#x1af;" horiz-adv-x="751" 
d="M718 774h75l-12 -95c-15 -111 -64 -158 -136 -158c-8 0 -16 1 -25 2l-29 -234c-25 -202 -121 -295 -286 -295c-152 0 -219 96 -219 242c0 19 2 39 4 60l51 414h85l-51 -414c-3 -21 -4 -40 -4 -56c0 -99 40 -165 138 -165c106 0 178 62 197 214l51 421h86l-17 -136
c6 -1 12 -2 17 -2c41 0 55 45 64 119z" />
    <glyph glyph-name="uni1EE8" unicode="&#x1ee8;" horiz-adv-x="751" 
d="M564 933l-129 -141h-82l122 140zM718 774h75l-12 -95c-15 -111 -64 -158 -136 -158c-8 0 -16 1 -25 2l-29 -234c-25 -202 -121 -295 -286 -295c-152 0 -219 96 -219 242c0 19 2 39 4 60l51 414h85l-51 -414c-3 -21 -4 -40 -4 -56c0 -99 40 -165 138 -165
c106 0 178 62 197 214l51 421h86l-17 -136c6 -1 12 -2 17 -2c41 0 55 45 64 119z" />
    <glyph glyph-name="uni1EF0" unicode="&#x1ef0;" horiz-adv-x="751" 
d="M718 774h75l-12 -95c-15 -111 -64 -158 -136 -158c-8 0 -16 1 -25 2l-29 -234c-25 -202 -121 -295 -286 -295c-152 0 -219 96 -219 242c0 19 2 39 4 60l51 414h85l-51 -414c-3 -21 -4 -40 -4 -56c0 -99 40 -165 138 -165c106 0 178 62 197 214l51 421h86l-17 -136
c6 -1 12 -2 17 -2c41 0 55 45 64 119zM285 -113c31 0 54 -23 54 -54c0 -32 -24 -56 -56 -56c-31 0 -55 23 -55 54c0 33 25 56 57 56z" />
    <glyph glyph-name="uni1EEA" unicode="&#x1eea;" horiz-adv-x="751" 
d="M435 792h-83l-95 141l91 -1zM718 774h75l-12 -95c-15 -111 -64 -158 -136 -158c-8 0 -16 1 -25 2l-29 -234c-25 -202 -121 -295 -286 -295c-152 0 -219 96 -219 242c0 19 2 39 4 60l51 414h85l-51 -414c-3 -21 -4 -40 -4 -56c0 -99 40 -165 138 -165
c106 0 178 62 197 214l51 421h86l-17 -136c6 -1 12 -2 17 -2c41 0 55 45 64 119z" />
    <glyph glyph-name="uni1EEC" unicode="&#x1eec;" horiz-adv-x="751" 
d="M428 902c-27 0 -53 -14 -70 -33l-29 35c25 25 65 44 104 44c50 0 77 -29 77 -68c0 -44 -35 -71 -87 -89l-10 -24l-30 1c-7 9 -12 16 -12 27c3 28 86 43 86 84c0 16 -13 23 -29 23zM718 774h75l-12 -95c-15 -111 -64 -158 -136 -158c-8 0 -16 1 -25 2l-29 -234
c-25 -202 -121 -295 -286 -295c-152 0 -219 96 -219 242c0 19 2 39 4 60l51 414h85l-51 -414c-3 -21 -4 -40 -4 -56c0 -99 40 -165 138 -165c106 0 178 62 197 214l51 421h86l-17 -136c6 -1 12 -2 17 -2c41 0 55 45 64 119z" />
    <glyph glyph-name="uni1EEE" unicode="&#x1eee;" horiz-adv-x="751" 
d="M360 856c-26 0 -47 -22 -62 -56l-51 25c24 59 61 96 106 96c35 0 52 -17 70 -30c18 -14 34 -28 52 -28c23 0 46 20 62 56l50 -20c-25 -66 -63 -102 -104 -102c-33 0 -57 21 -75 36c-17 13 -32 23 -48 23zM718 774h75l-12 -95c-15 -111 -64 -158 -136 -158
c-8 0 -16 1 -25 2l-29 -234c-25 -202 -121 -295 -286 -295c-152 0 -219 96 -219 242c0 19 2 39 4 60l51 414h85l-51 -414c-3 -21 -4 -40 -4 -56c0 -99 40 -165 138 -165c106 0 178 62 197 214l51 421h86l-17 -136c6 -1 12 -2 17 -2c41 0 55 45 64 119z" />
    <glyph glyph-name="Uhungarumlaut" unicode="&#x170;" horiz-adv-x="669" 
d="M380 932l86 1l-129 -141h-78zM539 932l86 1l-129 -141h-78zM591 289c-25 -202 -121 -295 -286 -295c-152 0 -219 96 -219 242c0 19 2 39 4 60l51 414h85l-51 -414c-3 -21 -4 -40 -4 -56c0 -99 40 -165 138 -165c106 0 178 62 197 214l51 421h86z" />
    <glyph glyph-name="Umacron" unicode="&#x16a;" horiz-adv-x="669" 
d="M289 899h263l-9 -68h-262zM591 289c-25 -202 -121 -295 -286 -295c-152 0 -219 96 -219 242c0 19 2 39 4 60l51 414h85l-51 -414c-3 -21 -4 -40 -4 -56c0 -99 40 -165 138 -165c106 0 178 62 197 214l51 421h86z" />
    <glyph glyph-name="Uogonek" unicode="&#x172;" horiz-adv-x="669" 
d="M557 710h86l-52 -421c-20 -162 -86 -254 -196 -284h1c-58 -21 -106 -63 -107 -101c-1 -21 12 -35 34 -35c19 0 30 3 45 10l2 -53c-18 -8 -42 -12 -65 -12c-59 0 -84 31 -83 74c1 37 26 75 63 104v3c-138 8 -199 101 -199 241c0 19 2 39 4 60l51 414h85l-51 -414
c-3 -21 -4 -40 -4 -56c0 -99 40 -165 138 -165c106 0 178 62 197 214z" />
    <glyph glyph-name="Uring" unicode="&#x16e;" horiz-adv-x="669" 
d="M417 960c53 0 93 -38 93 -90c0 -55 -41 -96 -96 -96c-52 0 -92 40 -92 93s40 93 95 93zM417 910c-25 0 -44 -19 -44 -43s18 -42 42 -42c25 0 44 19 44 44c0 23 -18 41 -42 41zM591 289c-25 -202 -121 -295 -286 -295c-152 0 -219 96 -219 242c0 19 2 39 4 60l51 414h85
l-51 -414c-3 -21 -4 -40 -4 -56c0 -99 40 -165 138 -165c106 0 178 62 197 214l51 421h86z" />
    <glyph glyph-name="Utilde" unicode="&#x168;" horiz-adv-x="669" 
d="M247 825c24 59 61 96 106 96c35 0 52 -17 70 -30c18 -14 34 -28 52 -28c23 0 46 20 62 56l50 -20c-25 -66 -63 -102 -104 -102c-33 0 -57 21 -75 36c-17 13 -32 23 -48 23c-26 0 -47 -22 -62 -56zM591 289c-25 -202 -121 -295 -286 -295c-152 0 -219 96 -219 242
c0 19 2 39 4 60l51 414h85l-51 -414c-3 -21 -4 -40 -4 -56c0 -99 40 -165 138 -165c106 0 178 62 197 214l51 421h86z" />
    <glyph glyph-name="V" unicode="V" horiz-adv-x="623" 
d="M556 710h96l-327 -710h-81l-153 710h90l116 -586h3z" />
    <glyph glyph-name="W" unicode="W" horiz-adv-x="936" 
d="M867 710h91l-290 -710h-87l-72 565h-3l-211 -565h-86l-116 710h90l86 -563h1l207 563h97l68 -560h3z" />
    <glyph glyph-name="Wacute" unicode="&#x1e82;" horiz-adv-x="936" 
d="M711 933l-129 -141h-82l122 140zM867 710h91l-290 -710h-87l-72 565h-3l-211 -565h-86l-116 710h90l86 -563h1l207 563h97l68 -560h3z" />
    <glyph glyph-name="Wcircumflex" unicode="&#x174;" horiz-adv-x="936" 
d="M548 884l-75 -93h-81l121 143h76l90 -143h-79l-51 93h-1zM867 710h91l-290 -710h-87l-72 565h-3l-211 -565h-86l-116 710h90l86 -563h1l207 563h97l68 -560h3z" />
    <glyph glyph-name="Wdieresis" unicode="&#x1e84;" horiz-adv-x="936" 
d="M460 813c-31 0 -54 23 -54 54c0 32 25 56 57 56c31 0 54 -23 54 -54c0 -33 -24 -56 -57 -56zM630 813c-31 0 -54 23 -54 54c0 32 24 56 57 56c30 0 54 -23 54 -54c0 -33 -25 -56 -57 -56zM867 710h91l-290 -710h-87l-72 565h-3l-211 -565h-86l-116 710h90l86 -563h1
l207 563h97l68 -560h3z" />
    <glyph glyph-name="Wgrave" unicode="&#x1e80;" horiz-adv-x="936" 
d="M579 792h-83l-95 141l91 -1zM867 710h91l-290 -710h-87l-72 565h-3l-211 -565h-86l-116 710h90l86 -563h1l207 563h97l68 -560h3z" />
    <glyph glyph-name="X" unicode="X" horiz-adv-x="622" 
d="M641 710l-257 -357l172 -353h-101l-137 288h-2l-209 -288h-101l260 357l-168 353h96l136 -290h2l204 290h105z" />
    <glyph glyph-name="Y" unicode="Y" horiz-adv-x="559" 
d="M498 710h101l-268 -393l-40 -317h-85l39 317l-169 393h93l126 -310h1z" />
    <glyph glyph-name="Yacute" unicode="&#xdd;" horiz-adv-x="559" 
d="M511 933l-129 -141h-82l122 140zM498 710h101l-268 -393l-40 -317h-85l39 317l-169 393h93l126 -310h1z" />
    <glyph glyph-name="Ycircumflex" unicode="&#x176;" horiz-adv-x="559" 
d="M355 884l-75 -93h-81l121 143h76l90 -143h-79l-51 93h-1zM498 710h101l-268 -393l-40 -317h-85l39 317l-169 393h93l126 -310h1z" />
    <glyph glyph-name="Ydieresis" unicode="&#x178;" horiz-adv-x="559" 
d="M267 813c-31 0 -54 23 -54 54c0 32 25 56 57 56c31 0 54 -23 54 -54c0 -33 -24 -56 -57 -56zM437 813c-31 0 -54 23 -54 54c0 32 24 56 57 56c30 0 54 -23 54 -54c0 -33 -25 -56 -57 -56zM498 710h101l-268 -393l-40 -317h-85l39 317l-169 393h93l126 -310h1z" />
    <glyph glyph-name="uni1EF4" unicode="&#x1ef4;" horiz-adv-x="559" 
d="M498 710h101l-268 -393l-40 -317h-85l39 317l-169 393h93l126 -310h1zM231 -113c31 0 54 -23 54 -54c0 -32 -24 -56 -56 -56c-31 0 -55 23 -55 54c0 33 25 56 57 56z" />
    <glyph glyph-name="Ygrave" unicode="&#x1ef2;" horiz-adv-x="559" 
d="M385 792h-83l-95 141l91 -1zM498 710h101l-268 -393l-40 -317h-85l39 317l-169 393h93l126 -310h1z" />
    <glyph glyph-name="uni1EF6" unicode="&#x1ef6;" horiz-adv-x="559" 
d="M365 902c-27 0 -53 -14 -70 -33l-29 35c25 25 65 44 104 44c50 0 77 -29 77 -68c0 -44 -35 -71 -87 -89l-10 -24l-30 1c-7 9 -12 16 -12 27c3 28 86 43 86 84c0 16 -13 23 -29 23zM498 710h101l-268 -393l-40 -317h-85l39 317l-169 393h93l126 -310h1z" />
    <glyph glyph-name="uni0232" unicode="&#x232;" horiz-adv-x="559" 
d="M489 899l-9 -68h-262l8 68h263zM498 710h101l-268 -393l-40 -317h-85l39 317l-169 393h93l126 -310h1z" />
    <glyph glyph-name="uni1EF8" unicode="&#x1ef8;" horiz-adv-x="559" 
d="M297 856c-26 0 -47 -22 -62 -56l-51 25c24 59 61 96 106 96c35 0 52 -17 70 -30c18 -14 34 -28 52 -28c23 0 46 20 62 56l50 -20c-25 -66 -63 -102 -104 -102c-33 0 -57 21 -75 36c-17 13 -32 23 -48 23zM498 710h101l-268 -393l-40 -317h-85l39 317l-169 393h93
l126 -310h1z" />
    <glyph glyph-name="Z" unicode="Z" horiz-adv-x="579" 
d="M560 643l-415 -563v-3h347l-10 -77h-451l8 68l412 564v1h-326l10 77h432z" />
    <glyph glyph-name="Zacute" unicode="&#x179;" horiz-adv-x="579" 
d="M481 933l-129 -141h-82l122 140zM560 643l-415 -563v-3h347l-10 -77h-451l8 68l412 564v1h-326l10 77h432z" />
    <glyph glyph-name="Zcaron" unicode="&#x17d;" horiz-adv-x="579" 
d="M394 790h-76l-87 143h78l51 -94h1l75 94h82zM560 643l-415 -563v-3h347l-10 -77h-451l8 68l412 564v1h-326l10 77h432z" />
    <glyph glyph-name="Zdotaccent" unicode="&#x17b;" horiz-adv-x="579" 
d="M367 813c-31 0 -54 23 -54 54c0 32 24 56 56 56c31 0 55 -23 55 -54c0 -33 -25 -56 -57 -56zM560 643l-415 -563v-3h347l-10 -77h-451l8 68l412 564v1h-326l10 77h432z" />
    <glyph glyph-name="Q.alt" horiz-adv-x="766" 
d="M721 420c0 -160 -69 -306 -189 -378l117 -119l-61 -65l-141 148c-30 -8 -61 -12 -94 -12c-169 0 -281 109 -281 297c0 223 146 425 367 425c168 0 282 -107 282 -296zM160 293c0 -143 78 -220 199 -220c164 0 273 164 273 344c0 146 -77 219 -202 219
c-160 0 -270 -168 -270 -343z" />
    <glyph glyph-name="a" unicode="a" horiz-adv-x="555" 
d="M434 487h79l-60 -487h-79l14 112h-2c-44 -71 -107 -118 -175 -118c-112 0 -167 87 -167 196c0 157 96 303 244 303c53 0 104 -16 138 -52h2zM225 65c82 0 161 95 184 226l10 76c-34 36 -88 53 -126 53c-105 0 -168 -115 -168 -232c0 -73 35 -123 100 -123z" />
    <glyph glyph-name="aacute" unicode="&#xe1;" horiz-adv-x="555" 
d="M495 700l-129 -141h-82l122 140zM434 487h79l-60 -487h-79l14 112h-2c-44 -71 -107 -118 -175 -118c-112 0 -167 87 -167 196c0 157 96 303 244 303c53 0 104 -16 138 -52h2zM225 65c82 0 161 95 184 226l10 76c-34 36 -88 53 -126 53c-105 0 -168 -115 -168 -232
c0 -73 35 -123 100 -123z" />
    <glyph glyph-name="abreve" unicode="&#x103;" horiz-adv-x="555" 
d="M335 555c-73 0 -125 50 -119 140h63c-4 -48 13 -81 57 -81c45 0 78 34 85 81h64c-17 -87 -75 -140 -150 -140zM434 487h79l-60 -487h-79l14 112h-2c-44 -71 -107 -118 -175 -118c-112 0 -167 87 -167 196c0 157 96 303 244 303c53 0 104 -16 138 -52h2zM225 65
c82 0 161 95 184 226l10 76c-34 36 -88 53 -126 53c-105 0 -168 -115 -168 -232c0 -73 35 -123 100 -123z" />
    <glyph glyph-name="uni1EAF" unicode="&#x1eaf;" horiz-adv-x="555" 
d="M506 848l-129 -141h-82l122 140zM341 554c-73 0 -125 50 -119 140h63c-4 -48 13 -81 57 -81c45 0 78 34 85 81h64c-17 -87 -75 -140 -150 -140zM434 487h79l-60 -487h-79l14 112h-2c-44 -71 -107 -118 -175 -118c-112 0 -167 87 -167 196c0 157 96 303 244 303
c53 0 104 -16 138 -52h2zM225 65c82 0 161 95 184 226l10 76c-34 36 -88 53 -126 53c-105 0 -168 -115 -168 -232c0 -73 35 -123 100 -123z" />
    <glyph glyph-name="uni1EB7" unicode="&#x1eb7;" horiz-adv-x="555" 
d="M336 555c-73 0 -125 50 -119 140h63c-4 -48 13 -81 57 -81c45 0 78 34 85 81h64c-17 -87 -75 -140 -150 -140zM434 487h79l-60 -487h-79l14 112h-2c-44 -71 -107 -118 -175 -118c-112 0 -167 87 -167 196c0 157 96 303 244 303c53 0 104 -16 138 -52h2zM225 65
c82 0 161 95 184 226l10 76c-34 36 -88 53 -126 53c-105 0 -168 -115 -168 -232c0 -73 35 -123 100 -123zM232 -113c31 0 54 -23 54 -54c0 -32 -24 -56 -56 -56c-31 0 -55 23 -55 54c0 33 25 56 57 56z" />
    <glyph glyph-name="uni1EB1" unicode="&#x1eb1;" horiz-adv-x="555" 
d="M380 707h-83l-95 141l91 -1zM280 694c-4 -48 13 -81 57 -81c45 0 78 34 85 81h64c-17 -87 -75 -140 -150 -140c-73 0 -125 50 -119 140h63zM434 487h79l-60 -487h-79l14 112h-2c-44 -71 -107 -118 -175 -118c-112 0 -167 87 -167 196c0 157 96 303 244 303
c53 0 104 -16 138 -52h2zM225 65c82 0 161 95 184 226l10 76c-34 36 -88 53 -126 53c-105 0 -168 -115 -168 -232c0 -73 35 -123 100 -123z" />
    <glyph glyph-name="uni1EB3" unicode="&#x1eb3;" horiz-adv-x="555" 
d="M372 820c-27 0 -53 -14 -70 -33l-29 35c25 25 65 44 104 44c50 0 77 -29 77 -68c0 -44 -35 -71 -87 -89l-10 -24l-30 1c-7 9 -12 16 -12 27c3 28 86 43 86 84c0 16 -13 23 -29 23zM334 554c-73 0 -125 50 -119 140h63c-4 -48 13 -81 57 -81c45 0 78 34 85 81h64
c-17 -87 -75 -140 -150 -140zM434 487h79l-60 -487h-79l14 112h-2c-44 -71 -107 -118 -175 -118c-112 0 -167 87 -167 196c0 157 96 303 244 303c53 0 104 -16 138 -52h2zM225 65c82 0 161 95 184 226l10 76c-34 36 -88 53 -126 53c-105 0 -168 -115 -168 -232
c0 -73 35 -123 100 -123z" />
    <glyph glyph-name="uni1EB5" unicode="&#x1eb5;" horiz-adv-x="555" 
d="M311 775c-24 0 -44 -22 -59 -56l-48 25c23 59 58 96 101 96c33 0 50 -17 67 -30s33 -28 50 -28c22 0 44 20 59 56l47 -20c-24 -66 -60 -102 -98 -102c-32 0 -55 21 -72 36c-16 12 -31 23 -47 23zM217 694h63c-4 -48 13 -81 57 -81c45 0 78 34 85 81h64
c-17 -87 -75 -140 -150 -140c-73 0 -125 50 -119 140zM428 441l6 46h79l-60 -487h-79l14 112h-2c-44 -71 -107 -118 -175 -118c-112 0 -167 87 -167 196c0 157 96 303 244 303c53 0 104 -16 138 -52h2zM225 65c82 0 161 95 184 226l10 76c-34 36 -88 53 -126 53
c-105 0 -168 -115 -168 -232c0 -73 35 -123 100 -123z" />
    <glyph glyph-name="acircumflex" unicode="&#xe2;" horiz-adv-x="555" 
d="M346 650l-75 -93h-81l121 143h76l90 -143h-79l-51 93h-1zM434 487h79l-60 -487h-79l14 112h-2c-44 -71 -107 -118 -175 -118c-112 0 -167 87 -167 196c0 157 96 303 244 303c53 0 104 -16 138 -52h2zM225 65c82 0 161 95 184 226l10 76c-34 36 -88 53 -126 53
c-105 0 -168 -115 -168 -232c0 -73 35 -123 100 -123z" />
    <glyph glyph-name="uni1EA5" unicode="&#x1ea5;" horiz-adv-x="555" 
d="M636 784l-144 -142h-62l118 142h88zM341 649l-75 -93h-81l121 143h76l90 -143h-79l-51 93h-1zM428 441l6 46h79l-60 -487h-79l14 112h-2c-44 -71 -107 -118 -175 -118c-112 0 -167 87 -167 196c0 157 96 303 244 303c53 0 104 -16 138 -52h2zM225 65c82 0 161 95 184 226
l10 76c-34 36 -88 53 -126 53c-105 0 -168 -115 -168 -232c0 -73 35 -123 100 -123z" />
    <glyph glyph-name="uni1EAD" unicode="&#x1ead;" horiz-adv-x="555" 
d="M346 650l-75 -93h-81l121 143h76l90 -143h-79l-51 93h-1zM434 487h79l-60 -487h-79l14 112h-2c-44 -71 -107 -118 -175 -118c-112 0 -167 87 -167 196c0 157 96 303 244 303c53 0 104 -16 138 -52h2zM225 65c82 0 161 95 184 226l10 76c-34 36 -88 53 -126 53
c-105 0 -168 -115 -168 -232c0 -73 35 -123 100 -123zM232 -113c31 0 54 -23 54 -54c0 -32 -24 -56 -56 -56c-31 0 -55 23 -55 54c0 33 25 56 57 56z" />
    <glyph glyph-name="uni1EA7" unicode="&#x1ea7;" horiz-adv-x="555" 
d="M534 642h-62l-107 142h89zM342 649l-75 -93h-81l121 143h76l90 -143h-79l-51 93h-1zM428 441l6 46h79l-60 -487h-79l14 112h-2c-44 -71 -107 -118 -175 -118c-112 0 -167 87 -167 196c0 157 96 303 244 303c53 0 104 -16 138 -52h2zM225 65c82 0 161 95 184 226l10 76
c-34 36 -88 53 -126 53c-105 0 -168 -115 -168 -232c0 -73 35 -123 100 -123z" />
    <glyph glyph-name="uni1EA9" unicode="&#x1ea9;" horiz-adv-x="555" 
d="M506 798c51 0 77 -30 77 -68c0 -44 -35 -71 -86 -89l-10 -24l-30 1c-8 8 -13 16 -12 27c2 28 85 43 86 84c0 16 -14 22 -30 22c-26 0 -52 -13 -69 -32l-30 34c26 26 65 45 104 45zM344 649l-75 -93h-81l121 143h76l90 -143h-79l-51 93h-1zM428 441l6 46h79l-60 -487h-79
l14 112h-2c-44 -71 -107 -118 -175 -118c-112 0 -167 87 -167 196c0 157 96 303 244 303c53 0 104 -16 138 -52h2zM225 65c82 0 161 95 184 226l10 76c-34 36 -88 53 -126 53c-105 0 -168 -115 -168 -232c0 -73 35 -123 100 -123z" />
    <glyph glyph-name="uni1EAB" unicode="&#x1eab;" horiz-adv-x="555" 
d="M312 775c-24 0 -44 -22 -59 -56l-48 25c23 59 58 96 101 96c33 0 50 -17 67 -30s33 -28 50 -28c22 0 44 20 59 56l47 -20c-24 -66 -60 -102 -98 -102c-32 0 -55 21 -72 36c-16 12 -31 23 -47 23zM347 649l-75 -93h-81l121 143h76l90 -143h-79l-51 93h-1zM428 441l6 46h79
l-60 -487h-79l14 112h-2c-44 -71 -107 -118 -175 -118c-112 0 -167 87 -167 196c0 157 96 303 244 303c53 0 104 -16 138 -52h2zM225 65c82 0 161 95 184 226l10 76c-34 36 -88 53 -126 53c-105 0 -168 -115 -168 -232c0 -73 35 -123 100 -123z" />
    <glyph glyph-name="adieresis" unicode="&#xe4;" horiz-adv-x="555" 
d="M258 579c-31 0 -54 23 -54 54c0 32 25 56 57 56c31 0 54 -23 54 -54c0 -33 -24 -56 -57 -56zM428 579c-31 0 -54 23 -54 54c0 32 24 56 57 56c30 0 54 -23 54 -54c0 -33 -25 -56 -57 -56zM434 487h79l-60 -487h-79l14 112h-2c-44 -71 -107 -118 -175 -118
c-112 0 -167 87 -167 196c0 157 96 303 244 303c53 0 104 -16 138 -52h2zM225 65c82 0 161 95 184 226l10 76c-34 36 -88 53 -126 53c-105 0 -168 -115 -168 -232c0 -73 35 -123 100 -123z" />
    <glyph glyph-name="uni1EA1" unicode="&#x1ea1;" horiz-adv-x="555" 
d="M434 487h79l-60 -487h-79l14 112h-2c-44 -71 -107 -118 -175 -118c-112 0 -167 87 -167 196c0 157 96 303 244 303c53 0 104 -16 138 -52h2zM225 65c82 0 161 95 184 226l10 76c-34 36 -88 53 -126 53c-105 0 -168 -115 -168 -232c0 -73 35 -123 100 -123zM232 -113
c31 0 54 -23 54 -54c0 -32 -24 -56 -56 -56c-31 0 -55 23 -55 54c0 33 25 56 57 56z" />
    <glyph glyph-name="agrave" unicode="&#xe0;" horiz-adv-x="555" 
d="M386 559h-83l-95 141l91 -1zM434 487h79l-60 -487h-79l14 112h-2c-44 -71 -107 -118 -175 -118c-112 0 -167 87 -167 196c0 157 96 303 244 303c53 0 104 -16 138 -52h2zM225 65c82 0 161 95 184 226l10 76c-34 36 -88 53 -126 53c-105 0 -168 -115 -168 -232
c0 -73 35 -123 100 -123z" />
    <glyph glyph-name="uni1EA3" unicode="&#x1ea3;" horiz-adv-x="555" 
d="M356 668c-27 0 -53 -14 -70 -33l-29 35c25 25 65 44 104 44c50 0 77 -29 77 -68c0 -44 -35 -71 -87 -89l-10 -24l-30 1c-7 9 -12 16 -12 27c3 28 86 43 86 84c0 16 -13 23 -29 23zM434 487h79l-60 -487h-79l14 112h-2c-44 -71 -107 -118 -175 -118
c-112 0 -167 87 -167 196c0 157 96 303 244 303c53 0 104 -16 138 -52h2zM225 65c82 0 161 95 184 226l10 76c-34 36 -88 53 -126 53c-105 0 -168 -115 -168 -232c0 -73 35 -123 100 -123z" />
    <glyph glyph-name="amacron" unicode="&#x101;" horiz-adv-x="555" 
d="M480 665l-9 -68h-262l8 68h263zM434 487h79l-60 -487h-79l14 112h-2c-44 -71 -107 -118 -175 -118c-112 0 -167 87 -167 196c0 157 96 303 244 303c53 0 104 -16 138 -52h2zM225 65c82 0 161 95 184 226l10 76c-34 36 -88 53 -126 53c-105 0 -168 -115 -168 -232
c0 -73 35 -123 100 -123z" />
    <glyph glyph-name="aogonek" unicode="&#x105;" horiz-adv-x="555" 
d="M453 0c-53 -21 -88 -60 -89 -96c-1 -21 11 -35 34 -35c21 0 33 3 45 10l2 -53c-17 -8 -42 -12 -65 -12c-55 0 -84 26 -83 74c1 45 35 89 78 118l13 106h-2c-44 -71 -107 -118 -175 -118c-112 0 -167 87 -167 196c0 157 96 303 244 303c53 0 104 -16 138 -52h2l6 46h79z
M225 65c82 0 161 95 184 226l10 76c-34 36 -88 53 -126 53c-105 0 -168 -115 -168 -232c0 -73 35 -123 100 -123z" />
    <glyph glyph-name="aring" unicode="&#xe5;" horiz-adv-x="555" 
d="M342 540c-52 0 -92 40 -92 93s40 93 95 93c53 0 93 -38 93 -90c0 -55 -41 -96 -96 -96zM345 676c-25 0 -44 -19 -44 -43s18 -42 42 -42c25 0 44 19 44 44c0 23 -18 41 -42 41zM434 487h79l-60 -487h-79l14 112h-2c-44 -71 -107 -118 -175 -118c-112 0 -167 87 -167 196
c0 157 96 303 244 303c53 0 104 -16 138 -52h2zM225 65c82 0 161 95 184 226l10 76c-34 36 -88 53 -126 53c-105 0 -168 -115 -168 -232c0 -73 35 -123 100 -123z" />
    <glyph glyph-name="aringacute" unicode="&#x1fb;" horiz-adv-x="559" 
d="M346 540c-52 0 -92 40 -92 93s40 93 95 93c26 0 49 -9 65 -24l66 46h94l-134 -94c1 -6 2 -12 2 -18c0 -55 -41 -96 -96 -96zM349 676c-25 0 -44 -19 -44 -43s18 -42 42 -42c25 0 44 19 44 44c0 23 -18 41 -42 41zM428 441l6 46h79l-60 -487h-79l14 112h-2
c-44 -71 -107 -118 -175 -118c-112 0 -167 87 -167 196c0 157 96 303 244 303c53 0 104 -16 138 -52h2zM225 65c82 0 161 95 184 226l10 76c-34 36 -88 53 -126 53c-105 0 -168 -115 -168 -232c0 -73 35 -123 100 -123z" />
    <glyph glyph-name="atilde" unicode="&#xe3;" horiz-adv-x="555" 
d="M288 622c-26 0 -47 -22 -62 -56l-51 25c24 59 61 96 106 96c35 0 52 -17 70 -30c18 -14 34 -28 52 -28c23 0 46 20 62 56l50 -20c-25 -66 -63 -102 -104 -102c-33 0 -57 21 -75 36c-17 13 -32 23 -48 23zM428 441l6 46h79l-60 -487h-79l14 112h-2
c-44 -71 -107 -118 -175 -118c-112 0 -167 87 -167 196c0 157 96 303 244 303c53 0 104 -16 138 -52h2zM225 65c82 0 161 95 184 226l10 76c-34 36 -88 53 -126 53c-105 0 -168 -115 -168 -232c0 -73 35 -123 100 -123z" />
    <glyph glyph-name="ae" unicode="&#xe6;" horiz-adv-x="670" 
d="M468 67c29 0 74 15 110 61l62 -45c-46 -58 -109 -89 -174 -89c-78 0 -138 38 -167 106h-2c-32 -60 -77 -104 -142 -106c-76 -3 -128 62 -128 152c0 176 122 329 312 329c25 0 52 -4 77 -11c32 18 69 29 109 29c78 0 135 -42 135 -113c0 -117 -128 -186 -296 -218l-1 -1
c12 -61 56 -94 105 -94zM580 371c0 33 -30 49 -63 49c-73 0 -144 -77 -155 -192l1 -1c121 27 217 77 217 144zM166 66c54 0 93 71 118 171c7 63 29 120 62 164v1h-16c-140 0 -224 -123 -222 -254c0 -43 20 -82 58 -82z" />
    <glyph glyph-name="aeacute" unicode="&#x1fd;" horiz-adv-x="670" 
d="M589 699l-129 -141h-82l122 140zM468 67c29 0 74 15 110 61l62 -45c-46 -58 -109 -89 -174 -89c-78 0 -138 38 -167 106h-2c-32 -60 -77 -104 -142 -106c-76 -3 -128 62 -128 152c0 176 122 329 312 329c25 0 52 -4 77 -11c32 18 69 29 109 29c78 0 135 -42 135 -113
c0 -117 -128 -186 -296 -218l-1 -1c12 -61 56 -94 105 -94zM580 371c0 33 -30 49 -63 49c-73 0 -144 -77 -155 -192l1 -1c121 27 217 77 217 144zM166 66c54 0 93 71 118 171c7 63 29 120 62 164v1h-16c-140 0 -224 -123 -222 -254c0 -43 20 -82 58 -82z" />
    <glyph glyph-name="b" unicode="b" horiz-adv-x="566" 
d="M355 493c113 0 167 -90 167 -206c0 -147 -92 -293 -272 -293c-74 0 -138 16 -195 53l85 689h79l-43 -350h1c47 68 109 107 178 107zM243 66c126 0 198 108 198 229c0 70 -34 125 -102 125c-88 0 -163 -95 -186 -226l-14 -109c37 -15 74 -19 104 -19z" />
    <glyph glyph-name="c" unicode="c" horiz-adv-x="489" 
d="M238 -6c-110 0 -193 69 -193 204c0 159 96 295 257 295c70 0 134 -27 169 -80l-62 -47c-25 37 -65 54 -109 54c-106 0 -175 -98 -175 -216c0 -91 54 -137 117 -137c48 0 94 18 132 61l62 -45c-52 -57 -112 -89 -198 -89z" />
    <glyph glyph-name="cacute" unicode="&#x107;" horiz-adv-x="489" 
d="M388 699l89 1l-129 -141h-82zM238 -6c-110 0 -193 69 -193 204c0 159 96 295 257 295c70 0 134 -27 169 -80l-62 -47c-25 37 -65 54 -109 54c-106 0 -175 -98 -175 -216c0 -91 54 -137 117 -137c48 0 94 18 132 61l62 -45c-52 -57 -112 -89 -198 -89z" />
    <glyph glyph-name="ccaron" unicode="&#x10d;" horiz-adv-x="489" 
d="M359 556h-76l-87 143h78l51 -94h1l75 94h82zM300 420c-106 0 -175 -98 -175 -216c0 -91 54 -137 117 -137c48 0 94 18 132 61l62 -45c-52 -57 -112 -89 -198 -89c-110 0 -193 69 -193 204c0 159 96 295 257 295c70 0 134 -27 169 -80l-62 -47c-25 37 -65 54 -109 54z" />
    <glyph glyph-name="ccedilla" unicode="&#xe7;" horiz-adv-x="489" 
d="M242 67c48 0 94 18 132 61l62 -45c-49 -54 -106 -86 -186 -89l-17 -26l2 -2c45 -2 73 -22 73 -63c0 -49 -45 -91 -108 -91c-18 0 -38 3 -51 7l3 42c11 -4 24 -6 41 -6c31 0 58 16 58 47c0 21 -22 31 -69 32l3 30l16 30l1 3c-92 14 -157 81 -157 201c0 159 96 295 257 295
c70 0 134 -27 169 -80l-62 -47c-25 37 -65 54 -109 54c-106 0 -175 -98 -175 -216c0 -91 54 -137 117 -137z" />
    <glyph glyph-name="ccircumflex" unicode="&#x109;" horiz-adv-x="489" 
d="M333 650l-75 -93h-81l121 143h76l90 -143h-79l-51 93h-1zM242 67c48 0 94 18 132 61l62 -45c-52 -57 -112 -89 -198 -89c-110 0 -193 69 -193 204c0 159 96 295 257 295c70 0 134 -27 169 -80l-62 -47c-25 37 -65 54 -109 54c-106 0 -175 -98 -175 -216
c0 -91 54 -137 117 -137z" />
    <glyph glyph-name="cdotaccent" unicode="&#x10b;" horiz-adv-x="489" 
d="M334 689c31 0 55 -23 55 -54c0 -33 -25 -56 -57 -56c-31 0 -54 23 -54 54c0 32 24 56 56 56zM238 -6c-110 0 -193 69 -193 204c0 159 96 295 257 295c70 0 134 -27 169 -80l-62 -47c-25 37 -65 54 -109 54c-106 0 -175 -98 -175 -216c0 -91 54 -137 117 -137
c48 0 94 18 132 61l62 -45c-52 -57 -112 -89 -198 -89z" />
    <glyph glyph-name="d" unicode="d" horiz-adv-x="565" 
d="M467 736h80l-91 -736h-79l14 111h-3c-43 -71 -107 -117 -177 -117c-111 0 -167 87 -167 196c0 157 96 303 245 303c49 0 103 -14 141 -49h1zM226 65c83 0 163 95 186 226l10 77c-32 39 -86 52 -129 52c-104 0 -168 -115 -168 -232c0 -73 35 -123 101 -123z" />
    <glyph glyph-name="eth" unicode="&#xf0;" horiz-adv-x="549" 
d="M506 313c0 -16 -1 -31 -2 -48c-8 -149 -106 -271 -259 -271c-120 0 -201 76 -201 205c0 151 107 282 252 282c46 0 84 -17 108 -43h2c-21 69 -57 125 -105 168l-70 -54l-34 41l60 47c-22 15 -47 28 -73 38l42 61c34 -13 66 -30 94 -50l72 55l33 -44l-61 -46
c89 -82 142 -200 142 -341zM248 67c103 0 176 92 176 222c0 73 -50 119 -119 119c-103 0 -180 -91 -180 -205c0 -88 51 -136 123 -136z" />
    <glyph glyph-name="dcaron" unicode="&#x10f;" horiz-adv-x="611" 
d="M641 772h83l-70 -184h-61zM431 444l36 292h80l-91 -736h-79l14 111h-3c-43 -71 -107 -117 -177 -117c-111 0 -167 87 -167 196c0 157 96 303 245 303c49 0 103 -14 141 -49h1zM226 65c83 0 163 95 186 226l10 77c-32 39 -86 52 -129 52c-104 0 -168 -115 -168 -232
c0 -73 35 -123 101 -123z" />
    <glyph glyph-name="dcroat" unicode="&#x111;" horiz-adv-x="549" 
d="M589 628l-7 -57h-55l-71 -571h-79l14 111h-3c-43 -71 -107 -117 -177 -117c-111 0 -167 87 -167 196c0 157 96 303 245 303c49 0 103 -14 141 -49h1l16 127h-113l8 57h112l13 108h80l-13 -108h55zM226 65c83 0 163 95 186 226l10 77c-32 39 -86 52 -129 52
c-104 0 -168 -115 -168 -232c0 -73 35 -123 101 -123z" />
    <glyph glyph-name="e" unicode="e" horiz-adv-x="476" 
d="M242 67c50 0 88 20 126 61l62 -45c-52 -56 -106 -89 -191 -89c-118 0 -194 76 -194 202c0 159 97 297 254 297c68 0 151 -38 151 -125c0 -126 -168 -178 -324 -195h-1c9 -69 57 -106 117 -106zM295 420c-76 0 -151 -62 -168 -176l1 -1c113 12 242 46 242 121
c0 42 -39 56 -75 56z" />
    <glyph glyph-name="eacute" unicode="&#xe9;" horiz-adv-x="476" 
d="M471 700l-129 -141h-82l122 140zM450 368c0 -126 -168 -178 -324 -195h-1c9 -69 57 -106 117 -106c50 0 88 20 126 61l62 -45c-52 -56 -106 -89 -191 -89c-118 0 -194 76 -194 202c0 159 97 297 254 297c68 0 151 -38 151 -125zM295 420c-76 0 -151 -62 -168 -176l1 -1
c113 12 242 46 242 121c0 42 -39 56 -75 56z" />
    <glyph glyph-name="ebreve" unicode="&#x115;" horiz-adv-x="476" 
d="M310 555c-73 0 -125 50 -119 140h63c-4 -48 13 -81 57 -81c45 0 78 34 85 81h64c-17 -87 -75 -140 -150 -140zM450 368c0 -126 -168 -178 -324 -195h-1c9 -69 57 -106 117 -106c50 0 88 20 126 61l62 -45c-52 -56 -106 -89 -191 -89c-118 0 -194 76 -194 202
c0 159 97 297 254 297c68 0 151 -38 151 -125zM295 420c-76 0 -151 -62 -168 -176l1 -1c113 12 242 46 242 121c0 42 -39 56 -75 56z" />
    <glyph glyph-name="ecaron" unicode="&#x11b;" horiz-adv-x="476" 
d="M347 556h-76l-87 143h78l51 -94h1l75 94h82zM450 368c0 -126 -168 -178 -324 -195h-1c9 -69 57 -106 117 -106c50 0 88 20 126 61l62 -45c-52 -56 -106 -89 -191 -89c-118 0 -194 76 -194 202c0 159 97 297 254 297c68 0 151 -38 151 -125zM295 420
c-76 0 -151 -62 -168 -176l1 -1c113 12 242 46 242 121c0 42 -39 56 -75 56z" />
    <glyph glyph-name="ecircumflex" unicode="&#xea;" horiz-adv-x="476" 
d="M321 650l-75 -93h-81l121 143h76l90 -143h-79l-51 93h-1zM450 368c0 -126 -168 -178 -324 -195h-1c9 -69 57 -106 117 -106c50 0 88 20 126 61l62 -45c-52 -56 -106 -89 -191 -89c-118 0 -194 76 -194 202c0 159 97 297 254 297c68 0 151 -38 151 -125zM295 420
c-76 0 -151 -62 -168 -176l1 -1c113 12 242 46 242 121c0 42 -39 56 -75 56z" />
    <glyph glyph-name="uni1EBF" unicode="&#x1ebf;" horiz-adv-x="476" 
d="M523 784h88l-144 -142h-62zM316 649l-75 -93h-81l121 143h76l90 -143h-79l-51 93h-1zM450 368c0 -126 -168 -178 -324 -195h-1c9 -69 57 -106 117 -106c50 0 88 20 126 61l62 -45c-52 -56 -106 -89 -191 -89c-118 0 -194 76 -194 202c0 159 97 297 254 297
c68 0 151 -38 151 -125zM295 420c-76 0 -151 -62 -168 -176l1 -1c113 12 242 46 242 121c0 42 -39 56 -75 56z" />
    <glyph glyph-name="uni1EC7" unicode="&#x1ec7;" horiz-adv-x="476" 
d="M321 650l-75 -93h-81l121 143h76l90 -143h-79l-51 93h-1zM450 368c0 -126 -168 -178 -324 -195h-1c9 -69 57 -106 117 -106c50 0 88 20 126 61l62 -45c-52 -56 -106 -89 -191 -89c-118 0 -194 76 -194 202c0 159 97 297 254 297c68 0 151 -38 151 -125zM295 420
c-76 0 -151 -62 -168 -176l1 -1c113 12 242 46 242 121c0 42 -39 56 -75 56zM220 -113c31 0 54 -23 54 -54c0 -32 -24 -56 -56 -56c-31 0 -55 23 -55 54c0 33 25 56 57 56z" />
    <glyph glyph-name="uni1EC1" unicode="&#x1ec1;" horiz-adv-x="476" 
d="M509 642h-62l-107 142h89zM317 649l-75 -93h-81l121 143h76l90 -143h-79l-51 93h-1zM450 368c0 -126 -168 -178 -324 -195h-1c9 -69 57 -106 117 -106c50 0 88 20 126 61l62 -45c-52 -56 -106 -89 -191 -89c-118 0 -194 76 -194 202c0 159 97 297 254 297
c68 0 151 -38 151 -125zM295 420c-76 0 -151 -62 -168 -176l1 -1c113 12 242 46 242 121c0 42 -39 56 -75 56z" />
    <glyph glyph-name="uni1EC3" unicode="&#x1ec3;" horiz-adv-x="476" 
d="M481 798c51 0 77 -30 77 -68c0 -44 -35 -71 -86 -89l-10 -24l-30 1c-8 8 -13 16 -12 27c2 28 85 43 86 84c0 16 -14 22 -30 22c-26 0 -52 -13 -69 -32l-30 34c26 26 65 45 104 45zM284 699h76l90 -143h-79l-51 93h-1l-75 -93h-81zM450 368c0 -126 -168 -178 -324 -195h-1
c9 -69 57 -106 117 -106c50 0 88 20 126 61l62 -45c-52 -56 -106 -89 -191 -89c-118 0 -194 76 -194 202c0 159 97 297 254 297c68 0 151 -38 151 -125zM295 420c-76 0 -151 -62 -168 -176l1 -1c113 12 242 46 242 121c0 42 -39 56 -75 56z" />
    <glyph glyph-name="uni1EC5" unicode="&#x1ec5;" horiz-adv-x="476" 
d="M457 838l47 -20c-24 -66 -60 -102 -98 -102c-32 0 -55 21 -72 36c-16 12 -31 23 -47 23c-24 0 -44 -22 -59 -56l-48 25c23 59 58 96 101 96c33 0 50 -17 67 -30s33 -28 50 -28c22 0 44 20 59 56zM287 699h76l90 -143h-79l-51 93h-1l-75 -93h-81zM450 368
c0 -126 -168 -178 -324 -195h-1c9 -69 57 -106 117 -106c50 0 88 20 126 61l62 -45c-52 -56 -106 -89 -191 -89c-118 0 -194 76 -194 202c0 159 97 297 254 297c68 0 151 -38 151 -125zM295 420c-76 0 -151 -62 -168 -176l1 -1c113 12 242 46 242 121c0 42 -39 56 -75 56z
" />
    <glyph glyph-name="edieresis" unicode="&#xeb;" horiz-adv-x="476" 
d="M233 579c-31 0 -54 23 -54 54c0 32 25 56 57 56c31 0 54 -23 54 -54c0 -33 -24 -56 -57 -56zM403 579c-31 0 -54 23 -54 54c0 32 24 56 57 56c30 0 54 -23 54 -54c0 -33 -25 -56 -57 -56zM450 368c0 -126 -168 -178 -324 -195h-1c9 -69 57 -106 117 -106
c50 0 88 20 126 61l62 -45c-52 -56 -106 -89 -191 -89c-118 0 -194 76 -194 202c0 159 97 297 254 297c68 0 151 -38 151 -125zM295 420c-76 0 -151 -62 -168 -176l1 -1c113 12 242 46 242 121c0 42 -39 56 -75 56z" />
    <glyph glyph-name="edotaccent" unicode="&#x117;" horiz-adv-x="476" 
d="M320 579c-31 0 -54 23 -54 54c0 32 24 56 56 56c31 0 55 -23 55 -54c0 -33 -25 -56 -57 -56zM242 67c50 0 88 20 126 61l62 -45c-52 -56 -106 -89 -191 -89c-118 0 -194 76 -194 202c0 159 97 297 254 297c68 0 151 -38 151 -125c0 -126 -168 -178 -324 -195h-1
c9 -69 57 -106 117 -106zM295 420c-76 0 -151 -62 -168 -176l1 -1c113 12 242 46 242 121c0 42 -39 56 -75 56z" />
    <glyph glyph-name="uni1EB9" unicode="&#x1eb9;" horiz-adv-x="476" 
d="M242 67c50 0 88 20 126 61l62 -45c-52 -56 -106 -89 -191 -89c-118 0 -194 76 -194 202c0 159 97 297 254 297c68 0 151 -38 151 -125c0 -126 -168 -178 -324 -195h-1c9 -69 57 -106 117 -106zM295 420c-76 0 -151 -62 -168 -176l1 -1c113 12 242 46 242 121
c0 42 -39 56 -75 56zM220 -113c31 0 54 -23 54 -54c0 -32 -24 -56 -56 -56c-31 0 -55 23 -55 54c0 33 25 56 57 56z" />
    <glyph glyph-name="egrave" unicode="&#xe8;" horiz-adv-x="476" 
d="M366 559h-83l-95 141l91 -1zM242 67c50 0 88 20 126 61l62 -45c-52 -56 -106 -89 -191 -89c-118 0 -194 76 -194 202c0 159 97 297 254 297c68 0 151 -38 151 -125c0 -126 -168 -178 -324 -195h-1c9 -69 57 -106 117 -106zM295 420c-76 0 -151 -62 -168 -176l1 -1
c113 12 242 46 242 121c0 42 -39 56 -75 56z" />
    <glyph glyph-name="uni1EBB" unicode="&#x1ebb;" horiz-adv-x="476" 
d="M331 668c-27 0 -53 -14 -70 -33l-29 35c25 25 65 44 104 44c50 0 77 -29 77 -68c0 -44 -35 -71 -87 -89l-10 -24l-30 1c-7 9 -12 16 -12 27c3 28 86 43 86 84c0 16 -13 23 -29 23zM242 67c50 0 88 20 126 61l62 -45c-52 -56 -106 -89 -191 -89c-118 0 -194 76 -194 202
c0 159 97 297 254 297c68 0 151 -38 151 -125c0 -126 -168 -178 -324 -195h-1c9 -69 57 -106 117 -106zM295 420c-76 0 -151 -62 -168 -176l1 -1c113 12 242 46 242 121c0 42 -39 56 -75 56z" />
    <glyph glyph-name="emacron" unicode="&#x113;" horiz-adv-x="476" 
d="M455 665l-9 -68h-262l8 68h263zM450 368c0 -126 -168 -178 -324 -195h-1c9 -69 57 -106 117 -106c50 0 88 20 126 61l62 -45c-52 -56 -106 -89 -191 -89c-118 0 -194 76 -194 202c0 159 97 297 254 297c68 0 151 -38 151 -125zM295 420c-76 0 -151 -62 -168 -176l1 -1
c113 12 242 46 242 121c0 42 -39 56 -75 56z" />
    <glyph glyph-name="eogonek" unicode="&#x119;" horiz-adv-x="476" 
d="M242 67c50 0 88 20 126 61l62 -45c-37 -40 -74 -68 -123 -81c-53 -20 -94 -61 -94 -99c0 -19 11 -34 38 -34c14 0 30 3 42 10l2 -53c-18 -8 -43 -12 -65 -12c-55 0 -84 25 -84 71c0 42 27 82 63 109l1 2c-101 11 -165 85 -165 200c0 159 97 297 254 297
c68 0 151 -38 151 -125c0 -126 -168 -178 -324 -195h-1c9 -69 57 -106 117 -106zM295 420c-76 0 -151 -62 -168 -176l1 -1c113 12 242 46 242 121c0 42 -39 56 -75 56z" />
    <glyph glyph-name="uni1EBD" unicode="&#x1ebd;" horiz-adv-x="476" 
d="M263 622c-26 0 -47 -22 -62 -56l-51 25c24 59 61 96 106 96c35 0 52 -17 70 -30c18 -14 34 -28 52 -28c23 0 46 20 62 56l50 -20c-25 -66 -63 -102 -104 -102c-33 0 -57 21 -75 36c-17 13 -32 23 -48 23zM450 368c0 -126 -168 -178 -324 -195h-1c9 -69 57 -106 117 -106
c50 0 88 20 126 61l62 -45c-52 -56 -106 -89 -191 -89c-118 0 -194 76 -194 202c0 159 97 297 254 297c68 0 151 -38 151 -125zM295 420c-76 0 -151 -62 -168 -176l1 -1c113 12 242 46 242 121c0 42 -39 56 -75 56z" />
    <glyph glyph-name="f" unicode="f" horiz-adv-x="310" 
d="M352 645c-22 16 -47 24 -68 24c-35 0 -63 -19 -72 -93l-11 -89h117l-8 -69h-118l-51 -418h-79l51 418h-51l8 69h52l13 105c12 103 62 151 137 151c38 0 70 -8 102 -30z" />
    <glyph glyph-name="g" unicode="g" horiz-adv-x="556" 
d="M435 487h79l-52 -424c-27 -218 -137 -267 -270 -267c-57 0 -111 14 -162 44l26 70c47 -28 92 -41 140 -41c96 0 167 34 187 200l7 59h-2c-43 -71 -107 -119 -177 -119c-111 0 -167 87 -167 196c0 142 96 288 245 288c53 0 105 -17 139 -53zM226 81c84 0 163 99 186 221
l7 64c-33 37 -88 54 -126 54c-104 0 -168 -115 -168 -217c0 -72 35 -122 101 -122z" />
    <glyph glyph-name="gbreve" unicode="&#x11f;" horiz-adv-x="556" 
d="M329 555c-73 0 -125 50 -119 140h63c-4 -48 13 -81 57 -81c45 0 78 34 85 81h64c-17 -87 -75 -140 -150 -140zM435 487h79l-52 -424c-27 -218 -137 -267 -270 -267c-57 0 -111 14 -162 44l26 70c47 -28 92 -41 140 -41c96 0 167 34 187 200l7 59h-2
c-43 -71 -107 -119 -177 -119c-111 0 -167 87 -167 196c0 142 96 288 245 288c53 0 105 -17 139 -53zM226 81c84 0 163 99 186 221l7 64c-33 37 -88 54 -126 54c-104 0 -168 -115 -168 -217c0 -72 35 -122 101 -122z" />
    <glyph glyph-name="gcaron" unicode="&#x1e7;" horiz-adv-x="556" 
d="M366 556h-76l-87 143h78l51 -94h1l75 94h82zM435 487h79l-52 -424c-27 -218 -137 -267 -270 -267c-57 0 -111 14 -162 44l26 70c47 -28 92 -41 140 -41c96 0 167 34 187 200l7 59h-2c-43 -71 -107 -119 -177 -119c-111 0 -167 87 -167 196c0 142 96 288 245 288
c53 0 105 -17 139 -53zM226 81c84 0 163 99 186 221l7 64c-33 37 -88 54 -126 54c-104 0 -168 -115 -168 -217c0 -72 35 -122 101 -122z" />
    <glyph glyph-name="gcircumflex" unicode="&#x11d;" horiz-adv-x="556" 
d="M340 650l-75 -93h-81l121 143h76l90 -143h-79l-51 93h-1zM435 487h79l-52 -424c-27 -218 -137 -267 -270 -267c-57 0 -111 14 -162 44l26 70c47 -28 92 -41 140 -41c96 0 167 34 187 200l7 59h-2c-43 -71 -107 -119 -177 -119c-111 0 -167 87 -167 196
c0 142 96 288 245 288c53 0 105 -17 139 -53zM226 81c84 0 163 99 186 221l7 64c-33 37 -88 54 -126 54c-104 0 -168 -115 -168 -217c0 -72 35 -122 101 -122z" />
    <glyph glyph-name="gcommaaccent" unicode="&#x123;" horiz-adv-x="556" 
d="M371 556h-71c-1 5 -1 9 -1 23c0 77 40 129 122 136l13 -49c-45 -11 -64 -35 -64 -87c0 -8 0 -14 1 -23zM435 487h79l-52 -424c-27 -218 -137 -267 -270 -267c-57 0 -111 14 -162 44l26 70c47 -28 92 -41 140 -41c96 0 167 34 187 200l7 59h-2
c-43 -71 -107 -119 -177 -119c-111 0 -167 87 -167 196c0 142 96 288 245 288c53 0 105 -17 139 -53zM226 81c84 0 163 99 186 221l7 64c-33 37 -88 54 -126 54c-104 0 -168 -115 -168 -217c0 -72 35 -122 101 -122z" />
    <glyph glyph-name="gdotaccent" unicode="&#x121;" horiz-adv-x="556" 
d="M339 579c-31 0 -54 23 -54 54c0 32 24 56 56 56c31 0 55 -23 55 -54c0 -33 -25 -56 -57 -56zM435 487h79l-52 -424c-27 -218 -137 -267 -270 -267c-57 0 -111 14 -162 44l26 70c47 -28 92 -41 140 -41c96 0 167 34 187 200l7 59h-2c-43 -71 -107 -119 -177 -119
c-111 0 -167 87 -167 196c0 142 96 288 245 288c53 0 105 -17 139 -53zM226 81c84 0 163 99 186 221l7 64c-33 37 -88 54 -126 54c-104 0 -168 -115 -168 -217c0 -72 35 -122 101 -122z" />
    <glyph glyph-name="h" unicode="h" horiz-adv-x="554" 
d="M371 493c99 0 138 -64 120 -200l-39 -293h-79l38 287c13 95 -10 133 -65 133c-75 0 -177 -101 -192 -229l-24 -191h-79l91 736h79l-43 -346h2c54 67 123 103 191 103z" />
    <glyph glyph-name="hbar" unicode="&#x127;" horiz-adv-x="554" 
d="M371 493c99 0 138 -64 120 -200l-39 -293h-79l38 287c13 95 -10 133 -65 133c-75 0 -177 -101 -192 -229l-24 -191h-79l71 571h-80l7 57h80l13 108h79l-13 -108h89l-7 -57h-89l-23 -181h2c54 67 123 103 191 103z" />
    <glyph glyph-name="hcircumflex" unicode="&#x125;" horiz-adv-x="554" 
d="M334 895l-75 -93h-81l121 143h76l90 -143h-79l-51 93h-1zM371 493c99 0 138 -64 120 -200l-39 -293h-79l38 287c13 95 -10 133 -65 133c-75 0 -177 -101 -192 -229l-24 -191h-79l91 736h79l-43 -346h2c54 67 123 103 191 103z" />
    <glyph glyph-name="i" unicode="i" horiz-adv-x="243" 
d="M174 689c31 0 55 -23 55 -54c0 -33 -25 -56 -57 -56c-31 0 -54 23 -54 54c0 32 24 56 56 56zM112 487h79l-60 -487h-79z" />
    <glyph glyph-name="dotlessi" unicode="&#x131;" horiz-adv-x="243" 
d="M112 487h79l-60 -487h-79z" />
    <glyph glyph-name="iacute" unicode="&#xed;" horiz-adv-x="252" 
d="M258 699l89 1l-129 -141h-82zM112 487h79l-60 -487h-79z" />
    <glyph glyph-name="ibreve" unicode="&#x12d;" horiz-adv-x="243" 
d="M166 555c-67 0 -114 50 -107 140h60c-4 -48 10 -81 49 -81c40 0 65 34 68 81h64c-15 -87 -66 -140 -134 -140zM112 487h79l-60 -487h-79z" />
    <glyph glyph-name="icircumflex" unicode="&#xee;" horiz-adv-x="243" 
d="M214 700l90 -143h-79l-51 93h-1l-75 -93h-81l121 143h76zM52 0l60 487h79l-60 -487h-79z" />
    <glyph glyph-name="idieresis" unicode="&#xef;" horiz-adv-x="243" 
d="M89 690c31 0 54 -23 54 -54c0 -33 -24 -56 -57 -56c-31 0 -54 23 -54 54c0 32 25 56 57 56zM255 690c31 0 54 -23 54 -54c0 -33 -24 -56 -57 -56c-31 0 -54 23 -54 54c0 32 25 56 57 56zM112 487h79l-60 -487h-79z" />
    <glyph glyph-name="i.loclTRK" horiz-adv-x="243" 
d="M174 689c31 0 55 -23 55 -54c0 -33 -25 -56 -57 -56c-31 0 -54 23 -54 54c0 32 24 56 56 56zM112 487h79l-60 -487h-79z" />
    <glyph glyph-name="uni1ECB" unicode="&#x1ecb;" horiz-adv-x="243" 
d="M174 689c31 0 55 -23 55 -54c0 -33 -25 -56 -57 -56c-31 0 -54 23 -54 54c0 32 24 56 56 56zM112 487h79l-60 -487h-79zM71 -223c-31 0 -55 23 -55 54c0 33 25 56 57 56c31 0 54 -23 54 -54c0 -32 -24 -56 -56 -56z" />
    <glyph glyph-name="igrave" unicode="&#xec;" horiz-adv-x="246" 
d="M149 705l55 -140h-83l-62 141zM112 487h79l-60 -487h-79z" />
    <glyph glyph-name="uni1EC9" unicode="&#x1ec9;" horiz-adv-x="243" 
d="M113 635l-29 35c25 25 65 44 104 44c50 0 77 -29 77 -68c0 -44 -35 -71 -87 -89l-10 -24l-30 1c-7 9 -12 16 -12 27c3 28 86 43 86 84c0 16 -13 23 -29 23c-27 0 -53 -14 -70 -33zM112 487h79l-60 -487h-79z" />
    <glyph glyph-name="ij" unicode="&#x133;" horiz-adv-x="459" 
d="M174 689c31 0 55 -23 55 -54c0 -33 -25 -56 -57 -56c-31 0 -54 23 -54 54c0 32 24 56 56 56zM398 689c31 0 55 -23 55 -54c0 -33 -25 -56 -57 -56c-31 0 -54 23 -54 54c0 32 24 56 56 56zM112 487h79l-60 -487h-79zM159 -119c16 -12 30 -16 46 -16c35 0 58 22 67 99
l64 523h79l-65 -533c-13 -107 -58 -158 -134 -158c-35 0 -56 7 -77 20z" />
    <glyph glyph-name="imacron" unicode="&#x12b;" horiz-adv-x="243" 
d="M44 665h263l-9 -68h-262zM112 487h79l-60 -487h-79z" />
    <glyph glyph-name="iogonek" unicode="&#x12f;" horiz-adv-x="243" 
d="M174 689c31 0 55 -23 55 -54c0 -33 -25 -56 -57 -56c-31 0 -54 23 -54 54c0 32 24 56 56 56zM53 6l59 481h79l-60 -487c-53 -21 -88 -60 -89 -96c-1 -21 11 -35 34 -35c21 0 33 3 45 10l2 -53c-17 -8 -42 -12 -65 -12c-55 0 -84 26 -83 74c1 45 35 89 78 118z" />
    <glyph glyph-name="itilde" unicode="&#x129;" horiz-adv-x="243" 
d="M13 592c23 59 58 96 101 96c33 0 50 -17 67 -30s33 -28 50 -28c22 0 44 20 59 56l47 -20c-24 -66 -60 -102 -98 -102c-32 0 -55 21 -72 36c-16 12 -31 23 -47 23c-24 0 -44 -22 -59 -56zM112 487h79l-60 -487h-79z" />
    <glyph glyph-name="j" unicode="j" horiz-adv-x="216" 
d="M155 689c31 0 55 -23 55 -54c0 -33 -25 -56 -57 -56c-31 0 -54 23 -54 54c0 32 24 56 56 56zM-84 -119c16 -12 30 -16 46 -16c35 0 58 22 67 99l64 523h79l-65 -533c-13 -107 -58 -158 -134 -158c-35 0 -56 7 -77 20z" />
    <glyph glyph-name="uni0237" unicode="&#x237;" horiz-adv-x="216" 
d="M-84 -119c16 -12 30 -16 46 -16c35 0 58 22 67 99l64 523h79l-65 -533c-13 -107 -58 -158 -134 -158c-35 0 -56 7 -77 20z" />
    <glyph glyph-name="jcircumflex" unicode="&#x135;" horiz-adv-x="216" 
d="M195 700l90 -143h-79l-51 93h-1l-75 -93h-81l121 143h76zM29 -36l64 523h79l-65 -533c-13 -107 -58 -158 -134 -158c-35 0 -56 7 -77 20l20 65c16 -12 30 -16 46 -16c35 0 58 22 67 99z" />
    <glyph glyph-name="k" unicode="k" horiz-adv-x="502" 
d="M361 154c31 -75 49 -90 84 -97l-23 -62c-7 -1 -13 -1 -20 0c-62 4 -82 56 -115 136l-23 53h-1c-38 -29 -79 -54 -121 -74l-14 -110h-79l91 736h78l-66 -540h2c129 75 211 186 243 291h82c-22 -90 -78 -177 -153 -249z" />
    <glyph glyph-name="kcommaaccent" unicode="&#x137;" horiz-adv-x="502" 
d="M361 154c31 -75 49 -90 84 -97l-23 -62c-7 -1 -13 -1 -20 0c-62 4 -82 56 -115 136l-23 53h-1c-38 -29 -79 -54 -121 -74l-14 -110h-79l91 736h78l-66 -540h2c129 75 211 186 243 291h82c-22 -90 -78 -177 -153 -249zM184 -53h71c1 -5 1 -9 1 -23
c0 -77 -40 -129 -122 -136l-13 49c45 11 64 35 64 87c0 8 0 14 -1 23z" />
    <glyph glyph-name="kgreenlandic" unicode="&#x138;" horiz-adv-x="502" 
d="M361 154c31 -75 49 -90 84 -97l-23 -62c-7 -1 -13 -1 -20 0c-62 4 -82 56 -115 136l-23 53h-1c-38 -29 -79 -54 -121 -74l-14 -110h-79l60 487h79l-36 -291h2c129 75 211 186 243 291h82c-22 -90 -78 -177 -153 -249z" />
    <glyph glyph-name="l" unicode="l" horiz-adv-x="239" 
d="M146 736h79l-91 -736h-79z" />
    <glyph glyph-name="lacute" unicode="&#x13a;" horiz-adv-x="239" 
d="M279 945l89 1l-129 -141h-82zM146 736h79l-91 -736h-79z" />
    <glyph glyph-name="lcaron" unicode="&#x13e;" horiz-adv-x="289" 
d="M319 772h82l-69 -184h-62zM146 736h79l-91 -736h-79z" />
    <glyph glyph-name="lcommaaccent" unicode="&#x13c;" horiz-adv-x="239" 
d="M146 736h79l-91 -736h-79zM124 -53c1 -5 1 -9 1 -23c0 -77 -40 -129 -122 -136l-13 49c45 11 64 35 64 87c0 8 0 14 -1 23h71z" />
    <glyph glyph-name="ldot" unicode="&#x140;" horiz-adv-x="369" 
d="M146 736h79l-91 -736h-79zM317 310c30 0 54 -23 54 -55s-25 -56 -57 -56c-31 0 -54 23 -54 54c0 33 24 57 57 57z" />
    <glyph glyph-name="lslash" unicode="&#x142;" horiz-adv-x="260" 
d="M251 412l-9 -76l-62 -29l-38 -307h-79l33 267l-62 -29l9 76l62 29l49 393h79l-44 -353z" />
    <glyph glyph-name="m" unicode="m" horiz-adv-x="829" 
d="M650 493c97 0 136 -64 118 -200l-39 -293h-80l38 287c13 95 -10 133 -58 133c-63 0 -151 -93 -173 -213l-28 -207h-79l38 287c12 95 -11 133 -58 133c-65 0 -162 -101 -177 -230h-1l-23 -190h-79l60 487h79l-11 -92h2c51 64 114 98 173 98c66 0 106 -33 116 -103h2
c50 67 114 103 180 103z" />
    <glyph glyph-name="n" unicode="n" horiz-adv-x="552" 
d="M369 493c99 0 138 -64 120 -200l-39 -293h-79l38 287c13 95 -10 133 -65 133c-75 0 -177 -101 -192 -230h-1l-23 -190h-79l60 487h79l-12 -96h2c54 67 124 102 191 102z" />
    <glyph glyph-name="nacute" unicode="&#x144;" horiz-adv-x="552" 
d="M467 700l-129 -141h-82l122 140zM369 493c99 0 138 -64 120 -200l-39 -293h-79l38 287c13 95 -10 133 -65 133c-75 0 -177 -101 -192 -230h-1l-23 -190h-79l60 487h79l-12 -96h2c54 67 124 102 191 102z" />
    <glyph glyph-name="napostrophe" unicode="&#x149;" horiz-adv-x="648" 
d="M97 710h82l-70 -193h-61zM465 493c99 0 138 -64 120 -200l-39 -293h-79l38 287c13 95 -10 133 -65 133c-75 0 -177 -101 -192 -230h-1l-23 -190h-79l60 487h79l-12 -96h2c54 67 124 102 191 102z" />
    <glyph glyph-name="ncaron" unicode="&#x148;" horiz-adv-x="552" 
d="M367 556h-76l-87 143h78l51 -94h1l75 94h82zM369 493c99 0 138 -64 120 -200l-39 -293h-79l38 287c13 95 -10 133 -65 133c-75 0 -177 -101 -192 -230h-1l-23 -190h-79l60 487h79l-12 -96h2c54 67 124 102 191 102z" />
    <glyph glyph-name="ncommaaccent" unicode="&#x146;" horiz-adv-x="552" 
d="M369 493c99 0 138 -64 120 -200l-39 -293h-79l38 287c13 95 -10 133 -65 133c-75 0 -177 -101 -192 -230h-1l-23 -190h-79l60 487h79l-12 -96h2c54 67 124 102 191 102zM207 -53h71c1 -5 1 -9 1 -23c0 -77 -40 -129 -122 -136l-13 49c45 11 64 35 64 87c0 8 0 14 -1 23z
" />
    <glyph glyph-name="eng" unicode="&#x14b;" horiz-adv-x="533" 
d="M357 493c91 0 129 -67 113 -197l-44 -341c-13 -107 -57 -158 -134 -158c-34 0 -56 8 -77 21l19 64c17 -12 31 -15 47 -15c35 0 57 22 67 98l42 326c11 91 -8 128 -61 128c-65 0 -162 -100 -177 -227l-24 -192h-79l60 487h79l-13 -105h2c51 72 116 111 180 111z" />
    <glyph glyph-name="uni0272" unicode="&#x272;" horiz-adv-x="552" 
d="M369 493c99 0 138 -64 120 -200l-39 -293h-79l38 287c13 95 -10 132 -65 132c-74 0 -173 -96 -191 -222l-30 -243c-13 -107 -58 -158 -135 -158c-34 0 -55 7 -77 20l20 65c17 -12 30 -16 47 -16c34 0 57 22 66 99l65 523h79l-13 -107h2c53 73 121 113 192 113z" />
    <glyph glyph-name="ntilde" unicode="&#xf1;" horiz-adv-x="552" 
d="M283 622c-26 0 -47 -22 -62 -56l-51 25c24 59 61 96 106 96c35 0 52 -17 70 -30c18 -14 34 -28 52 -28c23 0 46 20 62 56l50 -20c-25 -66 -63 -102 -104 -102c-33 0 -57 21 -75 36c-17 13 -32 23 -48 23zM369 493c99 0 138 -64 120 -200l-39 -293h-79l38 287
c13 95 -10 133 -65 133c-75 0 -177 -101 -192 -230h-1l-23 -190h-79l60 487h79l-12 -96h2c54 67 124 102 191 102z" />
    <glyph glyph-name="o" unicode="o" horiz-adv-x="547" 
d="M301 493c121 0 201 -71 201 -200c0 -167 -93 -299 -256 -299c-122 0 -202 74 -202 204c0 156 98 295 257 295zM296 420c-102 0 -171 -101 -171 -213c0 -84 45 -140 122 -140c104 0 175 94 175 220c0 99 -62 133 -126 133z" />
    <glyph glyph-name="oacute" unicode="&#xf3;" horiz-adv-x="547" 
d="M400 699l89 1l-129 -141h-82zM301 493c121 0 201 -71 201 -200c0 -167 -93 -299 -256 -299c-122 0 -202 74 -202 204c0 156 98 295 257 295zM296 420c-102 0 -171 -101 -171 -213c0 -84 45 -140 122 -140c104 0 175 94 175 220c0 99 -62 133 -126 133z" />
    <glyph glyph-name="obreve" unicode="&#x14f;" horiz-adv-x="547" 
d="M319 555c-73 0 -125 50 -119 140h63c-4 -48 13 -81 57 -81c45 0 78 34 85 81h64c-17 -87 -75 -140 -150 -140zM301 493c121 0 201 -71 201 -200c0 -167 -93 -299 -256 -299c-122 0 -202 74 -202 204c0 156 98 295 257 295zM296 420c-102 0 -171 -101 -171 -213
c0 -84 45 -140 122 -140c104 0 175 94 175 220c0 99 -62 133 -126 133z" />
    <glyph glyph-name="ocircumflex" unicode="&#xf4;" horiz-adv-x="547" 
d="M330 650l-75 -93h-81l121 143h76l90 -143h-79l-51 93h-1zM301 493c121 0 201 -71 201 -200c0 -167 -93 -299 -256 -299c-122 0 -202 74 -202 204c0 156 98 295 257 295zM247 67c104 0 175 94 175 220c0 99 -62 133 -126 133c-102 0 -171 -101 -171 -213
c0 -84 45 -140 122 -140z" />
    <glyph glyph-name="uni1ED1" unicode="&#x1ed1;" horiz-adv-x="547" 
d="M620 784l-144 -142h-62l118 142h88zM325 649l-75 -93h-81l121 143h76l90 -143h-79l-51 93h-1zM301 493c121 0 201 -71 201 -200c0 -167 -93 -299 -256 -299c-122 0 -202 74 -202 204c0 156 98 295 257 295zM247 67c104 0 175 94 175 220c0 99 -62 133 -126 133
c-102 0 -171 -101 -171 -213c0 -84 45 -140 122 -140z" />
    <glyph glyph-name="uni1ED9" unicode="&#x1ed9;" horiz-adv-x="547" 
d="M330 650l-75 -93h-81l121 143h76l90 -143h-79l-51 93h-1zM301 493c121 0 201 -71 201 -200c0 -167 -93 -299 -256 -299c-122 0 -202 74 -202 204c0 156 98 295 257 295zM247 67c104 0 175 94 175 220c0 99 -62 133 -126 133c-102 0 -171 -101 -171 -213
c0 -84 45 -140 122 -140zM223 -113c31 0 54 -23 54 -54c0 -32 -24 -56 -56 -56c-31 0 -55 23 -55 54c0 33 25 56 57 56z" />
    <glyph glyph-name="uni1ED3" unicode="&#x1ed3;" horiz-adv-x="547" 
d="M518 642h-62l-107 142h89zM326 649l-75 -93h-81l121 143h76l90 -143h-79l-51 93h-1zM301 493c121 0 201 -71 201 -200c0 -167 -93 -299 -256 -299c-122 0 -202 74 -202 204c0 156 98 295 257 295zM247 67c104 0 175 94 175 220c0 99 -62 133 -126 133
c-102 0 -171 -101 -171 -213c0 -84 45 -140 122 -140z" />
    <glyph glyph-name="uni1ED5" unicode="&#x1ed5;" horiz-adv-x="547" 
d="M490 798c51 0 77 -30 77 -68c0 -44 -35 -71 -86 -89l-10 -24l-30 1c-8 8 -13 16 -12 27c2 28 85 43 86 84c0 16 -14 22 -30 22c-26 0 -52 -13 -69 -32l-30 34c26 26 65 45 104 45zM328 649l-75 -93h-81l121 143h76l90 -143h-79l-51 93h-1zM301 493
c121 0 201 -71 201 -200c0 -167 -93 -299 -256 -299c-122 0 -202 74 -202 204c0 156 98 295 257 295zM247 67c104 0 175 94 175 220c0 99 -62 133 -126 133c-102 0 -171 -101 -171 -213c0 -84 45 -140 122 -140z" />
    <glyph glyph-name="uni1ED7" unicode="&#x1ed7;" horiz-adv-x="547" 
d="M296 775c-24 0 -44 -22 -59 -56l-48 25c23 59 58 96 101 96c33 0 50 -17 67 -30s33 -28 50 -28c22 0 44 20 59 56l47 -20c-24 -66 -60 -102 -98 -102c-32 0 -55 21 -72 36c-16 12 -31 23 -47 23zM331 649l-75 -93h-81l121 143h76l90 -143h-79l-51 93h-1zM301 493
c121 0 201 -71 201 -200c0 -167 -93 -299 -256 -299c-122 0 -202 74 -202 204c0 156 98 295 257 295zM247 67c104 0 175 94 175 220c0 99 -62 133 -126 133c-102 0 -171 -101 -171 -213c0 -84 45 -140 122 -140z" />
    <glyph glyph-name="odieresis" unicode="&#xf6;" horiz-adv-x="547" 
d="M245 689c31 0 54 -23 54 -54c0 -33 -24 -56 -57 -56c-31 0 -54 23 -54 54c0 32 25 56 57 56zM415 689c30 0 54 -23 54 -54c0 -33 -25 -56 -57 -56c-31 0 -54 23 -54 54c0 32 24 56 57 56zM301 493c121 0 201 -71 201 -200c0 -167 -93 -299 -256 -299
c-122 0 -202 74 -202 204c0 156 98 295 257 295zM296 420c-102 0 -171 -101 -171 -213c0 -84 45 -140 122 -140c104 0 175 94 175 220c0 99 -62 133 -126 133z" />
    <glyph glyph-name="uni1ECD" unicode="&#x1ecd;" horiz-adv-x="547" 
d="M301 493c121 0 201 -71 201 -200c0 -167 -93 -299 -256 -299c-122 0 -202 74 -202 204c0 156 98 295 257 295zM296 420c-102 0 -171 -101 -171 -213c0 -84 45 -140 122 -140c104 0 175 94 175 220c0 99 -62 133 -126 133zM221 -223c-31 0 -55 23 -55 54c0 33 25 56 57 56
c31 0 54 -23 54 -54c0 -32 -24 -56 -56 -56z" />
    <glyph glyph-name="ograve" unicode="&#xf2;" horiz-adv-x="547" 
d="M282 699l87 -140h-83l-95 141zM301 493c121 0 201 -71 201 -200c0 -167 -93 -299 -256 -299c-122 0 -202 74 -202 204c0 156 98 295 257 295zM296 420c-102 0 -171 -101 -171 -213c0 -84 45 -140 122 -140c104 0 175 94 175 220c0 99 -62 133 -126 133z" />
    <glyph glyph-name="uni1ECF" unicode="&#x1ecf;" horiz-adv-x="547" 
d="M270 635l-29 35c25 25 65 44 104 44c50 0 77 -29 77 -68c0 -44 -35 -71 -87 -89l-10 -24l-30 1c-7 9 -12 16 -12 27c3 28 86 43 86 84c0 16 -13 23 -29 23c-27 0 -53 -14 -70 -33zM301 493c121 0 201 -71 201 -200c0 -167 -93 -299 -256 -299c-122 0 -202 74 -202 204
c0 156 98 295 257 295zM296 420c-102 0 -171 -101 -171 -213c0 -84 45 -140 122 -140c104 0 175 94 175 220c0 99 -62 133 -126 133z" />
    <glyph glyph-name="ohorn" unicode="&#x1a1;" horiz-adv-x="619" 
d="M567 565h75l-12 -95c-14 -107 -61 -155 -128 -158h-1c1 -6 1 -13 1 -19c0 -167 -93 -299 -256 -299c-122 0 -202 74 -202 204c0 156 98 295 257 295c97 0 168 -46 192 -130c40 1 54 45 63 119zM247 67c104 0 175 94 175 220c0 99 -62 133 -126 133
c-102 0 -171 -101 -171 -213c0 -84 45 -140 122 -140z" />
    <glyph glyph-name="uni1EDB" unicode="&#x1edb;" horiz-adv-x="619" 
d="M489 700l-129 -141h-82l122 140zM567 565h75l-12 -95c-14 -107 -61 -155 -128 -158h-1c1 -6 1 -13 1 -19c0 -167 -93 -299 -256 -299c-122 0 -202 74 -202 204c0 156 98 295 257 295c97 0 168 -46 192 -130c40 1 54 45 63 119zM247 67c104 0 175 94 175 220
c0 99 -62 133 -126 133c-102 0 -171 -101 -171 -213c0 -84 45 -140 122 -140z" />
    <glyph glyph-name="uni1EE3" unicode="&#x1ee3;" horiz-adv-x="619" 
d="M567 565h75l-12 -95c-14 -107 -61 -155 -128 -158h-1c1 -6 1 -13 1 -19c0 -167 -93 -299 -256 -299c-122 0 -202 74 -202 204c0 156 98 295 257 295c97 0 168 -46 192 -130c40 1 54 45 63 119zM247 67c104 0 175 94 175 220c0 99 -62 133 -126 133
c-102 0 -171 -101 -171 -213c0 -84 45 -140 122 -140zM223 -113c31 0 54 -23 54 -54c0 -32 -24 -56 -56 -56c-31 0 -55 23 -55 54c0 33 25 56 57 56z" />
    <glyph glyph-name="uni1EDD" unicode="&#x1edd;" horiz-adv-x="619" 
d="M369 559h-83l-95 141l91 -1zM567 565h75l-12 -95c-14 -107 -61 -155 -128 -158h-1c1 -6 1 -13 1 -19c0 -167 -93 -299 -256 -299c-122 0 -202 74 -202 204c0 156 98 295 257 295c97 0 168 -46 192 -130c40 1 54 45 63 119zM247 67c104 0 175 94 175 220
c0 99 -62 133 -126 133c-102 0 -171 -101 -171 -213c0 -84 45 -140 122 -140z" />
    <glyph glyph-name="uni1EDF" unicode="&#x1edf;" horiz-adv-x="619" 
d="M340 668c-27 0 -53 -14 -70 -33l-29 35c25 25 65 44 104 44c50 0 77 -29 77 -68c0 -44 -35 -71 -87 -89l-10 -24l-30 1c-7 9 -12 16 -12 27c3 28 86 43 86 84c0 16 -13 23 -29 23zM567 565h75l-12 -95c-14 -107 -61 -155 -128 -158h-1c1 -6 1 -13 1 -19
c0 -167 -93 -299 -256 -299c-122 0 -202 74 -202 204c0 156 98 295 257 295c97 0 168 -46 192 -130c40 1 54 45 63 119zM247 67c104 0 175 94 175 220c0 99 -62 133 -126 133c-102 0 -171 -101 -171 -213c0 -84 45 -140 122 -140z" />
    <glyph glyph-name="uni1EE1" unicode="&#x1ee1;" horiz-adv-x="619" 
d="M272 622c-26 0 -47 -22 -62 -56l-51 25c24 59 61 96 106 96c35 0 52 -17 70 -30c18 -14 34 -28 52 -28c23 0 46 20 62 56l50 -20c-25 -66 -63 -102 -104 -102c-33 0 -57 21 -75 36c-17 13 -32 23 -48 23zM567 565h75l-12 -95c-14 -107 -61 -155 -128 -158h-1
c1 -6 1 -13 1 -19c0 -167 -93 -299 -256 -299c-122 0 -202 74 -202 204c0 156 98 295 257 295c97 0 168 -46 192 -130c40 1 54 45 63 119zM247 67c104 0 175 94 175 220c0 99 -62 133 -126 133c-102 0 -171 -101 -171 -213c0 -84 45 -140 122 -140z" />
    <glyph glyph-name="ohungarumlaut" unicode="&#x151;" horiz-adv-x="552" 
d="M316 699l86 1l-129 -141h-78zM475 699l86 1l-129 -141h-78zM301 493c121 0 201 -71 201 -200c0 -167 -93 -299 -256 -299c-122 0 -202 74 -202 204c0 156 98 295 257 295zM296 420c-102 0 -171 -101 -171 -213c0 -84 45 -140 122 -140c104 0 175 94 175 220
c0 99 -62 133 -126 133z" />
    <glyph glyph-name="omacron" unicode="&#x14d;" horiz-adv-x="547" 
d="M201 665h263l-9 -68h-262zM301 493c121 0 201 -71 201 -200c0 -167 -93 -299 -256 -299c-122 0 -202 74 -202 204c0 156 98 295 257 295zM296 420c-102 0 -171 -101 -171 -213c0 -84 45 -140 122 -140c104 0 175 94 175 220c0 99 -62 133 -126 133z" />
    <glyph glyph-name="uni01EB" unicode="&#x1eb;" horiz-adv-x="547" 
d="M296 -2c-51 -21 -84 -59 -85 -94c-1 -21 11 -35 34 -35c21 0 33 3 45 10l2 -53c-17 -8 -42 -12 -65 -12c-55 0 -84 26 -83 74c1 39 27 77 61 105v4c-98 15 -161 86 -161 201c0 156 98 295 257 295c121 0 201 -71 201 -200c0 -149 -74 -270 -206 -295zM125 207
c0 -84 45 -140 122 -140c104 0 175 94 175 220c0 99 -62 133 -126 133c-102 0 -171 -101 -171 -213z" />
    <glyph glyph-name="oslash" unicode="&#xf8;" horiz-adv-x="552" 
d="M526 466l-54 -56c19 -31 30 -70 30 -117c0 -167 -93 -299 -256 -299c-54 0 -99 14 -134 42l-53 -56l-38 37l56 58c-21 32 -33 73 -33 123c0 156 98 295 257 295c55 0 102 -15 137 -43l51 53zM125 207c0 -26 4 -49 13 -69l244 254c-24 20 -55 28 -86 28
c-102 0 -171 -101 -171 -213zM422 287c0 24 -4 44 -10 60l-243 -253c20 -17 46 -27 78 -27c104 0 175 94 175 220z" />
    <glyph glyph-name="oslashacute" unicode="&#x1ff;" horiz-adv-x="552" 
d="M473 699l-129 -141h-82l122 140zM526 466l-54 -56c19 -31 30 -70 30 -117c0 -167 -93 -299 -256 -299c-54 0 -99 14 -134 42l-53 -56l-38 37l56 58c-21 32 -33 73 -33 123c0 156 98 295 257 295c55 0 102 -15 137 -43l51 53zM125 207c0 -26 4 -49 13 -69l244 254
c-24 20 -55 28 -86 28c-102 0 -171 -101 -171 -213zM422 287c0 24 -4 44 -10 60l-243 -253c20 -17 46 -27 78 -27c104 0 175 94 175 220z" />
    <glyph glyph-name="otilde" unicode="&#xf5;" horiz-adv-x="547" 
d="M159 591c24 59 61 96 106 96c35 0 52 -17 70 -30c18 -14 34 -28 52 -28c23 0 46 20 62 56l50 -20c-25 -66 -63 -102 -104 -102c-33 0 -57 21 -75 36c-17 13 -32 23 -48 23c-26 0 -47 -22 -62 -56zM301 493c121 0 201 -71 201 -200c0 -167 -93 -299 -256 -299
c-122 0 -202 74 -202 204c0 156 98 295 257 295zM296 420c-102 0 -171 -101 -171 -213c0 -84 45 -140 122 -140c104 0 175 94 175 220c0 99 -62 133 -126 133z" />
    <glyph glyph-name="oe" unicode="&#x153;" horiz-adv-x="738" 
d="M535 67c28 0 74 15 110 61l62 -45c-46 -58 -109 -89 -174 -89c-74 0 -131 34 -161 96h-3c-39 -59 -97 -96 -168 -96c-102 0 -169 78 -169 201c0 166 97 298 234 298c70 0 118 -34 142 -95h2c44 59 107 95 182 95c77 0 135 -42 135 -113c0 -117 -129 -181 -297 -209
c8 -68 52 -104 105 -104zM208 67c76 0 142 91 146 214c3 82 -27 139 -90 139c-79 0 -151 -98 -151 -220c0 -92 45 -133 95 -133zM584 420c-70 0 -140 -71 -154 -184l2 -1c120 24 214 70 214 136c0 33 -29 49 -62 49z" />
    <glyph glyph-name="p" unicode="p" horiz-adv-x="565" 
d="M360 493c107 0 161 -90 161 -196c0 -157 -95 -303 -246 -303c-53 0 -105 15 -140 50h-1l-30 -242h-79l84 685h79l-14 -109h2c44 70 106 115 184 115zM265 66c107 0 176 108 176 236c0 63 -32 119 -98 119c-87 0 -166 -96 -190 -227l-9 -70c23 -41 75 -58 121 -58z" />
    <glyph glyph-name="thorn" unicode="&#xfe;" horiz-adv-x="565" 
d="M360 493c106 0 161 -90 161 -196c0 -157 -95 -303 -246 -303c-53 0 -104 15 -140 49h-1l-30 -241h-79l115 934h79l-44 -356h1c44 69 106 113 184 113zM265 66c107 0 175 108 175 236c0 63 -31 119 -98 119c-89 0 -169 -100 -191 -236l-7 -61c22 -41 74 -58 121 -58z" />
    <glyph glyph-name="q" unicode="q" horiz-adv-x="556" 
d="M434 487h79l-84 -685h-79l38 310h-2c-44 -71 -107 -118 -175 -118c-112 0 -167 87 -167 196c0 157 96 303 244 303c54 0 105 -17 139 -53h1zM225 65c82 0 161 95 184 226l10 76c-34 36 -88 53 -126 53c-105 0 -168 -115 -168 -232c0 -73 35 -123 100 -123z" />
    <glyph glyph-name="r" unicode="r" horiz-adv-x="331" 
d="M178 381c43 68 100 105 164 112l-11 -93c-100 5 -164 -85 -179 -210h-1l-23 -190h-79l60 487h79l-13 -106h3z" />
    <glyph glyph-name="racute" unicode="&#x155;" horiz-adv-x="331" 
d="M368 700l-129 -141h-82l122 140zM178 381c43 68 100 105 164 112l-11 -93c-100 5 -164 -85 -179 -210h-1l-23 -190h-79l60 487h79l-13 -106h3z" />
    <glyph glyph-name="rcaron" unicode="&#x159;" horiz-adv-x="331" 
d="M284 556h-76l-87 143h78l51 -94h1l75 94h82zM178 381c43 68 100 105 164 112l-11 -93c-100 5 -164 -85 -179 -210h-1l-23 -190h-79l60 487h79l-13 -106h3z" />
    <glyph glyph-name="rcommaaccent" unicode="&#x157;" horiz-adv-x="331" 
d="M178 381c43 68 100 105 164 112l-11 -93c-100 5 -164 -85 -179 -210h-1l-23 -190h-79l60 487h79l-13 -106h3zM48 -53h71c1 -5 1 -9 1 -23c0 -77 -40 -129 -122 -136l-13 49c45 11 64 35 64 87c0 8 0 14 -1 23z" />
    <glyph glyph-name="s" unicode="s" horiz-adv-x="418" 
d="M68 125c32 -40 73 -61 120 -61c54 0 97 25 97 69c0 41 -44 57 -103 83c-64 28 -119 66 -119 137c0 85 75 140 161 140c56 0 115 -18 157 -66l-53 -54c-32 38 -69 51 -106 51c-44 0 -78 -26 -78 -67c0 -36 40 -58 87 -80c60 -27 134 -58 134 -135
c1 -98 -76 -148 -177 -148c-71 0 -136 29 -173 78z" />
    <glyph glyph-name="sacute" unicode="&#x15b;" horiz-adv-x="418" 
d="M319 699l89 1l-129 -141h-82zM68 125c32 -40 73 -61 120 -61c54 0 97 25 97 69c0 41 -44 57 -103 83c-64 28 -119 66 -119 137c0 85 75 140 161 140c56 0 115 -18 157 -66l-53 -54c-32 38 -69 51 -106 51c-44 0 -78 -26 -78 -67c0 -36 40 -58 87 -80
c60 -27 134 -58 134 -135c1 -98 -76 -148 -177 -148c-71 0 -136 29 -173 78z" />
    <glyph glyph-name="scaron" unicode="&#x161;" horiz-adv-x="418" 
d="M286 556h-76l-87 143h78l51 -94h1l75 94h82zM222 424c-44 0 -78 -26 -78 -67c0 -36 40 -58 87 -80c60 -27 134 -58 134 -135c1 -98 -76 -148 -177 -148c-71 0 -136 29 -173 78l53 53c32 -40 73 -61 120 -61c54 0 97 25 97 69c0 41 -44 57 -103 83
c-64 28 -119 66 -119 137c0 85 75 140 161 140c56 0 115 -18 157 -66l-53 -54c-32 38 -69 51 -106 51z" />
    <glyph glyph-name="scedilla" unicode="&#x15f;" horiz-adv-x="418" 
d="M231 277c60 -27 134 -58 134 -135c1 -98 -76 -148 -177 -148h-6l-17 -26l2 -2c45 -2 73 -22 73 -63c0 -49 -45 -91 -108 -91c-18 0 -38 3 -51 7l3 42c11 -4 24 -6 41 -6c31 0 58 16 58 47c0 21 -22 31 -69 32l3 30l19 35c-50 11 -93 36 -121 73l53 53
c32 -40 73 -61 120 -61c54 0 97 25 97 69c0 41 -44 57 -103 83c-64 28 -119 66 -119 137c0 85 75 140 161 140c56 0 115 -18 157 -66l-53 -54c-32 38 -69 51 -106 51c-44 0 -78 -26 -78 -67c0 -36 40 -58 87 -80z" />
    <glyph glyph-name="scircumflex" unicode="&#x15d;" horiz-adv-x="418" 
d="M260 650l-75 -93h-81l121 143h76l90 -143h-79l-51 93h-1zM222 424c-44 0 -78 -26 -78 -67c0 -36 40 -58 87 -80c60 -27 134 -58 134 -135c1 -98 -76 -148 -177 -148c-71 0 -136 29 -173 78l53 53c32 -40 73 -61 120 -61c54 0 97 25 97 69c0 41 -44 57 -103 83
c-64 28 -119 66 -119 137c0 85 75 140 161 140c56 0 115 -18 157 -66l-53 -54c-32 38 -69 51 -106 51z" />
    <glyph glyph-name="scommaaccent" unicode="&#x219;" horiz-adv-x="418" 
d="M68 125c32 -40 73 -61 120 -61c54 0 97 25 97 69c0 41 -44 57 -103 83c-64 28 -119 66 -119 137c0 85 75 140 161 140c56 0 115 -18 157 -66l-53 -54c-32 38 -69 51 -106 51c-44 0 -78 -26 -78 -67c0 -36 40 -58 87 -80c60 -27 134 -58 134 -135
c1 -98 -76 -148 -177 -148c-71 0 -136 29 -173 78zM204 -53c1 -5 1 -9 1 -23c0 -77 -40 -129 -122 -136l-13 49c45 11 64 35 64 87c0 8 0 14 -1 23h71z" />
    <glyph glyph-name="germandbls" unicode="&#xdf;" horiz-adv-x="601" 
d="M569 141c0 -97 -74 -147 -174 -147c-79 0 -142 32 -176 78l53 52c29 -35 65 -60 122 -60c56 0 94 30 94 72c0 40 -33 57 -90 88c-68 39 -119 71 -118 139c2 70 66 104 115 144c30 25 54 52 54 89c0 43 -39 73 -106 73s-136 -32 -150 -137l-65 -532h-79l67 542
c16 137 113 201 222 201c124 0 191 -59 191 -142c0 -76 -48 -114 -104 -155c-33 -25 -63 -47 -64 -75c-2 -30 22 -49 79 -82c70 -40 129 -70 129 -148z" />
    <glyph glyph-name="longs" unicode="&#x17f;" horiz-adv-x="298" 
d="M352 645c-22 16 -47 24 -68 24c-35 0 -63 -19 -72 -93l-71 -576h-79l51 418h-51l8 69h52l13 105c12 103 62 151 137 151c38 0 70 -8 102 -30z" />
    <glyph glyph-name="uni0259" unicode="&#x259;" horiz-adv-x="456" 
d="M238 493c105 0 184 -76 184 -202c0 -155 -94 -297 -266 -297c-77 0 -134 44 -134 112c0 133 166 195 320 211c-8 67 -54 103 -112 103c-36 0 -84 -18 -115 -48l-49 54c45 39 106 67 172 67zM165 67c85 0 160 67 176 180l-1 1c-116 -14 -237 -55 -237 -132
c0 -27 20 -49 62 -49z" />
    <glyph glyph-name="t" unicode="t" horiz-adv-x="338" 
d="M270 99l11 -71c-34 -23 -77 -34 -116 -34c-80 0 -106 56 -97 139l36 285h-55l8 69h55l20 159l81 16l-22 -175h139l-9 -69h-138l-33 -272c-6 -49 4 -76 40 -76c24 0 52 11 80 29z" />
    <glyph glyph-name="tbar" unicode="&#x167;" horiz-adv-x="338" 
d="M321 418h-138l-14 -117h117l-8 -57h-116l-12 -98c-6 -49 4 -76 40 -76c24 0 52 11 80 29l11 -71c-34 -23 -77 -34 -116 -34c-80 0 -106 56 -97 139l14 111h-48l8 57h47l15 117h-55l8 69h55l20 159l81 16l-22 -175h139z" />
    <glyph glyph-name="tcaron" unicode="&#x165;" horiz-adv-x="347" 
d="M321 772h82l-70 -184h-61zM270 99l11 -71c-34 -23 -77 -34 -116 -34c-80 0 -106 56 -97 139l36 285h-55l8 69h55l20 159l81 16l-22 -175h139l-9 -69h-138l-33 -272c-6 -49 4 -76 40 -76c24 0 52 11 80 29z" />
    <glyph glyph-name="uni0163" unicode="&#x163;" horiz-adv-x="338" 
d="M183 418l-33 -272c-6 -49 4 -76 40 -76c24 0 52 11 80 29l11 -71c-34 -23 -77 -34 -116 -34h-2l-17 -26l2 -2c45 -2 73 -22 73 -63c0 -49 -45 -91 -108 -91c-18 0 -38 3 -51 7l3 42c11 -4 24 -6 41 -6c31 0 58 16 58 47c0 21 -22 31 -69 32l3 30l21 38
c-44 19 -58 67 -51 131l36 285h-55l8 69h55l20 159l81 16l-22 -175h139l-9 -69h-138z" />
    <glyph glyph-name="uni021B" unicode="&#x21b;" horiz-adv-x="338" 
d="M270 99l11 -71c-34 -23 -77 -34 -116 -34c-80 0 -106 56 -97 139l36 285h-55l8 69h55l20 159l81 16l-22 -175h139l-9 -69h-138l-33 -272c-6 -49 4 -76 40 -76c24 0 52 11 80 29zM185 -53c1 -5 1 -9 1 -23c0 -77 -40 -129 -122 -136l-13 49c45 11 64 35 64 87
c0 8 0 14 -1 23h71z" />
    <glyph glyph-name="u" unicode="u" horiz-adv-x="536" 
d="M414 487h80l-60 -487h-80l12 97h-1c-43 -62 -104 -103 -175 -103c-99 0 -146 56 -129 196l37 297h79l-35 -291c-13 -100 16 -129 70 -129c68 0 158 91 176 208z" />
    <glyph glyph-name="uacute" unicode="&#xfa;" horiz-adv-x="536" 
d="M469 700l-129 -141h-82l122 140zM414 487h80l-60 -487h-80l12 97h-1c-43 -62 -104 -103 -175 -103c-99 0 -146 56 -129 196l37 297h79l-35 -291c-13 -100 16 -129 70 -129c68 0 158 91 176 208z" />
    <glyph glyph-name="ubreve" unicode="&#x16d;" horiz-adv-x="536" 
d="M305 555c-73 0 -125 50 -119 140h63c-4 -48 13 -81 57 -81c45 0 78 34 85 81h64c-17 -87 -75 -140 -150 -140zM414 487h80l-60 -487h-80l12 97h-1c-43 -62 -104 -103 -175 -103c-99 0 -146 56 -129 196l37 297h79l-35 -291c-13 -100 16 -129 70 -129c68 0 158 91 176 208
z" />
    <glyph glyph-name="ucircumflex" unicode="&#xfb;" horiz-adv-x="536" 
d="M316 650l-75 -93h-81l121 143h76l90 -143h-79l-51 93h-1zM414 487h80l-60 -487h-80l12 97h-1c-43 -62 -104 -103 -175 -103c-99 0 -146 56 -129 196l37 297h79l-35 -291c-13 -100 16 -129 70 -129c68 0 158 91 176 208z" />
    <glyph glyph-name="udieresis" unicode="&#xfc;" horiz-adv-x="536" 
d="M228 579c-31 0 -54 23 -54 54c0 32 25 56 57 56c31 0 54 -23 54 -54c0 -33 -24 -56 -57 -56zM398 579c-31 0 -54 23 -54 54c0 32 24 56 57 56c30 0 54 -23 54 -54c0 -33 -25 -56 -57 -56zM414 487h80l-60 -487h-80l12 97h-1c-43 -62 -104 -103 -175 -103
c-99 0 -146 56 -129 196l37 297h79l-35 -291c-13 -100 16 -129 70 -129c68 0 158 91 176 208z" />
    <glyph glyph-name="uni1EE5" unicode="&#x1ee5;" horiz-adv-x="536" 
d="M414 487h80l-60 -487h-80l12 97h-1c-43 -62 -104 -103 -175 -103c-99 0 -146 56 -129 196l37 297h79l-35 -291c-13 -100 16 -129 70 -129c68 0 158 91 176 208zM224 -113c31 0 54 -23 54 -54c0 -32 -24 -56 -56 -56c-31 0 -55 23 -55 54c0 33 25 56 57 56z" />
    <glyph glyph-name="ugrave" unicode="&#xf9;" horiz-adv-x="536" 
d="M356 559h-83l-95 141l91 -1zM414 487h80l-60 -487h-80l12 97h-1c-43 -62 -104 -103 -175 -103c-99 0 -146 56 -129 196l37 297h79l-35 -291c-13 -100 16 -129 70 -129c68 0 158 91 176 208z" />
    <glyph glyph-name="uni1EE7" unicode="&#x1ee7;" horiz-adv-x="536" 
d="M326 668c-27 0 -53 -14 -70 -33l-29 35c25 25 65 44 104 44c50 0 77 -29 77 -68c0 -44 -35 -71 -87 -89l-10 -24l-30 1c-7 9 -12 16 -12 27c3 28 86 43 86 84c0 16 -13 23 -29 23zM414 487h80l-60 -487h-80l12 97h-1c-43 -62 -104 -103 -175 -103c-99 0 -146 56 -129 196
l37 297h79l-35 -291c-13 -100 16 -129 70 -129c68 0 158 91 176 208z" />
    <glyph glyph-name="uhorn" unicode="&#x1b0;" horiz-adv-x="622" 
d="M568 565h75l-12 -95c-15 -111 -64 -158 -136 -158c-7 0 -14 1 -22 2l-39 -314h-80l12 97h-1c-43 -62 -104 -103 -175 -103c-99 0 -146 56 -129 196l37 297h79l-35 -291c-13 -100 16 -129 70 -129c68 0 158 91 176 208l26 212h80l-15 -123c5 -1 10 -1 14 -1
c41 0 55 45 64 119z" />
    <glyph glyph-name="uni1EE9" unicode="&#x1ee9;" horiz-adv-x="622" 
d="M469 700l-129 -141h-82l122 140zM568 565h75l-12 -95c-15 -111 -64 -158 -136 -158c-7 0 -14 1 -22 2l-39 -314h-80l12 97h-1c-43 -62 -104 -103 -175 -103c-99 0 -146 56 -129 196l37 297h79l-35 -291c-13 -100 16 -129 70 -129c68 0 158 91 176 208l26 212h80l-15 -123
c5 -1 10 -1 14 -1c41 0 55 45 64 119z" />
    <glyph glyph-name="uni1EF1" unicode="&#x1ef1;" horiz-adv-x="622" 
d="M568 565h75l-12 -95c-15 -111 -64 -158 -136 -158c-7 0 -14 1 -22 2l-39 -314h-80l12 97h-1c-43 -62 -104 -103 -175 -103c-99 0 -146 56 -129 196l37 297h79l-35 -291c-13 -100 16 -129 70 -129c68 0 158 91 176 208l26 212h80l-15 -123c5 -1 10 -1 14 -1
c41 0 55 45 64 119zM224 -113c31 0 54 -23 54 -54c0 -32 -24 -56 -56 -56c-31 0 -55 23 -55 54c0 33 25 56 57 56z" />
    <glyph glyph-name="uni1EEB" unicode="&#x1eeb;" horiz-adv-x="622" 
d="M356 559h-83l-95 141l91 -1zM568 565h75l-12 -95c-15 -111 -64 -158 -136 -158c-7 0 -14 1 -22 2l-39 -314h-80l12 97h-1c-43 -62 -104 -103 -175 -103c-99 0 -146 56 -129 196l37 297h79l-35 -291c-13 -100 16 -129 70 -129c68 0 158 91 176 208l26 212h80l-15 -123
c5 -1 10 -1 14 -1c41 0 55 45 64 119z" />
    <glyph glyph-name="uni1EED" unicode="&#x1eed;" horiz-adv-x="622" 
d="M326 668c-27 0 -53 -14 -70 -33l-29 35c25 25 65 44 104 44c50 0 77 -29 77 -68c0 -44 -35 -71 -87 -89l-10 -24l-30 1c-7 9 -12 16 -12 27c3 28 86 43 86 84c0 16 -13 23 -29 23zM568 565h75l-12 -95c-15 -111 -64 -158 -136 -158c-7 0 -14 1 -22 2l-39 -314h-80l12 97
h-1c-43 -62 -104 -103 -175 -103c-99 0 -146 56 -129 196l37 297h79l-35 -291c-13 -100 16 -129 70 -129c68 0 158 91 176 208l26 212h80l-15 -123c5 -1 10 -1 14 -1c41 0 55 45 64 119z" />
    <glyph glyph-name="uni1EEF" unicode="&#x1eef;" horiz-adv-x="622" 
d="M258 622c-26 0 -47 -22 -62 -56l-51 25c24 59 61 96 106 96c35 0 52 -17 70 -30c18 -14 34 -28 52 -28c23 0 46 20 62 56l50 -20c-25 -66 -63 -102 -104 -102c-33 0 -57 21 -75 36c-17 13 -32 23 -48 23zM568 565h75l-12 -95c-15 -111 -64 -158 -136 -158
c-7 0 -14 1 -22 2l-39 -314h-80l12 97h-1c-43 -62 -104 -103 -175 -103c-99 0 -146 56 -129 196l37 297h79l-35 -291c-13 -100 16 -129 70 -129c68 0 158 91 176 208l26 212h80l-15 -123c5 -1 10 -1 14 -1c41 0 55 45 64 119z" />
    <glyph glyph-name="uhungarumlaut" unicode="&#x171;" horiz-adv-x="542" 
d="M384 700l-129 -141h-78l121 140zM414 559h-78l121 140l86 1zM388 275l26 212h80l-60 -487h-80l12 97h-1c-43 -62 -104 -103 -175 -103c-99 0 -146 56 -129 196l37 297h79l-35 -291c-13 -100 16 -129 70 -129c68 0 158 91 176 208z" />
    <glyph glyph-name="umacron" unicode="&#x16b;" horiz-adv-x="536" 
d="M450 665l-9 -68h-262l8 68h263zM414 487h80l-60 -487h-80l12 97h-1c-43 -62 -104 -103 -175 -103c-99 0 -146 56 -129 196l37 297h79l-35 -291c-13 -100 16 -129 70 -129c68 0 158 91 176 208z" />
    <glyph glyph-name="uogonek" unicode="&#x173;" horiz-adv-x="536" 
d="M434 0c-53 -21 -88 -60 -89 -96c-1 -21 11 -35 34 -35c21 0 33 3 45 10l2 -53c-17 -8 -42 -12 -65 -12c-55 0 -84 26 -83 74c1 44 35 88 77 117l11 92h-1c-43 -62 -104 -103 -175 -103c-99 0 -146 56 -129 196l37 297h79l-35 -291c-13 -100 16 -129 70 -129
c68 0 158 91 176 208l26 212h80z" />
    <glyph glyph-name="uring" unicode="&#x16f;" horiz-adv-x="536" 
d="M312 540c-52 0 -92 40 -92 93s40 93 95 93c53 0 93 -38 93 -90c0 -55 -41 -96 -96 -96zM315 676c-25 0 -44 -19 -44 -43s18 -42 42 -42c25 0 44 19 44 44c0 23 -18 41 -42 41zM414 487h80l-60 -487h-80l12 97h-1c-43 -62 -104 -103 -175 -103c-99 0 -146 56 -129 196
l37 297h79l-35 -291c-13 -100 16 -129 70 -129c68 0 158 91 176 208z" />
    <glyph glyph-name="utilde" unicode="&#x169;" horiz-adv-x="536" 
d="M258 622c-26 0 -47 -22 -62 -56l-51 25c24 59 61 96 106 96c35 0 52 -17 70 -30c18 -14 34 -28 52 -28c23 0 46 20 62 56l50 -20c-25 -66 -63 -102 -104 -102c-33 0 -57 21 -75 36c-17 13 -32 23 -48 23zM414 487h80l-60 -487h-80l12 97h-1c-43 -62 -104 -103 -175 -103
c-99 0 -146 56 -129 196l37 297h79l-35 -291c-13 -100 16 -129 70 -129c68 0 158 91 176 208z" />
    <glyph glyph-name="v" unicode="v" horiz-adv-x="498" 
d="M197 -6c-107 0 -151 69 -133 212l35 281h79l-34 -275c-13 -108 9 -145 61 -145c70 0 164 92 179 269c5 53 1 98 -7 151h81c8 -43 11 -97 8 -140c-17 -253 -152 -353 -269 -353z" />
    <glyph glyph-name="w" unicode="w" horiz-adv-x="697" 
d="M659 487c9 -56 10 -96 5 -155c-19 -236 -142 -338 -242 -338c-58 0 -95 26 -108 84h-2c-39 -58 -90 -84 -137 -84c-88 0 -130 66 -112 204l36 289h79l-35 -283c-13 -100 13 -137 51 -137c45 0 102 62 118 168l31 252h79l-35 -287c-12 -101 12 -133 48 -133
c55 0 135 103 150 274c4 52 0 95 -7 146h81z" />
    <glyph glyph-name="wacute" unicode="&#x1e83;" horiz-adv-x="697" 
d="M570 700l-129 -141h-82l122 140zM659 487c9 -56 10 -96 5 -155c-19 -236 -142 -338 -242 -338c-58 0 -95 26 -108 84h-2c-39 -58 -90 -84 -137 -84c-88 0 -130 66 -112 204l36 289h79l-35 -283c-13 -100 13 -137 51 -137c45 0 102 62 118 168l31 252h79l-35 -287
c-12 -101 12 -133 48 -133c55 0 135 103 150 274c4 52 0 95 -7 146h81z" />
    <glyph glyph-name="wcircumflex" unicode="&#x175;" horiz-adv-x="697" 
d="M402 650l-75 -93h-81l121 143h76l90 -143h-79l-51 93h-1zM659 487c9 -56 10 -96 5 -155c-19 -236 -142 -338 -242 -338c-58 0 -95 26 -108 84h-2c-39 -58 -90 -84 -137 -84c-88 0 -130 66 -112 204l36 289h79l-35 -283c-13 -100 13 -137 51 -137c45 0 102 62 118 168
l31 252h79l-35 -287c-12 -101 12 -133 48 -133c55 0 135 103 150 274c4 52 0 95 -7 146h81z" />
    <glyph glyph-name="wdieresis" unicode="&#x1e85;" horiz-adv-x="697" 
d="M314 579c-31 0 -54 23 -54 54c0 32 25 56 57 56c31 0 54 -23 54 -54c0 -33 -24 -56 -57 -56zM484 579c-31 0 -54 23 -54 54c0 32 24 56 57 56c30 0 54 -23 54 -54c0 -33 -25 -56 -57 -56zM659 487c9 -56 10 -96 5 -155c-19 -236 -142 -338 -242 -338
c-58 0 -95 26 -108 84h-2c-39 -58 -90 -84 -137 -84c-88 0 -130 66 -112 204l36 289h79l-35 -283c-13 -100 13 -137 51 -137c45 0 102 62 118 168l31 252h79l-35 -287c-12 -101 12 -133 48 -133c55 0 135 103 150 274c4 52 0 95 -7 146h81z" />
    <glyph glyph-name="wgrave" unicode="&#x1e81;" horiz-adv-x="697" 
d="M432 559h-83l-95 141l91 -1zM659 487c9 -56 10 -96 5 -155c-19 -236 -142 -338 -242 -338c-58 0 -95 26 -108 84h-2c-39 -58 -90 -84 -137 -84c-88 0 -130 66 -112 204l36 289h79l-35 -283c-13 -100 13 -137 51 -137c45 0 102 62 118 168l31 252h79l-35 -287
c-12 -101 12 -133 48 -133c55 0 135 103 150 274c4 52 0 95 -7 146h81z" />
    <glyph glyph-name="x" unicode="x" horiz-adv-x="472" 
d="M471 487l-187 -242l128 -245h-92l-92 177h-3l-133 -177h-92l188 247l-127 240h92l87 -179h2l132 179h97z" />
    <glyph glyph-name="y" unicode="y" horiz-adv-x="536" 
d="M416 487h79l-53 -424c-26 -218 -139 -267 -255 -267c-54 0 -111 14 -162 44l26 70c47 -28 92 -41 136 -41c86 0 157 34 178 200l5 41h-3c-40 -69 -101 -116 -178 -116c-99 0 -146 56 -129 196l37 297h79l-35 -291c-13 -100 17 -129 70 -129c73 0 165 95 180 216z" />
    <glyph glyph-name="yacute" unicode="&#xfd;" horiz-adv-x="536" 
d="M468 700l-129 -141h-82l122 140zM416 487h79l-53 -424c-26 -218 -139 -267 -255 -267c-54 0 -111 14 -162 44l26 70c47 -28 92 -41 136 -41c86 0 157 34 178 200l5 41h-3c-40 -69 -101 -116 -178 -116c-99 0 -146 56 -129 196l37 297h79l-35 -291
c-13 -100 17 -129 70 -129c73 0 165 95 180 216z" />
    <glyph glyph-name="ycircumflex" unicode="&#x177;" horiz-adv-x="536" 
d="M317 650l-75 -93h-81l121 143h76l90 -143h-79l-51 93h-1zM416 487h79l-53 -424c-26 -218 -139 -267 -255 -267c-54 0 -111 14 -162 44l26 70c47 -28 92 -41 136 -41c86 0 157 34 178 200l5 41h-3c-40 -69 -101 -116 -178 -116c-99 0 -146 56 -129 196l37 297h79l-35 -291
c-13 -100 17 -129 70 -129c73 0 165 95 180 216z" />
    <glyph glyph-name="ydieresis" unicode="&#xff;" horiz-adv-x="536" 
d="M229 579c-31 0 -54 23 -54 54c0 32 25 56 57 56c31 0 54 -23 54 -54c0 -33 -24 -56 -57 -56zM399 579c-31 0 -54 23 -54 54c0 32 24 56 57 56c30 0 54 -23 54 -54c0 -33 -25 -56 -57 -56zM416 487h79l-53 -424c-26 -218 -139 -267 -255 -267c-54 0 -111 14 -162 44l26 70
c47 -28 92 -41 136 -41c86 0 157 34 178 200l5 41h-3c-40 -69 -101 -116 -178 -116c-99 0 -146 56 -129 196l37 297h79l-35 -291c-13 -100 17 -129 70 -129c73 0 165 95 180 216z" />
    <glyph glyph-name="uni1EF5" unicode="&#x1ef5;" horiz-adv-x="536" 
d="M416 487h79l-53 -424c-26 -218 -139 -267 -255 -267c-54 0 -111 14 -162 44l26 70c47 -28 92 -41 136 -41c86 0 157 34 178 200l5 41h-3c-40 -69 -101 -116 -178 -116c-99 0 -146 56 -129 196l37 297h79l-35 -291c-13 -100 17 -129 70 -129c73 0 165 95 180 216z
M205 -253c31 0 54 -23 54 -54c0 -32 -24 -56 -56 -56c-31 0 -55 23 -55 54c0 33 25 56 57 56z" />
    <glyph glyph-name="ygrave" unicode="&#x1ef3;" horiz-adv-x="536" 
d="M354 559h-83l-95 141l91 -1zM416 487h79l-53 -424c-26 -218 -139 -267 -255 -267c-54 0 -111 14 -162 44l26 70c47 -28 92 -41 136 -41c86 0 157 34 178 200l5 41h-3c-40 -69 -101 -116 -178 -116c-99 0 -146 56 -129 196l37 297h79l-35 -291c-13 -100 17 -129 70 -129
c73 0 165 95 180 216z" />
    <glyph glyph-name="uni1EF7" unicode="&#x1ef7;" horiz-adv-x="536" 
d="M327 668c-27 0 -53 -14 -70 -33l-29 35c25 25 65 44 104 44c50 0 77 -29 77 -68c0 -44 -35 -71 -87 -89l-10 -24l-30 1c-7 9 -12 16 -12 27c3 28 86 43 86 84c0 16 -13 23 -29 23zM416 487h79l-53 -424c-26 -218 -139 -267 -255 -267c-54 0 -111 14 -162 44l26 70
c47 -28 92 -41 136 -41c86 0 157 34 178 200l5 41h-3c-40 -69 -101 -116 -178 -116c-99 0 -146 56 -129 196l37 297h79l-35 -291c-13 -100 17 -129 70 -129c73 0 165 95 180 216z" />
    <glyph glyph-name="uni0233" unicode="&#x233;" horiz-adv-x="536" 
d="M451 665l-9 -68h-262l8 68h263zM416 487h79l-53 -424c-26 -218 -139 -267 -255 -267c-54 0 -111 14 -162 44l26 70c47 -28 92 -41 136 -41c86 0 157 34 178 200l5 41h-3c-40 -69 -101 -116 -178 -116c-99 0 -146 56 -129 196l37 297h79l-35 -291
c-13 -100 17 -129 70 -129c73 0 165 95 180 216z" />
    <glyph glyph-name="uni1EF9" unicode="&#x1ef9;" horiz-adv-x="536" 
d="M259 622c-26 0 -47 -22 -62 -56l-51 25c24 59 61 96 106 96c35 0 52 -17 70 -30c18 -14 34 -28 52 -28c23 0 46 20 62 56l50 -20c-25 -66 -63 -102 -104 -102c-33 0 -57 21 -75 36c-17 13 -32 23 -48 23zM416 487h79l-53 -424c-26 -218 -139 -267 -255 -267
c-54 0 -111 14 -162 44l26 70c47 -28 92 -41 136 -41c86 0 157 34 178 200l5 41h-3c-40 -69 -101 -116 -178 -116c-99 0 -146 56 -129 196l37 297h79l-35 -291c-13 -100 17 -129 70 -129c73 0 165 95 180 216z" />
    <glyph glyph-name="z" unicode="z" horiz-adv-x="449" 
d="M422 430l-297 -359v-3c104 0 192 -5 262 -27l-22 -67c-88 26 -204 26 -355 26l7 58l294 359v1h-236l9 69h344z" />
    <glyph glyph-name="zacute" unicode="&#x17a;" horiz-adv-x="449" 
d="M399 700l-129 -141h-82l122 140zM422 430l-297 -359v-3c104 0 192 -5 262 -27l-22 -67c-88 26 -204 26 -355 26l7 58l294 359v1h-236l9 69h344z" />
    <glyph glyph-name="zcaron" unicode="&#x17e;" horiz-adv-x="449" 
d="M300 556h-76l-87 143h78l51 -94h1l75 94h82zM422 430l-297 -359v-3c104 0 192 -5 262 -27l-22 -67c-88 26 -204 26 -355 26l7 58l294 359v1h-236l9 69h344z" />
    <glyph glyph-name="zdotaccent" unicode="&#x17c;" horiz-adv-x="449" 
d="M273 579c-31 0 -54 23 -54 54c0 32 24 56 56 56c31 0 55 -23 55 -54c0 -33 -25 -56 -57 -56zM422 430l-297 -359v-3c104 0 192 -5 262 -27l-22 -67c-88 26 -204 26 -355 26l7 58l294 359v1h-236l9 69h344z" />
    <glyph glyph-name="f.calt" horiz-adv-x="307" 
d="M314 664c-10 3 -20 5 -30 5c-35 0 -63 -19 -72 -93l-11 -89h117l-8 -69h-118l-51 -418h-79l51 418h-51l8 69h52l13 105c12 103 62 151 137 151c23 0 44 -3 64 -10z" />
    <glyph glyph-name="germandbls.calt" horiz-adv-x="718" 
d="M505 399c92 -54 187 -93 187 -195c0 -136 -102 -210 -218 -210c-79 0 -161 34 -210 92l48 74c36 -61 99 -88 157 -88c76 0 134 52 134 124c1 62 -59 87 -135 131l-81 46l156 246l1 4c-59 8 -118 14 -159 14c-114 0 -174 -41 -187 -150l-60 -487h-85l60 492
c19 157 117 225 272 225c69 0 186 -18 285 -42l-173 -271z" />
    <glyph glyph-name="ordfeminine" unicode="&#xaa;" horiz-adv-x="375" 
d="M310 687h58l-36 -292h-58l6 51h-2c-28 -33 -65 -54 -105 -54c-55 0 -101 42 -101 117c0 101 66 182 154 182c35 0 63 -13 79 -30h2zM184 447c46 0 99 47 111 122l4 37c-13 21 -42 29 -69 29c-54 0 -98 -54 -98 -124c0 -40 19 -64 52 -64z" />
    <glyph glyph-name="ordmasculine" unicode="&#xba;" horiz-adv-x="348" 
d="M229 691c67 0 119 -38 119 -121c0 -91 -54 -178 -155 -178c-71 0 -120 43 -120 123c0 90 56 176 156 176zM225 636c-51 0 -91 -53 -91 -115c0 -44 24 -74 62 -74c49 0 90 52 90 119c0 51 -30 70 -61 70z" />
    <glyph glyph-name="Alpha" unicode="&#x391;" 
d="M483 0l-35 174h-281l-78 -174h-90l328 710h90l154 -710h-88zM201 250h232l-72 353h-3z" />
    <glyph glyph-name="Beta" unicode="&#x392;" horiz-adv-x="603" 
d="M435 375c64 -17 108 -61 108 -144c0 -136 -96 -231 -242 -231h-237l87 710h220c114 0 181 -41 181 -143c0 -78 -41 -158 -117 -190v-2zM228 633l-28 -229h125c78 0 138 63 138 148c0 54 -34 81 -111 81h-124zM283 77c101 0 172 64 172 154c0 67 -40 98 -130 98h-135
l-30 -252h123z" />
    <glyph glyph-name="Gamma" unicode="&#x393;" horiz-adv-x="533" 
d="M549 633h-321l-78 -633h-86l88 710h407z" />
    <glyph glyph-name="uni0394" unicode="&#x394;" horiz-adv-x="604" 
d="M404 710l140 -643l-8 -67h-67h-450h-11l9 67l297 643h90zM111 77h343l-106 530h-1z" />
    <glyph glyph-name="Epsilon" unicode="&#x395;" horiz-adv-x="563" 
d="M489 77l-10 -77h-415l87 710h396l-9 -77h-311l-30 -241h255l-9 -77h-255l-29 -238h330z" />
    <glyph glyph-name="Zeta" unicode="&#x396;" horiz-adv-x="579" 
d="M560 643l-415 -563v-3h347l-10 -77h-451l8 68l412 564v1h-326l10 77h432z" />
    <glyph glyph-name="Eta" unicode="&#x397;" horiz-adv-x="686" 
d="M649 710l-87 -710h-85l37 299h-327l-37 -299h-86l87 710h86l-41 -334h327l41 334h85z" />
    <glyph glyph-name="Theta" unicode="&#x398;" horiz-adv-x="765" 
d="M442 716c168 0 282 -107 282 -296c0 -228 -139 -426 -368 -426c-169 0 -281 109 -281 297c0 223 146 425 367 425zM362 73c164 0 273 164 273 344c0 146 -77 219 -202 219c-160 0 -270 -168 -270 -343c0 -143 78 -220 199 -220zM245 313l10 77h290l-9 -77h-291z" />
    <glyph glyph-name="Iota" unicode="&#x399;" horiz-adv-x="285" 
d="M155 0h-85l87 710h86z" />
    <glyph glyph-name="Kappa" unicode="&#x39a;" horiz-adv-x="613" 
d="M632 710l-285 -323l204 -387h-104l-163 313h-3l-108 -122l-23 -191h-86l87 710h86l-47 -382h3l329 382h110z" />
    <glyph glyph-name="Lambda" unicode="&#x39b;" horiz-adv-x="623" 
d="M473 0l-116 602h-3l-264 -602h-90l323 710h90l149 -710h-89z" />
    <glyph glyph-name="Mu" unicode="&#x39c;" horiz-adv-x="823" 
d="M693 710h93l-88 -710h-85l66 535h-3l-246 -391h-60l-152 398h-3l-65 -542h-86l87 710h91l170 -455h2z" />
    <glyph glyph-name="Nu" unicode="&#x39d;" horiz-adv-x="712" 
d="M589 710h86l-88 -710h-91l-276 559h-2l-68 -559h-86l87 710h90l277 -566h3z" />
    <glyph glyph-name="Xi" unicode="&#x39e;" horiz-adv-x="591" 
d="M565 631h-444l10 79h444zM481 313h-355l10 77h355zM494 0h-457l10 79h457z" />
    <glyph glyph-name="Omicron" unicode="&#x39f;" horiz-adv-x="765" 
d="M439 716c168 0 282 -107 282 -296c0 -228 -139 -426 -368 -426c-169 0 -281 109 -281 297c0 223 146 425 367 425zM359 73c164 0 273 164 273 344c0 146 -77 219 -202 219c-160 0 -270 -168 -270 -343c0 -143 78 -220 199 -220z" />
    <glyph glyph-name="Pi" unicode="&#x3a0;" horiz-adv-x="662" 
d="M152 710h474l-87 -710h-86l78 633h-303l-78 -633h-86z" />
    <glyph glyph-name="Rho" unicode="&#x3a1;" horiz-adv-x="582" 
d="M381 710c130 0 187 -67 187 -182c0 -156 -94 -256 -266 -256h-119l-33 -272h-86l87 710h230zM314 350c103 0 165 65 165 178c0 70 -48 105 -117 105h-134l-36 -283h122z" />
    <glyph glyph-name="Sigma" unicode="&#x3a3;" horiz-adv-x="542" 
d="M543 633h-327v-1l135 -275l-200 -277l-1 -3h326l-11 -77h-437l8 62l214 295l-142 289l8 64h437z" />
    <glyph glyph-name="Tau" unicode="&#x3a4;" horiz-adv-x="532" 
d="M547 633h-191l-78 -633h-85l78 633h-190l9 77h467z" />
    <glyph glyph-name="Upsilon" unicode="&#x3a5;" horiz-adv-x="559" 
d="M498 710h101l-268 -393l-40 -317h-85l39 317l-169 393h93l126 -310h1z" />
    <glyph glyph-name="Phi" unicode="&#x3a6;" horiz-adv-x="765" 
d="M727 403c2 -182 -114 -334 -326 -348l-6 -55h-86l7 57c-152 17 -252 110 -253 264c-1 174 121 333 329 347l6 52h85l-7 -54c149 -18 250 -109 251 -263zM152 325c1 -114 63 -180 176 -193l57 460c-147 -15 -234 -133 -233 -267zM408 132c148 16 232 129 230 267
c-1 114 -66 177 -173 191z" />
    <glyph glyph-name="Chi" unicode="&#x3a7;" horiz-adv-x="622" 
d="M641 710l-257 -357l172 -353h-101l-137 288h-2l-209 -288h-101l260 357l-168 353h96l136 -290h2l204 290h105z" />
    <glyph glyph-name="Psi" unicode="&#x3a8;" horiz-adv-x="733" 
d="M633 710h85l-32 -256c-24 -191 -112 -285 -287 -286l-21 -168h-85l21 168c-168 3 -238 102 -215 290l32 252h85l-31 -248c-18 -141 15 -213 138 -216l57 464h86l-58 -464c116 2 175 61 195 220z" />
    <glyph glyph-name="uni03A9" unicode="&#x3a9;" horiz-adv-x="719" 
d="M503 79v-2h126l-10 -77h-242l10 77c125 76 203 184 203 339c0 127 -66 220 -178 220c-157 0 -247 -139 -247 -301c0 -98 49 -198 127 -258l-10 -77h-243l10 77h139v2c-69 66 -111 163 -111 261c0 216 133 376 339 376c162 0 264 -124 264 -292c0 -145 -70 -267 -177 -345
z" />
    <glyph glyph-name="Alphatonos" unicode="&#x386;" horiz-adv-x="628" 
d="M482 0l-35 174h-281l-78 -174h-90l328 710h90l154 -710h-88zM219 705l-102 -163h-78l85 163h95zM200 250h232l-72 353h-3z" />
    <glyph glyph-name="Epsilontonos" unicode="&#x388;" horiz-adv-x="565" 
d="M491 77l-10 -77h-415l87 710h396l-9 -77h-311l-30 -241h255l-9 -77h-255l-29 -238h330zM-8 707h95l-102 -163h-78z" />
    <glyph glyph-name="Etatonos" unicode="&#x389;" horiz-adv-x="687" 
d="M650 710l-87 -710h-85l37 299h-327l-37 -299h-86l87 710h86l-41 -334h327l41 334h85zM-8 707h95l-102 -163h-78z" />
    <glyph glyph-name="Iotatonos" unicode="&#x38a;" horiz-adv-x="285" 
d="M155 0h-85l87 710h86zM-6 707h95l-102 -163h-78z" />
    <glyph glyph-name="Omicrontonos" unicode="&#x38c;" horiz-adv-x="766" 
d="M439 716c168 0 282 -107 282 -296c0 -228 -139 -426 -368 -426c-169 0 -281 109 -281 297c0 223 146 425 367 425zM51 707h95l-102 -163h-78zM359 73c164 0 273 164 273 344c0 146 -77 219 -202 219c-160 0 -270 -168 -270 -343c0 -143 78 -220 199 -220z" />
    <glyph glyph-name="Upsilontonos" unicode="&#x38e;" horiz-adv-x="562" 
d="M501 710h101l-268 -393l-40 -317h-85l39 317l-169 393h93l126 -310h1zM-136 544l85 163h95l-102 -163h-78z" />
    <glyph glyph-name="Omegatonos" unicode="&#x38f;" horiz-adv-x="719" 
d="M503 79v-2h126l-10 -77h-242l10 77c125 76 203 184 203 339c0 127 -66 220 -178 220c-157 0 -247 -139 -247 -301c0 -98 49 -198 127 -258l-10 -77h-243l10 77h139v2c-69 66 -111 163 -111 261c0 216 133 376 339 376c162 0 264 -124 264 -292c0 -145 -70 -267 -177 -345
zM141 707l-102 -163h-78l85 163h95z" />
    <glyph glyph-name="Iotadieresis" unicode="&#x3aa;" horiz-adv-x="285" 
d="M112 924c31 0 54 -23 54 -54c0 -33 -24 -56 -57 -56c-31 0 -54 23 -54 54c0 32 25 56 57 56zM326 924c30 0 54 -23 54 -54c0 -33 -25 -56 -57 -56c-31 0 -54 23 -54 54c0 32 24 56 57 56zM155 0h-85l87 710h86z" />
    <glyph glyph-name="Upsilondieresis" unicode="&#x3ab;" horiz-adv-x="559" 
d="M241 814c-31 0 -54 23 -54 54c0 32 25 56 57 56c31 0 54 -23 54 -54c0 -33 -24 -56 -57 -56zM455 814c-31 0 -54 23 -54 54c0 32 24 56 57 56c30 0 54 -23 54 -54c0 -33 -25 -56 -57 -56zM498 710h101l-268 -393l-40 -317h-85l39 317l-169 393h93l126 -310h1z" />
    <glyph glyph-name="alpha" unicode="&#x3b1;" horiz-adv-x="575" 
d="M487 65c13 0 24 3 37 6l14 -57c-24 -14 -51 -20 -79 -20c-55 -1 -83 33 -85 121h-2c-43 -75 -104 -121 -177 -121c-89 0 -154 77 -154 200c0 155 95 299 226 299c91 0 131 -62 149 -149h1l57 151l72 -30l-105 -238l3 -78c1 -59 7 -84 43 -84zM209 67c67 0 125 69 159 173
c-2 117 -37 179 -96 179c-93 0 -151 -118 -151 -218c0 -81 31 -134 88 -134z" />
    <glyph glyph-name="beta" unicode="&#x3b2;" horiz-adv-x="528" 
d="M523 593c0 -71 -41 -144 -117 -204v-2c43 -33 74 -85 74 -153c0 -140 -91 -240 -222 -240c-112 0 -204 74 -201 260c2 254 122 489 309 489c101 0 158 -64 157 -150zM359 669c-115 0 -195 -167 -216 -332c184 53 300 154 300 249c0 53 -32 83 -84 83zM261 67
c78 0 139 67 139 168c0 49 -21 89 -57 111c-56 -33 -125 -61 -206 -80v-16c0 -111 47 -183 124 -183z" />
    <glyph glyph-name="gamma" unicode="&#x3b3;" horiz-adv-x="500" 
d="M484 487c-43 -196 -127 -346 -242 -497c1 -59 -3 -122 -9 -188h-83c14 123 17 219 0 348c-25 212 -43 275 -85 275c-7 0 -15 -1 -23 -4l-2 60c16 8 34 12 50 12c70 0 97 -65 117 -192c10 -54 19 -131 25 -201h2c69 105 131 226 167 387h83z" />
    <glyph glyph-name="delta" unicode="&#x3b4;" horiz-adv-x="533" 
d="M355 484c87 -50 135 -106 135 -204c0 -155 -97 -286 -250 -286c-125 0 -198 85 -198 200c0 121 69 226 172 279l1 2c-52 37 -67 74 -67 118c0 86 76 148 185 150c51 0 125 -12 183 -58l-42 -63c-48 34 -97 47 -144 47c-55 0 -102 -27 -101 -75c0 -25 11 -44 64 -75
c23 -13 40 -22 62 -35zM242 67c101 0 168 96 168 202c0 71 -36 117 -100 151c-11 7 -23 13 -33 19c-90 -43 -156 -137 -154 -240c2 -85 55 -132 119 -132z" />
    <glyph glyph-name="epsilon" unicode="&#x3b5;" horiz-adv-x="454" 
d="M210 67c65 0 109 13 171 54l29 -62c-74 -49 -132 -65 -211 -65c-107 0 -164 45 -165 118c-1 61 32 115 88 142v1c-37 21 -53 54 -53 89c0 90 84 149 188 149c50 0 119 -8 181 -56l-36 -60c-50 37 -100 43 -133 43c-69 1 -120 -30 -120 -81c0 -27 21 -53 76 -53l84 -1
l-8 -69h-86c-58 0 -101 -42 -101 -87c0 -42 33 -62 96 -62z" />
    <glyph glyph-name="zeta" unicode="&#x3b6;" horiz-adv-x="415" 
d="M469 675c-173 -136 -346 -330 -346 -474c0 -76 52 -95 136 -130c83 -36 114 -65 114 -116c0 -54 -43 -118 -87 -168l-64 41c37 41 70 81 70 118c0 28 -20 38 -82 64c-87 37 -168 72 -168 185c0 165 163 339 318 470v2h-238l7 69h346z" />
    <glyph glyph-name="eta" unicode="&#x3b7;" horiz-adv-x="558" 
d="M367 493c102 0 145 -64 127 -200l-65 -491h-79l64 485c13 95 -11 132 -65 132c-66 0 -156 -93 -177 -213l-25 -206h-79l43 351c7 57 1 74 -23 74c-7 0 -15 -1 -25 -4l-2 60c19 8 34 12 54 12c56 0 80 -39 75 -110h2c47 73 109 110 175 110z" />
    <glyph glyph-name="theta" unicode="&#x3b8;" horiz-adv-x="550" 
d="M330 743c111 0 191 -66 191 -264c0 -240 -82 -485 -275 -485c-105 0 -187 67 -187 262c0 238 88 487 271 487zM328 669c-87 0 -149 -118 -175 -259h285c1 22 2 45 2 67c0 128 -36 192 -112 192zM248 67c97 0 158 126 182 274h-287c-3 -26 -4 -53 -4 -79
c0 -126 39 -195 109 -195z" />
    <glyph glyph-name="iota" unicode="&#x3b9;" horiz-adv-x="284" 
d="M248 13c-28 -13 -55 -19 -84 -19c-90 0 -103 60 -94 135l44 358h79l-42 -343c-7 -53 3 -78 43 -78c14 0 27 3 41 8z" />
    <glyph glyph-name="kappa" unicode="&#x3ba;" horiz-adv-x="537" 
d="M442 66c13 0 28 3 43 8l13 -59c-23 -13 -45 -21 -82 -21c-66 0 -94 41 -108 111c-8 39 -11 86 -14 140h-2c-56 -57 -109 -115 -160 -171l-8 -74h-77l60 487h80l-32 -253c-1 -8 -4 -30 -8 -51h1c90 115 200 231 308 325l57 -53c-53 -46 -105 -94 -155 -144
c6 -61 10 -116 19 -159c12 -52 30 -86 65 -86z" />
    <glyph glyph-name="lambda" unicode="&#x3bb;" horiz-adv-x="494" 
d="M352 0c-19 118 -40 246 -66 373h-1l-194 -373h-91l260 480l-24 110c-11 53 -33 82 -73 82c-15 0 -30 -3 -47 -7l-5 64c16 6 41 14 74 14c74 0 110 -53 133 -147c51 -207 88 -414 120 -596h-86z" />
    <glyph glyph-name="uni03BC" unicode="&#x3bc;" horiz-adv-x="553" 
d="M503 69l14 -58c-20 -11 -43 -17 -73 -17c-55 0 -79 33 -83 81h-2c-36 -51 -85 -81 -144 -81c-46 0 -74 19 -89 53h-2c0 -35 -2 -73 -6 -108l-16 -137h-80l85 685h79l-38 -309c-4 -83 33 -111 75 -111c68 0 141 58 155 185l29 235h79l-43 -352c-6 -46 -5 -69 33 -69
c8 0 16 1 27 3z" />
    <glyph glyph-name="nu" unicode="&#x3bd;" horiz-adv-x="503" 
d="M405 487h84c-41 -194 -122 -362 -241 -487h-91l-101 487h85l78 -413h1c94 118 151 250 185 413z" />
    <glyph glyph-name="xi" unicode="&#x3be;" horiz-adv-x="440" 
d="M470 668c-152 -25 -261 -79 -261 -166c0 -52 39 -84 130 -84h59l-7 -69h-84c-105 0 -184 -48 -184 -140c0 -62 44 -91 124 -126c94 -42 135 -64 135 -129c0 -54 -41 -116 -88 -167l-64 41c38 41 71 84 71 116c0 31 -22 44 -93 74c-92 38 -166 86 -166 181
c0 102 59 165 140 193l1 1c-33 21 -54 53 -54 100c0 89 69 141 147 173v1h-145l9 69h339z" />
    <glyph glyph-name="omicron" unicode="&#x3bf;" horiz-adv-x="537" 
d="M297 493c117 0 197 -72 197 -198c0 -167 -90 -301 -253 -301c-118 0 -199 73 -199 202c0 157 92 297 255 297zM292 420c-99 0 -169 -102 -169 -214c0 -83 47 -139 120 -139c103 0 171 95 171 220c0 97 -60 133 -122 133z" />
    <glyph glyph-name="pi" unicode="&#x3c0;" horiz-adv-x="568" 
d="M466 418l-34 -279c-6 -51 -2 -73 34 -73c9 0 19 1 31 4l12 -59c-21 -11 -40 -17 -70 -17c-66 0 -97 45 -86 134l36 290h-181l-51 -418h-79l51 418h-84l9 61c28 4 63 8 97 8h423l-11 -69h-97z" />
    <glyph glyph-name="rho" unicode="&#x3c1;" horiz-adv-x="542" 
d="M306 493c125 0 196 -83 196 -199c0 -178 -106 -300 -239 -300c-66 0 -112 28 -138 64h-2l-32 -256h-79l54 443c22 173 119 248 240 248zM256 67c93 0 166 95 166 220c0 78 -50 132 -120 132c-77 0 -142 -56 -156 -176l-11 -84c18 -63 70 -92 121 -92z" />
    <glyph glyph-name="uni03C2" unicode="&#x3c2;" horiz-adv-x="458" 
d="M123 207c0 -85 52 -101 134 -136c83 -36 114 -66 114 -117c0 -55 -42 -112 -87 -167l-63 41c32 36 69 79 69 116c0 28 -20 41 -83 67c-81 33 -164 69 -165 194c0 151 100 288 251 288c61 0 127 -27 163 -80l-63 -47c-25 38 -67 53 -98 53c-101 0 -173 -95 -172 -212z" />
    <glyph glyph-name="sigma" unicode="&#x3c3;" horiz-adv-x="550" 
d="M539 418h-105v-2c31 -33 52 -81 52 -139c0 -147 -95 -283 -253 -283c-114 0 -191 75 -191 205c0 155 88 288 248 288h258zM237 67c96 0 169 90 169 216c0 67 -26 114 -72 135h-42c-104 0 -169 -93 -169 -215c0 -79 43 -136 114 -136z" />
    <glyph glyph-name="tau" unicode="&#x3c4;" horiz-adv-x="427" 
d="M134 142l34 276h-130l8 69h379l-8 -69h-169l-34 -272c-6 -52 5 -79 40 -79c24 0 50 7 79 26l13 -65c-34 -23 -78 -34 -117 -34c-79 0 -106 53 -95 148z" />
    <glyph glyph-name="upsilon" unicode="&#x3c5;" horiz-adv-x="524" 
d="M225 -6c-103 0 -160 69 -155 169c5 93 33 174 36 225c2 31 -12 36 -27 36c-6 0 -14 -2 -21 -3l-2 60c20 7 38 12 58 12c39 0 75 -21 73 -87c-2 -64 -33 -142 -37 -233c-4 -63 24 -106 81 -106c112 0 171 151 172 311c0 33 -2 69 -7 104l74 14c9 -43 14 -89 14 -124
c-1 -200 -84 -378 -259 -378z" />
    <glyph glyph-name="phi" unicode="&#x3c6;" horiz-adv-x="641" 
d="M447 492c81 -2 157 -63 156 -195c-2 -187 -129 -297 -275 -303l-23 -192h-79l24 192c-113 3 -207 81 -207 217c0 117 51 216 129 290l64 -23c-73 -80 -113 -167 -113 -257c0 -95 55 -154 136 -154l32 258c15 127 84 168 156 167zM339 68c103 7 184 99 184 232
c0 74 -37 119 -79 118c-31 0 -66 -19 -75 -98z" />
    <glyph glyph-name="chi" unicode="&#x3c7;" horiz-adv-x="480" 
d="M396 -136c6 0 13 2 22 4l2 -61c-17 -7 -31 -11 -47 -11c-65 0 -85 32 -110 119l-45 162h-1l-171 -275h-89l232 360l-65 203c-16 50 -32 59 -51 59c-7 0 -14 -1 -22 -3l-3 60c17 8 32 12 48 12c62 0 83 -32 107 -118l36 -131h2l152 243h90l-215 -330l77 -233
c16 -50 31 -60 51 -60z" />
    <glyph glyph-name="psi" unicode="&#x3c8;" horiz-adv-x="646" 
d="M606 365c-1 -187 -79 -367 -274 -371l-23 -192h-80l24 192c-100 1 -195 52 -195 177c0 99 34 161 34 246c0 16 -1 51 -10 70h82c6 -14 9 -53 9 -72c0 -86 -34 -147 -34 -233c0 -91 68 -113 124 -115l69 572l80 6l-71 -578c132 6 184 155 184 309c0 36 -2 71 -8 108l74 13
c9 -42 15 -89 15 -132z" />
    <glyph glyph-name="omega" unicode="&#x3c9;" horiz-adv-x="693" 
d="M590 498c33 -57 58 -127 58 -221c0 -144 -75 -283 -200 -283c-66 0 -107 30 -122 92h-3c-31 -61 -79 -92 -140 -92c-83 0 -142 64 -142 187c0 117 45 234 125 319l69 -21c-77 -88 -114 -204 -114 -292c0 -78 28 -120 75 -120c53 0 92 60 109 164l16 134h79l-17 -138
c-12 -94 5 -160 62 -160c82 0 123 111 123 216c0 81 -26 156 -48 198z" />
    <glyph glyph-name="iotatonos" unicode="&#x3af;" horiz-adv-x="284" 
d="M202 722h96l-95 -163h-80zM248 13c-28 -13 -55 -19 -84 -19c-90 0 -103 60 -94 135l44 358h79l-42 -343c-7 -53 3 -78 43 -78c14 0 27 3 41 8z" />
    <glyph glyph-name="iotadieresis" unicode="&#x3ca;" horiz-adv-x="284" 
d="M65 690c31 0 54 -23 54 -54c0 -33 -24 -56 -57 -56c-31 0 -54 23 -54 54c0 32 25 56 57 56zM279 690c30 0 54 -23 54 -54c0 -33 -25 -56 -57 -56c-31 0 -54 23 -54 54c0 32 24 56 57 56zM248 13c-28 -13 -55 -19 -84 -19c-90 0 -103 60 -94 135l44 358h79l-42 -343
c-7 -53 3 -78 43 -78c14 0 27 3 41 8z" />
    <glyph glyph-name="iotadieresistonos" unicode="&#x390;" horiz-adv-x="284" 
d="M194 722h77l-78 -163h-63zM43 690c31 0 54 -23 54 -54c0 -33 -24 -56 -57 -56c-31 0 -54 23 -54 54c0 32 25 56 57 56zM329 690c31 0 54 -23 54 -54c0 -33 -24 -56 -57 -56c-31 0 -54 23 -54 54c0 32 25 56 57 56zM248 13c-28 -13 -55 -19 -84 -19c-90 0 -103 60 -94 135
l44 358h79l-42 -343c-7 -53 3 -78 43 -78c14 0 27 3 41 8z" />
    <glyph glyph-name="upsilontonos" unicode="&#x3cd;" horiz-adv-x="524" 
d="M341 722h96l-95 -163h-80zM225 -6c-103 0 -160 69 -155 169c5 93 33 174 36 225c2 31 -12 36 -27 36c-6 0 -14 -2 -21 -3l-2 60c20 7 38 12 58 12c39 0 75 -21 73 -87c-2 -64 -33 -142 -37 -233c-4 -63 24 -106 81 -106c112 0 171 151 172 311c0 33 -2 69 -7 104l74 14
c9 -43 14 -89 14 -124c-1 -200 -84 -378 -259 -378z" />
    <glyph glyph-name="upsilondieresis" unicode="&#x3cb;" horiz-adv-x="524" 
d="M204 690c31 0 54 -23 54 -54c0 -33 -24 -56 -57 -56c-31 0 -54 23 -54 54c0 32 25 56 57 56zM418 690c30 0 54 -23 54 -54c0 -33 -25 -56 -57 -56c-31 0 -54 23 -54 54c0 32 24 56 57 56zM225 -6c-103 0 -160 69 -155 169c5 93 33 174 36 225c2 31 -12 36 -27 36
c-6 0 -14 -2 -21 -3l-2 60c20 7 38 12 58 12c39 0 75 -21 73 -87c-2 -64 -33 -142 -37 -233c-4 -63 24 -106 81 -106c112 0 171 151 172 311c0 33 -2 69 -7 104l74 14c9 -43 14 -89 14 -124c-1 -200 -84 -378 -259 -378z" />
    <glyph glyph-name="upsilondieresistonos" unicode="&#x3b0;" horiz-adv-x="524" 
d="M333 722h77l-78 -163h-63zM182 690c31 0 54 -23 54 -54c0 -33 -24 -56 -57 -56c-31 0 -54 23 -54 54c0 32 25 56 57 56zM468 690c31 0 54 -23 54 -54c0 -33 -24 -56 -57 -56c-31 0 -54 23 -54 54c0 32 25 56 57 56zM225 -6c-103 0 -160 69 -155 169c5 93 33 174 36 225
c2 31 -12 36 -27 36c-6 0 -14 -2 -21 -3l-2 60c20 7 38 12 58 12c39 0 75 -21 73 -87c-2 -64 -33 -142 -37 -233c-4 -63 24 -106 81 -106c112 0 171 151 172 311c0 33 -2 69 -7 104l74 14c9 -43 14 -89 14 -124c-1 -200 -84 -378 -259 -378z" />
    <glyph glyph-name="omicrontonos" unicode="&#x3cc;" horiz-adv-x="537" 
d="M348 722h96l-95 -163h-80zM297 493c117 0 197 -72 197 -198c0 -167 -90 -301 -253 -301c-118 0 -199 73 -199 202c0 157 92 297 255 297zM292 420c-99 0 -169 -102 -169 -214c0 -83 47 -139 120 -139c103 0 171 95 171 220c0 97 -60 133 -122 133z" />
    <glyph glyph-name="omegatonos" unicode="&#x3ce;" horiz-adv-x="693" 
d="M525 722l-95 -163h-80l79 163h96zM590 498c33 -57 58 -127 58 -221c0 -144 -75 -283 -200 -283c-66 0 -107 30 -122 92h-3c-31 -61 -79 -92 -140 -92c-83 0 -142 64 -142 187c0 117 45 234 125 319l69 -21c-77 -88 -114 -204 -114 -292c0 -78 28 -120 75 -120
c53 0 92 60 109 164l16 134h79l-17 -138c-12 -94 5 -160 62 -160c82 0 123 111 123 216c0 81 -26 156 -48 198z" />
    <glyph glyph-name="alphatonos" unicode="&#x3ac;" horiz-adv-x="575" 
d="M458 722l-95 -163h-80l79 163h96zM487 65c13 0 24 3 37 6l14 -57c-24 -14 -51 -20 -79 -20c-55 -1 -83 33 -85 121h-2c-43 -75 -104 -121 -177 -121c-89 0 -154 77 -154 200c0 155 95 299 226 299c91 0 131 -62 149 -149h1l57 151l72 -30l-105 -238l3 -78
c1 -59 7 -84 43 -84zM209 67c67 0 125 69 159 173c-2 117 -37 179 -96 179c-93 0 -151 -118 -151 -218c0 -81 31 -134 88 -134z" />
    <glyph glyph-name="epsilontonos" unicode="&#x3ad;" horiz-adv-x="454" 
d="M403 722l-95 -163h-80l79 163h96zM210 67c65 0 109 13 171 54l29 -62c-74 -49 -132 -65 -211 -65c-107 0 -164 45 -165 118c-1 61 32 115 88 142v1c-37 21 -53 54 -53 89c0 90 84 149 188 149c50 0 119 -8 181 -56l-36 -60c-50 37 -100 43 -133 43
c-69 1 -120 -30 -120 -81c0 -27 21 -53 76 -53l84 -1l-8 -69h-86c-58 0 -101 -42 -101 -87c0 -42 33 -62 96 -62z" />
    <glyph glyph-name="etatonos" unicode="&#x3ae;" horiz-adv-x="558" 
d="M454 722l-95 -163h-80l79 163h96zM367 493c102 0 145 -64 127 -200l-65 -491h-79l64 485c13 95 -11 132 -65 132c-66 0 -156 -93 -177 -213l-25 -206h-79l43 351c7 57 1 74 -23 74c-7 0 -15 -1 -25 -4l-2 60c19 8 34 12 54 12c56 0 80 -39 75 -110h2
c47 73 109 110 175 110z" />
    <glyph glyph-name="uni03D7" unicode="&#x3d7;" horiz-adv-x="602" 
d="M430 68c25 -13 60 -17 108 -16l-6 -43c-146 -154 -247 -225 -388 -225c-74 0 -142 24 -190 67l39 49c43 -32 92 -49 145 -49c92 0 177 45 279 142v2c-63 4 -101 50 -117 136l-19 102h-1c-51 -55 -100 -110 -145 -162l-9 -71h-76l59 487h79l-30 -253c-1 -9 -5 -31 -9 -52
h2c84 107 194 223 299 321l53 -48c-58 -52 -112 -106 -165 -160l36 -141c11 -46 28 -72 56 -86z" />
    <glyph glyph-name="zero" unicode="0" horiz-adv-x="586" 
d="M350 693c119 0 194 -87 194 -263c0 -220 -94 -436 -281 -436c-117 0 -198 87 -198 263c0 216 96 436 285 436zM344 616c-136 0 -195 -199 -195 -363c0 -123 47 -182 115 -182c138 0 196 195 196 363c0 124 -43 182 -116 182z" />
    <glyph glyph-name="one" unicode="1" horiz-adv-x="362" 
d="M254 687h67l-85 -687h-82l71 576l-126 -95l-39 64z" />
    <glyph glyph-name="two" unicode="2" horiz-adv-x="485" 
d="M144 79v-3h271l-10 -76h-393l7 57l229 235c64 65 128 139 128 224c0 55 -28 100 -88 100c-55 0 -116 -36 -147 -98l-61 44c39 76 125 131 213 131c97 0 166 -65 166 -172c0 -101 -62 -188 -143 -270z" />
    <glyph glyph-name="three" unicode="3" horiz-adv-x="500" 
d="M353 357c55 -24 87 -73 87 -146c0 -128 -97 -217 -229 -217c-108 0 -175 60 -195 142l80 30c12 -60 49 -95 114 -95c88 0 146 65 146 149c0 60 -29 100 -111 100h-56l9 72h52c84 0 131 69 131 135c0 57 -35 89 -93 89c-59 0 -101 -31 -131 -74l-68 40
c39 62 111 111 206 111c96 0 169 -50 169 -156c0 -81 -43 -147 -111 -179v-1z" />
    <glyph glyph-name="four" unicode="4" horiz-adv-x="522" 
d="M390 195h92l-9 -74h-93l-14 -121h-82l14 121h-281l6 59l359 507h68zM123 193h188l40 330z" />
    <glyph glyph-name="five" unicode="5" horiz-adv-x="518" 
d="M483 611h-254l-33 -193c35 12 74 18 103 18c100 0 167 -66 167 -184c0 -148 -105 -259 -247 -259c-92 0 -159 46 -193 121l69 44c22 -54 63 -87 124 -87c94 0 163 77 163 177c0 76 -41 116 -112 116c-42 0 -84 -14 -118 -40l-49 16l61 347h329z" />
    <glyph glyph-name="six" unicode="6" horiz-adv-x="545" 
d="M331 432c94 0 161 -64 161 -179c0 -144 -100 -259 -243 -259c-113 0 -193 72 -193 223c0 210 150 440 375 493l14 -72c-145 -43 -240 -149 -282 -267l1 -1c48 40 110 62 167 62zM250 71c86 0 158 78 158 177c0 69 -38 109 -103 109c-68 0 -132 -41 -166 -97
c-1 -10 -1 -21 -1 -31c0 -104 44 -158 112 -158z" />
    <glyph glyph-name="seven" unicode="7" horiz-adv-x="455" 
d="M83 687h383l-6 -58l-315 -641l-84 17l302 606h-289z" />
    <glyph glyph-name="eight" unicode="8" horiz-adv-x="534" 
d="M381 373c61 -17 101 -69 101 -147c0 -143 -107 -232 -253 -232c-116 0 -190 64 -190 164c0 95 55 179 145 212v2c-37 15 -73 53 -73 118c0 118 92 203 215 203c93 0 164 -54 164 -146c0 -80 -43 -145 -109 -173v-1zM313 619c-69 0 -123 -53 -123 -124
c0 -55 39 -88 97 -88c67 0 124 51 124 124c0 55 -36 88 -98 88zM242 69c88 0 155 63 155 152c0 71 -45 110 -118 110c-92 0 -155 -70 -155 -152c0 -69 46 -110 118 -110z" />
    <glyph glyph-name="nine" unicode="9" horiz-adv-x="542" 
d="M324 693c113 0 187 -73 187 -223c0 -239 -160 -449 -380 -494l-12 70c140 37 243 139 286 269l-1 1c-47 -40 -108 -64 -169 -64c-95 0 -161 61 -161 176c0 149 108 265 250 265zM258 328c64 0 129 39 169 102c1 14 1 28 1 42c-2 100 -43 144 -112 144
c-91 0 -159 -77 -159 -177c0 -68 34 -111 101 -111z" />
    <glyph glyph-name="fraction" unicode="&#x2044;" horiz-adv-x="191" 
d="M336 694l-367 -711l-64 30l367 711z" />
    <glyph glyph-name="onehalf" unicode="&#xbd;" horiz-adv-x="746" 
d="M510 724l64 -30l-367 -711l-64 30zM200 299h-68l41 323l-74 -52l-29 53l127 88h53zM541 64v-2h153l-8 -62h-254l4 47l144 138c38 37 70 72 70 115c0 33 -18 53 -49 53c-27 0 -61 -17 -82 -52l-48 39c28 45 79 77 137 77c65 0 111 -40 111 -110c0 -61 -34 -108 -83 -154z
" />
    <glyph glyph-name="onequarter" unicode="&#xbc;" horiz-adv-x="711" 
d="M510 724l64 -30l-367 -711l-64 30zM200 299h-68l41 323l-74 -52l-29 53l127 88h53zM620 128h54l-7 -59h-54l-9 -69h-67l9 69h-167l5 44l217 299h54zM460 125h99l22 171z" />
    <glyph glyph-name="threequarters" unicode="&#xbe;" horiz-adv-x="763" 
d="M561 724l64 -30l-367 -711l-64 30zM317 426c0 -82 -63 -133 -144 -133c-71 0 -117 40 -131 89l64 22c8 -33 29 -50 64 -50c47 0 77 35 77 78c0 31 -22 52 -63 52h-31l7 53h34c40 0 69 33 69 71c0 30 -21 47 -50 47c-31 0 -56 -16 -71 -43l-54 35c24 41 71 69 126 69
c66 0 115 -34 115 -97c0 -48 -25 -86 -65 -107v-1c34 -15 53 -45 53 -85zM672 128h54l-7 -59h-54l-9 -69h-67l9 69h-167l5 44l217 299h54zM512 125h99l22 171z" />
    <glyph glyph-name="uni2070" unicode="&#x2070;" horiz-adv-x="375" 
d="M260 854c86 0 136 -64 136 -169c0 -131 -65 -255 -181 -255c-85 0 -136 60 -136 169c0 129 64 255 181 255zM259 790c-76 0 -112 -103 -112 -192c0 -72 27 -104 69 -104c76 0 112 103 112 192c0 69 -26 104 -69 104z" />
    <glyph glyph-name="uni00B9" unicode="&#xb9;" horiz-adv-x="254" 
d="M211 848h53l-50 -412h-68l41 323l-74 -52l-29 53z" />
    <glyph glyph-name="uni00B2" unicode="&#xb2;" horiz-adv-x="317" 
d="M163 500v-2h153l-8 -62h-254l4 47l144 138c38 37 70 72 70 115c0 33 -18 53 -49 53c-27 0 -61 -17 -82 -52l-48 39c28 45 79 77 137 77c65 0 111 -40 111 -110c0 -61 -34 -108 -83 -154z" />
    <glyph glyph-name="uni00B3" unicode="&#xb3;" horiz-adv-x="321" 
d="M278 648c34 -15 53 -45 53 -85c0 -82 -63 -133 -144 -133c-71 0 -117 40 -131 89l64 22c8 -33 29 -50 64 -50c47 0 77 35 77 78c0 31 -22 52 -63 52h-31l7 53h34c40 0 69 33 69 71c0 30 -21 47 -50 47c-31 0 -56 -16 -71 -43l-54 35c24 41 71 69 126 69
c66 0 115 -34 115 -97c0 -48 -25 -86 -65 -107v-1z" />
    <glyph glyph-name="asterisk" unicode="*" horiz-adv-x="389" 
d="M332 450l-80 63l-12 -120h-54l19 120l-95 -64l-22 48l98 54l-85 56l32 47l80 -63l12 119h54l-19 -119l94 63l22 -47l-98 -55l86 -55z" />
    <glyph glyph-name="backslash" unicode="\" horiz-adv-x="377" 
d="M53 739l66 30l241 -852l-66 -30z" />
    <glyph glyph-name="periodcentered" unicode="&#xb7;" horiz-adv-x="241" 
d="M134 297c30 0 54 -23 54 -55s-25 -56 -57 -56c-31 0 -54 23 -54 54c0 33 24 57 57 57z" />
    <glyph glyph-name="bullet" unicode="&#x2022;" horiz-adv-x="419" 
d="M220 416c57 0 100 -42 100 -98c0 -60 -45 -104 -104 -104c-57 0 -99 43 -99 100c0 58 44 102 103 102z" />
    <glyph glyph-name="colon" unicode=":" horiz-adv-x="243" 
d="M150 493c30 0 54 -23 54 -55s-25 -56 -57 -56c-31 0 -54 23 -54 54c0 33 24 57 57 57zM100 105c30 0 54 -23 54 -55s-25 -56 -57 -56c-31 0 -54 23 -54 54c0 33 24 57 57 57z" />
    <glyph glyph-name="comma" unicode="," horiz-adv-x="212" 
d="M47 110h86l-85 -240h-60z" />
    <glyph glyph-name="ellipsis" unicode="&#x2026;" horiz-adv-x="1000" 
d="M146 105c30 0 54 -23 54 -55s-25 -56 -57 -56c-31 0 -54 23 -54 54c0 33 24 57 57 57zM479 105c30 0 54 -23 54 -55s-25 -56 -57 -56c-31 0 -54 23 -54 54c0 33 24 57 57 57zM813 105c30 0 54 -23 54 -55s-25 -56 -57 -56c-31 0 -54 23 -54 54c0 33 24 57 57 57z" />
    <glyph glyph-name="exclam" unicode="!" horiz-adv-x="252" 
d="M98 208l49 528h89l-80 -528h-58zM115 105c30 0 54 -23 54 -55s-25 -56 -57 -56c-31 0 -54 23 -54 54c0 33 24 57 57 57z" />
    <glyph glyph-name="exclamdown" unicode="&#xa1;" horiz-adv-x="246" 
d="M130 382c-30 0 -54 23 -54 55s25 56 57 56c31 0 54 -23 54 -54c0 -33 -24 -57 -57 -57zM147 279l-49 -528h-89l80 528h58z" />
    <glyph glyph-name="numbersign" unicode="#" horiz-adv-x="585" 
d="M467 656h57l-51 -201h108l-7 -62h-118l-41 -161h118l-8 -62h-129l-52 -205h-58l53 205h-142l-53 -205h-58l53 205h-104l7 62h114l42 161h-115l7 62h125l52 201h57l-52 -201h144zM397 393h-142l-42 -161h144z" />
    <glyph glyph-name="period" unicode="." horiz-adv-x="242" 
d="M99 105c30 0 54 -23 54 -55s-25 -56 -57 -56c-31 0 -54 23 -54 54c0 33 24 57 57 57z" />
    <glyph glyph-name="question" unicode="?" horiz-adv-x="422" 
d="M126 596l-52 52c45 62 118 95 191 95c86 0 155 -55 155 -158c0 -88 -52 -152 -107 -206c-44 -44 -82 -78 -89 -121l-9 -51h-73l6 52c7 61 51 100 99 151c47 50 83 94 83 160c0 61 -35 93 -87 93c-45 0 -87 -24 -117 -67zM168 105c30 0 54 -23 54 -55s-25 -56 -57 -56
c-31 0 -54 23 -54 54c0 33 24 57 57 57z" />
    <glyph glyph-name="questiondown" unicode="&#xbf;" horiz-adv-x="399" 
d="M254 381c-30 0 -54 23 -54 55s25 56 57 56c31 0 54 -23 54 -54c0 -33 -24 -57 -57 -57zM296 -110c-30 -43 -72 -67 -117 -67c-52 0 -87 32 -87 93c0 66 36 110 83 160c48 51 92 90 99 151l6 52h-73l-9 -51c-7 -43 -45 -77 -89 -121c-55 -54 -107 -118 -107 -206
c0 -103 69 -158 155 -158c73 0 146 33 191 95z" />
    <glyph glyph-name="quotedbl" unicode="&#x22;" horiz-adv-x="333" 
d="M128 710h86l-80 -240h-65zM263 710h86l-80 -240h-65z" />
    <glyph glyph-name="quotesingle" unicode="'" horiz-adv-x="198" 
d="M128 710h86l-80 -240h-65z" />
    <glyph glyph-name="semicolon" unicode=";" horiz-adv-x="229" 
d="M141 493c30 0 54 -23 54 -55s-25 -56 -57 -56c-31 0 -54 23 -54 54c0 33 24 57 57 57zM58 110h86l-85 -240h-60z" />
    <glyph glyph-name="slash" unicode="/" horiz-adv-x="367" 
d="M437 739l-450 -852l-56 30l450 853z" />
    <glyph glyph-name="underscore" unicode="_" horiz-adv-x="475" 
d="M437 -84h-479l6 57h480z" />
    <glyph glyph-name="bullet.case" horiz-adv-x="425" 
d="M220 442c57 0 100 -42 100 -98c0 -60 -45 -104 -104 -104c-57 0 -99 43 -99 100c0 58 44 102 103 102z" />
    <glyph glyph-name="exclamdown.case" horiz-adv-x="252" 
d="M147 424c-30 0 -54 23 -54 55s25 56 57 56c31 0 54 -23 54 -54c0 -33 -24 -57 -57 -57zM164 321l-49 -528h-89l80 528h58z" />
    <glyph glyph-name="questiondown.case" horiz-adv-x="423" 
d="M259 423c-30 0 -54 23 -54 55s25 56 57 56c31 0 54 -23 54 -54c0 -33 -24 -57 -57 -57zM301 -68c-30 -43 -72 -67 -117 -67c-52 0 -87 32 -87 93c0 66 36 110 83 160c48 51 92 90 99 151l6 52h-73l-9 -51c-7 -43 -45 -77 -89 -121c-55 -54 -107 -118 -107 -206
c0 -103 69 -158 155 -158c73 0 146 33 191 95z" />
    <glyph glyph-name="braceleft" unicode="{" horiz-adv-x="325" 
d="M278 729h54l-7 -57h-24c-39 0 -62 -35 -66 -69l-27 -216c-7 -56 -20 -85 -62 -98v-2c36 -12 46 -35 38 -100l-24 -198c-7 -54 6 -76 45 -76h26l-6 -57h-51c-54 0 -95 43 -86 112l27 215c4 38 8 70 -63 74l6 63c71 5 79 43 83 78l27 222c7 61 49 109 110 109z" />
    <glyph glyph-name="braceright" unicode="}" horiz-adv-x="325" 
d="M222 395c-5 -35 -9 -70 62 -75l-6 -63c-71 -4 -78 -40 -83 -78l-26 -215c-8 -68 -56 -108 -110 -108h-54l7 57h24c43 0 61 25 68 79l23 198c9 65 22 87 63 99v2c-35 13 -44 43 -37 100l26 215c4 35 -8 66 -47 66h-27l7 57h51c61 0 94 -52 87 -112z" />
    <glyph glyph-name="bracketleft" unicode="[" horiz-adv-x="304" 
d="M195 667l-92 -749h111l-8 -63h-182l108 874h181l-7 -62h-111z" />
    <glyph glyph-name="bracketright" unicode="]" horiz-adv-x="306" 
d="M215 667h-113l7 62h184l-107 -874h-184l8 63h113z" />
    <glyph glyph-name="parenleft" unicode="(" horiz-adv-x="277" 
d="M137 173c0 -110 18 -205 47 -292l-66 -30c-35 89 -56 191 -56 310c0 205 60 420 169 578l56 -26c-97 -155 -150 -353 -150 -540z" />
    <glyph glyph-name="parenright" unicode=")" horiz-adv-x="277" 
d="M228 429c0 -209 -58 -405 -167 -575l-57 24c95 164 148 351 148 540c0 111 -18 209 -48 292l65 32c38 -85 59 -192 59 -313z" />
    <glyph glyph-name="braceleft.case" horiz-adv-x="289" 
d="M285 775h54l-7 -57h-24c-39 0 -62 -35 -66 -69l-27 -216c-7 -56 -20 -85 -62 -98v-2c36 -12 46 -35 38 -100l-24 -198c-7 -54 6 -76 45 -76h26l-6 -57h-51c-54 0 -95 43 -86 112l27 215c4 38 8 70 -63 74l6 63c71 5 79 43 83 78l27 222c7 61 49 109 110 109z" />
    <glyph glyph-name="braceright.case" horiz-adv-x="289" 
d="M194 441c-5 -35 -9 -70 62 -75l-6 -63c-71 -4 -78 -40 -83 -78l-26 -215c-8 -68 -56 -108 -110 -108h-54l7 57h24c43 0 61 25 68 79l23 198c9 65 22 87 63 99v2c-35 13 -44 43 -37 100l26 215c4 35 -8 66 -47 66h-27l7 57h51c61 0 94 -52 87 -112z" />
    <glyph glyph-name="bracketleft.case" horiz-adv-x="266" 
d="M202 711l-92 -749h111l-8 -63h-182l108 874h181l-7 -62h-111z" />
    <glyph glyph-name="bracketright.case" horiz-adv-x="298" 
d="M214 712h-113l7 62h184l-107 -874h-184l8 63h113z" />
    <glyph glyph-name="parenleft.case" horiz-adv-x="250" 
d="M144 218c0 -110 18 -205 47 -292l-66 -30c-35 89 -56 191 -56 310c0 205 60 420 169 578l56 -26c-97 -155 -150 -353 -150 -540z" />
    <glyph glyph-name="parenright.case" horiz-adv-x="264" 
d="M226 474c0 -209 -58 -405 -167 -575l-57 24c95 164 148 351 148 540c0 111 -18 209 -48 292l65 32c38 -85 59 -192 59 -313z" />
    <glyph glyph-name="emdash" unicode="&#x2014;" horiz-adv-x="1050" 
d="M993 262h-931l9 71h932z" />
    <glyph glyph-name="endash" unicode="&#x2013;" horiz-adv-x="585" 
d="M529 262h-467l8 71h468z" />
    <glyph glyph-name="uni2015" unicode="&#x2015;" horiz-adv-x="1204" 
d="M1148 262h-1086l8 71h1086z" />
    <glyph glyph-name="hyphen" unicode="-" horiz-adv-x="386" 
d="M331 270h-268l9 78h268z" />
    <glyph glyph-name="emdash.case" horiz-adv-x="1033" 
d="M986 284h-931l9 71h932z" />
    <glyph glyph-name="endash.case" horiz-adv-x="568" 
d="M522 284h-467l8 71h468z" />
    <glyph glyph-name="uni2015.case" horiz-adv-x="1187" 
d="M1141 284h-1086l8 71h1086z" />
    <glyph glyph-name="hyphen.case" horiz-adv-x="358" 
d="M313 290h-257l9 75h258z" />
    <glyph glyph-name="guillemotleft" unicode="&#xab;" horiz-adv-x="444" 
d="M208 26h-77l-87 219l142 222h76l-139 -222zM377 26h-77l-86 219l141 222h77l-140 -222z" />
    <glyph glyph-name="guillemotright" unicode="&#xbb;" horiz-adv-x="446" 
d="M16 26l138 219l-85 222h77l87 -222l-141 -219h-76zM186 26l139 219l-86 222h77l87 -222l-140 -219h-77z" />
    <glyph glyph-name="guilsinglleft" unicode="&#x2039;" horiz-adv-x="279" 
d="M210 26h-77l-87 219l142 222h76l-139 -222z" />
    <glyph glyph-name="guilsinglright" unicode="&#x203a;" horiz-adv-x="275" 
d="M16 26l138 219l-85 222h77l87 -222l-141 -219h-76z" />
    <glyph glyph-name="quotedblbase" unicode="&#x201e;" horiz-adv-x="347" 
d="M54 164h86l-80 -240h-65zM189 164h86l-80 -240h-65z" />
    <glyph glyph-name="quotedblleft" unicode="&#x201c;" horiz-adv-x="334" 
d="M154 470h-86l80 240h65zM289 470h-86l80 240h65z" />
    <glyph glyph-name="quotedblright" unicode="&#x201d;" horiz-adv-x="333" 
d="M129 710h86l-80 -240h-65zM264 710h86l-80 -240h-65z" />
    <glyph glyph-name="quoteleft" unicode="&#x2018;" horiz-adv-x="199" 
d="M154 469h-86l80 240h65z" />
    <glyph glyph-name="quoteright" unicode="&#x2019;" horiz-adv-x="197" 
d="M129 710h86l-80 -240h-65z" />
    <glyph glyph-name="quotesinglbase" unicode="&#x201a;" horiz-adv-x="212" 
d="M48 110h86l-85 -240h-60z" />
    <glyph glyph-name="guillemotleft.case" horiz-adv-x="444" 
d="M216 73h-77l-87 219l142 222h76l-139 -222zM385 73h-77l-86 219l141 222h77l-140 -222z" />
    <glyph glyph-name="guillemotright.case" horiz-adv-x="446" 
d="M24 70l138 219l-85 222h77l87 -222l-141 -219h-76zM194 70l139 219l-86 222h77l87 -222l-140 -219h-77z" />
    <glyph glyph-name="anoteleia" unicode="&#x387;" horiz-adv-x="242" 
d="M150 493c30 0 54 -23 54 -55s-25 -56 -57 -56c-31 0 -54 23 -54 54c0 33 24 57 57 57z" />
    <glyph glyph-name="uni037E" unicode="&#x37e;" horiz-adv-x="229" 
d="M142 493c30 0 54 -23 54 -55s-25 -56 -57 -56c-31 0 -54 23 -54 54c0 33 24 57 57 57zM59 110h86l-85 -240h-60z" />
    <glyph glyph-name="uni2003" unicode="&#x2003;" horiz-adv-x="934" 
 />
    <glyph glyph-name="uni2002" unicode="&#x2002;" horiz-adv-x="467" 
 />
    <glyph glyph-name="space" unicode=" " horiz-adv-x="216" 
 />
    <glyph glyph-name="uni2009" unicode="&#x2009;" horiz-adv-x="27" 
 />
    <glyph glyph-name="CR" horiz-adv-x="224" 
 />
    <glyph glyph-name="cent" unicode="&#xa2;" horiz-adv-x="500" 
d="M251 122c54 0 97 18 135 60l62 -45c-44 -48 -91 -77 -157 -86l-13 -105h-66l13 103c-98 10 -168 82 -168 201c0 149 87 279 229 295l13 107h66l-13 -108c54 -7 102 -33 131 -77l-62 -47c-25 38 -67 54 -105 54c-107 0 -178 -98 -178 -220c0 -84 53 -132 113 -132z" />
    <glyph glyph-name="currency" unicode="&#xa4;" horiz-adv-x="468" 
d="M420 411c0 -51 -18 -99 -48 -136l59 -76l-43 -38l-60 75c-28 -19 -63 -30 -101 -30s-70 11 -95 30l-75 -74l-36 38l77 77c-12 22 -18 48 -18 77c0 54 17 104 46 142l-60 77l44 38l59 -74c29 20 64 32 102 32c37 0 70 -11 95 -31l75 74l36 -39l-77 -77
c13 -23 20 -52 20 -85zM138 363c0 -60 37 -99 96 -99c73 0 128 64 128 140c0 66 -40 107 -97 107c-72 0 -127 -66 -127 -148z" />
    <glyph glyph-name="dollar" unicode="$" horiz-adv-x="532" 
d="M300 380c85 -50 176 -87 176 -187c0 -122 -87 -192 -199 -198l-14 -118h-69l15 121c-69 13 -132 50 -167 107l62 57c33 -61 92 -90 150 -90c79 0 135 47 135 111c0 54 -55 75 -126 117c-76 44 -162 86 -162 185c0 105 81 175 189 181l16 125h69l-16 -130
c53 -11 103 -41 137 -84l-61 -54c-38 51 -89 67 -132 67c-65 0 -115 -39 -114 -96c1 -52 46 -77 111 -114z" />
    <glyph glyph-name="dong" unicode="&#x20ab;" horiz-adv-x="549" 
d="M589 628l-7 -57h-55l-71 -571h-79l14 111h-3c-43 -71 -107 -117 -177 -117c-111 0 -167 87 -167 196c0 157 96 303 245 303c49 0 103 -14 141 -49h1l16 127h-113l8 57h112l13 108h80l-13 -108h55zM226 65c83 0 163 95 186 226l10 77c-32 39 -86 52 -129 52
c-104 0 -168 -115 -168 -232c0 -73 35 -123 101 -123zM23 -146l8 73h423l-9 -73h-422z" />
    <glyph glyph-name="Euro" unicode="&#x20ac;" horiz-adv-x="547" 
d="M393 598c-101 0 -175 -74 -211 -175h244l-6 -52h-253c-5 -24 -8 -48 -9 -73h253l-7 -53h-244c11 -114 76 -174 158 -174c55 0 97 18 133 47l44 -65c-49 -35 -105 -59 -180 -59c-124 0 -229 83 -242 251h-58l6 53h51c1 25 4 49 8 73h-50l7 52h55c43 147 153 252 301 252
c59 0 119 -19 166 -59l-58 -59c-30 28 -68 41 -108 41z" />
    <glyph glyph-name="florin" unicode="&#x192;" horiz-adv-x="485" 
d="M437 669c-42 0 -77 -26 -94 -104l-22 -97h133l-19 -69h-133l-88 -367c-26 -110 -81 -156 -166 -156c-63 0 -101 21 -118 42l36 54c21 -16 45 -23 70 -23c49 0 83 27 101 103l83 347h-73l19 69h72l29 119c26 109 81 155 159 155c62 0 101 -22 118 -42l-37 -54
c-21 16 -45 23 -70 23z" />
    <glyph glyph-name="uni20BA" unicode="&#x20ba;" horiz-adv-x="564" 
d="M460 219l67 -29c-69 -144 -162 -190 -279 -190h-160l27 222l-68 -32l-18 55l94 44l9 71l-68 -32l-18 54l94 44l32 261h86l-27 -219l140 65l17 -54l-165 -77l-9 -71l140 65l17 -54l-165 -78l-24 -192h66c105 0 159 44 212 147z" />
    <glyph glyph-name="sterling" unicode="&#xa3;" horiz-adv-x="514" 
d="M453 537c-22 48 -59 74 -101 74c-59 0 -110 -37 -124 -156l-6 -51h146l-8 -60h-145l-32 -267h282l-10 -77h-435l9 77h68l32 267h-54l8 60h54l8 63c21 172 111 224 199 224c72 0 130 -38 161 -99z" />
    <glyph glyph-name="yen" unicode="&#xa5;" horiz-adv-x="520" 
d="M562 686l-179 -278h86l-6 -53h-114l-40 -62v-2h146l-7 -53h-146l-30 -238h-85l29 238h-152l7 53h152v2l-24 62h-120l6 53h93l-109 279h97l110 -312l185 312z" />
    <glyph glyph-name="uni2126" unicode="&#x2126;" horiz-adv-x="719" 
d="M503 79v-2h126l-10 -77h-242l10 77c125 76 203 184 203 339c0 127 -66 220 -178 220c-157 0 -247 -139 -247 -301c0 -98 49 -198 127 -258l-10 -77h-243l10 77h139v2c-69 66 -111 163 -111 261c0 216 133 376 339 376c162 0 264 -124 264 -292c0 -145 -70 -267 -177 -345
z" />
    <glyph glyph-name="approxequal" unicode="&#x2248;" horiz-adv-x="555" 
d="M387 395c43 0 75 24 101 47l20 -59c-26 -28 -66 -60 -116 -60c-65 0 -112 49 -179 49c-49 0 -92 -25 -113 -40l-19 59c16 15 71 53 128 53c77 0 115 -49 178 -49zM361 177c42 0 75 24 101 47l19 -59c-25 -29 -65 -60 -116 -60c-64 0 -112 49 -178 49
c-49 0 -93 -25 -114 -40l-19 58c16 16 71 54 129 54c76 0 114 -49 178 -49z" />
    <glyph glyph-name="asciitilde" unicode="~" horiz-adv-x="529" 
d="M63 239c29 62 71 104 125 104c42 0 65 -16 85 -28c27 -16 47 -28 71 -28c28 0 55 21 73 54l57 -23c-28 -66 -75 -106 -123 -106c-40 0 -65 16 -86 28c-29 16 -49 27 -69 27c-32 0 -57 -21 -76 -54z" />
    <glyph glyph-name="divide" unicode="&#xf7;" horiz-adv-x="544" 
d="M314 526c31 0 55 -23 55 -54c0 -33 -25 -56 -57 -56c-31 0 -54 23 -54 54c0 32 24 56 56 56zM498 240h-422l8 73h423zM268 131c31 0 55 -23 55 -54c0 -33 -25 -56 -57 -56c-31 0 -54 23 -54 54c0 32 24 56 56 56z" />
    <glyph glyph-name="emptyset" unicode="&#x2205;" horiz-adv-x="709" 
d="M586 510c43 -52 69 -120 69 -192c0 -164 -133 -303 -301 -303c-74 0 -141 27 -193 71l-45 -45l-36 36l45 45c-45 53 -71 122 -71 196c0 164 132 303 301 303c75 0 143 -28 195 -73l40 40l37 -37zM120 317c0 -56 19 -108 52 -148l331 332c-40 33 -91 53 -148 53
c-133 0 -235 -108 -235 -237zM354 82c131 0 234 107 234 236c0 54 -18 105 -49 145l-331 -330c40 -32 90 -51 146 -51z" />
    <glyph glyph-name="equal" unicode="=" horiz-adv-x="548" 
d="M515 353h-422l8 73h423zM486 127h-422l8 73h423z" />
    <glyph glyph-name="greater" unicode="&#x3e;" horiz-adv-x="538" 
d="M57 123l316 155l-277 155l9 81l382 -207l-7 -59l-432 -205z" />
    <glyph glyph-name="greaterequal" unicode="&#x2265;" horiz-adv-x="549" 
d="M81 230l316 155l-277 155l9 81l382 -207l-7 -59l-432 -205zM461 0h-408l8 73h409z" />
    <glyph glyph-name="uni2206" unicode="&#x2206;" horiz-adv-x="604" 
d="M404 710l140 -643l-8 -67h-67h-450h-11l9 67l297 643h90zM111 77h343l-106 530h-1z" />
    <glyph glyph-name="infinity" unicode="&#x221e;" horiz-adv-x="718" 
d="M532 437c76 0 131 -61 131 -142c0 -97 -73 -181 -164 -181c-56 0 -103 29 -142 106c-49 -64 -102 -106 -163 -106c-76 0 -131 59 -131 141c0 97 74 182 164 182c56 0 102 -31 140 -107c51 64 103 107 165 107zM200 178c40 0 77 30 125 100c-24 52 -51 95 -95 95
c-58 0 -100 -58 -100 -117c0 -47 28 -78 70 -78zM497 178c52 0 98 53 98 116c0 47 -28 78 -68 78c-39 0 -79 -30 -126 -100c23 -52 52 -94 96 -94z" />
    <glyph glyph-name="integral" unicode="&#x222b;" horiz-adv-x="256" 
d="M286 632h-23c-65 0 -68 -18 -82 -109l-84 -559c-14 -82 -51 -125 -104 -131c-25 -4 -45 -2 -69 0l8 62h8c65 0 69 22 83 108l84 557c13 86 51 129 104 134c42 3 67 -4 82 -4z" />
    <glyph glyph-name="less" unicode="&#x3c;" horiz-adv-x="539" 
d="M451 123l-9 -80l-382 205l6 59l433 207l-9 -81l-316 -155z" />
    <glyph glyph-name="lessequal" unicode="&#x2264;" horiz-adv-x="542" 
d="M467 229l-9 -80l-382 205l6 59l433 207l-10 -81l-315 -155zM31 0l9 73h408l-9 -73h-408z" />
    <glyph glyph-name="logicalnot" unicode="&#xac;" horiz-adv-x="525" 
d="M455 165h-73l19 158h-330l8 72h403z" />
    <glyph glyph-name="uni00B5" unicode="&#xb5;" horiz-adv-x="553" 
d="M503 69l14 -58c-20 -11 -43 -17 -73 -17c-55 0 -79 33 -83 81h-2c-36 -51 -85 -81 -144 -81c-46 0 -74 19 -89 53h-2c0 -35 -2 -73 -6 -108l-16 -137h-80l85 685h79l-38 -309c-4 -83 33 -111 75 -111c68 0 141 58 155 185l29 235h79l-43 -352c-6 -46 -5 -69 33 -69
c8 0 16 1 27 3z" />
    <glyph glyph-name="minus" unicode="&#x2212;" horiz-adv-x="544" 
d="M483 240h-422l8 73h423z" />
    <glyph glyph-name="multiply" unicode="&#xd7;" horiz-adv-x="484" 
d="M354 77l-113 149l-150 -149l-47 51l150 149l-114 149l58 51l112 -149l151 149l47 -51l-150 -150l113 -149z" />
    <glyph glyph-name="notequal" unicode="&#x2260;" horiz-adv-x="543" 
d="M503 353h-167l-83 -153h230l-9 -73h-261l-67 -123l-54 21l55 102h-95l8 73h127l83 153h-189l8 73h221l70 129l53 -23l-58 -106h137z" />
    <glyph glyph-name="partialdiff" unicode="&#x2202;" horiz-adv-x="537" 
d="M318 693c146 0 181 -150 181 -286c0 -207 -79 -413 -267 -413c-108 0 -186 74 -186 189c0 143 92 255 225 255c59 0 108 -24 142 -66l2 1c1 10 1 19 1 29c1 111 -25 215 -121 215c-39 0 -95 -15 -138 -40l-13 69c60 34 121 47 174 47zM240 74c85 0 138 86 161 194
c-20 52 -61 96 -123 96c-93 0 -147 -77 -147 -163c0 -75 37 -127 109 -127z" />
    <glyph glyph-name="percent" unicode="%" horiz-adv-x="978" 
d="M716 694l-367 -711l-64 30l366 711zM283 715c104 0 182 -72 182 -180c0 -125 -91 -212 -204 -212c-103 0 -180 75 -180 182c0 119 89 210 202 210zM281 651c-72 0 -131 -62 -131 -145c0 -71 48 -119 113 -119c73 0 133 58 133 146c0 71 -49 118 -115 118zM738 385
c104 0 183 -72 183 -179c0 -126 -92 -212 -205 -212c-103 0 -180 74 -180 181c0 119 89 210 202 210zM736 322c-71 0 -131 -63 -131 -146c0 -71 49 -119 114 -119c73 0 133 58 133 147c0 70 -49 118 -116 118z" />
    <glyph glyph-name="perthousand" unicode="&#x2030;" horiz-adv-x="1411" 
d="M716 694l-367 -711l-64 30l366 711zM283 715c104 0 182 -72 182 -180c0 -125 -91 -212 -204 -212c-103 0 -180 75 -180 182c0 119 89 210 202 210zM281 651c-72 0 -131 -62 -131 -145c0 -71 48 -119 113 -119c73 0 133 58 133 146c0 71 -49 118 -115 118zM738 385
c104 0 183 -72 183 -179c0 -126 -92 -212 -205 -212c-103 0 -180 74 -180 181c0 119 89 210 202 210zM1172 385c104 0 182 -72 182 -179c0 -126 -91 -212 -204 -212c-103 0 -180 74 -180 181c0 119 89 210 202 210zM736 322c-71 0 -131 -63 -131 -146
c0 -71 49 -119 114 -119c73 0 133 58 133 147c0 70 -49 118 -116 118zM1170 322c-72 0 -131 -63 -131 -146c0 -71 49 -119 113 -119c73 0 133 58 133 147c0 70 -49 118 -115 118z" />
    <glyph glyph-name="plus" unicode="+" horiz-adv-x="542" 
d="M482 240h-174l-24 -197h-74l24 197h-174l8 73h175l24 198h74l-24 -198h174z" />
    <glyph glyph-name="plusminus" unicode="&#xb1;" horiz-adv-x="547" 
d="M501 357h-174l-24 -197h-74l24 197h-174l8 73h175l24 198h74l-24 -198h174zM457 -2h-422l8 73h423z" />
    <glyph glyph-name="product" unicode="&#x220f;" horiz-adv-x="655" 
d="M148 710h474l-100 -812h-85l90 735h-303l-90 -735h-86z" />
    <glyph glyph-name="radical" unicode="&#x221a;" horiz-adv-x="632" 
d="M691 822h65l-442 -822h-58l-89 499h-101l9 71h168l75 -456h1z" />
    <glyph glyph-name="uni2236" unicode="&#x2236;" horiz-adv-x="243" 
d="M157 551c30 0 54 -23 54 -55s-25 -56 -57 -56c-31 0 -54 23 -54 54c0 33 24 57 57 57zM107 163c30 0 54 -23 54 -55s-25 -56 -57 -56c-31 0 -54 23 -54 54c0 33 24 57 57 57z" />
    <glyph glyph-name="summation" unicode="&#x2211;" horiz-adv-x="561" 
d="M572 710l-9 -77h-347l149 -320l-225 -320h344l-10 -78h-456l7 62l242 336l-159 333l7 64h457z" />
    <glyph glyph-name="plus.case" horiz-adv-x="542" 
d="M488 290h-174l-24 -197h-74l24 197h-174l8 73h175l24 198h74l-24 -198h174z" />
    <glyph glyph-name="uni2713" unicode="&#x2713;" horiz-adv-x="586" 
d="M597 740l-383 -625l-193 200l49 47l132 -138l338 551z" />
    <glyph glyph-name="uni2715" unicode="&#x2715;" horiz-adv-x="376" 
d="M310 110l-122 121l-121 -121l-46 46l122 121l-122 121l46 45l121 -120l122 121l45 -46l-121 -122l121 -121z" />
    <glyph glyph-name="bar" unicode="|" horiz-adv-x="303" 
d="M177 737h70l-104 -852h-70z" />
    <glyph glyph-name="brokenbar" unicode="&#xa6;" horiz-adv-x="303" 
d="M177 737h70l-43 -351h-70zM116 239h70l-43 -353h-70z" />
    <glyph glyph-name="at" unicode="@" horiz-adv-x="904" 
d="M660 465l-33 -271c-7 -53 -1 -87 44 -87c84 0 121 118 121 191c0 174 -117 299 -299 299c-268 0 -377 -212 -377 -368c0 -178 131 -308 296 -308c81 0 157 20 217 52l29 -46c-68 -43 -155 -67 -246 -67c-206 0 -359 152 -359 369c0 167 117 427 440 427
c221 0 363 -146 363 -357c0 -97 -43 -257 -209 -257c-54 0 -95 39 -103 96h-1c-40 -52 -97 -84 -163 -84c-81 0 -140 58 -140 163c0 140 87 253 214 253c55 0 95 -19 119 -45h2l5 40h80zM403 126c65 0 140 74 156 171l8 62c-29 26 -66 37 -104 37c-87 0 -141 -84 -141 -172
c0 -64 31 -98 81 -98z" />
    <glyph glyph-name="ampersand" unicode="&#x26;" horiz-adv-x="734" 
d="M727 433l-9 -73h-161c-20 -205 -124 -366 -329 -366c-107 0 -182 71 -182 181c0 96 54 185 144 225c-32 27 -54 65 -54 112c0 120 92 205 207 205s162 -70 175 -135l-72 -24c-7 46 -36 86 -98 86c-80 1 -130 -52 -130 -130c0 -41 27 -81 68 -81h441zM239 70
c142 0 226 135 241 290h-190c-87 0 -158 -91 -158 -178c0 -66 39 -112 107 -112z" />
    <glyph glyph-name="paragraph" unicode="&#xb6;" horiz-adv-x="461" 
d="M264 652h151l-99 -802h-53l92 746h-56l-73 -596h-54l44 353c-78 1 -137 44 -137 123c0 93 67 176 185 176z" />
    <glyph glyph-name="copyright" unicode="&#xa9;" horiz-adv-x="703" 
d="M352 623c169 0 301 -140 301 -305c0 -164 -132 -305 -302 -305s-303 139 -303 305c0 165 134 305 304 305zM596 318c0 136 -106 247 -244 247c-139 0 -246 -113 -246 -248s107 -247 245 -247s245 113 245 248zM360 204c37 0 68 18 88 43l39 -33c-29 -35 -70 -61 -127 -61
c-89 0 -163 56 -163 163c0 90 57 164 163 164c44 0 91 -18 127 -62l-39 -32c-22 27 -54 44 -88 44c-68 0 -109 -46 -109 -114c0 -69 45 -112 109 -112z" />
    <glyph glyph-name="registered" unicode="&#xae;" horiz-adv-x="706" 
d="M353 624c171 0 303 -140 303 -306c0 -165 -133 -306 -304 -306c-170 0 -304 139 -304 306c0 165 134 306 305 306zM352 69c139 0 246 114 246 249c0 136 -106 249 -244 249c-140 0 -248 -114 -248 -250s107 -248 246 -248zM472 379c0 -52 -27 -84 -71 -96l86 -125h-60
l-82 120h-47v-120h-51v324h117c75 0 108 -44 108 -103zM299 435v-110h54c48 0 66 25 66 55c0 33 -23 55 -62 55h-58z" />
    <glyph glyph-name="section" unicode="&#xa7;" horiz-adv-x="505" 
d="M300 423c83 -38 149 -63 149 -152c0 -68 -39 -116 -98 -143c33 -24 52 -53 52 -104c0 -104 -82 -176 -196 -176c-74 0 -140 29 -185 92l53 56c33 -52 88 -73 134 -73c62 0 106 38 106 94c0 52 -38 67 -110 102c-76 36 -139 67 -139 152c0 67 38 116 95 141
c-29 24 -48 55 -48 104c0 101 81 170 184 170c68 0 135 -30 171 -72l-51 -56c-34 36 -78 51 -116 51c-59 0 -101 -35 -101 -88c0 -49 37 -68 100 -98zM287 165c51 14 79 52 79 97s-29 62 -105 95c-12 6 -24 11 -36 17c-48 -11 -77 -52 -77 -94c0 -44 31 -63 102 -97
c13 -6 26 -13 37 -18z" />
    <glyph glyph-name="trademark" unicode="&#x2122;" horiz-adv-x="627" 
d="M75 662l7 48h216l-6 -48h-82l-34 -275h-53l34 275h-82zM579 710h56l-40 -323h-53l27 224l-95 -160h-36l-57 161l-27 -225h-53l39 323h56l67 -195z" />
    <glyph glyph-name="degree" unicode="&#xb0;" horiz-adv-x="380" 
d="M247 716c66 0 114 -46 114 -118c0 -80 -59 -152 -147 -152c-72 0 -113 45 -113 110c0 88 61 160 146 160zM242 661c-49 0 -85 -42 -85 -98c0 -38 22 -62 62 -62c50 0 86 41 86 93c0 39 -24 67 -63 67z" />
    <glyph glyph-name="estimated" unicode="&#x212e;" horiz-adv-x="796" 
d="M198 306v-195c53 -66 135 -88 201 -88c82 0 160 32 207 85h48c-58 -71 -158 -114 -256 -114c-195 0 -336 144 -336 320c0 187 150 322 336 322c196 0 337 -144 337 -322v-8h-537zM596 524c-50 56 -129 82 -197 82c-72 0 -152 -28 -201 -87l-1 -181h398z" />
    <glyph glyph-name="uni2113" unicode="&#x2113;" horiz-adv-x="456" 
d="M404 111l29 -21c-43 -64 -102 -96 -171 -96c-102 0 -154 61 -162 153c-17 -14 -36 -29 -55 -43l-19 26c25 19 51 38 73 58l2 268c1 167 73 223 159 223c75 0 110 -59 110 -146c0 -108 -75 -214 -190 -321v-24c0 -120 52 -152 101 -152c51 0 97 40 123 75zM267 634
c-44 0 -88 -38 -88 -171l1 -207c97 98 155 186 155 274c0 71 -21 104 -68 104z" />
    <glyph glyph-name="uni2116" unicode="&#x2116;" horiz-adv-x="991" 
d="M828 414c-71 0 -120 43 -120 123c0 90 56 176 156 176c67 0 119 -38 119 -121c0 -91 -54 -178 -155 -178zM521 144l68 566h86l-88 -710h-91l-276 559h-2l-68 -559h-86l87 710h90l277 -566h3zM860 658c-51 0 -91 -53 -91 -115c0 -44 24 -74 62 -74c49 0 90 52 90 119
c0 51 -30 70 -61 70zM692 302l4 59h244l-5 -59h-243z" />
    <glyph glyph-name="asciicircum" unicode="^" horiz-adv-x="443" 
d="M95 500l151 210h63l101 -210h-72l-65 154l-107 -154h-71z" />
    <glyph glyph-name="dagger" unicode="&#x2020;" horiz-adv-x="379" 
d="M355 537l-88 4h-17l-14 -111l-12 -134l-32 -47l-22 47l20 134l14 111h-18l-90 -4l7 52l88 -3h17l11 99h52l-15 -99h16l90 3z" />
    <glyph glyph-name="daggerdbl" unicode="&#x2021;" horiz-adv-x="380" 
d="M180 375l14 82l10 84h-18l-90 -4l7 52l88 -3h18l9 99h53l-16 -99h17l90 3l-7 -52l-88 4h-17l-11 -84l-6 -82l-14 -81l-11 -92h18l89 4l-6 -52l-89 2h-17l-8 -98h-53l14 98h-17l-90 -3l7 53l88 -4h18l11 92z" />
    <glyph glyph-name="at.case" horiz-adv-x="896" 
d="M660 534l-33 -271c-7 -53 -1 -87 44 -87c84 0 121 118 121 191c0 174 -117 299 -299 299c-268 0 -377 -212 -377 -368c0 -178 131 -308 296 -308c81 0 157 20 217 52l29 -46c-68 -43 -155 -67 -246 -67c-206 0 -359 152 -359 369c0 167 117 427 440 427
c221 0 363 -146 363 -357c0 -97 -43 -257 -209 -257c-54 0 -95 39 -103 96h-1c-40 -52 -97 -84 -163 -84c-81 0 -140 58 -140 163c0 140 87 253 214 253c55 0 95 -19 119 -45h2l5 40h80zM403 195c65 0 140 74 156 171l8 62c-29 26 -66 37 -104 37c-87 0 -141 -84 -141 -172
c0 -64 31 -98 81 -98z" />
    <glyph glyph-name="uni0374" unicode="&#x374;" horiz-adv-x="235" 
d="M134 726h87l-86 -245h-72z" />
    <glyph glyph-name="uni0375" unicode="&#x375;" horiz-adv-x="234" 
d="M96 100h87l-86 -245h-72z" />
    <glyph glyph-name="acute" unicode="&#xb4;" horiz-adv-x="460" 
d="M308 682l89 1l-129 -141h-82z" />
    <glyph glyph-name="breve" unicode="&#x2d8;" horiz-adv-x="425" 
d="M250 538c-73 0 -125 50 -119 140h63c-4 -48 13 -81 57 -81c45 0 78 34 85 81h64c-17 -87 -75 -140 -150 -140z" />
    <glyph glyph-name="caron" unicode="&#x2c7;" horiz-adv-x="448" 
d="M340 683h82l-124 -143h-76l-87 143h78l51 -94h1z" />
    <glyph glyph-name="cedilla" unicode="&#xb8;" horiz-adv-x="306" 
d="M113 -34c45 -2 73 -22 73 -63c0 -49 -45 -91 -108 -91c-18 0 -38 3 -51 7l3 42c11 -4 24 -6 41 -6c31 0 58 16 58 47c0 21 -22 31 -69 32l3 30l23 42h50l-25 -38z" />
    <glyph glyph-name="circumflex" unicode="&#x2c6;" horiz-adv-x="448" 
d="M324 540l-51 93h-1l-75 -93h-81l121 143h76l90 -143h-79z" />
    <glyph glyph-name="dieresis" unicode="&#xa8;" horiz-adv-x="471" 
d="M198 673c31 0 54 -23 54 -54c0 -33 -24 -56 -57 -56c-31 0 -54 23 -54 54c0 32 25 56 57 56zM368 673c30 0 54 -23 54 -54c0 -33 -25 -56 -57 -56c-31 0 -54 23 -54 54c0 32 24 56 57 56z" />
    <glyph glyph-name="dotaccent" unicode="&#x2d9;" horiz-adv-x="461" 
d="M278 673c31 0 55 -23 55 -54c0 -33 -25 -56 -57 -56c-31 0 -54 23 -54 54c0 32 24 56 56 56z" />
    <glyph glyph-name="grave" unicode="`" horiz-adv-x="463" 
d="M262 682l87 -140h-83l-95 141z" />
    <glyph glyph-name="hungarumlaut" unicode="&#x2dd;" horiz-adv-x="475" 
d="M223 682l86 1l-129 -141h-78zM382 682l86 1l-129 -141h-78z" />
    <glyph glyph-name="macron" unicode="&#xaf;" horiz-adv-x="417" 
d="M127 649h263l-9 -68h-262z" />
    <glyph glyph-name="ogonek" unicode="&#x2db;" horiz-adv-x="436" 
d="M264 -174c-17 -8 -42 -12 -65 -12c-55 0 -84 26 -83 74c1 49 42 97 90 126l66 -14c-53 -21 -88 -60 -89 -96c-1 -21 11 -35 34 -35c21 0 33 3 45 10z" />
    <glyph glyph-name="ring" unicode="&#x2da;" horiz-adv-x="432" 
d="M263 709c53 0 93 -38 93 -90c0 -55 -41 -96 -96 -96c-52 0 -92 40 -92 93s40 93 95 93zM263 659c-25 0 -44 -19 -44 -43s18 -42 42 -42c25 0 44 19 44 44c0 23 -18 41 -42 41z" />
    <glyph glyph-name="tilde" unicode="&#x2dc;" horiz-adv-x="461" 
d="M106 575c24 59 61 96 106 96c35 0 52 -17 70 -30c18 -14 34 -28 52 -28c23 0 46 20 62 56l50 -20c-25 -66 -63 -102 -104 -102c-33 0 -57 21 -75 36c-17 13 -32 23 -48 23c-26 0 -47 -22 -62 -56z" />
    <glyph glyph-name="breve.short" horiz-adv-x="398" 
d="M239 538c-67 0 -114 50 -107 140h60c-4 -48 10 -81 49 -81c40 0 65 34 68 81h64c-15 -87 -66 -140 -134 -140z" />
    <glyph glyph-name="dieresis.short" horiz-adv-x="467" 
d="M198 673c31 0 54 -23 54 -54c0 -33 -24 -56 -57 -56c-31 0 -54 23 -54 54c0 32 25 56 57 56zM364 673c31 0 54 -23 54 -54c0 -33 -24 -56 -57 -56c-31 0 -54 23 -54 54c0 32 25 56 57 56z" />
    <glyph glyph-name="grave.short" horiz-adv-x="430" 
d="M261 682l55 -140h-83l-62 141z" />
    <glyph glyph-name="tilde.short" horiz-adv-x="445" 
d="M106 575c23 59 58 96 101 96c33 0 50 -17 67 -30s33 -28 50 -28c22 0 44 20 59 56l47 -20c-24 -66 -60 -102 -98 -102c-32 0 -55 21 -72 36c-16 12 -31 23 -47 23c-24 0 -44 -22 -59 -56z" />
    <glyph glyph-name="tonos" unicode="&#x384;" horiz-adv-x="428" 
d="M265 705h96l-95 -163h-80z" />
    <glyph glyph-name="dieresistonos" unicode="&#x385;" horiz-adv-x="521" 
d="M308 705h77l-78 -163h-63zM157 673c31 0 54 -23 54 -54c0 -33 -24 -56 -57 -56c-31 0 -54 23 -54 54c0 32 25 56 57 56zM443 673c31 0 54 -23 54 -54c0 -33 -24 -56 -57 -56c-31 0 -54 23 -54 54c0 32 25 56 57 56z" />
    <glyph glyph-name="NULL" horiz-adv-x="0" 
 />
    <glyph glyph-name="KB" horiz-adv-x="928" 
d="M450 305c105 -13 257 -38 257 -152c0 -85 -82 -154 -234 -154c-130 0 -219 57 -254 131l21 9c52 -69 116 -94 200 -94c64 0 122 28 122 101c0 57 -61 119 -161 157c-6 -22 -13 -47 -19 -74c23 -4 47 -9 71 -17l-5 -36h-248l-1 34c29 20 62 38 98 50l73 382l-65 19l-2 30
c26 16 68 29 117 29l70 -35l-63 -194l-66 -189l10 -2c49 184 127 244 221 244c70 0 122 -29 122 -98c0 -74 -59 -136 -195 -136c-22 0 -45 1 -69 4v-9zM542 504c-28 0 -86 -42 -132 -174c133 5 173 74 173 124c0 27 -15 50 -41 50zM89 -107l-12 -39h-6l-8 29l-8 -29h-6
l-12 39h6l9 -28l8 28h6l8 -28l9 28h6zM146 -107l-12 -39h-7l-7 29l-9 -29h-6l-12 39h7l8 -28l8 28h7l7 -28l9 28h7zM202 -107l-12 -39h-6l-8 29l-9 -29h-5l-13 39h7l9 -28l7 28h7l8 -28l8 28h7zM229 -130l-4 -5v-11h-7v39h7v-19l15 19h8l-15 -18l16 -21h-9zM270 -107
c11 0 19 -8 19 -19c0 -13 -8 -20 -19 -20c-12 0 -20 8 -20 20c0 11 8 19 20 19zM310 -123c6 -2 12 -4 12 -12s-8 -11 -13 -11s-11 1 -15 6l4 5c3 -4 7 -5 11 -5s6 1 6 4c0 4 -2 5 -7 7c-6 2 -12 4 -12 11c0 6 5 11 12 11c5 0 9 -1 13 -5l-4 -5c-3 3 -6 4 -9 4s-5 -1 -5 -4
s2 -4 7 -6zM343 -113v-33h-7v33h-11v6h29v-6h-11zM379 -138h-16l-3 -8h-7l15 39h6l15 -39h-7zM407 -123c7 -2 12 -4 12 -12s-7 -11 -13 -11c-5 0 -10 1 -14 6l4 5c3 -4 6 -5 10 -5s6 1 6 4c0 4 -2 5 -7 7c-6 2 -12 4 -12 11c0 6 5 11 12 11c5 0 9 -1 13 -5l-4 -5
c-3 3 -6 4 -9 4s-5 -1 -5 -4s2 -4 7 -6zM447 -125c4 -1 8 -5 8 -10c0 -7 -5 -11 -13 -11h-16v39h14c8 0 13 -3 13 -10c0 -4 -2 -7 -6 -8zM483 -138h-15l-3 -8h-7l14 39h7l14 -39h-7zM520 -146l-9 14h-5v-14h-7v39h15c8 0 13 -6 13 -13c0 -6 -4 -10 -9 -11l10 -15h-8z
M548 -113v-33h-6v33h-11v6h29v-6h-12zM579 -123c6 -2 12 -4 12 -12s-8 -11 -13 -11s-11 1 -15 6l5 5c2 -4 6 -5 10 -5s6 1 6 4c0 4 -2 5 -7 7c-6 2 -12 4 -12 11c0 6 5 11 12 11c5 0 9 -1 13 -5l-4 -5c-3 3 -6 4 -9 4s-5 -1 -5 -4s2 -4 7 -6zM616 -107c11 0 20 -8 20 -19
c0 -13 -9 -20 -20 -20c-12 0 -19 8 -19 20c0 11 7 19 19 19zM654 -130l-4 -5v-11h-7v39h7v-19l15 19h8l-14 -18l15 -21h-8zM702 -138h-16l-3 -8h-7l14 39h7l14 -39h-6zM730 -123c7 -2 12 -4 12 -12s-7 -11 -13 -11c-5 0 -10 1 -14 6l4 5c3 -4 7 -5 10 -5c4 0 6 1 6 4
c0 4 -3 5 -7 7c-6 2 -12 4 -12 11c0 6 6 11 12 11c5 0 9 -1 13 -5l-4 -5c-3 3 -6 4 -9 4s-5 -1 -5 -4s3 -4 7 -6zM779 -140c4 0 8 2 10 5l5 -4c-3 -4 -8 -7 -15 -7c-11 0 -20 6 -20 19c0 11 7 20 20 20c5 0 11 -2 15 -7l-5 -4c-2 3 -6 5 -10 5c-8 0 -13 -6 -13 -14
s5 -13 13 -13zM818 -107c12 0 20 -8 20 -19c0 -13 -8 -20 -20 -20c-11 0 -19 8 -19 20c0 11 8 19 19 19zM884 -107v-39h-6v26l-11 -19h-4l-11 19v-26h-6v39h6l13 -23l13 23h6zM270 -140c7 0 12 5 12 14c0 7 -5 13 -12 13c-8 0 -13 -6 -13 -13c0 -8 5 -14 13 -14zM433 -124h6
c3 0 7 2 7 6c0 3 -2 5 -8 5h-5v-11zM506 -126h6c6 0 8 2 8 6s-3 7 -7 7h-7v-13zM616 -140c7 0 13 5 13 14c0 7 -6 13 -13 13c-8 0 -12 -6 -12 -13c0 -8 4 -14 12 -14zM818 -140c8 0 13 5 13 14c0 7 -5 13 -13 13c-7 0 -12 -6 -12 -13c0 -8 5 -14 12 -14zM376 -132l-5 17
l-6 -17h11zM481 -132l-5 17l-6 -17h11zM700 -132l-6 17l-6 -17h12zM440 -140c4 0 8 2 8 5c0 4 -3 6 -8 6h-7v-11h7zM210 -143c0 -2 -1 -3 -3 -3c-3 0 -4 1 -4 3c0 3 1 5 4 5c2 0 3 -2 3 -5zM755 -143c0 -2 -2 -3 -4 -3s-4 1 -4 3c0 3 2 5 4 5s4 -2 4 -5z" />
    <glyph glyph-name="jacute" horiz-adv-x="216" 
d="M227 698l89 1l-129 -141h-82zM-84 -119c16 -12 30 -16 46 -16c35 0 58 22 67 99l64 523h79l-65 -533c-13 -107 -58 -158 -134 -158c-35 0 -56 7 -77 20z" />
    <glyph glyph-name="Jacute" horiz-adv-x="471" 
d="M494 932l89 1l-129 -141h-82zM72 146c28 -43 59 -71 105 -71c60 0 111 46 126 169l57 466h87l-58 -470c-20 -164 -91 -246 -208 -246c-74 0 -129 32 -167 93z" />
    </font>
</defs>
</svg>
