<?xml version="1.0" standalone="no"?>
<!DOCTYPE svg PUBLIC "-//W3C//DTD SVG 1.1//EN" "http://www.w3.org/Graphics/SVG/1.1/DTD/svg11.dtd" >
<svg xmlns="http://www.w3.org/2000/svg" xmlns:xlink="http://www.w3.org/1999/xlink" version="1.1">
<metadata>
Created by FontForge 20170910 at Sat Jan  2 14:52:07 2016
 By Jimmy Wärting
Copyright (c) 2015 by Kostas Bartsokas. All rights reserved.
</metadata>
<defs>
<font id="AvertaStd-Black" horiz-adv-x="588" >
  <font-face 
    font-family="Averta Std Black"
    font-weight="900"
    font-stretch="normal"
    units-per-em="1000"
    panose-1="0 0 10 0 0 0 0 0 0 0"
    ascent="772"
    descent="-228"
    x-height="490"
    cap-height="710"
    bbox="-286 -260 1436 1001"
    underline-thickness="63"
    underline-position="-103"
    stemh="115"
    stemv="126"
    unicode-range="U+0020-2715"
  />
<missing-glyph horiz-adv-x="437" 
 />
    <glyph glyph-name=".notdef" horiz-adv-x="437" 
 />
    <glyph glyph-name="A" unicode="A" horiz-adv-x="693" 
d="M497 0l-36 115h-228l-36 -115h-199l258 710h182l257 -710h-198zM282 274h130l-64 205h-2z" />
    <glyph glyph-name="Aacute" unicode="&#xc1;" horiz-adv-x="693" 
d="M555 931l-124 -153h-160l109 152zM497 0l-36 115h-228l-36 -115h-199l258 710h182l257 -710h-198zM282 274h130l-64 205h-2z" />
    <glyph glyph-name="Abreve" unicode="&#x102;" horiz-adv-x="693" 
d="M347 769c-92 0 -172 57 -180 161h127c2 -28 21 -51 53 -51c28 0 52 17 54 51h127c-7 -88 -72 -161 -181 -161zM497 0l-36 115h-228l-36 -115h-199l258 710h182l257 -710h-198zM282 274h130l-64 205h-2z" />
    <glyph glyph-name="uni1EAE" unicode="&#x1eae;" horiz-adv-x="693" 
d="M570 947l-176 -110h-106l93 109zM347 726c-102 0 -167 38 -195 121h103c16 -30 49 -48 92 -48c44 0 77 18 93 48h103c-28 -83 -93 -121 -196 -121zM497 0l-36 115h-228l-36 -115h-199l258 710h182l257 -710h-198zM282 274h130l-64 205h-2z" />
    <glyph glyph-name="uni1EB6" unicode="&#x1eb6;" horiz-adv-x="693" 
d="M346 769c-92 0 -172 57 -180 161h127c2 -28 21 -51 53 -51c28 0 52 17 54 51h127c-7 -88 -72 -161 -181 -161zM695 0h-198l-36 115h-228l-36 -115h-199l258 710h182zM282 274h130l-64 205h-2zM347 -68c60 0 103 -42 103 -97c0 -53 -43 -95 -103 -95s-102 41 -102 95
c0 56 42 97 102 97z" />
    <glyph glyph-name="uni1EB0" unicode="&#x1eb0;" horiz-adv-x="693" 
d="M406 837h-106l-175 110l189 -1zM255 847c16 -30 48 -48 92 -48s76 18 92 48h103c-28 -83 -92 -121 -195 -121s-167 38 -195 121h103zM497 0l-36 115h-228l-36 -115h-199l258 710h182l257 -710h-198zM282 274h130l-64 205h-2z" />
    <glyph glyph-name="uni1EB2" unicode="&#x1eb2;" horiz-adv-x="693" 
d="M339 901c-16 0 -41 -15 -53 -23l-42 41c22 20 61 42 110 42c56 0 91 -25 91 -65c0 -38 -34 -63 -75 -73l-4 -10l-35 -1c-18 0 -29 6 -29 20c0 21 59 35 59 57c0 8 -7 12 -22 12zM347 726c-102 0 -167 38 -195 121h103c16 -30 49 -48 92 -48c40 0 76 15 93 48h103
c-28 -83 -93 -121 -196 -121zM497 0l-36 115h-228l-36 -115h-199l258 710h182l257 -710h-198zM282 274h130l-64 205h-2z" />
    <glyph glyph-name="uni1EB4" unicode="&#x1eb4;" horiz-adv-x="693" 
d="M278 898c-17 0 -36 -16 -50 -40l-72 24c21 50 62 85 119 85c35 0 63 -14 87 -26c18 -8 33 -15 52 -15c21 0 42 15 56 40l70 -17c-20 -57 -63 -93 -121 -93c-33 0 -60 12 -85 23c-21 10 -41 19 -56 19zM347 726c-103 0 -167 38 -195 121h103c16 -30 48 -48 92 -48
s76 18 92 48h103c-28 -83 -92 -121 -195 -121zM497 0l-36 115h-228l-36 -115h-199l258 710h182l257 -710h-198zM282 274h130l-64 205h-2z" />
    <glyph glyph-name="Acircumflex" unicode="&#xc2;" horiz-adv-x="693" 
d="M345 845l-37 -71h-148l106 156h154l114 -156h-150l-37 71h-2zM497 0l-36 115h-228l-36 -115h-199l258 710h182l257 -710h-198zM282 274h130l-64 205h-2z" />
    <glyph glyph-name="uni1EA4" unicode="&#x1ea4;" horiz-adv-x="693" 
d="M773 971l-138 -153h-131l110 152zM345 825l-37 -71h-148l106 156h154l114 -156h-150l-37 71h-2zM256 710h182l257 -710h-198l-36 115h-228l-36 -115h-199zM282 274h130l-64 205h-2z" />
    <glyph glyph-name="uni1EAC" unicode="&#x1eac;" horiz-adv-x="693" 
d="M346 845l-37 -71h-148l106 156h154l114 -156h-150l-37 71h-2zM695 0h-198l-36 115h-228l-36 -115h-199l258 710h182zM282 274h130l-64 205h-2zM347 -68c60 0 103 -42 103 -97c0 -53 -43 -95 -103 -95s-102 41 -102 95c0 56 42 97 102 97z" />
    <glyph glyph-name="uni1EA6" unicode="&#x1ea6;" horiz-adv-x="693" 
d="M675 818h-124l-114 153l153 -1zM346 825l-37 -71h-148l106 156h154l114 -156h-150l-37 71h-2zM497 0l-36 115h-228l-36 -115h-199l258 710h182l257 -710h-198zM282 274h130l-64 205h-2z" />
    <glyph glyph-name="uni1EA8" unicode="&#x1ea8;" horiz-adv-x="693" 
d="M568 911c-16 0 -45 -17 -58 -25l-46 46c24 22 68 46 121 46c67 0 106 -34 106 -83c0 -42 -37 -70 -88 -81l-5 -21l-65 -5c-9 10 -17 21 -17 31c0 29 77 44 77 77c0 11 -8 15 -25 15zM345 825l-37 -71h-148l106 156h154l114 -156h-150l-37 71h-2zM497 0l-36 115h-228
l-36 -115h-199l258 710h182l257 -710h-198zM282 274h130l-64 205h-2z" />
    <glyph glyph-name="uni1EAA" unicode="&#x1eaa;" horiz-adv-x="693" 
d="M278 898c-17 0 -36 -16 -50 -40l-72 24c21 50 62 85 119 85c35 0 63 -14 87 -26c18 -8 33 -15 52 -15c21 0 42 15 56 40l70 -17c-20 -57 -63 -93 -121 -93c-33 0 -60 12 -85 23c-21 10 -41 19 -56 19zM347 781l-59 -45h-146l140 102h125l148 -102h-148zM497 0l-36 115
h-228l-36 -115h-199l258 710h182l257 -710h-198zM282 274h130l-64 205h-2z" />
    <glyph glyph-name="Adieresis" unicode="&#xc4;" horiz-adv-x="693" 
d="M227 765c-60 0 -102 42 -102 97c0 53 42 95 102 95s103 -41 103 -95c0 -56 -43 -97 -103 -97zM463 765c-60 0 -102 42 -102 97c0 53 42 95 102 95s103 -41 103 -95c0 -56 -43 -97 -103 -97zM497 0l-36 115h-228l-36 -115h-199l258 710h182l257 -710h-198zM282 274h130
l-64 205h-2z" />
    <glyph glyph-name="uni1EA0" unicode="&#x1ea0;" horiz-adv-x="693" 
d="M695 0h-198l-36 115h-228l-36 -115h-199l258 710h182zM282 274h130l-64 205h-2zM347 -68c60 0 103 -42 103 -97c0 -53 -43 -95 -103 -95s-102 41 -102 95c0 56 42 97 102 97z" />
    <glyph glyph-name="Agrave" unicode="&#xc0;" horiz-adv-x="693" 
d="M430 778h-160l-123 153l174 -1zM497 0l-36 115h-228l-36 -115h-199l258 710h182l257 -710h-198zM282 274h130l-64 205h-2z" />
    <glyph glyph-name="uni1EA2" unicode="&#x1ea2;" horiz-adv-x="693" 
d="M337 881c-16 0 -45 -16 -58 -25l-46 46c24 22 68 46 121 46c73 0 111 -34 111 -82c0 -43 -37 -71 -93 -82l-4 -21l-66 -5c-9 10 -17 21 -17 31c0 29 77 44 77 77c0 11 -8 15 -25 15zM497 0l-36 115h-228l-36 -115h-199l258 710h182l257 -710h-198zM282 274h130l-64 205
h-2z" />
    <glyph glyph-name="Amacron" unicode="&#x100;" horiz-adv-x="693" 
d="M507 930v-132h-320v132h320zM497 0l-36 115h-228l-36 -115h-199l258 710h182l257 -710h-198zM282 274h130l-64 205h-2z" />
    <glyph glyph-name="Aogonek" unicode="&#x104;" horiz-adv-x="693" 
d="M663 0c-62 0 -99 -34 -99 -66c0 -25 15 -38 36 -38c20 0 26 3 35 4l7 -82c-21 -8 -53 -11 -77 -11c-79 0 -126 42 -126 98c0 31 15 71 57 98l-35 112h-228l-36 -115h-199l258 710h182l257 -710h-32zM282 274h130l-64 205h-2z" />
    <glyph glyph-name="Aring" unicode="&#xc5;" horiz-adv-x="693" 
d="M347 758c-61 0 -111 43 -111 106c0 59 44 106 111 106c61 0 111 -43 111 -106c0 -58 -44 -106 -111 -106zM347 900c-19 0 -34 -16 -34 -35s15 -34 34 -34s34 16 34 35s-15 34 -34 34zM497 0l-36 115h-228l-36 -115h-199l258 710h182l257 -710h-198zM282 274h130l-64 205
h-2z" />
    <glyph glyph-name="Aringacute" unicode="&#x1fa;" horiz-adv-x="693" 
d="M347 758c-61 0 -111 43 -111 106c0 59 44 106 111 106c26 0 49 -8 68 -21l63 51l175 1l-199 -165c-11 -45 -51 -78 -107 -78zM347 900c-19 0 -34 -16 -34 -35s15 -34 34 -34s34 16 34 35s-15 34 -34 34zM497 0l-36 115h-228l-36 -115h-199l258 710h182l257 -710h-198z
M282 274h130l-64 205h-2z" />
    <glyph glyph-name="Atilde" unicode="&#xc3;" horiz-adv-x="693" 
d="M297 810c-23 0 -41 -19 -53 -45l-102 41c22 74 69 133 135 133c46 0 70 -14 90 -25c15 -10 29 -17 46 -17c25 0 43 20 55 44l100 -33c-21 -78 -67 -141 -132 -141c-39 0 -65 12 -88 25c-17 9 -33 18 -51 18zM497 0l-36 115h-228l-36 -115h-199l258 710h182l257 -710h-198
zM282 274h130l-64 205h-2z" />
    <glyph glyph-name="AE" unicode="&#xc6;" horiz-adv-x="948" 
d="M609 169h310v-169h-494v115h-177l-51 -115h-199l331 710h569v-169h-289v-107h231v-163h-231v-102zM319 274h106v234h-2z" />
    <glyph glyph-name="AEacute" unicode="&#x1fc;" horiz-adv-x="948" 
d="M649 930l-124 -153h-160l109 152zM609 169h310v-169h-494v115h-177l-51 -115h-199l331 710h569v-169h-289v-107h231v-163h-231v-102zM319 274h106v234h-2z" />
    <glyph glyph-name="B" unicode="B" horiz-adv-x="626" 
d="M458 380c111 -29 146 -97 146 -180c0 -115 -74 -200 -225 -200h-326v710h279c163 0 235 -67 235 -173c0 -58 -22 -122 -109 -155v-2zM237 545v-115h62c46 0 77 21 77 57c0 33 -25 58 -79 58h-60zM321 163c51 0 86 22 86 65c0 36 -26 63 -87 63h-83v-128h84z" />
    <glyph glyph-name="C" unicode="C" horiz-adv-x="706" 
d="M401 -10c-198 0 -371 127 -371 364c0 202 134 367 371 367c97 0 209 -41 289 -138l-139 -119c-30 34 -84 74 -150 74c-88 0 -171 -64 -171 -184c0 -97 64 -181 171 -181c56 0 116 30 150 72l139 -120c-61 -75 -163 -135 -289 -135z" />
    <glyph glyph-name="Cacute" unicode="&#x106;" horiz-adv-x="706" 
d="M310 777l109 152l175 1l-124 -153h-160zM401 -10c-198 0 -371 127 -371 364c0 202 134 367 371 367c97 0 209 -41 289 -138l-139 -119c-30 34 -84 74 -150 74c-88 0 -171 -64 -171 -184c0 -97 64 -181 171 -181c56 0 116 30 150 72l139 -120c-61 -75 -163 -135 -289 -135
z" />
    <glyph glyph-name="Ccaron" unicode="&#x10c;" horiz-adv-x="706" 
d="M481 774h-154l-113 156h150l36 -72h2l38 72h148zM401 173c56 0 116 30 150 72l139 -120c-61 -75 -163 -135 -289 -135c-198 0 -371 127 -371 364c0 202 134 367 371 367c97 0 209 -41 289 -138l-139 -119c-30 34 -84 74 -150 74c-88 0 -171 -64 -171 -184
c0 -97 64 -181 171 -181z" />
    <glyph glyph-name="Ccedilla" unicode="&#xc7;" horiz-adv-x="706" 
d="M401 173c56 0 116 30 150 72l139 -120c-58 -72 -155 -130 -274 -135l-11 -19v-1c55 -1 92 -29 92 -81c0 -49 -39 -83 -130 -83c-35 0 -52 3 -67 6v68c13 -4 27 -7 54 -7c17 0 40 4 40 25c0 19 -29 28 -77 28v39l15 27v3c-168 27 -302 150 -302 359c0 202 134 367 371 367
c97 0 209 -41 289 -138l-139 -119c-30 34 -84 74 -150 74c-88 0 -171 -64 -171 -184c0 -97 64 -181 171 -181z" />
    <glyph glyph-name="Ccircumflex" unicode="&#x108;" horiz-adv-x="706" 
d="M399 845l-37 -71h-148l106 156h154l114 -156h-150l-37 71h-2zM401 173c56 0 116 30 150 72l139 -120c-61 -75 -163 -135 -289 -135c-198 0 -371 127 -371 364c0 202 134 367 371 367c97 0 209 -41 289 -138l-139 -119c-30 34 -84 74 -150 74c-88 0 -171 -64 -171 -184
c0 -97 64 -181 171 -181z" />
    <glyph glyph-name="Cdotaccent" unicode="&#x10a;" horiz-adv-x="706" 
d="M401 765c-60 0 -103 42 -103 97c0 53 43 95 103 95s102 -41 102 -95c0 -56 -42 -97 -102 -97zM401 -10c-198 0 -371 127 -371 364c0 202 134 367 371 367c97 0 209 -41 289 -138l-139 -119c-30 34 -84 74 -150 74c-88 0 -171 -64 -171 -184c0 -97 64 -181 171 -181
c56 0 116 30 150 72l139 -120c-61 -75 -163 -135 -289 -135z" />
    <glyph glyph-name="D" unicode="D" horiz-adv-x="707" 
d="M53 0v710h256c224 0 368 -146 368 -356c0 -209 -135 -354 -365 -354h-259zM237 169h62c108 0 179 83 179 185c0 106 -72 187 -165 187h-76v-372z" />
    <glyph glyph-name="Eth" unicode="&#xd0;" horiz-adv-x="707" 
d="M309 710c224 0 368 -146 368 -356c0 -209 -135 -354 -365 -354h-259v267h-43v159h43v284h256zM299 169c108 0 179 83 179 185c0 106 -72 187 -165 187h-76v-115h82v-159h-82v-98h62z" />
    <glyph glyph-name="Dcaron" unicode="&#x10e;" horiz-adv-x="707" 
d="M409 772h-154l-113 156h150l36 -72h2l38 72h148zM309 710c224 0 368 -146 368 -356c0 -209 -135 -354 -365 -354h-259v710h256zM299 169c108 0 179 83 179 185c0 106 -72 187 -165 187h-76v-372h62z" />
    <glyph glyph-name="Dcroat" unicode="&#x110;" horiz-adv-x="707" 
d="M309 710c224 0 368 -146 368 -356c0 -209 -135 -354 -365 -354h-259v267h-43v159h43v284h256zM299 169c108 0 179 83 179 185c0 106 -72 187 -165 187h-76v-115h82v-159h-82v-98h62z" />
    <glyph glyph-name="E" unicode="E" horiz-adv-x="574" 
d="M52 0v710h472v-169h-288v-107h225v-165h-225v-100h309v-169h-493z" />
    <glyph glyph-name="Eacute" unicode="&#xc9;" horiz-adv-x="574" 
d="M167 775l109 152l175 1l-124 -153h-160zM52 0v710h472v-169h-288v-107h225v-165h-225v-100h309v-169h-493z" />
    <glyph glyph-name="Ebreve" unicode="&#x114;" horiz-adv-x="574" 
d="M289 767c-92 0 -172 57 -180 161h127c2 -28 21 -51 53 -51c28 0 52 17 54 51h127c-7 -88 -72 -161 -181 -161zM52 0v710h472v-169h-288v-107h225v-165h-225v-100h309v-169h-493z" />
    <glyph glyph-name="Ecaron" unicode="&#x11a;" horiz-adv-x="574" 
d="M369 772h-154l-113 156h150l36 -72h2l38 72h148zM236 169h309v-169h-493v710h472v-169h-288v-107h225v-165h-225v-100z" />
    <glyph glyph-name="Ecircumflex" unicode="&#xca;" horiz-adv-x="574" 
d="M287 843l-37 -71h-148l106 156h154l114 -156h-150l-37 71h-2zM236 169h309v-169h-493v710h472v-169h-288v-107h225v-165h-225v-100z" />
    <glyph glyph-name="uni1EBE" unicode="&#x1ebe;" horiz-adv-x="574" 
d="M556 968l159 1l-138 -153h-131zM287 823l-37 -71h-148l106 156h154l114 -156h-150l-37 71h-2zM236 269v-100h309v-169h-493v710h472v-169h-288v-107h225v-165h-225z" />
    <glyph glyph-name="uni1EC6" unicode="&#x1ec6;" horiz-adv-x="574" 
d="M288 843l-37 -71h-148l106 156h154l114 -156h-150l-37 71h-2zM236 169h309v-169h-493v710h472v-169h-288v-107h225v-165h-225v-100zM296 -68c60 0 103 -42 103 -97c0 -53 -43 -95 -103 -95s-102 41 -102 95c0 56 42 97 102 97z" />
    <glyph glyph-name="uni1EC0" unicode="&#x1ec0;" horiz-adv-x="574" 
d="M617 816h-124l-114 153l153 -1zM288 823l-37 -71h-148l106 156h154l114 -156h-150l-37 71h-2zM236 269v-100h309v-169h-493v710h472v-169h-288v-107h225v-165h-225z" />
    <glyph glyph-name="uni1EC2" unicode="&#x1ec2;" horiz-adv-x="574" 
d="M527 976c67 0 106 -34 106 -83c0 -42 -37 -70 -88 -81l-5 -21l-65 -5c-9 10 -17 21 -17 31c0 29 77 44 77 77c0 11 -8 15 -25 15c-16 0 -45 -17 -58 -25l-46 46c24 22 68 46 121 46zM287 823l-37 -71h-148l106 156h154l114 -156h-150l-37 71h-2zM236 269v-100h309v-169
h-493v710h472v-169h-288v-107h225v-165h-225z" />
    <glyph glyph-name="uni1EC4" unicode="&#x1ec4;" horiz-adv-x="574" 
d="M361 854c-33 0 -60 12 -85 23c-21 10 -41 19 -56 19c-17 0 -36 -16 -50 -40l-72 24c21 50 62 85 119 85c35 0 63 -14 87 -26c18 -8 33 -15 52 -15c21 0 42 15 56 40l70 -17c-20 -57 -63 -93 -121 -93zM84 734l140 102h125l148 -102h-148l-60 45l-59 -45h-146zM52 0v710
h472v-169h-288v-107h225v-165h-225v-100h309v-169h-493z" />
    <glyph glyph-name="Edieresis" unicode="&#xcb;" horiz-adv-x="574" 
d="M169 763c-60 0 -102 42 -102 97c0 53 42 95 102 95s103 -41 103 -95c0 -56 -43 -97 -103 -97zM405 763c-60 0 -102 42 -102 97c0 53 42 95 102 95s103 -41 103 -95c0 -56 -43 -97 -103 -97zM52 0v710h472v-169h-288v-107h225v-165h-225v-100h309v-169h-493z" />
    <glyph glyph-name="Edotaccent" unicode="&#x116;" horiz-adv-x="574" 
d="M289 763c-60 0 -103 42 -103 97c0 53 43 95 103 95s102 -41 102 -95c0 -56 -42 -97 -102 -97zM52 0v710h472v-169h-288v-107h225v-165h-225v-100h309v-169h-493z" />
    <glyph glyph-name="uni1EB8" unicode="&#x1eb8;" horiz-adv-x="574" 
d="M52 0v710h472v-169h-288v-107h225v-165h-225v-100h309v-169h-493zM296 -68c60 0 103 -42 103 -97c0 -53 -43 -95 -103 -95s-102 41 -102 95c0 56 42 97 102 97z" />
    <glyph glyph-name="Egrave" unicode="&#xc8;" horiz-adv-x="574" 
d="M240 775l-123 153l174 -1l109 -152h-160zM52 0v710h472v-169h-288v-107h225v-165h-225v-100h309v-169h-493z" />
    <glyph glyph-name="uni1EBA" unicode="&#x1eba;" horiz-adv-x="574" 
d="M244 756c-9 10 -17 21 -17 31c0 29 77 44 77 77c0 11 -8 15 -25 15c-16 0 -45 -16 -58 -25l-46 46c24 22 68 46 121 46c73 0 111 -34 111 -82c0 -43 -37 -71 -93 -82l-4 -21zM52 0v710h472v-169h-288v-107h225v-165h-225v-100h309v-169h-493z" />
    <glyph glyph-name="Emacron" unicode="&#x112;" horiz-adv-x="574" 
d="M129 796v132h320v-132h-320zM52 0v710h472v-169h-288v-107h225v-165h-225v-100h309v-169h-493z" />
    <glyph glyph-name="Eogonek" unicode="&#x118;" horiz-adv-x="574" 
d="M545 0c-62 0 -99 -34 -99 -66c0 -25 15 -38 36 -38c20 0 26 3 35 4l7 -82c-21 -8 -53 -11 -77 -11c-79 0 -126 42 -126 98c0 30 14 67 51 94v1h-320v710h472v-169h-288v-107h225v-165h-225v-100h309v-169z" />
    <glyph glyph-name="uni1EBC" unicode="&#x1ebc;" horiz-adv-x="574" 
d="M186 763l-102 41c22 74 69 133 135 133c46 0 70 -14 90 -25c15 -10 29 -17 46 -17c25 0 43 20 55 44l100 -33c-21 -78 -67 -141 -132 -141c-39 0 -65 12 -88 25c-17 9 -33 18 -51 18c-23 0 -41 -19 -53 -45zM52 0v710h472v-169h-288v-107h225v-165h-225v-100h309v-169
h-493z" />
    <glyph glyph-name="F" unicode="F" horiz-adv-x="564" 
d="M53 0v710h488v-169h-304v-134h249v-168h-249v-239h-184z" />
    <glyph glyph-name="G" unicode="G" horiz-adv-x="726" 
d="M401 -9c-206 0 -371 129 -371 363c0 205 132 367 363 367c104 0 221 -46 293 -132l-135 -113c-32 31 -84 66 -158 66c-87 0 -164 -67 -164 -188c0 -102 62 -189 172 -189c37 0 68 6 106 23v66h-121v153h300v-330c-64 -48 -175 -86 -285 -86z" />
    <glyph glyph-name="Gbreve" unicode="&#x11e;" horiz-adv-x="726" 
d="M379 767c-92 0 -172 57 -180 161h127c2 -28 21 -51 53 -51c28 0 52 17 54 51h127c-7 -88 -72 -161 -181 -161zM401 -9c-206 0 -371 129 -371 363c0 205 132 367 363 367c104 0 221 -46 293 -132l-135 -113c-32 31 -84 66 -158 66c-87 0 -164 -67 -164 -188
c0 -102 62 -189 172 -189c37 0 68 6 106 23v66h-121v153h300v-330c-64 -48 -175 -86 -285 -86z" />
    <glyph glyph-name="Gcaron" unicode="&#x1e6;" horiz-adv-x="726" 
d="M459 772h-154l-113 156h150l36 -72h2l38 72h148zM386 254v153h300v-330c-64 -48 -175 -86 -285 -86c-206 0 -371 129 -371 363c0 205 132 367 363 367c104 0 221 -46 293 -132l-135 -113c-32 31 -84 66 -158 66c-87 0 -164 -67 -164 -188c0 -102 62 -189 172 -189
c37 0 68 6 106 23v66h-121z" />
    <glyph glyph-name="Gcircumflex" unicode="&#x11c;" horiz-adv-x="726" 
d="M377 843l-37 -71h-148l106 156h154l114 -156h-150l-37 71h-2zM386 254v153h300v-330c-64 -48 -175 -86 -285 -86c-206 0 -371 129 -371 363c0 205 132 367 363 367c104 0 221 -46 293 -132l-135 -113c-32 31 -84 66 -158 66c-87 0 -164 -67 -164 -188
c0 -102 62 -189 172 -189c37 0 68 6 106 23v66h-121z" />
    <glyph glyph-name="Gcommaaccent" unicode="&#x122;" horiz-adv-x="726" 
d="M401 -9c-206 0 -371 129 -371 363c0 205 132 367 363 367c104 0 221 -46 293 -132l-135 -113c-32 31 -84 66 -158 66c-87 0 -164 -67 -164 -188c0 -102 62 -189 172 -189c37 0 68 6 106 23v66h-121v153h300v-330c-64 -48 -175 -86 -285 -86zM285 -222l-30 95
c37 5 54 15 54 39c0 9 -2 21 -7 35h140c4 -13 6 -25 6 -39c0 -84 -52 -130 -163 -130z" />
    <glyph glyph-name="Gdotaccent" unicode="&#x120;" horiz-adv-x="726" 
d="M379 763c-60 0 -103 42 -103 97c0 53 43 95 103 95s102 -41 102 -95c0 -56 -42 -97 -102 -97zM401 -9c-206 0 -371 129 -371 363c0 205 132 367 363 367c104 0 221 -46 293 -132l-135 -113c-32 31 -84 66 -158 66c-87 0 -164 -67 -164 -188c0 -102 62 -189 172 -189
c37 0 68 6 106 23v66h-121v153h300v-330c-64 -48 -175 -86 -285 -86z" />
    <glyph glyph-name="H" unicode="H" horiz-adv-x="705" 
d="M53 0v710h192v-283h214v283h193v-710h-193v259h-214v-259h-192z" />
    <glyph glyph-name="Hbar" unicode="&#x126;" horiz-adv-x="712" 
d="M694 615v-101h-39v-514h-193v259h-214v-259h-192v514h-37v101h37v95h192v-95h214v95h193v-95h39zM462 427v87h-214v-87h214z" />
    <glyph glyph-name="Hcircumflex" unicode="&#x124;" horiz-adv-x="705" 
d="M354 845l-37 -71h-148l106 156h154l114 -156h-150l-37 71h-2zM459 710h193v-710h-193v259h-214v-259h-192v710h192v-283h214v283z" />
    <glyph glyph-name="I" unicode="I" horiz-adv-x="307" 
d="M57 0v710h193v-710h-193z" />
    <glyph glyph-name="IJ" unicode="&#x132;" horiz-adv-x="802" 
d="M57 0v710h193v-710h-193zM519 -10c-77 0 -157 32 -209 99l112 126c21 -29 49 -48 79 -48c31 0 62 22 62 85v458h190v-444c0 -161 -60 -276 -234 -276z" />
    <glyph glyph-name="Iacute" unicode="&#xcd;" horiz-adv-x="307" 
d="M73 776l109 152l175 1l-124 -153h-160zM57 0v710h193v-710h-193z" />
    <glyph glyph-name="Ibreve" unicode="&#x12c;" horiz-adv-x="307" 
d="M154 767c-92 0 -172 57 -180 161h127c2 -28 21 -51 53 -51c28 0 52 17 54 51h127c-7 -88 -72 -161 -181 -161zM57 0v710h193v-710h-193z" />
    <glyph glyph-name="Icircumflex" unicode="&#xce;" horiz-adv-x="307" 
d="M152 843l-37 -71h-148l106 156h154l114 -156h-150l-37 71h-2zM57 0v710h193v-710h-193z" />
    <glyph glyph-name="Idieresis" unicode="&#xcf;" horiz-adv-x="307" 
d="M34 763c-60 0 -102 42 -102 97c0 53 42 95 102 95s103 -41 103 -95c0 -56 -43 -97 -103 -97zM270 763c-60 0 -102 42 -102 97c0 53 42 95 102 95s103 -41 103 -95c0 -56 -43 -97 -103 -97zM57 0v710h193v-710h-193z" />
    <glyph glyph-name="Idotaccent" unicode="&#x130;" horiz-adv-x="307" 
d="M154 763c-60 0 -103 42 -103 97c0 53 43 95 103 95s102 -41 102 -95c0 -56 -42 -97 -102 -97zM57 0v710h193v-710h-193z" />
    <glyph glyph-name="uni1ECA" unicode="&#x1eca;" horiz-adv-x="307" 
d="M57 0v710h193v-710h-193zM152 -68c60 0 103 -42 103 -97c0 -53 -43 -95 -103 -95s-102 41 -102 95c0 56 42 97 102 97z" />
    <glyph glyph-name="Igrave" unicode="&#xcc;" horiz-adv-x="307" 
d="M85 776l-123 153l174 -1l109 -152h-160zM57 0v710h193v-710h-193z" />
    <glyph glyph-name="uni1EC8" unicode="&#x1ec8;" horiz-adv-x="307" 
d="M109 756c-9 10 -17 21 -17 31c0 29 77 44 77 77c0 11 -8 15 -25 15c-16 0 -45 -16 -58 -25l-46 46c24 22 68 46 121 46c73 0 111 -34 111 -82c0 -43 -37 -71 -93 -82l-4 -21zM57 0v710h193v-710h-193z" />
    <glyph glyph-name="Imacron" unicode="&#x12a;" horiz-adv-x="307" 
d="M-6 796v132h320v-132h-320zM57 0v710h193v-710h-193z" />
    <glyph glyph-name="Iogonek" unicode="&#x12e;" horiz-adv-x="307" 
d="M57 710h193v-710h-22c-62 0 -99 -34 -99 -66c0 -25 15 -38 36 -38c20 0 26 3 35 4l7 -82c-21 -8 -53 -11 -77 -11c-79 0 -126 42 -126 98c0 30 14 69 53 95v710z" />
    <glyph glyph-name="Itilde" unicode="&#x128;" horiz-adv-x="307" 
d="M51 763l-102 41c22 74 69 133 135 133c46 0 70 -14 90 -25c15 -10 29 -17 46 -17c25 0 43 20 55 44l100 -33c-21 -78 -67 -141 -132 -141c-39 0 -65 12 -88 25c-17 9 -33 18 -51 18c-23 0 -41 -19 -53 -45zM57 0v710h193v-710h-193z" />
    <glyph glyph-name="J" unicode="J" horiz-adv-x="495" 
d="M212 -10c-77 0 -157 32 -209 99l112 126c21 -29 49 -48 79 -48c31 0 62 22 62 85v458h190v-444c0 -161 -60 -276 -234 -276z" />
    <glyph glyph-name="Jcircumflex" unicode="&#x134;" horiz-adv-x="495" 
d="M352 845l-37 -71h-148l106 156h154l114 -156h-150l-37 71h-2zM256 252v458h190v-444c0 -161 -60 -276 -234 -276c-77 0 -157 32 -209 99l112 126c21 -29 49 -48 79 -48c31 0 62 22 62 85z" />
    <glyph glyph-name="K" unicode="K" horiz-adv-x="661" 
d="M434 0l-152 256l-40 -49v-207h-189v710h189v-239h2l173 239h240l-250 -303l260 -407h-233z" />
    <glyph glyph-name="Kcommaaccent" unicode="&#x136;" horiz-adv-x="661" 
d="M407 407l260 -407h-233l-152 256l-40 -49v-207h-189v710h189v-239h2l173 239h240zM265 -53h140c4 -13 6 -25 6 -39c0 -84 -52 -130 -163 -130l-30 95c37 5 54 15 54 39c0 9 -2 21 -7 35z" />
    <glyph glyph-name="L" unicode="L" horiz-adv-x="543" 
d="M53 0v710h191v-541h282v-169h-473z" />
    <glyph glyph-name="Lacute" unicode="&#x139;" horiz-adv-x="543" 
d="M161 777l109 152l175 1l-124 -153h-160zM53 0v710h191v-541h282v-169h-473z" />
    <glyph glyph-name="Lcaron" unicode="&#x13d;" horiz-adv-x="562" 
d="M344 573l34 226h167l-78 -226h-123zM53 0v710h191v-541h282v-169h-473z" />
    <glyph glyph-name="Lcommaaccent" unicode="&#x13b;" horiz-adv-x="543" 
d="M53 0v710h191v-541h282v-169h-473zM208 -222l-30 95c37 5 54 15 54 39c0 9 -2 21 -7 35h140c4 -13 6 -25 6 -39c0 -84 -52 -130 -163 -130z" />
    <glyph glyph-name="Ldot" unicode="&#x13f;" horiz-adv-x="543" 
d="M53 0v710h191v-541h282v-169h-473zM426 247c-54 0 -98 43 -98 96c0 52 44 95 98 95c53 0 97 -43 97 -95c0 -53 -44 -96 -97 -96z" />
    <glyph glyph-name="Lslash" unicode="&#x141;" horiz-adv-x="556" 
d="M257 169h282v-169h-473v250l-61 -29v152l61 29v308h191v-218l70 33v-153l-70 -33v-170z" />
    <glyph glyph-name="M" unicode="M" horiz-adv-x="847" 
d="M601 710h193v-710h-188v350h-3l-119 -222h-121l-119 223h-3v-351h-188v710h192l177 -351h4z" />
    <glyph glyph-name="N" unicode="N" horiz-adv-x="727" 
d="M484 710h190v-710h-197l-233 389h-2v-389h-189v710h191l237 -400h3v400z" />
    <glyph glyph-name="Nacute" unicode="&#x143;" horiz-adv-x="727" 
d="M530 930l-124 -153h-160l109 152zM484 710h190v-710h-197l-233 389h-2v-389h-189v710h191l237 -400h3v400z" />
    <glyph glyph-name="Ncaron" unicode="&#x147;" horiz-adv-x="727" 
d="M448 774h-154l-113 156h150l36 -72h2l38 72h148zM484 710h190v-710h-197l-233 389h-2v-389h-189v710h191l237 -400h3v400z" />
    <glyph glyph-name="Ncommaaccent" unicode="&#x145;" horiz-adv-x="727" 
d="M484 710h190v-710h-197l-233 389h-2v-389h-189v710h191l237 -400h3v400zM293 -53h140c4 -13 6 -25 6 -39c0 -84 -52 -130 -163 -130l-30 95c37 5 54 15 54 39c0 9 -2 21 -7 35z" />
    <glyph glyph-name="Eng" unicode="&#x14a;" horiz-adv-x="727" 
d="M484 710h190v-642v-78c0 -127 -54 -198 -173 -198c-65 0 -100 12 -120 19l30 132c12 -4 27 -7 41 -7c28 0 33 22 34 49l-243 405h-2v-390h-188v710h191l238 -401h2v401z" />
    <glyph glyph-name="uni019D" unicode="&#x19d;" horiz-adv-x="727" 
d="M484 710h190v-710h-197l-233 389h-2v-389v-10c0 -127 -54 -198 -174 -198c-66 0 -100 12 -120 19l30 132c12 -4 27 -7 41 -7c31 0 34 27 34 59v208v507h191l237 -400h3v400z" />
    <glyph glyph-name="Ntilde" unicode="&#xd1;" horiz-adv-x="727" 
d="M318 810c-23 0 -41 -19 -53 -45l-102 41c22 74 69 133 135 133c46 0 70 -14 90 -25c15 -10 29 -17 46 -17c25 0 43 20 55 44l100 -33c-21 -78 -67 -141 -132 -141c-39 0 -65 12 -88 25c-17 9 -33 18 -51 18zM484 710h190v-710h-197l-233 389h-2v-389h-189v710h191
l237 -400h3v400z" />
    <glyph glyph-name="O" unicode="O" horiz-adv-x="797" 
d="M399 -10c-218 0 -369 149 -369 365s151 366 369 366c216 0 369 -148 369 -366c0 -217 -153 -365 -369 -365zM399 167c101 0 170 83 170 188c0 104 -69 188 -170 188c-100 0 -171 -83 -171 -188s71 -188 171 -188z" />
    <glyph glyph-name="Oacute" unicode="&#xd3;" horiz-adv-x="797" 
d="M323 777l109 152l175 1l-124 -153h-160zM399 -10c-218 0 -369 149 -369 365s151 366 369 366c216 0 369 -148 369 -366c0 -217 -153 -365 -369 -365zM399 167c101 0 170 83 170 188c0 104 -69 188 -170 188c-100 0 -171 -83 -171 -188s71 -188 171 -188z" />
    <glyph glyph-name="Obreve" unicode="&#x14e;" horiz-adv-x="797" 
d="M400 769c-92 0 -172 57 -180 161h127c2 -28 21 -51 53 -51c28 0 52 17 54 51h127c-7 -88 -72 -161 -181 -161zM399 -10c-218 0 -369 149 -369 365s151 366 369 366c216 0 369 -148 369 -366c0 -217 -153 -365 -369 -365zM399 167c101 0 170 83 170 188
c0 104 -69 188 -170 188c-100 0 -171 -83 -171 -188s71 -188 171 -188z" />
    <glyph glyph-name="Ocircumflex" unicode="&#xd4;" horiz-adv-x="797" 
d="M398 845l-37 -71h-148l106 156h154l114 -156h-150l-37 71h-2zM399 721c216 0 369 -148 369 -366c0 -217 -153 -365 -369 -365c-218 0 -369 149 -369 365s151 366 369 366zM399 167c101 0 170 83 170 188c0 104 -69 188 -170 188c-100 0 -171 -83 -171 -188
s71 -188 171 -188z" />
    <glyph glyph-name="uni1ED0" unicode="&#x1ed0;" horiz-adv-x="797" 
d="M826 971l-138 -153h-131l110 152zM398 825l-37 -71h-148l106 156h154l114 -156h-150l-37 71h-2zM399 721c216 0 369 -148 369 -366c0 -217 -153 -365 -369 -365c-218 0 -369 149 -369 365s151 366 369 366zM399 167c101 0 170 83 170 188c0 104 -69 188 -170 188
c-100 0 -171 -83 -171 -188s71 -188 171 -188z" />
    <glyph glyph-name="uni1ED8" unicode="&#x1ed8;" horiz-adv-x="797" 
d="M399 845l-37 -71h-148l106 156h154l114 -156h-150l-37 71h-2zM399 721c216 0 369 -148 369 -366c0 -217 -153 -365 -369 -365c-218 0 -369 149 -369 365s151 366 369 366zM399 167c101 0 170 83 170 188c0 104 -69 188 -170 188c-100 0 -171 -83 -171 -188
s71 -188 171 -188zM399 -68c60 0 103 -42 103 -97c0 -53 -43 -95 -103 -95s-102 41 -102 95c0 56 42 97 102 97z" />
    <glyph glyph-name="uni1ED2" unicode="&#x1ed2;" horiz-adv-x="797" 
d="M728 818h-124l-114 153l153 -1zM399 825l-37 -71h-148l106 156h154l114 -156h-150l-37 71h-2zM399 721c216 0 369 -148 369 -366c0 -217 -153 -365 -369 -365c-218 0 -369 149 -369 365s151 366 369 366zM399 167c101 0 170 83 170 188c0 104 -69 188 -170 188
c-100 0 -171 -83 -171 -188s71 -188 171 -188z" />
    <glyph glyph-name="uni1ED4" unicode="&#x1ed4;" horiz-adv-x="797" 
d="M621 911c-16 0 -45 -17 -58 -25l-46 46c24 22 68 46 121 46c67 0 106 -34 106 -83c0 -42 -37 -70 -88 -81l-5 -21l-65 -5c-9 10 -17 21 -17 31c0 29 77 44 77 77c0 11 -8 15 -25 15zM398 825l-37 -71h-148l106 156h154l114 -156h-150l-37 71h-2zM399 721
c216 0 369 -148 369 -366c0 -217 -153 -365 -369 -365c-218 0 -369 149 -369 365s151 366 369 366zM399 167c101 0 170 83 170 188c0 104 -69 188 -170 188c-100 0 -171 -83 -171 -188s71 -188 171 -188z" />
    <glyph glyph-name="uni1ED6" unicode="&#x1ed6;" horiz-adv-x="797" 
d="M472 856c-33 0 -60 12 -85 23c-21 10 -41 19 -56 19c-17 0 -36 -16 -50 -40l-72 24c21 50 62 85 119 85c35 0 63 -14 87 -26c18 -8 33 -15 52 -15c21 0 42 15 56 40l70 -17c-20 -57 -63 -93 -121 -93zM195 736l140 102h125l148 -102h-148l-60 45l-59 -45h-146zM399 -10
c-218 0 -369 149 -369 365s151 366 369 366c216 0 369 -148 369 -366c0 -217 -153 -365 -369 -365zM399 167c101 0 170 83 170 188c0 104 -69 188 -170 188c-100 0 -171 -83 -171 -188s71 -188 171 -188z" />
    <glyph glyph-name="Odieresis" unicode="&#xd6;" horiz-adv-x="797" 
d="M280 765c-60 0 -102 42 -102 97c0 53 42 95 102 95s103 -41 103 -95c0 -56 -43 -97 -103 -97zM516 765c-60 0 -102 42 -102 97c0 53 42 95 102 95s103 -41 103 -95c0 -56 -43 -97 -103 -97zM399 -10c-218 0 -369 149 -369 365s151 366 369 366c216 0 369 -148 369 -366
c0 -217 -153 -365 -369 -365zM399 167c101 0 170 83 170 188c0 104 -69 188 -170 188c-100 0 -171 -83 -171 -188s71 -188 171 -188z" />
    <glyph glyph-name="uni1ECC" unicode="&#x1ecc;" horiz-adv-x="797" 
d="M399 -10c-218 0 -369 149 -369 365s151 366 369 366c216 0 369 -148 369 -366c0 -217 -153 -365 -369 -365zM399 167c101 0 170 83 170 188c0 104 -69 188 -170 188c-100 0 -171 -83 -171 -188s71 -188 171 -188zM399 -68c60 0 103 -42 103 -97c0 -53 -43 -95 -103 -95
s-102 41 -102 95c0 56 42 97 102 97z" />
    <glyph glyph-name="Ograve" unicode="&#xd2;" horiz-adv-x="797" 
d="M342 777l-123 153l174 -1l109 -152h-160zM399 -10c-218 0 -369 149 -369 365s151 366 369 366c216 0 369 -148 369 -366c0 -217 -153 -365 -369 -365zM399 167c101 0 170 83 170 188c0 104 -69 188 -170 188c-100 0 -171 -83 -171 -188s71 -188 171 -188z" />
    <glyph glyph-name="uni1ECE" unicode="&#x1ece;" horiz-adv-x="797" 
d="M355 758c-9 10 -17 21 -17 31c0 29 77 44 77 77c0 11 -8 15 -25 15c-16 0 -45 -16 -58 -25l-46 46c24 22 68 46 121 46c73 0 111 -34 111 -82c0 -43 -37 -71 -93 -82l-4 -21zM399 -10c-218 0 -369 149 -369 365s151 366 369 366c216 0 369 -148 369 -366
c0 -217 -153 -365 -369 -365zM399 167c101 0 170 83 170 188c0 104 -69 188 -170 188c-100 0 -171 -83 -171 -188s71 -188 171 -188z" />
    <glyph glyph-name="Ohorn" unicode="&#x1a0;" horiz-adv-x="797" 
d="M708 774h143v-78c0 -98 -47 -150 -120 -169v-1c24 -49 37 -107 37 -171c0 -217 -153 -365 -369 -365c-218 0 -369 149 -369 365s151 366 369 366c118 0 217 -44 282 -119c22 15 27 43 27 85v87zM399 167c101 0 170 83 170 188c0 104 -69 188 -170 188
c-100 0 -171 -83 -171 -188s71 -188 171 -188z" />
    <glyph glyph-name="uni1EDA" unicode="&#x1eda;" horiz-adv-x="797" 
d="M607 930l-124 -153h-160l109 152zM708 774h143v-78c0 -98 -47 -150 -120 -169v-1c24 -49 37 -107 37 -171c0 -217 -153 -365 -369 -365c-218 0 -369 149 -369 365s151 366 369 366c118 0 217 -44 282 -119c22 15 27 43 27 85v87zM399 167c101 0 170 83 170 188
c0 104 -69 188 -170 188c-100 0 -171 -83 -171 -188s71 -188 171 -188z" />
    <glyph glyph-name="uni1EE2" unicode="&#x1ee2;" horiz-adv-x="797" 
d="M708 774h143v-78c0 -98 -47 -150 -120 -169v-1c24 -49 37 -107 37 -171c0 -217 -153 -365 -369 -365c-218 0 -369 149 -369 365s151 366 369 366c118 0 217 -44 282 -119c22 15 27 43 27 85v87zM399 167c101 0 170 83 170 188c0 104 -69 188 -170 188
c-100 0 -171 -83 -171 -188s71 -188 171 -188zM399 -68c60 0 103 -42 103 -97c0 -53 -43 -95 -103 -95s-102 41 -102 95c0 56 42 97 102 97z" />
    <glyph glyph-name="uni1EDC" unicode="&#x1edc;" horiz-adv-x="797" 
d="M502 777h-160l-123 153l174 -1zM708 774h143v-78c0 -98 -47 -150 -120 -169v-1c24 -49 37 -107 37 -171c0 -217 -153 -365 -369 -365c-218 0 -369 149 -369 365s151 366 369 366c118 0 217 -44 282 -119c22 15 27 43 27 85v87zM399 167c101 0 170 83 170 188
c0 104 -69 188 -170 188c-100 0 -171 -83 -171 -188s71 -188 171 -188z" />
    <glyph glyph-name="uni1EDE" unicode="&#x1ede;" horiz-adv-x="797" 
d="M390 881c-16 0 -45 -16 -58 -25l-46 46c24 22 68 46 121 46c73 0 111 -34 111 -82c0 -43 -37 -71 -93 -82l-4 -21l-66 -5c-9 10 -17 21 -17 31c0 29 77 44 77 77c0 11 -8 15 -25 15zM708 774h143v-78c0 -98 -47 -150 -120 -169v-1c24 -49 37 -107 37 -171
c0 -217 -153 -365 -369 -365c-218 0 -369 149 -369 365s151 366 369 366c118 0 217 -44 282 -119c22 15 27 43 27 85v87zM399 167c101 0 170 83 170 188c0 104 -69 188 -170 188c-100 0 -171 -83 -171 -188s71 -188 171 -188z" />
    <glyph glyph-name="uni1EE0" unicode="&#x1ee0;" horiz-adv-x="797" 
d="M350 810c-23 0 -41 -19 -53 -45l-102 41c22 74 69 133 135 133c46 0 70 -14 90 -25c15 -10 29 -17 46 -17c25 0 43 20 55 44l100 -33c-21 -78 -67 -141 -132 -141c-39 0 -65 12 -88 25c-17 9 -33 18 -51 18zM708 774h143v-78c0 -98 -47 -150 -120 -169v-1
c24 -49 37 -107 37 -171c0 -217 -153 -365 -369 -365c-218 0 -369 149 -369 365s151 366 369 366c118 0 217 -44 282 -119c22 15 27 43 27 85v87zM399 167c101 0 170 83 170 188c0 104 -69 188 -170 188c-100 0 -171 -83 -171 -188s71 -188 171 -188z" />
    <glyph glyph-name="Ohungarumlaut" unicode="&#x150;" horiz-adv-x="797" 
d="M197 777l108 152l175 1l-123 -153h-160zM435 777l108 152l175 1l-123 -153h-160zM399 -10c-218 0 -369 149 -369 365s151 366 369 366c216 0 369 -148 369 -366c0 -217 -153 -365 -369 -365zM399 167c101 0 170 83 170 188c0 104 -69 188 -170 188
c-100 0 -171 -83 -171 -188s71 -188 171 -188z" />
    <glyph glyph-name="Omacron" unicode="&#x14c;" horiz-adv-x="797" 
d="M240 798v132h320v-132h-320zM399 -10c-218 0 -369 149 -369 365s151 366 369 366c216 0 369 -148 369 -366c0 -217 -153 -365 -369 -365zM399 167c101 0 170 83 170 188c0 104 -69 188 -170 188c-100 0 -171 -83 -171 -188s71 -188 171 -188z" />
    <glyph glyph-name="uni01EA" unicode="&#x1ea;" horiz-adv-x="797" 
d="M768 355c0 -184 -110 -318 -274 -355h1h-2c-14 -3 -29 -6 -44 -7c-34 -12 -53 -36 -53 -59c0 -25 15 -38 36 -38c20 0 26 3 35 4l7 -82c-21 -8 -53 -11 -77 -11c-79 0 -126 42 -126 98c0 28 13 64 46 90v2c-173 33 -287 170 -287 358c0 216 151 366 369 366
c216 0 369 -148 369 -366zM399 167c101 0 170 83 170 188c0 104 -69 188 -170 188c-100 0 -171 -83 -171 -188s71 -188 171 -188z" />
    <glyph glyph-name="Oslash" unicode="&#xd8;" horiz-adv-x="798" 
d="M686 596c52 -62 82 -145 82 -241c0 -217 -153 -365 -369 -365c-81 0 -152 20 -211 57l-77 -85l-69 64l75 82c-55 63 -87 148 -87 247c0 216 151 366 369 366c84 0 158 -22 218 -62l74 81l69 -63zM228 355c0 -36 8 -70 24 -98l236 260c-25 17 -55 26 -89 26
c-100 0 -171 -83 -171 -188zM399 167c101 0 170 83 170 188c0 33 -7 63 -19 90l-233 -256c24 -14 51 -22 82 -22z" />
    <glyph glyph-name="Oslashacute" unicode="&#x1fe;" horiz-adv-x="798" 
d="M602 928l-124 -153h-160l109 152zM686 596c52 -62 82 -145 82 -241c0 -217 -153 -365 -369 -365c-81 0 -152 20 -211 57l-77 -85l-69 64l75 82c-55 63 -87 148 -87 247c0 216 151 366 369 366c84 0 158 -22 218 -62l74 81l69 -63zM228 355c0 -36 8 -70 24 -98l236 260
c-25 17 -55 26 -89 26c-100 0 -171 -83 -171 -188zM399 167c101 0 170 83 170 188c0 33 -7 63 -19 90l-233 -256c24 -14 51 -22 82 -22z" />
    <glyph glyph-name="Otilde" unicode="&#xd5;" horiz-adv-x="797" 
d="M297 765l-102 41c22 74 69 133 135 133c46 0 70 -14 90 -25c15 -10 29 -17 46 -17c25 0 43 20 55 44l100 -33c-21 -78 -67 -141 -132 -141c-39 0 -65 12 -88 25c-17 9 -33 18 -51 18c-23 0 -41 -19 -53 -45zM399 -10c-218 0 -369 149 -369 365s151 366 369 366
c216 0 369 -148 369 -366c0 -217 -153 -365 -369 -365zM399 167c101 0 170 83 170 188c0 104 -69 188 -170 188c-100 0 -171 -83 -171 -188s71 -188 171 -188z" />
    <glyph glyph-name="OE" unicode="&#x152;" horiz-adv-x="941" 
d="M608 169h304v-169h-487h-29c-217 0 -366 149 -366 354c0 207 149 356 366 356h83h413v-168h-284v-109h225v-158h-225v-106zM396 177h29v356h-29c-98 0 -167 -81 -167 -179c0 -95 69 -179 167 -177z" />
    <glyph glyph-name="P" unicode="P" horiz-adv-x="604" 
d="M53 0v710h276c178 0 258 -106 258 -252c0 -161 -106 -241 -270 -241h-80v-217h-184zM237 381h50c61 0 103 28 103 81c0 44 -34 81 -103 81h-50v-162z" />
    <glyph glyph-name="Thorn" unicode="&#xde;" horiz-adv-x="630" 
d="M53 0v710h184v-112h114c178 0 258 -107 258 -252c0 -157 -106 -238 -270 -238h-102v-108h-184zM237 273h71c62 0 104 29 104 78c0 42 -34 80 -104 80h-71v-158z" />
    <glyph glyph-name="Q" unicode="Q" horiz-adv-x="804" 
d="M787 94l-91 -119l-82 75c-59 -39 -132 -60 -214 -60c-219 0 -370 149 -370 365s151 366 370 366c216 0 368 -148 368 -366c0 -76 -19 -143 -52 -199zM400 167c25 0 48 5 69 14l-48 44l90 111l50 -44c6 20 9 41 9 63c0 104 -69 188 -170 188c-100 0 -171 -83 -171 -188
s71 -188 171 -188z" />
    <glyph glyph-name="R" unicode="R" horiz-adv-x="644" 
d="M636 0h-221l-134 217h-44v-217h-184v710h284c179 0 259 -106 259 -252c0 -104 -45 -175 -121 -211v-1zM237 543v-162h58c60 0 104 28 104 81c0 44 -35 81 -104 81h-58z" />
    <glyph glyph-name="Racute" unicode="&#x154;" horiz-adv-x="644" 
d="M469 930l-124 -153h-160l109 152zM636 0h-221l-134 217h-44v-217h-184v710h284c179 0 259 -106 259 -252c0 -104 -45 -175 -121 -211v-1zM237 543v-162h58c60 0 104 28 104 81c0 44 -35 81 -104 81h-58z" />
    <glyph glyph-name="Rcaron" unicode="&#x158;" horiz-adv-x="644" 
d="M387 774h-154l-113 156h150l36 -72h2l38 72h148zM636 0h-221l-134 217h-44v-217h-184v710h284c179 0 259 -106 259 -252c0 -104 -45 -175 -121 -211v-1zM237 543v-162h58c60 0 104 28 104 81c0 44 -35 81 -104 81h-58z" />
    <glyph glyph-name="Rcommaaccent" unicode="&#x156;" horiz-adv-x="644" 
d="M475 246l161 -246h-221l-134 217h-44v-217h-184v710h284c179 0 259 -106 259 -252c0 -104 -45 -175 -121 -211v-1zM237 543v-162h58c60 0 104 28 104 81c0 44 -35 81 -104 81h-58zM258 -53h140c4 -13 6 -25 6 -39c0 -84 -52 -130 -163 -130l-30 95c37 5 54 15 54 39
c0 9 -2 21 -7 35z" />
    <glyph glyph-name="S" unicode="S" horiz-adv-x="559" 
d="M271 -10c-92 0 -187 36 -263 114l108 132c56 -57 118 -79 162 -79s61 24 61 46c0 28 -14 43 -90 68c-108 37 -216 89 -216 234c0 121 101 212 237 215c98 2 185 -36 251 -95l-105 -135c-62 48 -100 64 -135 64c-34 0 -50 -17 -50 -42c0 -24 15 -43 87 -71
c126 -48 221 -79 221 -216c0 -178 -149 -235 -268 -235z" />
    <glyph glyph-name="Sacute" unicode="&#x15a;" horiz-adv-x="559" 
d="M185 777l109 152l175 1l-124 -153h-160zM271 -10c-92 0 -187 36 -263 114l108 132c56 -57 118 -79 162 -79s61 24 61 46c0 28 -14 43 -90 68c-108 37 -216 89 -216 234c0 121 101 212 237 215c98 2 185 -36 251 -95l-105 -135c-62 48 -100 64 -135 64
c-34 0 -50 -17 -50 -42c0 -24 15 -43 87 -71c126 -48 221 -79 221 -216c0 -178 -149 -235 -268 -235z" />
    <glyph glyph-name="Scaron" unicode="&#x160;" horiz-adv-x="559" 
d="M361 774h-154l-113 156h150l36 -72h2l38 72h148zM318 441c126 -48 221 -79 221 -216c0 -178 -149 -235 -268 -235c-92 0 -187 36 -263 114l108 132c56 -57 118 -79 162 -79s61 24 61 46c0 28 -14 43 -90 68c-108 37 -216 89 -216 234c0 121 101 212 237 215
c98 2 185 -36 251 -95l-105 -135c-62 48 -100 64 -135 64c-34 0 -50 -17 -50 -42c0 -24 15 -43 87 -71z" />
    <glyph glyph-name="Scedilla" unicode="&#x15e;" horiz-adv-x="559" 
d="M288 -10l-11 -19v-1c55 -1 92 -29 92 -81c0 -49 -39 -83 -130 -83c-35 0 -52 3 -67 6v68c13 -4 27 -7 54 -7c17 0 40 4 40 25c0 19 -29 28 -77 28v39l17 31c-70 13 -140 48 -198 108l108 132c56 -57 118 -79 162 -79s61 24 61 46c0 28 -14 43 -90 68
c-108 37 -216 89 -216 234c0 121 101 212 237 215c98 2 185 -36 251 -95l-105 -135c-62 48 -100 64 -135 64c-34 0 -50 -17 -50 -42c0 -24 15 -43 87 -71c126 -48 221 -79 221 -216c0 -169 -135 -229 -251 -235z" />
    <glyph glyph-name="Scircumflex" unicode="&#x15c;" horiz-adv-x="559" 
d="M279 845l-37 -71h-148l106 156h154l114 -156h-150l-37 71h-2zM318 441c126 -48 221 -79 221 -216c0 -178 -149 -235 -268 -235c-92 0 -187 36 -263 114l108 132c56 -57 118 -79 162 -79s61 24 61 46c0 28 -14 43 -90 68c-108 37 -216 89 -216 234c0 121 101 212 237 215
c98 2 185 -36 251 -95l-105 -135c-62 48 -100 64 -135 64c-34 0 -50 -17 -50 -42c0 -24 15 -43 87 -71z" />
    <glyph glyph-name="Scommaaccent" unicode="&#x218;" horiz-adv-x="559" 
d="M271 -10c-92 0 -187 36 -263 114l108 132c56 -57 118 -79 162 -79s61 24 61 46c0 28 -14 43 -90 68c-108 37 -216 89 -216 234c0 121 101 212 237 215c98 2 185 -36 251 -95l-105 -135c-62 48 -100 64 -135 64c-34 0 -50 -17 -50 -42c0 -24 15 -43 87 -71
c126 -48 221 -79 221 -216c0 -178 -149 -235 -268 -235zM186 -222l-30 95c37 5 54 15 54 39c0 9 -2 21 -7 35h140c4 -13 6 -25 6 -39c0 -84 -52 -130 -163 -130z" />
    <glyph glyph-name="uni1E9E" unicode="&#x1e9e;" horiz-adv-x="786" 
d="M566 432c115 -43 198 -79 198 -207c0 -178 -149 -235 -248 -235c-77 0 -159 28 -229 87l85 152c55 -52 114 -72 146 -72c33 0 46 24 46 46c0 30 -14 45 -90 70c-45 15 -91 33 -138 69l114 206v4c-36 3 -70 5 -104 5c-65 0 -118 -35 -118 -111l-1 -446h-185l1 452
c0 206 118 269 295 269c125 0 248 -18 357 -49l-129 -239v-1z" />
    <glyph glyph-name="uni018F" unicode="&#x18f;" horiz-adv-x="720" 
d="M325 721c219 0 365 -146 365 -369c0 -214 -139 -362 -329 -362c-206 0 -333 149 -333 354c0 21 3 46 4 59h462c-16 88 -73 142 -153 142c-47 0 -99 -11 -150 -36l-94 153c49 25 126 59 228 59zM353 165c55 0 100 29 124 81h-248c22 -50 63 -81 124 -81z" />
    <glyph glyph-name="T" unicode="T" horiz-adv-x="584" 
d="M198 0v541h-180v169h549v-169h-180v-541h-189z" />
    <glyph glyph-name="Tbar" unicode="&#x166;" horiz-adv-x="584" 
d="M567 541h-180v-116h118v-132h-118v-293h-189v293h-108v132h108v116h-180v169h549v-169z" />
    <glyph glyph-name="Tcaron" unicode="&#x164;" horiz-adv-x="584" 
d="M372 774h-154l-113 156h150l36 -72h2l38 72h148zM18 710h549v-169h-180v-541h-189v541h-180v169z" />
    <glyph glyph-name="uni0162" unicode="&#x162;" horiz-adv-x="584" 
d="M18 710h549v-169h-180v-541h-77l-17 -29v-1c55 -1 92 -29 92 -81c0 -49 -39 -83 -130 -83c-35 0 -52 3 -67 6v68c13 -4 27 -7 54 -7c17 0 40 4 40 25c0 19 -29 28 -77 28v39l20 35h-27v541h-180v169z" />
    <glyph glyph-name="uni021A" unicode="&#x21a;" horiz-adv-x="584" 
d="M198 0v541h-180v169h549v-169h-180v-541h-189zM202 -222l-30 95c37 5 54 15 54 39c0 9 -2 21 -7 35h140c4 -13 6 -25 6 -39c0 -84 -52 -130 -163 -130z" />
    <glyph glyph-name="U" unicode="U" horiz-adv-x="691" 
d="M344 -10c-178 0 -298 108 -298 308v412h192v-401c0 -75 33 -142 106 -142c63 0 110 51 110 142v401h191v-412c0 -186 -106 -308 -301 -308z" />
    <glyph glyph-name="Uacute" unicode="&#xda;" horiz-adv-x="691" 
d="M257 777l109 152l175 1l-124 -153h-160zM344 -10c-178 0 -298 108 -298 308v412h192v-401c0 -75 33 -142 106 -142c63 0 110 51 110 142v401h191v-412c0 -186 -106 -308 -301 -308z" />
    <glyph glyph-name="Ubreve" unicode="&#x16c;" horiz-adv-x="691" 
d="M345 769c-92 0 -172 57 -180 161h127c2 -28 21 -51 53 -51c28 0 52 17 54 51h127c-7 -88 -72 -161 -181 -161zM344 -10c-178 0 -298 108 -298 308v412h192v-401c0 -75 33 -142 106 -142c63 0 110 51 110 142v401h191v-412c0 -186 -106 -308 -301 -308z" />
    <glyph glyph-name="Ucircumflex" unicode="&#xdb;" horiz-adv-x="691" 
d="M343 845l-37 -71h-148l106 156h154l114 -156h-150l-37 71h-2zM454 710h191v-412c0 -186 -106 -308 -301 -308c-178 0 -298 108 -298 308v412h192v-401c0 -75 33 -142 106 -142c63 0 110 51 110 142v401z" />
    <glyph glyph-name="Udieresis" unicode="&#xdc;" horiz-adv-x="691" 
d="M225 765c-60 0 -102 42 -102 97c0 53 42 95 102 95s103 -41 103 -95c0 -56 -43 -97 -103 -97zM461 765c-60 0 -102 42 -102 97c0 53 42 95 102 95s103 -41 103 -95c0 -56 -43 -97 -103 -97zM344 -10c-178 0 -298 108 -298 308v412h192v-401c0 -75 33 -142 106 -142
c63 0 110 51 110 142v401h191v-412c0 -186 -106 -308 -301 -308z" />
    <glyph glyph-name="uni1EE4" unicode="&#x1ee4;" horiz-adv-x="691" 
d="M344 -10c-178 0 -298 108 -298 308v412h192v-401c0 -75 33 -142 106 -142c63 0 110 51 110 142v401h191v-412c0 -186 -106 -308 -301 -308zM344 -68c60 0 103 -42 103 -97c0 -53 -43 -95 -103 -95s-102 41 -102 95c0 56 42 97 102 97z" />
    <glyph glyph-name="Ugrave" unicode="&#xd9;" horiz-adv-x="691" 
d="M280 777l-123 153l174 -1l109 -152h-160zM344 -10c-178 0 -298 108 -298 308v412h192v-401c0 -75 33 -142 106 -142c63 0 110 51 110 142v401h191v-412c0 -186 -106 -308 -301 -308z" />
    <glyph glyph-name="uni1EE6" unicode="&#x1ee6;" horiz-adv-x="691" 
d="M300 758c-9 10 -17 21 -17 31c0 29 77 44 77 77c0 11 -8 15 -25 15c-16 0 -45 -16 -58 -25l-46 46c24 22 68 46 121 46c73 0 111 -34 111 -82c0 -43 -37 -71 -93 -82l-4 -21zM344 -10c-178 0 -298 108 -298 308v412h192v-401c0 -75 33 -142 106 -142c63 0 110 51 110 142
v401h191v-412c0 -186 -106 -308 -301 -308z" />
    <glyph glyph-name="Uhorn" unicode="&#x1af;" horiz-adv-x="828" 
d="M709 774h143v-78c0 -133 -86 -180 -207 -177v-221c0 -186 -106 -308 -301 -308c-178 0 -298 108 -298 308v412h192v-401c0 -75 33 -142 106 -142c63 0 110 51 110 142v401h191v-122c54 8 64 39 64 99v87z" />
    <glyph glyph-name="uni1EE8" unicode="&#x1ee8;" horiz-adv-x="828" 
d="M541 930l-124 -153h-160l109 152zM709 774h143v-78c0 -133 -86 -180 -207 -177v-221c0 -186 -106 -308 -301 -308c-178 0 -298 108 -298 308v412h192v-401c0 -75 33 -142 106 -142c63 0 110 51 110 142v401h191v-122c54 8 64 39 64 99v87z" />
    <glyph glyph-name="uni1EF0" unicode="&#x1ef0;" horiz-adv-x="828" 
d="M709 774h143v-78c0 -133 -86 -180 -207 -177v-221c0 -186 -106 -308 -301 -308c-178 0 -298 108 -298 308v412h192v-401c0 -75 33 -142 106 -142c63 0 110 51 110 142v401h191v-122c54 8 64 39 64 99v87zM344 -68c60 0 103 -42 103 -97c0 -53 -43 -95 -103 -95
s-102 41 -102 95c0 56 42 97 102 97z" />
    <glyph glyph-name="uni1EEA" unicode="&#x1eea;" horiz-adv-x="828" 
d="M440 777h-160l-123 153l174 -1zM709 774h143v-78c0 -133 -86 -180 -207 -177v-221c0 -186 -106 -308 -301 -308c-178 0 -298 108 -298 308v412h192v-401c0 -75 33 -142 106 -142c63 0 110 51 110 142v401h191v-122c54 8 64 39 64 99v87z" />
    <glyph glyph-name="uni1EEC" unicode="&#x1eec;" horiz-adv-x="828" 
d="M335 881c-16 0 -45 -16 -58 -25l-46 46c24 22 68 46 121 46c73 0 111 -34 111 -82c0 -43 -37 -71 -93 -82l-4 -21l-66 -5c-9 10 -17 21 -17 31c0 29 77 44 77 77c0 11 -8 15 -25 15zM709 774h143v-78c0 -133 -86 -180 -207 -177v-221c0 -186 -106 -308 -301 -308
c-178 0 -298 108 -298 308v412h192v-401c0 -75 33 -142 106 -142c63 0 110 51 110 142v401h191v-122c54 8 64 39 64 99v87z" />
    <glyph glyph-name="uni1EEE" unicode="&#x1eee;" horiz-adv-x="828" 
d="M295 810c-23 0 -41 -19 -53 -45l-102 41c22 74 69 133 135 133c46 0 70 -14 90 -25c15 -10 29 -17 46 -17c25 0 43 20 55 44l100 -33c-21 -78 -67 -141 -132 -141c-39 0 -65 12 -88 25c-17 9 -33 18 -51 18zM709 774h143v-78c0 -133 -86 -180 -207 -177v-221
c0 -186 -106 -308 -301 -308c-178 0 -298 108 -298 308v412h192v-401c0 -75 33 -142 106 -142c63 0 110 51 110 142v401h191v-122c54 8 64 39 64 99v87z" />
    <glyph glyph-name="Uhungarumlaut" unicode="&#x170;" horiz-adv-x="691" 
d="M118 777l108 152l175 1l-123 -153h-160zM356 777l108 152l175 1l-123 -153h-160zM344 -10c-178 0 -298 108 -298 308v412h192v-401c0 -75 33 -142 106 -142c63 0 110 51 110 142v401h191v-412c0 -186 -106 -308 -301 -308z" />
    <glyph glyph-name="Umacron" unicode="&#x16a;" horiz-adv-x="691" 
d="M185 798v132h320v-132h-320zM344 -10c-178 0 -298 108 -298 308v412h192v-401c0 -75 33 -142 106 -142c63 0 110 51 110 142v401h191v-412c0 -186 -106 -308 -301 -308z" />
    <glyph glyph-name="Uogonek" unicode="&#x172;" horiz-adv-x="691" 
d="M454 710h191v-412c0 -146 -65 -252 -187 -291c-60 -22 -92 -48 -92 -78c0 -22 15 -33 36 -33c15 0 27 3 35 4l7 -82c-21 -8 -53 -11 -77 -11c-78 0 -126 42 -126 98c0 27 12 61 42 87v3c-144 22 -237 127 -237 303v412h192v-401c0 -75 33 -142 106 -142
c63 0 110 51 110 142v401z" />
    <glyph glyph-name="Uring" unicode="&#x16e;" horiz-adv-x="691" 
d="M345 758c-61 0 -111 43 -111 106c0 59 44 106 111 106c61 0 111 -43 111 -106c0 -58 -44 -106 -111 -106zM345 831c19 0 34 16 34 35s-15 34 -34 34s-34 -16 -34 -35s15 -34 34 -34zM344 -10c-178 0 -298 108 -298 308v412h192v-401c0 -75 33 -142 106 -142
c63 0 110 51 110 142v401h191v-412c0 -186 -106 -308 -301 -308z" />
    <glyph glyph-name="Utilde" unicode="&#x168;" horiz-adv-x="691" 
d="M242 765l-102 41c22 74 69 133 135 133c46 0 70 -14 90 -25c15 -10 29 -17 46 -17c25 0 43 20 55 44l100 -33c-21 -78 -67 -141 -132 -141c-39 0 -65 12 -88 25c-17 9 -33 18 -51 18c-23 0 -41 -19 -53 -45zM344 -10c-178 0 -298 108 -298 308v412h192v-401
c0 -75 33 -142 106 -142c63 0 110 51 110 142v401h191v-412c0 -186 -106 -308 -301 -308z" />
    <glyph glyph-name="V" unicode="V" horiz-adv-x="686" 
d="M481 710h205l-259 -710h-167l-260 710h207l135 -439h2z" />
    <glyph glyph-name="W" unicode="W" horiz-adv-x="1020" 
d="M810 710h203l-221 -710h-173l-105 432h-2l-111 -432h-173l-221 710h203l103 -396h3l95 396h200l93 -396h3z" />
    <glyph glyph-name="Wacute" unicode="&#x1e82;" horiz-adv-x="1020" 
d="M716 930l-124 -153h-160l109 152zM810 710h203l-221 -710h-173l-105 432h-2l-111 -432h-173l-221 710h203l103 -396h3l95 396h200l93 -396h3z" />
    <glyph glyph-name="Wcircumflex" unicode="&#x174;" horiz-adv-x="1020" 
d="M509 845l-37 -71h-148l106 156h154l114 -156h-150l-37 71h-2zM810 710h203l-221 -710h-173l-105 432h-2l-111 -432h-173l-221 710h203l103 -396h3l95 396h200l93 -396h3z" />
    <glyph glyph-name="Wdieresis" unicode="&#x1e84;" horiz-adv-x="1020" 
d="M391 765c-60 0 -102 42 -102 97c0 53 42 95 102 95s103 -41 103 -95c0 -56 -43 -97 -103 -97zM627 765c-60 0 -102 42 -102 97c0 53 42 95 102 95s103 -41 103 -95c0 -56 -43 -97 -103 -97zM810 710h203l-221 -710h-173l-105 432h-2l-111 -432h-173l-221 710h203
l103 -396h3l95 396h200l93 -396h3z" />
    <glyph glyph-name="Wgrave" unicode="&#x1e80;" horiz-adv-x="1020" 
d="M591 777h-160l-123 153l174 -1zM810 710h203l-221 -710h-173l-105 432h-2l-111 -432h-173l-221 710h203l103 -396h3l95 396h200l93 -396h3z" />
    <glyph glyph-name="X" unicode="X" horiz-adv-x="712" 
d="M483 0l-125 212h-4l-126 -212h-221l222 358l-212 352h217l121 -206h3l121 206h216l-212 -352l222 -358h-222z" />
    <glyph glyph-name="Y" unicode="Y" horiz-adv-x="641" 
d="M427 710h220l-230 -403v-307h-194v307l-229 403h218l109 -217z" />
    <glyph glyph-name="Yacute" unicode="&#xdd;" horiz-adv-x="641" 
d="M515 930l-124 -153h-160l109 152zM427 710h220l-230 -403v-307h-194v307l-229 403h218l109 -217z" />
    <glyph glyph-name="Ycircumflex" unicode="&#x176;" horiz-adv-x="641" 
d="M319 845l-37 -71h-148l106 156h154l114 -156h-150l-37 71h-2zM427 710h220l-230 -403v-307h-194v307l-229 403h218l109 -217z" />
    <glyph glyph-name="Ydieresis" unicode="&#x178;" horiz-adv-x="641" 
d="M201 765c-60 0 -102 42 -102 97c0 53 42 95 102 95s103 -41 103 -95c0 -56 -43 -97 -103 -97zM437 765c-60 0 -102 42 -102 97c0 53 42 95 102 95s103 -41 103 -95c0 -56 -43 -97 -103 -97zM427 710h220l-230 -403v-307h-194v307l-229 403h218l109 -217z" />
    <glyph glyph-name="uni1EF4" unicode="&#x1ef4;" horiz-adv-x="641" 
d="M223 0v307l-229 403h218l109 -217l106 217h220l-230 -403v-307h-194zM320 -68c60 0 103 -42 103 -97c0 -53 -43 -95 -103 -95s-102 41 -102 95c0 56 42 97 102 97z" />
    <glyph glyph-name="Ygrave" unicode="&#x1ef2;" horiz-adv-x="641" 
d="M418 777h-160l-123 153l174 -1zM427 710h220l-230 -403v-307h-194v307l-229 403h218l109 -217z" />
    <glyph glyph-name="uni1EF6" unicode="&#x1ef6;" horiz-adv-x="641" 
d="M311 881c-16 0 -45 -16 -58 -25l-46 46c24 22 68 46 121 46c73 0 111 -34 111 -82c0 -43 -37 -71 -93 -82l-4 -21l-66 -5c-9 10 -17 21 -17 31c0 29 77 44 77 77c0 11 -8 15 -25 15zM427 710h220l-230 -403v-307h-194v307l-229 403h218l109 -217z" />
    <glyph glyph-name="uni0232" unicode="&#x232;" horiz-adv-x="641" 
d="M480 930v-132h-320v132h320zM427 710h220l-230 -403v-307h-194v307l-229 403h218l109 -217z" />
    <glyph glyph-name="uni1EF8" unicode="&#x1ef8;" horiz-adv-x="641" 
d="M271 810c-23 0 -41 -19 -53 -45l-102 41c22 74 69 133 135 133c46 0 70 -14 90 -25c15 -10 29 -17 46 -17c25 0 43 20 55 44l100 -33c-21 -78 -67 -141 -132 -141c-39 0 -65 12 -88 25c-17 9 -33 18 -51 18zM427 710h220l-230 -403v-307h-194v307l-229 403h218l109 -217z
" />
    <glyph glyph-name="Z" unicode="Z" horiz-adv-x="607" 
d="M574 567l-298 -397v-1h298v-169h-541v148l287 390v3h-278v169h532v-143z" />
    <glyph glyph-name="Zacute" unicode="&#x179;" horiz-adv-x="607" 
d="M462 930l-124 -153h-160l109 152zM574 567l-298 -397v-1h298v-169h-541v148l287 390v3h-278v169h532v-143z" />
    <glyph glyph-name="Zcaron" unicode="&#x17d;" horiz-adv-x="607" 
d="M380 774h-154l-113 156h150l36 -72h2l38 72h148zM574 567l-298 -397v-1h298v-169h-541v148l287 390v3h-278v169h532v-143z" />
    <glyph glyph-name="Zdotaccent" unicode="&#x17b;" horiz-adv-x="607" 
d="M300 765c-60 0 -103 42 -103 97c0 53 43 95 103 95s102 -41 102 -95c0 -56 -42 -97 -102 -97zM574 567l-298 -397v-1h298v-169h-541v148l287 390v3h-278v169h532v-143z" />
    <glyph glyph-name="Q.alt" horiz-adv-x="798" 
d="M780 -24l-112 -139l-191 160c-25 -5 -50 -7 -77 -7c-219 0 -370 149 -370 365s151 366 370 366c216 0 368 -148 368 -366c0 -115 -43 -211 -116 -276zM229 355c0 -105 71 -188 171 -188c101 0 170 83 170 188c0 104 -69 188 -170 188c-100 0 -171 -83 -171 -188z" />
    <glyph glyph-name="a" unicode="a" 
d="M367 490h179v-490h-170v46h-1c-29 -38 -72 -56 -126 -56c-134 0 -228 104 -228 255s95 255 217 255c48 0 94 -20 128 -59h1v49zM289 146c47 0 86 39 86 99c0 58 -39 98 -86 98c-51 0 -87 -40 -87 -98c0 -60 36 -99 87 -99z" />
    <glyph glyph-name="aacute" unicode="&#xe1;" 
d="M472 710l-124 -153h-160l109 152zM367 490h179v-490h-170v46h-1c-29 -38 -72 -56 -126 -56c-134 0 -228 104 -228 255s95 255 217 255c48 0 94 -20 128 -59h1v49zM289 146c47 0 86 39 86 99c0 58 -39 98 -86 98c-51 0 -87 -40 -87 -98c0 -60 36 -99 87 -99z" />
    <glyph glyph-name="abreve" unicode="&#x103;" 
d="M291 549c-92 0 -172 57 -180 161h127c2 -28 21 -51 53 -51c28 0 52 17 54 51h127c-7 -88 -72 -161 -181 -161zM367 490h179v-490h-170v46h-1c-29 -38 -72 -56 -126 -56c-134 0 -228 104 -228 255s95 255 217 255c48 0 94 -20 128 -59h1v49zM289 146c47 0 86 39 86 99
c0 58 -39 98 -86 98c-51 0 -87 -40 -87 -98c0 -60 36 -99 87 -99z" />
    <glyph glyph-name="uni1EAF" unicode="&#x1eaf;" 
d="M477 889l-124 -153h-160l109 152zM290 549c-92 0 -172 57 -180 161h127c2 -28 21 -51 53 -51c28 0 52 17 54 51h127c-7 -88 -72 -161 -181 -161zM367 490h179v-490h-170v46h-1c-29 -38 -72 -56 -126 -56c-134 0 -228 104 -228 255s95 255 217 255c48 0 94 -20 128 -59h1
v49zM289 146c47 0 86 39 86 99c0 58 -39 98 -86 98c-51 0 -87 -40 -87 -98c0 -60 36 -99 87 -99z" />
    <glyph glyph-name="uni1EB7" unicode="&#x1eb7;" 
d="M290 549c-92 0 -172 57 -180 161h127c2 -28 21 -51 53 -51c28 0 52 17 54 51h127c-7 -88 -72 -161 -181 -161zM367 490h179v-490h-170v46h-1c-29 -38 -72 -56 -126 -56c-134 0 -228 104 -228 255s95 255 217 255c48 0 94 -20 128 -59h1v49zM289 146c47 0 86 39 86 99
c0 58 -39 98 -86 98c-51 0 -87 -40 -87 -98c0 -60 36 -99 87 -99zM290 -68c60 0 103 -42 103 -97c0 -53 -43 -95 -103 -95s-102 41 -102 95c0 56 42 97 102 97z" />
    <glyph glyph-name="uni1EB1" unicode="&#x1eb1;" 
d="M340 736h-160l-123 153l174 -1zM285 659c28 0 52 17 54 51h127c-7 -88 -72 -161 -181 -161c-92 0 -172 57 -180 161h127c2 -28 21 -51 53 -51zM367 490h179v-490h-170v46h-1c-29 -38 -72 -56 -126 -56c-134 0 -228 104 -228 255s95 255 217 255c48 0 94 -20 128 -59h1v49
zM289 146c47 0 86 39 86 99c0 58 -39 98 -86 98c-51 0 -87 -40 -87 -98c0 -60 36 -99 87 -99z" />
    <glyph glyph-name="uni1EB3" unicode="&#x1eb3;" 
d="M280 845c-16 0 -45 -16 -58 -25l-46 46c24 22 68 46 121 46c73 0 111 -34 111 -82c0 -43 -37 -71 -93 -82l-4 -21l-66 -5c-9 10 -17 21 -17 31c0 29 77 44 77 77c0 11 -8 15 -25 15zM289 549c-92 0 -172 57 -180 161h127c2 -28 21 -51 53 -51c28 0 52 17 54 51h127
c-7 -88 -72 -161 -181 -161zM367 490h179v-490h-170v46h-1c-29 -38 -72 -56 -126 -56c-134 0 -228 104 -228 255s95 255 217 255c48 0 94 -20 128 -59h1v49zM289 146c47 0 86 39 86 99c0 58 -39 98 -86 98c-51 0 -87 -40 -87 -98c0 -60 36 -99 87 -99z" />
    <glyph glyph-name="uni1EB5" unicode="&#x1eb5;" 
d="M253 774c-18 0 -32 -19 -44 -45l-102 41c23 74 65 133 128 133c40 0 56 -14 76 -25c15 -10 28 -17 41 -17c22 0 39 20 51 44l100 -33c-21 -78 -76 -141 -138 -141c-34 0 -50 12 -73 25c-16 9 -26 18 -39 18zM288 659c28 0 52 17 54 51h127c-7 -88 -72 -161 -181 -161
c-92 0 -172 57 -180 161h127c2 -28 21 -51 53 -51zM367 490h179v-490h-170v46h-1c-29 -38 -72 -56 -126 -56c-134 0 -228 104 -228 255s95 255 217 255c48 0 94 -20 128 -59h1v49zM289 146c47 0 86 39 86 99c0 58 -39 98 -86 98c-51 0 -87 -40 -87 -98c0 -60 36 -99 87 -99z
" />
    <glyph glyph-name="acircumflex" unicode="&#xe2;" 
d="M289 625l-37 -71h-148l106 156h154l114 -156h-150l-37 71h-2zM367 490h179v-490h-170v46h-1c-29 -38 -72 -56 -126 -56c-134 0 -228 104 -228 255s95 255 217 255c48 0 94 -20 128 -59h1v49zM289 146c47 0 86 39 86 99c0 58 -39 98 -86 98c-51 0 -87 -40 -87 -98
c0 -60 36 -99 87 -99z" />
    <glyph glyph-name="uni1EA5" unicode="&#x1ea5;" 
d="M526 808l160 1l-138 -153h-131zM288 625l-37 -71h-148l106 156h154l114 -156h-150l-37 71h-2zM367 441v49h179v-490h-170v46h-1c-29 -38 -72 -56 -126 -56c-134 0 -228 104 -228 255s95 255 217 255c48 0 94 -20 128 -59h1zM289 146c47 0 86 39 86 99c0 58 -39 98 -86 98
c-51 0 -87 -40 -87 -98c0 -60 36 -99 87 -99z" />
    <glyph glyph-name="uni1EAD" unicode="&#x1ead;" 
d="M290 625l-37 -71h-148l106 156h154l114 -156h-150l-37 71h-2zM367 490h179v-490h-170v46h-1c-29 -38 -72 -56 -126 -56c-134 0 -228 104 -228 255s95 255 217 255c48 0 94 -20 128 -59h1v49zM289 146c47 0 86 39 86 99c0 58 -39 98 -86 98c-51 0 -87 -40 -87 -98
c0 -60 36 -99 87 -99zM290 -68c60 0 103 -42 103 -97c0 -53 -43 -95 -103 -95s-102 41 -102 95c0 56 42 97 102 97z" />
    <glyph glyph-name="uni1EA7" unicode="&#x1ea7;" 
d="M588 658h-124l-113 153l152 -1zM289 625l-37 -71h-148l106 156h154l114 -156h-150l-37 71h-2zM367 441v49h179v-490h-170v46h-1c-29 -38 -72 -56 -126 -56c-134 0 -228 104 -228 255s95 255 217 255c48 0 94 -20 128 -59h1zM289 146c47 0 86 39 86 99c0 58 -39 98 -86 98
c-51 0 -87 -40 -87 -98c0 -60 36 -99 87 -99z" />
    <glyph glyph-name="uni1EA9" unicode="&#x1ea9;" 
d="M503 819c67 0 106 -34 106 -83c0 -42 -37 -70 -88 -82l-4 -21l-66 -4c-9 10 -16 21 -16 31c0 29 76 43 76 76c0 12 -8 16 -25 16c-16 0 -45 -17 -58 -26l-46 46c24 22 68 47 121 47zM290 625l-37 -71h-148l106 156h154l114 -156h-150l-37 71h-2zM367 441v49h179v-490
h-170v46h-1c-29 -38 -72 -56 -126 -56c-134 0 -228 104 -228 255s95 255 217 255c48 0 94 -20 128 -59h1zM289 146c47 0 86 39 86 99c0 58 -39 98 -86 98c-51 0 -87 -40 -87 -98c0 -60 36 -99 87 -99z" />
    <glyph glyph-name="uni1EAB" unicode="&#x1eab;" 
d="M255 774c-18 0 -32 -19 -44 -45l-102 41c23 74 65 133 128 133c40 0 56 -14 76 -25c15 -10 28 -17 41 -17c22 0 39 20 51 44l100 -33c-21 -78 -76 -141 -138 -141c-34 0 -50 12 -73 25c-16 9 -26 18 -39 18zM290 625l-37 -71h-148l106 156h154l114 -156h-150l-37 71h-2z
M367 490h179v-490h-170v46h-1c-29 -38 -72 -56 -126 -56c-134 0 -228 104 -228 255s95 255 217 255c48 0 94 -20 128 -59h1v49zM289 146c47 0 86 39 86 99c0 58 -39 98 -86 98c-51 0 -87 -40 -87 -98c0 -60 36 -99 87 -99z" />
    <glyph glyph-name="adieresis" unicode="&#xe4;" 
d="M171 545c-60 0 -102 42 -102 97c0 53 42 95 102 95s103 -41 103 -95c0 -56 -43 -97 -103 -97zM407 545c-60 0 -102 42 -102 97c0 53 42 95 102 95s103 -41 103 -95c0 -56 -43 -97 -103 -97zM367 490h179v-490h-170v46h-1c-29 -38 -72 -56 -126 -56
c-134 0 -228 104 -228 255s95 255 217 255c48 0 94 -20 128 -59h1v49zM289 146c47 0 86 39 86 99c0 58 -39 98 -86 98c-51 0 -87 -40 -87 -98c0 -60 36 -99 87 -99z" />
    <glyph glyph-name="uni1EA1" unicode="&#x1ea1;" 
d="M367 490h179v-490h-170v46h-1c-29 -38 -72 -56 -126 -56c-134 0 -228 104 -228 255s95 255 217 255c48 0 94 -20 128 -59h1v49zM289 146c47 0 86 39 86 99c0 58 -39 98 -86 98c-51 0 -87 -40 -87 -98c0 -60 36 -99 87 -99zM290 -68c60 0 103 -42 103 -97
c0 -53 -43 -95 -103 -95s-102 41 -102 95c0 56 42 97 102 97z" />
    <glyph glyph-name="agrave" unicode="&#xe0;" 
d="M394 557h-160l-123 153l174 -1zM367 490h179v-490h-170v46h-1c-29 -38 -72 -56 -126 -56c-134 0 -228 104 -228 255s95 255 217 255c48 0 94 -20 128 -59h1v49zM289 146c47 0 86 39 86 99c0 58 -39 98 -86 98c-51 0 -87 -40 -87 -98c0 -60 36 -99 87 -99z" />
    <glyph glyph-name="uni1EA3" unicode="&#x1ea3;" 
d="M281 661c-16 0 -45 -16 -58 -25l-46 46c24 22 68 46 121 46c73 0 111 -34 111 -82c0 -43 -37 -71 -93 -82l-4 -21l-66 -5c-9 10 -17 21 -17 31c0 29 77 44 77 77c0 11 -8 15 -25 15zM367 490h179v-490h-170v46h-1c-29 -38 -72 -56 -126 -56c-134 0 -228 104 -228 255
s95 255 217 255c48 0 94 -20 128 -59h1v49zM289 146c47 0 86 39 86 99c0 58 -39 98 -86 98c-51 0 -87 -40 -87 -98c0 -60 36 -99 87 -99z" />
    <glyph glyph-name="amacron" unicode="&#x101;" 
d="M451 710v-132h-320v132h320zM367 490h179v-490h-170v46h-1c-29 -38 -72 -56 -126 -56c-134 0 -228 104 -228 255s95 255 217 255c48 0 94 -20 128 -59h1v49zM289 146c47 0 86 39 86 99c0 58 -39 98 -86 98c-51 0 -87 -40 -87 -98c0 -60 36 -99 87 -99z" />
    <glyph glyph-name="aogonek" unicode="&#x105;" 
d="M367 490h179v-490h-10c-62 0 -99 -34 -99 -66c0 -25 15 -38 36 -38c20 0 26 3 35 4l7 -82c-21 -8 -53 -11 -77 -11c-79 0 -126 42 -126 98c0 33 17 76 64 102v39h-1c-29 -38 -72 -56 -126 -56c-134 0 -228 104 -228 255s95 255 217 255c48 0 94 -20 128 -59h1v49z
M289 146c47 0 86 39 86 99c0 58 -39 98 -86 98c-51 0 -87 -40 -87 -98c0 -60 36 -99 87 -99z" />
    <glyph glyph-name="aring" unicode="&#xe5;" 
d="M291 538c-61 0 -111 43 -111 106c0 59 44 106 111 106c61 0 111 -43 111 -106c0 -58 -44 -106 -111 -106zM291 680c-19 0 -34 -16 -34 -35s15 -34 34 -34s34 16 34 35s-15 34 -34 34zM367 490h179v-490h-170v46h-1c-29 -38 -72 -56 -126 -56c-134 0 -228 104 -228 255
s95 255 217 255c48 0 94 -20 128 -59h1v49zM289 146c47 0 86 39 86 99c0 58 -39 98 -86 98c-51 0 -87 -40 -87 -98c0 -60 36 -99 87 -99z" />
    <glyph glyph-name="aringacute" unicode="&#x1fb;" 
d="M291 538c-61 0 -111 43 -111 106c0 59 44 106 111 106c28 0 53 -9 73 -25l69 56h174l-212 -175c-14 -40 -52 -68 -104 -68zM291 680c-19 0 -34 -16 -34 -35s15 -34 34 -34s34 16 34 35s-15 34 -34 34zM367 441v49h179v-490h-170v46h-1c-29 -38 -72 -56 -126 -56
c-134 0 -228 104 -228 255s95 255 217 255c48 0 94 -20 128 -59h1zM289 146c47 0 86 39 86 99c0 58 -39 98 -86 98c-51 0 -87 -40 -87 -98c0 -60 36 -99 87 -99z" />
    <glyph glyph-name="atilde" unicode="&#xe3;" 
d="M241 590c-23 0 -41 -19 -53 -45l-102 41c22 74 69 133 135 133c46 0 70 -14 90 -25c15 -10 29 -17 46 -17c25 0 43 20 55 44l100 -33c-21 -78 -67 -141 -132 -141c-39 0 -65 12 -88 25c-17 9 -33 18 -51 18zM367 490h179v-490h-170v46h-1c-29 -38 -72 -56 -126 -56
c-134 0 -228 104 -228 255s95 255 217 255c48 0 94 -20 128 -59h1v49zM289 146c47 0 86 39 86 99c0 58 -39 98 -86 98c-51 0 -87 -40 -87 -98c0 -60 36 -99 87 -99z" />
    <glyph glyph-name="ae" unicode="&#xe6;" horiz-adv-x="790" 
d="M769 246c0 -13 -2 -29 -5 -44h-308c14 -44 48 -68 97 -68c52 0 90 32 106 51l90 -102c-42 -52 -120 -93 -214 -93c-63 0 -118 25 -155 59h-2c-41 -38 -112 -59 -175 -59c-128 0 -185 65 -185 152c0 94 57 153 203 153l63 1v2c0 52 -20 67 -60 67c-20 0 -58 -5 -99 -30
l-77 118c18 10 105 47 185 47c65 0 114 -12 148 -52h1c38 33 87 52 145 52c137 0 242 -108 242 -254zM526 359c-32 0 -60 -18 -71 -64h140c-6 41 -27 64 -69 64zM226 111c41 0 58 37 58 50v44l-42 -1c-35 -1 -58 -16 -58 -48c0 -29 15 -45 42 -45z" />
    <glyph glyph-name="aeacute" unicode="&#x1fd;" horiz-adv-x="790" 
d="M583 710l-124 -153h-160l109 152zM769 246c0 -13 -2 -29 -5 -44h-308c14 -44 48 -68 97 -68c52 0 90 32 106 51l90 -102c-42 -52 -120 -93 -214 -93c-63 0 -118 25 -155 59h-2c-41 -38 -112 -59 -175 -59c-128 0 -185 65 -185 152c0 94 57 153 203 153l63 1v2
c0 52 -20 67 -60 67c-20 0 -58 -5 -99 -30l-77 118c18 10 105 47 185 47c65 0 114 -12 148 -52h1c38 33 87 52 145 52c137 0 242 -108 242 -254zM526 359c-32 0 -60 -18 -71 -64h140c-6 41 -27 64 -69 64zM226 111c41 0 58 37 58 50v44l-42 -1c-35 -1 -58 -16 -58 -48
c0 -29 15 -45 42 -45z" />
    <glyph glyph-name="b" unicode="b" horiz-adv-x="596" 
d="M356 500c123 0 217 -104 217 -255s-94 -255 -228 -255c-56 0 -100 18 -130 56h-2v-46h-169v736h179v-296h1c34 40 81 60 132 60zM306 146c50 0 87 39 87 99c0 58 -37 98 -87 98c-53 0 -91 -40 -91 -98c0 -60 38 -99 91 -99z" />
    <glyph glyph-name="c" unicode="c" horiz-adv-x="517" 
d="M280 -10c-147 0 -257 104 -257 255s110 255 269 255c81 0 164 -34 213 -101l-118 -101c-22 26 -51 44 -91 44c-56 0 -93 -40 -93 -96c0 -57 38 -98 95 -98c46 0 73 22 88 40l122 -105c-42 -52 -120 -93 -228 -93z" />
    <glyph glyph-name="cacute" unicode="&#x107;" horiz-adv-x="517" 
d="M205 557l109 152l175 1l-124 -153h-160zM280 -10c-147 0 -257 104 -257 255s110 255 269 255c81 0 164 -34 213 -101l-118 -101c-22 26 -51 44 -91 44c-56 0 -93 -40 -93 -96c0 -57 38 -98 95 -98c46 0 73 22 88 40l122 -105c-42 -52 -120 -93 -228 -93z" />
    <glyph glyph-name="ccaron" unicode="&#x10d;" horiz-adv-x="517" 
d="M366 554h-154l-113 156h150l36 -72h2l38 72h148zM386 188l122 -105c-42 -52 -120 -93 -228 -93c-147 0 -257 104 -257 255s110 255 269 255c81 0 164 -34 213 -101l-118 -101c-22 26 -51 44 -91 44c-56 0 -93 -40 -93 -96c0 -57 38 -98 95 -98c46 0 73 22 88 40z" />
    <glyph glyph-name="ccedilla" unicode="&#xe7;" horiz-adv-x="517" 
d="M296 -10l-11 -19v-1c55 -1 92 -29 92 -81c0 -49 -39 -83 -130 -83c-35 0 -52 3 -67 6v68c13 -4 27 -7 54 -7c17 0 40 4 40 25c0 19 -29 28 -77 28v39l17 30v2c-113 27 -191 121 -191 248c0 151 110 255 269 255c81 0 164 -34 213 -101l-118 -101c-22 26 -51 44 -91 44
c-56 0 -93 -40 -93 -96c0 -57 38 -98 95 -98c46 0 73 22 88 40l122 -105c-40 -49 -112 -89 -212 -93z" />
    <glyph glyph-name="ccircumflex" unicode="&#x109;" horiz-adv-x="517" 
d="M284 625l-37 -71h-148l106 156h154l114 -156h-150l-37 71h-2zM386 188l122 -105c-42 -52 -120 -93 -228 -93c-147 0 -257 104 -257 255s110 255 269 255c81 0 164 -34 213 -101l-118 -101c-22 26 -51 44 -91 44c-56 0 -93 -40 -93 -96c0 -57 38 -98 95 -98
c46 0 73 22 88 40z" />
    <glyph glyph-name="cdotaccent" unicode="&#x10b;" horiz-adv-x="517" 
d="M286 545c-60 0 -103 42 -103 97c0 53 43 95 103 95s102 -41 102 -95c0 -56 -42 -97 -102 -97zM280 -10c-147 0 -257 104 -257 255s110 255 269 255c81 0 164 -34 213 -101l-118 -101c-22 26 -51 44 -91 44c-56 0 -93 -40 -93 -96c0 -57 38 -98 95 -98c46 0 73 22 88 40
l122 -105c-42 -52 -120 -93 -228 -93z" />
    <glyph glyph-name="d" unicode="d" horiz-adv-x="595" 
d="M372 736h179v-736h-170v46h-1c-30 -38 -74 -56 -130 -56c-135 0 -228 104 -228 255s94 255 217 255c51 0 97 -20 132 -60h1v296zM289 146c52 0 90 39 90 99c0 58 -38 98 -90 98c-50 0 -87 -40 -87 -98c0 -60 37 -99 87 -99z" />
    <glyph glyph-name="eth" unicode="&#xf0;" horiz-adv-x="573" 
d="M548 259v-1c0 -164 -110 -268 -268 -268c-147 0 -257 102 -257 234c0 141 103 222 226 222c22 0 48 -4 73 -10l1 2c-20 35 -44 67 -72 94l-62 -47l-73 85l42 33c-20 12 -42 22 -64 30l65 110c41 -14 79 -30 115 -49l69 54l73 -89l-40 -31v-2c108 -89 172 -213 172 -367z
M285 147c46 0 84 37 84 89c0 43 -34 79 -87 79c-43 0 -79 -36 -79 -79c0 -48 32 -89 82 -89z" />
    <glyph glyph-name="dcaron" unicode="&#x10f;" horiz-adv-x="654" 
d="M630 799h167l-77 -226h-124zM372 440v296h179v-736h-170v46h-1c-30 -38 -74 -56 -130 -56c-135 0 -228 104 -228 255s94 255 217 255c51 0 97 -20 132 -60h1zM289 146c52 0 90 39 90 99c0 58 -38 98 -90 98c-50 0 -87 -40 -87 -98c0 -60 37 -99 87 -99z" />
    <glyph glyph-name="dcroat" unicode="&#x111;" horiz-adv-x="597" 
d="M603 637v-101h-52v-536h-170v46h-1c-30 -38 -74 -56 -130 -56c-135 0 -228 104 -228 255s94 255 217 255c51 0 97 -20 132 -60h1v96h-76v101h76v99h179v-99h52zM289 146c52 0 90 39 90 99c0 58 -38 98 -90 98c-50 0 -87 -40 -87 -98c0 -60 37 -99 87 -99z" />
    <glyph glyph-name="e" unicode="e" horiz-adv-x="545" 
d="M523 249c0 -12 -2 -36 -4 -48h-321c8 -47 49 -70 101 -70c44 0 79 19 113 54l92 -102c-42 -51 -120 -93 -224 -93c-147 0 -257 104 -257 255c0 148 106 255 254 255c141 0 246 -104 246 -251zM276 364c-40 0 -70 -24 -78 -66h152c-8 42 -36 66 -74 66z" />
    <glyph glyph-name="eacute" unicode="&#xe9;" horiz-adv-x="545" 
d="M494 710l-124 -153h-160l109 152zM523 249c0 -12 -2 -36 -4 -48h-321c8 -47 49 -70 101 -70c44 0 79 19 113 54l92 -102c-42 -51 -120 -93 -224 -93c-147 0 -257 104 -257 255c0 148 106 255 254 255c141 0 246 -104 246 -251zM276 364c-40 0 -70 -24 -78 -66h152
c-8 42 -36 66 -74 66z" />
    <glyph glyph-name="ebreve" unicode="&#x115;" horiz-adv-x="545" 
d="M284 549c-92 0 -172 57 -180 161h127c2 -28 21 -51 53 -51c28 0 52 17 54 51h127c-7 -88 -72 -161 -181 -161zM523 249c0 -12 -2 -36 -4 -48h-321c8 -47 49 -70 101 -70c44 0 79 19 113 54l92 -102c-42 -51 -120 -93 -224 -93c-147 0 -257 104 -257 255
c0 148 106 255 254 255c141 0 246 -104 246 -251zM276 364c-40 0 -70 -24 -78 -66h152c-8 42 -36 66 -74 66z" />
    <glyph glyph-name="ecaron" unicode="&#x11b;" horiz-adv-x="545" 
d="M365 554h-154l-113 156h150l36 -72h2l38 72h148zM523 249c0 -12 -2 -36 -4 -48h-321c8 -47 49 -70 101 -70c44 0 79 19 113 54l92 -102c-42 -51 -120 -93 -224 -93c-147 0 -257 104 -257 255c0 148 106 255 254 255c141 0 246 -104 246 -251zM276 364
c-40 0 -70 -24 -78 -66h152c-8 42 -36 66 -74 66z" />
    <glyph glyph-name="ecircumflex" unicode="&#xea;" horiz-adv-x="545" 
d="M283 625l-37 -71h-148l106 156h154l114 -156h-150l-37 71h-2zM523 249c0 -12 -2 -36 -4 -48h-321c8 -47 49 -70 101 -70c44 0 79 19 113 54l92 -102c-42 -51 -120 -93 -224 -93c-147 0 -257 104 -257 255c0 148 106 255 254 255c141 0 246 -104 246 -251zM276 364
c-40 0 -70 -24 -78 -66h152c-8 42 -36 66 -74 66z" />
    <glyph glyph-name="uni1EBF" unicode="&#x1ebf;" horiz-adv-x="545" 
d="M513 808l160 1l-138 -153h-131zM275 625l-37 -71h-148l106 156h154l114 -156h-150l-37 71h-2zM277 500c141 0 246 -104 246 -251c0 -12 -2 -36 -4 -48h-321c8 -47 49 -70 101 -70c44 0 79 19 113 54l92 -102c-42 -51 -120 -93 -224 -93c-147 0 -257 104 -257 255
c0 148 106 255 254 255zM276 364c-40 0 -70 -24 -78 -66h152c-8 42 -36 66 -74 66z" />
    <glyph glyph-name="uni1EC7" unicode="&#x1ec7;" horiz-adv-x="545" 
d="M277 625l-37 -71h-148l106 156h154l114 -156h-150l-37 71h-2zM523 249c0 -12 -2 -36 -4 -48h-321c8 -47 49 -70 101 -70c44 0 79 19 113 54l92 -102c-42 -51 -120 -93 -224 -93c-147 0 -257 104 -257 255c0 148 106 255 254 255c141 0 246 -104 246 -251zM276 364
c-40 0 -70 -24 -78 -66h152c-8 42 -36 66 -74 66zM279 -68c60 0 103 -42 103 -97c0 -53 -43 -95 -103 -95s-102 41 -102 95c0 56 42 97 102 97z" />
    <glyph glyph-name="uni1EC1" unicode="&#x1ec1;" horiz-adv-x="545" 
d="M575 658h-124l-113 153l152 -1zM276 625l-37 -71h-148l106 156h154l114 -156h-150l-37 71h-2zM277 500c141 0 246 -104 246 -251c0 -12 -2 -36 -4 -48h-321c8 -47 49 -70 101 -70c44 0 79 19 113 54l92 -102c-42 -51 -120 -93 -224 -93c-147 0 -257 104 -257 255
c0 148 106 255 254 255zM276 364c-40 0 -70 -24 -78 -66h152c-8 42 -36 66 -74 66z" />
    <glyph glyph-name="uni1EC3" unicode="&#x1ec3;" horiz-adv-x="545" 
d="M490 819c67 0 106 -34 106 -83c0 -42 -37 -70 -88 -82l-4 -21l-66 -4c-9 10 -16 21 -16 31c0 29 76 43 76 76c0 12 -8 16 -25 16c-16 0 -45 -17 -58 -26l-46 46c24 22 68 47 121 47zM277 625l-37 -71h-148l106 156h154l114 -156h-150l-37 71h-2zM277 500
c141 0 246 -104 246 -251c0 -12 -2 -36 -4 -48h-321c8 -47 49 -70 101 -70c44 0 79 19 113 54l92 -102c-42 -51 -120 -93 -224 -93c-147 0 -257 104 -257 255c0 148 106 255 254 255zM276 364c-40 0 -70 -24 -78 -66h152c-8 42 -36 66 -74 66z" />
    <glyph glyph-name="uni1EC5" unicode="&#x1ec5;" horiz-adv-x="545" 
d="M242 774c-18 0 -32 -19 -44 -45l-102 41c23 74 65 133 128 133c40 0 56 -14 76 -25c15 -10 28 -17 41 -17c22 0 39 20 51 44l100 -33c-21 -78 -76 -141 -138 -141c-34 0 -50 12 -73 25c-16 9 -26 18 -39 18zM277 625l-37 -71h-148l106 156h154l114 -156h-150l-37 71h-2z
M523 249c0 -12 -2 -36 -4 -48h-321c8 -47 49 -70 101 -70c44 0 79 19 113 54l92 -102c-42 -51 -120 -93 -224 -93c-147 0 -257 104 -257 255c0 148 106 255 254 255c141 0 246 -104 246 -251zM276 364c-40 0 -70 -24 -78 -66h152c-8 42 -36 66 -74 66z" />
    <glyph glyph-name="edieresis" unicode="&#xeb;" horiz-adv-x="545" 
d="M164 545c-60 0 -102 42 -102 97c0 53 42 95 102 95s103 -41 103 -95c0 -56 -43 -97 -103 -97zM400 545c-60 0 -102 42 -102 97c0 53 42 95 102 95s103 -41 103 -95c0 -56 -43 -97 -103 -97zM523 249c0 -12 -2 -36 -4 -48h-321c8 -47 49 -70 101 -70c44 0 79 19 113 54
l92 -102c-42 -51 -120 -93 -224 -93c-147 0 -257 104 -257 255c0 148 106 255 254 255c141 0 246 -104 246 -251zM276 364c-40 0 -70 -24 -78 -66h152c-8 42 -36 66 -74 66z" />
    <glyph glyph-name="edotaccent" unicode="&#x117;" horiz-adv-x="545" 
d="M284 545c-60 0 -103 42 -103 97c0 53 43 95 103 95s102 -41 102 -95c0 -56 -42 -97 -102 -97zM523 249c0 -12 -2 -36 -4 -48h-321c8 -47 49 -70 101 -70c44 0 79 19 113 54l92 -102c-42 -51 -120 -93 -224 -93c-147 0 -257 104 -257 255c0 148 106 255 254 255
c141 0 246 -104 246 -251zM276 364c-40 0 -70 -24 -78 -66h152c-8 42 -36 66 -74 66z" />
    <glyph glyph-name="uni1EB9" unicode="&#x1eb9;" horiz-adv-x="545" 
d="M523 249c0 -12 -2 -36 -4 -48h-321c8 -47 49 -70 101 -70c44 0 79 19 113 54l92 -102c-42 -51 -120 -93 -224 -93c-147 0 -257 104 -257 255c0 148 106 255 254 255c141 0 246 -104 246 -251zM276 364c-40 0 -70 -24 -78 -66h152c-8 42 -36 66 -74 66zM279 -68
c60 0 103 -42 103 -97c0 -53 -43 -95 -103 -95s-102 41 -102 95c0 56 42 97 102 97z" />
    <glyph glyph-name="egrave" unicode="&#xe8;" horiz-adv-x="545" 
d="M384 557h-160l-123 153l174 -1zM523 249c0 -12 -2 -36 -4 -48h-321c8 -47 49 -70 101 -70c44 0 79 19 113 54l92 -102c-42 -51 -120 -93 -224 -93c-147 0 -257 104 -257 255c0 148 106 255 254 255c141 0 246 -104 246 -251zM276 364c-40 0 -70 -24 -78 -66h152
c-8 42 -36 66 -74 66z" />
    <glyph glyph-name="uni1EBB" unicode="&#x1ebb;" horiz-adv-x="545" 
d="M268 661c-16 0 -45 -16 -58 -25l-46 46c24 22 68 46 121 46c73 0 111 -34 111 -82c0 -43 -37 -71 -93 -82l-4 -21l-66 -5c-9 10 -17 21 -17 31c0 29 77 44 77 77c0 11 -8 15 -25 15zM523 249c0 -12 -2 -36 -4 -48h-321c8 -47 49 -70 101 -70c44 0 79 19 113 54l92 -102
c-42 -51 -120 -93 -224 -93c-147 0 -257 104 -257 255c0 148 106 255 254 255c141 0 246 -104 246 -251zM276 364c-40 0 -70 -24 -78 -66h152c-8 42 -36 66 -74 66z" />
    <glyph glyph-name="emacron" unicode="&#x113;" horiz-adv-x="545" 
d="M444 710v-132h-320v132h320zM523 249c0 -12 -2 -36 -4 -48h-321c8 -47 49 -70 101 -70c44 0 79 19 113 54l92 -102c-42 -51 -120 -93 -224 -93c-147 0 -257 104 -257 255c0 148 106 255 254 255c141 0 246 -104 246 -251zM276 364c-40 0 -70 -24 -78 -66h152
c-8 42 -36 66 -74 66z" />
    <glyph glyph-name="eogonek" unicode="&#x119;" horiz-adv-x="545" 
d="M523 249c0 -12 -2 -36 -4 -48h-321c8 -47 49 -70 101 -70c44 0 79 19 113 54l92 -102c-27 -32 -68 -61 -121 -78h1c-48 -14 -86 -39 -86 -71c0 -25 15 -38 36 -38c24 0 26 3 36 4l6 -82c-22 -8 -53 -11 -77 -11c-79 0 -126 42 -126 98c0 28 13 63 45 89v3
c-115 24 -195 119 -195 248c0 148 106 255 254 255c141 0 246 -104 246 -251zM276 364c-40 0 -70 -24 -78 -66h152c-8 42 -36 66 -74 66z" />
    <glyph glyph-name="uni1EBD" unicode="&#x1ebd;" horiz-adv-x="545" 
d="M228 590c-23 0 -41 -19 -53 -45l-102 41c22 74 69 133 135 133c46 0 70 -14 90 -25c15 -10 29 -17 46 -17c25 0 43 20 55 44l100 -33c-21 -78 -67 -141 -132 -141c-39 0 -65 12 -88 25c-17 9 -33 18 -51 18zM523 249c0 -12 -2 -36 -4 -48h-321c8 -47 49 -70 101 -70
c44 0 79 19 113 54l92 -102c-42 -51 -120 -93 -224 -93c-147 0 -257 104 -257 255c0 148 106 255 254 255c141 0 246 -104 246 -251zM276 364c-40 0 -70 -24 -78 -66h152c-8 42 -36 66 -74 66z" />
    <glyph glyph-name="f" unicode="f" horiz-adv-x="349" 
d="M61 0v348h-44v142h44v70c0 127 69 187 168 187c70 0 124 -30 136 -40l-31 -122c-15 9 -40 14 -51 14c-24 0 -43 -9 -43 -42v-67h80v-142h-80v-348h-179z" />
    <glyph glyph-name="g" unicode="g" 
d="M367 490h179v-419c0 -164 -65 -279 -271 -279c-83 0 -140 12 -203 45l39 141c35 -22 95 -40 141 -40c79 0 120 36 120 79v45h-1c-31 -34 -74 -52 -130 -52c-130 0 -220 104 -220 240c0 146 92 250 210 250c53 0 100 -20 135 -59h1v49zM289 167c48 0 86 35 86 87
s-38 88 -86 88c-49 0 -87 -36 -87 -88s38 -87 87 -87z" />
    <glyph glyph-name="gbreve" unicode="&#x11f;" 
d="M297 549c-92 0 -172 57 -180 161h127c2 -28 21 -51 53 -51c28 0 52 17 54 51h127c-7 -88 -72 -161 -181 -161zM367 490h179v-419c0 -164 -65 -279 -271 -279c-83 0 -140 12 -203 45l39 141c35 -22 95 -40 141 -40c79 0 120 36 120 79v45h-1c-31 -34 -74 -52 -130 -52
c-130 0 -220 104 -220 240c0 146 92 250 210 250c53 0 100 -20 135 -59h1v49zM289 167c48 0 86 35 86 87s-38 88 -86 88c-49 0 -87 -36 -87 -88s38 -87 87 -87z" />
    <glyph glyph-name="gcaron" unicode="&#x1e7;" 
d="M377 554h-154l-113 156h150l36 -72h2l38 72h148zM367 490h179v-419c0 -164 -65 -279 -271 -279c-83 0 -140 12 -203 45l39 141c35 -22 95 -40 141 -40c79 0 120 36 120 79v45h-1c-31 -34 -74 -52 -130 -52c-130 0 -220 104 -220 240c0 146 92 250 210 250
c53 0 100 -20 135 -59h1v49zM289 167c48 0 86 35 86 87s-38 88 -86 88c-49 0 -87 -36 -87 -88s38 -87 87 -87z" />
    <glyph glyph-name="gcircumflex" unicode="&#x11d;" 
d="M295 625l-37 -71h-148l106 156h154l114 -156h-150l-37 71h-2zM367 490h179v-419c0 -164 -65 -279 -271 -279c-83 0 -140 12 -203 45l39 141c35 -22 95 -40 141 -40c79 0 120 36 120 79v45h-1c-31 -34 -74 -52 -130 -52c-130 0 -220 104 -220 240c0 146 92 250 210 250
c53 0 100 -20 135 -59h1v49zM289 167c48 0 86 35 86 87s-38 88 -86 88c-49 0 -87 -36 -87 -88s38 -87 87 -87z" />
    <glyph glyph-name="gcommaaccent" unicode="&#x123;" 
d="M368 570h-140c-4 13 -6 25 -6 39c0 84 52 130 163 130l30 -95c-37 -5 -54 -15 -54 -39c0 -9 2 -21 7 -35zM367 490h179v-419c0 -164 -65 -279 -271 -279c-83 0 -140 12 -203 45l39 141c35 -22 95 -40 141 -40c79 0 120 36 120 79v45h-1c-31 -34 -74 -52 -130 -52
c-130 0 -220 104 -220 240c0 146 92 250 210 250c53 0 100 -20 135 -59h1v49zM289 167c48 0 86 35 86 87s-38 88 -86 88c-49 0 -87 -36 -87 -88s38 -87 87 -87z" />
    <glyph glyph-name="gdotaccent" unicode="&#x121;" 
d="M297 545c-60 0 -103 42 -103 97c0 53 43 95 103 95s102 -41 102 -95c0 -56 -42 -97 -102 -97zM367 490h179v-419c0 -164 -65 -279 -271 -279c-83 0 -140 12 -203 45l39 141c35 -22 95 -40 141 -40c79 0 120 36 120 79v45h-1c-31 -34 -74 -52 -130 -52
c-130 0 -220 104 -220 240c0 146 92 250 210 250c53 0 100 -20 135 -59h1v49zM289 167c48 0 86 35 86 87s-38 88 -86 88c-49 0 -87 -36 -87 -88s38 -87 87 -87z" />
    <glyph glyph-name="h" unicode="h" horiz-adv-x="581" 
d="M368 500c99 0 174 -45 174 -204v-296h-179v253c0 70 -20 89 -69 89c-43 0 -71 -29 -71 -96v-246h-179v736h179v-301h1c37 43 88 65 144 65z" />
    <glyph glyph-name="hbar" unicode="&#x127;" horiz-adv-x="581" 
d="M368 500c99 0 174 -45 174 -204v-296h-179v253c0 70 -20 89 -69 89c-43 0 -71 -29 -71 -96v-246h-179v536h-46v101h46v99h179v-99h82v-101h-82v-101h1c37 43 88 65 144 65z" />
    <glyph glyph-name="hcircumflex" unicode="&#x125;" horiz-adv-x="581" 
d="M267 858l-37 -71h-148l106 156h154l114 -156h-150l-37 71h-2zM368 500c99 0 174 -45 174 -204v-296h-179v253c0 70 -20 89 -69 89c-43 0 -71 -29 -71 -96v-246h-179v736h179v-301h1c37 43 88 65 144 65z" />
    <glyph glyph-name="i" unicode="i" horiz-adv-x="275" 
d="M138 545c-60 0 -103 42 -103 97c0 53 43 95 103 95s102 -41 102 -95c0 -56 -42 -97 -102 -97zM48 0v490h179v-490h-179z" />
    <glyph glyph-name="dotlessi" unicode="&#x131;" horiz-adv-x="275" 
d="M48 0v490h179v-490h-179z" />
    <glyph glyph-name="iacute" unicode="&#xed;" horiz-adv-x="275" 
d="M59 557l109 152l175 1l-124 -153h-160zM48 0v490h179v-490h-179z" />
    <glyph glyph-name="ibreve" unicode="&#x12d;" horiz-adv-x="275" 
d="M138 549c-83 0 -147 57 -156 161h122c3 -28 12 -51 34 -51c19 0 32 17 34 51h123c-8 -88 -57 -161 -157 -161zM48 0v490h179v-490h-179z" />
    <glyph glyph-name="icircumflex" unicode="&#xee;" horiz-adv-x="275" 
d="M136 625l-37 -71h-148l106 156h154l114 -156h-150l-37 71h-2zM48 0v490h179v-490h-179z" />
    <glyph glyph-name="idieresis" unicode="&#xef;" horiz-adv-x="275" 
d="M18 545c-60 0 -102 42 -102 97c0 53 42 95 102 95s103 -41 103 -95c0 -56 -43 -97 -103 -97zM254 545c-60 0 -102 42 -102 97c0 53 42 95 102 95s103 -41 103 -95c0 -56 -43 -97 -103 -97zM48 0v490h179v-490h-179z" />
    <glyph glyph-name="i.loclTRK" horiz-adv-x="275" 
d="M138 545c-60 0 -103 42 -103 97c0 53 43 95 103 95s102 -41 102 -95c0 -56 -42 -97 -102 -97zM48 0v490h179v-490h-179z" />
    <glyph glyph-name="uni1ECB" unicode="&#x1ecb;" horiz-adv-x="275" 
d="M138 545c-60 0 -103 42 -103 97c0 53 43 95 103 95s102 -41 102 -95c0 -56 -42 -97 -102 -97zM48 0v490h179v-490h-179zM145 -68c60 0 103 -42 103 -97c0 -53 -43 -95 -103 -95s-102 41 -102 95c0 56 42 97 102 97z" />
    <glyph glyph-name="igrave" unicode="&#xec;" horiz-adv-x="275" 
d="M62 557l-79 153l174 -1l65 -152h-160zM48 0v490h179v-490h-179z" />
    <glyph glyph-name="uni1EC9" unicode="&#x1ec9;" horiz-adv-x="275" 
d="M93 538c-9 10 -17 21 -17 31c0 29 77 44 77 77c0 11 -8 15 -25 15c-16 0 -45 -16 -58 -25l-46 46c24 22 68 46 121 46c73 0 111 -34 111 -82c0 -43 -37 -71 -93 -82l-4 -21zM48 0v490h179v-490h-179z" />
    <glyph glyph-name="ij" unicode="&#x133;" horiz-adv-x="542" 
d="M138 545c-60 0 -103 42 -103 97c0 53 43 95 103 95s102 -41 102 -95c0 -56 -42 -97 -102 -97zM410 545c-60 0 -103 42 -103 97c0 53 43 95 103 95s102 -41 102 -95c0 -56 -42 -97 -102 -97zM48 0v490h179v-490h-179zM335 -208c-66 0 -100 12 -120 19l29 137
c13 -4 28 -7 41 -7c32 0 34 22 34 59v490h179v-510c0 -126 -54 -188 -163 -188z" />
    <glyph glyph-name="imacron" unicode="&#x12b;" horiz-adv-x="275" 
d="M-22 578v132h320v-132h-320zM48 0v490h179v-490h-179z" />
    <glyph glyph-name="iogonek" unicode="&#x12f;" horiz-adv-x="275" 
d="M138 545c-60 0 -103 42 -103 97c0 53 43 95 103 95s102 -41 102 -95c0 -56 -42 -97 -102 -97zM48 1v489h179v-490h-9c-62 0 -99 -34 -99 -66c0 -25 15 -38 36 -38c20 0 26 3 35 4l7 -82c-21 -8 -53 -11 -77 -11c-79 0 -126 42 -126 98c0 31 15 69 54 96z" />
    <glyph glyph-name="itilde" unicode="&#x129;" horiz-adv-x="275" 
d="M58 545l-102 41c23 74 65 133 128 133c40 0 56 -14 76 -25c15 -10 28 -17 41 -17c22 0 39 20 51 44l100 -33c-21 -78 -76 -141 -138 -141c-34 0 -50 12 -73 25c-16 9 -26 18 -39 18c-18 0 -32 -19 -44 -45zM48 0v490h179v-490h-179z" />
    <glyph glyph-name="j" unicode="j" horiz-adv-x="267" 
d="M135 545c-60 0 -103 42 -103 97c0 53 43 95 103 95s102 -41 102 -95c0 -56 -42 -97 -102 -97zM60 -208c-66 0 -100 12 -120 19l29 137c13 -4 28 -7 41 -7c32 0 34 22 34 59v490h179v-510c0 -126 -54 -188 -163 -188z" />
    <glyph glyph-name="uni0237" unicode="&#x237;" horiz-adv-x="267" 
d="M60 -208c-66 0 -100 12 -120 19l29 137c13 -4 28 -7 41 -7c32 0 34 22 34 59v490h179v-510c0 -126 -54 -188 -163 -188z" />
    <glyph glyph-name="jcircumflex" unicode="&#x135;" horiz-adv-x="267" 
d="M133 625l-37 -71h-148l106 156h154l114 -156h-150l-37 71h-2zM44 0v490h179v-510c0 -126 -54 -188 -163 -188c-66 0 -100 12 -120 19l29 137c13 -4 28 -7 41 -7c32 0 34 22 34 59z" />
    <glyph glyph-name="k" unicode="k" horiz-adv-x="540" 
d="M261 167l-38 -43v-124h-179v736h179v-379h1l113 133h205l-163 -187l169 -303h-197z" />
    <glyph glyph-name="kcommaaccent" unicode="&#x137;" horiz-adv-x="540" 
d="M379 303l169 -303h-197l-90 167l-38 -43v-124h-179v736h179v-379h1l113 133h205zM200 -53h140c4 -13 6 -25 6 -39c0 -84 -52 -130 -163 -130l-30 95c37 5 54 15 54 39c0 9 -2 21 -7 35z" />
    <glyph glyph-name="kgreenlandic" unicode="&#x138;" horiz-adv-x="540" 
d="M261 167l-38 -43v-124h-179v490h179v-133h1l113 133h205l-163 -187l169 -303h-197z" />
    <glyph glyph-name="l" unicode="l" horiz-adv-x="275" 
d="M48 0v736h179v-736h-179z" />
    <glyph glyph-name="lacute" unicode="&#x13a;" horiz-adv-x="275" 
d="M53 790l109 152l175 1l-124 -153h-160zM48 0v736h179v-736h-179z" />
    <glyph glyph-name="lcaron" unicode="&#x13e;" horiz-adv-x="328" 
d="M270 573l34 226h166l-77 -226h-123zM48 0v736h179v-736h-179z" />
    <glyph glyph-name="lcommaaccent" unicode="&#x13c;" horiz-adv-x="275" 
d="M48 0v736h179v-736h-179zM50 -222l-30 95c37 5 54 15 54 39c0 9 -2 21 -7 35h140c4 -13 6 -25 6 -39c0 -84 -52 -130 -163 -130z" />
    <glyph glyph-name="ldot" unicode="&#x140;" horiz-adv-x="498" 
d="M48 0v736h179v-736h-179zM394 181c-54 0 -98 43 -98 96c0 52 44 95 98 95c53 0 97 -43 97 -95c0 -53 -44 -96 -97 -96z" />
    <glyph glyph-name="lslash" unicode="&#x142;" horiz-adv-x="311" 
d="M297 470v-153l-52 -25v-292h-179v207l-50 -24v152l50 24v377h179v-291z" />
    <glyph glyph-name="m" unicode="m" horiz-adv-x="871" 
d="M656 500c101 0 175 -55 175 -213v-287h-179v246c0 53 -11 96 -59 96c-36 0 -65 -29 -65 -96v-246h-178v246c0 53 -13 96 -59 96c-40 0 -68 -29 -68 -96v-246h-179v490h179v-56h1c34 44 81 66 131 66c60 0 110 -20 141 -70h1c38 46 93 70 159 70z" />
    <glyph glyph-name="n" unicode="n" horiz-adv-x="576" 
d="M363 500c99 0 174 -45 174 -204v-296h-179v253c0 70 -20 89 -64 89c-43 0 -71 -29 -71 -96v-246h-179v490h179v-54h1c36 43 86 64 139 64z" />
    <glyph glyph-name="nacute" unicode="&#x144;" horiz-adv-x="576" 
d="M481 710l-124 -153h-160l109 152zM363 500c99 0 174 -45 174 -204v-296h-179v253c0 70 -20 89 -64 89c-43 0 -71 -29 -71 -96v-246h-179v490h179v-54h1c36 43 86 64 139 64z" />
    <glyph glyph-name="napostrophe" unicode="&#x149;" horiz-adv-x="728" 
d="M-36 474l35 236h166l-77 -236h-124zM514 500c99 0 174 -45 174 -204v-296h-179v253c0 70 -20 89 -64 89c-43 0 -71 -29 -71 -96v-246h-179v490h179v-54h1c36 43 86 64 139 64z" />
    <glyph glyph-name="ncaron" unicode="&#x148;" horiz-adv-x="576" 
d="M382 554h-154l-113 156h150l36 -72h2l38 72h148zM363 500c99 0 174 -45 174 -204v-296h-179v253c0 70 -20 89 -64 89c-43 0 -71 -29 -71 -96v-246h-179v490h179v-54h1c36 43 86 64 139 64z" />
    <glyph glyph-name="ncommaaccent" unicode="&#x146;" horiz-adv-x="576" 
d="M363 500c99 0 174 -45 174 -204v-296h-179v253c0 70 -20 89 -64 89c-43 0 -71 -29 -71 -96v-246h-179v490h179v-54h1c36 43 86 64 139 64zM218 -53h140c4 -13 6 -25 6 -39c0 -84 -52 -130 -163 -130l-30 95c37 5 54 15 54 39c0 9 -2 21 -7 35z" />
    <glyph glyph-name="eng" unicode="&#x14b;" horiz-adv-x="564" 
d="M363 500c88 0 162 -55 162 -213v-297c0 -127 -54 -198 -163 -198c-66 0 -100 12 -120 19l29 132c13 -4 28 -7 42 -7c31 0 34 27 34 59l-1 258c0 61 -13 89 -53 89c-39 0 -70 -29 -70 -96v-246h-179v490h179v-57h1c36 44 85 67 139 67z" />
    <glyph glyph-name="uni0272" unicode="&#x272;" horiz-adv-x="576" 
d="M363 500c99 0 174 -45 174 -204v-296h-179v253c0 70 -20 89 -64 89c-43 0 -71 -29 -71 -96v-246v-10c0 -127 -55 -198 -163 -198c-66 0 -101 12 -121 19l30 132c12 -4 28 -7 41 -7c32 0 34 27 34 59v208v287h179v-54h1c36 43 86 64 139 64z" />
    <glyph glyph-name="ntilde" unicode="&#xf1;" horiz-adv-x="576" 
d="M252 590c-23 0 -41 -19 -53 -45l-102 41c22 74 69 133 135 133c46 0 70 -14 90 -25c15 -10 29 -17 46 -17c25 0 43 20 55 44l100 -33c-21 -78 -67 -141 -132 -141c-39 0 -65 12 -88 25c-17 9 -33 18 -51 18zM363 500c99 0 174 -45 174 -204v-296h-179v253
c0 70 -20 89 -64 89c-43 0 -71 -29 -71 -96v-246h-179v490h179v-54h1c36 43 86 64 139 64z" />
    <glyph glyph-name="o" unicode="o" horiz-adv-x="583" 
d="M292 -10c-159 0 -269 104 -269 255s110 255 269 255c157 0 268 -104 268 -255s-111 -255 -268 -255zM292 147c50 0 88 41 88 98s-36 97 -88 97s-89 -40 -89 -97s38 -98 89 -98z" />
    <glyph glyph-name="oacute" unicode="&#xf3;" horiz-adv-x="583" 
d="M214 557l109 152l175 1l-124 -153h-160zM292 -10c-159 0 -269 104 -269 255s110 255 269 255c157 0 268 -104 268 -255s-111 -255 -268 -255zM292 147c50 0 88 41 88 98s-36 97 -88 97s-89 -40 -89 -97s38 -98 89 -98z" />
    <glyph glyph-name="obreve" unicode="&#x14f;" horiz-adv-x="583" 
d="M292 549c-92 0 -172 57 -180 161h127c2 -28 21 -51 53 -51c28 0 52 17 54 51h127c-7 -88 -72 -161 -181 -161zM292 -10c-159 0 -269 104 -269 255s110 255 269 255c157 0 268 -104 268 -255s-111 -255 -268 -255zM292 147c50 0 88 41 88 98s-36 97 -88 97
s-89 -40 -89 -97s38 -98 89 -98z" />
    <glyph glyph-name="ocircumflex" unicode="&#xf4;" horiz-adv-x="583" 
d="M290 625l-37 -71h-148l106 156h154l114 -156h-150l-37 71h-2zM292 500c157 0 268 -104 268 -255s-111 -255 -268 -255c-159 0 -269 104 -269 255s110 255 269 255zM292 147c50 0 88 41 88 98s-36 97 -88 97s-89 -40 -89 -97s38 -98 89 -98z" />
    <glyph glyph-name="uni1ED1" unicode="&#x1ed1;" horiz-adv-x="583" 
d="M687 809l-138 -153h-131l109 152zM289 625l-37 -71h-148l106 156h154l114 -156h-150l-37 71h-2zM292 500c157 0 268 -104 268 -255s-111 -255 -268 -255c-159 0 -269 104 -269 255s110 255 269 255zM292 147c50 0 88 41 88 98s-36 97 -88 97s-89 -40 -89 -97
s38 -98 89 -98z" />
    <glyph glyph-name="uni1ED9" unicode="&#x1ed9;" horiz-adv-x="583" 
d="M291 625l-37 -71h-148l106 156h154l114 -156h-150l-37 71h-2zM292 500c157 0 268 -104 268 -255s-111 -255 -268 -255c-159 0 -269 104 -269 255s110 255 269 255zM292 147c50 0 88 41 88 98s-36 97 -88 97s-89 -40 -89 -97s38 -98 89 -98zM292 -68c60 0 103 -42 103 -97
c0 -53 -43 -95 -103 -95s-102 41 -102 95c0 56 42 97 102 97z" />
    <glyph glyph-name="uni1ED3" unicode="&#x1ed3;" horiz-adv-x="583" 
d="M589 658h-124l-113 153l152 -1zM290 625l-37 -71h-148l106 156h154l114 -156h-150l-37 71h-2zM292 500c157 0 268 -104 268 -255s-111 -255 -268 -255c-159 0 -269 104 -269 255s110 255 269 255zM292 147c50 0 88 41 88 98s-36 97 -88 97s-89 -40 -89 -97s38 -98 89 -98
z" />
    <glyph glyph-name="uni1ED5" unicode="&#x1ed5;" horiz-adv-x="583" 
d="M504 819c67 0 106 -34 106 -83c0 -42 -37 -70 -88 -82l-4 -21l-66 -4c-9 10 -16 21 -16 31c0 29 76 43 76 76c0 12 -8 16 -25 16c-16 0 -45 -17 -58 -26l-46 46c24 22 68 47 121 47zM291 625l-37 -71h-148l106 156h154l114 -156h-150l-37 71h-2zM292 500
c157 0 268 -104 268 -255s-111 -255 -268 -255c-159 0 -269 104 -269 255s110 255 269 255zM292 147c50 0 88 41 88 98s-36 97 -88 97s-89 -40 -89 -97s38 -98 89 -98z" />
    <glyph glyph-name="uni1ED7" unicode="&#x1ed7;" horiz-adv-x="583" 
d="M256 774c-18 0 -32 -19 -44 -45l-102 41c23 74 65 133 128 133c40 0 56 -14 76 -25c15 -10 28 -17 41 -17c22 0 39 20 51 44l100 -33c-21 -78 -76 -141 -138 -141c-34 0 -50 12 -73 25c-16 9 -26 18 -39 18zM291 625l-37 -71h-148l106 156h154l114 -156h-150l-37 71h-2z
M292 500c157 0 268 -104 268 -255s-111 -255 -268 -255c-159 0 -269 104 -269 255s110 255 269 255zM292 147c50 0 88 41 88 98s-36 97 -88 97s-89 -40 -89 -97s38 -98 89 -98z" />
    <glyph glyph-name="odieresis" unicode="&#xf6;" horiz-adv-x="583" 
d="M172 545c-60 0 -102 42 -102 97c0 53 42 95 102 95s103 -41 103 -95c0 -56 -43 -97 -103 -97zM408 545c-60 0 -102 42 -102 97c0 53 42 95 102 95s103 -41 103 -95c0 -56 -43 -97 -103 -97zM292 -10c-159 0 -269 104 -269 255s110 255 269 255c157 0 268 -104 268 -255
s-111 -255 -268 -255zM292 147c50 0 88 41 88 98s-36 97 -88 97s-89 -40 -89 -97s38 -98 89 -98z" />
    <glyph glyph-name="uni1ECD" unicode="&#x1ecd;" horiz-adv-x="583" 
d="M292 -10c-159 0 -269 104 -269 255s110 255 269 255c157 0 268 -104 268 -255s-111 -255 -268 -255zM292 147c50 0 88 41 88 98s-36 97 -88 97s-89 -40 -89 -97s38 -98 89 -98zM292 -68c60 0 103 -42 103 -97c0 -53 -43 -95 -103 -95s-102 41 -102 95c0 56 42 97 102 97z
" />
    <glyph glyph-name="ograve" unicode="&#xf2;" horiz-adv-x="583" 
d="M234 557l-123 153l174 -1l109 -152h-160zM292 -10c-159 0 -269 104 -269 255s110 255 269 255c157 0 268 -104 268 -255s-111 -255 -268 -255zM292 147c50 0 88 41 88 98s-36 97 -88 97s-89 -40 -89 -97s38 -98 89 -98z" />
    <glyph glyph-name="uni1ECF" unicode="&#x1ecf;" horiz-adv-x="583" 
d="M247 538c-9 10 -17 21 -17 31c0 29 77 44 77 77c0 11 -8 15 -25 15c-16 0 -45 -16 -58 -25l-46 46c24 22 68 46 121 46c73 0 111 -34 111 -82c0 -43 -37 -71 -93 -82l-4 -21zM292 -10c-159 0 -269 104 -269 255s110 255 269 255c157 0 268 -104 268 -255
s-111 -255 -268 -255zM292 147c50 0 88 41 88 98s-36 97 -88 97s-89 -40 -89 -97s38 -98 89 -98z" />
    <glyph glyph-name="ohorn" unicode="&#x1a1;" horiz-adv-x="701" 
d="M535 565h143v-78c0 -101 -50 -153 -126 -170l-1 -2c6 -22 9 -45 9 -70c0 -151 -111 -255 -268 -255c-159 0 -269 104 -269 255s110 255 269 255c96 0 175 -39 221 -103c18 16 22 42 22 81v87zM292 147c50 0 88 41 88 98s-36 97 -88 97s-89 -40 -89 -97s38 -98 89 -98z
" />
    <glyph glyph-name="uni1EDB" unicode="&#x1edb;" horiz-adv-x="701" 
d="M498 710l-124 -153h-160l109 152zM535 565h143v-78c0 -101 -50 -153 -126 -170l-1 -2c6 -22 9 -45 9 -70c0 -151 -111 -255 -268 -255c-159 0 -269 104 -269 255s110 255 269 255c96 0 175 -39 221 -103c18 16 22 42 22 81v87zM292 147c50 0 88 41 88 98s-36 97 -88 97
s-89 -40 -89 -97s38 -98 89 -98z" />
    <glyph glyph-name="uni1EE3" unicode="&#x1ee3;" horiz-adv-x="701" 
d="M535 565h143v-78c0 -101 -50 -153 -126 -170l-1 -2c6 -22 9 -45 9 -70c0 -151 -111 -255 -268 -255c-159 0 -269 104 -269 255s110 255 269 255c96 0 175 -39 221 -103c18 16 22 42 22 81v87zM292 147c50 0 88 41 88 98s-36 97 -88 97s-89 -40 -89 -97s38 -98 89 -98z
M292 -68c60 0 103 -42 103 -97c0 -53 -43 -95 -103 -95s-102 41 -102 95c0 56 42 97 102 97z" />
    <glyph glyph-name="uni1EDD" unicode="&#x1edd;" horiz-adv-x="701" 
d="M394 557h-160l-123 153l174 -1zM535 565h143v-78c0 -101 -50 -153 -126 -170l-1 -2c6 -22 9 -45 9 -70c0 -151 -111 -255 -268 -255c-159 0 -269 104 -269 255s110 255 269 255c96 0 175 -39 221 -103c18 16 22 42 22 81v87zM292 147c50 0 88 41 88 98s-36 97 -88 97
s-89 -40 -89 -97s38 -98 89 -98z" />
    <glyph glyph-name="uni1EDF" unicode="&#x1edf;" horiz-adv-x="701" 
d="M282 661c-16 0 -45 -16 -58 -25l-46 46c24 22 68 46 121 46c73 0 111 -34 111 -82c0 -43 -37 -71 -93 -82l-4 -21l-66 -5c-9 10 -17 21 -17 31c0 29 77 44 77 77c0 11 -8 15 -25 15zM535 565h143v-78c0 -101 -50 -153 -126 -170l-1 -2c6 -22 9 -45 9 -70
c0 -151 -111 -255 -268 -255c-159 0 -269 104 -269 255s110 255 269 255c96 0 175 -39 221 -103c18 16 22 42 22 81v87zM292 147c50 0 88 41 88 98s-36 97 -88 97s-89 -40 -89 -97s38 -98 89 -98z" />
    <glyph glyph-name="uni1EE1" unicode="&#x1ee1;" horiz-adv-x="701" 
d="M242 590c-23 0 -41 -19 -53 -45l-102 41c22 74 69 133 135 133c46 0 70 -14 90 -25c15 -10 29 -17 46 -17c25 0 43 20 55 44l100 -33c-21 -78 -67 -141 -132 -141c-39 0 -65 12 -88 25c-17 9 -33 18 -51 18zM535 565h143v-78c0 -101 -50 -153 -126 -170l-1 -2
c6 -22 9 -45 9 -70c0 -151 -111 -255 -268 -255c-159 0 -269 104 -269 255s110 255 269 255c96 0 175 -39 221 -103c18 16 22 42 22 81v87zM292 147c50 0 88 41 88 98s-36 97 -88 97s-89 -40 -89 -97s38 -98 89 -98z" />
    <glyph glyph-name="ohungarumlaut" unicode="&#x151;" horiz-adv-x="583" 
d="M75 557l108 152l175 1l-123 -153h-160zM313 557l108 152l175 1l-123 -153h-160zM292 -10c-159 0 -269 104 -269 255s110 255 269 255c157 0 268 -104 268 -255s-111 -255 -268 -255zM292 147c50 0 88 41 88 98s-36 97 -88 97s-89 -40 -89 -97s38 -98 89 -98z" />
    <glyph glyph-name="omacron" unicode="&#x14d;" horiz-adv-x="583" 
d="M132 578v132h320v-132h-320zM292 -10c-159 0 -269 104 -269 255s110 255 269 255c157 0 268 -104 268 -255s-111 -255 -268 -255zM292 147c50 0 88 41 88 98s-36 97 -88 97s-89 -40 -89 -97s38 -98 89 -98z" />
    <glyph glyph-name="uni01EB" unicode="&#x1eb;" horiz-adv-x="583" 
d="M560 245c0 -123 -74 -216 -187 -245c-16 -4 -33 -7 -50 -9c-31 -12 -49 -35 -49 -57c0 -25 15 -38 36 -38c20 0 26 3 35 4l7 -82c-21 -8 -53 -11 -77 -11c-79 0 -126 42 -126 98c0 30 14 69 53 95v2c-109 32 -179 123 -179 243c0 151 110 255 269 255
c157 0 268 -104 268 -255zM292 147c50 0 88 41 88 98s-36 97 -88 97s-89 -40 -89 -97s38 -98 89 -98z" />
    <glyph glyph-name="oslash" unicode="&#xf8;" horiz-adv-x="583" 
d="M497 417c40 -44 63 -103 63 -172c0 -151 -111 -255 -268 -255c-58 0 -110 14 -152 39l-51 -56l-57 53l49 53c-37 43 -58 100 -58 166c0 151 110 255 269 255c54 0 103 -12 143 -35l46 50l58 -53zM203 245c0 -10 1 -20 4 -29l112 122c-9 3 -18 4 -27 4
c-52 0 -89 -40 -89 -97zM292 147c50 0 88 41 88 98c0 14 -2 26 -6 38l-118 -128c11 -5 23 -8 36 -8z" />
    <glyph glyph-name="oslashacute" unicode="&#x1ff;" horiz-adv-x="583" 
d="M486 711l-124 -153h-160l109 152zM497 417c40 -44 63 -103 63 -172c0 -151 -111 -255 -268 -255c-58 0 -110 14 -152 39l-51 -56l-57 53l49 53c-37 43 -58 100 -58 166c0 151 110 255 269 255c54 0 103 -12 143 -35l46 50l58 -53zM203 245c0 -10 1 -20 4 -29l112 122
c-9 3 -18 4 -27 4c-52 0 -89 -40 -89 -97zM292 147c50 0 88 41 88 98c0 14 -2 26 -6 38l-118 -128c11 -5 23 -8 36 -8z" />
    <glyph glyph-name="otilde" unicode="&#xf5;" horiz-adv-x="583" 
d="M189 545l-102 41c22 74 69 133 135 133c46 0 70 -14 90 -25c15 -10 29 -17 46 -17c25 0 43 20 55 44l100 -33c-21 -78 -67 -141 -132 -141c-39 0 -65 12 -88 25c-17 9 -33 18 -51 18c-23 0 -41 -19 -53 -45zM292 -10c-159 0 -269 104 -269 255s110 255 269 255
c157 0 268 -104 268 -255s-111 -255 -268 -255zM292 147c50 0 88 41 88 98s-36 97 -88 97s-89 -40 -89 -97s38 -98 89 -98z" />
    <glyph glyph-name="oe" unicode="&#x153;" horiz-adv-x="809" 
d="M793 246c0 -17 -2 -35 -5 -48h-293c14 -42 47 -65 89 -65c30 0 53 6 78 30l111 -80c-41 -52 -105 -93 -202 -93c-65 0 -121 21 -163 58h-2c-39 -37 -91 -58 -149 -58c-136 0 -234 99 -234 255c0 155 102 255 239 255c55 0 105 -21 144 -57c41 36 96 57 162 57
c130 0 225 -108 225 -254zM568 360c-34 0 -64 -18 -75 -65h135c-8 46 -33 65 -60 65zM262 147c34 0 61 41 61 98s-25 97 -61 97c-30 0 -59 -35 -59 -97c0 -61 26 -98 59 -98z" />
    <glyph glyph-name="p" unicode="p" horiz-adv-x="596" 
d="M356 500c123 0 217 -104 217 -255s-94 -255 -228 -255c-51 0 -92 19 -122 53h-1v-241h-178v688h179v-50h1c34 40 81 60 132 60zM306 146c50 0 87 39 87 99c0 58 -37 98 -87 98c-53 0 -91 -40 -91 -98c0 -60 38 -99 91 -99z" />
    <glyph glyph-name="thorn" unicode="&#xfe;" horiz-adv-x="596" 
d="M356 500c123 0 217 -104 217 -255s-94 -255 -228 -255c-51 0 -92 19 -122 53h-1v-241h-178v934h179v-296h1c34 40 81 60 132 60zM306 146c50 0 87 39 87 99c0 58 -37 98 -87 98c-53 0 -91 -40 -91 -98c0 -60 38 -99 91 -99z" />
    <glyph glyph-name="q" unicode="q" horiz-adv-x="598" 
d="M373 490h179v-688h-178v241h-2c-29 -34 -70 -53 -122 -53c-134 0 -227 104 -227 255s94 255 217 255c51 0 97 -20 132 -60h1v50zM290 146c52 0 90 39 90 99c0 58 -38 98 -90 98c-50 0 -87 -40 -87 -98c0 -60 37 -99 87 -99z" />
    <glyph glyph-name="r" unicode="r" horiz-adv-x="373" 
d="M361 500h1v-191c-15 1 -30 1 -38 1c-69 0 -101 -39 -101 -96v-214h-179v490h179v-68h1c35 51 84 78 137 78z" />
    <glyph glyph-name="racute" unicode="&#x155;" horiz-adv-x="373" 
d="M333 710l-124 -153h-160l109 152zM361 500h1v-191c-15 1 -30 1 -38 1c-69 0 -101 -39 -101 -96v-214h-179v490h179v-68h1c35 51 84 78 137 78z" />
    <glyph glyph-name="rcaron" unicode="&#x159;" horiz-adv-x="373" 
d="M304 554h-154l-113 156h150l36 -72h2l38 72h148zM224 422c35 51 84 78 137 78h1v-191c-15 1 -30 1 -38 1c-69 0 -101 -39 -101 -96v-214h-179v490h179v-68h1z" />
    <glyph glyph-name="rcommaaccent" unicode="&#x157;" horiz-adv-x="373" 
d="M361 500h1v-191c-15 1 -30 1 -38 1c-69 0 -101 -39 -101 -96v-214h-179v490h179v-68h1c35 51 84 78 137 78zM64 -53h140c4 -13 6 -25 6 -39c0 -84 -52 -130 -163 -130l-30 95c37 5 54 15 54 39c0 9 -2 21 -7 35z" />
    <glyph glyph-name="s" unicode="s" horiz-adv-x="435" 
d="M208 -10c-76 0 -144 23 -200 73l81 110c42 -37 85 -55 122 -55c25 0 37 7 37 20c0 12 -7 20 -67 38c-83 24 -156 66 -156 159c0 108 86 165 188 165c80 0 134 -21 192 -62l-83 -119c-31 33 -72 51 -103 51c-15 0 -31 -6 -31 -20c0 -10 12 -19 61 -35
c111 -35 166 -67 166 -163s-68 -162 -207 -162z" />
    <glyph glyph-name="sacute" unicode="&#x15b;" horiz-adv-x="435" 
d="M117 557l109 152l175 1l-124 -153h-160zM208 -10c-76 0 -144 23 -200 73l81 110c42 -37 85 -55 122 -55c25 0 37 7 37 20c0 12 -7 20 -67 38c-83 24 -156 66 -156 159c0 108 86 165 188 165c80 0 134 -21 192 -62l-83 -119c-31 33 -72 51 -103 51c-15 0 -31 -6 -31 -20
c0 -10 12 -19 61 -35c111 -35 166 -67 166 -163s-68 -162 -207 -162z" />
    <glyph glyph-name="scaron" unicode="&#x161;" horiz-adv-x="435" 
d="M300 554h-154l-113 156h150l36 -72h2l38 72h148zM249 315c111 -35 166 -67 166 -163s-68 -162 -207 -162c-76 0 -144 23 -200 73l81 110c42 -37 85 -55 122 -55c25 0 37 7 37 20c0 12 -7 20 -67 38c-83 24 -156 66 -156 159c0 108 86 165 188 165c80 0 134 -21 192 -62
l-83 -119c-31 33 -72 51 -103 51c-15 0 -31 -6 -31 -20c0 -10 12 -19 61 -35z" />
    <glyph glyph-name="scedilla" unicode="&#x15f;" horiz-adv-x="435" 
d="M237 -9l-12 -20v-1c55 -1 92 -29 92 -81c0 -49 -39 -83 -130 -83c-35 0 -52 3 -67 6v68c13 -4 27 -7 54 -7c17 0 40 4 40 25c0 19 -29 28 -77 28v39l16 29c-54 9 -103 31 -145 69l81 110c42 -37 85 -55 122 -55c25 0 37 7 37 20c0 12 -7 20 -67 38
c-83 24 -156 66 -156 159c0 108 86 165 188 165c80 0 134 -21 192 -62l-83 -119c-31 33 -72 51 -103 51c-15 0 -31 -6 -31 -20c0 -10 12 -19 61 -35c111 -35 166 -67 166 -163c0 -89 -59 -152 -178 -161z" />
    <glyph glyph-name="scircumflex" unicode="&#x15d;" horiz-adv-x="435" 
d="M218 625l-37 -71h-148l106 156h154l114 -156h-150l-37 71h-2zM249 315c111 -35 166 -67 166 -163s-68 -162 -207 -162c-76 0 -144 23 -200 73l81 110c42 -37 85 -55 122 -55c25 0 37 7 37 20c0 12 -7 20 -67 38c-83 24 -156 66 -156 159c0 108 86 165 188 165
c80 0 134 -21 192 -62l-83 -119c-31 33 -72 51 -103 51c-15 0 -31 -6 -31 -20c0 -10 12 -19 61 -35z" />
    <glyph glyph-name="scommaaccent" unicode="&#x219;" horiz-adv-x="435" 
d="M208 -10c-76 0 -144 23 -200 73l81 110c42 -37 85 -55 122 -55c25 0 37 7 37 20c0 12 -7 20 -67 38c-83 24 -156 66 -156 159c0 108 86 165 188 165c80 0 134 -21 192 -62l-83 -119c-31 33 -72 51 -103 51c-15 0 -31 -6 -31 -20c0 -10 12 -19 61 -35
c111 -35 166 -67 166 -163s-68 -162 -207 -162zM134 -222l-30 95c37 5 54 15 54 39c0 9 -2 21 -7 35h140c4 -13 6 -25 6 -39c0 -84 -52 -130 -163 -130z" />
    <glyph glyph-name="germandbls" unicode="&#xdf;" horiz-adv-x="621" 
d="M493 415c68 -35 110 -106 110 -192c0 -143 -86 -233 -230 -233h-79v156h36c61 0 94 39 94 89c0 55 -38 89 -103 89h-21v142h13c46 1 76 30 76 67c0 38 -31 63 -79 63c-44 0 -87 -24 -87 -100v-496h-179v482c0 177 102 265 263 265c177 0 255 -97 255 -195
c0 -46 -16 -99 -69 -135v-2z" />
    <glyph glyph-name="longs" unicode="&#x17f;" horiz-adv-x="349" 
d="M61 0v348h-44v142h44v70c0 127 69 187 168 187c70 0 124 -30 136 -40l-31 -122c-15 9 -40 14 -51 14c-24 0 -43 -9 -43 -42v-557h-179z" />
    <glyph glyph-name="uni0259" unicode="&#x259;" horiz-adv-x="545" 
d="M260 500c157 0 262 -104 262 -257c0 -146 -106 -253 -254 -253c-142 0 -247 107 -247 253c0 11 2 35 5 47h324c-8 46 -49 69 -99 69c-35 0 -76 -13 -117 -34l-64 128c18 10 85 47 190 47zM272 126c41 0 71 23 78 67h-155c9 -43 39 -67 77 -67z" />
    <glyph glyph-name="t" unicode="t" horiz-adv-x="378" 
d="M210 -10c-83 0 -147 52 -147 164v194h-53v142h53v154l179 18v-172h106v-142h-106v-156c0 -23 3 -49 32 -49c7 0 23 2 36 7l44 -124c-37 -21 -73 -36 -144 -36z" />
    <glyph glyph-name="tbar" unicode="&#x167;" horiz-adv-x="378" 
d="M310 150l44 -124c-37 -21 -73 -36 -144 -36c-83 0 -147 52 -147 164v52h-41v100h41v42h-53v142h53v154l179 18v-172h106v-142h-106v-42h87v-100h-87v-14c0 -23 3 -49 32 -49c7 0 23 2 36 7z" />
    <glyph glyph-name="tcaron" unicode="&#x165;" horiz-adv-x="378" 
d="M276 573l34 226h167l-78 -226h-123zM210 -10c-83 0 -147 52 -147 164v194h-53v142h53v154l179 18v-172h106v-142h-106v-156c0 -23 3 -49 32 -49c7 0 23 2 36 7l44 -124c-37 -21 -73 -36 -144 -36z" />
    <glyph glyph-name="uni0163" unicode="&#x163;" horiz-adv-x="378" 
d="M209 -30c55 -1 92 -29 92 -81c0 -49 -39 -83 -130 -83c-35 0 -52 3 -67 6v68c13 -4 27 -7 54 -7c17 0 40 4 40 25c0 19 -29 28 -77 28v39l22 39c-48 22 -80 71 -80 150v194h-53v142h53v154l179 18v-172h106v-142h-106v-156c0 -23 3 -49 32 -49c7 0 23 2 36 7l44 -124
c-35 -20 -69 -35 -134 -36l-11 -19v-1z" />
    <glyph glyph-name="uni021B" unicode="&#x21b;" horiz-adv-x="378" 
d="M210 -10c-83 0 -147 52 -147 164v194h-53v142h53v154l179 18v-172h106v-142h-106v-156c0 -23 3 -49 32 -49c7 0 23 2 36 7l44 -124c-37 -21 -73 -36 -144 -36zM118 -222l-30 95c37 5 54 15 54 39c0 9 -2 21 -7 35h140c4 -13 6 -25 6 -39c0 -84 -52 -130 -163 -130z" />
    <glyph glyph-name="u" unicode="u" horiz-adv-x="566" 
d="M346 490h179v-490h-179v52h-3c-34 -41 -81 -62 -133 -62c-100 0 -173 54 -173 213v287h178v-244c0 -70 19 -99 64 -99c38 0 67 30 67 97v246z" />
    <glyph glyph-name="uacute" unicode="&#xfa;" horiz-adv-x="566" 
d="M480 710l-124 -153h-160l109 152zM346 490h179v-490h-179v52h-3c-34 -41 -81 -62 -133 -62c-100 0 -173 54 -173 213v287h178v-244c0 -70 19 -99 64 -99c38 0 67 30 67 97v246z" />
    <glyph glyph-name="ubreve" unicode="&#x16d;" horiz-adv-x="566" 
d="M285 549c-92 0 -172 57 -180 161h127c2 -28 21 -51 53 -51c28 0 52 17 54 51h127c-7 -88 -72 -161 -181 -161zM346 490h179v-490h-179v52h-3c-34 -41 -81 -62 -133 -62c-100 0 -173 54 -173 213v287h178v-244c0 -70 19 -99 64 -99c38 0 67 30 67 97v246z" />
    <glyph glyph-name="ucircumflex" unicode="&#xfb;" horiz-adv-x="566" 
d="M283 625l-37 -71h-148l106 156h154l114 -156h-150l-37 71h-2zM346 490h179v-490h-179v52h-3c-34 -41 -81 -62 -133 -62c-100 0 -173 54 -173 213v287h178v-244c0 -70 19 -99 64 -99c38 0 67 30 67 97v246z" />
    <glyph glyph-name="udieresis" unicode="&#xfc;" horiz-adv-x="566" 
d="M165 545c-60 0 -102 42 -102 97c0 53 42 95 102 95s103 -41 103 -95c0 -56 -43 -97 -103 -97zM401 545c-60 0 -102 42 -102 97c0 53 42 95 102 95s103 -41 103 -95c0 -56 -43 -97 -103 -97zM346 490h179v-490h-179v52h-3c-34 -41 -81 -62 -133 -62
c-100 0 -173 54 -173 213v287h178v-244c0 -70 19 -99 64 -99c38 0 67 30 67 97v246z" />
    <glyph glyph-name="uni1EE5" unicode="&#x1ee5;" horiz-adv-x="566" 
d="M346 490h179v-490h-179v52h-3c-34 -41 -81 -62 -133 -62c-100 0 -173 54 -173 213v287h178v-244c0 -70 19 -99 64 -99c38 0 67 30 67 97v246zM291 -68c60 0 103 -42 103 -97c0 -53 -43 -95 -103 -95s-102 41 -102 95c0 56 42 97 102 97z" />
    <glyph glyph-name="ugrave" unicode="&#xf9;" horiz-adv-x="566" 
d="M383 557h-160l-123 153l174 -1zM346 490h179v-490h-179v52h-3c-34 -41 -81 -62 -133 -62c-100 0 -173 54 -173 213v287h178v-244c0 -70 19 -99 64 -99c38 0 67 30 67 97v246z" />
    <glyph glyph-name="uni1EE7" unicode="&#x1ee7;" horiz-adv-x="566" 
d="M275 661c-16 0 -45 -16 -58 -25l-46 46c24 22 68 46 121 46c73 0 111 -34 111 -82c0 -43 -37 -71 -93 -82l-4 -21l-66 -5c-9 10 -17 21 -17 31c0 29 77 44 77 77c0 11 -8 15 -25 15zM346 490h179v-490h-179v52h-3c-34 -41 -81 -62 -133 -62c-100 0 -173 54 -173 213v287
h178v-244c0 -70 19 -99 64 -99c38 0 67 30 67 97v246z" />
    <glyph glyph-name="uhorn" unicode="&#x1b0;" horiz-adv-x="728" 
d="M577 565h143v-78c0 -129 -81 -177 -195 -178v-309h-179v52h-3c-34 -41 -81 -62 -133 -62c-100 0 -173 54 -173 213v287h178v-244c0 -70 19 -99 64 -99c38 0 67 30 67 97v246h179v-108c44 11 52 41 52 96v87z" />
    <glyph glyph-name="uni1EE9" unicode="&#x1ee9;" horiz-adv-x="728" 
d="M480 710l-124 -153h-160l109 152zM577 565h143v-78c0 -129 -81 -177 -195 -178v-309h-179v52h-3c-34 -41 -81 -62 -133 -62c-100 0 -173 54 -173 213v287h178v-244c0 -70 19 -99 64 -99c38 0 67 30 67 97v246h179v-108c44 11 52 41 52 96v87z" />
    <glyph glyph-name="uni1EF1" unicode="&#x1ef1;" horiz-adv-x="728" 
d="M577 565h143v-78c0 -129 -81 -177 -195 -178v-309h-179v52h-3c-34 -41 -81 -62 -133 -62c-100 0 -173 54 -173 213v287h178v-244c0 -70 19 -99 64 -99c38 0 67 30 67 97v246h179v-108c44 11 52 41 52 96v87zM291 -68c60 0 103 -42 103 -97c0 -53 -43 -95 -103 -95
s-102 41 -102 95c0 56 42 97 102 97z" />
    <glyph glyph-name="uni1EEB" unicode="&#x1eeb;" horiz-adv-x="728" 
d="M383 557h-160l-123 153l174 -1zM577 565h143v-78c0 -129 -81 -177 -195 -178v-309h-179v52h-3c-34 -41 -81 -62 -133 -62c-100 0 -173 54 -173 213v287h178v-244c0 -70 19 -99 64 -99c38 0 67 30 67 97v246h179v-108c44 11 52 41 52 96v87z" />
    <glyph glyph-name="uni1EED" unicode="&#x1eed;" horiz-adv-x="728" 
d="M275 661c-16 0 -45 -16 -58 -25l-46 46c24 22 68 46 121 46c73 0 111 -34 111 -82c0 -43 -37 -71 -93 -82l-4 -21l-66 -5c-9 10 -17 21 -17 31c0 29 77 44 77 77c0 11 -8 15 -25 15zM577 565h143v-78c0 -129 -81 -177 -195 -178v-309h-179v52h-3
c-34 -41 -81 -62 -133 -62c-100 0 -173 54 -173 213v287h178v-244c0 -70 19 -99 64 -99c38 0 67 30 67 97v246h179v-108c44 11 52 41 52 96v87z" />
    <glyph glyph-name="uni1EEF" unicode="&#x1eef;" horiz-adv-x="728" 
d="M235 590c-23 0 -41 -19 -53 -45l-102 41c22 74 69 133 135 133c46 0 70 -14 90 -25c15 -10 29 -17 46 -17c25 0 43 20 55 44l100 -33c-21 -78 -67 -141 -132 -141c-39 0 -65 12 -88 25c-17 9 -33 18 -51 18zM577 565h143v-78c0 -129 -81 -177 -195 -178v-309h-179v52h-3
c-34 -41 -81 -62 -133 -62c-100 0 -173 54 -173 213v287h178v-244c0 -70 19 -99 64 -99c38 0 67 30 67 97v246h179v-108c44 11 52 41 52 96v87z" />
    <glyph glyph-name="uhungarumlaut" unicode="&#x171;" horiz-adv-x="566" 
d="M361 710l-123 -153h-160l108 152zM476 557h-160l108 152l175 1zM346 244v246h179v-490h-179v52h-3c-34 -41 -81 -62 -133 -62c-100 0 -173 54 -173 213v287h178v-244c0 -70 19 -99 64 -99c38 0 67 30 67 97z" />
    <glyph glyph-name="umacron" unicode="&#x16b;" horiz-adv-x="566" 
d="M445 710v-132h-320v132h320zM346 490h179v-490h-179v52h-3c-34 -41 -81 -62 -133 -62c-100 0 -173 54 -173 213v287h178v-244c0 -70 19 -99 64 -99c38 0 67 30 67 97v246z" />
    <glyph glyph-name="uogonek" unicode="&#x173;" horiz-adv-x="566" 
d="M346 490h179v-490h-9c-62 0 -99 -34 -99 -66c0 -25 15 -38 36 -38c20 0 26 3 35 4l7 -82c-21 -8 -53 -11 -77 -11c-79 0 -126 42 -126 98c0 31 15 69 54 96v51h-3c-34 -41 -81 -62 -133 -62c-100 0 -173 54 -173 213v287h178v-244c0 -70 19 -99 64 -99c38 0 67 30 67 97
v246z" />
    <glyph glyph-name="uring" unicode="&#x16f;" horiz-adv-x="566" 
d="M285 538c-61 0 -111 43 -111 106c0 59 44 106 111 106c61 0 111 -43 111 -106c0 -58 -44 -106 -111 -106zM285 680c-19 0 -34 -16 -34 -35s15 -34 34 -34s34 16 34 35s-15 34 -34 34zM346 490h179v-490h-179v52h-3c-34 -41 -81 -62 -133 -62c-100 0 -173 54 -173 213v287
h178v-244c0 -70 19 -99 64 -99c38 0 67 30 67 97v246z" />
    <glyph glyph-name="utilde" unicode="&#x169;" horiz-adv-x="566" 
d="M235 590c-23 0 -41 -19 -53 -45l-102 41c22 74 69 133 135 133c46 0 70 -14 90 -25c15 -10 29 -17 46 -17c25 0 43 20 55 44l100 -33c-21 -78 -67 -141 -132 -141c-39 0 -65 12 -88 25c-17 9 -33 18 -51 18zM346 490h179v-490h-179v52h-3c-34 -41 -81 -62 -133 -62
c-100 0 -173 54 -173 213v287h178v-244c0 -70 19 -99 64 -99c38 0 67 30 67 97v246z" />
    <glyph glyph-name="v" unicode="v" horiz-adv-x="543" 
d="M353 490h186l-187 -490h-161l-187 490h185l82 -279h1z" />
    <glyph glyph-name="w" unicode="w" horiz-adv-x="763" 
d="M582 490h176l-165 -490h-138l-73 276h-1l-70 -276h-142l-164 490h176l68 -236h2l62 236h136l62 -236h2z" />
    <glyph glyph-name="wacute" unicode="&#x1e83;" horiz-adv-x="763" 
d="M590 710l-124 -153h-160l109 152zM582 490h176l-165 -490h-138l-73 276h-1l-70 -276h-142l-164 490h176l68 -236h2l62 236h136l62 -236h2z" />
    <glyph glyph-name="wcircumflex" unicode="&#x175;" horiz-adv-x="763" 
d="M379 625l-37 -71h-148l106 156h154l114 -156h-150l-37 71h-2zM582 490h176l-165 -490h-138l-73 276h-1l-70 -276h-142l-164 490h176l68 -236h2l62 236h136l62 -236h2z" />
    <glyph glyph-name="wdieresis" unicode="&#x1e85;" horiz-adv-x="763" 
d="M261 545c-60 0 -102 42 -102 97c0 53 42 95 102 95s103 -41 103 -95c0 -56 -43 -97 -103 -97zM497 545c-60 0 -102 42 -102 97c0 53 42 95 102 95s103 -41 103 -95c0 -56 -43 -97 -103 -97zM582 490h176l-165 -490h-138l-73 276h-1l-70 -276h-142l-164 490h176l68 -236h2
l62 236h136l62 -236h2z" />
    <glyph glyph-name="wgrave" unicode="&#x1e81;" horiz-adv-x="763" 
d="M464 557h-160l-123 153l174 -1zM582 490h176l-165 -490h-138l-73 276h-1l-70 -276h-142l-164 490h176l68 -236h2l62 236h136l62 -236h2z" />
    <glyph glyph-name="x" unicode="x" horiz-adv-x="524" 
d="M331 0l-68 106h-2l-70 -106h-189l161 254l-158 236h199l57 -105h1l58 105h198l-158 -237l161 -253h-190z" />
    <glyph glyph-name="y" unicode="y" horiz-adv-x="537" 
d="M351 490h182l-251 -688h-174l83 234l-187 454h184l83 -233h1z" />
    <glyph glyph-name="yacute" unicode="&#xfd;" horiz-adv-x="537" 
d="M467 710l-124 -153h-160l109 152zM351 490h182l-251 -688h-174l83 234l-187 454h184l83 -233h1z" />
    <glyph glyph-name="ycircumflex" unicode="&#x177;" horiz-adv-x="537" 
d="M269 625l-37 -71h-148l106 156h154l114 -156h-150l-37 71h-2zM351 490h182l-251 -688h-174l83 234l-187 454h184l83 -233h1z" />
    <glyph glyph-name="ydieresis" unicode="&#xff;" horiz-adv-x="537" 
d="M151 545c-60 0 -102 42 -102 97c0 53 42 95 102 95s103 -41 103 -95c0 -56 -43 -97 -103 -97zM387 545c-60 0 -102 42 -102 97c0 53 42 95 102 95s103 -41 103 -95c0 -56 -43 -97 -103 -97zM351 490h182l-251 -688h-174l83 234l-187 454h184l83 -233h1z" />
    <glyph glyph-name="uni1EF5" unicode="&#x1ef5;" horiz-adv-x="537" 
d="M351 490h182l-251 -688h-174l83 234l-187 454h184l83 -233h1zM446 -68c60 0 103 -42 103 -97c0 -53 -43 -95 -103 -95s-102 41 -102 95c0 56 42 97 102 97z" />
    <glyph glyph-name="ygrave" unicode="&#x1ef3;" horiz-adv-x="537" 
d="M373 552h-160l-123 153l174 -1zM351 490h182l-251 -688h-174l83 234l-187 454h184l83 -233h1z" />
    <glyph glyph-name="uni1EF7" unicode="&#x1ef7;" horiz-adv-x="537" 
d="M261 661c-16 0 -45 -16 -58 -25l-46 46c24 22 68 46 121 46c73 0 111 -34 111 -82c0 -43 -37 -71 -93 -82l-4 -21l-66 -5c-9 10 -17 21 -17 31c0 29 77 44 77 77c0 11 -8 15 -25 15zM351 490h182l-251 -688h-174l83 234l-187 454h184l83 -233h1z" />
    <glyph glyph-name="uni0233" unicode="&#x233;" horiz-adv-x="537" 
d="M430 710v-132h-320v132h320zM351 490h182l-251 -688h-174l83 234l-187 454h184l83 -233h1z" />
    <glyph glyph-name="uni1EF9" unicode="&#x1ef9;" horiz-adv-x="537" 
d="M221 590c-23 0 -41 -19 -53 -45l-102 41c22 74 69 133 135 133c46 0 70 -14 90 -25c15 -10 29 -17 46 -17c25 0 43 20 55 44l100 -33c-21 -78 -67 -141 -132 -141c-39 0 -65 12 -88 25c-17 9 -33 18 -51 18zM351 490h182l-251 -688h-174l83 234l-187 454h184l83 -233h1z
" />
    <glyph glyph-name="z" unicode="z" horiz-adv-x="472" 
d="M452 374l-200 -234v-1h190v-139h-418v117l194 232v3h-175v138h409v-116z" />
    <glyph glyph-name="zacute" unicode="&#x17a;" horiz-adv-x="472" 
d="M423 710l-124 -153h-160l109 152zM452 374l-200 -234v-1h190v-139h-418v117l194 232v3h-175v138h409v-116z" />
    <glyph glyph-name="zcaron" unicode="&#x17e;" horiz-adv-x="472" 
d="M318 554h-154l-113 156h150l36 -72h2l38 72h148zM452 374l-200 -234v-1h190v-139h-418v117l194 232v3h-175v138h409v-116z" />
    <glyph glyph-name="zdotaccent" unicode="&#x17c;" horiz-adv-x="472" 
d="M238 545c-60 0 -103 42 -103 97c0 53 43 95 103 95s102 -41 102 -95c0 -56 -42 -97 -102 -97zM452 374l-200 -234v-1h190v-139h-418v117l194 232v3h-175v138h409v-116z" />
    <glyph glyph-name="a.alt" horiz-adv-x="508" 
d="M258 500c122 0 211 -39 211 -210v-290h-163l-7 36h-3c-28 -22 -67 -46 -121 -46c-108 0 -157 65 -157 152c0 94 57 153 203 153l73 1v2c0 53 -21 67 -70 67c-20 0 -59 -4 -99 -20l-77 108c37 19 122 47 210 47zM187 157c0 -30 16 -46 39 -46c50 0 68 37 68 43v53l-53 -1
c-31 0 -54 -16 -54 -49z" />
    <glyph glyph-name="aacute.alt" horiz-adv-x="508" 
d="M444 710l-124 -153h-160l109 152zM258 500c122 0 211 -39 211 -210v-290h-163l-7 36h-3c-28 -22 -67 -46 -121 -46c-108 0 -157 65 -157 152c0 94 57 153 203 153l73 1v2c0 53 -21 67 -70 67c-20 0 -59 -4 -99 -20l-77 108c37 19 122 47 210 47zM187 157
c0 -30 16 -46 39 -46c50 0 68 37 68 43v53l-53 -1c-31 0 -54 -16 -54 -49z" />
    <glyph glyph-name="abreve.alt" horiz-adv-x="508" 
d="M260 549c-92 0 -172 57 -180 161h127c2 -28 21 -51 53 -51c28 0 52 17 54 51h127c-7 -88 -72 -161 -181 -161zM258 500c122 0 211 -39 211 -210v-290h-163l-7 36h-3c-28 -22 -67 -46 -121 -46c-108 0 -157 65 -157 152c0 94 57 153 203 153l73 1v2c0 53 -21 67 -70 67
c-20 0 -59 -4 -99 -20l-77 108c37 19 122 47 210 47zM187 157c0 -30 16 -46 39 -46c50 0 68 37 68 43v53l-53 -1c-31 0 -54 -16 -54 -49z" />
    <glyph glyph-name="uni1EAF.alt" horiz-adv-x="508" 
d="M446 889l-124 -153h-160l109 152zM259 549c-92 0 -172 57 -180 161h127c2 -28 21 -51 53 -51c28 0 52 17 54 51h127c-7 -88 -72 -161 -181 -161zM258 500c122 0 211 -39 211 -210v-290h-163l-7 36h-3c-28 -22 -67 -46 -121 -46c-108 0 -157 65 -157 152
c0 94 57 153 203 153l73 1v2c0 53 -21 67 -70 67c-20 0 -59 -4 -99 -20l-77 108c37 19 122 47 210 47zM187 157c0 -30 16 -46 39 -46c50 0 68 37 68 43v53l-53 -1c-31 0 -54 -16 -54 -49z" />
    <glyph glyph-name="uni1EB7.alt" horiz-adv-x="508" 
d="M259 549c-92 0 -172 57 -180 161h127c2 -28 21 -51 53 -51c28 0 52 17 54 51h127c-7 -88 -72 -161 -181 -161zM258 500c122 0 211 -39 211 -210v-290h-163l-7 36h-3c-28 -22 -67 -46 -121 -46c-108 0 -157 65 -157 152c0 94 57 153 203 153l73 1v2c0 53 -21 67 -70 67
c-20 0 -59 -4 -99 -20l-77 108c37 19 122 47 210 47zM187 157c0 -30 16 -46 39 -46c50 0 68 37 68 43v53l-53 -1c-31 0 -54 -16 -54 -49zM259 -68c60 0 103 -42 103 -97c0 -53 -43 -95 -103 -95s-102 41 -102 95c0 56 42 97 102 97z" />
    <glyph glyph-name="uni1EB1.alt" horiz-adv-x="508" 
d="M309 736h-160l-123 153l174 -1zM254 659c28 0 52 17 54 51h127c-7 -88 -72 -161 -181 -161c-92 0 -172 57 -180 161h127c2 -28 21 -51 53 -51zM258 500c122 0 211 -39 211 -210v-290h-163l-7 36h-3c-28 -22 -67 -46 -121 -46c-108 0 -157 65 -157 152
c0 94 57 153 203 153l73 1v2c0 53 -21 67 -70 67c-20 0 -59 -4 -99 -20l-77 108c37 19 122 47 210 47zM187 157c0 -30 16 -46 39 -46c50 0 68 37 68 43v53l-53 -1c-31 0 -54 -16 -54 -49z" />
    <glyph glyph-name="uni1EB3.alt" horiz-adv-x="508" 
d="M249 845c-16 0 -45 -16 -58 -25l-46 46c24 22 68 46 121 46c73 0 111 -34 111 -82c0 -43 -37 -71 -93 -82l-4 -21l-66 -5c-9 10 -17 21 -17 31c0 29 77 44 77 77c0 11 -8 15 -25 15zM258 549c-92 0 -172 57 -180 161h127c2 -28 21 -51 53 -51c28 0 52 17 54 51h127
c-7 -88 -72 -161 -181 -161zM258 500c122 0 211 -39 211 -210v-290h-163l-7 36h-3c-28 -22 -67 -46 -121 -46c-108 0 -157 65 -157 152c0 94 57 153 203 153l73 1v2c0 53 -21 67 -70 67c-20 0 -59 -4 -99 -20l-77 108c37 19 122 47 210 47zM187 157c0 -30 16 -46 39 -46
c50 0 68 37 68 43v53l-53 -1c-31 0 -54 -16 -54 -49z" />
    <glyph glyph-name="uni1EB5.alt" horiz-adv-x="508" 
d="M222 774c-18 0 -32 -19 -44 -45l-102 41c23 74 65 133 128 133c40 0 56 -14 76 -25c15 -10 28 -17 41 -17c22 0 39 20 51 44l100 -33c-21 -78 -76 -141 -138 -141c-34 0 -50 12 -73 25c-16 9 -26 18 -39 18zM257 659c28 0 52 17 54 51h127c-7 -88 -72 -161 -181 -161
c-92 0 -172 57 -180 161h127c2 -28 21 -51 53 -51zM258 500c122 0 211 -39 211 -210v-290h-163l-7 36h-3c-28 -22 -67 -46 -121 -46c-108 0 -157 65 -157 152c0 94 57 153 203 153l73 1v2c0 53 -21 67 -70 67c-20 0 -59 -4 -99 -20l-77 108c37 19 122 47 210 47zM187 157
c0 -30 16 -46 39 -46c50 0 68 37 68 43v53l-53 -1c-31 0 -54 -16 -54 -49z" />
    <glyph glyph-name="acircumflex.alt" horiz-adv-x="508" 
d="M258 625l-37 -71h-148l106 156h154l114 -156h-150l-37 71h-2zM258 500c122 0 211 -39 211 -210v-290h-163l-7 36h-3c-28 -22 -67 -46 -121 -46c-108 0 -157 65 -157 152c0 94 57 153 203 153l73 1v2c0 53 -21 67 -70 67c-20 0 -59 -4 -99 -20l-77 108
c37 19 122 47 210 47zM187 157c0 -30 16 -46 39 -46c50 0 68 37 68 43v53l-53 -1c-31 0 -54 -16 -54 -49z" />
    <glyph glyph-name="uni1EA5.alt" horiz-adv-x="508" 
d="M495 808l160 1l-138 -153h-131zM257 625l-37 -71h-148l106 156h154l114 -156h-150l-37 71h-2zM258 500c122 0 211 -39 211 -210v-290h-163l-7 36h-3c-28 -22 -67 -46 -121 -46c-108 0 -157 65 -157 152c0 94 57 153 203 153l73 1v2c0 53 -21 67 -70 67
c-20 0 -59 -4 -99 -20l-77 108c37 19 122 47 210 47zM187 157c0 -30 16 -46 39 -46c50 0 68 37 68 43v53l-53 -1c-31 0 -54 -16 -54 -49z" />
    <glyph glyph-name="uni1EAD.alt" horiz-adv-x="508" 
d="M259 625l-37 -71h-148l106 156h154l114 -156h-150l-37 71h-2zM258 500c122 0 211 -39 211 -210v-290h-163l-7 36h-3c-28 -22 -67 -46 -121 -46c-108 0 -157 65 -157 152c0 94 57 153 203 153l73 1v2c0 53 -21 67 -70 67c-20 0 -59 -4 -99 -20l-77 108
c37 19 122 47 210 47zM187 157c0 -30 16 -46 39 -46c50 0 68 37 68 43v53l-53 -1c-31 0 -54 -16 -54 -49zM259 -68c60 0 103 -42 103 -97c0 -53 -43 -95 -103 -95s-102 41 -102 95c0 56 42 97 102 97z" />
    <glyph glyph-name="uni1EA7.alt" horiz-adv-x="508" 
d="M557 658h-124l-113 153l152 -1zM258 625l-37 -71h-148l106 156h154l114 -156h-150l-37 71h-2zM258 500c122 0 211 -39 211 -210v-290h-163l-7 36h-3c-28 -22 -67 -46 -121 -46c-108 0 -157 65 -157 152c0 94 57 153 203 153l73 1v2c0 53 -21 67 -70 67
c-20 0 -59 -4 -99 -20l-77 108c37 19 122 47 210 47zM187 157c0 -30 16 -46 39 -46c50 0 68 37 68 43v53l-53 -1c-31 0 -54 -16 -54 -49z" />
    <glyph glyph-name="uni1EA9.alt" horiz-adv-x="508" 
d="M472 819c67 0 106 -34 106 -83c0 -42 -37 -70 -88 -82l-4 -21l-66 -4c-9 10 -16 21 -16 31c0 29 76 43 76 76c0 12 -8 16 -25 16c-16 0 -45 -17 -58 -26l-46 46c24 22 68 47 121 47zM259 625l-37 -71h-148l106 156h154l114 -156h-150l-37 71h-2zM258 500
c122 0 211 -39 211 -210v-290h-163l-7 36h-3c-28 -22 -67 -46 -121 -46c-108 0 -157 65 -157 152c0 94 57 153 203 153l73 1v2c0 53 -21 67 -70 67c-20 0 -59 -4 -99 -20l-77 108c37 19 122 47 210 47zM187 157c0 -30 16 -46 39 -46c50 0 68 37 68 43v53l-53 -1
c-31 0 -54 -16 -54 -49z" />
    <glyph glyph-name="uni1EAB.alt" horiz-adv-x="508" 
d="M224 774c-18 0 -32 -19 -44 -45l-102 41c23 74 65 133 128 133c40 0 56 -14 76 -25c15 -10 28 -17 41 -17c22 0 39 20 51 44l100 -33c-21 -78 -76 -141 -138 -141c-34 0 -50 12 -73 25c-16 9 -26 18 -39 18zM259 625l-37 -71h-148l106 156h154l114 -156h-150l-37 71h-2z
M258 500c122 0 211 -39 211 -210v-290h-163l-7 36h-3c-28 -22 -67 -46 -121 -46c-108 0 -157 65 -157 152c0 94 57 153 203 153l73 1v2c0 53 -21 67 -70 67c-20 0 -59 -4 -99 -20l-77 108c37 19 122 47 210 47zM187 157c0 -30 16 -46 39 -46c50 0 68 37 68 43v53l-53 -1
c-31 0 -54 -16 -54 -49z" />
    <glyph glyph-name="adieresis.alt" horiz-adv-x="508" 
d="M140 545c-60 0 -102 42 -102 97c0 53 42 95 102 95s103 -41 103 -95c0 -56 -43 -97 -103 -97zM376 545c-60 0 -102 42 -102 97c0 53 42 95 102 95s103 -41 103 -95c0 -56 -43 -97 -103 -97zM258 500c122 0 211 -39 211 -210v-290h-163l-7 36h-3c-28 -22 -67 -46 -121 -46
c-108 0 -157 65 -157 152c0 94 57 153 203 153l73 1v2c0 53 -21 67 -70 67c-20 0 -59 -4 -99 -20l-77 108c37 19 122 47 210 47zM187 157c0 -30 16 -46 39 -46c50 0 68 37 68 43v53l-53 -1c-31 0 -54 -16 -54 -49z" />
    <glyph glyph-name="uni1EA1.alt" horiz-adv-x="508" 
d="M258 500c122 0 211 -39 211 -210v-290h-163l-7 36h-3c-28 -22 -67 -46 -121 -46c-108 0 -157 65 -157 152c0 94 57 153 203 153l73 1v2c0 53 -21 67 -70 67c-20 0 -59 -4 -99 -20l-77 108c37 19 122 47 210 47zM187 157c0 -30 16 -46 39 -46c50 0 68 37 68 43v53l-53 -1
c-31 0 -54 -16 -54 -49zM259 -68c60 0 103 -42 103 -97c0 -53 -43 -95 -103 -95s-102 41 -102 95c0 56 42 97 102 97z" />
    <glyph glyph-name="agrave.alt" horiz-adv-x="508" 
d="M373 557h-160l-123 153l174 -1zM258 500c122 0 211 -39 211 -210v-290h-163l-7 36h-3c-28 -22 -67 -46 -121 -46c-108 0 -157 65 -157 152c0 94 57 153 203 153l73 1v2c0 53 -21 67 -70 67c-20 0 -59 -4 -99 -20l-77 108c37 19 122 47 210 47zM187 157
c0 -30 16 -46 39 -46c50 0 68 37 68 43v53l-53 -1c-31 0 -54 -16 -54 -49z" />
    <glyph glyph-name="uni1EA3.alt" horiz-adv-x="508" 
d="M250 661c-16 0 -45 -16 -58 -25l-46 46c24 22 68 46 121 46c73 0 111 -34 111 -82c0 -43 -37 -71 -93 -82l-4 -21l-66 -5c-9 10 -17 21 -17 31c0 29 77 44 77 77c0 11 -8 15 -25 15zM258 500c122 0 211 -39 211 -210v-290h-163l-7 36h-3c-28 -22 -67 -46 -121 -46
c-108 0 -157 65 -157 152c0 94 57 153 203 153l73 1v2c0 53 -21 67 -70 67c-20 0 -59 -4 -99 -20l-77 108c37 19 122 47 210 47zM187 157c0 -30 16 -46 39 -46c50 0 68 37 68 43v53l-53 -1c-31 0 -54 -16 -54 -49z" />
    <glyph glyph-name="amacron.alt" horiz-adv-x="508" 
d="M420 710v-132h-320v132h320zM258 500c122 0 211 -39 211 -210v-290h-163l-7 36h-3c-28 -22 -67 -46 -121 -46c-108 0 -157 65 -157 152c0 94 57 153 203 153l73 1v2c0 53 -21 67 -70 67c-20 0 -59 -4 -99 -20l-77 108c37 19 122 47 210 47zM187 157c0 -30 16 -46 39 -46
c50 0 68 37 68 43v53l-53 -1c-31 0 -54 -16 -54 -49z" />
    <glyph glyph-name="aogonek.alt" horiz-adv-x="508" 
d="M469 0c-62 0 -99 -34 -99 -66c0 -25 15 -38 36 -38c20 0 26 3 35 4l7 -82c-21 -8 -53 -11 -77 -11c-79 0 -126 42 -126 98c0 32 15 72 58 99h-1l2 4l-5 28h-3c-28 -22 -67 -46 -121 -46c-108 0 -157 65 -157 152c0 94 57 153 203 153l73 1v2c0 53 -21 67 -70 67
c-20 0 -59 -4 -99 -20l-77 108c37 19 122 47 210 47c122 0 211 -39 211 -210v-290zM187 157c0 -30 16 -46 39 -46c50 0 68 37 68 43v53l-53 -1c-31 0 -54 -16 -54 -49z" />
    <glyph glyph-name="aring.alt" horiz-adv-x="508" 
d="M260 538c-61 0 -111 43 -111 106c0 59 44 106 111 106c61 0 111 -43 111 -106c0 -58 -44 -106 -111 -106zM260 680c-19 0 -34 -16 -34 -35s15 -34 34 -34s34 16 34 35s-15 34 -34 34zM258 500c122 0 211 -39 211 -210v-290h-163l-7 36h-3c-28 -22 -67 -46 -121 -46
c-108 0 -157 65 -157 152c0 94 57 153 203 153l73 1v2c0 53 -21 67 -70 67c-20 0 -59 -4 -99 -20l-77 108c37 19 122 47 210 47zM187 157c0 -30 16 -46 39 -46c50 0 68 37 68 43v53l-53 -1c-31 0 -54 -16 -54 -49z" />
    <glyph glyph-name="aringacute.alt" horiz-adv-x="508" 
d="M260 537c-61 0 -111 43 -111 106c0 59 44 106 111 106c26 0 49 -8 68 -21l65 53h174l-199 -165c-12 -45 -52 -79 -108 -79zM260 679c-19 0 -34 -16 -34 -35s15 -34 34 -34s34 16 34 35s-15 34 -34 34zM258 500c122 0 211 -39 211 -210v-290h-163l-7 36h-3
c-28 -22 -67 -46 -121 -46c-108 0 -157 65 -157 152c0 94 57 153 203 153l73 1v2c0 53 -21 67 -70 67c-20 0 -59 -4 -99 -20l-77 108c37 19 122 47 210 47zM187 157c0 -30 16 -46 39 -46c50 0 68 37 68 43v53l-53 -1c-31 0 -54 -16 -54 -49z" />
    <glyph glyph-name="atilde.alt" horiz-adv-x="508" 
d="M210 590c-23 0 -41 -19 -53 -45l-102 41c22 74 69 133 135 133c46 0 70 -14 90 -25c15 -10 29 -17 46 -17c25 0 43 20 55 44l100 -33c-21 -78 -67 -141 -132 -141c-39 0 -65 12 -88 25c-17 9 -33 18 -51 18zM258 500c122 0 211 -39 211 -210v-290h-163l-7 36h-3
c-28 -22 -67 -46 -121 -46c-108 0 -157 65 -157 152c0 94 57 153 203 153l73 1v2c0 53 -21 67 -70 67c-20 0 -59 -4 -99 -20l-77 108c37 19 122 47 210 47zM187 157c0 -30 16 -46 39 -46c50 0 68 37 68 43v53l-53 -1c-31 0 -54 -16 -54 -49z" />
    <glyph glyph-name="g.alt" horiz-adv-x="532" 
d="M276 102c124 0 240 -30 240 -154c0 -85 -70 -170 -274 -170c-162 0 -238 59 -238 142c0 49 32 89 59 115v3c-24 17 -38 42 -38 75c0 32 14 61 54 103c-25 29 -39 66 -39 107c0 105 86 177 216 177c33 0 64 -5 91 -14l89 90l97 -99l-79 -68l-1 -5c13 -24 20 -51 20 -81
c0 -105 -87 -177 -217 -177c-32 0 -63 5 -90 14c-12 -12 -20 -22 -20 -35c0 -11 8 -23 51 -23h79zM256 382c-30 0 -50 -23 -50 -58c0 -36 20 -59 50 -59s49 23 49 59c0 35 -19 58 -49 58zM242 -99c62 0 97 17 97 42c0 22 -25 28 -76 28c-37 0 -80 1 -108 5
c-7 -10 -11 -20 -11 -31c0 -26 32 -44 98 -44z" />
    <glyph glyph-name="gbreve.alt" horiz-adv-x="532" 
d="M256 549c-92 0 -172 57 -180 161h127c2 -28 21 -51 53 -51c28 0 52 17 54 51h127c-7 -88 -72 -161 -181 -161zM276 102c124 0 240 -30 240 -154c0 -85 -70 -170 -274 -170c-162 0 -238 59 -238 142c0 49 32 89 59 115v3c-24 17 -38 42 -38 75c0 32 14 61 54 103
c-25 29 -39 66 -39 107c0 105 86 177 216 177c33 0 64 -5 91 -14l89 90l97 -99l-79 -68l-1 -5c13 -24 20 -51 20 -81c0 -105 -87 -177 -217 -177c-32 0 -63 5 -90 14c-12 -12 -20 -22 -20 -35c0 -11 8 -23 51 -23h79zM256 382c-30 0 -50 -23 -50 -58c0 -36 20 -59 50 -59
s49 23 49 59c0 35 -19 58 -49 58zM242 -99c62 0 97 17 97 42c0 22 -25 28 -76 28c-37 0 -80 1 -108 5c-7 -10 -11 -20 -11 -31c0 -26 32 -44 98 -44z" />
    <glyph glyph-name="gcaron.alt" horiz-adv-x="532" 
d="M336 554h-154l-113 156h150l36 -72h2l38 72h148zM276 102c124 0 240 -30 240 -154c0 -85 -70 -170 -274 -170c-162 0 -238 59 -238 142c0 49 32 89 59 115v3c-24 17 -38 42 -38 75c0 32 14 61 54 103c-25 29 -39 66 -39 107c0 105 86 177 216 177c33 0 64 -5 91 -14
l89 90l97 -99l-79 -68l-1 -5c13 -24 20 -51 20 -81c0 -105 -87 -177 -217 -177c-32 0 -63 5 -90 14c-12 -12 -20 -22 -20 -35c0 -11 8 -23 51 -23h79zM256 382c-30 0 -50 -23 -50 -58c0 -36 20 -59 50 -59s49 23 49 59c0 35 -19 58 -49 58zM242 -99c62 0 97 17 97 42
c0 22 -25 28 -76 28c-37 0 -80 1 -108 5c-7 -10 -11 -20 -11 -31c0 -26 32 -44 98 -44z" />
    <glyph glyph-name="gcircumflex.alt" horiz-adv-x="532" 
d="M276 102c124 0 240 -30 240 -154c0 -85 -70 -170 -274 -170c-162 0 -238 59 -238 142c0 49 32 89 59 115v3c-24 17 -38 42 -38 75c0 32 14 61 54 103c-25 29 -39 66 -39 107c0 105 86 177 216 177c33 0 64 -5 91 -14l67 68h-126l-38 73l-38 -73h-148l106 156h154
l104 -142l8 8l97 -99l-79 -68l-1 -5c13 -24 20 -51 20 -81c0 -105 -87 -177 -217 -177c-32 0 -63 5 -90 14c-12 -12 -20 -22 -20 -35c0 -11 8 -23 51 -23h79zM256 382c-30 0 -50 -23 -50 -58c0 -36 20 -59 50 -59s49 23 49 59c0 35 -19 58 -49 58zM242 -99c62 0 97 17 97 42
c0 22 -25 28 -76 28c-37 0 -80 1 -108 5c-7 -10 -11 -20 -11 -31c0 -26 32 -44 98 -44z" />
    <glyph glyph-name="gcommaaccent.alt" horiz-adv-x="532" 
d="M327 570h-140c-4 13 -6 25 -6 39c0 84 52 130 163 130l30 -95c-37 -5 -54 -15 -54 -39c0 -9 2 -21 7 -35zM276 102c124 0 240 -30 240 -154c0 -85 -70 -170 -274 -170c-162 0 -238 59 -238 142c0 49 32 89 59 115v3c-24 17 -38 42 -38 75c0 32 14 61 54 103
c-25 29 -39 66 -39 107c0 105 86 177 216 177c33 0 64 -5 91 -14l89 90l97 -99l-79 -68l-1 -5c13 -24 20 -51 20 -81c0 -105 -87 -177 -217 -177c-32 0 -63 5 -90 14c-12 -12 -20 -22 -20 -35c0 -11 8 -23 51 -23h79zM256 382c-30 0 -50 -23 -50 -58c0 -36 20 -59 50 -59
s49 23 49 59c0 35 -19 58 -49 58zM242 -99c62 0 97 17 97 42c0 22 -25 28 -76 28c-37 0 -80 1 -108 5c-7 -10 -11 -20 -11 -31c0 -26 32 -44 98 -44z" />
    <glyph glyph-name="gdotaccent.alt" horiz-adv-x="532" 
d="M256 545c-60 0 -103 42 -103 97c0 53 43 95 103 95s102 -41 102 -95c0 -56 -42 -97 -102 -97zM276 102c124 0 240 -30 240 -154c0 -85 -70 -170 -274 -170c-162 0 -238 59 -238 142c0 49 32 89 59 115v3c-24 17 -38 42 -38 75c0 32 14 61 54 103c-25 29 -39 66 -39 107
c0 105 86 177 216 177c33 0 64 -5 91 -14l89 90l97 -99l-79 -68l-1 -5c13 -24 20 -51 20 -81c0 -105 -87 -177 -217 -177c-32 0 -63 5 -90 14c-12 -12 -20 -22 -20 -35c0 -11 8 -23 51 -23h79zM256 382c-30 0 -50 -23 -50 -58c0 -36 20 -59 50 -59s49 23 49 59
c0 35 -19 58 -49 58zM242 -99c62 0 97 17 97 42c0 22 -25 28 -76 28c-37 0 -80 1 -108 5c-7 -10 -11 -20 -11 -31c0 -26 32 -44 98 -44z" />
    <glyph glyph-name="f.calt" horiz-adv-x="349" 
d="M61 0v348h-44v142h44v70c0 127 69 187 168 187c33 0 63 -7 86 -15l-18 -135c-5 1 -10 2 -14 2c-24 0 -43 -9 -43 -42v-67h80v-142h-80v-348h-179z" />
    <glyph glyph-name="j.calt" horiz-adv-x="267" 
d="M134 553c-60 0 -103 42 -103 97c0 53 43 95 103 95s102 -41 102 -95c0 -56 -42 -97 -102 -97zM-4 -58c4 -1 14 -1 19 -1c27 0 29 22 29 59v490h179v-510c0 -126 -54 -188 -163 -188c-36 0 -62 4 -82 8z" />
    <glyph glyph-name="uni0237.calt" horiz-adv-x="267" 
d="M-4 -58c4 -1 14 -1 19 -1c27 0 29 22 29 59v490h179v-510c0 -126 -54 -188 -163 -188c-36 0 -62 4 -82 8z" />
    <glyph glyph-name="jcircumflex.calt" horiz-adv-x="267" 
d="M132 633l-37 -71h-148l106 156h154l114 -156h-150l-37 71h-2zM44 0v490h179v-510c0 -126 -54 -188 -163 -188c-36 0 -62 4 -82 8l18 142c4 -1 14 -1 19 -1c27 0 29 22 29 59z" />
    <glyph glyph-name="germandbls.calt" horiz-adv-x="786" 
d="M566 432c115 -43 198 -79 198 -207c0 -178 -149 -235 -248 -235c-77 0 -159 28 -229 87l85 152c55 -52 114 -72 146 -72c33 0 46 24 46 46c0 30 -14 45 -90 70c-45 15 -91 33 -138 69l114 206v4c-36 3 -70 5 -104 5c-65 0 -118 -35 -118 -111l-1 -446h-185l1 452
c0 206 118 269 295 269c125 0 248 -18 357 -49l-129 -239v-1z" />
    <glyph glyph-name="ordfeminine" unicode="&#xaa;" horiz-adv-x="375" 
d="M229 687h120v-296h-120v25h-2c-18 -22 -44 -32 -78 -32c-81 0 -133 64 -133 156s53 153 126 153c34 0 65 -14 86 -43h1v37zM140 539c0 -28 20 -43 44 -43c23 0 42 17 42 43c0 27 -20 43 -42 43c-25 0 -44 -18 -44 -43z" />
    <glyph glyph-name="ordmasculine" unicode="&#xba;" horiz-adv-x="374" 
d="M182 384c-98 0 -166 62 -166 155c0 92 68 154 166 154c99 0 167 -63 167 -154c0 -92 -68 -155 -167 -155zM182 495c25 0 43 19 43 44s-17 44 -43 44c-25 0 -43 -17 -43 -44s19 -44 43 -44z" />
    <glyph glyph-name="Alpha" unicode="&#x391;" horiz-adv-x="693" 
d="M497 0l-36 115h-228l-36 -115h-199l258 710h182l257 -710h-198zM282 274h130l-64 205h-2z" />
    <glyph glyph-name="Beta" unicode="&#x392;" horiz-adv-x="626" 
d="M458 380c111 -29 146 -97 146 -180c0 -115 -74 -200 -225 -200h-326v710h279c163 0 235 -67 235 -173c0 -58 -22 -122 -109 -155v-2zM237 545v-115h62c46 0 77 21 77 57c0 33 -25 58 -79 58h-60zM321 163c51 0 86 22 86 65c0 36 -26 63 -87 63h-83v-128h84z" />
    <glyph glyph-name="Gamma" unicode="&#x393;" horiz-adv-x="556" 
d="M53 0v710h487v-168h-296v-542h-191z" />
    <glyph glyph-name="uni0394" unicode="&#x394;" horiz-adv-x="684" 
d="M436 710l224 -565v-145h-155h-462h-19v145l224 565h188zM235 169h212l-103 304h-2z" />
    <glyph glyph-name="Epsilon" unicode="&#x395;" horiz-adv-x="574" 
d="M52 0v710h472v-169h-288v-107h225v-165h-225v-100h309v-169h-493z" />
    <glyph glyph-name="Zeta" unicode="&#x396;" horiz-adv-x="607" 
d="M574 567l-298 -397v-1h298v-169h-541v148l287 390v3h-278v169h532v-143z" />
    <glyph glyph-name="Eta" unicode="&#x397;" horiz-adv-x="705" 
d="M53 0v710h192v-283h214v283h193v-710h-193v259h-214v-259h-192z" />
    <glyph glyph-name="Theta" unicode="&#x398;" horiz-adv-x="798" 
d="M399 -10c-218 0 -369 149 -369 365s151 366 369 366c216 0 369 -148 369 -366c0 -217 -153 -365 -369 -365zM399 167c101 0 170 83 170 188c0 104 -69 188 -170 188c-100 0 -171 -83 -171 -188s71 -188 171 -188zM299 272v158h197v-158h-197z" />
    <glyph glyph-name="Iota" unicode="&#x399;" horiz-adv-x="307" 
d="M57 0v710h193v-710h-193z" />
    <glyph glyph-name="Kappa" unicode="&#x39a;" horiz-adv-x="661" 
d="M434 0l-152 256l-40 -49v-207h-189v710h189v-239h2l173 239h240l-250 -303l260 -407h-233z" />
    <glyph glyph-name="Lambda" unicode="&#x39b;" horiz-adv-x="662" 
d="M462 0l-130 443h-2l-130 -443h-202l241 710h183l242 -710h-202z" />
    <glyph glyph-name="Mu" unicode="&#x39c;" horiz-adv-x="847" 
d="M601 710h193v-710h-188v350h-3l-119 -222h-121l-119 223h-3v-351h-188v710h192l177 -351h4z" />
    <glyph glyph-name="Nu" unicode="&#x39d;" horiz-adv-x="727" 
d="M484 710h190v-710h-197l-233 389h-2v-389h-189v710h191l237 -400h3v400z" />
    <glyph glyph-name="Xi" unicode="&#x39e;" horiz-adv-x="614" 
d="M37 540v170h540v-170h-540zM101 272v162h408v-162h-408zM30 0v171h554v-171h-554z" />
    <glyph glyph-name="Omicron" unicode="&#x39f;" horiz-adv-x="797" 
d="M399 -10c-218 0 -369 149 -369 365s151 366 369 366c216 0 369 -148 369 -366c0 -217 -153 -365 -369 -365zM399 167c101 0 170 83 170 188c0 104 -69 188 -170 188c-100 0 -171 -83 -171 -188s71 -188 171 -188z" />
    <glyph glyph-name="Pi" unicode="&#x3a0;" horiz-adv-x="672" 
d="M53 0v710h567v-710h-192v541h-183v-541h-192z" />
    <glyph glyph-name="Rho" unicode="&#x3a1;" horiz-adv-x="604" 
d="M53 0v710h276c178 0 258 -106 258 -252c0 -161 -106 -241 -270 -241h-80v-217h-184zM237 381h50c61 0 103 28 103 81c0 44 -34 81 -103 81h-50v-162z" />
    <glyph glyph-name="Sigma" unicode="&#x3a3;" horiz-adv-x="581" 
d="M555 542h-268v-3l144 -184l-144 -184v-2h268v-169h-525v131l174 224l-174 219v136h525v-168z" />
    <glyph glyph-name="Tau" unicode="&#x3a4;" horiz-adv-x="584" 
d="M198 0v541h-180v169h549v-169h-180v-541h-189z" />
    <glyph glyph-name="Upsilon" unicode="&#x3a5;" horiz-adv-x="641" 
d="M427 710h220l-230 -403v-307h-194v307l-229 403h218l109 -217z" />
    <glyph glyph-name="Phi" unicode="&#x3a6;" horiz-adv-x="829" 
d="M802 361c0 -155 -105 -263 -292 -290v-71h-188v71c-189 26 -296 135 -296 290c0 157 107 273 296 301v63h188v-63c187 -29 292 -145 292 -301zM215 364c0 -65 43 -117 116 -139v282c-73 -24 -116 -79 -116 -143zM502 226c71 23 112 74 112 138c0 63 -41 117 -112 142
v-280z" />
    <glyph glyph-name="Chi" unicode="&#x3a7;" horiz-adv-x="712" 
d="M483 0l-125 212h-4l-126 -212h-221l222 358l-212 352h217l121 -206h3l121 206h216l-212 -352l222 -358h-222z" />
    <glyph glyph-name="Psi" unicode="&#x3a8;" horiz-adv-x="789" 
d="M573 710h179v-260c-1 -195 -102 -304 -265 -304v-146h-185v146h-1c-163 0 -265 109 -264 304v260h179v-237c-1 -118 30 -158 86 -162v399h185v-399c56 4 85 45 86 162v237z" />
    <glyph glyph-name="uni03A9" unicode="&#x3a9;" horiz-adv-x="731" 
d="M592 171v-2h101v-169h-289v169c60 60 97 131 97 218c0 92 -53 162 -136 161c-82 0 -136 -69 -136 -161c0 -87 38 -158 98 -218v-169h-289v169h101v2c-68 55 -109 127 -109 227c0 186 129 323 335 323c207 0 336 -137 336 -323c0 -100 -41 -172 -109 -227z" />
    <glyph glyph-name="Alphatonos" unicode="&#x386;" horiz-adv-x="693" 
d="M197 710l-105 -180h-151l68 180h188zM497 0l-36 115h-228l-36 -115h-199l258 710h182l257 -710h-198zM282 274h130l-64 205h-2z" />
    <glyph glyph-name="Epsilontonos" unicode="&#x388;" horiz-adv-x="576" 
d="M-247 530l68 180h188l-105 -180h-151zM52 0v710h472v-169h-288v-107h225v-165h-225v-100h309v-169h-493z" />
    <glyph glyph-name="Etatonos" unicode="&#x389;" horiz-adv-x="705" 
d="M-245 530l68 180h188l-105 -180h-151zM53 0v710h192v-283h214v283h193v-710h-193v259h-214v-259h-192z" />
    <glyph glyph-name="Iotatonos" unicode="&#x38a;" horiz-adv-x="307" 
d="M-234 530l68 180h188l-105 -180h-151zM57 0v710h193v-710h-193z" />
    <glyph glyph-name="Omicrontonos" unicode="&#x38c;" horiz-adv-x="797" 
d="M399 -10c-218 0 -369 149 -369 365s151 366 369 366c216 0 369 -148 369 -366c0 -217 -153 -365 -369 -365zM-145 530l68 180h188l-105 -180h-151zM399 167c101 0 170 83 170 188c0 104 -69 188 -170 188c-100 0 -171 -83 -171 -188s71 -188 171 -188z" />
    <glyph glyph-name="Upsilontonos" unicode="&#x38e;" horiz-adv-x="641" 
d="M-286 530l68 180h188l-105 -180h-151zM427 710h220l-230 -403v-307h-194v307l-229 403h218l109 -217z" />
    <glyph glyph-name="Omegatonos" unicode="&#x38f;" horiz-adv-x="731" 
d="M592 171v-2h101v-169h-289v169c60 60 97 131 97 218c0 92 -53 162 -136 161c-82 0 -136 -69 -136 -161c0 -87 38 -158 98 -218v-169h-289v169h101v2c-68 55 -109 127 -109 227c0 186 129 323 335 323c207 0 336 -137 336 -323c0 -100 -41 -172 -109 -227zM-110 710h188
l-105 -180h-151z" />
    <glyph glyph-name="Iotadieresis" unicode="&#x3aa;" horiz-adv-x="307" 
d="M42 765c-60 0 -102 42 -102 97c0 53 42 95 102 95c61 0 103 -41 103 -95c0 -56 -42 -97 -103 -97zM278 765c-60 0 -102 42 -102 97c0 53 42 95 102 95s103 -41 103 -95c0 -56 -43 -97 -103 -97zM57 0v710h193v-710h-193z" />
    <glyph glyph-name="Upsilondieresis" unicode="&#x3ab;" horiz-adv-x="641" 
d="M208 765c-60 0 -102 42 -102 97c0 53 42 95 102 95c61 0 103 -41 103 -95c0 -56 -42 -97 -103 -97zM444 765c-60 0 -102 42 -102 97c0 53 42 95 102 95s103 -41 103 -95c0 -56 -43 -97 -103 -97zM427 710h220l-230 -403v-307h-194v307l-229 403h218l109 -217z" />
    <glyph glyph-name="alpha" unicode="&#x3b1;" horiz-adv-x="595" 
d="M574 147l21 -132c-28 -15 -65 -25 -99 -25c-64 0 -107 19 -126 81h-1c-32 -58 -76 -81 -135 -81c-130 0 -213 104 -213 255s94 255 212 255c66 0 114 -29 142 -86h2l8 76h168l-34 -189v-123c0 -28 11 -37 27 -37c9 0 18 2 28 6zM276 147c41 0 75 39 80 98
c0 57 -27 97 -75 97c-46 0 -79 -40 -79 -97c0 -54 27 -98 74 -98z" />
    <glyph glyph-name="beta" unicode="&#x3b2;" horiz-adv-x="591" 
d="M464 399c67 -34 107 -101 107 -176c0 -143 -87 -233 -225 -233c-52 0 -92 14 -121 43h-2v-231h-179v684c0 177 102 261 248 261c160 0 243 -97 243 -195c0 -59 -17 -115 -71 -152v-1zM308 129c50 0 84 40 84 88c0 58 -38 92 -100 92h-23v133h15c60 0 80 47 80 82
c0 42 -24 71 -67 71c-32 0 -74 -14 -74 -90v-279c0 -54 35 -97 85 -97z" />
    <glyph glyph-name="gamma" unicode="&#x3b3;" horiz-adv-x="541" 
d="M538 490l-181 -497c18 -62 15 -131 16 -191h-171c-1 66 4 133 -34 236l-164 452h185l82 -279h2l80 279h185z" />
    <glyph glyph-name="delta" unicode="&#x3b4;" horiz-adv-x="568" 
d="M413 467c66 -41 135 -101 135 -222c0 -156 -111 -255 -261 -255c-155 0 -264 94 -264 235c0 106 58 177 121 220c-40 35 -66 79 -66 138c0 88 72 164 213 164c62 0 145 -9 220 -53l-56 -129c-50 25 -93 40 -142 40c-38 0 -60 -6 -60 -28c0 -26 47 -47 93 -73
c22 -12 46 -23 67 -37zM287 147c42 0 81 32 81 93c0 58 -33 81 -81 109l-23 14c-35 -28 -61 -72 -61 -123c0 -56 38 -93 84 -93z" />
    <glyph glyph-name="epsilon" unicode="&#x3b5;" horiz-adv-x="484" 
d="M418 161l61 -119c-79 -47 -154 -52 -247 -52c-128 0 -209 51 -209 145c0 53 25 96 75 120c-39 27 -60 68 -60 105c0 84 67 140 202 140c61 0 155 -3 230 -47l-56 -115c-53 16 -101 20 -147 20c-37 0 -60 -8 -60 -26c0 -11 11 -26 54 -26h79v-114h-89
c-35 0 -51 -11 -51 -28c0 -20 29 -32 82 -32c41 0 90 6 136 29z" />
    <glyph glyph-name="zeta" unicode="&#x3b6;" horiz-adv-x="469" 
d="M335 129c116 -47 141 -105 141 -162c0 -91 -48 -149 -85 -186l-149 68c36 36 54 65 54 88c0 30 -27 53 -82 72c-84 29 -194 73 -193 223c1 119 92 240 219 353v2h-185v149h417v-130c-143 -116 -270 -267 -272 -369c-1 -60 44 -70 135 -108z" />
    <glyph glyph-name="eta" unicode="&#x3b7;" horiz-adv-x="571" 
d="M358 500c109 0 174 -54 174 -209v-489h-179v447c0 64 -20 93 -59 93c-43 0 -71 -29 -71 -96v-246h-179v490h179v-53h1c36 42 84 63 134 63z" />
    <glyph glyph-name="theta" unicode="&#x3b8;" horiz-adv-x="584" 
d="M292 747c156 0 269 -112 269 -378c0 -213 -75 -379 -269 -379c-155 0 -269 111 -269 379c0 211 75 378 269 378zM292 594c-50 0 -81 -50 -89 -156h180c-6 94 -28 156 -91 156zM292 142c50 0 81 49 90 156h-180c6 -94 28 -156 90 -156z" />
    <glyph glyph-name="iota" unicode="&#x3b9;" horiz-adv-x="318" 
d="M199 -10c-93 0 -151 42 -151 177v323h179v-307c0 -38 16 -40 31 -40c9 0 24 2 39 4l21 -132c-33 -15 -74 -25 -119 -25z" />
    <glyph glyph-name="kappa" unicode="&#x3ba;" horiz-adv-x="582" 
d="M590 490l-206 -209l199 -281h-204l-112 159h-4l-40 -41v-118h-179v490h179v-145l2 -1l150 146h215z" />
    <glyph glyph-name="lambda" unicode="&#x3bb;" horiz-adv-x="557" 
d="M370 0c-29 94 -53 176 -74 248h-1l-102 -248h-189l210 463c-11 29 -21 55 -32 81c-16 39 -38 46 -63 46c-17 0 -49 -4 -67 -9l-22 139c50 18 94 27 130 27c95 0 140 -37 192 -163c78 -190 141 -377 204 -584h-186z" />
    <glyph glyph-name="uni03BC" unicode="&#x3bc;" horiz-adv-x="574" 
d="M353 490h179v-490h-165l-11 50h-2c-28 -39 -66 -60 -109 -60c-15 0 -27 2 -38 6l-4 -3c11 -38 20 -85 20 -124v-67h-179v688h179v-244c0 -70 18 -99 64 -99c37 0 66 30 66 97v246z" />
    <glyph glyph-name="nu" unicode="&#x3bd;" horiz-adv-x="543" 
d="M353 490h186l-187 -490h-161l-187 490h185l82 -279h1z" />
    <glyph glyph-name="xi" unicode="&#x3be;" horiz-adv-x="496" 
d="M350 131c113 -37 138 -97 138 -164c0 -81 -48 -145 -86 -186l-148 68c33 38 53 68 53 94c0 27 -23 48 -78 64c-96 29 -207 66 -207 207c0 72 40 138 109 180v2c-45 34 -76 81 -76 145c0 139 116 206 242 206c52 0 133 -9 208 -53l-59 -142c-50 25 -88 40 -142 40
c-46 0 -74 -31 -74 -62c0 -39 38 -75 174 -75h39v-145h-116c-86 0 -125 -32 -125 -86c0 -41 43 -59 148 -93z" />
    <glyph glyph-name="omicron" unicode="&#x3bf;" horiz-adv-x="576" 
d="M288 -10c-156 0 -265 104 -265 255s109 255 265 255c157 0 265 -104 265 -255s-108 -255 -265 -255zM288 147c48 0 86 41 86 98s-36 97 -86 97s-85 -40 -85 -97s37 -98 85 -98z" />
    <glyph glyph-name="pi" unicode="&#x3c0;" horiz-adv-x="642" 
d="M627 490v-150h-73v-340h-177v340h-108v-340h-176v340h-78v150h612z" />
    <glyph glyph-name="rho" unicode="&#x3c1;" horiz-adv-x="583" 
d="M292 500c152 0 271 -101 271 -255c0 -151 -91 -255 -223 -255c-52 0 -94 15 -125 45h-2v-233h-178v443c0 143 88 255 257 255zM292 147c52 0 91 39 91 98c0 57 -39 97 -91 97c-47 0 -86 -40 -86 -97c0 -59 39 -98 86 -98z" />
    <glyph glyph-name="uni03C2" unicode="&#x3c2;" horiz-adv-x="504" 
d="M393 -219l-149 68c32 31 52 59 52 88c0 26 -9 41 -76 70c-93 41 -199 96 -199 251c0 148 110 242 271 242c82 0 164 -34 214 -101l-119 -101c-22 26 -50 44 -91 44c-58 0 -95 -33 -95 -84c0 -55 38 -85 123 -123c125 -55 153 -101 153 -168c0 -85 -47 -149 -84 -186z" />
    <glyph glyph-name="sigma" unicode="&#x3c3;" horiz-adv-x="594" 
d="M588 345h-103v-2c35 -31 57 -71 57 -126c0 -133 -110 -227 -265 -227c-146 0 -256 99 -256 250c0 152 106 250 274 250h293v-145zM282 147c46 0 80 37 80 93c0 41 -17 78 -39 105h-23c-62 0 -99 -40 -99 -105c0 -61 44 -93 81 -93z" />
    <glyph glyph-name="tau" unicode="&#x3c4;" horiz-adv-x="461" 
d="M283 -10c-93 0 -160 47 -160 182v173h-118v145h439v-145h-143v-147c0 -48 16 -55 41 -55c15 0 31 3 44 7l43 -122c-31 -19 -71 -38 -146 -38z" />
    <glyph glyph-name="upsilon" unicode="&#x3c5;" horiz-adv-x="552" 
d="M276 -10c-145 0 -237 81 -237 255v245h178v-244c0 -69 18 -99 59 -99c39 0 59 30 59 99v244h179v-245c0 -174 -93 -255 -238 -255z" />
    <glyph glyph-name="phi" unicode="&#x3c6;" horiz-adv-x="719" 
d="M698 259c0 -144 -89 -255 -259 -262v-195h-175v196c-141 9 -241 107 -241 281c0 80 19 148 64 221l159 -22c-33 -63 -49 -132 -49 -184c0 -91 22 -139 71 -155v122c0 143 72 239 196 239c158 0 234 -95 234 -241zM436 136c58 14 90 64 90 123c0 52 -14 89 -47 89
c-35 0 -43 -41 -43 -86v-126z" />
    <glyph glyph-name="chi" unicode="&#x3c7;" horiz-adv-x="541" 
d="M522 -51l23 -143c-34 -10 -65 -14 -96 -14c-95 0 -132 39 -170 159l-10 32h-1l-85 -181h-188l194 358l-63 137c-17 36 -35 48 -64 48c-8 0 -17 -1 -26 -2l-24 143c34 10 65 14 92 14c87 0 120 -37 160 -138l9 -28h1l72 156h192l-181 -329l75 -166c15 -35 34 -48 64 -48
c7 0 16 1 26 2z" />
    <glyph glyph-name="psi" unicode="&#x3c8;" horiz-adv-x="731" 
d="M527 490h167v-250c0 -168 -103 -245 -239 -251v-187h-178v187c-136 5 -239 83 -239 251v250h166v-240c0 -66 31 -100 78 -104v486h168v-486c47 4 77 38 77 104v240z" />
    <glyph glyph-name="omega" unicode="&#x3c9;" horiz-adv-x="731" 
d="M638 500c33 -64 71 -123 71 -268c0 -164 -94 -242 -195 -242c-72 0 -119 23 -148 69h-2c-28 -46 -75 -69 -147 -69c-101 0 -196 78 -196 242c0 145 39 204 72 268l160 -24c-31 -72 -51 -158 -51 -225c0 -75 15 -104 45 -104c21 0 46 30 46 97v123h145v-123
c0 -67 25 -97 46 -97c30 0 45 29 45 104c0 67 -20 153 -51 225z" />
    <glyph glyph-name="iotatonos" unicode="&#x3af;" horiz-adv-x="318" 
d="M67 557l53 180h188l-90 -180h-151zM199 -10c-93 0 -151 42 -151 177v323h179v-307c0 -38 16 -40 31 -40c9 0 24 2 39 4l21 -132c-33 -15 -74 -25 -119 -25z" />
    <glyph glyph-name="iotadieresis" unicode="&#x3ca;" horiz-adv-x="318" 
d="M17 545c-60 0 -102 42 -102 97c0 53 42 95 102 95c61 0 103 -41 103 -95c0 -56 -42 -97 -103 -97zM253 545c-60 0 -102 42 -102 97c0 53 42 95 102 95s103 -41 103 -95c0 -56 -43 -97 -103 -97zM199 -10c-93 0 -151 42 -151 177v323h179v-307c0 -38 16 -40 31 -40
c9 0 24 2 39 4l21 -132c-33 -15 -74 -25 -119 -25z" />
    <glyph glyph-name="iotadieresistonos" unicode="&#x390;" horiz-adv-x="318" 
d="M-42 545c-60 0 -103 42 -103 97c0 53 43 95 103 95s102 -41 102 -95c0 -56 -42 -97 -102 -97zM77 557l1 180h137l-33 -180h-105zM319 545c-60 0 -102 42 -102 97c0 53 42 95 102 95s103 -41 103 -95c0 -56 -43 -97 -103 -97zM199 -10c-93 0 -151 42 -151 177v323h179
v-307c0 -38 16 -40 31 -40c9 0 24 2 39 4l21 -132c-33 -15 -74 -25 -119 -25z" />
    <glyph glyph-name="upsilontonos" unicode="&#x3cd;" horiz-adv-x="552" 
d="M208 558l53 180h188l-90 -180h-151zM276 -10c-145 0 -237 81 -237 255v245h178v-244c0 -69 18 -99 59 -99c39 0 59 30 59 99v244h179v-245c0 -174 -93 -255 -238 -255z" />
    <glyph glyph-name="upsilondieresis" unicode="&#x3cb;" horiz-adv-x="552" 
d="M158 546c-60 0 -102 42 -102 97c0 53 42 95 102 95c61 0 103 -41 103 -95c0 -56 -42 -97 -103 -97zM394 546c-60 0 -102 42 -102 97c0 53 42 95 102 95s103 -41 103 -95c0 -56 -43 -97 -103 -97zM276 -10c-145 0 -237 81 -237 255v245h178v-244c0 -69 18 -99 59 -99
c39 0 59 30 59 99v244h179v-245c0 -174 -93 -255 -238 -255z" />
    <glyph glyph-name="upsilondieresistonos" unicode="&#x3b0;" horiz-adv-x="552" 
d="M99 546c-60 0 -103 42 -103 97c0 53 43 95 103 95s102 -41 102 -95c0 -56 -42 -97 -102 -97zM218 558l1 180h137l-33 -180h-105zM460 546c-60 0 -102 42 -102 97c0 53 42 95 102 95s103 -41 103 -95c0 -56 -43 -97 -103 -97zM276 -10c-145 0 -237 81 -237 255v245h178
v-244c0 -69 18 -99 59 -99c39 0 59 30 59 99v244h179v-245c0 -174 -93 -255 -238 -255z" />
    <glyph glyph-name="omicrontonos" unicode="&#x3cc;" horiz-adv-x="576" 
d="M217 558l53 180h188l-90 -180h-151zM288 -10c-156 0 -265 104 -265 255s109 255 265 255c157 0 265 -104 265 -255s-108 -255 -265 -255zM288 147c48 0 86 41 86 98s-36 97 -86 97s-85 -40 -85 -97s37 -98 85 -98z" />
    <glyph glyph-name="omegatonos" unicode="&#x3ce;" horiz-adv-x="731" 
d="M535 738l-90 -180h-151l53 180h188zM638 500c33 -64 71 -123 71 -268c0 -164 -94 -242 -195 -242c-72 0 -119 23 -148 69h-2c-28 -46 -75 -69 -147 -69c-101 0 -196 78 -196 242c0 145 39 204 72 268l160 -24c-31 -72 -51 -158 -51 -225c0 -75 15 -104 45 -104
c21 0 46 30 46 97v123h145v-123c0 -67 25 -97 46 -97c30 0 45 29 45 104c0 67 -20 153 -51 225z" />
    <glyph glyph-name="alphatonos" unicode="&#x3ac;" horiz-adv-x="595" 
d="M461 737l-90 -180h-151l53 180h188zM574 147l21 -132c-28 -15 -65 -25 -99 -25c-64 0 -107 19 -126 81h-1c-32 -58 -76 -81 -135 -81c-130 0 -213 104 -213 255s94 255 212 255c66 0 114 -29 142 -86h2l8 76h168l-34 -189v-123c0 -28 11 -37 27 -37c9 0 18 2 28 6z
M276 147c41 0 75 39 80 98c0 57 -27 97 -75 97c-46 0 -79 -40 -79 -97c0 -54 27 -98 74 -98z" />
    <glyph glyph-name="epsilontonos" unicode="&#x3ad;" horiz-adv-x="484" 
d="M415 738l-90 -180h-151l53 180h188zM418 161l61 -119c-79 -47 -154 -52 -247 -52c-128 0 -209 51 -209 145c0 53 25 96 75 120c-39 27 -60 68 -60 105c0 84 67 140 202 140c61 0 155 -3 230 -47l-56 -115c-53 16 -101 20 -147 20c-37 0 -60 -8 -60 -26
c0 -11 11 -26 54 -26h79v-114h-89c-35 0 -51 -11 -51 -28c0 -20 29 -32 82 -32c41 0 90 6 136 29z" />
    <glyph glyph-name="etatonos" unicode="&#x3ae;" horiz-adv-x="571" 
d="M459 738l-90 -180h-151l53 180h188zM358 500c109 0 174 -54 174 -209v-489h-179v447c0 64 -20 93 -59 93c-43 0 -71 -29 -71 -96v-246h-179v490h179v-53h1c36 42 84 63 134 63z" />
    <glyph glyph-name="uni03D7" unicode="&#x3d7;" horiz-adv-x="597" 
d="M377 284c52 -118 116 -176 216 -197v-89c-150 -163 -247 -214 -387 -214c-90 0 -153 12 -201 35l25 133c46 -25 111 -38 153 -38c83 0 158 33 203 84v3c-55 37 -96 89 -123 155h-2l-38 -42v-114h-179v490h179v-147h2l125 147h215z" />
    <glyph glyph-name="gamma.alt" horiz-adv-x="566" 
d="M552 490c-20 -196 -108 -360 -194 -490c12 -64 20 -135 24 -198h-165c-17 140 -36 220 -61 321c-32 133 -56 222 -114 222c-6 0 -16 -1 -25 -2l-24 143c34 10 69 14 99 14c91 0 122 -41 158 -138c21 -54 36 -109 47 -164h1c43 119 66 212 74 292h180z" />
    <glyph glyph-name="eta.alt" horiz-adv-x="610" 
d="M396 500c100 0 174 -54 174 -214v-484h-178v442c0 69 -20 98 -64 98c-38 0 -67 -29 -67 -96v-246h-178v312c0 26 -13 37 -33 37c-7 0 -15 -1 -23 -4l-22 133c29 13 66 22 100 22c71 0 117 -22 134 -95h1c36 63 94 95 156 95z" />
    <glyph glyph-name="uni03BC.alt" horiz-adv-x="608" 
d="M587 147l21 -132c-28 -15 -65 -25 -99 -25c-67 0 -111 19 -130 81h-2c-26 -52 -67 -81 -117 -81c-24 0 -43 6 -59 20l-3 -1c14 -41 25 -96 25 -140v-67h-179v688h179v-244c0 -70 18 -99 64 -99c37 0 66 30 66 97v246h179v-312c0 -28 11 -37 28 -37c8 0 17 2 27 6z" />
    <glyph glyph-name="nu.alt" horiz-adv-x="561" 
d="M537 490c1 -196 -87 -359 -194 -490h-158l-181 490h185l88 -302h2c44 79 67 172 68 302h190z" />
    <glyph glyph-name="xi.alt" horiz-adv-x="496" 
d="M350 131c113 -37 138 -97 138 -164c0 -86 -48 -149 -86 -186l-148 68c33 38 53 68 53 94c0 27 -23 47 -87 67c-112 33 -198 83 -198 195c0 53 29 123 115 162v3c-40 21 -67 54 -67 102c0 59 35 95 83 118v3l-103 -6v149h412v-130l-31 -1c-120 -5 -186 -30 -186 -85
c0 -39 37 -75 159 -75h39v-145h-136c-80 0 -105 -37 -105 -71c0 -46 43 -64 148 -98z" />
    <glyph glyph-name="pi.alt" horiz-adv-x="636" 
d="M598 147l21 -132c-33 -15 -75 -25 -119 -25c-88 0 -146 42 -146 172v178h-92v-340h-176v340h-82v140l80 10h532v-150h-88v-157c0 -38 15 -40 31 -40c9 0 24 2 39 4z" />
    <glyph glyph-name="upsilon.alt" horiz-adv-x="552" 
d="M272 -10c-145 0 -237 76 -237 250v250h178v-240c0 -68 18 -104 58 -103c43 2 73 57 73 157c0 61 -11 111 -25 176l170 20c27 -62 38 -121 38 -195c0 -227 -120 -315 -255 -315z" />
    <glyph glyph-name="psi.alt" horiz-adv-x="736" 
d="M711 303c0 -218 -115 -310 -257 -313v-188h-174v187c-140 3 -246 80 -246 251v250h168v-240c0 -77 31 -111 80 -114v497l169 10v-506c58 7 83 61 83 170c0 45 -7 97 -22 173l161 20c32 -73 38 -138 38 -197z" />
    <glyph glyph-name="upsilontonos.alt" horiz-adv-x="552" 
d="M200 558l53 180h188l-90 -180h-151zM272 -10c-145 0 -237 76 -237 250v250h178v-240c0 -68 18 -104 58 -103c43 2 73 57 73 157c0 61 -11 111 -25 176l170 20c27 -62 38 -121 38 -195c0 -227 -120 -315 -255 -315z" />
    <glyph glyph-name="upsilondieresis.alt" horiz-adv-x="552" 
d="M150 546c-60 0 -102 42 -102 97c0 53 42 95 102 95c61 0 103 -41 103 -95c0 -56 -42 -97 -103 -97zM386 546c-60 0 -102 42 -102 97c0 53 42 95 102 95s103 -41 103 -95c0 -56 -43 -97 -103 -97zM272 -10c-145 0 -237 76 -237 250v250h178v-240c0 -68 18 -104 58 -103
c43 2 73 57 73 157c0 61 -11 111 -25 176l170 20c27 -62 38 -121 38 -195c0 -227 -120 -315 -255 -315z" />
    <glyph glyph-name="upsilondieresistonos.alt" horiz-adv-x="552" 
d="M86 546c-60 0 -103 42 -103 97c0 53 43 95 103 95s102 -41 102 -95c0 -56 -42 -97 -102 -97zM205 558l1 180h137l-33 -180h-105zM447 546c-60 0 -102 42 -102 97c0 53 42 95 102 95s103 -41 103 -95c0 -56 -43 -97 -103 -97zM272 -10c-145 0 -237 76 -237 250v250h178
v-240c0 -68 18 -104 58 -103c43 2 73 57 73 157c0 61 -11 111 -25 176l170 20c27 -62 38 -121 38 -195c0 -227 -120 -315 -255 -315z" />
    <glyph glyph-name="etatonos.alt" horiz-adv-x="610" 
d="M498 738l-90 -180h-151l53 180h188zM396 500c100 0 174 -54 174 -214v-484h-178v442c0 69 -20 98 -64 98c-38 0 -67 -29 -67 -96v-246h-178v312c0 26 -13 37 -33 37c-7 0 -15 -1 -23 -4l-22 133c29 13 66 22 100 22c71 0 117 -22 134 -95h1c36 63 94 95 156 95z" />
    <glyph glyph-name="zero" unicode="0" horiz-adv-x="618" 
d="M309 -10c-169 0 -278 134 -278 354c0 215 109 353 278 353c168 0 278 -135 278 -353s-109 -354 -278 -354zM309 164c49 0 86 51 86 180c0 103 -25 179 -86 179c-50 0 -86 -53 -86 -179c0 -104 25 -180 86 -180z" />
    <glyph glyph-name="one" unicode="1" horiz-adv-x="430" 
d="M181 0v463l-94 -70l-88 138l223 156h147v-687h-188z" />
    <glyph glyph-name="two" unicode="2" horiz-adv-x="520" 
d="M285 167h206v-167h-464l-2 120l195 210c54 56 78 93 78 138c0 34 -24 58 -56 58c-33 0 -63 -15 -92 -54l-132 95c42 70 118 130 240 130c120 0 227 -78 227 -207c0 -81 -18 -134 -112 -231l-88 -91v-1z" />
    <glyph glyph-name="three" unicode="3" horiz-adv-x="522" 
d="M391 354c65 -31 106 -86 106 -165c0 -123 -102 -199 -241 -199c-128 0 -224 71 -257 164l162 62c12 -44 37 -66 81 -66c31 0 62 20 62 64c0 37 -26 65 -76 65h-41v141h53c36 0 59 22 59 56c0 36 -24 58 -59 58c-33 0 -52 -16 -65 -51l-149 79c28 78 116 135 219 135
c128 0 230 -68 230 -187c0 -66 -32 -120 -84 -155v-1z" />
    <glyph glyph-name="four" unicode="4" horiz-adv-x="557" 
d="M273 0v104h-266v106l304 477h141v-433h85v-150h-85v-104h-179zM188 240h105v167z" />
    <glyph glyph-name="five" unicode="5" horiz-adv-x="522" 
d="M290 448c112 0 205 -88 205 -220c0 -141 -108 -238 -251 -238c-94 0 -180 29 -247 102l132 107c25 -25 57 -44 97 -44c45 0 83 33 83 75c0 57 -50 79 -80 79c-25 0 -48 -7 -83 -33l-96 38l23 373h384v-166h-237l-6 -86c28 8 55 13 76 13z" />
    <glyph glyph-name="six" unicode="6" horiz-adv-x="563" 
d="M333 445c103 0 203 -76 203 -222c0 -143 -106 -233 -255 -233s-250 113 -250 284c0 199 130 390 376 437l48 -141c-118 -34 -185 -79 -219 -145l2 -1c30 14 64 21 95 21zM282 149c51 0 80 35 80 81c0 45 -30 78 -80 78c-25 0 -56 -15 -79 -42v-9c0 -68 37 -108 79 -108z
" />
    <glyph glyph-name="seven" unicode="7" horiz-adv-x="463" 
d="M12 687h430v-119l-206 -586l-183 33l190 507h-231v165z" />
    <glyph glyph-name="eight" unicode="8" horiz-adv-x="554" 
d="M411 372c70 -26 122 -88 122 -182c0 -126 -113 -200 -257 -200c-142 0 -255 75 -255 200c0 94 54 156 122 182v1c-46 19 -83 75 -83 140c0 123 96 184 216 184s217 -62 217 -184c0 -65 -37 -120 -82 -140v-1zM276 556c-29 0 -52 -26 -52 -60c0 -32 22 -57 52 -57
s53 25 53 57c0 34 -23 60 -53 60zM276 139c40 0 70 35 70 77s-30 74 -70 74s-70 -32 -70 -74c0 -43 31 -77 70 -77z" />
    <glyph glyph-name="nine" unicode="9" horiz-adv-x="565" 
d="M275 697c159 0 257 -116 257 -287c0 -199 -132 -390 -378 -437l-49 141c120 34 187 80 222 148c-32 -15 -67 -23 -100 -23c-103 0 -203 76 -203 222c0 143 111 236 251 236zM199 454c0 -46 30 -78 79 -78c25 0 57 16 80 43v8c0 68 -38 109 -81 109c-49 0 -78 -36 -78 -82
z" />
    <glyph glyph-name="fraction" unicode="&#x2044;" horiz-adv-x="243" 
d="M38 -28l-122 52l317 704l122 -53z" />
    <glyph glyph-name="onehalf" unicode="&#xbd;" horiz-adv-x="837" 
d="M504 728l122 -53l-317 -703l-122 52zM239 298h-126v256l-51 -36l-62 96l143 96h96v-412zM705 114h118v-114h-297l-1 83l117 123c36 36 49 53 49 73c0 15 -12 23 -28 23c-13 0 -33 -7 -50 -26l-94 66c27 41 80 78 156 78s145 -47 145 -126c0 -47 -7 -80 -71 -138l-44 -40
v-2z" />
    <glyph glyph-name="onequarter" unicode="&#xbc;" horiz-adv-x="804" 
d="M309 -28l-122 52l317 704l122 -53zM113 298v256l-51 -36l-62 96l143 96h96v-412h-126zM620 0v59h-152v74l179 279h99v-246h51v-107h-51v-59h-126zM569 157h62v98z" />
    <glyph glyph-name="threequarters" unicode="&#xbe;" horiz-adv-x="828" 
d="M528 728l122 -53l-317 -703l-122 52zM318 413c0 -77 -63 -123 -154 -123c-81 0 -144 46 -164 105l114 44c6 -25 20 -39 41 -39c19 0 32 13 32 29c0 21 -15 32 -42 32h-24v91h31c19 0 33 11 33 26c0 16 -12 29 -29 29c-13 0 -27 -7 -34 -31l-104 55c16 50 73 87 139 87
c82 0 147 -41 147 -115c0 -40 -18 -71 -48 -92v-1c39 -18 62 -50 62 -97zM770 166h51v-107h-51v-59h-126v59h-152v74l179 279h99v-246zM655 157v98l-62 -98h62z" />
    <glyph glyph-name="uni2070" unicode="&#x2070;" horiz-adv-x="399" 
d="M199 424c-118 0 -184 89 -184 217c0 142 78 216 184 216c118 0 185 -90 185 -216c0 -144 -79 -217 -185 -217zM199 540c33 0 57 31 57 100c0 63 -20 100 -57 100c-32 0 -56 -31 -56 -100c0 -62 20 -100 56 -100z" />
    <glyph glyph-name="uni00B9" unicode="&#xb9;" horiz-adv-x="280" 
d="M113 435v256l-51 -36l-62 96l143 96h96v-412h-126z" />
    <glyph glyph-name="uni00B2" unicode="&#xb2;" horiz-adv-x="323" 
d="M191 549h118v-114h-297l-1 83l117 123c36 36 49 53 49 73c0 15 -12 23 -28 23c-13 0 -33 -7 -50 -26l-94 66c27 41 80 78 156 78s145 -47 145 -126c0 -47 -7 -80 -71 -138l-44 -40v-2z" />
    <glyph glyph-name="uni00B3" unicode="&#xb3;" horiz-adv-x="331" 
d="M256 647c39 -18 62 -50 62 -97c0 -77 -63 -123 -154 -123c-81 0 -144 46 -164 105l114 44c6 -25 20 -39 41 -39c19 0 32 13 32 29c0 21 -15 32 -42 32h-24v91h31c19 0 33 11 33 26c0 16 -12 29 -29 29c-13 0 -27 -7 -34 -31l-104 55c16 50 73 87 139 87
c82 0 147 -41 147 -115c0 -40 -18 -71 -48 -92v-1z" />
    <glyph glyph-name="asterisk" unicode="*" horiz-adv-x="382" 
d="M141 375l5 89l-74 -47l-51 86l78 39l-78 41l51 87l74 -48l-5 88h100l-6 -88l75 46l51 -85l-79 -40l79 -40l-51 -87l-72 48l3 -89h-100z" />
    <glyph glyph-name="backslash" unicode="\" horiz-adv-x="446" 
d="M362 -111l-378 855l120 55l379 -855z" />
    <glyph glyph-name="periodcentered" unicode="&#xb7;" horiz-adv-x="278" 
d="M149 145c-54 0 -98 43 -98 96c0 52 44 95 98 95c53 0 97 -43 97 -95c0 -53 -44 -96 -97 -96z" />
    <glyph glyph-name="bullet" unicode="&#x2022;" horiz-adv-x="412" 
d="M206 185c-72 0 -132 59 -132 131c0 73 60 132 132 132c74 0 132 -59 132 -132c0 -72 -58 -131 -132 -131z" />
    <glyph glyph-name="colon" unicode=":" horiz-adv-x="271" 
d="M137 308c-54 0 -98 43 -98 96c0 52 44 95 98 95c53 0 97 -43 97 -95c0 -53 -44 -96 -97 -96zM137 -10c-54 0 -98 43 -98 96c0 52 44 95 98 95c53 0 97 -43 97 -95c0 -53 -44 -96 -97 -96z" />
    <glyph glyph-name="comma" unicode="," horiz-adv-x="249" 
d="M14 -135l28 279h172l-73 -279h-127z" />
    <glyph glyph-name="ellipsis" unicode="&#x2026;" horiz-adv-x="1000" 
d="M160 -10c-54 0 -98 43 -98 96c0 52 44 95 98 95c53 0 97 -43 97 -95c0 -53 -44 -96 -97 -96zM494 -10c-54 0 -98 43 -98 96c0 52 44 95 98 95c53 0 97 -43 97 -95c0 -53 -44 -96 -97 -96zM828 -10c-54 0 -98 43 -98 96c0 52 44 95 98 95c53 0 97 -43 97 -95
c0 -53 -44 -96 -97 -96z" />
    <glyph glyph-name="exclam" unicode="!" horiz-adv-x="299" 
d="M86 256l-30 480h185l-30 -480h-125zM150 -10c-54 0 -98 43 -98 96c0 52 44 95 98 95c53 0 97 -43 97 -95c0 -53 -44 -96 -97 -96z" />
    <glyph glyph-name="exclamdown" unicode="&#xa1;" horiz-adv-x="299" 
d="M150 499c53 0 97 -43 97 -96c0 -52 -44 -95 -97 -95c-54 0 -98 43 -98 95c0 53 44 96 98 96zM86 233h125l30 -480h-185z" />
    <glyph glyph-name="numbersign" unicode="#" horiz-adv-x="645" 
d="M89 -52l27 172h-94v130h114l19 118h-106v129h126l24 159h118l-25 -159h114l25 159h117l-24 -159h97l-1 -129h-116l-19 -118h108l-1 -130h-127l-27 -172h-118l27 172h-113l-26 -172h-119zM254 250h113l19 118h-113z" />
    <glyph glyph-name="period" unicode="." horiz-adv-x="267" 
d="M134 -10c-54 0 -98 43 -98 96c0 52 44 95 98 95c53 0 97 -43 97 -95c0 -53 -44 -96 -97 -96z" />
    <glyph glyph-name="question" unicode="?" horiz-adv-x="469" 
d="M118 250l-1 48c-1 64 45 103 82 143c28 29 61 61 61 95c0 31 -17 50 -53 50s-64 -18 -87 -41l-120 110c45 53 134 92 221 92c123 0 224 -62 224 -201c0 -77 -45 -127 -90 -168c-38 -34 -70 -60 -73 -90l-5 -38h-159zM201 -10c-54 0 -98 43 -98 96c0 52 44 95 98 95
c53 0 97 -43 97 -95c0 -53 -44 -96 -97 -96z" />
    <glyph glyph-name="questiondown" unicode="&#xbf;" horiz-adv-x="454" 
d="M276 499c54 0 98 -43 98 -96c0 -52 -44 -95 -98 -95c-53 0 -97 43 -97 95c0 53 44 96 97 96zM359 239l1 -48c1 -64 -45 -103 -82 -143c-28 -29 -61 -61 -61 -95c0 -31 17 -50 53 -50s64 18 87 41l120 -110c-45 -53 -134 -92 -221 -92c-123 0 -224 62 -224 201
c0 77 45 127 90 168c38 34 70 60 73 90l5 38h159z" />
    <glyph glyph-name="quotedbl" unicode="&#x22;" horiz-adv-x="472" 
d="M26 432l29 278h172l-73 -278h-128zM254 432l29 278h173l-74 -278h-128z" />
    <glyph glyph-name="quotesingle" unicode="'" horiz-adv-x="243" 
d="M26 432l29 278h172l-73 -278h-128z" />
    <glyph glyph-name="semicolon" unicode=";" horiz-adv-x="256" 
d="M125 308c-54 0 -98 43 -98 96c0 52 44 95 98 95c53 0 97 -43 97 -95c0 -53 -44 -96 -97 -96zM14 -135l28 279h172l-73 -279h-127z" />
    <glyph glyph-name="slash" unicode="/" horiz-adv-x="446" 
d="M96 -111l-121 55l379 855l120 -55z" />
    <glyph glyph-name="underscore" unicode="_" horiz-adv-x="526" 
d="M-9 -144v117h544v-117h-544z" />
    <glyph glyph-name="bullet.case" horiz-adv-x="413" 
d="M206 216c-72 0 -132 59 -132 131c0 73 60 132 132 132c74 0 132 -59 132 -132c0 -72 -58 -131 -132 -131z" />
    <glyph glyph-name="exclamdown.case" horiz-adv-x="299" 
d="M150 544c53 0 97 -43 97 -96c0 -52 -44 -95 -97 -95c-54 0 -98 43 -98 95c0 53 44 96 98 96zM86 278h125l30 -480h-185z" />
    <glyph glyph-name="questiondown.case" horiz-adv-x="469" 
d="M281 544c54 0 98 -43 98 -96c0 -52 -44 -95 -98 -95c-53 0 -97 43 -97 95c0 53 44 96 97 96zM364 284l1 -48c1 -64 -45 -103 -82 -143c-28 -29 -61 -61 -61 -95c0 -31 17 -50 53 -50s64 18 87 41l120 -110c-45 -53 -134 -92 -221 -92c-123 0 -224 62 -224 201
c0 77 45 127 90 168c38 34 70 60 73 90l5 38h159z" />
    <glyph glyph-name="braceleft" unicode="{" horiz-adv-x="352" 
d="M257 408c0 -64 -19 -96 -52 -114c33 -16 52 -25 52 -115v-153c0 -36 4 -64 52 -64h19v-111h-90c-69 0 -125 56 -125 140v160c0 44 -1 79 -87 80v126c86 0 87 44 87 79v160c0 78 50 141 125 141h90v-112h-19c-48 0 -52 -45 -52 -62v-155z" />
    <glyph glyph-name="braceright" unicode="}" horiz-adv-x="352" 
d="M252 436c0 -35 1 -79 87 -79v-126c-86 -1 -87 -36 -87 -80v-160c0 -84 -56 -140 -125 -140h-90v111h19c48 0 52 28 52 64v153c0 90 19 99 52 115c-33 18 -52 50 -52 114v155c0 17 -4 62 -52 62h-19v112h90c75 0 125 -63 125 -141v-160z" />
    <glyph glyph-name="bracketleft" unicode="[" horiz-adv-x="363" 
d="M58 -151v888h274v-127h-127v-633h127v-128h-274z" />
    <glyph glyph-name="bracketright" unicode="]" horiz-adv-x="363" 
d="M318 -151h-274v128h127v633h-127v127h274v-888z" />
    <glyph glyph-name="parenleft" unicode="(" horiz-adv-x="315" 
d="M167 -165c-84 121 -128 283 -128 459s44 339 128 459l125 -55c-64 -118 -98 -260 -98 -404s34 -284 98 -403z" />
    <glyph glyph-name="parenright" unicode=")" horiz-adv-x="315" 
d="M161 -165l-125 56c64 119 98 259 98 403s-34 286 -98 404l125 55c84 -120 128 -283 128 -459s-44 -338 -128 -459z" />
    <glyph glyph-name="braceleft.case" horiz-adv-x="352" 
d="M257 454c0 -64 -19 -96 -52 -114c33 -16 52 -25 52 -115v-153c0 -36 4 -64 52 -64h19v-111h-90c-69 0 -125 56 -125 140v160c0 44 -1 79 -87 80v126c86 0 87 44 87 79v160c0 78 50 141 125 141h90v-112h-19c-48 0 -52 -45 -52 -62v-155z" />
    <glyph glyph-name="braceright.case" horiz-adv-x="352" 
d="M252 483c0 -35 1 -79 87 -79v-126c-86 -1 -87 -36 -87 -80v-160c0 -84 -56 -140 -125 -140h-90v111h19c48 0 52 28 52 64v153c0 90 19 99 52 115c-33 18 -52 50 -52 114v155c0 17 -4 62 -52 62h-19v112h90c75 0 125 -63 125 -141v-160z" />
    <glyph glyph-name="bracketleft.case" horiz-adv-x="363" 
d="M58 -107v888h274v-127h-127v-633h127v-128h-274z" />
    <glyph glyph-name="bracketright.case" horiz-adv-x="389" 
d="M344 -106h-274v128h127v633h-127v127h274v-888z" />
    <glyph glyph-name="parenleft.case" horiz-adv-x="311" 
d="M167 -120c-84 121 -128 283 -128 459s44 339 128 459l125 -55c-64 -118 -98 -260 -98 -404s34 -284 98 -403z" />
    <glyph glyph-name="parenright.case" horiz-adv-x="299" 
d="M161 -120l-125 56c64 119 98 259 98 403s-34 286 -98 404l125 55c84 -120 128 -283 128 -459s-44 -338 -128 -459z" />
    <glyph glyph-name="emdash" unicode="&#x2014;" horiz-adv-x="998" 
d="M32 226v146h934v-146h-934z" />
    <glyph glyph-name="endash" unicode="&#x2013;" horiz-adv-x="531" 
d="M32 226v146h467v-146h-467z" />
    <glyph glyph-name="uni2015" unicode="&#x2015;" horiz-adv-x="1169" 
d="M32 226v146h1105v-146h-1105z" />
    <glyph glyph-name="hyphen" unicode="-" horiz-adv-x="373" 
d="M32 230v159h309v-159h-309z" />
    <glyph glyph-name="emdash.case" horiz-adv-x="991" 
d="M28 249v146h934v-146h-934z" />
    <glyph glyph-name="endash.case" horiz-adv-x="523" 
d="M28 249v146h467v-146h-467z" />
    <glyph glyph-name="uni2015.case" horiz-adv-x="1162" 
d="M29 250v145h1104v-145h-1104z" />
    <glyph glyph-name="hyphen.case" horiz-adv-x="354" 
d="M29 244v153h296v-153h-296z" />
    <glyph glyph-name="guillemotleft" unicode="&#xab;" horiz-adv-x="544" 
d="M311 53h-164l-111 195l113 198h163l-114 -198zM554 53h-164l-111 195l112 198h164l-115 -198z" />
    <glyph glyph-name="guillemotright" unicode="&#xbb;" horiz-adv-x="544" 
d="M3 53l114 195l-115 198h164l112 -198l-111 -195h-164zM246 53l113 195l-114 198h163l113 -198l-111 -195h-164z" />
    <glyph glyph-name="guilsinglleft" unicode="&#x2039;" horiz-adv-x="301" 
d="M311 443l-114 -195l115 -198h-164l-112 198l111 195h164z" />
    <glyph glyph-name="guilsinglright" unicode="&#x203a;" horiz-adv-x="301" 
d="M3 53l114 195l-115 198h164l112 -198l-111 -195h-164z" />
    <glyph glyph-name="quotedblbase" unicode="&#x201e;" horiz-adv-x="478" 
d="M13 -80l29 278h172l-73 -278h-128zM241 -80l29 278h173l-74 -278h-128z" />
    <glyph glyph-name="quotedblleft" unicode="&#x201c;" horiz-adv-x="472" 
d="M230 710l-29 -278h-173l74 278h128zM458 710l-29 -278h-172l73 278h128z" />
    <glyph glyph-name="quotedblright" unicode="&#x201d;" horiz-adv-x="472" 
d="M26 432l29 278h172l-73 -278h-128zM254 432l29 278h173l-74 -278h-128z" />
    <glyph glyph-name="quoteleft" unicode="&#x2018;" horiz-adv-x="243" 
d="M230 710l-29 -278h-172l73 278h128z" />
    <glyph glyph-name="quoteright" unicode="&#x2019;" horiz-adv-x="243" 
d="M26 432l29 278h172l-73 -278h-128z" />
    <glyph glyph-name="quotesinglbase" unicode="&#x201a;" horiz-adv-x="249" 
d="M14 -135l28 279h172l-73 -279h-127z" />
    <glyph glyph-name="guillemotleft.case" horiz-adv-x="544" 
d="M311 98h-164l-111 195l113 198h163l-114 -198zM554 98h-164l-111 195l112 198h164l-115 -198z" />
    <glyph glyph-name="guillemotright.case" horiz-adv-x="544" 
d="M3 97l114 195l-115 198h164l112 -198l-111 -195h-164zM246 97l113 195l-114 198h163l113 -198l-111 -195h-164z" />
    <glyph glyph-name="anoteleia" unicode="&#x387;" horiz-adv-x="262" 
d="M134 308c-54 0 -98 43 -98 96c0 52 44 95 98 95c53 0 97 -43 97 -95c0 -53 -44 -96 -97 -96z" />
    <glyph glyph-name="uni037E" unicode="&#x37e;" horiz-adv-x="256" 
d="M125 308c-54 0 -98 43 -98 96c0 52 44 95 98 95c53 0 97 -43 97 -95c0 -53 -44 -96 -97 -96zM14 -135l28 279h172l-73 -279h-127z" />
    <glyph glyph-name="uni2003" unicode="&#x2003;" horiz-adv-x="934" 
 />
    <glyph glyph-name="uni2002" unicode="&#x2002;" horiz-adv-x="467" 
 />
    <glyph glyph-name="space" unicode=" " horiz-adv-x="229" 
 />
    <glyph glyph-name="uni2009" unicode="&#x2009;" horiz-adv-x="14" 
 />
    <glyph glyph-name="CR" horiz-adv-x="236" 
 />
    <glyph glyph-name="cent" unicode="&#xa2;" horiz-adv-x="522" 
d="M510 136c-32 -38 -83 -72 -153 -86v-87h-136v86c-115 25 -196 120 -196 249c0 127 78 221 196 248v80h136v-79c59 -13 114 -44 151 -93l-119 -102c-22 26 -51 44 -91 44c-56 0 -93 -39 -93 -96c0 -56 39 -98 95 -98c46 0 73 23 88 41z" />
    <glyph glyph-name="currency" unicode="&#xa4;" horiz-adv-x="508" 
d="M438 389c0 -30 -7 -59 -21 -84l82 -83l-78 -79l-82 83c-26 -13 -54 -20 -85 -20c-30 0 -59 7 -84 21l-83 -83l-78 78l83 83c-13 26 -20 54 -20 84s7 58 20 82l-83 85l78 78l83 -83c26 14 54 21 84 21s59 -7 84 -21l83 84l78 -79l-81 -83c13 -25 20 -54 20 -84zM254 327
c35 1 63 29 64 64c0 35 -29 64 -64 64c-35 -1 -63 -29 -64 -64c0 -35 29 -63 64 -64z" />
    <glyph glyph-name="dollar" unicode="$" horiz-adv-x="559" 
d="M535 208c0 -112 -71 -187 -181 -208v-94h-139v93c-71 13 -139 47 -196 105l108 132c56 -52 120 -72 164 -72c28 0 42 13 42 29s-8 32 -80 53c-116 34 -217 77 -217 209c0 107 66 187 179 208v105h139v-110c63 -15 126 -47 172 -85l-105 -132c-59 40 -101 52 -140 52
c-34 0 -45 -10 -45 -25c0 -12 9 -28 70 -46c144 -42 229 -79 229 -214z" />
    <glyph glyph-name="dong" unicode="&#x20ab;" horiz-adv-x="597" 
d="M603 637v-101h-52v-536h-170v46h-1c-30 -38 -74 -56 -130 -56c-135 0 -228 104 -228 255s94 255 217 255c51 0 97 -20 132 -60h1v96h-76v101h76v99h179v-99h52zM289 146c52 0 90 39 90 99c0 58 -38 98 -90 98c-50 0 -87 -40 -87 -98c0 -60 37 -99 87 -99zM71 -186v145
h480v-145h-480z" />
    <glyph glyph-name="Euro" unicode="&#x20ac;" horiz-adv-x="600" 
d="M486 187l102 -136c-51 -36 -116 -60 -190 -60c-152 0 -288 86 -324 250h-64v65h56c-1 8 -1 16 -1 24c0 9 0 18 1 27h-56v65h65c34 143 148 248 323 248c60 0 127 -19 186 -59l-108 -134c-22 15 -49 24 -78 24c-47 0 -94 -28 -120 -79h176v-65h-194c-1 -9 -2 -18 -2 -27
c0 -8 0 -16 1 -24h195v-65h-177c23 -50 66 -82 121 -82c31 0 61 10 88 28z" />
    <glyph glyph-name="florin" unicode="&#x192;" horiz-adv-x="540" 
d="M96 -181c-97 0 -149 31 -161 44l59 115c25 -4 48 -8 66 -8c36 0 55 19 63 76l36 281h-74l20 144h74l12 92c15 117 81 184 205 184c96 0 149 -33 161 -45l-60 -115c-25 4 -48 8 -66 8c-36 0 -56 -19 -63 -77l-5 -47h117l-20 -144h-118l-42 -325
c-16 -118 -78 -183 -204 -183z" />
    <glyph glyph-name="uni20BA" unicode="&#x20ba;" horiz-adv-x="586" 
d="M424 305l140 -46c-43 -192 -139 -259 -278 -259h-211v185l-57 -27l-35 75l92 43v54l-57 -27l-35 75l92 43v289h192v-200l100 47l35 -75l-135 -63v-53l100 47l35 -76l-135 -63v-132h16c70 0 111 47 141 163z" />
    <glyph glyph-name="sterling" unicode="&#xa3;" horiz-adv-x="560" 
d="M36 0v167h54v123h-48v126h48v29c0 186 103 252 221 252c76 0 159 -34 211 -97l-91 -114c-30 30 -67 48 -94 48c-26 0 -57 -13 -57 -93v-25h133v-126h-131v-123h257v-167h-503z" />
    <glyph glyph-name="yen" unicode="&#xa5;" horiz-adv-x="620" 
d="M624 687l-142 -265h51v-64h-85l-28 -52h113v-64h-126v-242h-195v242h-136v64h123l-28 52h-95v64h61l-141 265h220l93 -219h2l90 219h223z" />
    <glyph glyph-name="uni2126" unicode="&#x2126;" horiz-adv-x="731" 
d="M592 171v-2h101v-169h-289v169c60 60 97 131 97 218c0 92 -53 162 -136 161c-82 0 -136 -69 -136 -161c0 -87 38 -158 98 -218v-169h-289v169h101v2c-68 55 -109 127 -109 227c0 186 129 323 335 323c207 0 336 -137 336 -323c0 -100 -41 -172 -109 -227z" />
    <glyph glyph-name="approxequal" unicode="&#x2248;" horiz-adv-x="585" 
d="M408 298c-67 0 -123 50 -200 50c-45 0 -88 -22 -116 -39l-47 109c14 18 79 72 144 72c77 0 133 -51 199 -51c42 0 77 19 104 42l48 -112c-22 -30 -73 -71 -132 -71zM408 74c-67 0 -123 50 -200 50c-45 0 -88 -21 -116 -39l-47 110c14 17 79 72 144 72
c77 0 133 -51 199 -51c42 0 77 17 104 41l48 -112c-22 -29 -73 -71 -132 -71z" />
    <glyph glyph-name="asciitilde" unicode="~" horiz-adv-x="563" 
d="M153 181l-116 47c26 79 79 144 155 144c51 0 79 -14 103 -24c17 -9 33 -13 53 -13c28 0 49 20 63 41l114 -39c-24 -82 -77 -153 -151 -153c-44 0 -75 12 -101 22c-20 8 -38 16 -59 16c-27 0 -47 -18 -61 -41z" />
    <glyph glyph-name="divide" unicode="&#xf7;" horiz-adv-x="553" 
d="M273 391c-54 0 -93 38 -93 88c0 48 39 86 93 86s92 -38 92 -86c0 -51 -38 -88 -92 -88zM37 205v145h480v-145h-480zM273 -10c-54 0 -93 38 -93 88c0 48 39 86 93 86s92 -38 92 -86c0 -51 -38 -88 -92 -88z" />
    <glyph glyph-name="emptyset" unicode="&#x2205;" horiz-adv-x="734" 
d="M633 507c37 -54 59 -119 59 -189c0 -177 -142 -327 -326 -327c-71 0 -136 23 -189 61l-55 -55l-70 69l55 55c-41 55 -65 124 -65 197c0 178 142 327 326 327c75 0 143 -25 197 -66l50 50l70 -70zM181 316c0 -35 9 -68 25 -96l258 258c-28 17 -61 27 -97 27
c-107 0 -186 -85 -186 -189zM366 130c106 0 186 85 186 188c0 32 -7 61 -21 88l-254 -254c26 -14 56 -22 89 -22z" />
    <glyph glyph-name="equal" unicode="=" horiz-adv-x="578" 
d="M49 321v145h480v-145h-480zM49 89v145h480v-145h-480z" />
    <glyph glyph-name="greater" unicode="&#x3e;" horiz-adv-x="567" 
d="M52 13v156l262 102l-262 100v160l476 -201v-121z" />
    <glyph glyph-name="greaterequal" unicode="&#x2265;" horiz-adv-x="572" 
d="M52 183v156l262 102l-262 100v160l476 -201v-121zM53 0v145h480v-145h-480z" />
    <glyph glyph-name="uni2206" unicode="&#x2206;" horiz-adv-x="684" 
d="M436 710l224 -565v-145h-155h-462h-19v145l224 565h188zM235 169h212l-103 304h-2z" />
    <glyph glyph-name="infinity" unicode="&#x221e;" horiz-adv-x="736" 
d="M530 462c99 0 173 -77 173 -181c0 -114 -82 -179 -173 -179c-64 0 -112 31 -163 91c-49 -60 -97 -91 -161 -91c-99 0 -172 76 -172 179c0 115 82 181 172 181c64 0 112 -32 161 -91c51 59 99 91 163 91zM225 229c38 0 55 24 79 52c-24 30 -41 52 -79 52
c-27 0 -51 -13 -51 -52c0 -38 24 -52 51 -52zM511 229c28 0 51 14 51 52c0 39 -23 52 -51 52c-37 0 -54 -23 -79 -52c25 -28 42 -52 79 -52z" />
    <glyph glyph-name="integral" unicode="&#x222b;" horiz-adv-x="465" 
d="M60 -177c-42 0 -70 5 -91 10l22 134h8c66 0 70 23 83 109l72 472c17 110 99 160 185 161c88 0 126 -22 126 -21l-20 -124c-19 0 -33 1 -47 1c-65 0 -68 -21 -82 -109l-71 -473c-16 -107 -98 -160 -185 -160z" />
    <glyph glyph-name="less" unicode="&#x3c;" horiz-adv-x="567" 
d="M528 13l-476 196v121l476 201v-160l-262 -100l262 -102v-156z" />
    <glyph glyph-name="lessequal" unicode="&#x2264;" horiz-adv-x="572" 
d="M532 183l-476 196v121l476 201v-160l-262 -100l262 -102v-156zM531 0h-480v145h480v-145z" />
    <glyph glyph-name="logicalnot" unicode="&#xac;" horiz-adv-x="536" 
d="M351 132v165h-314v145h462v-310h-148z" />
    <glyph glyph-name="uni00B5" unicode="&#xb5;" horiz-adv-x="574" 
d="M353 490h179v-490h-165l-11 50h-2c-28 -39 -66 -60 -109 -60c-15 0 -27 2 -38 6l-4 -3c11 -38 20 -85 20 -124v-67h-179v688h179v-244c0 -70 18 -99 64 -99c37 0 66 30 66 97v246z" />
    <glyph glyph-name="minus" unicode="&#x2212;" horiz-adv-x="553" 
d="M37 205v145h480v-145h-480z" />
    <glyph glyph-name="multiply" unicode="&#xd7;" horiz-adv-x="525" 
d="M390 47l-127 127l-127 -127l-104 105l127 126l-127 127l104 102l126 -126l127 127l104 -104l-127 -127l127 -127z" />
    <glyph glyph-name="notequal" unicode="&#x2260;" horiz-adv-x="578" 
d="M529 321h-150l-40 -87h190v-145h-258l-44 -94l-104 40l25 54h-99v145h167l40 87h-207v145h275l50 107l104 -41l-31 -66h82v-145z" />
    <glyph glyph-name="partialdiff" unicode="&#x2202;" horiz-adv-x="582" 
d="M274 695c242 0 270 -256 270 -395c0 -209 -116 -310 -255 -310c-134 0 -250 91 -250 233c0 146 100 222 202 222c42 0 87 -12 124 -36h2c-11 82 -40 142 -117 143c-34 0 -91 -18 -129 -26l-46 131c72 27 152 38 199 38zM292 150c42 0 81 43 81 112v3
c-23 28 -54 43 -80 43c-50 0 -80 -33 -80 -78c0 -46 29 -80 79 -80z" />
    <glyph glyph-name="percent" unicode="%" horiz-adv-x="1004" 
d="M405 -28l-122 52l318 704l121 -53zM222 318c-112 0 -203 81 -203 202c0 109 81 199 203 199c112 0 204 -79 204 -199c0 -111 -82 -202 -204 -202zM223 432c46 0 76 39 76 86c0 51 -34 86 -76 86c-45 0 -76 -39 -76 -86c0 -51 34 -86 76 -86zM782 -10
c-112 0 -203 81 -203 201c0 111 81 201 203 201c112 0 203 -80 203 -201c0 -110 -81 -201 -203 -201zM783 104c46 0 76 39 76 86c0 51 -34 85 -76 85c-46 0 -76 -38 -76 -85c0 -51 34 -86 76 -86z" />
    <glyph glyph-name="perthousand" unicode="&#x2030;" horiz-adv-x="1455" 
d="M405 -28l-122 52l318 704l121 -53zM222 318c-112 0 -203 81 -203 202c0 111 81 201 203 201c112 0 204 -80 204 -201c0 -111 -82 -202 -204 -202zM223 432c46 0 76 39 76 86c0 53 -34 87 -76 87c-45 0 -76 -38 -76 -87c0 -51 34 -86 76 -86zM782 -10
c-112 0 -203 81 -203 201c0 111 81 201 203 201c112 0 203 -80 203 -201c0 -110 -81 -201 -203 -201zM1232 -10c-111 0 -203 81 -203 201c0 111 81 201 203 201c112 0 204 -80 204 -201c0 -110 -82 -201 -204 -201zM783 104c46 0 76 39 76 86c0 51 -34 85 -76 85
c-46 0 -76 -38 -76 -85c0 -51 34 -86 76 -86zM1233 104c46 0 77 39 77 86c0 51 -35 85 -77 85c-45 0 -76 -38 -76 -85c0 -51 34 -86 76 -86z" />
    <glyph glyph-name="plus" unicode="+" horiz-adv-x="570" 
d="M211 39v166h-166v145h166v167h147v-167h167v-145h-167v-166h-147z" />
    <glyph glyph-name="plusminus" unicode="&#xb1;" horiz-adv-x="579" 
d="M215 193v166h-166v145h166v167h147v-167h167v-145h-167v-166h-147zM50 0v145h480v-145h-480z" />
    <glyph glyph-name="product" unicode="&#x220f;" horiz-adv-x="670" 
d="M52 -107v817h566v-817h-192v648h-183v-648h-191z" />
    <glyph glyph-name="radical" unicode="&#x221a;" horiz-adv-x="764" 
d="M699 822h118l-401 -822h-109l-167 500h-116v139h251l131 -414h2z" />
    <glyph glyph-name="uni2236" unicode="&#x2236;" horiz-adv-x="283" 
d="M137 366c-54 0 -98 43 -98 96c0 52 44 95 98 95c53 0 97 -43 97 -95c0 -53 -44 -96 -97 -96zM137 48c-54 0 -98 43 -98 96c0 52 44 95 98 95c53 0 97 -43 97 -95c0 -53 -44 -96 -97 -96z" />
    <glyph glyph-name="summation" unicode="&#x2211;" horiz-adv-x="608" 
d="M574 541h-290v-1l171 -219l-171 -219v-1h290v-169h-535v131l214 258l-214 253v136h535v-169z" />
    <glyph glyph-name="plus.case" horiz-adv-x="569" 
d="M211 85v166h-166v145h166v167h147v-167h167v-145h-167v-166h-147z" />
    <glyph glyph-name="uni2713" unicode="&#x2713;" horiz-adv-x="546" 
d="M198 115l-194 200l92 89l79 -81l296 485l109 -68z" />
    <glyph glyph-name="uni2715" unicode="&#x2715;" horiz-adv-x="351" 
d="M100 107l-97 97l75 74l-75 75l98 98l75 -75l74 75l98 -98l-74 -75l74 -74l-96 -97l-75 74z" />
    <glyph glyph-name="bar" unicode="|" horiz-adv-x="314" 
d="M89 -115v852h137v-852h-137z" />
    <glyph glyph-name="brokenbar" unicode="&#xa6;" horiz-adv-x="314" 
d="M89 384v353h137v-353h-137zM89 -114v351h137v-351h-137z" />
    <glyph glyph-name="at" unicode="@" horiz-adv-x="881" 
d="M669 467l-27 -278c-1 -7 -2 -13 -2 -20c0 -23 7 -36 28 -36c66 0 93 110 93 157c0 155 -94 283 -285 283c-257 0 -347 -197 -347 -331c0 -177 125 -305 284 -305c70 0 139 24 198 60l48 -71c-73 -51 -159 -80 -246 -80c-217 0 -380 167 -380 397c0 169 117 421 443 421
c238 0 377 -167 377 -373c0 -93 -41 -253 -238 -253c-32 0 -67 4 -91 18c-20 10 -32 25 -39 43h-1c-27 -32 -64 -51 -106 -51c-99 0 -160 77 -160 189c0 80 45 240 180 240c43 0 73 -16 99 -48h1l5 38h166zM379 250c0 -39 24 -62 50 -62c29 0 69 30 69 86
c0 39 -23 62 -48 62c-30 0 -71 -32 -71 -86z" />
    <glyph glyph-name="ampersand" unicode="&#x26;" horiz-adv-x="650" 
d="M448 0l-26 35h-2c-46 -32 -99 -45 -166 -45c-133 0 -239 90 -239 225c0 102 57 165 124 207l-71 97c8 122 97 202 229 202c142 0 204 -82 239 -163l-141 -51c-14 37 -40 67 -80 67c-43 0 -55 -34 -55 -51l174 -240h1c7 23 11 46 11 67l159 4c0 -68 -17 -150 -61 -219v-4
l95 -131h-191zM186 226c0 -52 38 -81 87 -81c22 0 41 4 59 12v1l-104 143c-31 -20 -42 -48 -42 -75z" />
    <glyph glyph-name="paragraph" unicode="&#xb6;" horiz-adv-x="525" 
d="M297 0v253c-137 12 -232 86 -232 216c0 129 95 218 259 218h149v-687h-176z" />
    <glyph glyph-name="copyright" unicode="&#xa9;" horiz-adv-x="720" 
d="M358 -9c-182 0 -324 149 -324 327s143 327 326 327s325 -149 325 -327c0 -177 -143 -327 -327 -327zM358 95c126 0 221 101 221 223c0 123 -95 222 -219 222c-127 0 -221 -101 -221 -224c0 -122 94 -221 219 -221zM369 153c-90 0 -168 55 -168 163c0 90 59 163 168 163
c43 0 93 -17 130 -62l-67 -57c-12 13 -36 31 -63 31c-36 0 -70 -25 -70 -75c0 -39 25 -75 70 -75c23 0 48 13 63 31l67 -59c-28 -33 -73 -60 -130 -60z" />
    <glyph glyph-name="registered" unicode="&#xae;" horiz-adv-x="726" 
d="M364 650c184 0 327 -150 327 -330c0 -179 -144 -330 -329 -330c-184 0 -328 150 -328 330c0 179 144 330 330 330zM362 94c127 0 223 102 223 226c0 125 -95 225 -222 225c-129 0 -223 -102 -223 -227c0 -124 95 -224 222 -224zM493 367c0 -48 -20 -80 -54 -97l70 -110
h-105l-56 95h-16v-95h-90v324h132c82 0 119 -50 119 -117zM332 402v-67h21c24 0 44 11 44 34c0 17 -15 33 -45 33h-20z" />
    <glyph glyph-name="section" unicode="&#xa7;" horiz-adv-x="536" 
d="M438 149c31 -27 47 -63 47 -118c0 -117 -89 -185 -215 -185c-89 0 -169 33 -236 100l98 118c50 -46 100 -65 136 -65c22 0 34 13 34 29c0 17 -5 27 -63 49c-115 45 -203 86 -203 184c0 59 23 104 66 132c-28 28 -46 63 -46 114c0 104 78 182 209 182
c76 0 164 -35 222 -85l-95 -119c-53 36 -89 48 -118 48c-31 0 -37 -14 -37 -23c0 -13 5 -20 57 -43c141 -61 212 -85 212 -195c0 -49 -25 -93 -68 -123zM203 293c0 -19 5 -35 84 -66l23 -9c21 6 27 22 27 32c0 17 -2 31 -91 66c-5 2 -11 4 -16 7c-23 -6 -27 -23 -27 -30z
" />
    <glyph glyph-name="trademark" unicode="&#x2122;" horiz-adv-x="672" 
d="M89 387v234h-78v89h255v-89h-76v-234h-101zM305 387v323h102l70 -148l68 148h103v-323h-99v138l-41 -80h-64l-41 80v-138h-98z" />
    <glyph glyph-name="degree" unicode="&#xb0;" horiz-adv-x="364" 
d="M182 437c-79 0 -144 63 -144 142c0 77 68 142 144 142s145 -65 145 -144c0 -77 -66 -140 -145 -140zM182 531c27 0 46 21 46 48c0 26 -20 48 -46 48c-27 0 -47 -22 -47 -49c0 -26 20 -47 47 -47z" />
    <glyph glyph-name="estimated" unicode="&#x212e;" horiz-adv-x="781" 
d="M390 -10c-197 0 -356 144 -356 321s159 321 356 321s357 -144 357 -321v-9h-483v-244c39 -17 81 -27 127 -27c92 0 160 28 212 84h69c-64 -76 -167 -125 -282 -125zM264 351h255v212c-39 17 -82 27 -128 27c-45 0 -88 -10 -127 -27v-212z" />
    <glyph glyph-name="uni2113" unicode="&#x2113;" horiz-adv-x="454" 
d="M389 135l50 -33c-43 -77 -106 -113 -179 -113c-115 0 -171 51 -186 137c-18 -13 -38 -29 -57 -44l-30 43c26 22 58 44 82 66l2 254c1 169 72 234 176 234c84 0 121 -68 121 -146c0 -112 -66 -208 -170 -307v-21c0 -122 52 -139 89 -139c40 0 77 34 102 69zM265 597
c-27 0 -68 -38 -68 -148l1 -152c70 78 116 153 116 224c0 58 -24 76 -49 76z" />
    <glyph glyph-name="uni2116" unicode="&#x2116;" horiz-adv-x="1110" 
d="M895 406c-98 0 -166 62 -166 155c0 92 68 154 166 154c99 0 167 -63 167 -154c0 -92 -68 -155 -167 -155zM484 310v400h190v-710h-197l-233 389h-2v-389h-189v710h191l237 -400h3zM895 605c-25 0 -43 -17 -43 -44s19 -44 43 -44c25 0 43 19 43 44s-17 44 -43 44zM737 246
v117h317v-117h-317z" />
    <glyph glyph-name="asciicircum" unicode="^" horiz-adv-x="449" 
d="M34 500l133 210h114l134 -210h-131l-59 109l-65 -109h-126z" />
    <glyph glyph-name="dagger" unicode="&#x2020;" horiz-adv-x="364" 
d="M183 209l-47 77l5 121l-1 106h-18l-90 -6v92l90 -5h17l-3 93h93l-5 -93h19l89 7v-94l-89 6h-20v-106l6 -121z" />
    <glyph glyph-name="daggerdbl" unicode="&#x2021;" horiz-adv-x="364" 
d="M136 51l5 91h-19l-90 -6v92l89 -5h20v33l-5 110l5 110v37h-19l-90 -5v90l89 -5h19l-6 94h94l-5 -94h19l90 6v-91l-91 5h-18v-37l5 -110l-6 -110l1 -33h19l90 5v-91l-90 5h-19l5 -91h-92z" />
    <glyph glyph-name="at.case" horiz-adv-x="883" 
d="M669 540l-27 -278c-1 -7 -2 -13 -2 -20c0 -23 7 -36 28 -36c66 0 93 110 93 157c0 155 -94 283 -285 283c-257 0 -347 -197 -347 -331c0 -177 125 -305 284 -305c70 0 139 24 198 60l48 -71c-73 -51 -159 -80 -246 -80c-217 0 -380 167 -380 397c0 169 117 421 443 421
c238 0 377 -167 377 -373c0 -93 -41 -253 -238 -253c-32 0 -67 4 -91 18c-20 10 -32 25 -39 43h-1c-27 -32 -64 -51 -106 -51c-99 0 -160 77 -160 189c0 80 45 240 180 240c43 0 73 -16 99 -48h1l5 38h166zM379 323c0 -39 24 -62 50 -62c29 0 69 30 69 86
c0 39 -23 62 -48 62c-30 0 -71 -32 -71 -86z" />
    <glyph glyph-name="uni0374" unicode="&#x374;" horiz-adv-x="287" 
d="M35 463l48 270h169l-81 -270h-136z" />
    <glyph glyph-name="uni0375" unicode="&#x375;" horiz-adv-x="325" 
d="M65 -163l48 270h169l-81 -270h-136z" />
    <glyph glyph-name="acute" unicode="&#xb4;" horiz-adv-x="488" 
d="M122 530l109 152l175 1l-124 -153h-160z" />
    <glyph glyph-name="breve" unicode="&#x2d8;" horiz-adv-x="461" 
d="M230 522c-92 0 -172 57 -180 161h127c2 -28 21 -51 53 -51c28 0 52 17 54 51h127c-7 -88 -72 -161 -181 -161z" />
    <glyph glyph-name="caron" unicode="&#x2c7;" horiz-adv-x="458" 
d="M268 683h148l-107 -156h-154l-113 156h150l36 -72h2z" />
    <glyph glyph-name="cedilla" unicode="&#xb8;" horiz-adv-x="353" 
d="M183 -30c55 -1 92 -29 92 -81c0 -49 -39 -83 -130 -83c-35 0 -52 3 -67 6v68c13 -4 27 -7 54 -7c17 0 40 4 40 25c0 19 -29 28 -77 28v39l23 41h86l-21 -35v-1z" />
    <glyph glyph-name="circumflex" unicode="&#x2c6;" horiz-adv-x="458" 
d="M266 527l-37 71h-2l-37 -71h-148l106 156h154l114 -156h-150z" />
    <glyph glyph-name="dieresis" unicode="&#xa8;" horiz-adv-x="541" 
d="M152 518c-60 0 -102 42 -102 97c0 53 42 95 102 95s103 -41 103 -95c0 -56 -43 -97 -103 -97zM388 518c-60 0 -102 42 -102 97c0 53 42 95 102 95s103 -41 103 -95c0 -56 -43 -97 -103 -97z" />
    <glyph glyph-name="dotaccent" unicode="&#x2d9;" horiz-adv-x="503" 
d="M252 518c-60 0 -103 42 -103 97c0 53 43 95 103 95s102 -41 102 -95c0 -56 -42 -97 -102 -97z" />
    <glyph glyph-name="grave" unicode="`" horiz-adv-x="487" 
d="M205 530l-123 153l174 -1l109 -152h-160z" />
    <glyph glyph-name="hungarumlaut" unicode="&#x2dd;" horiz-adv-x="566" 
d="M28 530l108 152l175 1l-123 -153h-160zM266 530l108 152l175 1l-123 -153h-160z" />
    <glyph glyph-name="macron" unicode="&#xaf;" horiz-adv-x="436" 
d="M58 551v132h320v-132h-320z" />
    <glyph glyph-name="ogonek" unicode="&#x2db;" horiz-adv-x="482" 
d="M274 -193c-79 0 -126 42 -126 98c0 36 20 83 77 109l147 -14c-62 0 -99 -34 -99 -66c0 -25 15 -38 36 -38c20 0 26 3 35 4l7 -82c-21 -8 -53 -11 -77 -11z" />
    <glyph glyph-name="ring" unicode="&#x2da;" horiz-adv-x="440" 
d="M220 512c-61 0 -111 43 -111 106c0 59 44 106 111 106c61 0 111 -43 111 -106c0 -58 -44 -106 -111 -106zM220 585c19 0 34 16 34 35s-15 34 -34 34s-34 -16 -34 -35s15 -34 34 -34z" />
    <glyph glyph-name="tilde" unicode="&#x2dc;" horiz-adv-x="500" 
d="M139 518l-102 41c22 74 69 133 135 133c46 0 70 -14 90 -25c15 -10 29 -17 46 -17c25 0 43 20 55 44l100 -33c-21 -78 -67 -141 -132 -141c-39 0 -65 12 -88 25c-17 9 -33 18 -51 18c-23 0 -41 -19 -53 -45z" />
    <glyph glyph-name="tonos" unicode="&#x384;" horiz-adv-x="461" 
d="M120 530l53 180h188l-90 -180h-151z" />
    <glyph glyph-name="dieresistonos" unicode="&#x385;" horiz-adv-x="632" 
d="M121 518c-60 0 -103 42 -103 97c0 53 43 95 103 95s102 -41 102 -95c0 -56 -42 -97 -102 -97zM240 530l1 180h137l-33 -180h-105zM482 518c-60 0 -102 42 -102 97c0 53 42 95 102 95s103 -41 103 -95c0 -56 -43 -97 -103 -97z" />
    <glyph glyph-name="NULL" horiz-adv-x="0" 
 />
    <glyph glyph-name="KB" horiz-adv-x="911" 
d="M466 -1c-130 0 -218 57 -254 131l22 9c51 -69 116 -94 200 -94c64 0 122 28 122 101c0 57 -61 119 -161 157c-6 -22 -14 -47 -20 -74c24 -4 47 -9 72 -17l-6 -36h-247l-1 34c29 20 61 38 98 50l73 382l-65 19l-3 30c27 16 69 29 118 29l69 -35l-62 -194l-67 -189l11 -2
c49 184 126 244 221 244c70 0 122 -29 122 -98c0 -74 -59 -136 -196 -136c-22 0 -45 1 -68 4l-1 -9c105 -13 257 -38 257 -152c0 -85 -81 -154 -234 -154zM404 330c133 5 172 74 172 124c0 27 -14 50 -40 50c-28 0 -86 -42 -132 -174zM42 -146l-12 39h7l8 -28l8 28h7l8 -28
l8 28h7l-12 -39h-7l-7 29l-8 -29h-7zM99 -146l-13 39h8l8 -28l7 28h8l7 -28l8 28h8l-13 -39h-6l-8 29l-8 -29h-6zM155 -146l-12 39h7l8 -28l8 28h7l8 -28l8 28h7l-12 -39h-7l-8 29l-8 -29h-6zM212 -146v39h6v-19l15 19h9l-15 -18l15 -21h-8l-11 16l-5 -5v-11h-6zM263 -146
c-12 0 -19 8 -19 20c0 11 7 19 19 19c11 0 20 -8 20 -19c0 -13 -9 -20 -20 -20zM302 -146c-5 0 -10 1 -14 6l4 5c3 -4 7 -5 10 -5c4 0 7 1 7 4c0 4 -3 5 -8 7c-6 2 -11 4 -11 11c0 6 5 11 12 11c4 0 9 -1 12 -5l-3 -5c-3 3 -7 4 -9 4c-3 0 -6 -1 -6 -4s3 -4 7 -6
c7 -2 12 -4 12 -12s-7 -11 -13 -11zM330 -146v33h-11v6h29v-6h-12v-33h-6zM347 -146l14 39h7l14 -39h-7l-2 8h-17l-2 -8h-7zM399 -146c-4 0 -9 1 -14 6l5 5c3 -4 6 -5 9 -5c5 0 7 1 7 4c0 4 -3 5 -8 7s-11 4 -11 11c0 6 5 11 12 11c4 0 9 -1 13 -5l-4 -5c-3 3 -6 4 -9 4
s-5 -1 -5 -4s2 -4 7 -6c6 -2 12 -4 12 -12s-7 -11 -14 -11zM420 -146v39h14c7 0 12 -3 12 -10c0 -4 -2 -7 -6 -8c5 -1 8 -5 8 -10c0 -7 -4 -11 -12 -11h-16zM452 -146l14 39h6l15 -39h-7l-3 8h-16l-3 -8h-6zM493 -146v39h14c9 0 14 -6 14 -13c0 -6 -4 -10 -9 -11l10 -15h-8
l-9 14h-5v-14h-7zM536 -146v33h-12v6h29v-6h-11v-33h-6zM571 -146c-5 0 -10 1 -14 6l5 5c2 -4 6 -5 9 -5c5 0 7 1 7 4c0 4 -3 5 -8 7c-6 2 -11 4 -11 11c0 6 5 11 12 11c4 0 9 -1 12 -5l-3 -5c-3 3 -7 4 -9 4c-3 0 -6 -1 -6 -4s3 -4 8 -6c6 -2 11 -4 11 -12s-7 -11 -13 -11z
M610 -146c-12 0 -20 8 -20 20c0 11 8 19 20 19c11 0 19 -8 19 -19c0 -13 -8 -20 -19 -20zM637 -146v39h7v-19l15 19h8l-15 -18l15 -21h-8l-11 16l-4 -5v-11h-7zM670 -146l14 39h6l15 -39h-7l-3 8h-15l-3 -8h-7zM722 -146c-5 0 -10 1 -14 6l4 5c3 -4 7 -5 11 -5s6 1 6 4
c0 4 -3 5 -8 7c-6 2 -12 4 -12 11c0 6 6 11 13 11c5 0 9 -1 13 -5l-4 -5c-3 3 -6 4 -9 4s-5 -1 -6 -4c0 -3 3 -4 8 -6c6 -2 12 -4 12 -12s-7 -11 -14 -11zM772 -146c-10 0 -19 6 -19 19c0 11 7 20 19 20c6 0 11 -2 16 -7l-5 -4c-3 3 -7 5 -11 5c-7 0 -12 -6 -12 -14
s5 -13 12 -13c5 0 8 2 11 5l5 -4c-4 -4 -9 -7 -16 -7zM812 -146c-12 0 -20 8 -20 20c0 11 8 19 20 19c11 0 20 -8 20 -19c0 -13 -9 -20 -20 -20zM839 -146v39h7l12 -23l14 23h6v-39h-6v26l-11 -19h-5l-10 19v-26h-7zM263 -140c8 0 13 5 13 14c0 7 -5 13 -13 13
c-7 0 -13 -6 -13 -13c0 -8 6 -14 13 -14zM427 -124h6c3 0 6 2 6 6c0 3 -1 5 -7 5h-5v-11zM500 -126h6c5 0 8 2 8 6s-3 7 -8 7h-6v-13zM610 -140c7 0 13 5 13 14c0 7 -6 13 -13 13c-8 0 -13 -6 -13 -13c0 -8 5 -14 13 -14zM812 -140c7 0 13 5 13 14c0 7 -6 13 -13 13
c-8 0 -13 -6 -13 -13c0 -8 5 -14 13 -14zM358 -132h12l-6 17zM463 -132h12l-6 17zM682 -132h11l-5 17zM427 -140h7c4 0 7 2 7 5c0 4 -3 6 -7 6h-7v-11zM200 -146c-2 0 -4 1 -4 3c0 3 2 5 4 5c3 0 4 -2 4 -5c0 -2 -1 -3 -4 -3zM745 -146c-2 0 -4 1 -4 3c0 3 2 5 4 5
s4 -2 4 -5c0 -2 -2 -3 -4 -3z" />
    <glyph glyph-name="jacute" horiz-adv-x="267" 
d="M56 557l109 152l175 1l-124 -153h-160zM60 -208c-66 0 -100 12 -120 19l29 137c13 -4 28 -7 41 -7c32 0 34 22 34 59v490h179v-510c0 -126 -54 -188 -163 -188z" />
    <glyph glyph-name="Jacute" horiz-adv-x="495" 
d="M270 777l109 152l175 1l-124 -153h-160zM212 -10c-77 0 -157 32 -209 99l112 126c21 -29 49 -48 79 -48c31 0 62 22 62 85v458h190v-444c0 -161 -60 -276 -234 -276z" />
    </font>
</defs>
</svg>
