<?xml version="1.0" standalone="no"?>
<!DOCTYPE svg PUBLIC "-//W3C//DTD SVG 1.1//EN" "http://www.w3.org/Graphics/SVG/1.1/DTD/svg11.dtd" >
<svg xmlns="http://www.w3.org/2000/svg" xmlns:xlink="http://www.w3.org/1999/xlink" version="1.1">
<metadata>
Created by FontForge 20170910 at Sat Jan  2 15:01:53 2016
 By Jimmy Wärting
Copyright (c) 2015 by Kostas Bartsokas. All rights reserved.
</metadata>
<defs>
<font id="AvertaStd-Extrathin" horiz-adv-x="532" >
  <font-face 
    font-family="Averta Std Extrathin"
    font-weight="250"
    font-stretch="normal"
    units-per-em="1000"
    panose-1="0 0 3 0 0 0 0 0 0 0"
    ascent="772"
    descent="-228"
    x-height="484"
    cap-height="710"
    bbox="-129 -256 1337 969"
    underline-thickness="18"
    underline-position="-78"
    stemh="22"
    stemv="22"
    unicode-range="U+0020-2715"
  />
<missing-glyph horiz-adv-x="439" 
 />
    <glyph glyph-name=".notdef" horiz-adv-x="439" 
 />
    <glyph glyph-name="A" unicode="A" horiz-adv-x="640" 
d="M586 0l-82 211h-368l-82 -211h-25l275 710h29l278 -710h-25zM144 233h351l-175 449h-2z" />
    <glyph glyph-name="Aacute" unicode="&#xc1;" horiz-adv-x="640" 
d="M470 936l-124 -135h-30l123 135h31zM586 0l-82 211h-368l-82 -211h-25l275 710h29l278 -710h-25zM144 233h351l-175 449h-2z" />
    <glyph glyph-name="Abreve" unicode="&#x102;" horiz-adv-x="640" 
d="M320 801c-62 0 -117 44 -122 127h21c4 -60 40 -105 101 -105s97 45 100 105h22c-6 -83 -60 -127 -122 -127zM586 0l-82 211h-368l-82 -211h-25l275 710h29l278 -710h-25zM144 233h351l-175 449h-2z" />
    <glyph glyph-name="uni1EAE" unicode="&#x1eae;" horiz-adv-x="640" 
d="M488 942l-154 -107h-37l153 108zM320 757c-60 0 -103 35 -127 93h22c24 -45 60 -71 105 -71s81 26 105 71h22c-24 -58 -67 -93 -127 -93zM586 0l-82 211h-368l-82 -211h-25l275 710h29l278 -710h-25zM144 233h351l-175 449h-2z" />
    <glyph glyph-name="uni1EB6" unicode="&#x1eb6;" horiz-adv-x="640" 
d="M320 801c-62 0 -117 44 -122 127h21c4 -60 40 -105 101 -105s97 45 100 105h22c-6 -83 -60 -127 -122 -127zM611 0h-25l-82 211h-368l-82 -211h-25l275 710h29zM144 233h351l-175 449h-2zM319 -134c16 0 28 -12 28 -27c0 -17 -12 -27 -28 -27s-27 10 -27 27
c0 15 11 27 27 27z" />
    <glyph glyph-name="uni1EB0" unicode="&#x1eb0;" horiz-adv-x="640" 
d="M346 835h-36l-155 107l38 1zM215 850c23 -45 59 -71 105 -71c45 0 80 26 104 71h22c-23 -58 -67 -93 -126 -93c-60 0 -104 35 -127 93h22zM586 0l-82 211h-368l-82 -211h-25l275 710h29l278 -710h-25zM144 233h351l-175 449h-2z" />
    <glyph glyph-name="uni1EB2" unicode="&#x1eb2;" horiz-adv-x="640" 
d="M327 937c-27 0 -54 -15 -67 -33l-15 14c20 22 46 41 86 41c31 0 61 -20 61 -53c0 -38 -41 -56 -65 -75l-2 -29h-15c-5 9 -7 13 -7 22c0 33 66 39 66 81c0 30 -31 32 -42 32zM319 757c-60 0 -103 35 -127 93h22c24 -45 60 -71 105 -71s81 26 105 71h22
c-24 -58 -67 -93 -127 -93zM586 0l-82 211h-368l-82 -211h-25l275 710h29l278 -710h-25zM144 233h351l-175 449h-2z" />
    <glyph glyph-name="uni1EB4" unicode="&#x1eb4;" horiz-adv-x="640" 
d="M250 933c-26 0 -46 -15 -57 -51l-20 6c14 45 39 65 75 65c30 0 53 -16 75 -31c19 -13 39 -25 62 -25c21 0 43 11 54 50l19 -7c-14 -49 -44 -64 -72 -64s-52 14 -74 29c-21 14 -41 28 -62 28zM320 779c45 0 81 26 105 71h22c-24 -58 -67 -93 -127 -93s-104 35 -127 93h22
c24 -45 60 -71 105 -71zM586 0l-82 211h-368l-82 -211h-25l275 710h29l278 -710h-25zM144 233h351l-175 449h-2z" />
    <glyph glyph-name="Acircumflex" unicode="&#xc2;" horiz-adv-x="640" 
d="M319 919l-106 -119h-29l122 136h25l125 -136h-29l-106 119h-2zM586 0l-82 211h-368l-82 -211h-25l275 710h29l278 -710h-25zM144 233h351l-175 449h-2z" />
    <glyph glyph-name="uni1EA4" unicode="&#x1ea4;" horiz-adv-x="640" 
d="M592 943l-125 -135h-29l123 135h31zM320 885l-106 -119h-29l122 136h25l125 -136h-29l-106 119h-2zM586 0l-82 211h-368l-82 -211h-25l275 710h29l278 -710h-25zM144 233h351l-175 449h-2z" />
    <glyph glyph-name="uni1EAC" unicode="&#x1eac;" horiz-adv-x="640" 
d="M319 919l-106 -119h-29l122 136h25l125 -136h-29l-106 119h-2zM611 0h-25l-82 211h-368l-82 -211h-25l275 710h29zM144 233h351l-175 449h-2zM319 -134c16 0 28 -12 28 -27c0 -17 -12 -27 -28 -27s-27 10 -27 27c0 15 11 27 27 27z" />
    <glyph glyph-name="uni1EA6" unicode="&#x1ea6;" horiz-adv-x="640" 
d="M517 809h-29l-125 134h31zM319 885l-106 -119h-29l122 136h25l125 -136h-29l-106 119h-2zM586 0l-82 211h-368l-82 -211h-25l275 710h29l278 -710h-25zM144 233h351l-175 449h-2z" />
    <glyph glyph-name="uni1EA8" unicode="&#x1ea8;" horiz-adv-x="640" 
d="M483 927c-27 0 -54 -14 -67 -32l-15 13c20 22 45 41 86 41c46 0 75 -29 75 -67s-41 -61 -79 -80l-2 -29h-15c-5 9 -7 12 -7 22c0 32 81 43 81 86c0 34 -32 46 -57 46zM319 885l-106 -119h-29l122 136h25l125 -136h-29l-106 119h-2zM586 0l-82 211h-368l-82 -211h-25
l275 710h29l278 -710h-25zM144 233h351l-175 449h-2z" />
    <glyph glyph-name="uni1EAA" unicode="&#x1eaa;" horiz-adv-x="640" 
d="M250 933c-26 0 -45 -15 -57 -51l-19 6c14 45 38 65 75 65c30 0 52 -16 74 -31c20 -13 39 -25 62 -25c22 0 44 11 55 50l19 -7c-14 -49 -44 -64 -73 -64c-28 0 -51 14 -73 29c-22 14 -42 28 -63 28zM305 853h25l125 -121h-30l-105 104h-2l-106 -104h-29zM586 0l-82 211
h-368l-82 -211h-25l275 710h29l278 -710h-25zM144 233h351l-175 449h-2z" />
    <glyph glyph-name="Adieresis" unicode="&#xc4;" horiz-adv-x="640" 
d="M246 846c-16 0 -28 12 -28 27c0 17 12 27 28 27s27 -10 27 -27c0 -15 -11 -27 -27 -27zM393 846c-16 0 -28 12 -28 27c0 17 12 27 28 27s27 -10 27 -27c0 -15 -11 -27 -27 -27zM586 0l-82 211h-368l-82 -211h-25l275 710h29l278 -710h-25zM144 233h351l-175 449h-2z" />
    <glyph glyph-name="uni1EA0" unicode="&#x1ea0;" horiz-adv-x="640" 
d="M611 0h-25l-82 211h-368l-82 -211h-25l275 710h29zM144 233h351l-175 449h-2zM319 -134c16 0 28 -12 28 -27c0 -17 -12 -27 -28 -27s-27 10 -27 27c0 15 11 27 27 27z" />
    <glyph glyph-name="Agrave" unicode="&#xc0;" horiz-adv-x="640" 
d="M331 801h-29l-124 135h30zM586 0l-82 211h-368l-82 -211h-25l275 710h29l278 -710h-25zM144 233h351l-175 449h-2z" />
    <glyph glyph-name="uni1EA2" unicode="&#x1ea2;" horiz-adv-x="640" 
d="M323 927c-27 0 -54 -14 -67 -32l-16 13c20 22 46 41 87 41c46 0 75 -29 75 -67s-41 -61 -79 -80l-2 -29h-16c-5 9 -6 12 -6 22c0 32 81 43 81 86c0 34 -32 46 -57 46zM586 0l-82 211h-368l-82 -211h-25l275 710h29l278 -710h-25zM144 233h351l-175 449h-2z" />
    <glyph glyph-name="Amacron" unicode="&#x100;" horiz-adv-x="640" 
d="M454 882v-23h-267v23h267zM586 0l-82 211h-368l-82 -211h-25l275 710h29l278 -710h-25zM144 233h351l-175 449h-2z" />
    <glyph glyph-name="Aogonek" unicode="&#x104;" horiz-adv-x="640" 
d="M652 -145l4 -23c-16 -8 -33 -13 -63 -13c-51 0 -84 26 -84 76c0 36 25 79 75 111l-80 205h-368l-82 -211h-25l275 710h29l278 -710c-48 -25 -79 -66 -79 -104c0 -31 18 -54 61 -54c29 0 41 4 59 13zM144 233h351l-175 449h-2z" />
    <glyph glyph-name="Aring" unicode="&#xc5;" horiz-adv-x="640" 
d="M320 795c-39 0 -73 34 -73 73c0 40 34 73 73 73c40 0 74 -33 74 -73c0 -39 -34 -73 -74 -73zM320 919c-28 0 -51 -23 -51 -51c0 -27 23 -50 51 -50s52 23 52 50c0 28 -24 51 -52 51zM586 0l-82 211h-368l-82 -211h-25l275 710h29l278 -710h-25zM144 233h351l-175 449h-2z
" />
    <glyph glyph-name="Aringacute" unicode="&#x1fa;" horiz-adv-x="640" 
d="M319 795c-39 0 -73 34 -73 73c0 40 34 73 73 73c26 0 49 -14 62 -34l97 62h39l-126 -81l-1 1c2 -6 3 -14 3 -21c0 -39 -34 -73 -74 -73zM319 919c-28 0 -51 -23 -51 -51c0 -27 23 -50 51 -50s52 23 52 50c0 28 -24 51 -52 51zM586 0l-82 211h-368l-82 -211h-25l275 710
h29l278 -710h-25zM144 233h351l-175 449h-2z" />
    <glyph glyph-name="Atilde" unicode="&#xc3;" horiz-adv-x="640" 
d="M246 890c-28 0 -50 -22 -64 -61l-21 6c17 50 43 77 84 77c30 0 54 -15 77 -31c24 -16 48 -38 74 -38c24 0 48 19 60 62l21 -7c-16 -54 -49 -77 -80 -77c-32 0 -61 23 -88 42c-21 15 -42 27 -63 27zM586 0l-82 211h-368l-82 -211h-25l275 710h29l278 -710h-25zM144 233
h351l-175 449h-2z" />
    <glyph glyph-name="AE" unicode="&#xc6;" horiz-adv-x="907" 
d="M456 23h409v-23h-432v211h-277l-123 -211h-28l413 710h427v-22h-389v-322h330v-23h-330v-320zM168 233h265v453h-1z" />
    <glyph glyph-name="AEacute" unicode="&#x1fc;" horiz-adv-x="907" 
d="M586 936l-124 -135h-30l123 135h31zM456 23h409v-23h-432v211h-277l-123 -211h-28l413 710h427v-22h-389v-322h330v-23h-330v-320zM168 233h265v453h-1z" />
    <glyph glyph-name="B" unicode="B" horiz-adv-x="610" 
d="M389 370c83 -12 163 -68 163 -182c0 -112 -77 -188 -245 -188h-218v710h204c124 0 225 -43 225 -172c0 -76 -43 -143 -129 -166v-2zM112 688v-306h200c83 0 182 36 182 156c0 92 -58 150 -209 150h-173zM304 23c135 0 224 52 224 162c0 111 -78 174 -217 174h-199v-336
h192z" />
    <glyph glyph-name="C" unicode="C" horiz-adv-x="714" 
d="M408 -3c-190 0 -346 125 -346 355c0 201 121 362 346 362c98 0 195 -40 271 -134l-19 -16c-71 90 -161 126 -252 126c-210 0 -323 -148 -323 -338c0 -216 144 -332 323 -332c115 0 193 51 252 125l19 -15c-63 -78 -146 -133 -271 -133z" />
    <glyph glyph-name="Cacute" unicode="&#x106;" horiz-adv-x="714" 
d="M380 801l123 135h31l-124 -135h-30zM408 -3c-190 0 -346 125 -346 355c0 201 121 362 346 362c98 0 195 -40 271 -134l-19 -16c-71 90 -161 126 -252 126c-210 0 -323 -148 -323 -338c0 -216 144 -332 323 -332c115 0 193 51 252 125l19 -15c-63 -78 -146 -133 -271 -133
z" />
    <glyph glyph-name="Ccaron" unicode="&#x10c;" horiz-adv-x="714" 
d="M419 800h-25l-122 136h29l105 -118h4l105 118h29zM408 20c115 0 193 51 252 125l19 -15c-63 -78 -146 -133 -271 -133c-190 0 -346 125 -346 355c0 201 121 362 346 362c98 0 195 -40 271 -134l-19 -16c-71 90 -161 126 -252 126c-210 0 -323 -148 -323 -338
c0 -216 144 -332 323 -332z" />
    <glyph glyph-name="Ccedilla" unicode="&#xc7;" horiz-adv-x="714" 
d="M408 20c115 0 193 51 252 125l19 -15c-63 -78 -146 -133 -271 -133h-6l-13 -31l1 -1c38 -3 79 -30 79 -77c0 -38 -30 -72 -85 -72c-16 0 -34 2 -49 6v23c13 -4 27 -7 45 -7c35 0 66 16 66 51c0 28 -26 57 -82 57l1 19l15 33c-177 12 -318 135 -318 354
c0 201 121 362 346 362c98 0 195 -40 271 -134l-19 -16c-71 90 -161 126 -252 126c-210 0 -323 -148 -323 -338c0 -216 144 -332 323 -332z" />
    <glyph glyph-name="Ccircumflex" unicode="&#x108;" horiz-adv-x="714" 
d="M407 919l-106 -119h-29l122 136h25l125 -136h-29l-106 119h-2zM408 20c115 0 193 51 252 125l19 -15c-63 -78 -146 -133 -271 -133c-190 0 -346 125 -346 355c0 201 121 362 346 362c98 0 195 -40 271 -134l-19 -16c-71 90 -161 126 -252 126c-210 0 -323 -148 -323 -338
c0 -216 144 -332 323 -332z" />
    <glyph glyph-name="Cdotaccent" unicode="&#x10a;" horiz-adv-x="714" 
d="M408 846c-16 0 -28 12 -28 27c0 17 12 27 28 27s27 -10 27 -27c0 -15 -11 -27 -27 -27zM408 -3c-190 0 -346 125 -346 355c0 201 121 362 346 362c98 0 195 -40 271 -134l-19 -16c-71 90 -161 126 -252 126c-210 0 -323 -148 -323 -338c0 -216 144 -332 323 -332
c115 0 193 51 252 125l19 -15c-63 -78 -146 -133 -271 -133z" />
    <glyph glyph-name="D" unicode="D" horiz-adv-x="706" 
d="M89 0v710h187c224 0 369 -146 369 -356s-143 -354 -366 -354h-190zM112 23h165c209 0 344 136 344 331c0 198 -135 334 -345 334h-164v-665z" />
    <glyph glyph-name="Eth" unicode="&#xd0;" horiz-adv-x="706" 
d="M276 710c224 0 369 -146 369 -356s-143 -354 -366 -354h-190v439h-86v23h86v248h187zM277 23c209 0 344 136 344 331c0 198 -135 334 -345 334h-164v-226h179v-23h-179v-416h165z" />
    <glyph glyph-name="Dcaron" unicode="&#x10e;" horiz-adv-x="706" 
d="M333 800h-25l-122 136h29l105 -118h4l105 118h29zM276 710c224 0 369 -146 369 -356s-143 -354 -366 -354h-190v710h187zM277 23c209 0 344 136 344 331c0 198 -135 334 -345 334h-164v-665h165z" />
    <glyph glyph-name="Dcroat" unicode="&#x110;" horiz-adv-x="706" 
d="M276 710c224 0 369 -146 369 -356s-143 -354 -366 -354h-190v439h-86v23h86v248h187zM277 23c209 0 344 136 344 331c0 198 -135 334 -345 334h-164v-226h179v-23h-179v-416h165z" />
    <glyph glyph-name="E" unicode="E" horiz-adv-x="565" 
d="M89 0v710h412v-22h-389v-321h327v-23h-327v-321h410v-23h-433z" />
    <glyph glyph-name="Eacute" unicode="&#xc9;" horiz-adv-x="565" 
d="M216 801l123 135h31l-124 -135h-30zM89 0v710h412v-22h-389v-321h327v-23h-327v-321h410v-23h-433z" />
    <glyph glyph-name="Ebreve" unicode="&#x114;" horiz-adv-x="565" 
d="M286 801c-62 0 -117 44 -122 127h21c4 -60 40 -105 101 -105s97 45 100 105h22c-6 -83 -60 -127 -122 -127zM89 0v710h412v-22h-389v-321h327v-23h-327v-321h410v-23h-433z" />
    <glyph glyph-name="Ecaron" unicode="&#x11a;" horiz-adv-x="565" 
d="M297 800h-25l-122 136h29l105 -118h4l105 118h29zM112 23h410v-23h-433v710h412v-22h-389v-321h327v-23h-327v-321z" />
    <glyph glyph-name="Ecircumflex" unicode="&#xca;" horiz-adv-x="565" 
d="M285 919l-106 -119h-29l122 136h25l125 -136h-29l-106 119h-2zM112 23h410v-23h-433v710h412v-22h-389v-321h327v-23h-327v-321z" />
    <glyph glyph-name="uni1EBE" unicode="&#x1ebe;" horiz-adv-x="565" 
d="M558 943l-125 -135h-29l123 135h31zM286 885l-106 -119h-29l122 136h25l125 -136h-29l-106 119h-2zM112 344v-321h410v-23h-433v710h412v-22h-389v-321h327v-23h-327z" />
    <glyph glyph-name="uni1EC6" unicode="&#x1ec6;" horiz-adv-x="565" 
d="M285 919l-106 -119h-29l122 136h25l125 -136h-29l-106 119h-2zM112 23h410v-23h-433v710h412v-22h-389v-321h327v-23h-327v-321zM300 -134c16 0 28 -12 28 -27c0 -17 -12 -27 -28 -27s-27 10 -27 27c0 15 11 27 27 27z" />
    <glyph glyph-name="uni1EC0" unicode="&#x1ec0;" horiz-adv-x="565" 
d="M483 809h-29l-125 134h31zM285 885l-106 -119h-29l122 136h25l125 -136h-29l-106 119h-2zM112 23h410v-23h-433v710h412v-22h-389v-321h327v-23h-327v-321z" />
    <glyph glyph-name="uni1EC2" unicode="&#x1ec2;" horiz-adv-x="565" 
d="M449 927c-27 0 -54 -14 -67 -32l-15 13c20 22 45 41 86 41c46 0 75 -29 75 -67s-41 -61 -79 -80l-2 -29h-15c-5 9 -7 12 -7 22c0 32 81 43 81 86c0 34 -32 46 -57 46zM285 885l-106 -119h-29l122 136h25l125 -136h-29l-106 119h-2zM112 344v-321h410v-23h-433v710h412
v-22h-389v-321h327v-23h-327z" />
    <glyph glyph-name="uni1EC4" unicode="&#x1ec4;" horiz-adv-x="565" 
d="M216 933c-26 0 -45 -15 -57 -51l-19 6c14 45 38 65 75 65c30 0 52 -16 74 -31c20 -13 39 -25 62 -25c22 0 44 11 55 50l19 -7c-14 -49 -44 -64 -73 -64c-28 0 -51 14 -73 29c-22 14 -42 28 -63 28zM271 853h25l125 -121h-30l-105 104h-2l-106 -104h-29zM112 23h410v-23
h-433v710h412v-22h-389v-321h327v-23h-327v-321z" />
    <glyph glyph-name="Edieresis" unicode="&#xcb;" horiz-adv-x="565" 
d="M212 846c-16 0 -28 12 -28 27c0 17 12 27 28 27s27 -10 27 -27c0 -15 -11 -27 -27 -27zM359 846c-16 0 -28 12 -28 27c0 17 12 27 28 27s27 -10 27 -27c0 -15 -11 -27 -27 -27zM89 0v710h412v-22h-389v-321h327v-23h-327v-321h410v-23h-433z" />
    <glyph glyph-name="Edotaccent" unicode="&#x116;" horiz-adv-x="565" 
d="M286 846c-16 0 -28 12 -28 27c0 17 12 27 28 27s27 -10 27 -27c0 -15 -11 -27 -27 -27zM89 0v710h412v-22h-389v-321h327v-23h-327v-321h410v-23h-433z" />
    <glyph glyph-name="uni1EB8" unicode="&#x1eb8;" horiz-adv-x="565" 
d="M89 0v710h412v-22h-389v-321h327v-23h-327v-321h410v-23h-433zM300 -134c16 0 28 -12 28 -27c0 -17 -12 -27 -28 -27s-27 10 -27 27c0 15 11 27 27 27z" />
    <glyph glyph-name="Egrave" unicode="&#xc8;" horiz-adv-x="565" 
d="M323 801l-124 135h30l123 -135h-29zM89 0v710h412v-22h-389v-321h327v-23h-327v-321h410v-23h-433z" />
    <glyph glyph-name="uni1EBA" unicode="&#x1eba;" horiz-adv-x="565" 
d="M271 773c-5 9 -6 12 -6 22c0 32 81 43 81 86c0 34 -32 46 -57 46c-27 0 -54 -14 -67 -32l-16 13c20 22 46 41 87 41c46 0 75 -29 75 -67s-41 -61 -79 -80l-2 -29h-16zM89 0v710h412v-22h-389v-321h327v-23h-327v-321h410v-23h-433z" />
    <glyph glyph-name="Emacron" unicode="&#x112;" horiz-adv-x="565" 
d="M153 859v23h267v-23h-267zM89 0v710h412v-22h-389v-321h327v-23h-327v-321h410v-23h-433z" />
    <glyph glyph-name="Eogonek" unicode="&#x118;" horiz-adv-x="565" 
d="M563 -145l4 -23c-16 -8 -33 -13 -63 -13c-51 0 -84 26 -84 76c0 33 21 73 64 104v1h-395v710h412v-22h-389v-321h327v-23h-327v-321h410v-23c-48 -25 -79 -66 -79 -104c0 -31 18 -54 61 -54c29 0 41 4 59 13z" />
    <glyph glyph-name="uni1EBC" unicode="&#x1ebc;" horiz-adv-x="565" 
d="M364 821c-32 0 -61 23 -88 42c-21 15 -42 27 -63 27c-28 0 -50 -22 -64 -61l-21 6c17 50 43 77 84 77c30 0 54 -15 77 -31c24 -16 48 -38 74 -38c24 0 48 19 60 62l21 -7c-16 -54 -49 -77 -80 -77zM89 0v710h412v-22h-389v-321h327v-23h-327v-321h410v-23h-433z" />
    <glyph glyph-name="F" unicode="F" horiz-adv-x="548" 
d="M89 0v710h432v-22h-409v-323h353v-23h-353v-342h-23z" />
    <glyph glyph-name="G" unicode="G" horiz-adv-x="760" 
d="M409 -3c-204 0 -347 146 -347 357c0 214 143 360 347 360c92 0 181 -24 258 -99l-16 -16c-72 69 -153 91 -242 91c-191 0 -324 -135 -324 -336c0 -198 133 -334 324 -334c100 0 187 27 250 81v217h-269v23h292v-251c-69 -62 -164 -93 -273 -93z" />
    <glyph glyph-name="Gbreve" unicode="&#x11e;" horiz-adv-x="760" 
d="M404 801c-62 0 -117 44 -122 127h21c4 -60 40 -105 101 -105s97 45 100 105h22c-6 -83 -60 -127 -122 -127zM409 -3c-204 0 -347 146 -347 357c0 214 143 360 347 360c92 0 181 -24 258 -99l-16 -16c-72 69 -153 91 -242 91c-191 0 -324 -135 -324 -336
c0 -198 133 -334 324 -334c100 0 187 27 250 81v217h-269v23h292v-251c-69 -62 -164 -93 -273 -93z" />
    <glyph glyph-name="Gcaron" unicode="&#x1e6;" horiz-adv-x="760" 
d="M415 800h-25l-122 136h29l105 -118h4l105 118h29zM390 341h292v-251c-69 -62 -164 -93 -273 -93c-204 0 -347 146 -347 357c0 214 143 360 347 360c92 0 181 -24 258 -99l-16 -16c-72 69 -153 91 -242 91c-191 0 -324 -135 -324 -336c0 -198 133 -334 324 -334
c100 0 187 27 250 81v217h-269v23z" />
    <glyph glyph-name="Gcircumflex" unicode="&#x11c;" horiz-adv-x="760" 
d="M403 919l-106 -119h-29l122 136h25l125 -136h-29l-106 119h-2zM390 341h292v-251c-69 -62 -164 -93 -273 -93c-204 0 -347 146 -347 357c0 214 143 360 347 360c92 0 181 -24 258 -99l-16 -16c-72 69 -153 91 -242 91c-191 0 -324 -135 -324 -336
c0 -198 133 -334 324 -334c100 0 187 27 250 81v217h-269v23z" />
    <glyph glyph-name="Gcommaaccent" unicode="&#x122;" horiz-adv-x="760" 
d="M409 -3c-204 0 -347 146 -347 357c0 214 143 360 347 360c92 0 181 -24 258 -99l-16 -16c-72 69 -153 91 -242 91c-191 0 -324 -135 -324 -336c0 -198 133 -334 324 -334c100 0 187 27 250 81v217h-269v23h292v-251c-69 -62 -164 -93 -273 -93zM328 -199l-8 18
c59 3 68 35 68 70c0 18 -2 38 -5 56h22c3 -17 5 -37 5 -55c0 -45 -18 -85 -82 -89z" />
    <glyph glyph-name="Gdotaccent" unicode="&#x120;" horiz-adv-x="760" 
d="M404 846c-16 0 -28 12 -28 27c0 17 12 27 28 27s27 -10 27 -27c0 -15 -11 -27 -27 -27zM409 -3c-204 0 -347 146 -347 357c0 214 143 360 347 360c92 0 181 -24 258 -99l-16 -16c-72 69 -153 91 -242 91c-191 0 -324 -135 -324 -336c0 -198 133 -334 324 -334
c100 0 187 27 250 81v217h-269v23h292v-251c-69 -62 -164 -93 -273 -93z" />
    <glyph glyph-name="H" unicode="H" horiz-adv-x="692" 
d="M89 0v710h23v-364h468v364h23v-710h-23v323h-468v-323h-23z" />
    <glyph glyph-name="Hbar" unicode="&#x126;" horiz-adv-x="692" 
d="M672 565v-22h-69v-543h-23v323h-468v-323h-23v543h-78v22h78v145h23v-145h468v145h23v-145h69zM580 346v197h-468v-197h468z" />
    <glyph glyph-name="Hcircumflex" unicode="&#x124;" horiz-adv-x="692" 
d="M344 919l-106 -119h-29l122 136h25l125 -136h-29l-106 119h-2zM580 710h23v-710h-23v323h-468v-323h-23v710h23v-364h468v364z" />
    <glyph glyph-name="I" unicode="I" horiz-adv-x="215" 
d="M96 0v710h23v-710h-23z" />
    <glyph glyph-name="IJ" unicode="&#x132;" horiz-adv-x="682" 
d="M96 0v710h23v-710h-23zM427 -3c-57 0 -131 32 -186 94l14 18c52 -56 111 -89 172 -89c92 0 154 50 154 193v497h23v-502c0 -146 -64 -211 -177 -211z" />
    <glyph glyph-name="Iacute" unicode="&#xcd;" horiz-adv-x="215" 
d="M103 801l123 135h31l-124 -135h-30zM96 0v710h23v-710h-23z" />
    <glyph glyph-name="Ibreve" unicode="&#x12c;" horiz-adv-x="215" 
d="M108 801c-62 0 -117 44 -122 127h21c4 -60 40 -105 101 -105s97 45 100 105h22c-6 -83 -60 -127 -122 -127zM96 0v710h23v-710h-23z" />
    <glyph glyph-name="Icircumflex" unicode="&#xce;" horiz-adv-x="215" 
d="M119 936l125 -136h-29l-106 119h-2l-106 -119h-29l122 136h25zM96 0v710h23v-710h-23z" />
    <glyph glyph-name="Idieresis" unicode="&#xcf;" horiz-adv-x="215" 
d="M34 846c-16 0 -28 12 -28 27c0 17 12 27 28 27s27 -10 27 -27c0 -15 -11 -27 -27 -27zM181 846c-16 0 -28 12 -28 27c0 17 12 27 28 27s27 -10 27 -27c0 -15 -11 -27 -27 -27zM96 0v710h23v-710h-23z" />
    <glyph glyph-name="Idotaccent" unicode="&#x130;" horiz-adv-x="215" 
d="M108 846c-16 0 -28 12 -28 27c0 17 12 27 28 27s27 -10 27 -27c0 -15 -11 -27 -27 -27zM96 0v710h23v-710h-23z" />
    <glyph glyph-name="uni1ECA" unicode="&#x1eca;" horiz-adv-x="215" 
d="M96 0v710h23v-710h-23zM108 -134c16 0 28 -12 28 -27c0 -17 -12 -27 -28 -27s-27 10 -27 27c0 15 11 27 27 27z" />
    <glyph glyph-name="Igrave" unicode="&#xcc;" horiz-adv-x="215" 
d="M90 801l-124 135h30l123 -135h-29zM96 0v710h23v-710h-23z" />
    <glyph glyph-name="uni1EC8" unicode="&#x1ec8;" horiz-adv-x="215" 
d="M93 773c-5 9 -6 12 -6 22c0 32 81 43 81 86c0 34 -32 46 -57 46c-27 0 -54 -14 -67 -32l-16 13c20 22 46 41 87 41c46 0 75 -29 75 -67s-41 -61 -79 -80l-2 -29h-16zM96 0v710h23v-710h-23z" />
    <glyph glyph-name="Imacron" unicode="&#x12a;" horiz-adv-x="215" 
d="M-25 859v23h267v-23h-267zM96 0v710h23v-710h-23z" />
    <glyph glyph-name="Iogonek" unicode="&#x12e;" horiz-adv-x="215" 
d="M160 -145l4 -23c-16 -8 -33 -13 -63 -13c-51 0 -84 26 -84 76c0 37 26 82 79 114v701h23v-710c-48 -25 -79 -66 -79 -104c0 -31 18 -54 61 -54c29 0 41 4 59 13z" />
    <glyph glyph-name="Itilde" unicode="&#x128;" horiz-adv-x="215" 
d="M185 821c-32 0 -61 23 -88 42c-21 15 -42 27 -63 27c-28 0 -50 -22 -64 -61l-21 6c17 50 43 77 84 77c30 0 54 -15 77 -31c24 -16 48 -38 74 -38c24 0 48 19 60 62l21 -7c-16 -54 -49 -77 -80 -77zM96 0v710h23v-710h-23z" />
    <glyph glyph-name="J" unicode="J" horiz-adv-x="467" 
d="M212 -3c-57 0 -131 32 -186 94l14 18c52 -56 111 -89 172 -89c92 0 154 50 154 193v497h23v-502c0 -146 -64 -211 -177 -211z" />
    <glyph glyph-name="Jcircumflex" unicode="&#x134;" horiz-adv-x="467" 
d="M390 936l125 -136h-29l-106 119h-2l-106 -119h-29l122 136h25zM366 213v497h23v-502c0 -146 -64 -211 -177 -211c-57 0 -131 32 -186 94l14 18c52 -56 111 -89 172 -89c92 0 154 50 154 193z" />
    <glyph glyph-name="K" unicode="K" horiz-adv-x="612" 
d="M257 356h-1l-144 -167v-189h-23v710h23v-483h2l418 483h31l-291 -336l296 -374h-30z" />
    <glyph glyph-name="Kcommaaccent" unicode="&#x136;" horiz-adv-x="612" 
d="M272 374l296 -374h-30l-281 356h-1l-144 -167v-189h-23v710h23v-483h2l418 483h31zM298 -55h22c3 -17 5 -37 5 -55c0 -45 -18 -85 -82 -89l-8 18c59 3 68 35 68 70c0 18 -2 38 -5 56z" />
    <glyph glyph-name="L" unicode="L" horiz-adv-x="528" 
d="M89 0v710h23v-687h394v-23h-417z" />
    <glyph glyph-name="Lacute" unicode="&#x139;" horiz-adv-x="528" 
d="M185 801l123 135h31l-124 -135h-30zM89 0v710h23v-687h394v-23h-417z" />
    <glyph glyph-name="Lcaron" unicode="&#x13d;" horiz-adv-x="528" 
d="M275 597l24 158h27l-31 -158h-20zM89 0v710h23v-687h394v-23h-417z" />
    <glyph glyph-name="Lcommaaccent" unicode="&#x13b;" horiz-adv-x="528" 
d="M89 0v710h23v-687h394v-23h-417zM230 -199l-8 18c59 3 68 35 68 70c0 18 -2 38 -5 56h22c3 -17 5 -37 5 -55c0 -45 -18 -85 -82 -89z" />
    <glyph glyph-name="Ldot" unicode="&#x13f;" horiz-adv-x="528" 
d="M89 0v710h23v-687h394v-23h-417zM372 305c-17 0 -29 12 -29 29s12 28 29 28s29 -11 29 -28s-12 -29 -29 -29z" />
    <glyph glyph-name="Lslash" unicode="&#x141;" horiz-adv-x="558" 
d="M142 23h394v-23h-417v308l-96 -45v26l96 45v376h23v-365l97 45v-25l-97 -46v-296z" />
    <glyph glyph-name="M" unicode="M" horiz-adv-x="853" 
d="M740 710h23v-710h-23v665h-1l-302 -510h-21l-303 510h-1v-665h-23v710h24l313 -525h2z" />
    <glyph glyph-name="N" unicode="N" horiz-adv-x="728" 
d="M615 710h23v-710h-23l-502 669h-1v-669h-23v710h22l503 -670h1v670z" />
    <glyph glyph-name="Nacute" unicode="&#x143;" horiz-adv-x="728" 
d="M448 936l-124 -135h-30l123 135h31zM615 710h23v-710h-23l-502 669h-1v-669h-23v710h22l503 -670h1v670z" />
    <glyph glyph-name="Ncaron" unicode="&#x147;" horiz-adv-x="728" 
d="M375 800h-25l-122 136h29l105 -118h4l105 118h29zM615 710h23v-710h-23l-502 669h-1v-669h-23v710h22l503 -670h1v670z" />
    <glyph glyph-name="Ncommaaccent" unicode="&#x145;" horiz-adv-x="728" 
d="M615 710h23v-710h-23l-502 669h-1v-669h-23v710h22l503 -670h1v670zM354 -55h22c3 -17 5 -37 5 -55c0 -45 -18 -85 -82 -89l-8 18c59 3 68 35 68 70c0 18 -2 38 -5 56z" />
    <glyph glyph-name="Eng" unicode="&#x14a;" horiz-adv-x="727" 
d="M614 710h23v-700v-95c0 -60 -21 -116 -102 -116c-16 0 -43 4 -63 14l3 24c20 -12 45 -16 62 -16c45 0 77 25 77 94v86l-501 668h-1v-669h-23v710h22l501 -669h2v669z" />
    <glyph glyph-name="uni019D" unicode="&#x19d;" horiz-adv-x="728" 
d="M615 710h23v-710h-23l-502 669h-1v-669v-85c0 -60 -21 -116 -101 -116c-16 0 -43 4 -63 14l2 24c20 -12 45 -16 62 -16c46 0 77 25 77 94v324v471h22l503 -670h1v670z" />
    <glyph glyph-name="Ntilde" unicode="&#xd1;" horiz-adv-x="728" 
d="M290 890c-28 0 -50 -22 -64 -61l-21 6c17 50 43 77 84 77c30 0 54 -15 77 -31c24 -16 48 -38 74 -38c24 0 48 19 60 62l21 -7c-16 -54 -49 -77 -80 -77c-32 0 -61 23 -88 42c-21 15 -42 27 -63 27zM615 710h23v-710h-23l-502 669h-1v-669h-23v710h22l503 -670h1v670z" />
    <glyph glyph-name="O" unicode="O" horiz-adv-x="822" 
d="M412 -3c-210 0 -350 160 -350 359c0 197 140 358 350 358c191 0 348 -143 348 -358c0 -216 -157 -359 -348 -359zM412 20c178 0 325 134 325 336c0 201 -147 334 -325 334c-195 0 -327 -149 -327 -334c0 -186 132 -336 327 -336z" />
    <glyph glyph-name="Oacute" unicode="&#xd3;" horiz-adv-x="822" 
d="M405 801l123 135h31l-124 -135h-30zM412 -3c-210 0 -350 160 -350 359c0 197 140 358 350 358c191 0 348 -143 348 -358c0 -216 -157 -359 -348 -359zM412 20c178 0 325 134 325 336c0 201 -147 334 -325 334c-195 0 -327 -149 -327 -334c0 -186 132 -336 327 -336z" />
    <glyph glyph-name="Obreve" unicode="&#x14e;" horiz-adv-x="822" 
d="M412 801c-62 0 -117 44 -122 127h21c4 -60 40 -105 101 -105s97 45 100 105h22c-6 -83 -60 -127 -122 -127zM412 -3c-210 0 -350 160 -350 359c0 197 140 358 350 358c191 0 348 -143 348 -358c0 -216 -157 -359 -348 -359zM412 20c178 0 325 134 325 336
c0 201 -147 334 -325 334c-195 0 -327 -149 -327 -334c0 -186 132 -336 327 -336z" />
    <glyph glyph-name="Ocircumflex" unicode="&#xd4;" horiz-adv-x="822" 
d="M411 919l-106 -119h-29l122 136h25l125 -136h-29l-106 119h-2zM412 714c191 0 348 -143 348 -358c0 -216 -157 -359 -348 -359c-210 0 -350 160 -350 359c0 197 140 358 350 358zM412 20c178 0 325 134 325 336c0 201 -147 334 -325 334c-195 0 -327 -149 -327 -334
c0 -186 132 -336 327 -336z" />
    <glyph glyph-name="uni1ED0" unicode="&#x1ed0;" horiz-adv-x="822" 
d="M684 943l-125 -135h-29l123 135h31zM412 885l-106 -119h-29l122 136h25l125 -136h-29l-106 119h-2zM412 714c191 0 348 -143 348 -358c0 -216 -157 -359 -348 -359c-210 0 -350 160 -350 359c0 197 140 358 350 358zM412 20c178 0 325 134 325 336
c0 201 -147 334 -325 334c-195 0 -327 -149 -327 -334c0 -186 132 -336 327 -336z" />
    <glyph glyph-name="uni1ED8" unicode="&#x1ed8;" horiz-adv-x="822" 
d="M411 919l-106 -119h-29l122 136h25l125 -136h-29l-106 119h-2zM412 714c191 0 348 -143 348 -358c0 -216 -157 -359 -348 -359c-210 0 -350 160 -350 359c0 197 140 358 350 358zM412 20c178 0 325 134 325 336c0 201 -147 334 -325 334c-195 0 -327 -149 -327 -334
c0 -186 132 -336 327 -336zM412 -134c16 0 28 -12 28 -27c0 -17 -12 -27 -28 -27s-27 10 -27 27c0 15 11 27 27 27z" />
    <glyph glyph-name="uni1ED2" unicode="&#x1ed2;" horiz-adv-x="822" 
d="M609 809h-29l-125 134h31zM411 885l-106 -119h-29l122 136h25l125 -136h-29l-106 119h-2zM412 714c191 0 348 -143 348 -358c0 -216 -157 -359 -348 -359c-210 0 -350 160 -350 359c0 197 140 358 350 358zM412 20c178 0 325 134 325 336c0 201 -147 334 -325 334
c-195 0 -327 -149 -327 -334c0 -186 132 -336 327 -336z" />
    <glyph glyph-name="uni1ED4" unicode="&#x1ed4;" horiz-adv-x="822" 
d="M575 927c-27 0 -54 -14 -67 -32l-15 13c20 22 45 41 86 41c46 0 75 -29 75 -67s-41 -61 -79 -80l-2 -29h-15c-5 9 -7 12 -7 22c0 32 81 43 81 86c0 34 -32 46 -57 46zM411 885l-106 -119h-29l122 136h25l125 -136h-29l-106 119h-2zM412 714c191 0 348 -143 348 -358
c0 -216 -157 -359 -348 -359c-210 0 -350 160 -350 359c0 197 140 358 350 358zM412 20c178 0 325 134 325 336c0 201 -147 334 -325 334c-195 0 -327 -149 -327 -334c0 -186 132 -336 327 -336z" />
    <glyph glyph-name="uni1ED6" unicode="&#x1ed6;" horiz-adv-x="822" 
d="M342 933c-26 0 -45 -15 -57 -51l-19 6c14 45 38 65 75 65c30 0 52 -16 74 -31c20 -13 39 -25 62 -25c22 0 44 11 55 50l19 -7c-14 -49 -44 -64 -73 -64c-28 0 -51 14 -73 29c-22 14 -42 28 -63 28zM397 853h25l125 -121h-30l-105 104h-2l-106 -104h-29zM412 714
c191 0 348 -143 348 -358c0 -216 -157 -359 -348 -359c-210 0 -350 160 -350 359c0 197 140 358 350 358zM412 20c178 0 325 134 325 336c0 201 -147 334 -325 334c-195 0 -327 -149 -327 -334c0 -186 132 -336 327 -336z" />
    <glyph glyph-name="Odieresis" unicode="&#xd6;" horiz-adv-x="822" 
d="M338 846c-16 0 -28 12 -28 27c0 17 12 27 28 27s27 -10 27 -27c0 -15 -11 -27 -27 -27zM485 846c-16 0 -28 12 -28 27c0 17 12 27 28 27s27 -10 27 -27c0 -15 -11 -27 -27 -27zM412 -3c-210 0 -350 160 -350 359c0 197 140 358 350 358c191 0 348 -143 348 -358
c0 -216 -157 -359 -348 -359zM412 20c178 0 325 134 325 336c0 201 -147 334 -325 334c-195 0 -327 -149 -327 -334c0 -186 132 -336 327 -336z" />
    <glyph glyph-name="uni1ECC" unicode="&#x1ecc;" horiz-adv-x="822" 
d="M412 -3c-210 0 -350 160 -350 359c0 197 140 358 350 358c191 0 348 -143 348 -358c0 -216 -157 -359 -348 -359zM412 20c178 0 325 134 325 336c0 201 -147 334 -325 334c-195 0 -327 -149 -327 -334c0 -186 132 -336 327 -336zM412 -134c16 0 28 -12 28 -27
c0 -17 -12 -27 -28 -27s-27 10 -27 27c0 15 11 27 27 27z" />
    <glyph glyph-name="Ograve" unicode="&#xd2;" horiz-adv-x="822" 
d="M413 801l-124 135h30l123 -135h-29zM412 -3c-210 0 -350 160 -350 359c0 197 140 358 350 358c191 0 348 -143 348 -358c0 -216 -157 -359 -348 -359zM412 20c178 0 325 134 325 336c0 201 -147 334 -325 334c-195 0 -327 -149 -327 -334c0 -186 132 -336 327 -336z" />
    <glyph glyph-name="uni1ECE" unicode="&#x1ece;" horiz-adv-x="822" 
d="M397 773c-5 9 -6 12 -6 22c0 32 81 43 81 86c0 34 -32 46 -57 46c-27 0 -54 -14 -67 -32l-16 13c20 22 46 41 87 41c46 0 75 -29 75 -67s-41 -61 -79 -80l-2 -29h-16zM412 -3c-210 0 -350 160 -350 359c0 197 140 358 350 358c191 0 348 -143 348 -358
c0 -216 -157 -359 -348 -359zM412 20c178 0 325 134 325 336c0 201 -147 334 -325 334c-195 0 -327 -149 -327 -334c0 -186 132 -336 327 -336z" />
    <glyph glyph-name="Ohorn" unicode="&#x1a0;" horiz-adv-x="861" 
d="M788 774h22v-77c0 -106 -36 -143 -98 -149l-1 -2c31 -54 49 -118 49 -190c0 -216 -157 -359 -348 -359c-210 0 -350 160 -350 359c0 197 140 358 350 358c117 0 221 -54 285 -145c57 2 91 26 91 127v78zM412 20c178 0 325 134 325 336c0 201 -147 334 -325 334
c-195 0 -327 -149 -327 -334c0 -186 132 -336 327 -336z" />
    <glyph glyph-name="uni1EDA" unicode="&#x1eda;" horiz-adv-x="861" 
d="M281 936l-124 -135h-30l123 135h31zM788 774h22v-77c0 -106 -36 -143 -98 -149l-1 -2c31 -54 49 -118 49 -190c0 -216 -157 -359 -348 -359c-210 0 -350 160 -350 359c0 197 140 358 350 358c117 0 221 -54 285 -145c57 2 91 26 91 127v78zM412 20c178 0 325 134 325 336
c0 201 -147 334 -325 334c-195 0 -327 -149 -327 -334c0 -186 132 -336 327 -336z" />
    <glyph glyph-name="uni1EE2" unicode="&#x1ee2;" horiz-adv-x="861" 
d="M788 774h22v-77c0 -106 -36 -143 -98 -149l-1 -2c31 -54 49 -118 49 -190c0 -216 -157 -359 -348 -359c-210 0 -350 160 -350 359c0 197 140 358 350 358c117 0 221 -54 285 -145c57 2 91 26 91 127v78zM412 20c178 0 325 134 325 336c0 201 -147 334 -325 334
c-195 0 -327 -149 -327 -334c0 -186 132 -336 327 -336zM412 -134c16 0 28 -12 28 -27c0 -17 -12 -27 -28 -27s-27 10 -27 27c0 15 11 27 27 27z" />
    <glyph glyph-name="uni1EDC" unicode="&#x1edc;" horiz-adv-x="861" 
d="M201 801h-29l-124 135h30zM788 774h22v-77c0 -106 -36 -143 -98 -149l-1 -2c31 -54 49 -118 49 -190c0 -216 -157 -359 -348 -359c-210 0 -350 160 -350 359c0 197 140 358 350 358c117 0 221 -54 285 -145c57 2 91 26 91 127v78zM412 20c178 0 325 134 325 336
c0 201 -147 334 -325 334c-195 0 -327 -149 -327 -334c0 -186 132 -336 327 -336z" />
    <glyph glyph-name="uni1EDE" unicode="&#x1ede;" horiz-adv-x="861" 
d="M415 927c-27 0 -54 -14 -67 -32l-16 13c20 22 46 41 87 41c46 0 75 -29 75 -67s-41 -61 -79 -80l-2 -29h-16c-5 9 -6 12 -6 22c0 32 81 43 81 86c0 34 -32 46 -57 46zM788 774h22v-77c0 -106 -36 -143 -98 -149l-1 -2c31 -54 49 -118 49 -190c0 -216 -157 -359 -348 -359
c-210 0 -350 160 -350 359c0 197 140 358 350 358c117 0 221 -54 285 -145c57 2 91 26 91 127v78zM412 20c178 0 325 134 325 336c0 201 -147 334 -325 334c-195 0 -327 -149 -327 -334c0 -186 132 -336 327 -336z" />
    <glyph glyph-name="uni1EE0" unicode="&#x1ee0;" horiz-adv-x="861" 
d="M339 890c-28 0 -50 -22 -64 -61l-21 6c17 50 43 77 84 77c30 0 54 -15 77 -31c24 -16 48 -38 74 -38c24 0 48 19 60 62l21 -7c-16 -54 -49 -77 -80 -77c-32 0 -61 23 -88 42c-21 15 -42 27 -63 27zM788 774h22v-77c0 -106 -36 -143 -98 -149l-1 -2
c31 -54 49 -118 49 -190c0 -216 -157 -359 -348 -359c-210 0 -350 160 -350 359c0 197 140 358 350 358c117 0 221 -54 285 -145c57 2 91 26 91 127v78zM412 20c178 0 325 134 325 336c0 201 -147 334 -325 334c-195 0 -327 -149 -327 -334c0 -186 132 -336 327 -336z" />
    <glyph glyph-name="Ohungarumlaut" unicode="&#x150;" horiz-adv-x="822" 
d="M337 801l122 135h31l-124 -135h-29zM461 801l122 135h31l-125 -135h-28zM412 -3c-210 0 -350 160 -350 359c0 197 140 358 350 358c191 0 348 -143 348 -358c0 -216 -157 -359 -348 -359zM412 20c178 0 325 134 325 336c0 201 -147 334 -325 334
c-195 0 -327 -149 -327 -334c0 -186 132 -336 327 -336z" />
    <glyph glyph-name="Omacron" unicode="&#x14c;" horiz-adv-x="822" 
d="M279 859v23h267v-23h-267zM412 -3c-210 0 -350 160 -350 359c0 197 140 358 350 358c191 0 348 -143 348 -358c0 -216 -157 -359 -348 -359zM412 20c178 0 325 134 325 336c0 201 -147 334 -325 334c-195 0 -327 -149 -327 -334c0 -186 132 -336 327 -336z" />
    <glyph glyph-name="uni01EA" unicode="&#x1ea;" horiz-adv-x="822" 
d="M443 -2c-46 -25 -76 -65 -76 -102c0 -31 18 -54 61 -54c29 0 41 4 59 13l4 -23c-16 -8 -33 -13 -63 -13c-51 0 -84 26 -84 76c0 32 20 70 59 100v2c-205 5 -341 163 -341 359c0 197 140 358 350 358c191 0 348 -143 348 -358c0 -204 -140 -343 -317 -358zM85 356
c0 -186 132 -336 327 -336c178 0 325 134 325 336c0 201 -147 334 -325 334c-195 0 -327 -149 -327 -334z" />
    <glyph glyph-name="Oslash" unicode="&#xd8;" horiz-adv-x="822" 
d="M664 609c60 -63 96 -149 96 -253c0 -216 -157 -359 -348 -359c-96 0 -177 33 -237 88l-89 -95l-19 16l91 97c-61 64 -96 154 -96 253c0 197 140 358 350 358c91 0 174 -32 236 -89l81 86l17 -15zM85 356c0 -92 32 -176 89 -236l458 487c-58 53 -136 83 -220 83
c-195 0 -327 -149 -327 -334zM412 20c178 0 325 134 325 336c0 97 -34 177 -89 235l-457 -488c56 -52 132 -83 221 -83z" />
    <glyph glyph-name="Oslashacute" unicode="&#x1fe;" horiz-adv-x="822" 
d="M533 936l-124 -135h-30l123 135h31zM664 609c60 -63 96 -149 96 -253c0 -216 -157 -359 -348 -359c-96 0 -177 33 -237 88l-89 -95l-19 16l91 97c-61 64 -96 154 -96 253c0 197 140 358 350 358c91 0 174 -32 236 -89l81 86l17 -15zM85 356c0 -92 32 -176 89 -236
l458 487c-58 53 -136 83 -220 83c-195 0 -327 -149 -327 -334zM412 20c178 0 325 134 325 336c0 97 -34 177 -89 235l-457 -488c56 -52 132 -83 221 -83z" />
    <glyph glyph-name="Otilde" unicode="&#xd5;" horiz-adv-x="822" 
d="M489 821c-32 0 -61 23 -88 42c-21 15 -42 27 -63 27c-28 0 -50 -22 -64 -61l-21 6c17 50 43 77 84 77c30 0 54 -15 77 -31c24 -16 48 -38 74 -38c24 0 48 19 60 62l21 -7c-16 -54 -49 -77 -80 -77zM412 -3c-210 0 -350 160 -350 359c0 197 140 358 350 358
c191 0 348 -143 348 -358c0 -216 -157 -359 -348 -359zM412 20c178 0 325 134 325 336c0 201 -147 334 -325 334c-195 0 -327 -149 -327 -334c0 -186 132 -336 327 -336z" />
    <glyph glyph-name="OE" unicode="&#x152;" horiz-adv-x="932" 
d="M479 23h410v-23h-432h-41c-212 0 -354 163 -354 357s142 355 354 353h51h402v-22h-390v-321h332v-23h-332v-321zM416 23h41v664h-41c-182 2 -331 -133 -331 -330c0 -198 149 -334 331 -334z" />
    <glyph glyph-name="P" unicode="P" horiz-adv-x="582" 
d="M89 0v710h233c157 0 219 -86 219 -200c0 -144 -98 -205 -237 -205h-192v-305h-23zM112 328h191c156 0 215 79 215 182c0 122 -80 178 -190 178h-216v-360z" />
    <glyph glyph-name="Thorn" unicode="&#xde;" horiz-adv-x="599" 
d="M89 0v710h23v-158h227c159 0 220 -85 220 -200c0 -144 -99 -205 -238 -205h-209v-147h-23zM112 170h214c150 0 209 80 209 183c0 122 -78 176 -190 176h-233v-359z" />
    <glyph glyph-name="Q" unicode="Q" horiz-adv-x="830" 
d="M771 14l-15 -17l-104 93c-62 -59 -147 -93 -240 -93c-210 0 -350 160 -350 359c0 197 140 358 350 358c191 0 348 -143 348 -358c0 -102 -35 -188 -92 -250zM412 20c86 0 164 31 223 86l-103 92l14 18l105 -94c53 58 86 138 86 234c0 201 -147 334 -325 334
c-195 0 -327 -149 -327 -334c0 -186 132 -336 327 -336z" />
    <glyph glyph-name="R" unicode="R" horiz-adv-x="612" 
d="M549 0h-28l-220 305h-189v-305h-23v710h233c154 0 220 -86 220 -200c0 -135 -87 -197 -212 -204v-3zM112 688v-360h192c157 0 214 79 214 182c0 122 -77 178 -195 178h-211z" />
    <glyph glyph-name="Racute" unicode="&#x154;" horiz-adv-x="612" 
d="M382 936l-124 -135h-30l123 135h31zM549 0h-28l-220 305h-189v-305h-23v710h233c154 0 220 -86 220 -200c0 -135 -87 -197 -212 -204v-3zM112 688v-360h192c157 0 214 79 214 182c0 122 -77 178 -195 178h-211z" />
    <glyph glyph-name="Rcaron" unicode="&#x158;" horiz-adv-x="612" 
d="M309 800h-25l-122 136h29l105 -118h4l105 118h29zM549 0h-28l-220 305h-189v-305h-23v710h233c154 0 220 -86 220 -200c0 -135 -87 -197 -212 -204v-3zM112 688v-360h192c157 0 214 79 214 182c0 122 -77 178 -195 178h-211z" />
    <glyph glyph-name="Rcommaaccent" unicode="&#x156;" horiz-adv-x="612" 
d="M330 303l219 -303h-28l-220 305h-189v-305h-23v710h233c154 0 220 -86 220 -200c0 -135 -87 -197 -212 -204v-3zM112 688v-360h192c157 0 214 79 214 182c0 122 -77 178 -195 178h-211zM284 -55h22c3 -17 5 -37 5 -55c0 -45 -18 -85 -82 -89l-8 18c59 3 68 35 68 70
c0 18 -2 38 -5 56z" />
    <glyph glyph-name="S" unicode="S" horiz-adv-x="558" 
d="M282 -3c-86 0 -176 32 -239 107l18 18c51 -69 138 -102 223 -102c104 0 198 52 198 154c0 109 -97 134 -202 177c-99 40 -206 81 -206 196c0 96 82 167 202 167c69 0 146 -27 203 -74l-16 -19c-55 45 -125 69 -186 69c-89 0 -179 -48 -179 -143c0 -100 95 -137 189 -174
c113 -45 218 -75 218 -199c0 -100 -81 -177 -223 -177z" />
    <glyph glyph-name="Sacute" unicode="&#x15a;" horiz-adv-x="558" 
d="M254 801l123 135h31l-124 -135h-30zM282 -3c-86 0 -176 32 -239 107l18 18c51 -69 138 -102 223 -102c104 0 198 52 198 154c0 109 -97 134 -202 177c-99 40 -206 81 -206 196c0 96 82 167 202 167c69 0 146 -27 203 -74l-16 -19c-55 45 -125 69 -186 69
c-89 0 -179 -48 -179 -143c0 -100 95 -137 189 -174c113 -45 218 -75 218 -199c0 -100 -81 -177 -223 -177z" />
    <glyph glyph-name="Scaron" unicode="&#x160;" horiz-adv-x="558" 
d="M290 800h-25l-122 136h29l105 -118h4l105 118h29zM287 373c113 -45 218 -75 218 -199c0 -100 -81 -177 -223 -177c-86 0 -176 32 -239 107l18 18c51 -69 138 -102 223 -102c104 0 198 52 198 154c0 109 -97 134 -202 177c-99 40 -206 81 -206 196c0 96 82 167 202 167
c69 0 146 -27 203 -74l-16 -19c-55 45 -125 69 -186 69c-89 0 -179 -48 -179 -143c0 -100 95 -137 189 -174z" />
    <glyph glyph-name="Scedilla" unicode="&#x15e;" horiz-adv-x="558" 
d="M286 -3l-13 -31l1 -1c38 -3 79 -30 79 -77c0 -38 -30 -72 -85 -72c-16 0 -34 2 -49 6v23c13 -4 27 -7 45 -7c35 0 66 16 66 51c0 28 -26 57 -82 57l1 19l15 32c-80 5 -162 37 -221 107l18 18c51 -69 138 -102 223 -102c104 0 198 52 198 154c0 109 -97 134 -202 177
c-99 40 -206 81 -206 196c0 96 82 167 202 167c69 0 146 -27 203 -74l-16 -19c-55 45 -125 69 -186 69c-89 0 -179 -48 -179 -143c0 -100 95 -137 189 -174c113 -45 218 -75 218 -199c0 -99 -79 -176 -219 -177z" />
    <glyph glyph-name="Scircumflex" unicode="&#x15c;" horiz-adv-x="558" 
d="M278 919l-106 -119h-29l122 136h25l125 -136h-29l-106 119h-2zM287 373c113 -45 218 -75 218 -199c0 -100 -81 -177 -223 -177c-86 0 -176 32 -239 107l18 18c51 -69 138 -102 223 -102c104 0 198 52 198 154c0 109 -97 134 -202 177c-99 40 -206 81 -206 196
c0 96 82 167 202 167c69 0 146 -27 203 -74l-16 -19c-55 45 -125 69 -186 69c-89 0 -179 -48 -179 -143c0 -100 95 -137 189 -174z" />
    <glyph glyph-name="Scommaaccent" unicode="&#x218;" horiz-adv-x="558" 
d="M282 -3c-86 0 -176 32 -239 107l18 18c51 -69 138 -102 223 -102c104 0 198 52 198 154c0 109 -97 134 -202 177c-99 40 -206 81 -206 196c0 96 82 167 202 167c69 0 146 -27 203 -74l-16 -19c-55 45 -125 69 -186 69c-89 0 -179 -48 -179 -143c0 -100 95 -137 189 -174
c113 -45 218 -75 218 -199c0 -100 -81 -177 -223 -177zM214 -199l-8 18c59 3 68 35 68 70c0 18 -2 38 -5 56h22c3 -17 5 -37 5 -55c0 -45 -18 -85 -82 -89z" />
    <glyph glyph-name="uni1E9E" unicode="&#x1e9e;" horiz-adv-x="695" 
d="M435 373c113 -45 219 -75 219 -199c0 -100 -82 -177 -223 -177c-83 0 -170 30 -233 100l13 23c52 -68 137 -100 222 -100c103 0 197 52 197 154c0 109 -97 134 -201 177c-27 11 -59 24 -85 37l154 279c-63 15 -140 23 -214 23c-141 0 -201 -55 -201 -176v-514h-23v517
c0 133 69 197 221 197c75 0 169 -12 251 -32l-9 -17v-2l-2 -1l-144 -264v-1z" />
    <glyph glyph-name="uni018F" unicode="&#x18f;" horiz-adv-x="693" 
d="M324 714c179 0 308 -149 308 -359c0 -209 -122 -358 -302 -358c-144 0 -281 115 -281 333v13h559v12c0 197 -118 335 -284 335c-95 0 -143 -25 -184 -45l-11 21c45 24 100 48 195 48zM330 20c159 0 264 127 277 300h-535c4 -179 112 -300 258 -300z" />
    <glyph glyph-name="T" unicode="T" horiz-adv-x="542" 
d="M258 0v688h-233v22h492v-22h-236v-688h-23z" />
    <glyph glyph-name="Tbar" unicode="&#x166;" horiz-adv-x="542" 
d="M517 688h-236v-299h129v-23h-129v-366h-23v366h-115v23h115v299h-233v22h492v-22z" />
    <glyph glyph-name="Tcaron" unicode="&#x164;" horiz-adv-x="542" 
d="M281 800h-25l-122 136h29l105 -118h4l105 118h29zM25 710h492v-22h-236v-688h-23v688h-233v22z" />
    <glyph glyph-name="uni0162" unicode="&#x162;" horiz-adv-x="542" 
d="M278 0l-14 -34l1 -1c38 -3 79 -30 79 -77c0 -38 -30 -72 -85 -72c-16 0 -34 2 -49 6v23c13 -4 27 -7 45 -7c35 0 66 16 66 51c0 28 -26 57 -82 57l1 19l18 39v684h-233v22h492v-22h-236v-688h-3z" />
    <glyph glyph-name="uni021A" unicode="&#x21a;" horiz-adv-x="542" 
d="M258 0v688h-233v22h492v-22h-236v-688h-23zM205 -199l-8 18c59 3 68 35 68 70c0 18 -2 38 -5 56h22c3 -17 5 -37 5 -55c0 -45 -18 -85 -82 -89z" />
    <glyph glyph-name="U" unicode="U" horiz-adv-x="682" 
d="M341 -3c-153 0 -260 107 -260 286v427h23v-427c0 -166 97 -263 237 -263s238 97 238 263v427h23v-427c0 -179 -108 -286 -261 -286z" />
    <glyph glyph-name="Uacute" unicode="&#xda;" horiz-adv-x="682" 
d="M308 801l123 135h31l-124 -135h-30zM341 -3c-153 0 -260 107 -260 286v427h23v-427c0 -166 97 -263 237 -263s238 97 238 263v427h23v-427c0 -179 -108 -286 -261 -286z" />
    <glyph glyph-name="Ubreve" unicode="&#x16c;" horiz-adv-x="682" 
d="M342 801c-62 0 -117 44 -122 127h21c4 -60 40 -105 101 -105s97 45 100 105h22c-6 -83 -60 -127 -122 -127zM341 -3c-153 0 -260 107 -260 286v427h23v-427c0 -166 97 -263 237 -263s238 97 238 263v427h23v-427c0 -179 -108 -286 -261 -286z" />
    <glyph glyph-name="Ucircumflex" unicode="&#xdb;" horiz-adv-x="682" 
d="M341 919l-106 -119h-29l122 136h25l125 -136h-29l-106 119h-2zM579 710h23v-427c0 -179 -108 -286 -261 -286s-260 107 -260 286v427h23v-427c0 -166 97 -263 237 -263s238 97 238 263v427z" />
    <glyph glyph-name="Udieresis" unicode="&#xdc;" horiz-adv-x="682" 
d="M268 846c-16 0 -28 12 -28 27c0 17 12 27 28 27s27 -10 27 -27c0 -15 -11 -27 -27 -27zM415 846c-16 0 -28 12 -28 27c0 17 12 27 28 27s27 -10 27 -27c0 -15 -11 -27 -27 -27zM341 -3c-153 0 -260 107 -260 286v427h23v-427c0 -166 97 -263 237 -263s238 97 238 263v427
h23v-427c0 -179 -108 -286 -261 -286z" />
    <glyph glyph-name="uni1EE4" unicode="&#x1ee4;" horiz-adv-x="682" 
d="M341 -3c-153 0 -260 107 -260 286v427h23v-427c0 -166 97 -263 237 -263s238 97 238 263v427h23v-427c0 -179 -108 -286 -261 -286zM341 -134c16 0 28 -12 28 -27c0 -17 -12 -27 -28 -27s-27 10 -27 27c0 15 11 27 27 27z" />
    <glyph glyph-name="Ugrave" unicode="&#xd9;" horiz-adv-x="682" 
d="M357 801l-124 135h30l123 -135h-29zM341 -3c-153 0 -260 107 -260 286v427h23v-427c0 -166 97 -263 237 -263s238 97 238 263v427h23v-427c0 -179 -108 -286 -261 -286z" />
    <glyph glyph-name="uni1EE6" unicode="&#x1ee6;" horiz-adv-x="682" 
d="M327 773c-5 9 -6 12 -6 22c0 32 81 43 81 86c0 34 -32 46 -57 46c-27 0 -54 -14 -67 -32l-16 13c20 22 46 41 87 41c46 0 75 -29 75 -67s-41 -61 -79 -80l-2 -29h-16zM341 -3c-153 0 -260 107 -260 286v427h23v-427c0 -166 97 -263 237 -263s238 97 238 263v427h23v-427
c0 -179 -108 -286 -261 -286z" />
    <glyph glyph-name="Uhorn" unicode="&#x1af;" horiz-adv-x="738" 
d="M691 774h22v-77c0 -114 -41 -148 -111 -150v-264c0 -179 -108 -286 -261 -286s-260 107 -260 286v427h23v-427c0 -166 97 -263 237 -263s238 97 238 263v427h23v-141c56 2 89 28 89 127v78z" />
    <glyph glyph-name="uni1EE8" unicode="&#x1ee8;" horiz-adv-x="738" 
d="M208 936l-124 -135h-30l123 135h31zM691 774h22v-77c0 -114 -41 -148 -111 -150v-264c0 -179 -108 -286 -261 -286s-260 107 -260 286v427h23v-427c0 -166 97 -263 237 -263s238 97 238 263v427h23v-141c56 2 89 28 89 127v78z" />
    <glyph glyph-name="uni1EF0" unicode="&#x1ef0;" horiz-adv-x="738" 
d="M691 774h22v-77c0 -114 -41 -148 -111 -150v-264c0 -179 -108 -286 -261 -286s-260 107 -260 286v427h23v-427c0 -166 97 -263 237 -263s238 97 238 263v427h23v-141c56 2 89 28 89 127v78zM341 -134c16 0 28 -12 28 -27c0 -17 -12 -27 -28 -27s-27 10 -27 27
c0 15 11 27 27 27z" />
    <glyph glyph-name="uni1EEA" unicode="&#x1eea;" horiz-adv-x="738" 
d="M145 801h-29l-124 135h30zM691 774h22v-77c0 -114 -41 -148 -111 -150v-264c0 -179 -108 -286 -261 -286s-260 107 -260 286v427h23v-427c0 -166 97 -263 237 -263s238 97 238 263v427h23v-141c56 2 89 28 89 127v78z" />
    <glyph glyph-name="uni1EEC" unicode="&#x1eec;" horiz-adv-x="738" 
d="M345 927c-27 0 -54 -14 -67 -32l-16 13c20 22 46 41 87 41c46 0 75 -29 75 -67s-41 -61 -79 -80l-2 -29h-16c-5 9 -6 12 -6 22c0 32 81 43 81 86c0 34 -32 46 -57 46zM691 774h22v-77c0 -114 -41 -148 -111 -150v-264c0 -179 -108 -286 -261 -286s-260 107 -260 286v427
h23v-427c0 -166 97 -263 237 -263s238 97 238 263v427h23v-141c56 2 89 28 89 127v78z" />
    <glyph glyph-name="uni1EEE" unicode="&#x1eee;" horiz-adv-x="738" 
d="M269 890c-28 0 -50 -22 -64 -61l-21 6c17 50 43 77 84 77c30 0 54 -15 77 -31c24 -16 48 -38 74 -38c24 0 48 19 60 62l21 -7c-16 -54 -49 -77 -80 -77c-32 0 -61 23 -88 42c-21 15 -42 27 -63 27zM691 774h22v-77c0 -114 -41 -148 -111 -150v-264
c0 -179 -108 -286 -261 -286s-260 107 -260 286v427h23v-427c0 -166 97 -263 237 -263s238 97 238 263v427h23v-141c56 2 89 28 89 127v78z" />
    <glyph glyph-name="Uhungarumlaut" unicode="&#x170;" horiz-adv-x="682" 
d="M240 801l122 135h31l-124 -135h-29zM364 801l122 135h31l-125 -135h-28zM341 -3c-153 0 -260 107 -260 286v427h23v-427c0 -166 97 -263 237 -263s238 97 238 263v427h23v-427c0 -179 -108 -286 -261 -286z" />
    <glyph glyph-name="Umacron" unicode="&#x16a;" horiz-adv-x="682" 
d="M209 859v23h267v-23h-267zM341 -3c-153 0 -260 107 -260 286v427h23v-427c0 -166 97 -263 237 -263s238 97 238 263v427h23v-427c0 -179 -108 -286 -261 -286z" />
    <glyph glyph-name="Uogonek" unicode="&#x172;" horiz-adv-x="682" 
d="M579 710h23v-427c0 -161 -87 -263 -215 -283c-48 -25 -79 -66 -79 -104c0 -31 18 -54 61 -54c29 0 41 4 59 13l4 -23c-16 -8 -33 -13 -63 -13c-51 0 -84 26 -84 76c0 32 20 70 59 100v2h-3c-153 0 -260 107 -260 286v427h23v-427c0 -166 97 -263 237 -263s238 97 238 263
v427z" />
    <glyph glyph-name="Uring" unicode="&#x16e;" horiz-adv-x="682" 
d="M342 795c-39 0 -73 34 -73 73c0 40 34 73 73 73c40 0 74 -33 74 -73c0 -39 -34 -73 -74 -73zM342 818c28 0 52 23 52 50c0 28 -24 51 -52 51s-51 -23 -51 -51c0 -27 23 -50 51 -50zM341 -3c-153 0 -260 107 -260 286v427h23v-427c0 -166 97 -263 237 -263s238 97 238 263
v427h23v-427c0 -179 -108 -286 -261 -286z" />
    <glyph glyph-name="Utilde" unicode="&#x168;" horiz-adv-x="682" 
d="M419 821c-32 0 -61 23 -88 42c-21 15 -42 27 -63 27c-28 0 -50 -22 -64 -61l-21 6c17 50 43 77 84 77c30 0 54 -15 77 -31c24 -16 48 -38 74 -38c24 0 48 19 60 62l21 -7c-16 -54 -49 -77 -80 -77zM341 -3c-153 0 -260 107 -260 286v427h23v-427c0 -166 97 -263 237 -263
s238 97 238 263v427h23v-427c0 -179 -108 -286 -261 -286z" />
    <glyph glyph-name="V" unicode="V" horiz-adv-x="630" 
d="M575 710h25l-273 -710h-24l-273 710h25l259 -675h2z" />
    <glyph glyph-name="W" unicode="W" horiz-adv-x="991" 
d="M932 710h25l-230 -710h-30l-201 677h-1l-202 -677h-29l-230 710h25l219 -676h1l201 676h31l200 -675h2z" />
    <glyph glyph-name="Wacute" unicode="&#x1e82;" horiz-adv-x="991" 
d="M639 936l-124 -135h-30l123 135h31zM932 710h25l-230 -710h-30l-201 677h-1l-202 -677h-29l-230 710h25l219 -676h1l201 676h31l200 -675h2z" />
    <glyph glyph-name="Wcircumflex" unicode="&#x174;" horiz-adv-x="991" 
d="M494 919l-106 -119h-29l122 136h25l125 -136h-29l-106 119h-2zM932 710h25l-230 -710h-30l-201 677h-1l-202 -677h-29l-230 710h25l219 -676h1l201 676h31l200 -675h2z" />
    <glyph glyph-name="Wdieresis" unicode="&#x1e84;" horiz-adv-x="991" 
d="M421 846c-16 0 -28 12 -28 27c0 17 12 27 28 27s27 -10 27 -27c0 -15 -11 -27 -27 -27zM568 846c-16 0 -28 12 -28 27c0 17 12 27 28 27s27 -10 27 -27c0 -15 -11 -27 -27 -27zM932 710h25l-230 -710h-30l-201 677h-1l-202 -677h-29l-230 710h25l219 -676h1l201 676h31
l200 -675h2z" />
    <glyph glyph-name="Wgrave" unicode="&#x1e80;" horiz-adv-x="991" 
d="M508 801h-29l-124 135h30zM932 710h25l-230 -710h-30l-201 677h-1l-202 -677h-29l-230 710h25l219 -676h1l201 676h31l200 -675h2z" />
    <glyph glyph-name="X" unicode="X" horiz-adv-x="604" 
d="M572 710l-255 -356l254 -354h-29l-238 330h-1v1l-241 -331h-28l254 354l-255 356h27l242 -335h1l240 335h29z" />
    <glyph glyph-name="Y" unicode="Y" horiz-adv-x="556" 
d="M510 710h28l-249 -387v-323h-23v323l-248 387h28l230 -360h2z" />
    <glyph glyph-name="Yacute" unicode="&#xdd;" horiz-adv-x="556" 
d="M427 936l-124 -135h-30l123 135h31zM510 710h28l-249 -387v-323h-23v323l-248 387h28l230 -360h2z" />
    <glyph glyph-name="Ycircumflex" unicode="&#x176;" horiz-adv-x="556" 
d="M277 919l-106 -119h-29l122 136h25l125 -136h-29l-106 119h-2zM510 710h28l-249 -387v-323h-23v323l-248 387h28l230 -360h2z" />
    <glyph glyph-name="Ydieresis" unicode="&#x178;" horiz-adv-x="556" 
d="M204 846c-16 0 -28 12 -28 27c0 17 12 27 28 27s27 -10 27 -27c0 -15 -11 -27 -27 -27zM351 846c-16 0 -28 12 -28 27c0 17 12 27 28 27s27 -10 27 -27c0 -15 -11 -27 -27 -27zM510 710h28l-249 -387v-323h-23v323l-248 387h28l230 -360h2z" />
    <glyph glyph-name="uni1EF4" unicode="&#x1ef4;" horiz-adv-x="556" 
d="M266 0v323l-248 387h28l230 -360h2l232 360h28l-249 -387v-323h-23zM277 -134c16 0 28 -12 28 -27c0 -17 -12 -27 -28 -27s-27 10 -27 27c0 15 11 27 27 27z" />
    <glyph glyph-name="Ygrave" unicode="&#x1ef2;" horiz-adv-x="556" 
d="M319 801h-29l-124 135h30zM510 710h28l-249 -387v-323h-23v323l-248 387h28l230 -360h2z" />
    <glyph glyph-name="uni1EF6" unicode="&#x1ef6;" horiz-adv-x="556" 
d="M281 927c-27 0 -54 -14 -67 -32l-16 13c20 22 46 41 87 41c46 0 75 -29 75 -67s-41 -61 -79 -80l-2 -29h-16c-5 9 -6 12 -6 22c0 32 81 43 81 86c0 34 -32 46 -57 46zM510 710h28l-249 -387v-323h-23v323l-248 387h28l230 -360h2z" />
    <glyph glyph-name="uni0232" unicode="&#x232;" horiz-adv-x="556" 
d="M412 882v-23h-267v23h267zM510 710h28l-249 -387v-323h-23v323l-248 387h28l230 -360h2z" />
    <glyph glyph-name="uni1EF8" unicode="&#x1ef8;" horiz-adv-x="556" 
d="M205 890c-28 0 -50 -22 -64 -61l-21 6c17 50 43 77 84 77c30 0 54 -15 77 -31c24 -16 48 -38 74 -38c24 0 48 19 60 62l21 -7c-16 -54 -49 -77 -80 -77c-32 0 -61 23 -88 42c-21 15 -42 27 -63 27zM510 710h28l-249 -387v-323h-23v323l-248 387h28l230 -360h2z" />
    <glyph glyph-name="Z" unicode="Z" horiz-adv-x="588" 
d="M87 23h438v-23h-469v21l434 664v3h-407v22h437v-23l-433 -662v-2z" />
    <glyph glyph-name="Zacute" unicode="&#x179;" horiz-adv-x="588" 
d="M372 936l-124 -135h-30l123 135h31zM87 23h438v-23h-469v21l434 664v3h-407v22h437v-23l-433 -662v-2z" />
    <glyph glyph-name="Zcaron" unicode="&#x17d;" horiz-adv-x="588" 
d="M299 800h-25l-122 136h29l105 -118h4l105 118h29zM87 23h438v-23h-469v21l434 664v3h-407v22h437v-23l-433 -662v-2z" />
    <glyph glyph-name="Zdotaccent" unicode="&#x17b;" horiz-adv-x="588" 
d="M288 846c-16 0 -28 12 -28 27c0 17 12 27 28 27s27 -10 27 -27c0 -15 -11 -27 -27 -27zM87 23h438v-23h-469v21l434 664v3h-407v22h437v-23l-433 -662v-2z" />
    <glyph glyph-name="Q.alt" horiz-adv-x="821" 
d="M760 356c0 -159 -85 -278 -206 -330l161 -136l-13 -18l-171 145c-37 -13 -77 -20 -119 -20c-210 0 -350 160 -350 359c0 197 140 358 350 358c191 0 348 -143 348 -358zM85 356c0 -186 132 -336 327 -336c178 0 325 134 325 336c0 201 -147 334 -325 334
c-195 0 -327 -149 -327 -334z" />
    <glyph glyph-name="a" unicode="a" horiz-adv-x="591" 
d="M495 484h22v-484h-22v133h-1c-35 -80 -110 -136 -209 -136c-132 0 -240 96 -240 240c0 138 97 251 241 251c91 0 170 -53 207 -139h2v135zM285 19c116 0 210 87 210 218c0 126 -84 228 -209 228c-120 0 -218 -91 -218 -228c0 -120 86 -218 217 -218z" />
    <glyph glyph-name="aacute" unicode="&#xe1;" horiz-adv-x="591" 
d="M443 696l-124 -135h-30l123 135h31zM495 484h22v-484h-22v133h-1c-35 -80 -110 -136 -209 -136c-132 0 -240 96 -240 240c0 138 97 251 241 251c91 0 170 -53 207 -139h2v135zM285 19c116 0 210 87 210 218c0 126 -84 228 -209 228c-120 0 -218 -91 -218 -228
c0 -120 86 -218 217 -218z" />
    <glyph glyph-name="abreve" unicode="&#x103;" horiz-adv-x="591" 
d="M287 561c-62 0 -117 44 -122 127h21c4 -60 40 -105 101 -105s97 45 100 105h22c-6 -83 -60 -127 -122 -127zM495 484h22v-484h-22v133h-1c-35 -80 -110 -136 -209 -136c-132 0 -240 96 -240 240c0 138 97 251 241 251c91 0 170 -53 207 -139h2v135zM285 19
c116 0 210 87 210 218c0 126 -84 228 -209 228c-120 0 -218 -91 -218 -228c0 -120 86 -218 217 -218z" />
    <glyph glyph-name="uni1EAF" unicode="&#x1eaf;" horiz-adv-x="591" 
d="M397 832l-124 -135h-30l123 135h31zM287 561c-62 0 -117 44 -122 127h21c4 -60 40 -105 101 -105s97 45 100 105h22c-6 -83 -60 -127 -122 -127zM495 484h22v-484h-22v133h-1c-35 -80 -110 -136 -209 -136c-132 0 -240 96 -240 240c0 138 97 251 241 251
c91 0 170 -53 207 -139h2v135zM285 19c116 0 210 87 210 218c0 126 -84 228 -209 228c-120 0 -218 -91 -218 -228c0 -120 86 -218 217 -218z" />
    <glyph glyph-name="uni1EB7" unicode="&#x1eb7;" horiz-adv-x="591" 
d="M287 561c-62 0 -117 44 -122 127h21c4 -60 40 -105 101 -105s97 45 100 105h22c-6 -83 -60 -127 -122 -127zM495 484h22v-484h-22v133h-1c-35 -80 -110 -136 -209 -136c-132 0 -240 96 -240 240c0 138 97 251 241 251c91 0 170 -53 207 -139h2v135zM285 19
c116 0 210 87 210 218c0 126 -84 228 -209 228c-120 0 -218 -91 -218 -228c0 -120 86 -218 217 -218zM289 -134c16 0 28 -12 28 -27c0 -17 -12 -27 -28 -27s-27 10 -27 27c0 15 11 27 27 27z" />
    <glyph glyph-name="uni1EB1" unicode="&#x1eb1;" horiz-adv-x="591" 
d="M299 697h-29l-124 135h30zM185 688c4 -60 40 -105 101 -105s97 45 100 105h22c-6 -83 -60 -127 -122 -127s-117 44 -122 127h21zM495 484h22v-484h-22v133h-1c-35 -80 -110 -136 -209 -136c-132 0 -240 96 -240 240c0 138 97 251 241 251c91 0 170 -53 207 -139h2v135z
M285 19c116 0 210 87 210 218c0 126 -84 228 -209 228c-120 0 -218 -91 -218 -228c0 -120 86 -218 217 -218z" />
    <glyph glyph-name="uni1EB3" unicode="&#x1eb3;" horiz-adv-x="591" 
d="M289 823c-27 0 -54 -14 -67 -32l-16 13c20 22 46 41 87 41c46 0 75 -29 75 -67s-41 -61 -79 -80l-2 -29h-16c-5 9 -6 12 -6 22c0 32 81 43 81 86c0 34 -32 46 -57 46zM286 561c-62 0 -117 44 -122 127h21c4 -60 40 -105 101 -105s97 45 100 105h22
c-6 -83 -60 -127 -122 -127zM495 484h22v-484h-22v133h-1c-35 -80 -110 -136 -209 -136c-132 0 -240 96 -240 240c0 138 97 251 241 251c91 0 170 -53 207 -139h2v135zM285 19c116 0 210 87 210 218c0 126 -84 228 -209 228c-120 0 -218 -91 -218 -228
c0 -120 86 -218 217 -218z" />
    <glyph glyph-name="uni1EB5" unicode="&#x1eb5;" horiz-adv-x="591" 
d="M213 786c-28 0 -50 -22 -64 -61l-21 6c17 50 43 77 84 77c30 0 54 -15 77 -31c24 -16 48 -38 74 -38c24 0 48 19 60 62l21 -7c-16 -54 -49 -77 -80 -77c-32 0 -61 23 -88 42c-21 15 -42 27 -63 27zM287 583c61 0 97 45 100 105h22c-6 -83 -60 -127 -122 -127
s-117 44 -122 127h21c4 -60 40 -105 101 -105zM495 484h22v-484h-22v133h-1c-35 -80 -110 -136 -209 -136c-132 0 -240 96 -240 240c0 138 97 251 241 251c91 0 170 -53 207 -139h2v135zM285 19c116 0 210 87 210 218c0 126 -84 228 -209 228c-120 0 -218 -91 -218 -228
c0 -120 86 -218 217 -218z" />
    <glyph glyph-name="acircumflex" unicode="&#xe2;" horiz-adv-x="591" 
d="M286 679l-106 -119h-29l122 136h25l125 -136h-29l-106 119h-2zM495 484h22v-484h-22v133h-1c-35 -80 -110 -136 -209 -136c-132 0 -240 96 -240 240c0 138 97 251 241 251c91 0 170 -53 207 -139h2v135zM285 19c116 0 210 87 210 218c0 126 -84 228 -209 228
c-120 0 -218 -91 -218 -228c0 -120 86 -218 217 -218z" />
    <glyph glyph-name="uni1EA5" unicode="&#x1ea5;" horiz-adv-x="591" 
d="M534 775l-124 -135h-30l123 135h31zM288 680l-106 -119h-29l122 136h25l125 -136h-29l-106 119h-2zM495 349v135h22v-484h-22v133h-1c-35 -80 -110 -136 -209 -136c-132 0 -240 96 -240 240c0 138 97 251 241 251c91 0 170 -53 207 -139h2zM285 19c116 0 210 87 210 218
c0 126 -84 228 -209 228c-120 0 -218 -91 -218 -228c0 -120 86 -218 217 -218z" />
    <glyph glyph-name="uni1EAD" unicode="&#x1ead;" horiz-adv-x="591" 
d="M286 679l-106 -119h-29l122 136h25l125 -136h-29l-106 119h-2zM495 484h22v-484h-22v133h-1c-35 -80 -110 -136 -209 -136c-132 0 -240 96 -240 240c0 138 97 251 241 251c91 0 170 -53 207 -139h2v135zM285 19c116 0 210 87 210 218c0 126 -84 228 -209 228
c-120 0 -218 -91 -218 -228c0 -120 86 -218 217 -218zM289 -134c16 0 28 -12 28 -27c0 -17 -12 -27 -28 -27s-27 10 -27 27c0 15 11 27 27 27z" />
    <glyph glyph-name="uni1EA7" unicode="&#x1ea7;" horiz-adv-x="591" 
d="M460 640h-29l-125 135h31zM284 681l-106 -119h-29l122 136h25l125 -136h-29l-106 119h-2zM495 484h22v-484h-22v133h-1c-35 -80 -110 -136 -209 -136c-132 0 -240 96 -240 240c0 138 97 251 241 251c91 0 170 -53 207 -139h2v135zM285 19c116 0 210 87 210 218
c0 126 -84 228 -209 228c-120 0 -218 -91 -218 -228c0 -120 86 -218 217 -218z" />
    <glyph glyph-name="uni1EA9" unicode="&#x1ea9;" horiz-adv-x="591" 
d="M418 769c-27 0 -54 -14 -68 -32l-15 13c20 23 46 41 87 41c46 0 75 -29 75 -67s-41 -61 -79 -80l-2 -28h-16c-5 8 -7 12 -7 21c0 33 82 44 82 86c0 35 -32 46 -57 46zM285 679l-106 -119h-29l122 136h25l125 -136h-29l-106 119h-2zM495 484h22v-484h-22v133h-1
c-35 -80 -110 -136 -209 -136c-132 0 -240 96 -240 240c0 138 97 251 241 251c91 0 170 -53 207 -139h2v135zM285 19c116 0 210 87 210 218c0 126 -84 228 -209 228c-120 0 -218 -91 -218 -228c0 -120 86 -218 217 -218z" />
    <glyph glyph-name="uni1EAB" unicode="&#x1eab;" horiz-adv-x="591" 
d="M212 791c-28 0 -50 -22 -64 -61l-21 6c17 50 43 77 84 77c30 0 54 -15 77 -31c24 -16 48 -38 74 -38c24 0 48 19 60 62l21 -7c-16 -54 -49 -77 -80 -77c-32 0 -61 23 -88 42c-21 15 -42 27 -63 27zM274 696h25l125 -136h-29l-106 119h-2l-106 -119h-29zM495 484h22v-484
h-22v133h-1c-35 -80 -110 -136 -209 -136c-132 0 -240 96 -240 240c0 138 97 251 241 251c91 0 170 -53 207 -139h2v135zM285 19c116 0 210 87 210 218c0 126 -84 228 -209 228c-120 0 -218 -91 -218 -228c0 -120 86 -218 217 -218z" />
    <glyph glyph-name="adieresis" unicode="&#xe4;" horiz-adv-x="591" 
d="M213 606c-16 0 -28 12 -28 27c0 17 12 27 28 27s27 -10 27 -27c0 -15 -11 -27 -27 -27zM360 606c-16 0 -28 12 -28 27c0 17 12 27 28 27s27 -10 27 -27c0 -15 -11 -27 -27 -27zM495 484h22v-484h-22v133h-1c-35 -80 -110 -136 -209 -136c-132 0 -240 96 -240 240
c0 138 97 251 241 251c91 0 170 -53 207 -139h2v135zM285 19c116 0 210 87 210 218c0 126 -84 228 -209 228c-120 0 -218 -91 -218 -228c0 -120 86 -218 217 -218z" />
    <glyph glyph-name="uni1EA1" unicode="&#x1ea1;" horiz-adv-x="591" 
d="M495 484h22v-484h-22v133h-1c-35 -80 -110 -136 -209 -136c-132 0 -240 96 -240 240c0 138 97 251 241 251c91 0 170 -53 207 -139h2v135zM285 19c116 0 210 87 210 218c0 126 -84 228 -209 228c-120 0 -218 -91 -218 -228c0 -120 86 -218 217 -218zM289 -134
c16 0 28 -12 28 -27c0 -17 -12 -27 -28 -27s-27 10 -27 27c0 15 11 27 27 27z" />
    <glyph glyph-name="agrave" unicode="&#xe0;" horiz-adv-x="591" 
d="M340 561h-29l-124 135h30zM495 484h22v-484h-22v133h-1c-35 -80 -110 -136 -209 -136c-132 0 -240 96 -240 240c0 138 97 251 241 251c91 0 170 -53 207 -139h2v135zM285 19c116 0 210 87 210 218c0 126 -84 228 -209 228c-120 0 -218 -91 -218 -228
c0 -120 86 -218 217 -218z" />
    <glyph glyph-name="uni1EA3" unicode="&#x1ea3;" horiz-adv-x="591" 
d="M290 687c-27 0 -54 -14 -67 -32l-16 13c20 22 46 41 87 41c46 0 75 -29 75 -67s-41 -61 -79 -80l-2 -29h-16c-5 9 -6 12 -6 22c0 32 81 43 81 86c0 34 -32 46 -57 46zM495 484h22v-484h-22v133h-1c-35 -80 -110 -136 -209 -136c-132 0 -240 96 -240 240
c0 138 97 251 241 251c91 0 170 -53 207 -139h2v135zM285 19c116 0 210 87 210 218c0 126 -84 228 -209 228c-120 0 -218 -91 -218 -228c0 -120 86 -218 217 -218z" />
    <glyph glyph-name="amacron" unicode="&#x101;" horiz-adv-x="591" 
d="M421 642v-23h-267v23h267zM495 484h22v-484h-22v133h-1c-35 -80 -110 -136 -209 -136c-132 0 -240 96 -240 240c0 138 97 251 241 251c91 0 170 -53 207 -139h2v135zM285 19c116 0 210 87 210 218c0 126 -84 228 -209 228c-120 0 -218 -91 -218 -228
c0 -120 86 -218 217 -218z" />
    <glyph glyph-name="aogonek" unicode="&#x105;" horiz-adv-x="591" 
d="M558 -145l4 -23c-16 -8 -33 -13 -63 -13c-51 0 -84 26 -84 76c0 37 27 82 80 115v123h-1c-35 -80 -110 -136 -209 -136c-132 0 -240 96 -240 240c0 138 97 251 241 251c91 0 170 -53 207 -139h2v135h22v-484c-48 -25 -79 -66 -79 -104c0 -31 18 -54 61 -54
c29 0 41 4 59 13zM285 19c116 0 210 87 210 218c0 126 -84 228 -209 228c-120 0 -218 -91 -218 -228c0 -120 86 -218 217 -218z" />
    <glyph glyph-name="aring" unicode="&#xe5;" horiz-adv-x="591" 
d="M287 555c-39 0 -73 34 -73 73c0 40 34 73 73 73c40 0 74 -33 74 -73c0 -39 -34 -73 -74 -73zM287 679c-28 0 -51 -23 -51 -51c0 -27 23 -50 51 -50s52 23 52 50c0 28 -24 51 -52 51zM495 484h22v-484h-22v133h-1c-35 -80 -110 -136 -209 -136c-132 0 -240 96 -240 240
c0 138 97 251 241 251c91 0 170 -53 207 -139h2v135zM285 19c116 0 210 87 210 218c0 126 -84 228 -209 228c-120 0 -218 -91 -218 -228c0 -120 86 -218 217 -218z" />
    <glyph glyph-name="aringacute" unicode="&#x1fb;" horiz-adv-x="591" 
d="M288 555c-39 0 -73 34 -73 73c0 40 34 73 73 73c24 0 46 -12 60 -30l90 57h39l-119 -76c3 -8 4 -16 4 -24c0 -39 -34 -73 -74 -73zM288 679c-28 0 -51 -23 -51 -51c0 -27 23 -50 51 -50s52 23 52 50c0 28 -24 51 -52 51zM495 484h22v-484h-22v133h-1
c-35 -80 -110 -136 -209 -136c-132 0 -240 96 -240 240c0 138 97 251 241 251c91 0 170 -53 207 -139h2v135zM285 19c116 0 210 87 210 218c0 126 -84 228 -209 228c-120 0 -218 -91 -218 -228c0 -120 86 -218 217 -218z" />
    <glyph glyph-name="atilde" unicode="&#xe3;" horiz-adv-x="591" 
d="M213 650c-28 0 -50 -22 -64 -61l-21 6c17 50 43 77 84 77c30 0 54 -15 77 -31c24 -16 48 -38 74 -38c24 0 48 19 60 62l21 -7c-16 -54 -49 -77 -80 -77c-32 0 -61 23 -88 42c-21 15 -42 27 -63 27zM495 484h22v-484h-22v133h-1c-35 -80 -110 -136 -209 -136
c-132 0 -240 96 -240 240c0 138 97 251 241 251c91 0 170 -53 207 -139h2v135zM285 19c116 0 210 87 210 218c0 126 -84 228 -209 228c-120 0 -218 -91 -218 -228c0 -120 86 -218 217 -218z" />
    <glyph glyph-name="ae" unicode="&#xe6;" horiz-adv-x="792" 
d="M758 243h-376l-1 -18c7 -120 83 -206 180 -206c64 0 119 31 158 81l17 -13c-42 -56 -102 -90 -173 -90c-83 0 -155 57 -186 143h-1c-20 -90 -98 -143 -191 -143c-99 0 -148 65 -148 137c0 71 52 130 163 130l160 1v24c0 129 -29 176 -117 176c-66 0 -115 -20 -153 -42
l-11 19c42 25 95 46 164 46c91 0 127 -47 136 -136h1c32 82 100 136 186 136c109 0 192 -99 192 -234v-11zM566 465c-100 0 -175 -84 -184 -200h353c-8 122 -76 200 -169 200zM185 19c93 0 175 59 175 175v49l-160 -1c-73 0 -140 -35 -140 -108c0 -59 40 -115 125 -115z" />
    <glyph glyph-name="aeacute" unicode="&#x1fd;" horiz-adv-x="792" 
d="M512 696l-124 -135h-30l123 135h31zM758 243h-376l-1 -18c7 -120 83 -206 180 -206c64 0 119 31 158 81l17 -13c-42 -56 -102 -90 -173 -90c-83 0 -155 57 -186 143h-1c-20 -90 -98 -143 -191 -143c-99 0 -148 65 -148 137c0 71 52 130 163 130l160 1v24
c0 129 -29 176 -117 176c-66 0 -115 -20 -153 -42l-11 19c42 25 95 46 164 46c91 0 127 -47 136 -136h1c32 82 100 136 186 136c109 0 192 -99 192 -234v-11zM566 465c-100 0 -175 -84 -184 -200h353c-8 122 -76 200 -169 200zM185 19c93 0 175 59 175 175v49l-160 -1
c-73 0 -140 -35 -140 -108c0 -59 40 -115 125 -115z" />
    <glyph glyph-name="b" unicode="b" horiz-adv-x="600" 
d="M312 488c144 0 240 -113 240 -251c0 -144 -107 -240 -239 -240c-99 0 -174 55 -209 135h-1v-132h-22v736h22v-387h2c36 86 115 139 207 139zM313 19c130 0 217 98 217 218c0 137 -98 228 -218 228c-126 0 -209 -102 -209 -228c0 -131 94 -218 210 -218z" />
    <glyph glyph-name="c" unicode="c" horiz-adv-x="499" 
d="M278 -3c-138 0 -231 101 -231 245c0 143 94 246 232 246c67 0 134 -26 180 -77l-17 -17c-35 42 -94 71 -163 71c-125 0 -210 -93 -210 -223c0 -132 85 -223 209 -223c64 0 129 26 168 70l15 -17c-41 -43 -109 -75 -183 -75z" />
    <glyph glyph-name="cacute" unicode="&#x107;" horiz-adv-x="499" 
d="M261 561l123 135h31l-124 -135h-30zM278 -3c-138 0 -231 101 -231 245c0 143 94 246 232 246c67 0 134 -26 180 -77l-17 -17c-35 42 -94 71 -163 71c-125 0 -210 -93 -210 -223c0 -132 85 -223 209 -223c64 0 129 26 168 70l15 -17c-41 -43 -109 -75 -183 -75z" />
    <glyph glyph-name="ccaron" unicode="&#x10d;" horiz-adv-x="499" 
d="M284 560h-25l-122 136h29l105 -118h4l105 118h29zM446 89l15 -17c-41 -43 -109 -75 -183 -75c-138 0 -231 101 -231 245c0 143 94 246 232 246c67 0 134 -26 180 -77l-17 -17c-35 42 -94 71 -163 71c-125 0 -210 -93 -210 -223c0 -132 85 -223 209 -223
c64 0 129 26 168 70z" />
    <glyph glyph-name="ccedilla" unicode="&#xe7;" horiz-adv-x="499" 
d="M275 -3l-13 -31l1 -1c38 -3 79 -30 79 -77c0 -38 -30 -72 -85 -72c-16 0 -34 2 -49 6v23c13 -4 27 -7 45 -7c35 0 66 16 66 51c0 28 -26 57 -82 57l1 19l15 33c-124 11 -206 109 -206 244c0 143 94 246 232 246c67 0 134 -26 180 -77l-17 -17c-35 42 -94 71 -163 71
c-125 0 -210 -93 -210 -223c0 -132 85 -223 209 -223c64 0 129 26 168 70l15 -17c-41 -43 -109 -75 -183 -75h-3z" />
    <glyph glyph-name="ccircumflex" unicode="&#x109;" horiz-adv-x="499" 
d="M272 679l-106 -119h-29l122 136h25l125 -136h-29l-106 119h-2zM446 89l15 -17c-41 -43 -109 -75 -183 -75c-138 0 -231 101 -231 245c0 143 94 246 232 246c67 0 134 -26 180 -77l-17 -17c-35 42 -94 71 -163 71c-125 0 -210 -93 -210 -223c0 -132 85 -223 209 -223
c64 0 129 26 168 70z" />
    <glyph glyph-name="cdotaccent" unicode="&#x10b;" horiz-adv-x="499" 
d="M273 606c-16 0 -28 12 -28 27c0 17 12 27 28 27s27 -10 27 -27c0 -15 -11 -27 -27 -27zM278 -3c-138 0 -231 101 -231 245c0 143 94 246 232 246c67 0 134 -26 180 -77l-17 -17c-35 42 -94 71 -163 71c-125 0 -210 -93 -210 -223c0 -132 85 -223 209 -223
c64 0 129 26 168 70l15 -17c-41 -43 -109 -75 -183 -75z" />
    <glyph glyph-name="d" unicode="d" horiz-adv-x="600" 
d="M498 736h22v-736h-22v133h-2c-34 -80 -110 -136 -208 -136c-133 0 -241 96 -241 240c0 138 97 251 241 251c91 0 170 -53 207 -139h3v387zM288 19c115 0 210 87 210 218c0 126 -85 228 -210 228c-121 0 -219 -91 -219 -228c0 -120 87 -218 219 -218z" />
    <glyph glyph-name="eth" unicode="&#xf0;" horiz-adv-x="580" 
d="M532 245v-3c0 -134 -97 -245 -242 -245c-134 0 -243 98 -243 245c0 133 98 246 243 246c77 0 146 -34 190 -91c3 -3 5 -7 8 -11l1 1c-35 113 -110 208 -202 271l-87 -67l-15 16l81 63v2c-32 19 -65 35 -100 47l6 20c40 -13 77 -32 113 -54l71 56l15 -17l-67 -52
c135 -93 228 -247 228 -427zM290 19c131 0 219 101 219 223c0 133 -98 223 -219 223c-132 0 -220 -101 -220 -223c0 -134 98 -223 220 -223z" />
    <glyph glyph-name="dcaron" unicode="&#x10f;" horiz-adv-x="653" 
d="M637 755h27l-32 -158h-20zM498 349v387h22v-736h-22v133h-2c-34 -80 -110 -136 -208 -136c-133 0 -241 96 -241 240c0 138 97 251 241 251c91 0 170 -53 207 -139h3zM288 19c115 0 210 87 210 218c0 126 -85 228 -210 228c-121 0 -219 -91 -219 -228
c0 -120 87 -218 219 -218z" />
    <glyph glyph-name="dcroat" unicode="&#x111;" horiz-adv-x="598" 
d="M582 610v-22h-62v-588h-22v133h-2c-34 -80 -110 -136 -208 -136c-133 0 -241 96 -241 240c0 138 97 251 241 251c91 0 170 -53 207 -139h3v239h-164v22h164v126h22v-126h62zM288 19c115 0 210 87 210 218c0 126 -85 228 -210 228c-121 0 -219 -91 -219 -228
c0 -120 87 -218 219 -218z" />
    <glyph glyph-name="e" unicode="e" 
d="M488 243h-418v-1c0 -129 86 -223 207 -223c77 0 135 31 174 81l17 -13c-42 -56 -105 -90 -189 -90c-136 0 -232 104 -232 245s100 246 230 246c126 0 212 -99 212 -231zM277 465c-110 0 -196 -84 -206 -200h395c-7 120 -80 200 -189 200z" />
    <glyph glyph-name="eacute" unicode="&#xe9;" 
d="M415 696l-124 -135h-30l123 135h31zM488 243h-418v-1c0 -129 86 -223 207 -223c77 0 135 31 174 81l17 -13c-42 -56 -105 -90 -189 -90c-136 0 -232 104 -232 245s100 246 230 246c126 0 212 -99 212 -231zM277 465c-110 0 -196 -84 -206 -200h395
c-7 120 -80 200 -189 200z" />
    <glyph glyph-name="ebreve" unicode="&#x115;" 
d="M278 561c-62 0 -117 44 -122 127h21c4 -60 40 -105 101 -105s97 45 100 105h22c-6 -83 -60 -127 -122 -127zM488 243h-418v-1c0 -129 86 -223 207 -223c77 0 135 31 174 81l17 -13c-42 -56 -105 -90 -189 -90c-136 0 -232 104 -232 245s100 246 230 246
c126 0 212 -99 212 -231zM277 465c-110 0 -196 -84 -206 -200h395c-7 120 -80 200 -189 200z" />
    <glyph glyph-name="ecaron" unicode="&#x11b;" 
d="M289 560h-25l-122 136h29l105 -118h4l105 118h29zM488 243h-418v-1c0 -129 86 -223 207 -223c77 0 135 31 174 81l17 -13c-42 -56 -105 -90 -189 -90c-136 0 -232 104 -232 245s100 246 230 246c126 0 212 -99 212 -231zM277 465c-110 0 -196 -84 -206 -200h395
c-7 120 -80 200 -189 200z" />
    <glyph glyph-name="ecircumflex" unicode="&#xea;" 
d="M277 679l-106 -119h-29l122 136h25l125 -136h-29l-106 119h-2zM488 243h-418v-1c0 -129 86 -223 207 -223c77 0 135 31 174 81l17 -13c-42 -56 -105 -90 -189 -90c-136 0 -232 104 -232 245s100 246 230 246c126 0 212 -99 212 -231zM277 465c-110 0 -196 -84 -206 -200
h395c-7 120 -80 200 -189 200z" />
    <glyph glyph-name="uni1EBF" unicode="&#x1ebf;" 
d="M525 775l-124 -135h-30l123 135h31zM279 680l-106 -119h-29l122 136h25l125 -136h-29l-106 119h-2zM277 488c126 0 212 -99 212 -231l-1 -14h-418v-1c0 -129 86 -223 207 -223c77 0 135 31 174 81l17 -13c-42 -56 -105 -90 -189 -90c-136 0 -232 104 -232 245
s100 246 230 246zM277 465c-110 0 -196 -84 -206 -200h395c-7 120 -80 200 -189 200z" />
    <glyph glyph-name="uni1EC7" unicode="&#x1ec7;" 
d="M277 679l-106 -119h-29l122 136h25l125 -136h-29l-106 119h-2zM488 243h-418v-1c0 -129 86 -223 207 -223c77 0 135 31 174 81l17 -13c-42 -56 -105 -90 -189 -90c-136 0 -232 104 -232 245s100 246 230 246c126 0 212 -99 212 -231zM277 465c-110 0 -196 -84 -206 -200
h395c-7 120 -80 200 -189 200zM283 -134c16 0 28 -12 28 -27c0 -17 -12 -27 -28 -27s-27 10 -27 27c0 15 11 27 27 27z" />
    <glyph glyph-name="uni1EC1" unicode="&#x1ec1;" 
d="M451 640h-29l-125 135h31zM275 681l-106 -119h-29l122 136h25l125 -136h-29l-106 119h-2zM488 243h-418v-1c0 -129 86 -223 207 -223c77 0 135 31 174 81l17 -13c-42 -56 -105 -90 -189 -90c-136 0 -232 104 -232 245s100 246 230 246c126 0 212 -99 212 -231zM277 465
c-110 0 -196 -84 -206 -200h395c-7 120 -80 200 -189 200z" />
    <glyph glyph-name="uni1EC3" unicode="&#x1ec3;" 
d="M409 769c-27 0 -54 -14 -68 -32l-15 13c20 23 46 41 87 41c46 0 75 -29 75 -67s-41 -61 -79 -80l-2 -28h-16c-5 8 -7 12 -7 21c0 33 82 44 82 86c0 35 -32 46 -57 46zM276 679l-106 -119h-29l122 136h25l125 -136h-29l-106 119h-2zM488 243h-418v-1
c0 -129 86 -223 207 -223c77 0 135 31 174 81l17 -13c-42 -56 -105 -90 -189 -90c-136 0 -232 104 -232 245s100 246 230 246c126 0 212 -99 212 -231zM277 465c-110 0 -196 -84 -206 -200h395c-7 120 -80 200 -189 200z" />
    <glyph glyph-name="uni1EC5" unicode="&#x1ec5;" 
d="M203 791c-28 0 -50 -22 -64 -61l-21 6c17 50 43 77 84 77c30 0 54 -15 77 -31c24 -16 48 -38 74 -38c24 0 48 19 60 62l21 -7c-16 -54 -49 -77 -80 -77c-32 0 -61 23 -88 42c-21 15 -42 27 -63 27zM265 696h25l125 -136h-29l-106 119h-2l-106 -119h-29zM488 243h-418v-1
c0 -129 86 -223 207 -223c77 0 135 31 174 81l17 -13c-42 -56 -105 -90 -189 -90c-136 0 -232 104 -232 245s100 246 230 246c126 0 212 -99 212 -231zM277 465c-110 0 -196 -84 -206 -200h395c-7 120 -80 200 -189 200z" />
    <glyph glyph-name="edieresis" unicode="&#xeb;" 
d="M204 606c-16 0 -28 12 -28 27c0 17 12 27 28 27s27 -10 27 -27c0 -15 -11 -27 -27 -27zM351 606c-16 0 -28 12 -28 27c0 17 12 27 28 27s27 -10 27 -27c0 -15 -11 -27 -27 -27zM488 243h-418v-1c0 -129 86 -223 207 -223c77 0 135 31 174 81l17 -13
c-42 -56 -105 -90 -189 -90c-136 0 -232 104 -232 245s100 246 230 246c126 0 212 -99 212 -231zM277 465c-110 0 -196 -84 -206 -200h395c-7 120 -80 200 -189 200z" />
    <glyph glyph-name="edotaccent" unicode="&#x117;" 
d="M278 606c-16 0 -28 12 -28 27c0 17 12 27 28 27s27 -10 27 -27c0 -15 -11 -27 -27 -27zM488 243h-418v-1c0 -129 86 -223 207 -223c77 0 135 31 174 81l17 -13c-42 -56 -105 -90 -189 -90c-136 0 -232 104 -232 245s100 246 230 246c126 0 212 -99 212 -231zM277 465
c-110 0 -196 -84 -206 -200h395c-7 120 -80 200 -189 200z" />
    <glyph glyph-name="uni1EB9" unicode="&#x1eb9;" 
d="M488 243h-418v-1c0 -129 86 -223 207 -223c77 0 135 31 174 81l17 -13c-42 -56 -105 -90 -189 -90c-136 0 -232 104 -232 245s100 246 230 246c126 0 212 -99 212 -231zM277 465c-110 0 -196 -84 -206 -200h395c-7 120 -80 200 -189 200zM283 -134c16 0 28 -12 28 -27
c0 -17 -12 -27 -28 -27s-27 10 -27 27c0 15 11 27 27 27z" />
    <glyph glyph-name="egrave" unicode="&#xe8;" 
d="M326 561h-29l-124 135h30zM488 243h-418v-1c0 -129 86 -223 207 -223c77 0 135 31 174 81l17 -13c-42 -56 -105 -90 -189 -90c-136 0 -232 104 -232 245s100 246 230 246c126 0 212 -99 212 -231zM277 465c-110 0 -196 -84 -206 -200h395c-7 120 -80 200 -189 200z" />
    <glyph glyph-name="uni1EBB" unicode="&#x1ebb;" 
d="M281 687c-27 0 -54 -14 -67 -32l-16 13c20 22 46 41 87 41c46 0 75 -29 75 -67s-41 -61 -79 -80l-2 -29h-16c-5 9 -6 12 -6 22c0 32 81 43 81 86c0 34 -32 46 -57 46zM488 243h-418v-1c0 -129 86 -223 207 -223c77 0 135 31 174 81l17 -13c-42 -56 -105 -90 -189 -90
c-136 0 -232 104 -232 245s100 246 230 246c126 0 212 -99 212 -231zM277 465c-110 0 -196 -84 -206 -200h395c-7 120 -80 200 -189 200z" />
    <glyph glyph-name="emacron" unicode="&#x113;" 
d="M412 642v-23h-267v23h267zM488 243h-418v-1c0 -129 86 -223 207 -223c77 0 135 31 174 81l17 -13c-42 -56 -105 -90 -189 -90c-136 0 -232 104 -232 245s100 246 230 246c126 0 212 -99 212 -231zM277 465c-110 0 -196 -84 -206 -200h395c-7 120 -80 200 -189 200z" />
    <glyph glyph-name="eogonek" unicode="&#x119;" 
d="M488 243h-418v-1c0 -129 86 -223 207 -223c77 0 135 31 174 81l17 -13c-34 -46 -83 -77 -145 -87c-48 -25 -80 -66 -80 -104c0 -31 18 -54 62 -54c29 0 41 4 58 13l4 -23c-15 -8 -32 -13 -62 -13c-51 0 -84 26 -84 76c0 32 20 70 59 101v1h-1c-136 0 -232 104 -232 245
s100 246 230 246c126 0 212 -99 212 -231zM277 465c-110 0 -196 -84 -206 -200h395c-7 120 -80 200 -189 200z" />
    <glyph glyph-name="uni1EBD" unicode="&#x1ebd;" 
d="M205 650c-28 0 -50 -22 -64 -61l-21 6c17 50 43 77 84 77c30 0 54 -15 77 -31c24 -16 48 -38 74 -38c24 0 48 19 60 62l21 -7c-16 -54 -49 -77 -80 -77c-32 0 -61 23 -88 42c-21 15 -42 27 -63 27zM488 243h-418v-1c0 -129 86 -223 207 -223c77 0 135 31 174 81l17 -13
c-42 -56 -105 -90 -189 -90c-136 0 -232 104 -232 245s100 246 230 246c126 0 212 -99 212 -231zM277 465c-110 0 -196 -84 -206 -200h395c-7 120 -80 200 -189 200z" />
    <glyph glyph-name="f" unicode="f" horiz-adv-x="311" 
d="M105 0v462h-68v22h68v118c0 96 48 138 117 138c38 0 66 -10 95 -26l-4 -22c-28 16 -55 25 -92 25c-52 0 -94 -30 -94 -115v-118h173v-22h-173v-462h-22z" />
    <glyph glyph-name="g" unicode="g" horiz-adv-x="586" 
d="M491 484h22v-474c0 -125 -74 -211 -221 -211c-73 0 -134 17 -198 56l7 23c63 -40 122 -57 192 -57c136 0 198 81 198 194v131h-1c-34 -80 -108 -134 -209 -134c-129 0 -234 94 -234 241c0 129 94 235 235 235c94 0 172 -50 208 -130h1v126zM281 34c130 0 210 95 210 219
c0 127 -91 212 -209 212c-128 0 -212 -95 -212 -212c0 -133 94 -219 211 -219z" />
    <glyph glyph-name="gbreve" unicode="&#x11f;" horiz-adv-x="586" 
d="M282 561c-62 0 -117 44 -122 127h21c4 -60 40 -105 101 -105s97 45 100 105h22c-6 -83 -60 -127 -122 -127zM491 484h22v-474c0 -125 -74 -211 -221 -211c-73 0 -134 17 -198 56l7 23c63 -40 122 -57 192 -57c136 0 198 81 198 194v131h-1c-34 -80 -108 -134 -209 -134
c-129 0 -234 94 -234 241c0 129 94 235 235 235c94 0 172 -50 208 -130h1v126zM281 34c130 0 210 95 210 219c0 127 -91 212 -209 212c-128 0 -212 -95 -212 -212c0 -133 94 -219 211 -219z" />
    <glyph glyph-name="gcaron" unicode="&#x1e7;" horiz-adv-x="586" 
d="M293 560h-25l-122 136h29l105 -118h4l105 118h29zM491 484h22v-474c0 -125 -74 -211 -221 -211c-73 0 -134 17 -198 56l7 23c63 -40 122 -57 192 -57c136 0 198 81 198 194v131h-1c-34 -80 -108 -134 -209 -134c-129 0 -234 94 -234 241c0 129 94 235 235 235
c94 0 172 -50 208 -130h1v126zM281 34c130 0 210 95 210 219c0 127 -91 212 -209 212c-128 0 -212 -95 -212 -212c0 -133 94 -219 211 -219z" />
    <glyph glyph-name="gcircumflex" unicode="&#x11d;" horiz-adv-x="586" 
d="M281 679l-106 -119h-29l122 136h25l125 -136h-29l-106 119h-2zM491 484h22v-474c0 -125 -74 -211 -221 -211c-73 0 -134 17 -198 56l7 23c63 -40 122 -57 192 -57c136 0 198 81 198 194v131h-1c-34 -80 -108 -134 -209 -134c-129 0 -234 94 -234 241
c0 129 94 235 235 235c94 0 172 -50 208 -130h1v126zM281 34c130 0 210 95 210 219c0 127 -91 212 -209 212c-128 0 -212 -95 -212 -212c0 -133 94 -219 211 -219z" />
    <glyph glyph-name="gcommaaccent" unicode="&#x123;" horiz-adv-x="586" 
d="M305 552h-22c-3 17 -5 37 -5 55c0 45 18 85 82 89l8 -18c-59 -3 -68 -35 -68 -70c0 -18 2 -38 5 -56zM491 484h22v-474c0 -125 -74 -211 -221 -211c-73 0 -134 17 -198 56l7 23c63 -40 122 -57 192 -57c136 0 198 81 198 194v131h-1c-34 -80 -108 -134 -209 -134
c-129 0 -234 94 -234 241c0 129 94 235 235 235c94 0 172 -50 208 -130h1v126zM281 34c130 0 210 95 210 219c0 127 -91 212 -209 212c-128 0 -212 -95 -212 -212c0 -133 94 -219 211 -219z" />
    <glyph glyph-name="gdotaccent" unicode="&#x121;" horiz-adv-x="586" 
d="M282 606c-16 0 -28 12 -28 27c0 17 12 27 28 27s27 -10 27 -27c0 -15 -11 -27 -27 -27zM491 484h22v-474c0 -125 -74 -211 -221 -211c-73 0 -134 17 -198 56l7 23c63 -40 122 -57 192 -57c136 0 198 81 198 194v131h-1c-34 -80 -108 -134 -209 -134
c-129 0 -234 94 -234 241c0 129 94 235 235 235c94 0 172 -50 208 -130h1v126zM281 34c130 0 210 95 210 219c0 127 -91 212 -209 212c-128 0 -212 -95 -212 -212c0 -133 94 -219 211 -219z" />
    <glyph glyph-name="h" unicode="h" horiz-adv-x="548" 
d="M311 488c102 0 167 -71 167 -196v-292h-22v281c0 135 -66 184 -145 184c-127 0 -208 -90 -208 -226v-239h-22v736h22v-381h1c34 83 108 133 207 133z" />
    <glyph glyph-name="hbar" unicode="&#x127;" horiz-adv-x="548" 
d="M311 488c102 0 167 -71 167 -196v-292h-22v281c0 135 -66 184 -145 184c-127 0 -208 -90 -208 -226v-239h-22v588h-77v22h77v126h22v-126h149v-22h-149v-233h1c34 83 108 133 207 133z" />
    <glyph glyph-name="hcircumflex" unicode="&#x125;" horiz-adv-x="548" 
d="M216 932l-106 -119h-29l122 136h25l125 -136h-29l-106 119h-2zM311 488c102 0 167 -71 167 -196v-292h-22v281c0 135 -66 184 -145 184c-127 0 -208 -90 -208 -226v-239h-22v736h22v-381h1c34 83 108 133 207 133z" />
    <glyph glyph-name="i" unicode="i" horiz-adv-x="195" 
d="M98 606c-16 0 -28 12 -28 27c0 17 12 27 28 27s27 -10 27 -27c0 -15 -11 -27 -27 -27zM86 0v484h22v-484h-22z" />
    <glyph glyph-name="dotlessi" unicode="&#x131;" horiz-adv-x="195" 
d="M86 0v484h22v-484h-22z" />
    <glyph glyph-name="iacute" unicode="&#xed;" horiz-adv-x="195" 
d="M88 561l123 135h31l-124 -135h-30zM86 0v484h22v-484h-22z" />
    <glyph glyph-name="ibreve" unicode="&#x12d;" horiz-adv-x="195" 
d="M98 561c-62 0 -109 44 -113 127h22c2 -60 30 -105 91 -105s89 45 90 105h22c-4 -83 -50 -127 -112 -127zM86 0v484h22v-484h-22z" />
    <glyph glyph-name="icircumflex" unicode="&#xee;" horiz-adv-x="195" 
d="M109 696l125 -136h-29l-106 119h-2l-106 -119h-29l122 136h25zM86 0v484h22v-484h-22z" />
    <glyph glyph-name="idieresis" unicode="&#xef;" horiz-adv-x="195" 
d="M24 606c-16 0 -28 12 -28 27c0 17 12 27 28 27s27 -10 27 -27c0 -15 -11 -27 -27 -27zM171 606c-16 0 -28 12 -28 27c0 17 12 27 28 27s27 -10 27 -27c0 -15 -11 -27 -27 -27zM86 0v484h22v-484h-22z" />
    <glyph glyph-name="i.loclTRK" horiz-adv-x="195" 
d="M98 606c-16 0 -28 12 -28 27c0 17 12 27 28 27s27 -10 27 -27c0 -15 -11 -27 -27 -27zM86 0v484h22v-484h-22z" />
    <glyph glyph-name="uni1ECB" unicode="&#x1ecb;" horiz-adv-x="195" 
d="M98 606c-16 0 -28 12 -28 27c0 17 12 27 28 27s27 -10 27 -27c0 -15 -11 -27 -27 -27zM86 0v484h22v-484h-22zM103 -134c16 0 28 -12 28 -27c0 -17 -12 -27 -28 -27s-27 10 -27 27c0 15 11 27 27 27z" />
    <glyph glyph-name="igrave" unicode="&#xec;" horiz-adv-x="195" 
d="M81 561l-90 135h29l88 -135h-27zM86 0v484h22v-484h-22z" />
    <glyph glyph-name="uni1EC9" unicode="&#x1ec9;" horiz-adv-x="195" 
d="M83 533c-5 9 -6 12 -6 22c0 32 81 43 81 86c0 34 -32 46 -57 46c-27 0 -54 -14 -67 -32l-16 13c20 22 46 41 87 41c46 0 75 -29 75 -67s-41 -61 -79 -80l-2 -29h-16zM86 0v484h22v-484h-22z" />
    <glyph glyph-name="ij" unicode="&#x133;" horiz-adv-x="371" 
d="M98 606c-16 0 -28 12 -28 27c0 17 12 27 28 27s27 -10 27 -27c0 -15 -11 -27 -27 -27zM289 606c-16 0 -28 12 -28 27c0 17 12 27 28 27s27 -10 27 -27c0 -15 -11 -27 -27 -27zM86 0v484h22v-484h-22zM199 -201c-16 0 -43 4 -63 14l3 24c20 -12 45 -16 62 -16
c45 0 77 25 77 94v569h22v-569c0 -60 -21 -116 -101 -116z" />
    <glyph glyph-name="imacron" unicode="&#x12b;" horiz-adv-x="195" 
d="M-35 619v23h267v-23h-267zM86 0v484h22v-484h-22z" />
    <glyph glyph-name="iogonek" unicode="&#x12f;" horiz-adv-x="195" 
d="M98 606c-16 0 -28 12 -28 27c0 17 12 27 28 27s27 -10 27 -27c0 -15 -11 -27 -27 -27zM149 -145l4 -23c-16 -8 -33 -13 -63 -13c-51 0 -84 26 -84 76c0 37 27 82 80 115v474h22v-484c-48 -25 -79 -66 -79 -104c0 -31 18 -54 61 -54c29 0 41 4 59 13z" />
    <glyph glyph-name="itilde" unicode="&#x129;" horiz-adv-x="195" 
d="M175 581c-32 0 -61 23 -88 42c-21 15 -42 27 -63 27c-28 0 -50 -22 -64 -61l-21 6c17 50 43 77 84 77c30 0 54 -15 77 -31c24 -16 48 -38 74 -38c24 0 48 19 60 62l21 -7c-16 -54 -49 -77 -80 -77zM86 0v484h22v-484h-22z" />
    <glyph glyph-name="j" unicode="j" horiz-adv-x="176" 
d="M94 606c-16 0 -28 12 -28 27c0 17 12 27 28 27s27 -10 27 -27c0 -15 -11 -27 -27 -27zM4 -201c-16 0 -43 4 -63 14l3 24c20 -12 45 -16 62 -16c45 0 77 25 77 94v569h22v-569c0 -60 -21 -116 -101 -116z" />
    <glyph glyph-name="uni0237" unicode="&#x237;" horiz-adv-x="176" 
d="M4 -201c-16 0 -43 4 -63 14l3 24c20 -12 45 -16 62 -16c45 0 77 25 77 94v569h22v-569c0 -60 -21 -116 -101 -116z" />
    <glyph glyph-name="jcircumflex" unicode="&#x135;" horiz-adv-x="176" 
d="M105 696l125 -136h-29l-106 119h-2l-106 -119h-29l122 136h25zM83 -85v569h22v-569c0 -60 -21 -116 -101 -116c-16 0 -43 4 -63 14l3 24c20 -12 45 -16 62 -16c45 0 77 25 77 94z" />
    <glyph glyph-name="k" unicode="k" horiz-adv-x="483" 
d="M452 484l-193 -210l191 -274h-28l-178 256h-1l-140 -152v-104h-22v736h22v-597h1l316 345h32z" />
    <glyph glyph-name="kcommaaccent" unicode="&#x137;" horiz-adv-x="483" 
d="M452 484l-193 -210l191 -274h-28l-178 256h-1l-140 -152v-104h-22v736h22v-597h1l316 345h32zM237 -55h22c3 -17 5 -37 5 -55c0 -45 -18 -85 -82 -89l-8 18c59 3 68 35 68 70c0 18 -2 38 -5 56z" />
    <glyph glyph-name="kgreenlandic" unicode="&#x138;" horiz-adv-x="484" 
d="M453 484l-193 -210l192 -274h-30l-178 256h-1l-140 -152v-104h-22v484h22v-346l318 346h32z" />
    <glyph glyph-name="l" unicode="l" horiz-adv-x="194" 
d="M86 0v736h22v-736h-22z" />
    <glyph glyph-name="lacute" unicode="&#x13a;" horiz-adv-x="194" 
d="M82 814l123 135h31l-124 -135h-30zM86 0v736h22v-736h-22z" />
    <glyph glyph-name="lcaron" unicode="&#x13e;" horiz-adv-x="241" 
d="M201 597l24 158h26l-31 -158h-19zM86 0v736h22v-736h-22z" />
    <glyph glyph-name="lcommaaccent" unicode="&#x13c;" horiz-adv-x="194" 
d="M86 0v736h22v-736h-22zM33 -199l-8 18c59 3 68 35 68 70c0 18 -2 38 -5 56h22c3 -17 5 -37 5 -55c0 -45 -18 -85 -82 -89z" />
    <glyph glyph-name="ldot" unicode="&#x140;" horiz-adv-x="211" 
d="M86 0v736h22v-736h-22zM204 242c-17 0 -29 12 -29 29s12 28 29 28s29 -11 29 -28s-12 -29 -29 -29z" />
    <glyph glyph-name="lslash" unicode="&#x142;" horiz-adv-x="202" 
d="M180 377v-25l-66 -31v-321h-22v311l-74 -35v25l74 35v400h22v-390z" />
    <glyph glyph-name="m" unicode="m" horiz-adv-x="862" 
d="M634 488c111 0 162 -85 162 -211v-277h-22v266c0 135 -52 199 -140 199c-100 0 -181 -90 -181 -226v-239h-22v266c0 135 -56 199 -143 199c-104 0 -185 -90 -185 -226v-239h-22v484h22v-128h1c33 82 102 132 184 132c89 0 143 -57 160 -147h1c30 91 102 147 185 147z" />
    <glyph glyph-name="n" unicode="n" horiz-adv-x="543" 
d="M306 488c102 0 167 -71 167 -196v-292h-22v281c0 135 -66 184 -145 184c-122 0 -203 -90 -203 -226v-239h-22v484h22v-129h1c34 83 107 133 202 133z" />
    <glyph glyph-name="nacute" unicode="&#x144;" horiz-adv-x="543" 
d="M414 696l-124 -135h-30l123 135h31zM306 488c102 0 167 -71 167 -196v-292h-22v281c0 135 -66 184 -145 184c-122 0 -203 -90 -203 -226v-239h-22v484h22v-129h1c34 83 107 133 202 133z" />
    <glyph glyph-name="napostrophe" unicode="&#x149;" horiz-adv-x="592" 
d="M27 542l25 168h26l-31 -168h-20zM355 488c102 0 167 -71 167 -196v-292h-22v281c0 135 -66 184 -145 184c-122 0 -203 -90 -203 -226v-239h-22v484h22v-129h1c34 83 107 133 202 133z" />
    <glyph glyph-name="ncaron" unicode="&#x148;" horiz-adv-x="543" 
d="M293 560h-25l-122 136h29l105 -118h4l105 118h29zM306 488c102 0 167 -71 167 -196v-292h-22v281c0 135 -66 184 -145 184c-122 0 -203 -90 -203 -226v-239h-22v484h22v-129h1c34 83 107 133 202 133z" />
    <glyph glyph-name="ncommaaccent" unicode="&#x146;" horiz-adv-x="543" 
d="M306 488c102 0 167 -71 167 -196v-292h-22v281c0 135 -66 184 -145 184c-122 0 -203 -90 -203 -226v-239h-22v484h22v-129h1c34 83 107 133 202 133zM275 -55h22c3 -17 5 -37 5 -55c0 -45 -18 -85 -82 -89l-8 18c59 3 68 35 68 70c0 18 -2 38 -5 56z" />
    <glyph glyph-name="eng" unicode="&#x14b;" horiz-adv-x="539" 
d="M296 488c122 0 172 -85 172 -206v-367c0 -60 -21 -116 -101 -116c-16 0 -43 4 -63 14l3 24c20 -12 45 -16 62 -16c45 0 77 25 77 94v356c0 130 -51 194 -150 194c-102 0 -193 -90 -193 -226v-239h-22v484h22v-130c35 84 117 134 193 134z" />
    <glyph glyph-name="uni0272" unicode="&#x272;" horiz-adv-x="543" 
d="M306 488c102 0 167 -71 167 -196v-292h-22v281c0 135 -66 184 -145 184c-122 0 -203 -90 -203 -226v-324c0 -60 -21 -116 -101 -116c-16 0 -43 4 -63 14l2 24c20 -12 45 -16 62 -16c46 0 78 25 78 94v324v245h22v-129h1c34 83 107 133 202 133z" />
    <glyph glyph-name="ntilde" unicode="&#xf1;" horiz-adv-x="543" 
d="M208 650c-28 0 -50 -22 -64 -61l-21 6c17 50 43 77 84 77c30 0 54 -15 77 -31c24 -16 48 -38 74 -38c24 0 48 19 60 62l21 -7c-16 -54 -49 -77 -80 -77c-32 0 -61 23 -88 42c-21 15 -42 27 -63 27zM306 488c102 0 167 -71 167 -196v-292h-22v281c0 135 -66 184 -145 184
c-122 0 -203 -90 -203 -226v-239h-22v484h22v-129h1c34 83 107 133 202 133z" />
    <glyph glyph-name="o" unicode="o" horiz-adv-x="579" 
d="M290 -3c-145 0 -243 111 -243 245c0 133 98 246 243 246c133 0 242 -100 242 -246s-109 -245 -242 -245zM290 19c122 0 219 90 219 223s-98 223 -219 223c-133 0 -221 -101 -221 -223s88 -223 221 -223z" />
    <glyph glyph-name="oacute" unicode="&#xf3;" horiz-adv-x="579" 
d="M274 561l123 135h31l-124 -135h-30zM290 -3c-145 0 -243 111 -243 245c0 133 98 246 243 246c133 0 242 -100 242 -246s-109 -245 -242 -245zM290 19c122 0 219 90 219 223s-98 223 -219 223c-133 0 -221 -101 -221 -223s88 -223 221 -223z" />
    <glyph glyph-name="obreve" unicode="&#x14f;" horiz-adv-x="579" 
d="M291 561c-62 0 -117 44 -122 127h21c4 -60 40 -105 101 -105s97 45 100 105h22c-6 -83 -60 -127 -122 -127zM290 -3c-145 0 -243 111 -243 245c0 133 98 246 243 246c133 0 242 -100 242 -246s-109 -245 -242 -245zM290 19c122 0 219 90 219 223s-98 223 -219 223
c-133 0 -221 -101 -221 -223s88 -223 221 -223z" />
    <glyph glyph-name="ocircumflex" unicode="&#xf4;" horiz-adv-x="579" 
d="M290 679l-106 -119h-29l122 136h25l125 -136h-29l-106 119h-2zM290 488c133 0 242 -100 242 -246s-109 -245 -242 -245c-145 0 -243 111 -243 245c0 133 98 246 243 246zM290 19c122 0 219 90 219 223s-98 223 -219 223c-133 0 -221 -101 -221 -223s88 -223 221 -223z
" />
    <glyph glyph-name="uni1ED1" unicode="&#x1ed1;" horiz-adv-x="579" 
d="M538 775l-124 -135h-30l123 135h31zM292 680l-106 -119h-29l122 136h25l125 -136h-29l-106 119h-2zM290 488c133 0 242 -100 242 -246s-109 -245 -242 -245c-145 0 -243 111 -243 245c0 133 98 246 243 246zM290 19c122 0 219 90 219 223s-98 223 -219 223
c-133 0 -221 -101 -221 -223s88 -223 221 -223z" />
    <glyph glyph-name="uni1ED9" unicode="&#x1ed9;" horiz-adv-x="579" 
d="M290 679l-106 -119h-29l122 136h25l125 -136h-29l-106 119h-2zM290 488c133 0 242 -100 242 -246s-109 -245 -242 -245c-145 0 -243 111 -243 245c0 133 98 246 243 246zM290 19c122 0 219 90 219 223s-98 223 -219 223c-133 0 -221 -101 -221 -223s88 -223 221 -223z
M290 -134c16 0 28 -12 28 -27c0 -17 -12 -27 -28 -27s-27 10 -27 27c0 15 11 27 27 27z" />
    <glyph glyph-name="uni1ED3" unicode="&#x1ed3;" horiz-adv-x="579" 
d="M464 640h-29l-125 135h31zM288 681l-106 -119h-29l122 136h25l125 -136h-29l-106 119h-2zM290 488c133 0 242 -100 242 -246s-109 -245 -242 -245c-145 0 -243 111 -243 245c0 133 98 246 243 246zM290 19c122 0 219 90 219 223s-98 223 -219 223
c-133 0 -221 -101 -221 -223s88 -223 221 -223z" />
    <glyph glyph-name="uni1ED5" unicode="&#x1ed5;" horiz-adv-x="579" 
d="M422 769c-27 0 -54 -14 -68 -32l-15 13c20 23 46 41 87 41c46 0 75 -29 75 -67s-41 -61 -79 -80l-2 -28h-16c-5 8 -7 12 -7 21c0 33 82 44 82 86c0 35 -32 46 -57 46zM289 679l-106 -119h-29l122 136h25l125 -136h-29l-106 119h-2zM290 488c133 0 242 -100 242 -246
s-109 -245 -242 -245c-145 0 -243 111 -243 245c0 133 98 246 243 246zM290 19c122 0 219 90 219 223s-98 223 -219 223c-133 0 -221 -101 -221 -223s88 -223 221 -223z" />
    <glyph glyph-name="uni1ED7" unicode="&#x1ed7;" horiz-adv-x="579" 
d="M216 791c-28 0 -50 -22 -64 -61l-21 6c17 50 43 77 84 77c30 0 54 -15 77 -31c24 -16 48 -38 74 -38c24 0 48 19 60 62l21 -7c-16 -54 -49 -77 -80 -77c-32 0 -61 23 -88 42c-21 15 -42 27 -63 27zM278 696h25l125 -136h-29l-106 119h-2l-106 -119h-29zM290 488
c133 0 242 -100 242 -246s-109 -245 -242 -245c-145 0 -243 111 -243 245c0 133 98 246 243 246zM290 19c122 0 219 90 219 223s-98 223 -219 223c-133 0 -221 -101 -221 -223s88 -223 221 -223z" />
    <glyph glyph-name="odieresis" unicode="&#xf6;" horiz-adv-x="579" 
d="M217 606c-16 0 -28 12 -28 27c0 17 12 27 28 27s27 -10 27 -27c0 -15 -11 -27 -27 -27zM364 606c-16 0 -28 12 -28 27c0 17 12 27 28 27s27 -10 27 -27c0 -15 -11 -27 -27 -27zM290 -3c-145 0 -243 111 -243 245c0 133 98 246 243 246c133 0 242 -100 242 -246
s-109 -245 -242 -245zM290 19c122 0 219 90 219 223s-98 223 -219 223c-133 0 -221 -101 -221 -223s88 -223 221 -223z" />
    <glyph glyph-name="uni1ECD" unicode="&#x1ecd;" horiz-adv-x="579" 
d="M290 -3c-145 0 -243 111 -243 245c0 133 98 246 243 246c133 0 242 -100 242 -246s-109 -245 -242 -245zM290 19c122 0 219 90 219 223s-98 223 -219 223c-133 0 -221 -101 -221 -223s88 -223 221 -223zM290 -134c16 0 28 -12 28 -27c0 -17 -12 -27 -28 -27
s-27 10 -27 27c0 15 11 27 27 27z" />
    <glyph glyph-name="ograve" unicode="&#xf2;" horiz-adv-x="579" 
d="M304 561l-124 135h30l123 -135h-29zM290 -3c-145 0 -243 111 -243 245c0 133 98 246 243 246c133 0 242 -100 242 -246s-109 -245 -242 -245zM290 19c122 0 219 90 219 223s-98 223 -219 223c-133 0 -221 -101 -221 -223s88 -223 221 -223z" />
    <glyph glyph-name="uni1ECF" unicode="&#x1ecf;" horiz-adv-x="579" 
d="M276 533c-5 9 -6 12 -6 22c0 32 81 43 81 86c0 34 -32 46 -57 46c-27 0 -54 -14 -67 -32l-16 13c20 22 46 41 87 41c46 0 75 -29 75 -67s-41 -61 -79 -80l-2 -29h-16zM290 -3c-145 0 -243 111 -243 245c0 133 98 246 243 246c133 0 242 -100 242 -246
s-109 -245 -242 -245zM290 19c122 0 219 90 219 223s-98 223 -219 223c-133 0 -221 -101 -221 -223s88 -223 221 -223z" />
    <glyph glyph-name="ohorn" unicode="&#x1a1;" horiz-adv-x="646" 
d="M593 565h22v-77c0 -107 -37 -144 -100 -149v-1c11 -29 17 -61 17 -96c0 -146 -109 -245 -242 -245c-145 0 -243 111 -243 245c0 133 98 246 243 246c93 0 174 -49 215 -128c55 2 88 28 88 127v78zM290 19c122 0 219 90 219 223s-98 223 -219 223
c-133 0 -221 -101 -221 -223s88 -223 221 -223z" />
    <glyph glyph-name="uni1EDB" unicode="&#x1edb;" horiz-adv-x="646" 
d="M432 696l-124 -135h-30l123 135h31zM593 565h22v-77c0 -107 -37 -144 -100 -149v-1c11 -29 17 -61 17 -96c0 -146 -109 -245 -242 -245c-145 0 -243 111 -243 245c0 133 98 246 243 246c93 0 174 -49 215 -128c55 2 88 28 88 127v78zM290 19c122 0 219 90 219 223
s-98 223 -219 223c-133 0 -221 -101 -221 -223s88 -223 221 -223z" />
    <glyph glyph-name="uni1EE3" unicode="&#x1ee3;" horiz-adv-x="646" 
d="M593 565h22v-77c0 -107 -37 -144 -100 -149v-1c11 -29 17 -61 17 -96c0 -146 -109 -245 -242 -245c-145 0 -243 111 -243 245c0 133 98 246 243 246c93 0 174 -49 215 -128c55 2 88 28 88 127v78zM290 19c122 0 219 90 219 223s-98 223 -219 223
c-133 0 -221 -101 -221 -223s88 -223 221 -223zM290 -134c16 0 28 -12 28 -27c0 -17 -12 -27 -28 -27s-27 10 -27 27c0 15 11 27 27 27z" />
    <glyph glyph-name="uni1EDD" unicode="&#x1edd;" horiz-adv-x="646" 
d="M305 561h-29l-124 135h30zM593 565h22v-77c0 -107 -37 -144 -100 -149v-1c11 -29 17 -61 17 -96c0 -146 -109 -245 -242 -245c-145 0 -243 111 -243 245c0 133 98 246 243 246c93 0 174 -49 215 -128c55 2 88 28 88 127v78zM290 19c122 0 219 90 219 223
s-98 223 -219 223c-133 0 -221 -101 -221 -223s88 -223 221 -223z" />
    <glyph glyph-name="uni1EDF" unicode="&#x1edf;" horiz-adv-x="646" 
d="M294 687c-27 0 -54 -14 -67 -32l-16 13c20 22 46 41 87 41c46 0 75 -29 75 -67s-41 -61 -79 -80l-2 -29h-16c-5 9 -6 12 -6 22c0 32 81 43 81 86c0 34 -32 46 -57 46zM593 565h22v-77c0 -107 -37 -144 -100 -149v-1c11 -29 17 -61 17 -96c0 -146 -109 -245 -242 -245
c-145 0 -243 111 -243 245c0 133 98 246 243 246c93 0 174 -49 215 -128c55 2 88 28 88 127v78zM290 19c122 0 219 90 219 223s-98 223 -219 223c-133 0 -221 -101 -221 -223s88 -223 221 -223z" />
    <glyph glyph-name="uni1EE1" unicode="&#x1ee1;" horiz-adv-x="646" 
d="M218 650c-28 0 -50 -22 -64 -61l-21 6c17 50 43 77 84 77c30 0 54 -15 77 -31c24 -16 48 -38 74 -38c24 0 48 19 60 62l21 -7c-16 -54 -49 -77 -80 -77c-32 0 -61 23 -88 42c-21 15 -42 27 -63 27zM593 565h22v-77c0 -107 -37 -144 -100 -149v-1c11 -29 17 -61 17 -96
c0 -146 -109 -245 -242 -245c-145 0 -243 111 -243 245c0 133 98 246 243 246c93 0 174 -49 215 -128c55 2 88 28 88 127v78zM290 19c122 0 219 90 219 223s-98 223 -219 223c-133 0 -221 -101 -221 -223s88 -223 221 -223z" />
    <glyph glyph-name="ohungarumlaut" unicode="&#x151;" horiz-adv-x="579" 
d="M209 561l122 135h31l-124 -135h-29zM333 561l122 135h31l-125 -135h-28zM290 -3c-145 0 -243 111 -243 245c0 133 98 246 243 246c133 0 242 -100 242 -246s-109 -245 -242 -245zM290 19c122 0 219 90 219 223s-98 223 -219 223c-133 0 -221 -101 -221 -223
s88 -223 221 -223z" />
    <glyph glyph-name="omacron" unicode="&#x14d;" horiz-adv-x="579" 
d="M158 619v23h267v-23h-267zM290 -3c-145 0 -243 111 -243 245c0 133 98 246 243 246c133 0 242 -100 242 -246s-109 -245 -242 -245zM290 19c122 0 219 90 219 223s-98 223 -219 223c-133 0 -221 -101 -221 -223s88 -223 221 -223z" />
    <glyph glyph-name="uni01EB" unicode="&#x1eb;" horiz-adv-x="579" 
d="M315 -2c-46 -25 -76 -65 -76 -102c0 -31 18 -54 61 -54c29 0 41 4 59 13l4 -23c-16 -8 -33 -13 -63 -13c-51 0 -84 26 -84 76c0 32 20 70 60 101v1c-137 7 -229 115 -229 245c0 133 98 246 243 246c133 0 242 -100 242 -246c0 -137 -96 -233 -217 -244zM69 242
c0 -122 88 -223 221 -223c122 0 219 90 219 223s-98 223 -219 223c-133 0 -221 -101 -221 -223z" />
    <glyph glyph-name="oslash" unicode="&#xf8;" horiz-adv-x="579" 
d="M532 477l-63 -66c39 -43 63 -101 63 -169c0 -146 -109 -245 -242 -245c-64 0 -119 22 -160 57l-61 -64l-19 16l62 65c-41 45 -65 105 -65 171c0 133 98 246 243 246c62 0 119 -22 163 -60l61 64zM69 242c0 -60 21 -115 58 -155l310 324c-39 34 -91 54 -147 54
c-133 0 -221 -101 -221 -223zM509 242c0 62 -21 114 -56 152l-308 -324c37 -32 87 -51 145 -51c122 0 219 90 219 223z" />
    <glyph glyph-name="oslashacute" unicode="&#x1ff;" horiz-adv-x="579" 
d="M428 696l-124 -135h-30l123 135h31zM532 477l-63 -66c39 -43 63 -101 63 -169c0 -146 -109 -245 -242 -245c-64 0 -119 22 -160 57l-61 -64l-19 16l62 65c-41 45 -65 105 -65 171c0 133 98 246 243 246c62 0 119 -22 163 -60l61 64zM69 242c0 -60 21 -115 58 -155
l310 324c-39 34 -91 54 -147 54c-133 0 -221 -101 -221 -223zM509 242c0 62 -21 114 -56 152l-308 -324c37 -32 87 -51 145 -51c122 0 219 90 219 223z" />
    <glyph glyph-name="otilde" unicode="&#xf5;" horiz-adv-x="579" 
d="M368 581c-32 0 -61 23 -88 42c-21 15 -42 27 -63 27c-28 0 -50 -22 -64 -61l-21 6c17 50 43 77 84 77c30 0 54 -15 77 -31c24 -16 48 -38 74 -38c24 0 48 19 60 62l21 -7c-16 -54 -49 -77 -80 -77zM290 -3c-145 0 -243 111 -243 245c0 133 98 246 243 246
c133 0 242 -100 242 -246s-109 -245 -242 -245zM290 19c122 0 219 90 219 223s-98 223 -219 223c-133 0 -221 -101 -221 -223s88 -223 221 -223z" />
    <glyph glyph-name="oe" unicode="&#x153;" horiz-adv-x="824" 
d="M790 243h-361v-1c0 -129 59 -223 169 -223c64 0 119 31 154 81l17 -13c-38 -56 -103 -90 -169 -90c-111 0 -161 74 -180 152h-4c-27 -93 -97 -152 -180 -152c-121 0 -199 107 -199 245s83 246 199 246c80 0 153 -61 181 -157h2c23 94 84 157 179 157
c109 0 193 -99 193 -234c0 -8 -1 -11 -1 -11zM236 19c95 0 171 90 171 223s-80 223 -171 223c-103 0 -176 -96 -176 -223s72 -223 176 -223zM598 465c-103 0 -162 -84 -168 -200h338c-8 120 -73 200 -170 200z" />
    <glyph glyph-name="p" unicode="p" horiz-adv-x="600" 
d="M312 488c144 0 240 -113 240 -251c0 -144 -107 -240 -239 -240c-99 0 -174 55 -209 135h-1v-330h-22v682h22v-136h1c37 87 116 140 208 140zM313 19c130 0 217 98 217 218c0 137 -98 228 -218 228c-126 0 -209 -102 -209 -228c0 -131 94 -218 210 -218z" />
    <glyph glyph-name="thorn" unicode="&#xfe;" horiz-adv-x="600" 
d="M312 488c144 0 240 -113 240 -251c0 -144 -107 -240 -239 -240c-99 0 -174 55 -209 135h-1v-330h-22v934h22v-387h2c36 86 115 139 207 139zM313 19c130 0 217 98 217 218c0 137 -98 228 -218 228c-126 0 -209 -102 -209 -228c0 -131 94 -218 210 -218z" />
    <glyph glyph-name="q" unicode="q" horiz-adv-x="601" 
d="M499 484h22v-682h-22v330h-1c-36 -80 -111 -135 -209 -135c-132 0 -240 96 -240 240c0 138 96 251 241 251c91 0 170 -53 207 -139h2v135zM289 19c115 0 210 87 210 218c0 126 -84 228 -209 228c-121 0 -219 -91 -219 -228c0 -120 87 -218 218 -218z" />
    <glyph glyph-name="r" unicode="r" horiz-adv-x="317" 
d="M277 488c11 0 22 0 32 -1v-24c-10 1 -20 2 -29 2c-107 0 -177 -90 -177 -223v-242h-22v484h22v-119h1c29 75 89 123 173 123z" />
    <glyph glyph-name="racute" unicode="&#x155;" horiz-adv-x="317" 
d="M261 696l-124 -135h-30l123 135h31zM277 488c11 0 22 0 32 -1v-24c-10 1 -20 2 -29 2c-107 0 -177 -90 -177 -223v-242h-22v484h22v-119h1c29 75 89 123 173 123z" />
    <glyph glyph-name="rcaron" unicode="&#x159;" horiz-adv-x="317" 
d="M205 560h-25l-122 136h29l105 -118h4l105 118h29zM104 365c29 75 89 123 173 123c11 0 22 0 32 -1v-24c-10 1 -20 2 -29 2c-107 0 -177 -90 -177 -223v-242h-22v484h22v-119h1z" />
    <glyph glyph-name="rcommaaccent" unicode="&#x157;" horiz-adv-x="317" 
d="M277 488c11 0 22 0 32 -1v-24c-10 1 -20 2 -29 2c-107 0 -177 -90 -177 -223v-242h-22v484h22v-119h1c29 75 89 123 173 123zM84 -55h22c3 -17 5 -37 5 -55c0 -45 -18 -85 -82 -89l-8 18c59 3 68 35 68 70c0 18 -2 38 -5 56z" />
    <glyph glyph-name="s" unicode="s" horiz-adv-x="415" 
d="M211 -3c-83 0 -138 32 -177 67l13 18c37 -33 82 -63 164 -63c89 0 140 49 140 103c0 75 -68 89 -153 120c-78 28 -141 54 -141 130c0 66 61 116 139 116c53 0 106 -13 158 -58l-15 -16c-48 41 -93 51 -142 51c-67 0 -117 -42 -117 -91c0 -65 58 -87 121 -110
c101 -36 174 -53 173 -144c-1 -65 -58 -123 -163 -123z" />
    <glyph glyph-name="sacute" unicode="&#x15b;" horiz-adv-x="415" 
d="M197 561l123 135h31l-124 -135h-30zM211 -3c-83 0 -138 32 -177 67l13 18c37 -33 82 -63 164 -63c89 0 140 49 140 103c0 75 -68 89 -153 120c-78 28 -141 54 -141 130c0 66 61 116 139 116c53 0 106 -13 158 -58l-15 -16c-48 41 -93 51 -142 51c-67 0 -117 -42 -117 -91
c0 -65 58 -87 121 -110c101 -36 174 -53 173 -144c-1 -65 -58 -123 -163 -123z" />
    <glyph glyph-name="scaron" unicode="&#x161;" horiz-adv-x="415" 
d="M222 560h-25l-122 136h29l105 -118h4l105 118h29zM201 264c101 -36 174 -53 173 -144c-1 -65 -58 -123 -163 -123c-83 0 -138 32 -177 67l13 18c37 -33 82 -63 164 -63c89 0 140 49 140 103c0 75 -68 89 -153 120c-78 28 -141 54 -141 130c0 66 61 116 139 116
c53 0 106 -13 158 -58l-15 -16c-48 41 -93 51 -142 51c-67 0 -117 -42 -117 -91c0 -65 58 -87 121 -110z" />
    <glyph glyph-name="scedilla" unicode="&#x15f;" horiz-adv-x="415" 
d="M201 264c101 -36 174 -53 173 -144c-1 -65 -58 -123 -163 -123h-10l-13 -31l1 -1c38 -3 79 -30 79 -77c0 -38 -30 -72 -85 -72c-16 0 -34 2 -49 6v23c13 -4 27 -7 45 -7c35 0 66 16 66 51c0 28 -26 57 -82 57l1 19l16 34c-66 6 -112 35 -146 65l13 18
c37 -33 82 -63 164 -63c89 0 140 49 140 103c0 75 -68 89 -153 120c-78 28 -141 54 -141 130c0 66 61 116 139 116c53 0 106 -13 158 -58l-15 -16c-48 41 -93 51 -142 51c-67 0 -117 -42 -117 -91c0 -65 58 -87 121 -110z" />
    <glyph glyph-name="scircumflex" unicode="&#x15d;" horiz-adv-x="415" 
d="M210 679l-106 -119h-29l122 136h25l125 -136h-29l-106 119h-2zM201 264c101 -36 174 -53 173 -144c-1 -65 -58 -123 -163 -123c-83 0 -138 32 -177 67l13 18c37 -33 82 -63 164 -63c89 0 140 49 140 103c0 75 -68 89 -153 120c-78 28 -141 54 -141 130
c0 66 61 116 139 116c53 0 106 -13 158 -58l-15 -16c-48 41 -93 51 -142 51c-67 0 -117 -42 -117 -91c0 -65 58 -87 121 -110z" />
    <glyph glyph-name="scommaaccent" unicode="&#x219;" horiz-adv-x="415" 
d="M211 -3c-83 0 -138 32 -177 67l13 18c37 -33 82 -63 164 -63c89 0 140 49 140 103c0 75 -68 89 -153 120c-78 28 -141 54 -141 130c0 66 61 116 139 116c53 0 106 -13 158 -58l-15 -16c-48 41 -93 51 -142 51c-67 0 -117 -42 -117 -91c0 -65 58 -87 121 -110
c101 -36 174 -53 173 -144c-1 -65 -58 -123 -163 -123zM129 -199l-8 18c59 3 68 35 68 70c0 18 -2 38 -5 56h22c3 -17 5 -37 5 -55c0 -45 -18 -85 -82 -89z" />
    <glyph glyph-name="germandbls" unicode="&#xdf;" horiz-adv-x="586" 
d="M389 434c99 -31 158 -121 158 -215c0 -136 -99 -222 -226 -222h-116v22h116c116 0 204 76 204 200c0 104 -79 204 -214 204h-68v23h66c144 2 167 84 167 131c0 90 -65 141 -180 141c-116 0 -193 -66 -193 -215v-503h-22v503c0 163 87 237 215 237c125 0 203 -59 203 -163
c0 -41 -18 -116 -110 -142v-1z" />
    <glyph glyph-name="longs" unicode="&#x17f;" horiz-adv-x="285" 
d="M105 0v462h-68v22h68v118c0 96 48 138 117 138c38 0 66 -10 95 -26l-4 -22c-28 16 -55 25 -92 25c-52 0 -94 -30 -94 -115v-602h-22z" />
    <glyph glyph-name="uni0259" unicode="&#x259;" horiz-adv-x="537" 
d="M255 488c138 0 235 -104 235 -245c0 -142 -101 -246 -233 -246c-127 0 -213 98 -213 229c0 6 0 12 1 16h422v1c0 128 -87 222 -210 222c-65 0 -112 -22 -152 -42l-11 19c43 23 95 46 161 46zM257 19c112 0 199 85 209 201h-400c7 -121 82 -201 191 -201z" />
    <glyph glyph-name="t" unicode="t" horiz-adv-x="354" 
d="M204 -3c-91 0 -108 53 -108 131v334h-67v22h67v175l22 3v-178h195v-22h-195v-319c0 -76 10 -124 83 -124c48 0 84 20 102 32l6 -22c-21 -14 -60 -32 -105 -32z" />
    <glyph glyph-name="tbar" unicode="&#x167;" horiz-adv-x="354" 
d="M313 462h-195v-164h175v-22h-175v-133c0 -76 10 -124 83 -124c48 0 84 20 102 32l6 -22c-21 -14 -60 -32 -105 -32c-91 0 -108 53 -108 131v148h-51v22h51v164h-67v22h67v175l22 3v-178h195v-22z" />
    <glyph glyph-name="tcaron" unicode="&#x165;" horiz-adv-x="354" 
d="M209 597l25 158h27l-32 -158h-20zM204 -3c-91 0 -108 53 -108 131v334h-67v22h67v175l22 3v-178h195v-22h-195v-319c0 -76 10 -124 83 -124c48 0 84 20 102 32l6 -22c-21 -14 -60 -32 -105 -32z" />
    <glyph glyph-name="uni0163" unicode="&#x163;" horiz-adv-x="354" 
d="M313 462h-195v-319c0 -76 10 -124 83 -124c48 0 84 20 102 32l6 -22c-21 -14 -60 -32 -105 -32h-9l-13 -31l1 -1c38 -3 79 -30 79 -77c0 -38 -30 -72 -85 -72c-16 0 -34 2 -49 6v23c13 -4 27 -7 45 -7c35 0 66 16 66 51c0 28 -26 57 -82 57l1 19l16 34
c-65 11 -78 61 -78 129v334h-67v22h67v175l22 3v-178h195v-22z" />
    <glyph glyph-name="uni021B" unicode="&#x21b;" horiz-adv-x="354" 
d="M204 -3c-91 0 -108 53 -108 131v334h-67v22h67v175l22 3v-178h195v-22h-195v-319c0 -76 10 -124 83 -124c48 0 84 20 102 32l6 -22c-21 -14 -60 -32 -105 -32zM123 -199l-8 18c59 3 68 35 68 70c0 18 -2 38 -5 56h22c3 -17 5 -37 5 -55c0 -45 -18 -85 -82 -89z" />
    <glyph glyph-name="u" unicode="u" 
d="M436 484h22v-484h-22v128h-1c-33 -82 -102 -131 -183 -131c-120 0 -183 85 -183 211v276h22v-265c0 -136 64 -200 161 -200c103 0 184 90 184 226v239z" />
    <glyph glyph-name="uacute" unicode="&#xfa;" 
d="M395 696l-124 -135h-30l123 135h31zM436 484h22v-484h-22v128h-1c-33 -82 -102 -131 -183 -131c-120 0 -183 85 -183 211v276h22v-265c0 -136 64 -200 161 -200c103 0 184 90 184 226v239z" />
    <glyph glyph-name="ubreve" unicode="&#x16d;" 
d="M263 561c-62 0 -117 44 -122 127h21c4 -60 40 -105 101 -105s97 45 100 105h22c-6 -83 -60 -127 -122 -127zM436 484h22v-484h-22v128h-1c-33 -82 -102 -131 -183 -131c-120 0 -183 85 -183 211v276h22v-265c0 -136 64 -200 161 -200c103 0 184 90 184 226v239z" />
    <glyph glyph-name="ucircumflex" unicode="&#xfb;" 
d="M262 679l-106 -119h-29l122 136h25l125 -136h-29l-106 119h-2zM436 484h22v-484h-22v128h-1c-33 -82 -102 -131 -183 -131c-120 0 -183 85 -183 211v276h22v-265c0 -136 64 -200 161 -200c103 0 184 90 184 226v239z" />
    <glyph glyph-name="udieresis" unicode="&#xfc;" 
d="M189 606c-16 0 -28 12 -28 27c0 17 12 27 28 27s27 -10 27 -27c0 -15 -11 -27 -27 -27zM336 606c-16 0 -28 12 -28 27c0 17 12 27 28 27s27 -10 27 -27c0 -15 -11 -27 -27 -27zM436 484h22v-484h-22v128h-1c-33 -82 -102 -131 -183 -131c-120 0 -183 85 -183 211v276h22
v-265c0 -136 64 -200 161 -200c103 0 184 90 184 226v239z" />
    <glyph glyph-name="uni1EE5" unicode="&#x1ee5;" 
d="M436 484h22v-484h-22v128h-1c-33 -82 -102 -131 -183 -131c-120 0 -183 85 -183 211v276h22v-265c0 -136 64 -200 161 -200c103 0 184 90 184 226v239zM265 -134c16 0 28 -12 28 -27c0 -17 -12 -27 -28 -27s-27 10 -27 27c0 15 11 27 27 27z" />
    <glyph glyph-name="ugrave" unicode="&#xf9;" 
d="M313 561h-29l-124 135h30zM436 484h22v-484h-22v128h-1c-33 -82 -102 -131 -183 -131c-120 0 -183 85 -183 211v276h22v-265c0 -136 64 -200 161 -200c103 0 184 90 184 226v239z" />
    <glyph glyph-name="uni1EE7" unicode="&#x1ee7;" 
d="M266 687c-27 0 -54 -14 -67 -32l-16 13c20 22 46 41 87 41c46 0 75 -29 75 -67s-41 -61 -79 -80l-2 -29h-16c-5 9 -6 12 -6 22c0 32 81 43 81 86c0 34 -32 46 -57 46zM436 484h22v-484h-22v128h-1c-33 -82 -102 -131 -183 -131c-120 0 -183 85 -183 211v276h22v-265
c0 -136 64 -200 161 -200c103 0 184 90 184 226v239z" />
    <glyph glyph-name="uhorn" unicode="&#x1b0;" horiz-adv-x="599" 
d="M546 565h22v-77c0 -113 -40 -147 -110 -150v-338h-22v128h-1c-33 -82 -102 -131 -183 -131c-120 0 -183 85 -183 211v276h22v-265c0 -136 64 -200 161 -200c103 0 184 90 184 226v239h22v-124c56 3 88 28 88 127v78z" />
    <glyph glyph-name="uni1EE9" unicode="&#x1ee9;" horiz-adv-x="599" 
d="M392 696l-124 -135h-30l123 135h31zM546 565h22v-77c0 -113 -40 -147 -110 -150v-338h-22v128h-1c-33 -82 -102 -131 -183 -131c-120 0 -183 85 -183 211v276h22v-265c0 -136 64 -200 161 -200c103 0 184 90 184 226v239h22v-124c56 3 88 28 88 127v78z" />
    <glyph glyph-name="uni1EF1" unicode="&#x1ef1;" horiz-adv-x="599" 
d="M546 565h22v-77c0 -113 -40 -147 -110 -150v-338h-22v128h-1c-33 -82 -102 -131 -183 -131c-120 0 -183 85 -183 211v276h22v-265c0 -136 64 -200 161 -200c103 0 184 90 184 226v239h22v-124c56 3 88 28 88 127v78zM265 -134c16 0 28 -12 28 -27c0 -17 -12 -27 -28 -27
s-27 10 -27 27c0 15 11 27 27 27z" />
    <glyph glyph-name="uni1EEB" unicode="&#x1eeb;" horiz-adv-x="599" 
d="M294 561h-29l-124 135h30zM546 565h22v-77c0 -113 -40 -147 -110 -150v-338h-22v128h-1c-33 -82 -102 -131 -183 -131c-120 0 -183 85 -183 211v276h22v-265c0 -136 64 -200 161 -200c103 0 184 90 184 226v239h22v-124c56 3 88 28 88 127v78z" />
    <glyph glyph-name="uni1EED" unicode="&#x1eed;" horiz-adv-x="599" 
d="M266 687c-27 0 -54 -14 -67 -32l-16 13c20 22 46 41 87 41c46 0 75 -29 75 -67s-41 -61 -79 -80l-2 -29h-16c-5 9 -6 12 -6 22c0 32 81 43 81 86c0 34 -32 46 -57 46zM546 565h22v-77c0 -113 -40 -147 -110 -150v-338h-22v128h-1c-33 -82 -102 -131 -183 -131
c-120 0 -183 85 -183 211v276h22v-265c0 -136 64 -200 161 -200c103 0 184 90 184 226v239h22v-124c56 3 88 28 88 127v78z" />
    <glyph glyph-name="uni1EEF" unicode="&#x1eef;" horiz-adv-x="599" 
d="M190 650c-28 0 -50 -22 -64 -61l-21 6c17 50 43 77 84 77c30 0 54 -15 77 -31c24 -16 48 -38 74 -38c24 0 48 19 60 62l21 -7c-16 -54 -49 -77 -80 -77c-32 0 -61 23 -88 42c-21 15 -42 27 -63 27zM546 565h22v-77c0 -113 -40 -147 -110 -150v-338h-22v128h-1
c-33 -82 -102 -131 -183 -131c-120 0 -183 85 -183 211v276h22v-265c0 -136 64 -200 161 -200c103 0 184 90 184 226v239h22v-124c56 3 88 28 88 127v78z" />
    <glyph glyph-name="uhungarumlaut" unicode="&#x171;" 
d="M330 696l-124 -135h-29l122 135h31zM329 561h-28l122 135h31zM436 484h22v-484h-22v128h-1c-33 -82 -102 -131 -183 -131c-120 0 -183 85 -183 211v276h22v-265c0 -136 64 -200 161 -200c103 0 184 90 184 226v239z" />
    <glyph glyph-name="umacron" unicode="&#x16b;" 
d="M397 642v-23h-267v23h267zM436 484h22v-484h-22v128h-1c-33 -82 -102 -131 -183 -131c-120 0 -183 85 -183 211v276h22v-265c0 -136 64 -200 161 -200c103 0 184 90 184 226v239z" />
    <glyph glyph-name="uogonek" unicode="&#x173;" 
d="M499 -145l4 -23c-16 -8 -33 -13 -63 -13c-51 0 -84 26 -84 76c0 37 27 82 80 115v118h-1c-33 -82 -102 -131 -183 -131c-120 0 -183 85 -183 211v276h22v-265c0 -136 64 -200 161 -200c103 0 184 90 184 226v239h22v-484c-48 -25 -79 -66 -79 -104c0 -31 18 -54 61 -54
c29 0 41 4 59 13z" />
    <glyph glyph-name="uring" unicode="&#x16f;" 
d="M263 555c-39 0 -73 34 -73 73c0 40 34 73 73 73c40 0 74 -33 74 -73c0 -39 -34 -73 -74 -73zM263 679c-28 0 -51 -23 -51 -51c0 -27 23 -50 51 -50s52 23 52 50c0 28 -24 51 -52 51zM436 484h22v-484h-22v128h-1c-33 -82 -102 -131 -183 -131c-120 0 -183 85 -183 211
v276h22v-265c0 -136 64 -200 161 -200c103 0 184 90 184 226v239z" />
    <glyph glyph-name="utilde" unicode="&#x169;" 
d="M189 650c-28 0 -50 -22 -64 -61l-21 6c17 50 43 77 84 77c30 0 54 -15 77 -31c24 -16 48 -38 74 -38c24 0 48 19 60 62l21 -7c-16 -54 -49 -77 -80 -77c-32 0 -61 23 -88 42c-21 15 -42 27 -63 27zM436 484h22v-484h-22v128h-1c-33 -82 -102 -131 -183 -131
c-120 0 -183 85 -183 211v276h22v-265c0 -136 64 -200 161 -200c103 0 184 90 184 226v239z" />
    <glyph glyph-name="v" unicode="v" horiz-adv-x="494" 
d="M439 484h25l-205 -484h-22l-208 484h26l192 -449h2z" />
    <glyph glyph-name="w" unicode="w" horiz-adv-x="752" 
d="M694 484h24l-172 -484h-24l-145 451h-1l-147 -451h-23l-172 484h24l159 -445h2l143 445h26l145 -445h2z" />
    <glyph glyph-name="wacute" unicode="&#x1e83;" horiz-adv-x="752" 
d="M514 696l-124 -135h-30l123 135h31zM694 484h24l-172 -484h-24l-145 451h-1l-147 -451h-23l-172 484h24l159 -445h2l143 445h26l145 -445h2z" />
    <glyph glyph-name="wcircumflex" unicode="&#x175;" horiz-adv-x="752" 
d="M375 679l-106 -119h-29l122 136h25l125 -136h-29l-106 119h-2zM694 484h24l-172 -484h-24l-145 451h-1l-147 -451h-23l-172 484h24l159 -445h2l143 445h26l145 -445h2z" />
    <glyph glyph-name="wdieresis" unicode="&#x1e85;" horiz-adv-x="752" 
d="M302 606c-16 0 -28 12 -28 27c0 17 12 27 28 27s27 -10 27 -27c0 -15 -11 -27 -27 -27zM449 606c-16 0 -28 12 -28 27c0 17 12 27 28 27s27 -10 27 -27c0 -15 -11 -27 -27 -27zM694 484h24l-172 -484h-24l-145 451h-1l-147 -451h-23l-172 484h24l159 -445h2l143 445h26
l145 -445h2z" />
    <glyph glyph-name="wgrave" unicode="&#x1e81;" horiz-adv-x="752" 
d="M388 561h-29l-124 135h30zM694 484h24l-172 -484h-24l-145 451h-1l-147 -451h-23l-172 484h24l159 -445h2l143 445h26l145 -445h2z" />
    <glyph glyph-name="x" unicode="x" horiz-adv-x="466" 
d="M436 484l-187 -241l187 -243h-30l-172 223l-172 -223h-29l186 242l-188 242h30l172 -224l173 224h30z" />
    <glyph glyph-name="y" unicode="y" horiz-adv-x="506" 
d="M450 484h27l-290 -682h-25l86 203l-221 479h27l204 -449h2z" />
    <glyph glyph-name="yacute" unicode="&#xfd;" horiz-adv-x="506" 
d="M383 696l-124 -135h-30l123 135h31zM450 484h27l-290 -682h-25l86 203l-221 479h27l204 -449h2z" />
    <glyph glyph-name="ycircumflex" unicode="&#x177;" horiz-adv-x="506" 
d="M254 679l-106 -119h-29l122 136h25l125 -136h-29l-106 119h-2zM450 484h27l-290 -682h-25l86 203l-221 479h27l204 -449h2z" />
    <glyph glyph-name="ydieresis" unicode="&#xff;" horiz-adv-x="506" 
d="M181 606c-16 0 -28 12 -28 27c0 17 12 27 28 27s27 -10 27 -27c0 -15 -11 -27 -27 -27zM328 606c-16 0 -28 12 -28 27c0 17 12 27 28 27s27 -10 27 -27c0 -15 -11 -27 -27 -27zM450 484h27l-290 -682h-25l86 203l-221 479h27l204 -449h2z" />
    <glyph glyph-name="uni1EF5" unicode="&#x1ef5;" horiz-adv-x="506" 
d="M450 484h27l-290 -682h-25l86 203l-221 479h27l204 -449h2zM369 -134c16 0 28 -12 28 -27c0 -17 -12 -27 -28 -27s-27 10 -27 27c0 15 11 27 27 27z" />
    <glyph glyph-name="ygrave" unicode="&#x1ef3;" horiz-adv-x="506" 
d="M297 561h-29l-124 135h30zM450 484h27l-290 -682h-25l86 203l-221 479h27l204 -449h2z" />
    <glyph glyph-name="uni1EF7" unicode="&#x1ef7;" horiz-adv-x="506" 
d="M258 687c-27 0 -54 -14 -67 -32l-16 13c20 22 46 41 87 41c46 0 75 -29 75 -67s-41 -61 -79 -80l-2 -29h-16c-5 9 -6 12 -6 22c0 32 81 43 81 86c0 34 -32 46 -57 46zM450 484h27l-290 -682h-25l86 203l-221 479h27l204 -449h2z" />
    <glyph glyph-name="uni0233" unicode="&#x233;" horiz-adv-x="506" 
d="M389 642v-23h-267v23h267zM450 484h27l-290 -682h-25l86 203l-221 479h27l204 -449h2z" />
    <glyph glyph-name="uni1EF9" unicode="&#x1ef9;" horiz-adv-x="506" 
d="M182 650c-28 0 -50 -22 -64 -61l-21 6c17 50 43 77 84 77c30 0 54 -15 77 -31c24 -16 48 -38 74 -38c24 0 48 19 60 62l21 -7c-16 -54 -49 -77 -80 -77c-32 0 -61 23 -88 42c-21 15 -42 27 -63 27zM450 484h27l-290 -682h-25l86 203l-221 479h27l204 -449h2z" />
    <glyph glyph-name="z" unicode="z" horiz-adv-x="437" 
d="M60 22h348v-22h-379v22l342 439v1h-330v22h361v-20l-342 -440v-2z" />
    <glyph glyph-name="zacute" unicode="&#x17a;" horiz-adv-x="437" 
d="M362 696l-124 -135h-30l123 135h31zM60 22h348v-22h-379v22l342 439v1h-330v22h361v-20l-342 -440v-2z" />
    <glyph glyph-name="zcaron" unicode="&#x17e;" horiz-adv-x="437" 
d="M226 560h-25l-122 136h29l105 -118h4l105 118h29zM60 22h348v-22h-379v22l342 439v1h-330v22h361v-20l-342 -440v-2z" />
    <glyph glyph-name="zdotaccent" unicode="&#x17c;" horiz-adv-x="437" 
d="M215 606c-16 0 -28 12 -28 27c0 17 12 27 28 27s27 -10 27 -27c0 -15 -11 -27 -27 -27zM60 22h348v-22h-379v22l342 439v1h-330v22h361v-20l-342 -440v-2z" />
    <glyph glyph-name="a.alt" horiz-adv-x="481" 
d="M245 488c116 0 164 -84 164 -214v-274h-22v91h-3c-33 -53 -101 -94 -182 -94c-113 0 -162 65 -162 138c0 75 52 135 177 135h170v4c0 129 -49 191 -142 191c-66 0 -115 -20 -153 -43l-10 20c41 25 95 46 163 46zM202 19c103 0 185 74 185 146v83h-170
c-87 0 -155 -36 -155 -113c0 -60 40 -116 140 -116z" />
    <glyph glyph-name="aacute.alt" horiz-adv-x="481" 
d="M369 696l-124 -135h-30l123 135h31zM245 488c116 0 164 -84 164 -214v-274h-22v91h-3c-33 -53 -101 -94 -182 -94c-113 0 -162 65 -162 138c0 75 52 135 177 135h170v4c0 129 -49 191 -142 191c-66 0 -115 -20 -153 -43l-10 20c41 25 95 46 163 46zM202 19
c103 0 185 74 185 146v83h-170c-87 0 -155 -36 -155 -113c0 -60 40 -116 140 -116z" />
    <glyph glyph-name="abreve.alt" horiz-adv-x="481" 
d="M258 561c-62 0 -117 44 -122 127h21c4 -60 40 -105 101 -105s97 45 100 105h22c-6 -83 -60 -127 -122 -127zM245 488c116 0 164 -84 164 -214v-274h-22v91h-3c-33 -53 -101 -94 -182 -94c-113 0 -162 65 -162 138c0 75 52 135 177 135h170v4c0 129 -49 191 -142 191
c-66 0 -115 -20 -153 -43l-10 20c41 25 95 46 163 46zM202 19c103 0 185 74 185 146v83h-170c-87 0 -155 -36 -155 -113c0 -60 40 -116 140 -116z" />
    <glyph glyph-name="uni1EAF.alt" horiz-adv-x="481" 
d="M368 832l-124 -135h-30l123 135h31zM258 561c-62 0 -117 44 -122 127h21c4 -60 40 -105 101 -105s97 45 100 105h22c-6 -83 -60 -127 -122 -127zM245 488c116 0 164 -84 164 -214v-274h-22v91h-3c-33 -53 -101 -94 -182 -94c-113 0 -162 65 -162 138c0 75 52 135 177 135
h170v4c0 129 -49 191 -142 191c-66 0 -115 -20 -153 -43l-10 20c41 25 95 46 163 46zM202 19c103 0 185 74 185 146v83h-170c-87 0 -155 -36 -155 -113c0 -60 40 -116 140 -116z" />
    <glyph glyph-name="uni1EB7.alt" horiz-adv-x="481" 
d="M258 561c-62 0 -117 44 -122 127h21c4 -60 40 -105 101 -105s97 45 100 105h22c-6 -83 -60 -127 -122 -127zM245 488c116 0 164 -84 164 -214v-274h-22v91h-3c-33 -53 -101 -94 -182 -94c-113 0 -162 65 -162 138c0 75 52 135 177 135h170v4c0 129 -49 191 -142 191
c-66 0 -115 -20 -153 -43l-10 20c41 25 95 46 163 46zM202 19c103 0 185 74 185 146v83h-170c-87 0 -155 -36 -155 -113c0 -60 40 -116 140 -116zM254 -134c16 0 28 -12 28 -27c0 -17 -12 -27 -28 -27s-27 10 -27 27c0 15 11 27 27 27z" />
    <glyph glyph-name="uni1EB1.alt" horiz-adv-x="481" 
d="M270 697h-29l-124 135h30zM156 688c4 -60 40 -105 101 -105s97 45 100 105h22c-6 -83 -60 -127 -122 -127s-117 44 -122 127h21zM245 488c116 0 164 -84 164 -214v-274h-22v91h-3c-33 -53 -101 -94 -182 -94c-113 0 -162 65 -162 138c0 75 52 135 177 135h170v4
c0 129 -49 191 -142 191c-66 0 -115 -20 -153 -43l-10 20c41 25 95 46 163 46zM202 19c103 0 185 74 185 146v83h-170c-87 0 -155 -36 -155 -113c0 -60 40 -116 140 -116z" />
    <glyph glyph-name="uni1EB3.alt" horiz-adv-x="481" 
d="M260 823c-27 0 -54 -14 -67 -32l-16 13c20 22 46 41 87 41c46 0 75 -29 75 -67s-41 -61 -79 -80l-2 -29h-16c-5 9 -6 12 -6 22c0 32 81 43 81 86c0 34 -32 46 -57 46zM257 561c-62 0 -117 44 -122 127h21c4 -60 40 -105 101 -105s97 45 100 105h22
c-6 -83 -60 -127 -122 -127zM245 488c116 0 164 -84 164 -214v-274h-22v91h-3c-33 -53 -101 -94 -182 -94c-113 0 -162 65 -162 138c0 75 52 135 177 135h170v4c0 129 -49 191 -142 191c-66 0 -115 -20 -153 -43l-10 20c41 25 95 46 163 46zM202 19c103 0 185 74 185 146v83
h-170c-87 0 -155 -36 -155 -113c0 -60 40 -116 140 -116z" />
    <glyph glyph-name="uni1EB5.alt" horiz-adv-x="481" 
d="M184 786c-28 0 -50 -22 -64 -61l-21 6c17 50 43 77 84 77c30 0 54 -15 77 -31c24 -16 48 -38 74 -38c24 0 48 19 60 62l21 -7c-16 -54 -49 -77 -80 -77c-32 0 -61 23 -88 42c-21 15 -42 27 -63 27zM258 583c61 0 97 45 100 105h22c-6 -83 -60 -127 -122 -127
s-117 44 -122 127h21c4 -60 40 -105 101 -105zM245 488c116 0 164 -84 164 -214v-274h-22v91h-3c-33 -53 -101 -94 -182 -94c-113 0 -162 65 -162 138c0 75 52 135 177 135h170v4c0 129 -49 191 -142 191c-66 0 -115 -20 -153 -43l-10 20c41 25 95 46 163 46zM202 19
c103 0 185 74 185 146v83h-170c-87 0 -155 -36 -155 -113c0 -60 40 -116 140 -116z" />
    <glyph glyph-name="acircumflex.alt" horiz-adv-x="481" 
d="M257 679l-106 -119h-29l122 136h25l125 -136h-29l-106 119h-2zM245 488c116 0 164 -84 164 -214v-274h-22v91h-3c-33 -53 -101 -94 -182 -94c-113 0 -162 65 -162 138c0 75 52 135 177 135h170v4c0 129 -49 191 -142 191c-66 0 -115 -20 -153 -43l-10 20
c41 25 95 46 163 46zM202 19c103 0 185 74 185 146v83h-170c-87 0 -155 -36 -155 -113c0 -60 40 -116 140 -116z" />
    <glyph glyph-name="uni1EA5.alt" horiz-adv-x="481" 
d="M505 775l-124 -135h-30l123 135h31zM259 680l-106 -119h-29l122 136h25l125 -136h-29l-106 119h-2zM245 488c116 0 164 -84 164 -214v-274h-22v91h-3c-33 -53 -101 -94 -182 -94c-113 0 -162 65 -162 138c0 75 52 135 177 135h170v4c0 129 -49 191 -142 191
c-66 0 -115 -20 -153 -43l-10 20c41 25 95 46 163 46zM202 19c103 0 185 74 185 146v83h-170c-87 0 -155 -36 -155 -113c0 -60 40 -116 140 -116z" />
    <glyph glyph-name="uni1EAD.alt" horiz-adv-x="481" 
d="M257 679l-106 -119h-29l122 136h25l125 -136h-29l-106 119h-2zM245 488c116 0 164 -84 164 -214v-274h-22v91h-3c-33 -53 -101 -94 -182 -94c-113 0 -162 65 -162 138c0 75 52 135 177 135h170v4c0 129 -49 191 -142 191c-66 0 -115 -20 -153 -43l-10 20
c41 25 95 46 163 46zM202 19c103 0 185 74 185 146v83h-170c-87 0 -155 -36 -155 -113c0 -60 40 -116 140 -116zM254 -134c16 0 28 -12 28 -27c0 -17 -12 -27 -28 -27s-27 10 -27 27c0 15 11 27 27 27z" />
    <glyph glyph-name="uni1EA7.alt" horiz-adv-x="481" 
d="M431 640h-29l-125 135h31zM255 681l-106 -119h-29l122 136h25l125 -136h-29l-106 119h-2zM245 488c116 0 164 -84 164 -214v-274h-22v91h-3c-33 -53 -101 -94 -182 -94c-113 0 -162 65 -162 138c0 75 52 135 177 135h170v4c0 129 -49 191 -142 191
c-66 0 -115 -20 -153 -43l-10 20c41 25 95 46 163 46zM202 19c103 0 185 74 185 146v83h-170c-87 0 -155 -36 -155 -113c0 -60 40 -116 140 -116z" />
    <glyph glyph-name="uni1EA9.alt" horiz-adv-x="481" 
d="M393 791c46 0 75 -29 75 -67s-41 -61 -79 -80l-2 -28h-16c-5 8 -7 12 -7 21c0 33 82 44 82 86c0 35 -32 46 -57 46c-27 0 -54 -14 -68 -32l-15 13c20 23 46 41 87 41zM256 679l-106 -119h-29l122 136h25l125 -136h-29l-106 119h-2zM245 488c116 0 164 -84 164 -214v-274
h-22v91h-3c-33 -53 -101 -94 -182 -94c-113 0 -162 65 -162 138c0 75 52 135 177 135h170v4c0 129 -49 191 -142 191c-66 0 -115 -20 -153 -43l-10 20c41 25 95 46 163 46zM202 19c103 0 185 74 185 146v83h-170c-87 0 -155 -36 -155 -113c0 -60 40 -116 140 -116z" />
    <glyph glyph-name="uni1EAB.alt" horiz-adv-x="481" 
d="M183 791c-28 0 -50 -22 -64 -61l-21 6c17 50 43 77 84 77c30 0 54 -15 77 -31c24 -16 48 -38 74 -38c24 0 48 19 60 62l21 -7c-16 -54 -49 -77 -80 -77c-32 0 -61 23 -88 42c-21 15 -42 27 -63 27zM245 696h25l125 -136h-29l-106 119h-2l-106 -119h-29zM245 488
c116 0 164 -84 164 -214v-274h-22v91h-3c-33 -53 -101 -94 -182 -94c-113 0 -162 65 -162 138c0 75 52 135 177 135h170v4c0 129 -49 191 -142 191c-66 0 -115 -20 -153 -43l-10 20c41 25 95 46 163 46zM202 19c103 0 185 74 185 146v83h-170c-87 0 -155 -36 -155 -113
c0 -60 40 -116 140 -116z" />
    <glyph glyph-name="adieresis.alt" horiz-adv-x="481" 
d="M184 606c-16 0 -28 12 -28 27c0 17 12 27 28 27s27 -10 27 -27c0 -15 -11 -27 -27 -27zM331 606c-16 0 -28 12 -28 27c0 17 12 27 28 27s27 -10 27 -27c0 -15 -11 -27 -27 -27zM245 488c116 0 164 -84 164 -214v-274h-22v91h-3c-33 -53 -101 -94 -182 -94
c-113 0 -162 65 -162 138c0 75 52 135 177 135h170v4c0 129 -49 191 -142 191c-66 0 -115 -20 -153 -43l-10 20c41 25 95 46 163 46zM202 19c103 0 185 74 185 146v83h-170c-87 0 -155 -36 -155 -113c0 -60 40 -116 140 -116z" />
    <glyph glyph-name="uni1EA1.alt" horiz-adv-x="481" 
d="M245 488c116 0 164 -84 164 -214v-274h-22v91h-3c-33 -53 -101 -94 -182 -94c-113 0 -162 65 -162 138c0 75 52 135 177 135h170v4c0 129 -49 191 -142 191c-66 0 -115 -20 -153 -43l-10 20c41 25 95 46 163 46zM202 19c103 0 185 74 185 146v83h-170
c-87 0 -155 -36 -155 -113c0 -60 40 -116 140 -116zM254 -134c16 0 28 -12 28 -27c0 -17 -12 -27 -28 -27s-27 10 -27 27c0 15 11 27 27 27z" />
    <glyph glyph-name="agrave.alt" horiz-adv-x="481" 
d="M287 561h-29l-124 135h30zM245 488c116 0 164 -84 164 -214v-274h-22v91h-3c-33 -53 -101 -94 -182 -94c-113 0 -162 65 -162 138c0 75 52 135 177 135h170v4c0 129 -49 191 -142 191c-66 0 -115 -20 -153 -43l-10 20c41 25 95 46 163 46zM202 19c103 0 185 74 185 146
v83h-170c-87 0 -155 -36 -155 -113c0 -60 40 -116 140 -116z" />
    <glyph glyph-name="uni1EA3.alt" horiz-adv-x="481" 
d="M261 687c-27 0 -54 -14 -67 -32l-16 13c20 22 46 41 87 41c46 0 75 -29 75 -67s-41 -61 -79 -80l-2 -29h-16c-5 9 -6 12 -6 22c0 32 81 43 81 86c0 34 -32 46 -57 46zM245 488c116 0 164 -84 164 -214v-274h-22v91h-3c-33 -53 -101 -94 -182 -94c-113 0 -162 65 -162 138
c0 75 52 135 177 135h170v4c0 129 -49 191 -142 191c-66 0 -115 -20 -153 -43l-10 20c41 25 95 46 163 46zM202 19c103 0 185 74 185 146v83h-170c-87 0 -155 -36 -155 -113c0 -60 40 -116 140 -116z" />
    <glyph glyph-name="amacron.alt" horiz-adv-x="481" 
d="M392 642v-23h-267v23h267zM245 488c116 0 164 -84 164 -214v-274h-22v91h-3c-33 -53 -101 -94 -182 -94c-113 0 -162 65 -162 138c0 75 52 135 177 135h170v4c0 129 -49 191 -142 191c-66 0 -115 -20 -153 -43l-10 20c41 25 95 46 163 46zM202 19c103 0 185 74 185 146
v83h-170c-87 0 -155 -36 -155 -113c0 -60 40 -116 140 -116z" />
    <glyph glyph-name="aogonek.alt" horiz-adv-x="481" 
d="M450 -145l4 -23c-16 -8 -33 -13 -63 -13c-51 0 -84 26 -84 76c0 37 27 82 80 115v81h-3c-33 -53 -101 -94 -182 -94c-113 0 -162 65 -162 138c0 75 52 135 177 135h170v4c0 129 -49 191 -142 191c-66 0 -115 -20 -153 -43l-10 20c41 25 95 46 163 46
c116 0 164 -84 164 -214v-274c-48 -25 -79 -66 -79 -104c0 -31 18 -54 61 -54c29 0 41 4 59 13zM202 19c103 0 185 74 185 146v83h-170c-87 0 -155 -36 -155 -113c0 -60 40 -116 140 -116z" />
    <glyph glyph-name="aring.alt" horiz-adv-x="481" 
d="M258 555c-39 0 -73 34 -73 73c0 40 34 73 73 73c40 0 74 -33 74 -73c0 -39 -34 -73 -74 -73zM258 679c-28 0 -51 -23 -51 -51c0 -27 23 -50 51 -50s52 23 52 50c0 28 -24 51 -52 51zM245 488c116 0 164 -84 164 -214v-274h-22v91h-3c-33 -53 -101 -94 -182 -94
c-113 0 -162 65 -162 138c0 75 52 135 177 135h170v4c0 129 -49 191 -142 191c-66 0 -115 -20 -153 -43l-10 20c41 25 95 46 163 46zM202 19c103 0 185 74 185 146v83h-170c-87 0 -155 -36 -155 -113c0 -60 40 -116 140 -116z" />
    <glyph glyph-name="aringacute.alt" horiz-adv-x="481" 
d="M258 555c-39 0 -73 34 -73 73c0 40 34 73 73 73c25 0 48 -13 61 -33l95 60h39l-124 -79c2 -7 3 -14 3 -21c0 -39 -34 -73 -74 -73zM258 679c-28 0 -51 -23 -51 -51c0 -27 23 -50 51 -50s52 23 52 50c0 28 -24 51 -52 51zM245 488c116 0 164 -84 164 -214v-274h-22v91h-3
c-33 -53 -101 -94 -182 -94c-113 0 -162 65 -162 138c0 75 52 135 177 135h170v4c0 129 -49 191 -142 191c-66 0 -115 -20 -153 -43l-10 20c41 25 95 46 163 46zM202 19c103 0 185 74 185 146v83h-170c-87 0 -155 -36 -155 -113c0 -60 40 -116 140 -116z" />
    <glyph glyph-name="atilde.alt" horiz-adv-x="481" 
d="M184 650c-28 0 -50 -22 -64 -61l-21 6c17 50 43 77 84 77c30 0 54 -15 77 -31c24 -16 48 -38 74 -38c24 0 48 19 60 62l21 -7c-16 -54 -49 -77 -80 -77c-32 0 -61 23 -88 42c-21 15 -42 27 -63 27zM245 488c116 0 164 -84 164 -214v-274h-22v91h-3
c-33 -53 -101 -94 -182 -94c-113 0 -162 65 -162 138c0 75 52 135 177 135h170v4c0 129 -49 191 -142 191c-66 0 -115 -20 -153 -43l-10 20c41 25 95 46 163 46zM202 19c103 0 185 74 185 146v83h-170c-87 0 -155 -36 -155 -113c0 -60 40 -116 140 -116z" />
    <glyph glyph-name="g.alt" horiz-adv-x="550" 
d="M278 49c121 0 225 -18 225 -118c0 -74 -68 -146 -236 -146c-136 0 -223 47 -223 139c0 50 37 92 66 114v2c-25 11 -40 33 -40 59c1 33 22 58 66 99v2c-26 29 -41 68 -41 113c0 96 72 175 179 175c47 0 89 -16 121 -44h2l105 100l17 -17l-107 -98v-3
c25 -29 40 -68 40 -113c0 -93 -72 -173 -178 -173c-46 0 -89 16 -121 43h-1c-38 -34 -59 -53 -59 -82c-1 -31 24 -52 96 -52h89zM274 465c-90 0 -156 -64 -156 -152c0 -86 67 -150 156 -150c87 0 156 64 156 150c0 88 -66 152 -156 152zM268 -193c121 0 212 42 212 124
c0 80 -84 96 -202 96h-89c-27 0 -41 1 -54 4c-25 -16 -69 -57 -69 -107c0 -57 48 -117 202 -117z" />
    <glyph glyph-name="gbreve.alt" horiz-adv-x="550" 
d="M274 561c-62 0 -117 44 -122 127h21c4 -60 40 -105 101 -105s97 45 100 105h22c-6 -83 -60 -127 -122 -127zM278 49c121 0 225 -18 225 -118c0 -74 -68 -146 -236 -146c-136 0 -223 47 -223 139c0 50 37 92 66 114v2c-25 11 -40 33 -40 59c1 33 22 58 66 99v2
c-26 29 -41 68 -41 113c0 96 72 175 179 175c47 0 89 -16 121 -44h2l105 100l17 -17l-107 -98v-3c25 -29 40 -68 40 -113c0 -93 -72 -173 -178 -173c-46 0 -89 16 -121 43h-1c-38 -34 -59 -53 -59 -82c-1 -31 24 -52 96 -52h89zM274 465c-90 0 -156 -64 -156 -152
c0 -86 67 -150 156 -150c87 0 156 64 156 150c0 88 -66 152 -156 152zM268 -193c121 0 212 42 212 124c0 80 -84 96 -202 96h-89c-27 0 -41 1 -54 4c-25 -16 -69 -57 -69 -107c0 -57 48 -117 202 -117z" />
    <glyph glyph-name="gcaron.alt" horiz-adv-x="550" 
d="M285 560h-25l-122 136h29l105 -118h4l105 118h29zM278 49c121 0 225 -18 225 -118c0 -74 -68 -146 -236 -146c-136 0 -223 47 -223 139c0 50 37 92 66 114v2c-25 11 -40 33 -40 59c1 33 22 58 66 99v2c-26 29 -41 68 -41 113c0 96 72 175 179 175c47 0 89 -16 121 -44h2
l105 100l17 -17l-107 -98v-3c25 -29 40 -68 40 -113c0 -93 -72 -173 -178 -173c-46 0 -89 16 -121 43h-1c-38 -34 -59 -53 -59 -82c-1 -31 24 -52 96 -52h89zM274 465c-90 0 -156 -64 -156 -152c0 -86 67 -150 156 -150c87 0 156 64 156 150c0 88 -66 152 -156 152z
M268 -193c121 0 212 42 212 124c0 80 -84 96 -202 96h-89c-27 0 -41 1 -54 4c-25 -16 -69 -57 -69 -107c0 -57 48 -117 202 -117z" />
    <glyph glyph-name="gcircumflex.alt" horiz-adv-x="550" 
d="M273 680l-106 -120h-29l122 136h25l125 -136h-29zM278 49c121 0 225 -18 225 -118c0 -74 -68 -146 -236 -146c-136 0 -223 47 -223 139c0 50 37 92 66 114v2c-25 11 -40 33 -40 59c1 33 22 58 66 99v2c-26 29 -41 68 -41 113c0 96 72 175 179 175c47 0 89 -16 121 -44h2
l105 100l17 -17l-107 -98v-3c25 -29 40 -68 40 -113c0 -93 -72 -173 -178 -173c-46 0 -89 16 -121 43h-1c-38 -34 -59 -53 -59 -82c-1 -31 24 -52 96 -52h89zM274 465c-90 0 -156 -64 -156 -152c0 -86 67 -150 156 -150c87 0 156 64 156 150c0 88 -66 152 -156 152z
M268 -193c121 0 212 42 212 124c0 80 -84 96 -202 96h-89c-27 0 -41 1 -54 4c-25 -16 -69 -57 -69 -107c0 -57 48 -117 202 -117z" />
    <glyph glyph-name="gcommaaccent.alt" horiz-adv-x="550" 
d="M297 552h-22c-3 17 -5 37 -5 55c0 45 18 85 82 89l8 -18c-59 -3 -68 -35 -68 -70c0 -18 2 -38 5 -56zM278 49c121 0 225 -18 225 -118c0 -74 -68 -146 -236 -146c-136 0 -223 47 -223 139c0 50 37 92 66 114v2c-25 11 -40 33 -40 59c1 33 22 58 66 99v2
c-26 29 -41 68 -41 113c0 96 72 175 179 175c47 0 89 -16 121 -44h2l105 100l17 -17l-107 -98v-3c25 -29 40 -68 40 -113c0 -93 -72 -173 -178 -173c-46 0 -89 16 -121 43h-1c-38 -34 -59 -53 -59 -82c-1 -31 24 -52 96 -52h89zM274 465c-90 0 -156 -64 -156 -152
c0 -86 67 -150 156 -150c87 0 156 64 156 150c0 88 -66 152 -156 152zM268 -193c121 0 212 42 212 124c0 80 -84 96 -202 96h-89c-27 0 -41 1 -54 4c-25 -16 -69 -57 -69 -107c0 -57 48 -117 202 -117z" />
    <glyph glyph-name="gdotaccent.alt" horiz-adv-x="550" 
d="M274 606c-16 0 -28 12 -28 27c0 17 12 27 28 27s27 -10 27 -27c0 -15 -11 -27 -27 -27zM278 49c121 0 225 -18 225 -118c0 -74 -68 -146 -236 -146c-136 0 -223 47 -223 139c0 50 37 92 66 114v2c-25 11 -40 33 -40 59c1 33 22 58 66 99v2c-26 29 -41 68 -41 113
c0 96 72 175 179 175c47 0 89 -16 121 -44h2l105 100l17 -17l-107 -98v-3c25 -29 40 -68 40 -113c0 -93 -72 -173 -178 -173c-46 0 -89 16 -121 43h-1c-38 -34 -59 -53 -59 -82c-1 -31 24 -52 96 -52h89zM274 465c-90 0 -156 -64 -156 -152c0 -86 67 -150 156 -150
c87 0 156 64 156 150c0 88 -66 152 -156 152zM268 -193c121 0 212 42 212 124c0 80 -84 96 -202 96h-89c-27 0 -41 1 -54 4c-25 -16 -69 -57 -69 -107c0 -57 48 -117 202 -117z" />
    <glyph glyph-name="f.calt" horiz-adv-x="311" 
d="M105 0v462h-68v22h68v118c0 96 48 138 117 138c25 0 46 -4 65 -11l-5 -22c-18 7 -38 10 -61 10c-52 0 -94 -30 -94 -115v-118h173v-22h-173v-462h-22z" />
    <glyph glyph-name="j.calt" horiz-adv-x="176" 
d="M94 606c-16 0 -28 12 -28 27c0 17 12 27 28 27s27 -10 27 -27c0 -15 -11 -27 -27 -27zM-31 -173c13 -4 31 -6 42 -6c45 0 72 20 72 89v574h22v-574c0 -59 -16 -111 -96 -111c-9 0 -29 1 -43 5z" />
    <glyph glyph-name="uni0237.calt" horiz-adv-x="176" 
d="M-31 -173c13 -4 31 -6 42 -6c45 0 72 20 72 89v574h22v-574c0 -59 -16 -111 -96 -111c-9 0 -29 1 -43 5z" />
    <glyph glyph-name="jcircumflex.calt" horiz-adv-x="176" 
d="M105 696l125 -136h-29l-106 119h-2l-106 -119h-29l122 136h25zM83 -90v574h22v-574c0 -59 -16 -111 -96 -111c-9 0 -29 1 -43 5l3 23c13 -4 31 -6 42 -6c45 0 72 20 72 89z" />
    <glyph glyph-name="germandbls.calt" horiz-adv-x="695" 
d="M435 373c113 -45 219 -75 219 -199c0 -100 -82 -177 -223 -177c-83 0 -170 30 -233 100l13 23c52 -68 137 -100 222 -100c103 0 197 52 197 154c0 109 -97 134 -201 177c-27 11 -59 24 -85 37l154 279c-63 15 -140 23 -214 23c-141 0 -201 -55 -201 -176v-514h-23v517
c0 133 69 197 221 197c75 0 169 -12 251 -32l-9 -17v-2l-2 -1l-144 -264v-1z" />
    <glyph glyph-name="ordfeminine" unicode="&#xaa;" horiz-adv-x="409" 
d="M328 687h23v-291h-23v67h-1c-24 -42 -69 -69 -124 -69c-82 0 -147 58 -147 145c0 83 59 150 147 150c51 0 99 -27 124 -72h1v70zM206 416c68 0 123 49 123 123c0 71 -50 128 -122 128s-128 -51 -128 -128c0 -68 50 -123 127 -123z" />
    <glyph glyph-name="ordmasculine" unicode="&#xba;" horiz-adv-x="411" 
d="M206 393c-90 0 -150 66 -150 148s60 148 150 148c83 0 149 -60 149 -148s-66 -148 -149 -148zM206 416c70 0 127 50 127 125s-57 126 -127 126c-77 0 -127 -57 -127 -126c0 -68 50 -125 127 -125z" />
    <glyph glyph-name="Alpha" unicode="&#x391;" horiz-adv-x="640" 
d="M586 0l-82 211h-368l-82 -211h-25l275 710h29l278 -710h-25zM144 233h351l-175 449h-2z" />
    <glyph glyph-name="Beta" unicode="&#x392;" horiz-adv-x="610" 
d="M389 370c83 -12 163 -68 163 -182c0 -112 -77 -188 -245 -188h-218v710h204c124 0 225 -43 225 -172c0 -76 -43 -143 -129 -166v-2zM112 688v-306h200c83 0 182 36 182 156c0 92 -58 150 -209 150h-173zM304 23c135 0 224 52 224 162c0 111 -78 174 -217 174h-199v-336
h192z" />
    <glyph glyph-name="Gamma" unicode="&#x393;" horiz-adv-x="530" 
d="M89 0v710h422v-22h-399v-688h-23z" />
    <glyph glyph-name="uni0394" unicode="&#x394;" horiz-adv-x="624" 
d="M325 710l270 -689v-21h-17h-543h-6v21l267 689h29zM55 23h514l-257 659h-2z" />
    <glyph glyph-name="Epsilon" unicode="&#x395;" horiz-adv-x="565" 
d="M89 0v710h412v-22h-389v-321h327v-23h-327v-321h410v-23h-433z" />
    <glyph glyph-name="Zeta" unicode="&#x396;" horiz-adv-x="588" 
d="M87 23h438v-23h-469v21l434 664v3h-407v22h437v-23l-433 -662v-2z" />
    <glyph glyph-name="Eta" unicode="&#x397;" horiz-adv-x="692" 
d="M89 0v710h23v-364h468v364h23v-710h-23v323h-468v-323h-23z" />
    <glyph glyph-name="Theta" unicode="&#x398;" horiz-adv-x="830" 
d="M412 -3c-210 0 -350 160 -350 359c0 197 140 358 350 358c191 0 348 -143 348 -358c0 -216 -157 -359 -348 -359zM412 20c178 0 325 134 325 336c0 201 -147 334 -325 334c-195 0 -327 -149 -327 -334c0 -186 132 -336 327 -336zM197 341v23h431v-23h-431z" />
    <glyph glyph-name="Iota" unicode="&#x399;" horiz-adv-x="215" 
d="M96 0v710h23v-710h-23z" />
    <glyph glyph-name="Kappa" unicode="&#x39a;" horiz-adv-x="612" 
d="M257 356h-1l-144 -167v-189h-23v710h23v-483h2l418 483h31l-291 -336l296 -374h-30z" />
    <glyph glyph-name="Lambda" unicode="&#x39b;" horiz-adv-x="643" 
d="M587 0l-266 682h-2l-264 -682h-25l275 710h29l279 -710h-26z" />
    <glyph glyph-name="Mu" unicode="&#x39c;" horiz-adv-x="853" 
d="M740 710h23v-710h-23v665h-1l-302 -510h-21l-303 510h-1v-665h-23v710h24l313 -525h2z" />
    <glyph glyph-name="Nu" unicode="&#x39d;" horiz-adv-x="728" 
d="M615 710h23v-710h-23l-502 669h-1v-669h-23v710h22l503 -670h1v670z" />
    <glyph glyph-name="Xi" unicode="&#x39e;" horiz-adv-x="594" 
d="M70 687v23h454v-23h-454zM105 341v23h383v-23h-383zM63 0v24h468v-24h-468z" />
    <glyph glyph-name="Omicron" unicode="&#x39f;" horiz-adv-x="822" 
d="M412 -3c-210 0 -350 160 -350 359c0 197 140 358 350 358c191 0 348 -143 348 -358c0 -216 -157 -359 -348 -359zM412 20c178 0 325 134 325 336c0 201 -147 334 -325 334c-195 0 -327 -149 -327 -334c0 -186 132 -336 327 -336z" />
    <glyph glyph-name="Pi" unicode="&#x3a0;" horiz-adv-x="672" 
d="M89 0v710h494v-710h-23v688h-448v-688h-23z" />
    <glyph glyph-name="Rho" unicode="&#x3a1;" horiz-adv-x="582" 
d="M89 0v710h233c157 0 219 -86 219 -200c0 -144 -98 -205 -237 -205h-192v-305h-23zM112 328h191c156 0 215 79 215 182c0 122 -80 178 -190 178h-216v-360z" />
    <glyph glyph-name="Sigma" unicode="&#x3a3;" horiz-adv-x="554" 
d="M508 688h-421v-4l214 -327l-215 -332v-2h422v-23h-452v21l216 336l-216 332v21h452v-22z" />
    <glyph glyph-name="Tau" unicode="&#x3a4;" horiz-adv-x="542" 
d="M258 0v688h-233v22h492v-22h-236v-688h-23z" />
    <glyph glyph-name="Upsilon" unicode="&#x3a5;" horiz-adv-x="556" 
d="M510 710h28l-249 -387v-323h-23v323l-248 387h28l230 -360h2z" />
    <glyph glyph-name="Phi" unicode="&#x3a6;" horiz-adv-x="806" 
d="M749 358c0 -179 -135 -293 -335 -297v-61h-23v61c-200 4 -334 119 -334 297c0 194 132 310 334 314v46h23v-46c199 -5 335 -120 335 -314zM81 358c0 -161 119 -269 310 -274v564c-195 -4 -310 -115 -310 -290zM414 84c192 4 311 113 311 274c0 174 -116 286 -311 290
v-564z" />
    <glyph glyph-name="Chi" unicode="&#x3a7;" horiz-adv-x="604" 
d="M572 710l-255 -356l254 -354h-29l-238 330h-1v1l-241 -331h-28l254 354l-255 356h27l242 -335h1l240 335h29z" />
    <glyph glyph-name="Psi" unicode="&#x3a8;" horiz-adv-x="770" 
d="M669 710h23l-1 -252c0 -171 -76 -275 -295 -276v-182h-23v182c-205 1 -295 94 -295 276l1 252h23l-1 -252c0 -153 67 -251 272 -253v505h23v-505c192 1 272 85 272 253z" />
    <glyph glyph-name="uni03A9" unicode="&#x3a9;" horiz-adv-x="782" 
d="M508 24v-1h201v-23h-252v23c146 62 240 182 240 341c0 185 -124 326 -306 326s-306 -141 -306 -326c0 -159 95 -280 241 -341v-23h-253v23h203v1c-131 67 -214 188 -214 340c0 197 134 349 329 349s330 -152 330 -349c0 -151 -82 -273 -213 -340z" />
    <glyph glyph-name="Alphatonos" unicode="&#x386;" horiz-adv-x="640" 
d="M586 0l-82 211h-368l-82 -211h-25l275 710h29l278 -710h-25zM159 701l-79 -153h-25l77 153h27zM144 233h351l-175 449h-2z" />
    <glyph glyph-name="Epsilontonos" unicode="&#x388;" horiz-adv-x="565" 
d="M89 0v710h412v-22h-389v-321h327v-23h-327v-321h410v-23h-433zM-111 548l77 153h27l-79 -153h-25z" />
    <glyph glyph-name="Etatonos" unicode="&#x389;" horiz-adv-x="692" 
d="M89 0v710h23v-364h468v364h23v-710h-23v323h-468v-323h-23zM-111 548l77 153h27l-79 -153h-25z" />
    <glyph glyph-name="Iotatonos" unicode="&#x38a;" horiz-adv-x="215" 
d="M96 0v710h23v-710h-23zM-111 548l77 153h27l-79 -153h-25z" />
    <glyph glyph-name="Omicrontonos" unicode="&#x38c;" horiz-adv-x="822" 
d="M412 -3c-210 0 -350 160 -350 359c0 197 140 358 350 358c191 0 348 -143 348 -358c0 -216 -157 -359 -348 -359zM-32 548l77 153h27l-79 -153h-25zM412 20c178 0 325 134 325 336c0 201 -147 334 -325 334c-195 0 -327 -149 -327 -334c0 -186 132 -336 327 -336z" />
    <glyph glyph-name="Upsilontonos" unicode="&#x38e;" horiz-adv-x="556" 
d="M510 710h28l-249 -387v-323h-23v323l-248 387h28l230 -360h2zM-129 548l77 153h27l-79 -153h-25z" />
    <glyph glyph-name="Omegatonos" unicode="&#x38f;" horiz-adv-x="782" 
d="M508 24v-1h201v-23h-252v23c146 62 240 182 240 341c0 185 -124 326 -306 326s-306 -141 -306 -326c0 -159 95 -280 241 -341v-23h-253v23h203v1c-131 67 -214 188 -214 340c0 197 134 349 329 349s330 -152 330 -349c0 -151 -82 -273 -213 -340zM-55 548l77 153h27
l-79 -153h-25z" />
    <glyph glyph-name="Iotadieresis" unicode="&#x3aa;" horiz-adv-x="215" 
d="M-4 846c-16 0 -27 12 -27 27c0 17 11 27 27 27s28 -10 28 -27c0 -15 -12 -27 -28 -27zM220 846c-16 0 -27 12 -27 27c0 17 11 27 27 27c17 0 28 -10 28 -27c0 -15 -11 -27 -28 -27zM96 0v710h23v-710h-23z" />
    <glyph glyph-name="Upsilondieresis" unicode="&#x3ab;" horiz-adv-x="556" 
d="M161 846c-16 0 -27 12 -27 27c0 17 11 27 27 27s28 -10 28 -27c0 -15 -12 -27 -28 -27zM385 846c-16 0 -27 12 -27 27c0 17 11 27 27 27c17 0 28 -10 28 -27c0 -15 -11 -27 -28 -27zM510 710h28l-249 -387v-323h-23v323l-248 387h28l230 -360h2z" />
    <glyph glyph-name="alpha" unicode="&#x3b1;" horiz-adv-x="612" 
d="M600 28l3 -22c-9 -4 -26 -9 -47 -9c-60 0 -73 63 -73 116v33h-1c-36 -87 -112 -149 -209 -149c-123 0 -228 96 -228 240c0 138 92 251 234 251c99 0 179 -60 210 -158h1l11 154h24l-20 -225v-135c0 -52 5 -105 53 -105c18 0 34 5 42 9zM273 19c106 0 200 87 210 218
c0 126 -78 228 -204 228c-117 0 -212 -91 -212 -228c0 -120 84 -218 206 -218z" />
    <glyph glyph-name="beta" unicode="&#x3b2;" horiz-adv-x="560" 
d="M364 396c100 -27 152 -103 152 -192c0 -117 -84 -207 -217 -207c-93 0 -163 50 -195 124h-1v-319h-22v701c0 163 86 237 209 237c110 0 187 -73 187 -173c0 -54 -18 -140 -113 -170v-1zM299 19c121 0 194 81 194 185c0 100 -68 180 -208 180h-44v23h42
c149 2 172 98 172 160c0 86 -65 150 -165 150c-111 0 -187 -65 -187 -214v-279c0 -114 74 -205 196 -205z" />
    <glyph glyph-name="gamma" unicode="&#x3b3;" horiz-adv-x="496" 
d="M465 484l-205 -502c9 -40 6 -73 6 -180h-23c0 98 4 153 -15 200l-198 482h26l191 -468h2l191 468h25z" />
    <glyph glyph-name="delta" unicode="&#x3b4;" horiz-adv-x="565" 
d="M325 482c98 -32 193 -103 193 -245c0 -145 -108 -240 -237 -240c-137 0 -234 107 -234 240c0 131 86 211 193 252c-99 36 -119 84 -119 128c0 70 59 123 161 123c46 0 119 -11 188 -50l-7 -20c-70 37 -127 47 -180 47c-91 0 -140 -43 -140 -98c0 -45 27 -80 99 -109
c21 -9 31 -11 83 -28zM281 19c117 0 215 86 215 218c0 128 -79 201 -218 238l-8 2c-120 -38 -200 -122 -200 -240c0 -122 87 -218 211 -218z" />
    <glyph glyph-name="epsilon" unicode="&#x3b5;" horiz-adv-x="448" 
d="M226 19c60 0 119 15 177 45l10 -20c-60 -29 -124 -47 -188 -47c-103 0 -176 40 -176 130c0 54 32 105 96 124c-55 22 -83 66 -83 105c0 82 61 132 168 132c41 0 115 -12 184 -50l-8 -20c-70 36 -136 47 -175 47c-96 0 -147 -45 -147 -109c0 -41 40 -97 135 -97h88v-22
h-105c-98 0 -131 -63 -131 -110c0 -73 63 -108 155 -108z" />
    <glyph glyph-name="zeta" unicode="&#x3b6;" horiz-adv-x="434" 
d="M442 716c-202 -145 -369 -324 -370 -479c-1 -127 88 -158 222 -206c70 -25 123 -37 123 -101c0 -47 -30 -95 -57 -128l-22 10c27 34 57 74 57 116c0 47 -33 54 -110 82c-142 52 -237 88 -236 227c2 156 154 329 351 476v1h-327v22h369v-20z" />
    <glyph glyph-name="eta" unicode="&#x3b7;" horiz-adv-x="544" 
d="M306 488c102 0 167 -71 167 -196v-490h-22v479c0 135 -66 184 -145 184c-122 0 -203 -90 -203 -226v-239h-22v484h22v-128h1c34 82 107 132 202 132z" />
    <glyph glyph-name="theta" unicode="&#x3b8;" horiz-adv-x="562" 
d="M281 740c134 0 233 -109 233 -371c0 -208 -65 -372 -233 -372c-134 0 -234 110 -234 372c0 209 66 371 234 371zM281 717c-145 0 -206 -135 -211 -326h422c-5 234 -95 326 -211 326zM281 19c151 0 211 149 211 350h-422c0 -248 90 -350 211 -350z" />
    <glyph glyph-name="iota" unicode="&#x3b9;" horiz-adv-x="231" 
d="M165 -3c-70 0 -79 53 -79 107v380h22v-370c0 -51 2 -95 59 -95c28 0 42 6 51 9l3 -22c-10 -3 -25 -9 -56 -9z" />
    <glyph glyph-name="kappa" unicode="&#x3ba;" horiz-adv-x="526" 
d="M481 0l-214 267l-164 -151v-116h-22v484h22v-335h2l367 335h32l-220 -201l227 -283h-30z" />
    <glyph glyph-name="lambda" unicode="&#x3bb;" horiz-adv-x="526" 
d="M464 0c-57 157 -116 313 -173 456h-1l-229 -456h-25l243 487l-41 104c-29 71 -57 126 -124 126c-15 0 -30 -3 -44 -7l-2 22c10 4 26 8 45 8c77 0 115 -61 146 -141c70 -179 152 -387 229 -599h-24z" />
    <glyph glyph-name="uni03BC" unicode="&#x3bc;" horiz-adv-x="549" 
d="M447 484h22v-484h-20l-3 125h-2c-33 -80 -101 -128 -181 -128c-79 0 -133 38 -160 100l-1 -1c0 -38 1 -76 1 -114v-180h-22v682h22v-265c0 -136 64 -200 160 -200c103 0 184 90 184 226v239z" />
    <glyph glyph-name="nu" unicode="&#x3bd;" horiz-adv-x="494" 
d="M439 484h25l-205 -484h-22l-208 484h26l192 -449h2z" />
    <glyph glyph-name="xi" unicode="&#x3be;" horiz-adv-x="445" 
d="M271 717c-89 1 -161 -63 -161 -151c0 -113 95 -150 188 -150h82v-22h-99c-132 0 -211 -86 -211 -173c0 -93 75 -140 170 -173c124 -43 179 -59 178 -123c-1 -38 -29 -86 -58 -123l-22 10c25 31 57 80 57 112c1 48 -33 57 -165 103c-102 36 -183 89 -183 194
c0 83 60 161 161 185v1c-69 21 -121 70 -121 157c0 103 79 176 185 176c37 0 100 -11 169 -50l-7 -20c-70 37 -118 47 -163 47z" />
    <glyph glyph-name="omicron" unicode="&#x3bf;" horiz-adv-x="565" 
d="M283 -3c-145 0 -238 111 -238 245c0 133 93 246 238 246c134 0 237 -100 237 -246s-103 -245 -237 -245zM283 19c122 0 215 90 215 223s-94 223 -215 223c-133 0 -216 -101 -216 -223s83 -223 216 -223z" />
    <glyph glyph-name="pi" unicode="&#x3c0;" horiz-adv-x="590" 
d="M574 484v-22h-114v-463h-22v463h-300v-462h-22v462h-96v22h554z" />
    <glyph glyph-name="rho" unicode="&#x3c1;" horiz-adv-x="579" 
d="M295 488c144 0 238 -113 238 -251c0 -144 -105 -240 -237 -240c-98 0 -171 55 -205 134h-1v-329h-22v435c0 150 101 251 227 251zM296 19c131 0 214 98 214 218c0 137 -94 228 -215 228c-124 0 -205 -102 -205 -228c0 -131 91 -218 206 -218z" />
    <glyph glyph-name="uni03C2" unicode="&#x3c2;" horiz-adv-x="483" 
d="M355 -198l-22 9c29 33 59 69 59 107c0 48 -35 62 -111 93c-138 55 -234 105 -234 249c0 130 89 228 226 228c61 0 130 -26 178 -77l-17 -17c-37 42 -98 71 -161 71c-124 0 -203 -89 -203 -205c0 -131 90 -175 220 -228c69 -29 125 -48 125 -112c0 -43 -31 -86 -60 -118z
" />
    <glyph glyph-name="sigma" unicode="&#x3c3;" horiz-adv-x="562" 
d="M546 462h-171v-1c80 -46 135 -118 135 -224c0 -133 -95 -240 -234 -240c-127 0 -231 95 -231 240c0 135 93 247 238 247h263v-22zM488 237c0 104 -62 182 -161 225h-44c-132 0 -216 -102 -216 -225c0 -132 94 -218 209 -218c126 0 212 96 212 218z" />
    <glyph glyph-name="tau" unicode="&#x3c4;" horiz-adv-x="438" 
d="M267 -3c-91 0 -103 48 -103 126v339h-159v22h398v-22h-217v-324c0 -75 6 -119 78 -119c52 0 96 22 115 34l6 -22c-24 -15 -69 -34 -118 -34z" />
    <glyph glyph-name="upsilon" unicode="&#x3c5;" horiz-adv-x="539" 
d="M270 -3c-117 0 -199 80 -199 229v258h22v-248c0 -158 83 -217 177 -217c102 0 176 59 176 217v248h22v-258c0 -149 -73 -229 -198 -229z" />
    <glyph glyph-name="phi" unicode="&#x3c6;" horiz-adv-x="667" 
d="M442 488c103 0 177 -98 177 -227c0 -145 -105 -264 -281 -264v-195h-22v195c-150 0 -268 91 -268 245c0 80 27 165 107 250l18 -11c-74 -81 -102 -158 -102 -239c0 -140 105 -223 245 -223v286c0 136 68 183 126 183zM338 19c165 0 259 109 259 242
c0 105 -54 204 -153 204c-49 0 -106 -38 -106 -159v-287z" />
    <glyph glyph-name="chi" unicode="&#x3c7;" horiz-adv-x="494" 
d="M478 -176l2 -22c-7 -2 -15 -3 -21 -3c-42 0 -65 26 -88 74l-125 258h-1l-194 -329h-27l210 355l-117 244c-20 41 -39 64 -71 64c-5 0 -11 -1 -17 -2l-3 22c8 2 15 3 21 3c42 0 66 -26 89 -74l111 -233h1l180 303h27l-195 -328l130 -271c19 -40 38 -64 70 -64
c5 0 11 1 18 3z" />
    <glyph glyph-name="psi" unicode="&#x3c8;" horiz-adv-x="661" 
d="M571 484h22v-258c0 -148 -93 -228 -256 -229v-195h-22v195c-153 0 -247 80 -247 229v258h22v-247c0 -159 99 -218 225 -218v606h22v-606c135 1 234 60 234 218v247z" />
    <glyph glyph-name="omega" unicode="&#x3c9;" horiz-adv-x="731" 
d="M579 492c80 -85 106 -170 106 -254c0 -139 -65 -241 -169 -241c-83 0 -130 53 -149 140h-1c-19 -87 -66 -140 -149 -140c-103 0 -169 102 -169 241c0 84 27 169 107 254l18 -11c-74 -81 -102 -158 -102 -243c0 -136 64 -219 146 -219c98 0 139 90 139 226v118h21v-118
c0 -136 41 -226 139 -226c83 0 147 83 147 219c0 85 -29 162 -103 243z" />
    <glyph glyph-name="iotatonos" unicode="&#x3af;" horiz-adv-x="231" 
d="M88 561l60 153h27l-62 -153h-25zM165 -3c-70 0 -79 53 -79 107v380h22v-370c0 -51 2 -95 59 -95c28 0 42 6 51 9l3 -22c-10 -3 -25 -9 -56 -9z" />
    <glyph glyph-name="iotadieresis" unicode="&#x3ca;" horiz-adv-x="231" 
d="M-19 606c-16 0 -27 12 -27 27c0 17 11 27 27 27s28 -10 28 -27c0 -15 -12 -27 -28 -27zM205 606c-16 0 -27 12 -27 27c0 17 11 27 27 27c17 0 28 -10 28 -27c0 -15 -11 -27 -28 -27zM165 -3c-70 0 -79 53 -79 107v380h22v-370c0 -51 2 -95 59 -95c28 0 42 6 51 9l3 -22
c-10 -3 -25 -9 -56 -9z" />
    <glyph glyph-name="iotadieresistonos" unicode="&#x390;" horiz-adv-x="231" 
d="M87 561l60 153h27l-62 -153h-25zM-19 606c-16 0 -27 12 -27 27c0 17 11 27 27 27s28 -10 28 -27c0 -15 -12 -27 -28 -27zM234 606c-16 0 -27 12 -27 27c0 17 11 27 27 27s28 -10 28 -27c0 -15 -12 -27 -28 -27zM165 -3c-70 0 -79 53 -79 107v380h22v-370
c0 -51 2 -95 59 -95c28 0 42 6 51 9l3 -22c-10 -3 -25 -9 -56 -9z" />
    <glyph glyph-name="upsilontonos" unicode="&#x3cd;" horiz-adv-x="539" 
d="M262 562l60 153h27l-62 -153h-25zM270 -3c-117 0 -199 80 -199 229v258h22v-248c0 -158 83 -217 177 -217c102 0 176 59 176 217v248h22v-258c0 -149 -73 -229 -198 -229z" />
    <glyph glyph-name="upsilondieresis" unicode="&#x3cb;" horiz-adv-x="539" 
d="M155 607c-16 0 -27 12 -27 27c0 17 11 27 27 27s28 -10 28 -27c0 -15 -12 -27 -28 -27zM379 607c-16 0 -27 12 -27 27c0 17 11 27 27 27c17 0 28 -10 28 -27c0 -15 -11 -27 -28 -27zM270 -3c-117 0 -199 80 -199 229v258h22v-248c0 -158 83 -217 177 -217
c102 0 176 59 176 217v248h22v-258c0 -149 -73 -229 -198 -229z" />
    <glyph glyph-name="upsilondieresistonos" unicode="&#x3b0;" horiz-adv-x="539" 
d="M252 562l60 153h27l-62 -153h-25zM146 607c-16 0 -27 12 -27 27c0 17 11 27 27 27s28 -10 28 -27c0 -15 -12 -27 -28 -27zM399 607c-16 0 -27 12 -27 27c0 17 11 27 27 27s28 -10 28 -27c0 -15 -12 -27 -28 -27zM270 -3c-117 0 -199 80 -199 229v258h22v-248
c0 -158 83 -217 177 -217c102 0 176 59 176 217v248h22v-258c0 -149 -73 -229 -198 -229z" />
    <glyph glyph-name="omicrontonos" unicode="&#x3cc;" horiz-adv-x="565" 
d="M272 562l60 153h27l-62 -153h-25zM283 -3c-145 0 -238 111 -238 245c0 133 93 246 238 246c134 0 237 -100 237 -246s-103 -245 -237 -245zM283 19c122 0 215 90 215 223s-94 223 -215 223c-133 0 -216 -101 -216 -223s83 -223 216 -223z" />
    <glyph glyph-name="omegatonos" unicode="&#x3ce;" horiz-adv-x="731" 
d="M443 715l-62 -153h-25l60 153h27zM579 492c80 -85 106 -170 106 -254c0 -139 -65 -241 -169 -241c-83 0 -130 53 -149 140h-1c-19 -87 -66 -140 -149 -140c-103 0 -169 102 -169 241c0 84 27 169 107 254l18 -11c-74 -81 -102 -158 -102 -243c0 -136 64 -219 146 -219
c98 0 139 90 139 226v118h21v-118c0 -136 41 -226 139 -226c83 0 147 83 147 219c0 85 -29 162 -103 243z" />
    <glyph glyph-name="alphatonos" unicode="&#x3ac;" horiz-adv-x="612" 
d="M372 715l-62 -153h-25l60 153h27zM600 28l3 -22c-9 -4 -26 -9 -47 -9c-60 0 -73 63 -73 116v33h-1c-36 -87 -112 -149 -209 -149c-123 0 -228 96 -228 240c0 138 92 251 234 251c99 0 179 -60 210 -158h1l11 154h24l-20 -225v-135c0 -52 5 -105 53 -105c18 0 34 5 42 9z
M273 19c106 0 200 87 210 218c0 126 -78 228 -204 228c-117 0 -212 -91 -212 -228c0 -120 84 -218 206 -218z" />
    <glyph glyph-name="epsilontonos" unicode="&#x3ad;" horiz-adv-x="448" 
d="M311 715l-62 -153h-25l60 153h27zM226 19c60 0 119 15 177 45l10 -20c-60 -29 -124 -47 -188 -47c-103 0 -176 40 -176 130c0 54 32 105 96 124c-55 22 -83 66 -83 105c0 82 61 132 168 132c41 0 115 -12 184 -50l-8 -20c-70 36 -136 47 -175 47
c-96 0 -147 -45 -147 -109c0 -41 40 -97 135 -97h88v-22h-105c-98 0 -131 -63 -131 -110c0 -73 63 -108 155 -108z" />
    <glyph glyph-name="etatonos" unicode="&#x3ae;" horiz-adv-x="544" 
d="M355 715l-62 -153h-25l60 153h27zM306 488c102 0 167 -71 167 -196v-490h-22v479c0 135 -66 184 -145 184c-122 0 -203 -90 -203 -226v-239h-22v484h22v-128h1c34 82 107 132 202 132z" />
    <glyph glyph-name="uni03D7" unicode="&#x3d7;" horiz-adv-x="551" 
d="M362 104c48 -50 107 -81 155 -91v-10c-97 -151 -193 -219 -324 -219c-69 0 -140 21 -184 48l4 24c48 -31 113 -49 180 -49c116 0 204 58 293 191v1c-56 20 -101 49 -138 87c-46 47 -77 104 -99 170h-2l-144 -148v-108h-22v484h22v-341h2l333 341h32l-205 -210
c21 -65 53 -123 97 -170z" />
    <glyph glyph-name="gamma.alt" horiz-adv-x="514" 
d="M467 484c-19 -218 -136 -388 -221 -508c11 -65 16 -122 20 -174h-22c-7 95 -20 201 -61 352c-45 166 -99 311 -163 311c-5 0 -11 -1 -18 -2l-2 22c6 1 14 3 20 3c69 0 124 -104 184 -328c15 -55 27 -104 35 -149h2c80 112 187 281 202 473h24z" />
    <glyph glyph-name="eta.alt" horiz-adv-x="577" 
d="M330 488c111 0 175 -85 175 -211v-475h-22v464c0 135 -65 199 -153 199c-117 0 -198 -105 -198 -245v-220h-22v375c0 52 -13 90 -52 90c-5 0 -11 -1 -17 -2l-2 22c7 2 14 3 21 3c47 0 72 -45 72 -102v-45h1c34 88 107 147 197 147z" />
    <glyph glyph-name="uni03BC.alt" horiz-adv-x="570" 
d="M559 28l3 -22c-9 -4 -26 -9 -47 -9c-60 0 -73 63 -73 116v29h-1c-34 -87 -105 -145 -183 -145s-129 37 -156 97c0 -37 1 -75 1 -112v-180h-22v682h22v-265c0 -136 59 -200 155 -200c98 0 184 105 184 241v224h22v-360c0 -52 5 -105 53 -105c18 0 34 5 42 9z" />
    <glyph glyph-name="nu.alt" horiz-adv-x="494" 
d="M436 484h23c0 -205 -103 -366 -205 -484h-22l-203 484h26l190 -455h2c96 112 193 273 189 455z" />
    <glyph glyph-name="xi.alt" horiz-adv-x="445" 
d="M433 715c-141 -18 -308 -65 -308 -183c0 -84 80 -126 168 -126h87v-22h-104c-127 0 -206 -56 -206 -158c0 -94 65 -141 170 -178c123 -44 179 -59 178 -123c-1 -38 -29 -86 -58 -123l-22 10c25 31 57 80 57 112c1 48 -34 56 -165 103c-112 40 -183 94 -183 199
c0 94 59 154 156 172v1c-60 22 -101 67 -101 131c0 108 112 160 210 183v1h-233v22h354v-21z" />
    <glyph glyph-name="pi.alt" horiz-adv-x="596" 
d="M574 462h-114v-348c0 -51 2 -95 60 -95c27 0 42 6 50 9l3 -22c-10 -3 -25 -9 -56 -9c-70 0 -79 53 -79 107v358h-300v-462h-22v462h-96v19l96 3h458v-22z" />
    <glyph glyph-name="upsilon.alt" horiz-adv-x="525" 
d="M269 -3c-122 0 -201 75 -201 233v254h22v-243c0 -168 80 -222 179 -222s186 93 186 252c0 74 -11 138 -37 211l21 8c26 -75 38 -142 38 -220c0 -159 -86 -273 -208 -273z" />
    <glyph glyph-name="psi.alt" horiz-adv-x="652" 
d="M610 263c0 -173 -88 -265 -264 -266v-195h-22v195c-163 1 -256 81 -256 229v258h22v-247c0 -158 99 -217 234 -218v606l22 1v-607c147 1 241 70 241 244c0 82 -14 150 -39 219l22 8c25 -74 40 -133 40 -227z" />
    <glyph glyph-name="upsilontonos.alt" horiz-adv-x="525" 
d="M250 562l60 153h27l-62 -153h-25zM269 -3c-122 0 -201 75 -201 233v254h22v-243c0 -168 80 -222 179 -222s186 93 186 252c0 74 -11 138 -37 211l21 8c26 -75 38 -142 38 -220c0 -159 -86 -273 -208 -273z" />
    <glyph glyph-name="upsilondieresis.alt" horiz-adv-x="525" 
d="M143 607c-16 0 -27 12 -27 27c0 17 11 27 27 27s28 -10 28 -27c0 -15 -12 -27 -28 -27zM367 607c-16 0 -27 12 -27 27c0 17 11 27 27 27c17 0 28 -10 28 -27c0 -15 -11 -27 -28 -27zM269 -3c-122 0 -201 75 -201 233v254h22v-243c0 -168 80 -222 179 -222s186 93 186 252
c0 74 -11 138 -37 211l21 8c26 -75 38 -142 38 -220c0 -159 -86 -273 -208 -273z" />
    <glyph glyph-name="upsilondieresistonos.alt" horiz-adv-x="525" 
d="M239 562l60 153h27l-62 -153h-25zM133 607c-16 0 -27 12 -27 27c0 17 11 27 27 27s28 -10 28 -27c0 -15 -12 -27 -28 -27zM386 607c-16 0 -27 12 -27 27c0 17 11 27 27 27s28 -10 28 -27c0 -15 -12 -27 -28 -27zM269 -3c-122 0 -201 75 -201 233v254h22v-243
c0 -168 80 -222 179 -222s186 93 186 252c0 74 -11 138 -37 211l21 8c26 -75 38 -142 38 -220c0 -159 -86 -273 -208 -273z" />
    <glyph glyph-name="etatonos.alt" horiz-adv-x="577" 
d="M384 715l-62 -153h-25l60 153h27zM330 488c111 0 175 -85 175 -211v-475h-22v464c0 135 -65 199 -153 199c-117 0 -198 -105 -198 -245v-220h-22v375c0 52 -13 90 -52 90c-5 0 -11 -1 -17 -2l-2 22c7 2 14 3 21 3c47 0 72 -45 72 -102v-45h1c34 88 107 147 197 147z" />
    <glyph glyph-name="zero" unicode="0" horiz-adv-x="608" 
d="M304 -3c-138 0 -246 119 -246 345c0 197 86 348 246 348c138 0 246 -119 246 -348c0 -193 -85 -345 -246 -345zM304 20c145 0 223 137 223 322c0 217 -98 325 -223 325c-145 0 -223 -137 -223 -325c0 -214 98 -322 223 -322z" />
    <glyph glyph-name="one" unicode="1" horiz-adv-x="320" 
d="M200 0v657l-162 -123l-14 18l176 135h23v-687h-23z" />
    <glyph glyph-name="two" unicode="2" horiz-adv-x="485" 
d="M69 23h375v-23h-413v22l261 253c63 61 119 126 119 213c0 104 -72 179 -175 179c-83 0 -145 -42 -178 -119l-22 12c35 80 102 130 200 130c102 0 198 -73 198 -201c0 -81 -43 -150 -124 -229l-241 -233v-4z" />
    <glyph glyph-name="three" unicode="3" horiz-adv-x="500" 
d="M318 359c87 -25 136 -93 136 -178c0 -108 -91 -184 -211 -184c-110 0 -187 48 -222 119l22 11c32 -64 99 -107 200 -107c107 0 188 65 188 166c0 87 -63 162 -194 162h-66v23h75c117 0 169 68 169 145c0 94 -76 151 -177 151c-88 0 -140 -35 -175 -84l-21 14
c40 55 100 93 196 93c111 0 200 -64 200 -174c0 -70 -38 -131 -120 -155v-2z" />
    <glyph glyph-name="four" unicode="4" horiz-adv-x="535" 
d="M379 0v131h-357v23l358 533h22v-533h108v-23h-108v-131h-23zM50 154h329v490z" />
    <glyph glyph-name="five" unicode="5" horiz-adv-x="529" 
d="M257 427c128 0 232 -77 232 -216c0 -128 -104 -214 -232 -214c-96 0 -181 49 -217 121l22 9c35 -65 108 -107 195 -107c118 0 208 78 208 191c0 124 -90 192 -208 192c-51 0 -108 -12 -138 -41l-22 2l19 323h345v-23h-324l-15 -274c42 29 107 37 135 37z" />
    <glyph glyph-name="six" unicode="6" horiz-adv-x="560" 
d="M300 424c130 0 216 -82 216 -213c0 -117 -90 -214 -226 -214c-135 0 -234 102 -234 254c0 275 195 434 334 458l4 -23c-123 -22 -292 -157 -312 -389c41 70 117 127 218 127zM290 21c123 0 202 85 202 190c0 116 -75 189 -192 189c-119 0 -192 -80 -220 -159
c4 -132 92 -220 210 -220z" />
    <glyph glyph-name="seven" unicode="7" horiz-adv-x="481" 
d="M30 687h422v-24l-309 -671l-22 8l306 664h-397v23z" />
    <glyph glyph-name="eight" unicode="8" horiz-adv-x="563" 
d="M354 372c96 -19 158 -92 158 -184c0 -114 -103 -191 -233 -191c-141 0 -233 87 -233 191c0 92 62 165 158 184c-63 14 -123 65 -123 149c0 103 86 169 198 169c123 0 200 -74 200 -169c0 -84 -62 -135 -125 -149zM104 521c0 -85 72 -138 175 -138c104 0 176 53 176 138
c0 89 -75 146 -176 146c-108 0 -175 -64 -175 -146zM279 21c128 0 210 75 210 167c0 103 -83 171 -210 171s-210 -68 -210 -171c0 -100 93 -167 210 -167z" />
    <glyph glyph-name="nine" unicode="9" horiz-adv-x="566" 
d="M279 690c132 0 234 -101 233 -266c-2 -275 -221 -424 -351 -448l-3 23c116 22 310 154 329 391l-1 1c-41 -71 -120 -130 -232 -130c-121 0 -207 83 -207 206c0 121 94 223 232 223zM254 285c91 0 192 46 234 159c-7 139 -96 223 -209 223c-128 0 -208 -90 -208 -199
c0 -112 75 -183 183 -183z" />
    <glyph glyph-name="fraction" unicode="&#x2044;" horiz-adv-x="230" 
d="M-26 -7l-21 7l305 717l20 -8z" />
    <glyph glyph-name="onehalf" unicode="&#xbd;" horiz-adv-x="716" 
d="M457 717l20 -8l-304 -716l-21 7zM16 629l116 81h18v-411h-21v381l-102 -69zM456 21h227v-21h-269l1 18l165 149c43 39 75 74 75 123c0 57 -44 103 -107 103c-42 0 -91 -23 -113 -68l-18 12c23 47 76 78 131 78c67 0 129 -49 129 -123c0 -51 -26 -90 -79 -139l-142 -128
v-4z" />
    <glyph glyph-name="onequarter" unicode="&#xbc;" horiz-adv-x="690" 
d="M173 -7l-21 7l305 717l20 -8zM129 299v381l-102 -69l-11 18l116 81h18v-411h-21zM576 0v77h-218v20l221 314h18v-313h69v-21h-69v-77h-21zM385 98h191v272z" />
    <glyph glyph-name="threequarters" unicode="&#xbe;" horiz-adv-x="786" 
d="M553 717l20 -8l-304 -716l-21 7zM300 407c0 -65 -54 -111 -136 -111c-73 0 -122 30 -145 74l20 10c20 -38 61 -62 124 -62c70 0 115 32 115 94c0 48 -44 90 -120 90h-41v22h48c66 0 104 37 104 81c0 55 -42 87 -110 87c-54 0 -86 -19 -107 -49l-19 12c25 35 64 59 126 59
c73 0 131 -39 131 -107c0 -42 -21 -77 -70 -93v-2c53 -16 80 -56 80 -105zM693 98h69v-21h-69v-77h-21v77h-218v20l221 314h18v-313zM672 98v272l-191 -272h191z" />
    <glyph glyph-name="uni2070" unicode="&#x2070;" horiz-adv-x="381" 
d="M190 433c-93 0 -162 73 -162 208c0 121 58 210 162 210c93 0 163 -74 163 -210c0 -120 -59 -208 -163 -208zM190 455c90 0 141 75 141 186c0 125 -60 188 -141 188c-90 0 -140 -76 -140 -188c0 -123 60 -186 140 -186z" />
    <glyph glyph-name="uni00B9" unicode="&#xb9;" horiz-adv-x="218" 
d="M129 436v381l-102 -69l-11 18l116 81h18v-411h-21z" />
    <glyph glyph-name="uni00B2" unicode="&#xb2;" horiz-adv-x="325" 
d="M65 457h227v-21h-269l1 18l165 149c43 39 75 74 75 123c0 57 -44 103 -107 103c-42 0 -91 -23 -113 -68l-18 12c23 47 76 78 131 78c67 0 129 -49 129 -123c0 -51 -26 -90 -79 -139l-142 -128v-4z" />
    <glyph glyph-name="uni00B3" unicode="&#xb3;" horiz-adv-x="328" 
d="M221 649c53 -16 80 -56 80 -105c0 -65 -54 -111 -136 -111c-73 0 -122 30 -145 74l20 10c20 -38 61 -62 124 -62c70 0 115 32 115 94c0 48 -44 90 -120 90h-41v22h48c66 0 104 37 104 81c0 55 -42 87 -110 87c-54 0 -86 -19 -107 -49l-19 12c25 35 64 59 126 59
c73 0 131 -39 131 -107c0 -42 -21 -77 -70 -93v-2z" />
    <glyph glyph-name="asterisk" unicode="*" horiz-adv-x="403" 
d="M190 406l4 139l-119 -74l-11 21l124 66l-125 66l12 20l119 -73l-4 139h23l-4 -139l119 74l11 -21l-124 -66l124 -66l-11 -19l-119 72l4 -139h-23z" />
    <glyph glyph-name="backslash" unicode="\" horiz-adv-x="373" 
d="M377 -115l-389 850l19 11l389 -851z" />
    <glyph glyph-name="periodcentered" unicode="&#xb7;" horiz-adv-x="153" 
d="M80 206c-17 0 -29 12 -29 29s12 28 29 28s29 -11 29 -28s-12 -29 -29 -29z" />
    <glyph glyph-name="bullet" unicode="&#x2022;" horiz-adv-x="371" 
d="M185 231c-47 0 -85 37 -85 85c0 47 38 84 85 84s86 -37 86 -84c0 -48 -39 -85 -86 -85z" />
    <glyph glyph-name="colon" unicode=":" horiz-adv-x="163" 
d="M82 437c-17 0 -29 12 -29 29s12 28 29 28s29 -11 29 -28s-12 -29 -29 -29zM82 -10c-17 0 -29 12 -29 29s12 28 29 28s29 -11 29 -28s-12 -29 -29 -29z" />
    <glyph glyph-name="comma" unicode="," horiz-adv-x="157" 
d="M36 -128l35 218h27l-42 -218h-20z" />
    <glyph glyph-name="ellipsis" unicode="&#x2026;" horiz-adv-x="1000" 
d="M162 -10c-17 0 -29 12 -29 29s12 28 29 28s29 -11 29 -28s-12 -29 -29 -29zM495 -10c-17 0 -29 12 -29 29s12 28 29 28s29 -11 29 -28s-12 -29 -29 -29zM829 -10c-17 0 -29 12 -29 29s12 28 29 28s29 -11 29 -28s-12 -29 -29 -29z" />
    <glyph glyph-name="exclam" unicode="!" horiz-adv-x="190" 
d="M85 180l-4 556h26l-4 -556h-18zM95 -10c-17 0 -29 12 -29 29s12 28 29 28s29 -11 29 -28s-12 -29 -29 -29z" />
    <glyph glyph-name="exclamdown" unicode="&#xa1;" horiz-adv-x="190" 
d="M95 494c17 0 29 -12 29 -29s-12 -28 -29 -28s-29 11 -29 28s12 29 29 29zM85 304h18l4 -556h-26z" />
    <glyph glyph-name="numbersign" unicode="#" horiz-adv-x="613" 
d="M145 -25l34 224h-134v22h136l29 187h-146v21h149l35 227h22l-35 -227h194l34 227h22l-35 -227h138v-21h-141l-28 -187h150v-22h-154l-34 -224h-21l34 224h-194l-34 -224h-21zM203 221h194l28 187h-194z" />
    <glyph glyph-name="period" unicode="." horiz-adv-x="172" 
d="M86 -10c-17 0 -29 12 -29 29s12 28 29 28s29 -11 29 -28s-12 -29 -29 -29z" />
    <glyph glyph-name="question" unicode="?" horiz-adv-x="417" 
d="M179 176v60c0 59 50 105 97 157c44 47 86 99 86 172c0 96 -74 151 -155 151c-63 0 -125 -29 -162 -88l-16 18c42 62 109 94 178 94c110 0 179 -81 179 -175c0 -82 -47 -138 -94 -188c-47 -51 -92 -93 -92 -141v-60h-21zM192 -10c-17 0 -29 12 -29 29s12 28 29 28
s29 -11 29 -28s-12 -29 -29 -29z" />
    <glyph glyph-name="questiondown" unicode="&#xbf;" horiz-adv-x="383" 
d="M235 494c17 0 29 -12 29 -29s-12 -28 -29 -28s-29 11 -29 28s12 29 29 29zM248 308v-60c0 -59 -50 -105 -97 -157c-44 -47 -86 -99 -86 -172c0 -96 74 -151 155 -151c63 0 125 29 162 88l16 -18c-42 -62 -109 -94 -178 -94c-110 0 -179 81 -179 175c0 82 47 138 94 188
c47 51 92 93 92 141v60h21z" />
    <glyph glyph-name="quotedbl" unicode="&#x22;" horiz-adv-x="245" 
d="M50 493l35 217h26l-42 -217h-19zM133 493l35 217h27l-42 -217h-20z" />
    <glyph glyph-name="quotesingle" unicode="'" horiz-adv-x="161" 
d="M50 493l35 217h26l-42 -217h-19z" />
    <glyph glyph-name="semicolon" unicode=";" horiz-adv-x="174" 
d="M93 437c-17 0 -29 12 -29 29s12 28 29 28s29 -11 29 -28s-12 -29 -29 -29zM40 -128l35 218h27l-42 -218h-20z" />
    <glyph glyph-name="slash" unicode="/" horiz-adv-x="373" 
d="M6 -115l-19 10l389 851l19 -11z" />
    <glyph glyph-name="underscore" unicode="_" horiz-adv-x="509" 
d="M-7 -50v22h524v-22h-524z" />
    <glyph glyph-name="bullet.case" horiz-adv-x="416" 
d="M185 258c-47 0 -85 37 -85 85c0 47 38 84 85 84s86 -37 86 -84c0 -48 -39 -85 -86 -85z" />
    <glyph glyph-name="exclamdown.case" horiz-adv-x="190" 
d="M95 535c17 0 29 -12 29 -29s-12 -28 -29 -28s-29 11 -29 28s12 29 29 29zM85 345h18l4 -556h-26z" />
    <glyph glyph-name="questiondown.case" horiz-adv-x="417" 
d="M235 534c17 0 29 -12 29 -29s-12 -28 -29 -28s-29 11 -29 28s12 29 29 29zM248 348v-60c0 -59 -50 -105 -97 -157c-44 -47 -86 -99 -86 -172c0 -96 74 -151 155 -151c63 0 125 29 162 88l16 -18c-42 -62 -109 -94 -178 -94c-110 0 -179 81 -179 175c0 82 47 138 94 188
c47 51 92 93 92 141v60h21z" />
    <glyph glyph-name="braceleft" unicode="{" horiz-adv-x="288" 
d="M131 376c0 -52 -9 -81 -61 -90v-2c52 -9 61 -38 61 -90v-226c0 -66 26 -88 74 -88h28v-20h-27c-53 0 -95 32 -95 89v252c0 33 -2 67 -75 73v22c73 8 75 39 75 74v263c0 50 34 91 95 91h27v-21h-28c-41 0 -74 -25 -74 -71v-256z" />
    <glyph glyph-name="braceright" unicode="}" horiz-adv-x="288" 
d="M186 370c0 -35 2 -66 75 -74v-22c-73 -6 -75 -40 -75 -73v-252c0 -57 -42 -89 -95 -89h-27v20h28c48 0 74 22 74 88v226c0 52 9 81 61 90v2c-52 9 -61 38 -61 90v256c0 46 -33 71 -74 71h-28v21h27c61 0 95 -41 95 -91v-263z" />
    <glyph glyph-name="bracketleft" unicode="[" horiz-adv-x="259" 
d="M82 -140v864h141v-21h-120v-823h120v-20h-141z" />
    <glyph glyph-name="bracketright" unicode="]" horiz-adv-x="259" 
d="M187 -140h-141v20h120v823h-120v21h141v-864z" />
    <glyph glyph-name="parenleft" unicode="(" horiz-adv-x="231" 
d="M169 -136c-57 120 -101 258 -101 434c0 166 44 322 107 434l18 -11c-62 -112 -103 -261 -103 -423c0 -173 42 -304 99 -425z" />
    <glyph glyph-name="parenright" unicode=")" horiz-adv-x="231" 
d="M72 -136l-20 9c57 121 99 252 99 425c0 162 -41 311 -103 423l18 11c63 -112 107 -268 107 -434c0 -176 -44 -314 -101 -434z" />
    <glyph glyph-name="braceleft.case" horiz-adv-x="242" 
d="M131 422c0 -52 -9 -81 -61 -90v-2c52 -9 61 -38 61 -90v-226c0 -66 26 -88 74 -88h28v-20h-27c-53 0 -95 32 -95 89v252c0 33 -2 67 -75 73v22c73 8 75 39 75 74v263c0 50 34 91 95 91h27v-21h-28c-41 0 -74 -25 -74 -71v-256z" />
    <glyph glyph-name="braceright.case" horiz-adv-x="242" 
d="M141 416c0 -35 2 -66 75 -74v-22c-73 -6 -75 -40 -75 -73v-252c0 -57 -42 -89 -95 -89h-27v20h28c48 0 74 22 74 88v226c0 52 9 81 61 90v2c-52 9 -61 38 -61 90v256c0 46 -33 71 -74 71h-28v21h27c61 0 95 -41 95 -91v-263z" />
    <glyph glyph-name="bracketleft.case" horiz-adv-x="218" 
d="M82 -96v864h141v-21h-120v-823h120v-20h-141z" />
    <glyph glyph-name="bracketright.case" horiz-adv-x="218" 
d="M146 -95h-141v20h120v823h-120v21h141v-864z" />
    <glyph glyph-name="parenleft.case" horiz-adv-x="207" 
d="M169 -91c-57 120 -101 258 -101 434c0 166 44 322 107 434l18 -11c-62 -112 -103 -261 -103 -423c0 -173 42 -304 99 -425z" />
    <glyph glyph-name="parenright.case" horiz-adv-x="240" 
d="M91 -91l-20 9c57 121 99 252 99 425c0 162 -41 311 -103 423l18 11c63 -112 107 -268 107 -434c0 -176 -44 -314 -101 -434z" />
    <glyph glyph-name="emdash" unicode="&#x2014;" horiz-adv-x="1049" 
d="M58 286v21h933v-21h-933z" />
    <glyph glyph-name="endash" unicode="&#x2013;" horiz-adv-x="582" 
d="M58 286v21h466v-21h-466z" />
    <glyph glyph-name="uni2015" unicode="&#x2015;" horiz-adv-x="1198" 
d="M63 286v21h1072v-21h-1072z" />
    <glyph glyph-name="hyphen" unicode="-" horiz-adv-x="403" 
d="M58 296v23h288v-23h-288z" />
    <glyph glyph-name="emdash.case" horiz-adv-x="1031" 
d="M49 306v21h933v-21h-933z" />
    <glyph glyph-name="endash.case" horiz-adv-x="564" 
d="M49 306v21h466v-21h-466z" />
    <glyph glyph-name="uni2015.case" horiz-adv-x="1180" 
d="M53 305v22h1073v-22h-1073z" />
    <glyph glyph-name="hyphen.case" horiz-adv-x="374" 
d="M48 309v23h277v-23h-277z" />
    <glyph glyph-name="guillemotleft" unicode="&#xab;" horiz-adv-x="394" 
d="M199 13h-22l-130 231l130 229h22l-128 -229zM350 13h-22l-131 231l130 229h23l-129 -229z" />
    <glyph glyph-name="guillemotright" unicode="&#xbb;" horiz-adv-x="394" 
d="M54 13l129 231l-129 229h23l130 -229l-131 -231h-22zM205 13l128 231l-128 229h22l130 -229l-130 -231h-22z" />
    <glyph glyph-name="guilsinglleft" unicode="&#x2039;" horiz-adv-x="244" 
d="M199 13h-22l-131 231l130 229h23l-129 -229z" />
    <glyph glyph-name="guilsinglright" unicode="&#x203a;" horiz-adv-x="244" 
d="M54 13l129 231l-129 229h23l130 -229l-131 -231h-22z" />
    <glyph glyph-name="quotedblbase" unicode="&#x201e;" horiz-adv-x="241" 
d="M36 -73l35 217h26l-42 -217h-19zM119 -73l35 217h27l-42 -217h-20z" />
    <glyph glyph-name="quotedblleft" unicode="&#x201c;" horiz-adv-x="245" 
d="M122 710l-35 -217h-27l42 217h20zM205 710l-35 -217h-26l42 217h19z" />
    <glyph glyph-name="quotedblright" unicode="&#x201d;" horiz-adv-x="245" 
d="M50 493l35 217h26l-42 -217h-19zM133 493l35 217h27l-42 -217h-20z" />
    <glyph glyph-name="quoteleft" unicode="&#x2018;" horiz-adv-x="161" 
d="M121 710l-35 -217h-26l42 217h19z" />
    <glyph glyph-name="quoteright" unicode="&#x2019;" horiz-adv-x="161" 
d="M50 493l35 217h26l-42 -217h-19z" />
    <glyph glyph-name="quotesinglbase" unicode="&#x201a;" horiz-adv-x="157" 
d="M36 -128l35 218h27l-42 -218h-20z" />
    <glyph glyph-name="guillemotleft.case" horiz-adv-x="394" 
d="M199 58h-22l-130 231l130 229h22l-128 -229zM350 58h-22l-131 231l130 229h23l-129 -229z" />
    <glyph glyph-name="guillemotright.case" horiz-adv-x="394" 
d="M54 57l129 231l-129 229h23l130 -229l-131 -231h-22zM205 57l128 231l-128 229h22l130 -229l-130 -231h-22z" />
    <glyph glyph-name="anoteleia" unicode="&#x387;" horiz-adv-x="172" 
d="M86 437c-17 0 -29 12 -29 29s12 28 29 28s29 -11 29 -28s-12 -29 -29 -29z" />
    <glyph glyph-name="uni037E" unicode="&#x37e;" horiz-adv-x="174" 
d="M93 437c-17 0 -29 12 -29 29s12 28 29 28s29 -11 29 -28s-12 -29 -29 -29zM40 -128l35 218h27l-42 -218h-20z" />
    <glyph glyph-name="uni2003" unicode="&#x2003;" horiz-adv-x="934" 
 />
    <glyph glyph-name="uni2002" unicode="&#x2002;" horiz-adv-x="467" 
 />
    <glyph glyph-name="space" unicode=" " horiz-adv-x="280" 
 />
    <glyph glyph-name="uni2009" unicode="&#x2009;" horiz-adv-x="23" 
 />
    <glyph glyph-name="CR" horiz-adv-x="239" 
 />
    <glyph glyph-name="cent" unicode="&#xa2;" horiz-adv-x="528" 
d="M496 127c-40 -41 -107 -72 -178 -76v-114h-21v114c-143 3 -238 104 -238 245c0 142 96 243 238 246v125h21v-125c65 -3 130 -28 176 -77l-17 -16c-38 41 -100 71 -173 71c-132 0 -222 -93 -222 -224s89 -222 221 -222c68 0 136 26 177 70z" />
    <glyph glyph-name="currency" unicode="&#xa4;" horiz-adv-x="487" 
d="M424 384c0 -47 -18 -89 -47 -121l78 -77l-16 -16l-77 78c-32 -29 -74 -46 -121 -46s-89 18 -122 46l-77 -77l-15 16l77 77c-29 32 -46 74 -46 120c0 47 17 89 46 121l-77 78l15 15l77 -77c32 29 75 47 122 47c46 0 89 -17 121 -46l77 77l16 -15l-77 -78
c29 -32 46 -75 46 -122zM241 226c88 0 160 71 159 159c0 87 -71 159 -159 159c-87 0 -159 -72 -159 -159c1 -88 72 -159 159 -159z" />
    <glyph glyph-name="dollar" unicode="$" horiz-adv-x="542" 
d="M493 165c0 -93 -70 -166 -201 -167v-123h-23v124c-76 4 -150 36 -210 93l19 19c56 -55 132 -90 210 -90c101 0 182 51 182 144c0 106 -89 135 -194 169c-105 36 -204 65 -204 176c0 87 64 155 187 155h10v127h23v-129c58 -8 125 -33 169 -65l-17 -19
c-48 37 -130 63 -185 63c-92 0 -163 -47 -163 -132c0 -93 92 -121 188 -154c110 -37 209 -67 209 -191z" />
    <glyph glyph-name="dong" unicode="&#x20ab;" horiz-adv-x="598" 
d="M520 610h62v-22h-62v-588h-22v133h-2c-34 -80 -110 -136 -208 -136c-133 0 -241 96 -241 240c0 138 97 251 241 251c91 0 170 -53 207 -139h3v239h-164v22h164v126h22v-126zM288 19c115 0 210 87 210 218c0 126 -85 228 -210 228c-121 0 -219 -91 -219 -228
c0 -120 87 -218 219 -218zM64 -121v22h460v-22h-460z" />
    <glyph glyph-name="Euro" unicode="&#x20ac;" horiz-adv-x="583" 
d="M542 76l14 -19c-50 -36 -112 -60 -193 -60c-126 0 -260 93 -289 269h-61v23h58c-1 15 -2 31 -2 47s1 32 3 47h-59v23h62c25 155 135 272 288 272c68 0 132 -18 188 -57l-14 -20c-52 37 -110 54 -174 54c-139 0 -239 -106 -264 -249h337v-23h-340c-2 -15 -3 -31 -3 -47
s1 -32 3 -47h340v-23h-337c27 -161 148 -246 264 -246c76 0 132 21 179 56z" />
    <glyph glyph-name="florin" unicode="&#x192;" horiz-adv-x="505" 
d="M79 -91c-43 0 -82 13 -111 39l15 18c25 -24 58 -34 97 -34c54 0 97 28 108 121l53 390h-79l3 23h79l18 132c14 104 62 142 133 142c42 0 81 -14 110 -39l-14 -17c-27 22 -59 33 -97 33c-55 0 -98 -28 -110 -121l-16 -130h168l-3 -23h-169l-53 -391
c-13 -104 -62 -143 -132 -143z" />
    <glyph glyph-name="uni20BA" unicode="&#x20ba;" horiz-adv-x="490" 
d="M441 156l22 -10c-40 -110 -129 -146 -231 -146h-154v266l-62 -31l-9 22l71 35v80l-62 -31l-10 22l72 36v288h23v-277l180 89l10 -22l-190 -94v-79l180 89l10 -22l-190 -94v-254h128c123 0 183 50 212 133z" />
    <glyph glyph-name="sterling" unicode="&#xa3;" horiz-adv-x="548" 
d="M45 0v23h94v352h-72v23h72v76c0 151 87 215 184 215c78 0 135 -38 171 -99l-18 -15c-34 60 -86 91 -153 91c-96 0 -161 -68 -161 -195v-73h179v-23h-179v-352h363v-23h-480z" />
    <glyph glyph-name="yen" unicode="&#xa5;" horiz-adv-x="516" 
d="M500 686l-170 -287h128v-23h-142l-45 -76v-18h187v-23h-187v-259h-22v259h-191v23h191v18l-45 76h-146v23h132l-170 287h27l212 -359h2l213 359h26z" />
    <glyph glyph-name="uni2126" unicode="&#x2126;" horiz-adv-x="782" 
d="M508 24v-1h201v-23h-252v23c146 62 240 182 240 341c0 185 -124 326 -306 326s-306 -141 -306 -326c0 -159 95 -280 241 -341v-23h-253v23h203v1c-131 67 -214 188 -214 340c0 197 134 349 329 349s330 -152 330 -349c0 -151 -82 -273 -213 -340z" />
    <glyph glyph-name="approxequal" unicode="&#x2248;" horiz-adv-x="590" 
d="M407 341c-74 0 -136 48 -211 48c-59 0 -105 -26 -121 -38l-7 17c18 14 67 44 132 44c90 0 133 -49 210 -49c48 0 79 27 105 51l7 -19c-28 -27 -60 -54 -115 -54zM407 127c-74 0 -136 48 -211 48c-59 0 -105 -26 -121 -39l-7 18c18 13 67 44 132 44c90 -1 133 -49 210 -49
c48 0 79 27 105 50l7 -18c-28 -27 -60 -54 -115 -54z" />
    <glyph glyph-name="asciitilde" unicode="~" horiz-adv-x="540" 
d="M372 231c-41 0 -78 23 -115 42c-28 15 -58 26 -86 26c-39 0 -68 -21 -87 -61l-16 7c21 50 54 77 103 77c38 0 70 -16 101 -31c33 -17 66 -38 102 -38c32 0 64 18 81 61l16 -7c-21 -54 -62 -76 -99 -76z" />
    <glyph glyph-name="divide" unicode="&#xf7;" horiz-adv-x="587" 
d="M286 441c-16 0 -28 12 -28 27c0 17 12 27 28 27s27 -10 27 -27c0 -15 -11 -27 -27 -27zM64 265v22h460v-22h-460zM286 57c-16 0 -28 12 -28 27c0 17 12 27 28 27s27 -10 27 -27c0 -15 -11 -27 -27 -27z" />
    <glyph glyph-name="emptyset" unicode="&#x2205;" horiz-adv-x="670" 
d="M546 512c47 -51 75 -120 75 -194c0 -155 -126 -288 -286 -288c-75 0 -143 29 -193 77l-40 -40l-17 17l40 40c-47 51 -75 120 -75 194c0 156 126 288 286 288c75 0 143 -29 194 -76l33 33l17 -17zM72 318c0 -68 26 -131 68 -179l374 375c-46 43 -109 70 -178 70
c-148 0 -264 -122 -264 -266zM335 52c148 0 264 122 264 266c0 68 -26 131 -68 179l-374 -375c46 -43 109 -70 178 -70z" />
    <glyph glyph-name="equal" unicode="=" horiz-adv-x="556" 
d="M50 377v22h460v-22h-460zM50 153v22h460v-22h-460z" />
    <glyph glyph-name="greater" unicode="&#x3e;" horiz-adv-x="549" 
d="M73 65v25l394 193l-394 194v24l429 -210v-16z" />
    <glyph glyph-name="greaterequal" unicode="&#x2265;" horiz-adv-x="559" 
d="M73 133v25l394 193l-394 194v24l429 -210v-16zM74 -1v22h433v-22h-433z" />
    <glyph glyph-name="uni2206" unicode="&#x2206;" horiz-adv-x="624" 
d="M325 710l270 -689v-21h-17h-543h-6v21l267 689h29zM55 23h514l-257 659h-2z" />
    <glyph glyph-name="infinity" unicode="&#x221e;" horiz-adv-x="758" 
d="M555 422c83 0 153 -66 153 -151c0 -84 -70 -150 -153 -150c-62 0 -118 32 -177 128c-43 -73 -97 -128 -175 -128c-84 0 -153 66 -153 150c0 86 70 151 153 151c60 0 116 -31 175 -128c45 72 98 128 177 128zM204 143c54 0 105 32 162 128c-43 72 -92 128 -162 128
c-72 0 -131 -55 -131 -128c0 -72 59 -128 131 -128zM554 143c71 0 131 56 131 128c0 73 -60 128 -131 128c-54 0 -105 -31 -162 -128c42 -72 90 -128 162 -128z" />
    <glyph glyph-name="integral" unicode="&#x222b;" horiz-adv-x="274" 
d="M-31 -168v20h8c65 0 69 23 83 109l91 606c11 71 23 110 56 119c16 4 33 5 57 5v-19h-9c-65 0 -68 -17 -82 -109l-91 -609c-12 -69 -24 -106 -56 -117c-15 -4 -32 -5 -57 -5z" />
    <glyph glyph-name="less" unicode="&#x3c;" horiz-adv-x="552" 
d="M489 65l-429 210v16l429 210v-24l-394 -194l394 -193v-25z" />
    <glyph glyph-name="lessequal" unicode="&#x2264;" horiz-adv-x="557" 
d="M493 133l-429 210v16l429 210v-24l-394 -194l394 -193v-25zM492 -1h-433v22h433v-22z" />
    <glyph glyph-name="logicalnot" unicode="&#xac;" horiz-adv-x="571" 
d="M481 187v153h-413v22h435v-175h-22z" />
    <glyph glyph-name="uni00B5" unicode="&#xb5;" horiz-adv-x="549" 
d="M447 484h22v-484h-20l-3 125h-2c-33 -80 -101 -128 -181 -128c-79 0 -133 38 -160 100l-1 -1c0 -38 1 -76 1 -114v-180h-22v682h22v-265c0 -136 64 -200 160 -200c103 0 184 90 184 226v239z" />
    <glyph glyph-name="minus" unicode="&#x2212;" horiz-adv-x="596" 
d="M68 265v22h460v-22h-460z" />
    <glyph glyph-name="multiply" unicode="&#xd7;" horiz-adv-x="479" 
d="M75 97l-16 15l164 164l-164 164l16 16l163 -164l165 164l16 -15l-165 -165l164 -164l-16 -15l-164 163z" />
    <glyph glyph-name="notequal" unicode="&#x2260;" horiz-adv-x="556" 
d="M510 377h-169l-94 -202h263v-22h-273l-67 -143l-19 9l63 134h-164v22h174l94 202h-268v22h278l67 143l19 -9l-63 -134h159v-22z" />
    <glyph glyph-name="partialdiff" unicode="&#x2202;" horiz-adv-x="546" 
d="M269 690c178 0 235 -243 235 -403c0 -197 -99 -290 -234 -290c-138 0 -228 92 -228 213c0 132 86 219 218 219c102 0 179 -59 220 -132c-4 152 -51 371 -216 371c-60 0 -106 -23 -161 -51l-8 23c59 31 114 50 174 50zM270 21c114 0 199 77 209 228
c-28 78 -102 157 -219 157c-120 0 -195 -79 -195 -197c0 -108 80 -188 205 -188z" />
    <glyph glyph-name="percent" unicode="%" horiz-adv-x="938" 
d="M326 -7l-21 7l305 717l20 -8zM233 328c-108 0 -195 78 -195 194c0 106 78 192 195 192c107 0 196 -77 196 -192c0 -107 -78 -194 -196 -194zM233 350c105 0 174 76 174 172c0 103 -77 170 -174 170c-105 0 -173 -75 -173 -170c0 -104 77 -172 173 -172zM695 -3
c-107 0 -195 77 -195 193c0 106 78 192 195 192c108 0 196 -76 196 -192c0 -107 -78 -193 -196 -193zM695 18c105 0 174 76 174 172c0 103 -77 170 -174 170c-105 0 -174 -75 -174 -170c0 -103 78 -172 174 -172z" />
    <glyph glyph-name="perthousand" unicode="&#x2030;" horiz-adv-x="1383" 
d="M326 -7l-21 7l305 717l20 -8zM233 328c-108 0 -195 78 -195 194c0 106 78 192 195 192c107 0 196 -77 196 -192c0 -107 -78 -194 -196 -194zM233 350c105 0 174 76 174 172c0 103 -77 170 -174 170c-105 0 -173 -75 -173 -170c0 -104 77 -172 173 -172zM695 -3
c-107 0 -195 77 -195 193c0 106 78 192 195 192c108 0 196 -76 196 -192c0 -107 -78 -193 -196 -193zM1141 -3c-108 0 -196 77 -196 193c0 106 78 192 196 192c108 0 196 -76 196 -192c0 -107 -79 -193 -196 -193zM695 18c105 0 174 76 174 172c0 103 -77 170 -174 170
c-105 0 -174 -75 -174 -170c0 -103 78 -172 174 -172zM1141 18c105 0 174 76 174 172c0 103 -78 170 -174 170c-105 0 -174 -75 -174 -170c0 -103 77 -172 174 -172z" />
    <glyph glyph-name="plus" unicode="+" horiz-adv-x="583" 
d="M280 46v219h-219v22h219v220h22v-220h219v-22h-219v-219h-22z" />
    <glyph glyph-name="plusminus" unicode="&#xb1;" horiz-adv-x="569" 
d="M273 140v219h-219v22h219v220h22v-220h219v-22h-219v-219h-22zM54 0v22h460v-22h-460z" />
    <glyph glyph-name="product" unicode="&#x220f;" horiz-adv-x="653" 
d="M81 -99v809h492v-809h-23v787h-446v-787h-23z" />
    <glyph glyph-name="radical" unicode="&#x221a;" horiz-adv-x="646" 
d="M658 822h24l-357 -822h-22l-167 499h-105v23h122l162 -486h2z" />
    <glyph glyph-name="uni2236" unicode="&#x2236;" horiz-adv-x="172" 
d="M82 500c-17 0 -29 12 -29 29s12 28 29 28s29 -11 29 -28s-12 -29 -29 -29zM82 53c-17 0 -29 12 -29 29s12 28 29 28s29 -11 29 -28s-12 -29 -29 -29z" />
    <glyph glyph-name="summation" unicode="&#x2211;" horiz-adv-x="569" 
d="M540 710v-22h-456l230 -379l-229 -381h455v-23h-484v21l230 383l-230 380v21h484z" />
    <glyph glyph-name="plus.case" horiz-adv-x="583" 
d="M280 90v219h-219v22h219v220h22v-220h219v-22h-219v-219h-22z" />
    <glyph glyph-name="uni2713" unicode="&#x2713;" horiz-adv-x="589" 
d="M211 115l-193 200l16 15l173 -180l368 602l19 -12z" />
    <glyph glyph-name="uni2715" unicode="&#x2715;" horiz-adv-x="387" 
d="M29 97l-16 15l165 164l-165 164l16 16l164 -164l165 164l16 -15l-166 -165l165 -164l-16 -15l-164 163z" />
    <glyph glyph-name="bar" unicode="|" horiz-adv-x="241" 
d="M109 -115v852h22v-852h-22z" />
    <glyph glyph-name="brokenbar" unicode="&#xa6;" horiz-adv-x="241" 
d="M109 386v351h23v-351h-23zM109 -114v354h23v-354h-23z" />
    <glyph glyph-name="at" unicode="@" horiz-adv-x="896" 
d="M482 650c208 0 363 -136 363 -351c0 -92 -50 -254 -180 -254c-49 0 -77 28 -77 90c0 7 1 15 2 28h-3c-32 -68 -102 -107 -178 -107c-97 0 -181 75 -181 192c0 95 64 218 215 218c75 0 137 -44 162 -114h1l11 111h22l-26 -286c-2 -13 -2 -25 -2 -35c0 -68 25 -74 54 -74
c113 0 157 147 157 230c0 202 -143 330 -340 330c-294 0 -407 -228 -407 -399c0 -195 143 -336 331 -336c87 0 161 18 223 53l14 -19c-66 -37 -145 -57 -237 -57c-200 0 -354 150 -354 359c0 166 109 421 430 421zM411 79c135 0 188 121 188 198c0 94 -60 166 -154 166
c-134 0 -194 -102 -194 -191c0 -99 66 -173 160 -173z" />
    <glyph glyph-name="ampersand" unicode="&#x26;" horiz-adv-x="619" 
d="M559 0l-82 91h-1c-46 -55 -116 -94 -214 -94c-121 0 -217 77 -217 197c0 82 56 172 145 214l-99 109c0 119 73 197 194 197c90 0 156 -49 181 -123l-22 -9c-21 66 -78 109 -159 109c-110 0 -169 -65 -169 -167l357 -396h3c37 56 53 124 53 186h23
c0 -66 -19 -142 -61 -203v-2l98 -109h-30zM262 19c92 0 156 37 199 89l-255 282c-78 -36 -138 -114 -138 -196c0 -97 76 -175 194 -175z" />
    <glyph glyph-name="paragraph" unicode="&#xb6;" horiz-adv-x="356" 
d="M243 -148v754h-60v-606h-22v417c-67 0 -116 37 -116 105c0 69 45 107 114 107h106v-777h-22z" />
    <glyph glyph-name="copyright" unicode="&#xa9;" horiz-adv-x="661" 
d="M331 30c-160 0 -286 132 -286 288s126 288 287 288c160 0 284 -131 284 -288c0 -155 -125 -288 -285 -288zM331 52c147 0 263 122 263 266s-115 266 -262 266c-148 0 -265 -122 -265 -266c0 -145 116 -266 264 -266zM339 154c-88 0 -159 57 -159 161c0 92 55 165 159 165
c46 0 90 -18 125 -61l-18 -14c-29 37 -68 53 -107 53c-90 0 -137 -61 -137 -143c0 -91 60 -139 137 -139c49 0 83 21 107 53l18 -15c-28 -35 -67 -60 -125 -60z" />
    <glyph glyph-name="registered" unicode="&#xae;" horiz-adv-x="661" 
d="M332 606c160 0 284 -131 284 -288c0 -155 -125 -288 -285 -288s-286 132 -286 288s126 288 287 288zM331 52c147 0 263 122 263 266s-115 266 -262 266c-148 0 -265 -122 -265 -266c0 -145 116 -266 264 -266zM443 391c0 -58 -34 -87 -87 -93l101 -140h-27l-100 139h-70
v-139h-22v324h105c71 0 100 -40 100 -91zM260 460v-142h77c67 0 84 36 84 73c0 44 -29 69 -75 69h-86z" />
    <glyph glyph-name="section" unicode="&#xa7;" horiz-adv-x="504" 
d="M354 115c48 -25 82 -59 82 -119c0 -83 -67 -148 -181 -148c-71 0 -145 27 -196 87l16 17c43 -55 114 -80 178 -80c85 0 160 42 160 123s-77 106 -165 138c-100 36 -194 66 -194 161c0 61 40 111 107 129c-45 26 -79 61 -79 120c0 79 64 140 163 140c59 0 127 -24 172 -60
l-16 -18c-44 36 -107 55 -154 55c-70 0 -142 -39 -142 -116c0 -82 79 -110 159 -139c98 -35 186 -59 186 -159c0 -60 -34 -108 -96 -131zM78 295c0 -78 79 -105 176 -140c25 -9 49 -17 71 -26c59 15 102 54 102 115c0 86 -78 105 -169 138c-22 8 -44 16 -66 26
c-63 -10 -114 -49 -114 -113z" />
    <glyph glyph-name="trademark" unicode="&#x2122;" horiz-adv-x="658" 
d="M121 387v302h-103v21h228v-21h-103v-302h-22zM301 387v323h24l132 -227l132 227h24v-323h-23v281l-124 -213h-18l-125 213v-281h-22z" />
    <glyph glyph-name="degree" unicode="&#xb0;" horiz-adv-x="385" 
d="M192 452c-72 0 -133 59 -133 131c0 71 63 131 133 131c71 0 134 -60 134 -133c0 -70 -61 -129 -134 -129zM192 474c61 0 113 49 113 107c0 61 -54 111 -113 111c-58 0 -111 -50 -111 -109c0 -61 50 -109 111 -109z" />
    <glyph glyph-name="estimated" unicode="&#x212e;" horiz-adv-x="772" 
d="M386 -10c-195 0 -324 144 -324 321c0 192 145 321 324 321c195 0 324 -145 324 -321v-9h-570v-165c63 -95 169 -125 247 -125c77 0 159 34 205 87h34c-54 -70 -153 -109 -240 -109zM140 325h485l1 170c-56 78 -157 114 -239 114c-89 0 -192 -38 -245 -124z" />
    <glyph glyph-name="uni2113" unicode="&#x2113;" horiz-adv-x="428" 
d="M394 97l16 -14c-42 -57 -100 -86 -166 -86c-93 0 -145 68 -145 163c-18 -13 -37 -29 -56 -43l-11 16c24 19 46 35 67 54l2 276c1 164 72 216 148 216c70 0 104 -54 104 -146c0 -105 -82 -219 -204 -330v-25c0 -119 54 -160 108 -160c59 0 111 44 137 79zM249 656
c-54 0 -100 -37 -100 -184v-240c116 110 180 205 180 303c0 80 -19 121 -80 121z" />
    <glyph glyph-name="uni2116" unicode="&#x2116;" horiz-adv-x="1146" 
d="M919 415c-90 0 -150 66 -150 148s60 148 150 148c83 0 149 -60 149 -148s-66 -148 -149 -148zM615 40v670h23v-710h-23l-502 669h-1v-669h-23v710h22l503 -670h1zM919 689c-77 0 -127 -57 -127 -126c0 -68 50 -125 127 -125c70 0 127 50 127 125s-57 126 -127 126z
M776 322v21h289v-21h-289z" />
    <glyph glyph-name="asciicircum" unicode="^" horiz-adv-x="453" 
d="M68 500l146 210h25l146 -210h-28l-131 188l-130 -188h-28z" />
    <glyph glyph-name="dagger" unicode="&#x2020;" horiz-adv-x="392" 
d="M197 275l-12 27l2 143v114h-22l-108 -3v27l108 -2h21v103h25l-3 -103l127 1v-26l-108 3h-20v-114l4 -143z" />
    <glyph glyph-name="daggerdbl" unicode="&#x2021;" horiz-adv-x="392" 
d="M186 63v102l-129 -1v26l108 -2h22v131l-2 63l2 63v114h-22l-108 -3v27l108 -2h21v103h25l-3 -103l127 1v-26l-108 3h-20v-114l4 -63l-4 -63v-131h20l108 3v-26h-127l3 -102h-25z" />
    <glyph glyph-name="at.case" horiz-adv-x="886" 
d="M482 719c208 0 363 -136 363 -351c0 -92 -50 -254 -180 -254c-49 0 -77 28 -77 90c0 7 1 15 2 28h-3c-32 -68 -102 -107 -178 -107c-97 0 -181 75 -181 192c0 95 64 218 215 218c75 0 137 -44 162 -114h1l11 111h22l-26 -286c-2 -13 -2 -25 -2 -35c0 -68 25 -74 54 -74
c113 0 157 147 157 230c0 202 -143 330 -340 330c-294 0 -407 -228 -407 -399c0 -195 143 -336 331 -336c87 0 161 18 223 53l14 -19c-66 -37 -145 -57 -237 -57c-200 0 -354 150 -354 359c0 166 109 421 430 421zM411 148c135 0 188 121 188 198c0 94 -60 166 -154 166
c-134 0 -194 -102 -194 -191c0 -99 66 -173 160 -173z" />
    <glyph glyph-name="uni0374" unicode="&#x374;" horiz-adv-x="233" 
d="M49 490l54 230h25l-56 -230h-23z" />
    <glyph glyph-name="uni0375" unicode="&#x375;" horiz-adv-x="210" 
d="M79 -136l54 230h25l-56 -230h-23z" />
    <glyph glyph-name="acute" unicode="&#xb4;" horiz-adv-x="508" 
d="M193 548l123 135h31l-124 -135h-30z" />
    <glyph glyph-name="breve" unicode="&#x2d8;" horiz-adv-x="478" 
d="M239 548c-62 0 -117 44 -122 127h21c4 -60 40 -105 101 -105s97 45 100 105h22c-6 -83 -60 -127 -122 -127z" />
    <glyph glyph-name="caron" unicode="&#x2c7;" horiz-adv-x="530" 
d="M372 683h29l-125 -136h-25l-122 136h29l105 -118h4z" />
    <glyph glyph-name="cedilla" unicode="&#xb8;" horiz-adv-x="397" 
d="M187 -35c38 -3 79 -30 79 -77c0 -38 -30 -72 -85 -72c-16 0 -34 2 -49 6v23c13 -4 27 -7 45 -7c35 0 66 16 66 51c0 28 -26 57 -82 57l1 19l19 41h22l-17 -40z" />
    <glyph glyph-name="circumflex" unicode="&#x2c6;" horiz-adv-x="530" 
d="M372 547l-106 119h-2l-106 -119h-29l122 136h25l125 -136h-29z" />
    <glyph glyph-name="dieresis" unicode="&#xa8;" horiz-adv-x="497" 
d="M175 593c-16 0 -28 12 -28 27c0 17 12 27 28 27s27 -10 27 -27c0 -15 -11 -27 -27 -27zM322 593c-16 0 -28 12 -28 27c0 17 12 27 28 27s27 -10 27 -27c0 -15 -11 -27 -27 -27z" />
    <glyph glyph-name="dotaccent" unicode="&#x2d9;" horiz-adv-x="481" 
d="M241 593c-16 0 -28 12 -28 27c0 17 12 27 28 27s27 -10 27 -27c0 -15 -11 -27 -27 -27z" />
    <glyph glyph-name="grave" unicode="`" horiz-adv-x="508" 
d="M285 548l-124 135h30l123 -135h-29z" />
    <glyph glyph-name="hungarumlaut" unicode="&#x2dd;" horiz-adv-x="519" 
d="M120 548l122 135h31l-124 -135h-29zM244 548l122 135h31l-125 -135h-28z" />
    <glyph glyph-name="macron" unicode="&#xaf;" horiz-adv-x="481" 
d="M107 606v23h267v-23h-267z" />
    <glyph glyph-name="ogonek" unicode="&#x2db;" horiz-adv-x="467" 
d="M270 -181c-51 0 -84 26 -84 76c0 39 29 86 87 119l15 -14c-48 -25 -79 -66 -79 -104c0 -31 18 -54 61 -54c29 0 41 4 59 13l4 -23c-16 -8 -33 -13 -63 -13z" />
    <glyph glyph-name="ring" unicode="&#x2da;" horiz-adv-x="433" 
d="M216 542c-39 0 -73 34 -73 73c0 40 34 73 73 73c40 0 74 -33 74 -73c0 -39 -34 -73 -74 -73zM216 565c28 0 52 23 52 50c0 28 -24 51 -52 51s-51 -23 -51 -51c0 -27 23 -50 51 -50z" />
    <glyph glyph-name="tilde" unicode="&#x2dc;" horiz-adv-x="528" 
d="M342 568c-32 0 -61 23 -88 42c-21 15 -42 27 -63 27c-28 0 -50 -22 -64 -61l-21 6c17 50 43 77 84 77c30 0 54 -15 77 -31c24 -16 48 -38 74 -38c24 0 48 19 60 62l21 -7c-16 -54 -49 -77 -80 -77z" />
    <glyph glyph-name="dieresis.short" horiz-adv-x="497" 
d="M175 593c-16 0 -28 12 -28 27c0 17 12 27 28 27s27 -10 27 -27c0 -15 -11 -27 -27 -27zM322 593c-16 0 -27 12 -27 27c0 17 11 27 27 27s28 -10 28 -27c0 -15 -12 -27 -28 -27z" />
    <glyph glyph-name="tilde.short" horiz-adv-x="528" 
d="M342 568c-32 0 -61 23 -88 42c-21 15 -42 27 -63 27c-28 0 -50 -22 -64 -61l-21 6c17 50 43 77 84 77c30 0 54 -15 77 -31c24 -16 48 -38 74 -38c24 0 48 19 60 62l21 -7c-16 -54 -49 -77 -80 -77z" />
    <glyph glyph-name="tonos" unicode="&#x384;" horiz-adv-x="458" 
d="M195 548l60 153h27l-62 -153h-25z" />
    <glyph glyph-name="dieresistonos" unicode="&#x385;" horiz-adv-x="603" 
d="M282 548l60 153h27l-62 -153h-25zM176 593c-16 0 -27 12 -27 27c0 17 11 27 27 27s28 -10 28 -27c0 -15 -12 -27 -28 -27zM429 593c-16 0 -27 12 -27 27c0 17 11 27 27 27s28 -10 28 -27c0 -15 -12 -27 -28 -27z" />
    <glyph glyph-name="NULL" horiz-adv-x="0" 
 />
    <glyph glyph-name="KB" horiz-adv-x="914" 
d="M468 -1c-130 0 -218 57 -254 131l21 9c52 -69 117 -94 201 -94c64 0 121 28 121 101c0 57 -60 119 -161 157c-6 -22 -13 -47 -19 -74c23 -4 47 -9 71 -17l-5 -36h-248l-1 34c29 20 62 38 98 50l73 382l-65 19l-2 30c26 16 68 29 118 29l69 -35l-63 -194l-66 -189l10 -2
c50 184 127 244 221 244c70 0 122 -29 122 -98c0 -74 -59 -136 -195 -136c-22 0 -45 1 -69 4v-9c105 -13 257 -38 257 -152c0 -85 -81 -154 -234 -154zM405 330c133 5 173 74 173 124c0 27 -15 50 -41 50c-28 0 -86 -42 -132 -174zM44 -146l-12 39h7l8 -28l8 28h7l7 -28
l9 28h6l-12 -39h-6l-8 29l-8 -29h-6zM100 -146l-12 39h7l9 -28l7 28h7l7 -28l9 28h7l-12 -39h-6l-8 29l-9 -29h-6zM157 -146l-12 39h6l9 -28l7 28h7l8 -28l8 28h7l-12 -39h-6l-8 29l-8 -29h-6zM213 -146v39h7v-19l15 19h8l-14 -18l15 -21h-9l-11 16l-4 -5v-11h-7zM265 -146
c-12 0 -20 8 -20 20c0 11 8 19 20 19c11 0 19 -8 19 -19c0 -13 -8 -20 -19 -20zM304 -146c-5 0 -11 1 -14 6l3 5c3 -4 7 -5 11 -5s6 1 6 4c0 4 -2 5 -7 7c-6 2 -12 4 -12 11c0 6 5 11 12 11c5 0 9 -1 13 -5l-4 -5c-3 3 -6 4 -9 4s-5 -1 -5 -4s2 -4 7 -6c7 -2 12 -4 12 -12
s-7 -11 -13 -11zM332 -146v33h-12v6h29v-6h-11v-33h-6zM348 -146l15 39h6l15 -39h-7l-3 8h-16l-3 -8h-7zM401 -146c-5 0 -10 1 -14 6l4 5c3 -4 6 -5 10 -5s6 1 6 4c0 4 -2 5 -7 7c-6 2 -12 4 -12 11c0 6 6 11 12 11c5 0 9 -1 13 -5l-4 -5c-3 3 -6 4 -9 4s-5 -1 -5 -4
s2 -4 7 -6c7 -2 12 -4 12 -12s-7 -11 -13 -11zM421 -146v39h14c8 0 13 -3 13 -10c0 -4 -2 -7 -6 -8c4 -1 8 -5 8 -10c0 -7 -5 -11 -13 -11h-16zM453 -146l14 39h7l14 -39h-7l-2 8h-16l-3 -8h-7zM494 -146v39h15c9 0 13 -6 13 -13c0 -6 -3 -10 -9 -11l10 -15h-8l-9 14h-5v-14
h-7zM537 -146v33h-11v6h29v-6h-12v-33h-6zM573 -146c-5 0 -10 1 -14 6l4 5c2 -4 6 -5 10 -5s6 1 6 4c0 4 -2 5 -7 7c-6 2 -12 4 -12 11c0 6 5 11 12 11c5 0 9 -1 13 -5l-4 -5c-3 3 -6 4 -9 4s-5 -1 -5 -4s2 -4 7 -6c7 -2 12 -4 12 -12s-7 -11 -13 -11zM611 -146
c-11 0 -19 8 -19 20c0 11 8 19 19 19c12 0 20 -8 20 -19c0 -13 -8 -20 -20 -20zM638 -146v39h7v-19l15 19h8l-14 -18l15 -21h-8l-12 16l-4 -5v-11h-7zM671 -146l15 39h6l15 -39h-7l-3 8h-16l-3 -8h-7zM724 -146c-5 0 -10 1 -14 6l4 5c3 -4 7 -5 10 -5c4 0 6 1 6 4
c0 4 -2 5 -7 7c-6 2 -12 4 -12 11c0 6 6 11 12 11c5 0 9 -1 13 -5l-4 -5c-3 3 -6 4 -9 4s-5 -1 -5 -4s3 -4 7 -6c7 -2 12 -4 12 -12s-7 -11 -13 -11zM774 -146c-11 0 -20 6 -20 19c0 11 7 20 20 20c5 0 11 -2 15 -7l-5 -4c-2 3 -6 5 -10 5c-8 0 -13 -6 -13 -14s6 -13 13 -13
c4 0 8 2 10 5l5 -4c-3 -4 -8 -7 -15 -7zM813 -146c-11 0 -19 8 -19 20c0 11 8 19 19 19c12 0 20 -8 20 -19c0 -13 -8 -20 -20 -20zM841 -146v39h6l13 -23l13 23h6v-39h-6v26l-11 -19h-4l-11 19v-26h-6zM265 -140c7 0 12 5 12 14c0 7 -5 13 -12 13c-8 0 -13 -6 -13 -13
c0 -8 5 -14 13 -14zM428 -124h7c3 0 6 2 6 6c0 3 -2 5 -7 5h-6v-11zM501 -126h6c6 0 8 2 8 6s-3 7 -7 7h-7v-13zM611 -140c7 0 13 5 13 14c0 7 -6 13 -13 13s-12 -6 -12 -13c0 -8 5 -14 12 -14zM813 -140c8 0 13 5 13 14c0 7 -5 13 -13 13c-7 0 -12 -6 -12 -13
c0 -8 5 -14 12 -14zM360 -132h12l-6 17zM465 -132h12l-6 17zM683 -132h12l-6 17zM428 -140h7c4 0 8 2 8 5c0 4 -3 6 -8 6h-7v-11zM202 -146c-3 0 -4 1 -4 3c0 3 1 5 4 5c2 0 4 -2 4 -5c0 -2 -2 -3 -4 -3zM747 -146c-3 0 -5 1 -5 3c0 3 2 5 5 5c2 0 3 -2 3 -5
c0 -2 -1 -3 -3 -3z" />
    <glyph glyph-name="jacute" horiz-adv-x="176" 
d="M83 575l123 135h31l-124 -135h-30zM4 -201c-16 0 -43 4 -63 14l3 24c20 -12 45 -16 62 -16c45 0 77 25 77 94v569h22v-569c0 -60 -21 -116 -101 -116z" />
    <glyph glyph-name="Jacute" horiz-adv-x="467" 
d="M365 795l123 135h31l-124 -135h-30zM212 -3c-57 0 -131 32 -186 94l14 18c52 -56 111 -89 172 -89c92 0 154 50 154 193v497h23v-502c0 -146 -64 -211 -177 -211z" />
    </font>
</defs>
</svg>
