<?xml version="1.0" standalone="no"?>
<!DOCTYPE svg PUBLIC "-//W3C//DTD SVG 1.1//EN" "http://www.w3.org/Graphics/SVG/1.1/DTD/svg11.dtd" >
<svg xmlns="http://www.w3.org/2000/svg" xmlns:xlink="http://www.w3.org/1999/xlink" version="1.1">
<metadata>
Created by FontForge 20170910 at Sat Jan  2 15:04:25 2016
 By Jimmy Wärting
Copyright (c) 2015 by Kostas Bartsokas. All rights reserved.
</metadata>
<defs>
<font id="AvertaStd-Light" horiz-adv-x="586" >
  <font-face 
    font-family="Averta Std Light"
    font-weight="300"
    font-stretch="normal"
    units-per-em="1000"
    panose-1="0 0 4 0 0 0 0 0 0 0"
    ascent="772"
    descent="-228"
    x-height="486"
    cap-height="710"
    bbox="-159 -256 1382 972"
    underline-thickness="30"
    underline-position="-78"
    stemh="48"
    stemv="52"
    unicode-range="U+0020-2715"
  />
<missing-glyph horiz-adv-x="449" 
 />
    <glyph glyph-name=".notdef" horiz-adv-x="449" 
 />
    <glyph glyph-name="A" unicode="A" horiz-adv-x="667" 
d="M576 0l-71 188h-343l-71 -188h-60l272 710h59l275 -710h-61zM182 242h303l-151 400h-2z" />
    <glyph glyph-name="Aacute" unicode="&#xc1;" horiz-adv-x="667" 
d="M501 934l-124 -139h-62l120 139h66zM576 0l-71 188h-343l-71 -188h-60l272 710h59l275 -710h-61zM182 242h303l-151 400h-2z" />
    <glyph glyph-name="Abreve" unicode="&#x102;" horiz-adv-x="667" 
d="M333 794c-68 0 -129 48 -134 134h46c4 -51 35 -90 88 -90c52 0 84 38 87 90h47c-6 -83 -62 -134 -134 -134zM576 0l-71 188h-343l-71 -188h-60l272 710h59l275 -710h-61zM182 242h303l-151 400h-2z" />
    <glyph glyph-name="uni1EAE" unicode="&#x1eae;" horiz-adv-x="667" 
d="M503 945l-147 -105h-55l137 106zM333 752c-67 0 -116 38 -139 102h41c20 -42 54 -65 98 -65s78 23 98 65h41c-23 -64 -72 -102 -139 -102zM576 0l-71 188h-343l-71 -188h-60l272 710h59l275 -710h-61zM182 242h303l-151 400h-2z" />
    <glyph glyph-name="uni1EB6" unicode="&#x1eb6;" horiz-adv-x="667" 
d="M331 794c-68 0 -129 48 -134 134h46c4 -51 35 -90 88 -90c52 0 84 38 87 90h47c-6 -83 -62 -134 -134 -134zM637 0h-61l-71 188h-343l-71 -188h-60l272 710h59zM182 242h303l-151 400h-2zM331 -120c26 0 45 -19 45 -44s-19 -44 -45 -44c-25 0 -44 19 -44 44s19 44 44 44z
" />
    <glyph glyph-name="uni1EB0" unicode="&#x1eb0;" horiz-adv-x="667" 
d="M368 840h-55l-148 105l66 1zM235 854c20 -42 54 -65 98 -65s78 23 98 65h41c-23 -64 -72 -102 -139 -102s-116 38 -139 102h41zM576 0l-71 188h-343l-71 -188h-60l272 710h59l275 -710h-61zM182 242h303l-151 400h-2z" />
    <glyph glyph-name="uni1EB2" unicode="&#x1eb2;" horiz-adv-x="667" 
d="M338 930c-26 0 -52 -13 -66 -31l-23 22c21 23 53 42 94 42c38 0 68 -23 68 -58c0 -36 -36 -56 -67 -72l-5 -24h-18c-9 6 -12 10 -12 20c0 31 66 38 66 75c0 24 -25 26 -37 26zM333 752c-67 0 -116 38 -139 102h41c20 -42 54 -65 98 -65s78 23 98 65h41
c-23 -64 -72 -102 -139 -102zM576 0l-71 188h-343l-71 -188h-60l272 710h59l275 -710h-61zM182 242h303l-151 400h-2z" />
    <glyph glyph-name="uni1EB4" unicode="&#x1eb4;" horiz-adv-x="667" 
d="M267 926c-21 0 -39 -14 -51 -46l-33 12c15 44 43 68 80 68c30 0 53 -15 74 -28c17 -12 35 -21 55 -21c21 0 42 11 52 45l33 -11c-16 -48 -47 -69 -80 -69c-28 0 -51 13 -72 26c-20 12 -38 24 -58 24zM333 789c43 0 78 23 97 65h41c-22 -64 -72 -102 -138 -102
c-67 0 -117 38 -139 102h41c19 -42 54 -65 98 -65zM576 0l-71 188h-343l-71 -188h-60l272 710h59l275 -710h-61zM182 242h303l-151 400h-2z" />
    <glyph glyph-name="Acircumflex" unicode="&#xc2;" horiz-adv-x="667" 
d="M330 892l-83 -97h-61l120 140h51l122 -140h-62l-83 97h-4zM576 0l-71 188h-343l-71 -188h-60l272 710h59l275 -710h-61zM182 242h303l-151 400h-2z" />
    <glyph glyph-name="uni1EA4" unicode="&#x1ea4;" horiz-adv-x="667" 
d="M642 947l-135 -138h-48l120 138h63zM329 865l-83 -97h-61l120 140h51l122 -140h-62l-83 97h-4zM303 710h59l275 -710h-61l-71 188h-343l-71 -188h-60zM182 242h303l-151 400h-2z" />
    <glyph glyph-name="uni1EAC" unicode="&#x1eac;" horiz-adv-x="667" 
d="M328 892l-83 -97h-61l120 140h51l122 -140h-62l-83 97h-4zM637 0h-61l-71 188h-343l-71 -188h-60l272 710h59zM182 242h303l-151 400h-2zM331 -120c26 0 45 -19 45 -44s-19 -44 -45 -44c-25 0 -44 19 -44 44s19 44 44 44z" />
    <glyph glyph-name="uni1EA6" unicode="&#x1ea6;" horiz-adv-x="667" 
d="M560 809h-48l-125 138h63zM331 865l-83 -97h-61l120 140h51l122 -140h-62l-83 97h-4zM576 0l-71 188h-343l-71 -188h-60l272 710h59l275 -710h-61zM182 242h303l-151 400h-2z" />
    <glyph glyph-name="uni1EA8" unicode="&#x1ea8;" horiz-adv-x="667" 
d="M515 919c-28 0 -54 -13 -69 -32l-25 24c22 24 57 43 99 43c51 0 82 -31 82 -71c0 -39 -38 -64 -81 -80l-4 -28h-26c-7 9 -11 15 -11 25c0 32 81 43 81 82c0 27 -24 37 -46 37zM329 865l-83 -97h-61l120 140h51l122 -140h-62l-83 97h-4zM576 0l-71 188h-343l-71 -188h-60
l272 710h59l275 -710h-61zM182 242h303l-151 400h-2z" />
    <glyph glyph-name="uni1EAA" unicode="&#x1eaa;" horiz-adv-x="667" 
d="M267 926c-22 0 -40 -14 -52 -46l-32 12c15 44 42 68 79 68c31 0 53 -15 75 -28c17 -12 34 -21 55 -21s41 11 52 45l32 -11c-15 -48 -46 -69 -80 -69c-27 0 -50 13 -71 26c-20 12 -39 24 -58 24zM304 856h51l122 -122h-55l-89 91h-4l-90 -91h-54zM576 0l-71 188h-343
l-71 -188h-60l272 710h59l275 -710h-61zM182 242h303l-151 400h-2z" />
    <glyph glyph-name="Adieresis" unicode="&#xc4;" horiz-adv-x="667" 
d="M251 827c-26 0 -44 19 -44 44s18 44 44 44c25 0 44 -19 44 -44s-19 -44 -44 -44zM416 828c-24 0 -44 19 -44 43s20 43 44 43c25 0 43 -19 43 -43s-18 -43 -43 -43zM576 0l-71 188h-343l-71 -188h-60l272 710h59l275 -710h-61zM182 242h303l-151 400h-2z" />
    <glyph glyph-name="uni1EA0" unicode="&#x1ea0;" horiz-adv-x="667" 
d="M637 0h-61l-71 188h-343l-71 -188h-60l272 710h59zM182 242h303l-151 400h-2zM331 -120c26 0 45 -19 45 -44s-19 -44 -45 -44c-25 0 -44 19 -44 44s19 44 44 44z" />
    <glyph glyph-name="Agrave" unicode="&#xc0;" horiz-adv-x="667" 
d="M363 795h-62l-124 139h66zM576 0l-71 188h-343l-71 -188h-60l272 710h59l275 -710h-61zM182 242h303l-151 400h-2z" />
    <glyph glyph-name="uni1EA2" unicode="&#x1ea2;" horiz-adv-x="667" 
d="M336 914c-28 0 -54 -13 -69 -32l-25 24c22 24 56 43 99 43c52 0 83 -31 83 -71c0 -39 -37 -63 -82 -80l-5 -27h-25c-7 8 -11 14 -11 24c0 32 82 43 82 82c0 28 -26 37 -47 37zM576 0l-71 188h-343l-71 -188h-60l272 710h59l275 -710h-61zM182 242h303l-151 400h-2z" />
    <glyph glyph-name="Amacron" unicode="&#x100;" horiz-adv-x="667" 
d="M472 892v-51h-277v51h277zM576 0l-71 188h-343l-71 -188h-60l272 710h59l275 -710h-61zM182 242h303l-151 400h-2z" />
    <glyph glyph-name="Aogonek" unicode="&#x104;" horiz-adv-x="667" 
d="M658 -128l5 -42c-17 -9 -37 -13 -66 -13c-56 0 -92 29 -92 79c0 34 25 76 70 106l-70 186h-343l-71 -188h-60l272 710h59l275 -710h-6c-48 -19 -77 -56 -77 -91c0 -28 16 -48 53 -48c27 0 36 3 51 11zM182 242h303l-151 400h-2z" />
    <glyph glyph-name="Aring" unicode="&#xc5;" horiz-adv-x="667" 
d="M333 779c-49 0 -91 39 -91 89c0 49 40 89 91 89c49 0 91 -39 91 -89c0 -49 -40 -89 -91 -89zM333 914c-25 0 -46 -21 -46 -46s21 -45 46 -45s46 20 46 45s-21 46 -46 46zM576 0l-71 188h-343l-71 -188h-60l272 710h59l275 -710h-61zM182 242h303l-151 400h-2z" />
    <glyph glyph-name="Aringacute" unicode="&#x1fa;" horiz-adv-x="667" 
d="M336 778c-49 0 -91 39 -91 89c0 49 40 89 91 89c29 0 56 -14 72 -35l75 51h73l-130 -91c1 -4 1 -9 1 -14c0 -49 -40 -89 -91 -89zM336 913c-25 0 -46 -21 -46 -46s21 -45 46 -45s46 20 46 45s-21 46 -46 46zM576 0l-71 188h-343l-71 -188h-60l272 710h59l275 -710h-61z
M182 242h303l-151 400h-2z" />
    <glyph glyph-name="Atilde" unicode="&#xc3;" horiz-adv-x="667" 
d="M261 870c-28 0 -49 -21 -61 -58l-38 17c18 55 48 89 94 89c33 0 56 -16 79 -30c23 -15 45 -33 69 -33s46 19 59 58l37 -13c-17 -63 -52 -93 -91 -93c-34 0 -62 21 -87 38c-21 14 -41 25 -61 25zM576 0l-71 188h-343l-71 -188h-60l272 710h59l275 -710h-61zM182 242h303
l-151 400h-2z" />
    <glyph glyph-name="AE" unicode="&#xc6;" horiz-adv-x="930" 
d="M492 54h389v-54h-445v188h-260l-105 -188h-62l396 710h456v-53h-369v-276h310v-54h-310v-273zM206 242h230v409h-1z" />
    <glyph glyph-name="AEacute" unicode="&#x1fc;" horiz-adv-x="930" 
d="M621 935l-124 -139h-62l120 139h66zM492 54h389v-54h-445v188h-260l-105 -188h-62l396 710h456v-53h-369v-276h310v-54h-310v-273zM206 242h230v409h-1z" />
    <glyph glyph-name="B" unicode="B" horiz-adv-x="630" 
d="M427 371c75 -16 145 -75 145 -181c0 -112 -77 -190 -241 -190h-239v710h219c131 0 226 -48 226 -172c0 -71 -37 -138 -110 -165v-2zM148 657v-263h171c74 0 159 33 159 135c0 79 -51 128 -181 128h-149zM316 54c117 0 196 44 196 138c0 95 -68 149 -190 149h-174v-287
h168z" />
    <glyph glyph-name="C" unicode="C" horiz-adv-x="724" 
d="M412 -4c-190 0 -349 125 -349 356c0 202 124 363 349 363c98 0 197 -39 274 -134l-44 -36c-61 76 -144 115 -230 115c-184 0 -290 -132 -290 -308c0 -189 127 -300 290 -300c103 0 176 48 230 114l44 -36c-62 -78 -149 -134 -274 -134z" />
    <glyph glyph-name="Cacute" unicode="&#x106;" horiz-adv-x="724" 
d="M374 795l120 139h66l-124 -139h-62zM412 -4c-190 0 -349 125 -349 356c0 202 124 363 349 363c98 0 197 -39 274 -134l-44 -36c-61 76 -144 115 -230 115c-184 0 -290 -132 -290 -308c0 -189 127 -300 290 -300c103 0 176 48 230 114l44 -36c-62 -78 -149 -134 -274 -134
z" />
    <glyph glyph-name="Ccaron" unicode="&#x10c;" horiz-adv-x="724" 
d="M433 795h-51l-118 140h61l84 -98h2l84 98h62zM412 52c103 0 176 48 230 114l44 -36c-62 -78 -149 -134 -274 -134c-190 0 -349 125 -349 356c0 202 124 363 349 363c98 0 197 -39 274 -134l-44 -36c-61 76 -144 115 -230 115c-184 0 -290 -132 -290 -308
c0 -189 127 -300 290 -300z" />
    <glyph glyph-name="Ccedilla" unicode="&#xc7;" horiz-adv-x="724" 
d="M412 52c103 0 176 48 230 114l44 -36c-62 -78 -149 -134 -274 -134h-3l-14 -30c46 -2 86 -29 86 -78c0 -40 -31 -74 -97 -74c-20 0 -37 2 -52 6v34c13 -4 27 -7 46 -7c32 0 62 14 62 44c0 25 -27 48 -83 48v26l14 30v3c-171 17 -308 140 -308 354c0 202 124 363 349 363
c98 0 197 -39 274 -134l-44 -36c-61 76 -144 115 -230 115c-184 0 -290 -132 -290 -308c0 -189 127 -300 290 -300z" />
    <glyph glyph-name="Ccircumflex" unicode="&#x108;" horiz-adv-x="724" 
d="M408 892l-83 -97h-61l120 140h51l122 -140h-62l-83 97h-4zM412 52c103 0 176 48 230 114l44 -36c-62 -78 -149 -134 -274 -134c-190 0 -349 125 -349 356c0 202 124 363 349 363c98 0 197 -39 274 -134l-44 -36c-61 76 -144 115 -230 115c-184 0 -290 -132 -290 -308
c0 -189 127 -300 290 -300z" />
    <glyph glyph-name="Cdotaccent" unicode="&#x10a;" horiz-adv-x="724" 
d="M412 827c-26 0 -45 19 -45 44s19 44 45 44c25 0 44 -19 44 -44s-19 -44 -44 -44zM412 -4c-190 0 -349 125 -349 356c0 202 124 363 349 363c98 0 197 -39 274 -134l-44 -36c-61 76 -144 115 -230 115c-184 0 -290 -132 -290 -308c0 -189 127 -300 290 -300
c103 0 176 48 230 114l44 -36c-62 -78 -149 -134 -274 -134z" />
    <glyph glyph-name="D" unicode="D" horiz-adv-x="722" 
d="M92 0v710h200c225 0 368 -146 368 -356s-140 -354 -366 -354h-202zM148 54h143c187 0 310 125 310 300c0 178 -124 303 -309 303h-144v-603z" />
    <glyph glyph-name="Eth" unicode="&#xd0;" horiz-adv-x="722" 
d="M292 710c225 0 368 -146 368 -356s-140 -354 -366 -354h-202v413h-85v53h85v244h200zM291 54c187 0 310 125 310 300c0 178 -124 303 -309 303h-144v-191h152v-53h-152v-359h143z" />
    <glyph glyph-name="Dcaron" unicode="&#x10e;" horiz-adv-x="722" 
d="M375 795h-51l-118 140h61l84 -98h2l84 98h62zM292 710c225 0 368 -146 368 -356s-140 -354 -366 -354h-202v710h200zM291 54c187 0 310 125 310 300c0 178 -124 303 -309 303h-144v-603h143z" />
    <glyph glyph-name="Dcroat" unicode="&#x110;" horiz-adv-x="722" 
d="M292 710c225 0 368 -146 368 -356s-140 -354 -366 -354h-202v413h-85v53h85v244h200zM291 54c187 0 310 125 310 300c0 178 -124 303 -309 303h-144v-191h152v-53h-152v-359h143z" />
    <glyph glyph-name="E" unicode="E" 
d="M92 0v710h424v-53h-368v-276h306v-54h-306v-273h389v-54h-445z" />
    <glyph glyph-name="Eacute" unicode="&#xc9;" 
d="M228 796l120 139h66l-124 -139h-62zM92 0v710h424v-53h-368v-276h306v-54h-306v-273h389v-54h-445z" />
    <glyph glyph-name="Ebreve" unicode="&#x114;" 
d="M307 794c-68 0 -129 48 -134 134h46c4 -51 35 -90 88 -90c52 0 84 38 87 90h47c-6 -83 -62 -134 -134 -134zM92 0v710h424v-53h-368v-276h306v-54h-306v-273h389v-54h-445z" />
    <glyph glyph-name="Ecaron" unicode="&#x11a;" 
d="M329 795h-51l-118 140h61l84 -98h2l84 98h62zM148 54h389v-54h-445v710h424v-53h-368v-276h306v-54h-306v-273z" />
    <glyph glyph-name="Ecircumflex" unicode="&#xca;" 
d="M304 892l-83 -97h-61l120 140h51l122 -140h-62l-83 97h-4zM148 54h389v-54h-445v710h424v-53h-368v-276h306v-54h-306v-273z" />
    <glyph glyph-name="uni1EBE" unicode="&#x1ebe;" 
d="M616 947l-135 -138h-48l120 138h63zM303 865l-83 -97h-61l120 140h51l122 -140h-62l-83 97h-4zM148 327v-273h389v-54h-445v710h424v-53h-368v-276h306v-54h-306z" />
    <glyph glyph-name="uni1EC6" unicode="&#x1ec6;" 
d="M302 892l-83 -97h-61l120 140h51l122 -140h-62l-83 97h-4zM148 54h389v-54h-445v710h424v-53h-368v-276h306v-54h-306v-273zM319 -120c26 0 45 -19 45 -44s-19 -44 -45 -44c-25 0 -44 19 -44 44s19 44 44 44z" />
    <glyph glyph-name="uni1EC0" unicode="&#x1ec0;" 
d="M534 809h-48l-125 138h63zM305 865l-83 -97h-61l120 140h51l122 -140h-62l-83 97h-4zM148 54h389v-54h-445v710h424v-53h-368v-276h306v-54h-306v-273z" />
    <glyph glyph-name="uni1EC2" unicode="&#x1ec2;" 
d="M494 954c51 0 82 -31 82 -71c0 -39 -38 -64 -81 -80l-4 -28h-26c-7 9 -11 15 -11 25c0 32 81 43 81 82c0 27 -24 37 -46 37c-28 0 -54 -13 -69 -32l-25 24c22 24 57 43 99 43zM303 865l-83 -97h-61l120 140h51l122 -140h-62l-83 97h-4zM148 327v-273h389v-54h-445v710
h424v-53h-368v-276h306v-54h-306z" />
    <glyph glyph-name="uni1EC4" unicode="&#x1ec4;" 
d="M241 926c-22 0 -40 -14 -52 -46l-32 12c15 44 42 68 79 68c31 0 53 -15 75 -28c17 -12 34 -21 55 -21s41 11 52 45l32 -11c-15 -48 -46 -69 -80 -69c-27 0 -50 13 -71 26c-20 12 -39 24 -58 24zM278 856h51l122 -122h-55l-89 91h-4l-90 -91h-54zM148 54h389v-54h-445v710
h424v-53h-368v-276h306v-54h-306v-273z" />
    <glyph glyph-name="Edieresis" unicode="&#xcb;" 
d="M225 827c-26 0 -44 19 -44 44s18 44 44 44c25 0 44 -19 44 -44s-19 -44 -44 -44zM390 828c-24 0 -44 19 -44 43s20 43 44 43c25 0 43 -19 43 -43s-18 -43 -43 -43zM92 0v710h424v-53h-368v-276h306v-54h-306v-273h389v-54h-445z" />
    <glyph glyph-name="Edotaccent" unicode="&#x116;" 
d="M308 827c-26 0 -45 19 -45 44s19 44 45 44c25 0 44 -19 44 -44s-19 -44 -44 -44zM92 0v710h424v-53h-368v-276h306v-54h-306v-273h389v-54h-445z" />
    <glyph glyph-name="uni1EB8" unicode="&#x1eb8;" 
d="M92 0v710h424v-53h-368v-276h306v-54h-306v-273h389v-54h-445zM319 -120c26 0 45 -19 45 -44s-19 -44 -45 -44c-25 0 -44 19 -44 44s19 44 44 44z" />
    <glyph glyph-name="Egrave" unicode="&#xc8;" 
d="M337 796l-124 139h66l120 -139h-62zM92 0v710h424v-53h-368v-276h306v-54h-306v-273h389v-54h-445z" />
    <glyph glyph-name="uni1EBA" unicode="&#x1eba;" 
d="M286 771c-7 8 -11 14 -11 24c0 32 82 43 82 82c0 28 -26 37 -47 37c-28 0 -54 -13 -69 -32l-25 24c22 24 56 43 99 43c52 0 83 -31 83 -71c0 -39 -37 -63 -82 -80l-5 -27h-25zM92 0v710h424v-53h-368v-276h306v-54h-306v-273h389v-54h-445z" />
    <glyph glyph-name="Emacron" unicode="&#x112;" 
d="M169 841v51h277v-51h-277zM92 0v710h424v-53h-368v-276h306v-54h-306v-273h389v-54h-445z" />
    <glyph glyph-name="Eogonek" unicode="&#x118;" 
d="M559 -128l5 -42c-17 -9 -37 -13 -66 -13c-56 0 -92 29 -92 79c0 33 23 72 65 103v1h-379v710h424v-53h-368v-276h306v-54h-306v-273h389v-54h-5c-48 -19 -77 -56 -77 -91c0 -28 16 -48 53 -48c27 0 36 3 51 11z" />
    <glyph glyph-name="uni1EBC" unicode="&#x1ebc;" 
d="M381 807c-34 0 -62 21 -87 38c-21 14 -41 25 -61 25c-28 0 -49 -21 -61 -58l-38 17c18 55 48 89 94 89c33 0 56 -16 79 -30c23 -15 45 -33 69 -33s46 19 59 58l37 -13c-17 -63 -52 -93 -91 -93zM92 0v710h424v-53h-368v-276h306v-54h-306v-273h389v-54h-445z" />
    <glyph glyph-name="F" unicode="F" horiz-adv-x="571" 
d="M92 0v710h443v-53h-387v-283h331v-54h-331v-320h-56z" />
    <glyph glyph-name="G" unicode="G" horiz-adv-x="765" 
d="M396 354h291v-266c-67 -59 -165 -92 -274 -92c-204 0 -350 142 -350 358c0 212 140 361 348 361c95 0 189 -28 265 -105l-41 -36c-63 61 -138 86 -224 86c-168 0 -289 -123 -289 -306c0 -177 117 -303 291 -303c83 0 160 19 218 67v182h-235v54z" />
    <glyph glyph-name="Gbreve" unicode="&#x11e;" horiz-adv-x="765" 
d="M411 794c-68 0 -129 48 -134 134h46c4 -51 35 -90 88 -90c52 0 84 38 87 90h47c-6 -83 -62 -134 -134 -134zM396 354h291v-266c-67 -59 -165 -92 -274 -92c-204 0 -350 142 -350 358c0 212 140 361 348 361c95 0 189 -28 265 -105l-41 -36c-63 61 -138 86 -224 86
c-168 0 -289 -123 -289 -306c0 -177 117 -303 291 -303c83 0 160 19 218 67v182h-235v54z" />
    <glyph glyph-name="Gcaron" unicode="&#x1e6;" horiz-adv-x="765" 
d="M431 795h-51l-118 140h61l84 -98h2l84 98h62zM396 354h291v-266c-67 -59 -165 -92 -274 -92c-204 0 -350 142 -350 358c0 212 140 361 348 361c95 0 189 -28 265 -105l-41 -36c-63 61 -138 86 -224 86c-168 0 -289 -123 -289 -306c0 -177 117 -303 291 -303
c83 0 160 19 218 67v182h-235v54z" />
    <glyph glyph-name="Gcircumflex" unicode="&#x11c;" horiz-adv-x="765" 
d="M408 892l-83 -97h-61l120 140h51l122 -140h-62l-83 97h-4zM396 354h291v-266c-67 -59 -165 -92 -274 -92c-204 0 -350 142 -350 358c0 212 140 361 348 361c95 0 189 -28 265 -105l-41 -36c-63 61 -138 86 -224 86c-168 0 -289 -123 -289 -306c0 -177 117 -303 291 -303
c83 0 160 19 218 67v182h-235v54z" />
    <glyph glyph-name="Gcommaaccent" unicode="&#x122;" horiz-adv-x="765" 
d="M396 354h291v-266c-67 -59 -165 -92 -274 -92c-204 0 -350 142 -350 358c0 212 140 361 348 361c95 0 189 -28 265 -105l-41 -36c-63 61 -138 86 -224 86c-168 0 -289 -123 -289 -306c0 -177 117 -303 291 -303c83 0 160 19 218 67v182h-235v54zM385 -54h50
c4 -16 5 -34 5 -53c0 -55 -33 -94 -99 -99l-14 34c52 7 64 34 64 68c0 17 -2 32 -6 50z" />
    <glyph glyph-name="Gdotaccent" unicode="&#x120;" horiz-adv-x="765" 
d="M412 827c-26 0 -45 19 -45 44s19 44 45 44c25 0 44 -19 44 -44s-19 -44 -44 -44zM396 354h291v-266c-67 -59 -165 -92 -274 -92c-204 0 -350 142 -350 358c0 212 140 361 348 361c95 0 189 -28 265 -105l-41 -36c-63 61 -138 86 -224 86c-168 0 -289 -123 -289 -306
c0 -177 117 -303 291 -303c83 0 160 19 218 67v182h-235v54z" />
    <glyph glyph-name="H" unicode="H" horiz-adv-x="714" 
d="M92 0v710h56v-347h418v347h56v-710h-56v309h-418v-309h-56z" />
    <glyph glyph-name="Hbar" unicode="&#x126;" horiz-adv-x="714" 
d="M688 575v-49h-66v-526h-56v309h-418v-309h-56v526h-67v49h67v135h56v-135h418v135h56v-135h66zM566 363v163h-418v-163h418z" />
    <glyph glyph-name="Hcircumflex" unicode="&#x124;" horiz-adv-x="714" 
d="M354 892l-83 -97h-61l120 140h51l122 -140h-62l-83 97h-4zM566 710h56v-710h-56v309h-418v-309h-56v710h56v-347h418v347z" />
    <glyph glyph-name="I" unicode="I" horiz-adv-x="252" 
d="M98 0v710h56v-710h-56z" />
    <glyph glyph-name="IJ" unicode="&#x132;" horiz-adv-x="735" 
d="M98 0v710h56v-710h-56zM465 -4c-59 0 -133 30 -182 89l32 44c40 -46 95 -79 151 -79c80 0 133 46 133 176v484h56v-490c0 -150 -60 -224 -190 -224z" />
    <glyph glyph-name="Iacute" unicode="&#xcd;" horiz-adv-x="252" 
d="M101 795l120 139h66l-124 -139h-62zM98 0v710h56v-710h-56z" />
    <glyph glyph-name="Ibreve" unicode="&#x12c;" horiz-adv-x="252" 
d="M125 794c-68 0 -129 48 -134 134h46c4 -51 35 -90 88 -90c52 0 84 38 87 90h47c-6 -83 -62 -134 -134 -134zM98 0v710h56v-710h-56z" />
    <glyph glyph-name="Icircumflex" unicode="&#xce;" horiz-adv-x="252" 
d="M149 935l122 -140h-62l-83 97h-4l-83 -97h-61l120 140h51zM98 0v710h56v-710h-56z" />
    <glyph glyph-name="Idieresis" unicode="&#xcf;" horiz-adv-x="252" 
d="M43 827c-26 0 -44 19 -44 44s18 44 44 44c25 0 44 -19 44 -44s-19 -44 -44 -44zM208 828c-24 0 -44 19 -44 43s20 43 44 43c25 0 43 -19 43 -43s-18 -43 -43 -43zM98 0v710h56v-710h-56z" />
    <glyph glyph-name="Idotaccent" unicode="&#x130;" horiz-adv-x="252" 
d="M126 827c-26 0 -45 19 -45 44s19 44 45 44c25 0 44 -19 44 -44s-19 -44 -44 -44zM98 0v710h56v-710h-56z" />
    <glyph glyph-name="uni1ECA" unicode="&#x1eca;" horiz-adv-x="252" 
d="M98 0v710h56v-710h-56zM124 -120c26 0 45 -19 45 -44s-19 -44 -45 -44c-25 0 -44 19 -44 44s19 44 44 44z" />
    <glyph glyph-name="Igrave" unicode="&#xcc;" horiz-adv-x="252" 
d="M94 795l-124 139h66l120 -139h-62zM98 0v710h56v-710h-56z" />
    <glyph glyph-name="uni1EC8" unicode="&#x1ec8;" horiz-adv-x="252" 
d="M104 771c-7 8 -11 14 -11 24c0 32 82 43 82 82c0 28 -26 37 -47 37c-28 0 -54 -13 -69 -32l-25 24c22 24 56 43 99 43c52 0 83 -31 83 -71c0 -39 -37 -63 -82 -80l-5 -27h-25zM98 0v710h56v-710h-56z" />
    <glyph glyph-name="Imacron" unicode="&#x12a;" horiz-adv-x="252" 
d="M-13 841v51h277v-51h-277zM98 0v710h56v-710h-56z" />
    <glyph glyph-name="Iogonek" unicode="&#x12e;" horiz-adv-x="252" 
d="M176 -128l5 -42c-17 -9 -37 -13 -66 -13c-56 0 -92 29 -92 79c0 35 27 78 75 109v705h56v-710h-5c-48 -19 -77 -56 -77 -91c0 -28 16 -48 53 -48c27 0 36 3 51 11z" />
    <glyph glyph-name="Itilde" unicode="&#x128;" horiz-adv-x="252" 
d="M201 807c-34 0 -62 21 -87 38c-21 14 -41 25 -61 25c-28 0 -49 -21 -61 -58l-38 17c18 55 48 89 94 89c33 0 56 -16 79 -30c23 -15 45 -33 69 -33s46 19 59 58l37 -13c-17 -63 -52 -93 -91 -93zM98 0v710h56v-710h-56z" />
    <glyph glyph-name="J" unicode="J" horiz-adv-x="483" 
d="M213 -4c-59 0 -133 30 -182 89l32 44c40 -46 95 -79 151 -79c80 0 133 46 133 176v484h56v-490c0 -150 -60 -224 -190 -224z" />
    <glyph glyph-name="Jcircumflex" unicode="&#x134;" horiz-adv-x="483" 
d="M398 935l122 -140h-62l-83 97h-4l-83 -97h-61l120 140h51zM347 226v484h56v-490c0 -150 -60 -224 -190 -224c-59 0 -133 30 -182 89l32 44c40 -46 95 -79 151 -79c80 0 133 46 133 176z" />
    <glyph glyph-name="K" unicode="K" horiz-adv-x="636" 
d="M272 335h-2l-122 -142v-193h-56v710h56v-435h1l369 435h73l-282 -329l288 -381h-72z" />
    <glyph glyph-name="Kcommaaccent" unicode="&#x136;" horiz-adv-x="636" 
d="M309 381l288 -381h-72l-253 335h-2l-122 -142v-193h-56v710h56v-435h1l369 435h73zM296 -54h50c4 -16 5 -34 5 -53c0 -55 -33 -94 -99 -99l-14 34c52 7 64 34 64 68c0 17 -2 32 -6 50z" />
    <glyph glyph-name="L" unicode="L" horiz-adv-x="550" 
d="M92 0v710h56v-656h372v-54h-428z" />
    <glyph glyph-name="Lacute" unicode="&#x139;" horiz-adv-x="550" 
d="M194 796l120 139h66l-124 -139h-62zM92 0v710h56v-656h372v-54h-428z" />
    <glyph glyph-name="Lcaron" unicode="&#x13d;" horiz-adv-x="550" 
d="M293 592l27 173h55l-41 -173h-41zM92 0v710h56v-656h372v-54h-428z" />
    <glyph glyph-name="Lcommaaccent" unicode="&#x13b;" horiz-adv-x="550" 
d="M92 0v710h56v-656h372v-54h-428zM228 -206l-14 34c52 7 64 34 64 68c0 17 -2 32 -6 50h50c4 -16 5 -34 5 -53c0 -55 -33 -94 -99 -99z" />
    <glyph glyph-name="Ldot" unicode="&#x13f;" horiz-adv-x="550" 
d="M92 0v710h56v-656h372v-54h-428zM732 391c-25 0 -45 19 -45 44s20 44 45 44s45 -19 45 -44s-20 -44 -45 -44z" />
    <glyph glyph-name="Lslash" unicode="&#x141;" horiz-adv-x="565" 
d="M163 54h372v-54h-428v293l-82 -38v53l82 39v363h56v-337l99 47v-54l-99 -46v-266z" />
    <glyph glyph-name="M" unicode="M" horiz-adv-x="870" 
d="M722 710h56v-710h-56v598h-1l-265 -451h-41l-266 451h-1v-598h-56v710h57l286 -490h2z" />
    <glyph glyph-name="N" unicode="N" horiz-adv-x="746" 
d="M598 710h56v-710h-57l-447 611h-2v-611h-56v710h55l449 -614h2v614z" />
    <glyph glyph-name="Nacute" unicode="&#x143;" horiz-adv-x="746" 
d="M479 935l-124 -139h-62l120 139h66zM598 710h56v-710h-57l-447 611h-2v-611h-56v710h55l449 -614h2v614z" />
    <glyph glyph-name="Ncaron" unicode="&#x147;" horiz-adv-x="746" 
d="M394 795h-51l-118 140h61l84 -98h2l84 98h62zM598 710h56v-710h-57l-447 611h-2v-611h-56v710h55l449 -614h2v614z" />
    <glyph glyph-name="Ncommaaccent" unicode="&#x145;" horiz-adv-x="746" 
d="M598 710h56v-710h-57l-447 611h-2v-611h-56v710h55l449 -614h2v614zM345 -54h50c4 -16 5 -34 5 -53c0 -55 -33 -94 -99 -99l-14 34c52 7 64 34 64 68c0 17 -2 32 -6 50z" />
    <glyph glyph-name="Eng" unicode="&#x14a;" horiz-adv-x="746" 
d="M598 710h56v-689v-88c0 -79 -34 -136 -116 -136c-23 0 -49 4 -75 16l9 47c18 -11 39 -15 55 -15c41 0 71 26 71 86v68l-448 613h-2v-612h-56v710h54l450 -616h2v616z" />
    <glyph glyph-name="uni019D" unicode="&#x19d;" horiz-adv-x="746" 
d="M598 710h56v-710h-57l-447 611h-2v-611v-67c0 -79 -34 -136 -116 -136c-23 0 -49 4 -74 16l8 47c18 -11 39 -15 56 -15c41 0 70 26 70 86v291v488h55l449 -614h2v614z" />
    <glyph glyph-name="Ntilde" unicode="&#xd1;" horiz-adv-x="746" 
d="M300 870c-28 0 -49 -21 -61 -58l-38 17c18 55 48 89 94 89c33 0 56 -16 79 -30c23 -15 45 -33 69 -33s46 19 59 58l37 -13c-17 -63 -52 -93 -91 -93c-34 0 -62 21 -87 38c-21 14 -41 25 -61 25zM598 710h56v-710h-57l-447 611h-2v-611h-56v710h55l449 -614h2v614z" />
    <glyph glyph-name="O" unicode="O" horiz-adv-x="829" 
d="M415 -5c-210 0 -352 158 -352 361c0 201 142 359 352 359c196 0 351 -143 351 -359c0 -217 -155 -361 -351 -361zM415 51c161 0 292 124 292 305s-131 304 -292 304c-175 0 -293 -137 -293 -304c0 -168 118 -305 293 -305z" />
    <glyph glyph-name="Oacute" unicode="&#xd3;" horiz-adv-x="829" 
d="M393 795l120 139h66l-124 -139h-62zM415 -5c-210 0 -352 158 -352 361c0 201 142 359 352 359c196 0 351 -143 351 -359c0 -217 -155 -361 -351 -361zM415 51c161 0 292 124 292 305s-131 304 -292 304c-175 0 -293 -137 -293 -304c0 -168 118 -305 293 -305z" />
    <glyph glyph-name="Obreve" unicode="&#x14e;" horiz-adv-x="829" 
d="M415 794c-68 0 -129 48 -134 134h46c4 -51 35 -90 88 -90c52 0 84 38 87 90h47c-6 -83 -62 -134 -134 -134zM415 -5c-210 0 -352 158 -352 361c0 201 142 359 352 359c196 0 351 -143 351 -359c0 -217 -155 -361 -351 -361zM415 51c161 0 292 124 292 305
s-131 304 -292 304c-175 0 -293 -137 -293 -304c0 -168 118 -305 293 -305z" />
    <glyph glyph-name="Ocircumflex" unicode="&#xd4;" horiz-adv-x="829" 
d="M412 892l-83 -97h-61l120 140h51l122 -140h-62l-83 97h-4zM415 715c196 0 351 -143 351 -359c0 -217 -155 -361 -351 -361c-210 0 -352 158 -352 361c0 201 142 359 352 359zM415 51c161 0 292 124 292 305s-131 304 -292 304c-175 0 -293 -137 -293 -304
c0 -168 118 -305 293 -305z" />
    <glyph glyph-name="uni1ED0" unicode="&#x1ed0;" horiz-adv-x="829" 
d="M724 947l-135 -138h-48l120 138h63zM411 865l-83 -97h-61l120 140h51l122 -140h-62l-83 97h-4zM415 715c196 0 351 -143 351 -359c0 -217 -155 -361 -351 -361c-210 0 -352 158 -352 361c0 201 142 359 352 359zM415 51c161 0 292 124 292 305s-131 304 -292 304
c-175 0 -293 -137 -293 -304c0 -168 118 -305 293 -305z" />
    <glyph glyph-name="uni1ED8" unicode="&#x1ed8;" horiz-adv-x="829" 
d="M410 892l-83 -97h-61l120 140h51l122 -140h-62l-83 97h-4zM415 715c196 0 351 -143 351 -359c0 -217 -155 -361 -351 -361c-210 0 -352 158 -352 361c0 201 142 359 352 359zM415 51c161 0 292 124 292 305s-131 304 -292 304c-175 0 -293 -137 -293 -304
c0 -168 118 -305 293 -305zM414 -120c26 0 45 -19 45 -44s-19 -44 -45 -44c-25 0 -44 19 -44 44s19 44 44 44z" />
    <glyph glyph-name="uni1ED2" unicode="&#x1ed2;" horiz-adv-x="829" 
d="M642 809h-48l-125 138h63zM413 865l-83 -97h-61l120 140h51l122 -140h-62l-83 97h-4zM415 715c196 0 351 -143 351 -359c0 -217 -155 -361 -351 -361c-210 0 -352 158 -352 361c0 201 142 359 352 359zM415 51c161 0 292 124 292 305s-131 304 -292 304
c-175 0 -293 -137 -293 -304c0 -168 118 -305 293 -305z" />
    <glyph glyph-name="uni1ED4" unicode="&#x1ed4;" horiz-adv-x="829" 
d="M597 919c-28 0 -54 -13 -69 -32l-25 24c22 24 57 43 99 43c51 0 82 -31 82 -71c0 -39 -38 -64 -81 -80l-4 -28h-26c-7 9 -11 15 -11 25c0 32 81 43 81 82c0 27 -24 37 -46 37zM411 865l-83 -97h-61l120 140h51l122 -140h-62l-83 97h-4zM415 715c196 0 351 -143 351 -359
c0 -217 -155 -361 -351 -361c-210 0 -352 158 -352 361c0 201 142 359 352 359zM415 51c161 0 292 124 292 305s-131 304 -292 304c-175 0 -293 -137 -293 -304c0 -168 118 -305 293 -305z" />
    <glyph glyph-name="uni1ED6" unicode="&#x1ed6;" horiz-adv-x="829" 
d="M349 926c-22 0 -40 -14 -52 -46l-32 12c15 44 42 68 79 68c31 0 53 -15 75 -28c17 -12 34 -21 55 -21s41 11 52 45l32 -11c-15 -48 -46 -69 -80 -69c-27 0 -50 13 -71 26c-20 12 -39 24 -58 24zM386 856h51l122 -122h-55l-89 91h-4l-90 -91h-54zM415 715
c196 0 351 -143 351 -359c0 -217 -155 -361 -351 -361c-210 0 -352 158 -352 361c0 201 142 359 352 359zM415 51c161 0 292 124 292 305s-131 304 -292 304c-175 0 -293 -137 -293 -304c0 -168 118 -305 293 -305z" />
    <glyph glyph-name="Odieresis" unicode="&#xd6;" horiz-adv-x="829" 
d="M333 827c-26 0 -44 19 -44 44s18 44 44 44c25 0 44 -19 44 -44s-19 -44 -44 -44zM498 828c-24 0 -44 19 -44 43s20 43 44 43c25 0 43 -19 43 -43s-18 -43 -43 -43zM415 -5c-210 0 -352 158 -352 361c0 201 142 359 352 359c196 0 351 -143 351 -359
c0 -217 -155 -361 -351 -361zM415 51c161 0 292 124 292 305s-131 304 -292 304c-175 0 -293 -137 -293 -304c0 -168 118 -305 293 -305z" />
    <glyph glyph-name="uni1ECC" unicode="&#x1ecc;" horiz-adv-x="829" 
d="M415 -5c-210 0 -352 158 -352 361c0 201 142 359 352 359c196 0 351 -143 351 -359c0 -217 -155 -361 -351 -361zM415 51c161 0 292 124 292 305s-131 304 -292 304c-175 0 -293 -137 -293 -304c0 -168 118 -305 293 -305zM414 -120c26 0 45 -19 45 -44s-19 -44 -45 -44
c-25 0 -44 19 -44 44s19 44 44 44z" />
    <glyph glyph-name="Ograve" unicode="&#xd2;" horiz-adv-x="829" 
d="M389 795l-124 139h66l120 -139h-62zM415 -5c-210 0 -352 158 -352 361c0 201 142 359 352 359c196 0 351 -143 351 -359c0 -217 -155 -361 -351 -361zM415 51c161 0 292 124 292 305s-131 304 -292 304c-175 0 -293 -137 -293 -304c0 -168 118 -305 293 -305z" />
    <glyph glyph-name="uni1ECE" unicode="&#x1ece;" horiz-adv-x="829" 
d="M394 771c-7 8 -11 14 -11 24c0 32 82 43 82 82c0 28 -26 37 -47 37c-28 0 -54 -13 -69 -32l-25 24c22 24 56 43 99 43c52 0 83 -31 83 -71c0 -39 -37 -63 -82 -80l-5 -27h-25zM415 -5c-210 0 -352 158 -352 361c0 201 142 359 352 359c196 0 351 -143 351 -359
c0 -217 -155 -361 -351 -361zM415 51c161 0 292 124 292 305s-131 304 -292 304c-175 0 -293 -137 -293 -304c0 -168 118 -305 293 -305z" />
    <glyph glyph-name="Ohorn" unicode="&#x1a0;" horiz-adv-x="870" 
d="M773 774h54v-75c0 -100 -37 -149 -104 -161v-1c27 -51 43 -112 43 -181c0 -217 -155 -361 -351 -361c-210 0 -352 158 -352 361c0 201 142 359 352 359c118 0 221 -52 284 -140c55 8 74 43 74 126v73zM415 51c161 0 292 124 292 305s-131 304 -292 304
c-175 0 -293 -137 -293 -304c0 -168 118 -305 293 -305z" />
    <glyph glyph-name="uni1EDA" unicode="&#x1eda;" horiz-adv-x="870" 
d="M579 934l-124 -139h-62l120 139h66zM773 774h54v-75c0 -100 -37 -149 -104 -161v-1c27 -51 43 -112 43 -181c0 -217 -155 -361 -351 -361c-210 0 -352 158 -352 361c0 201 142 359 352 359c118 0 221 -52 284 -140c55 8 74 43 74 126v73zM415 51c161 0 292 124 292 305
s-131 304 -292 304c-175 0 -293 -137 -293 -304c0 -168 118 -305 293 -305z" />
    <glyph glyph-name="uni1EE2" unicode="&#x1ee2;" horiz-adv-x="870" 
d="M773 774h54v-75c0 -100 -37 -149 -104 -161v-1c27 -51 43 -112 43 -181c0 -217 -155 -361 -351 -361c-210 0 -352 158 -352 361c0 201 142 359 352 359c118 0 221 -52 284 -140c55 8 74 43 74 126v73zM415 51c161 0 292 124 292 305s-131 304 -292 304
c-175 0 -293 -137 -293 -304c0 -168 118 -305 293 -305zM414 -120c26 0 45 -19 45 -44s-19 -44 -45 -44c-25 0 -44 19 -44 44s19 44 44 44z" />
    <glyph glyph-name="uni1EDC" unicode="&#x1edc;" horiz-adv-x="870" 
d="M451 795h-62l-124 139h66zM773 774h54v-75c0 -100 -37 -149 -104 -161v-1c27 -51 43 -112 43 -181c0 -217 -155 -361 -351 -361c-210 0 -352 158 -352 361c0 201 142 359 352 359c118 0 221 -52 284 -140c55 8 74 43 74 126v73zM415 51c161 0 292 124 292 305
s-131 304 -292 304c-175 0 -293 -137 -293 -304c0 -168 118 -305 293 -305z" />
    <glyph glyph-name="uni1EDE" unicode="&#x1ede;" horiz-adv-x="870" 
d="M418 914c-28 0 -54 -13 -69 -32l-25 24c22 24 56 43 99 43c52 0 83 -31 83 -71c0 -39 -37 -63 -82 -80l-5 -27h-25c-7 8 -11 14 -11 24c0 32 82 43 82 82c0 28 -26 37 -47 37zM773 774h54v-75c0 -100 -37 -149 -104 -161v-1c27 -51 43 -112 43 -181
c0 -217 -155 -361 -351 -361c-210 0 -352 158 -352 361c0 201 142 359 352 359c118 0 221 -52 284 -140c55 8 74 43 74 126v73zM415 51c161 0 292 124 292 305s-131 304 -292 304c-175 0 -293 -137 -293 -304c0 -168 118 -305 293 -305z" />
    <glyph glyph-name="uni1EE0" unicode="&#x1ee0;" horiz-adv-x="870" 
d="M341 870c-28 0 -49 -21 -61 -58l-38 17c18 55 48 89 94 89c33 0 56 -16 79 -30c23 -15 45 -33 69 -33s46 19 59 58l37 -13c-17 -63 -52 -93 -91 -93c-34 0 -62 21 -87 38c-21 14 -41 25 -61 25zM773 774h54v-75c0 -100 -37 -149 -104 -161v-1c27 -51 43 -112 43 -181
c0 -217 -155 -361 -351 -361c-210 0 -352 158 -352 361c0 201 142 359 352 359c118 0 221 -52 284 -140c55 8 74 43 74 126v73zM415 51c161 0 292 124 292 305s-131 304 -292 304c-175 0 -293 -137 -293 -304c0 -168 118 -305 293 -305z" />
    <glyph glyph-name="Ohungarumlaut" unicode="&#x150;" horiz-adv-x="829" 
d="M314 796l120 139h60l-125 -139h-55zM461 796l119 139h60l-125 -139h-54zM415 -5c-210 0 -352 158 -352 361c0 201 142 359 352 359c196 0 351 -143 351 -359c0 -217 -155 -361 -351 -361zM415 51c161 0 292 124 292 305s-131 304 -292 304c-175 0 -293 -137 -293 -304
c0 -168 118 -305 293 -305z" />
    <glyph glyph-name="Omacron" unicode="&#x14c;" horiz-adv-x="829" 
d="M277 841v51h277v-51h-277zM415 -5c-210 0 -352 158 -352 361c0 201 142 359 352 359c196 0 351 -143 351 -359c0 -217 -155 -361 -351 -361zM415 51c161 0 292 124 292 305s-131 304 -292 304c-175 0 -293 -137 -293 -304c0 -168 118 -305 293 -305z" />
    <glyph glyph-name="uni01EA" unicode="&#x1ea;" horiz-adv-x="829" 
d="M456 -3c-44 -20 -70 -55 -70 -88c0 -28 16 -48 53 -48c27 0 36 3 51 11l5 -42c-17 -9 -37 -13 -66 -13c-56 0 -92 29 -92 79c0 32 21 69 60 99c-200 9 -334 164 -334 361c0 201 142 359 352 359c196 0 351 -143 351 -359c0 -202 -134 -340 -310 -359zM122 356
c0 -168 118 -305 293 -305c161 0 292 124 292 305s-131 304 -292 304c-175 0 -293 -137 -293 -304z" />
    <glyph glyph-name="Oslash" unicode="&#xd8;" horiz-adv-x="833" 
d="M771 687l-86 -93c51 -61 81 -142 81 -238c0 -217 -155 -361 -351 -361c-87 0 -161 27 -220 73l-82 -89l-41 37l83 89c-58 64 -92 152 -92 251c0 201 142 359 352 359c90 0 171 -30 232 -83l84 90zM122 356c0 -80 27 -153 74 -207l411 440c-51 45 -119 71 -192 71
c-175 0 -293 -137 -293 -304zM707 356c0 77 -24 143 -63 194l-409 -439c48 -38 110 -60 180 -60c161 0 292 124 292 305z" />
    <glyph glyph-name="Oslashacute" unicode="&#x1fe;" horiz-adv-x="833" 
d="M561 935l-124 -139h-62l120 139h66zM771 687l-86 -93c51 -61 81 -142 81 -238c0 -217 -155 -361 -351 -361c-87 0 -161 27 -220 73l-82 -89l-41 37l83 89c-58 64 -92 152 -92 251c0 201 142 359 352 359c90 0 171 -30 232 -83l84 90zM122 356c0 -80 27 -153 74 -207
l411 440c-51 45 -119 71 -192 71c-175 0 -293 -137 -293 -304zM707 356c0 77 -24 143 -63 194l-409 -439c48 -38 110 -60 180 -60c161 0 292 124 292 305z" />
    <glyph glyph-name="Otilde" unicode="&#xd5;" horiz-adv-x="829" 
d="M491 807c-34 0 -62 21 -87 38c-21 14 -41 25 -61 25c-28 0 -49 -21 -61 -58l-38 17c18 55 48 89 94 89c33 0 56 -16 79 -30c23 -15 45 -33 69 -33s46 19 59 58l37 -13c-17 -63 -52 -93 -91 -93zM415 -5c-210 0 -352 158 -352 361c0 201 142 359 352 359
c196 0 351 -143 351 -359c0 -217 -155 -361 -351 -361zM415 51c161 0 292 124 292 305s-131 304 -292 304c-175 0 -293 -137 -293 -304c0 -168 118 -305 293 -305z" />
    <glyph glyph-name="OE" unicode="&#x152;" horiz-adv-x="950" 
d="M514 54h387v-54h-443h-39c-212 0 -356 161 -356 357s144 355 356 353h58h404v-53h-367v-277h308v-53h-308v-273zM419 54h39v603h-39c-165 1 -297 -123 -297 -300c0 -178 132 -303 297 -303z" />
    <glyph glyph-name="P" unicode="P" horiz-adv-x="605" 
d="M92 0v710h241c162 0 227 -90 227 -210c0 -148 -100 -213 -244 -213h-168v-287h-56zM148 341h166c136 0 186 70 186 159c0 105 -65 157 -168 157h-184v-316z" />
    <glyph glyph-name="Thorn" unicode="&#xde;" horiz-adv-x="623" 
d="M92 0v710h56v-148h203c162 0 227 -90 227 -211c0 -146 -99 -211 -244 -211h-186v-140h-56zM148 193h186c133 0 185 69 185 159c0 105 -66 156 -169 156h-202v-315z" />
    <glyph glyph-name="Q" unicode="Q" horiz-adv-x="843" 
d="M782 34l-37 -45l-99 89c-61 -53 -142 -83 -231 -83c-210 0 -352 158 -352 361c0 201 142 359 352 359c196 0 351 -143 351 -359c0 -94 -30 -175 -79 -236zM416 51c73 0 137 24 187 67l-91 82l37 43l94 -84c40 52 64 120 64 197c0 175 -124 304 -291 304
c-171 0 -294 -132 -294 -304c0 -174 123 -305 294 -305z" />
    <glyph glyph-name="R" unicode="R" horiz-adv-x="634" 
d="M576 0h-71l-197 287h-160v-287h-56v710h242c160 0 228 -90 228 -210c0 -129 -76 -195 -187 -210zM148 657v-316h167c136 0 187 69 187 159c0 105 -64 157 -170 157h-184z" />
    <glyph glyph-name="Racute" unicode="&#x154;" horiz-adv-x="634" 
d="M420 935l-124 -139h-62l120 139h66zM576 0h-71l-197 287h-160v-287h-56v710h242c160 0 228 -90 228 -210c0 -129 -76 -195 -187 -210zM148 657v-316h167c136 0 187 69 187 159c0 105 -64 157 -170 157h-184z" />
    <glyph glyph-name="Rcaron" unicode="&#x158;" horiz-adv-x="634" 
d="M335 795h-51l-118 140h61l84 -98h2l84 98h62zM576 0h-71l-197 287h-160v-287h-56v710h242c160 0 228 -90 228 -210c0 -129 -76 -195 -187 -210zM148 657v-316h167c136 0 187 69 187 159c0 105 -64 157 -170 157h-184z" />
    <glyph glyph-name="Rcommaaccent" unicode="&#x156;" horiz-adv-x="634" 
d="M375 290l201 -290h-71l-197 287h-160v-287h-56v710h242c160 0 228 -90 228 -210c0 -129 -76 -195 -187 -210zM148 657v-316h167c136 0 187 69 187 159c0 105 -64 157 -170 157h-184zM279 -54h50c4 -16 5 -34 5 -53c0 -55 -33 -94 -99 -99l-14 34c52 7 64 34 64 68
c0 17 -2 32 -6 50z" />
    <glyph glyph-name="S" unicode="S" horiz-adv-x="576" 
d="M293 -5c-87 0 -178 33 -247 109l37 43c53 -64 134 -97 210 -97c98 0 169 51 169 129c0 99 -79 123 -178 162c-99 38 -210 77 -210 195c0 102 92 179 210 179c73 0 151 -27 216 -79l-36 -46c-56 46 -123 70 -180 70c-75 0 -149 -41 -149 -120c-1 -86 77 -109 168 -145
c117 -47 219 -79 219 -210c0 -117 -102 -190 -229 -190z" />
    <glyph glyph-name="Sacute" unicode="&#x15a;" horiz-adv-x="576" 
d="M254 795l120 139h66l-124 -139h-62zM293 -5c-87 0 -178 33 -247 109l37 43c53 -64 134 -97 210 -97c98 0 169 51 169 129c0 99 -79 123 -178 162c-99 38 -210 77 -210 195c0 102 92 179 210 179c73 0 151 -27 216 -79l-36 -46c-56 46 -123 70 -180 70
c-75 0 -149 -41 -149 -120c-1 -86 77 -109 168 -145c117 -47 219 -79 219 -210c0 -117 -102 -190 -229 -190z" />
    <glyph glyph-name="Scaron" unicode="&#x160;" horiz-adv-x="576" 
d="M307 795h-51l-118 140h61l84 -98h2l84 98h62zM303 395c117 -47 219 -79 219 -210c0 -117 -102 -190 -229 -190c-87 0 -178 33 -247 109l37 43c53 -64 134 -97 210 -97c98 0 169 51 169 129c0 99 -79 123 -178 162c-99 38 -210 77 -210 195c0 102 92 179 210 179
c73 0 151 -27 216 -79l-36 -46c-56 46 -123 70 -180 70c-75 0 -149 -41 -149 -120c-1 -86 77 -109 168 -145z" />
    <glyph glyph-name="Scedilla" unicode="&#x15e;" horiz-adv-x="576" 
d="M301 -5l-14 -29c46 -2 86 -29 86 -78c0 -40 -31 -74 -97 -74c-20 0 -37 2 -52 6v34c13 -4 27 -7 46 -7c32 0 62 14 62 44c0 25 -27 48 -83 48v26l14 31c-77 7 -156 41 -217 108l37 43c53 -64 134 -97 210 -97c98 0 169 51 169 129c0 99 -79 123 -178 162
c-99 38 -210 77 -210 195c0 102 92 179 210 179c73 0 151 -27 216 -79l-36 -46c-56 46 -123 70 -180 70c-75 0 -149 -41 -149 -120c-1 -86 77 -109 168 -145c117 -47 219 -79 219 -210c0 -115 -98 -187 -221 -190z" />
    <glyph glyph-name="Scircumflex" unicode="&#x15c;" horiz-adv-x="576" 
d="M282 892l-83 -97h-61l120 140h51l122 -140h-62l-83 97h-4zM303 395c117 -47 219 -79 219 -210c0 -117 -102 -190 -229 -190c-87 0 -178 33 -247 109l37 43c53 -64 134 -97 210 -97c98 0 169 51 169 129c0 99 -79 123 -178 162c-99 38 -210 77 -210 195
c0 102 92 179 210 179c73 0 151 -27 216 -79l-36 -46c-56 46 -123 70 -180 70c-75 0 -149 -41 -149 -120c-1 -86 77 -109 168 -145z" />
    <glyph glyph-name="Scommaaccent" unicode="&#x218;" horiz-adv-x="576" 
d="M293 -5c-87 0 -178 33 -247 109l37 43c53 -64 134 -97 210 -97c98 0 169 51 169 129c0 99 -79 123 -178 162c-99 38 -210 77 -210 195c0 102 92 179 210 179c73 0 151 -27 216 -79l-36 -46c-56 46 -123 70 -180 70c-75 0 -149 -41 -149 -120c-1 -86 77 -109 168 -145
c117 -47 219 -79 219 -210c0 -117 -102 -190 -229 -190zM227 -206l-14 34c52 7 64 34 64 68c0 17 -2 32 -6 50h50c4 -16 5 -34 5 -53c0 -55 -33 -94 -99 -99z" />
    <glyph glyph-name="uni1E9E" unicode="&#x1e9e;" horiz-adv-x="724" 
d="M467 390c116 -46 219 -77 219 -205c0 -116 -99 -190 -227 -190c-78 0 -162 28 -227 94l28 53c51 -63 129 -93 200 -93c92 0 167 46 167 131c0 92 -80 115 -179 154c-30 12 -63 26 -94 41l142 265v3c-63 11 -133 19 -188 19c-127 0 -185 -48 -185 -162v-500h-57v504
c0 146 81 211 236 211c73 0 181 -14 275 -37l-147 -272v-1z" />
    <glyph glyph-name="uni018F" unicode="&#x18f;" horiz-adv-x="705" 
d="M331 715c181 0 311 -148 311 -361c0 -209 -124 -359 -301 -359c-152 0 -288 117 -288 338c0 10 1 23 1 27h529c-2 177 -106 300 -254 300c-80 0 -129 -21 -172 -43l-26 49c43 24 106 49 200 49zM340 51c133 0 225 105 241 256h-472c9 -153 103 -256 231 -256z" />
    <glyph glyph-name="T" unicode="T" horiz-adv-x="565" 
d="M252 0v657h-222v53h504v-53h-225v-657h-57z" />
    <glyph glyph-name="Tbar" unicode="&#x166;" horiz-adv-x="565" 
d="M534 657h-225v-268h126v-50h-126v-339h-57v339h-114v50h114v268h-222v53h504v-53z" />
    <glyph glyph-name="Tcaron" unicode="&#x164;" horiz-adv-x="565" 
d="M303 795h-51l-118 140h61l84 -98h2l84 98h62zM30 710h504v-53h-225v-657h-57v657h-222v53z" />
    <glyph glyph-name="uni0162" unicode="&#x162;" horiz-adv-x="565" 
d="M288 0l-16 -34c46 -2 86 -29 86 -78c0 -40 -31 -74 -97 -74c-20 0 -37 2 -52 6v34c13 -4 27 -7 46 -7c32 0 62 14 62 44c0 25 -27 48 -83 48v26l18 39v653h-222v53h504v-53h-225v-657h-21z" />
    <glyph glyph-name="uni021A" unicode="&#x21a;" horiz-adv-x="565" 
d="M252 0v657h-222v53h504v-53h-225v-657h-57zM212 -206l-14 34c52 7 64 34 64 68c0 17 -2 32 -6 50h50c4 -16 5 -34 5 -53c0 -55 -33 -94 -99 -99z" />
    <glyph glyph-name="U" unicode="U" horiz-adv-x="701" 
d="M350 -5c-158 0 -267 108 -267 291v424h56v-419c0 -147 84 -240 211 -240c126 0 213 89 213 240v419h56v-424c0 -181 -107 -291 -269 -291z" />
    <glyph glyph-name="Uacute" unicode="&#xda;" horiz-adv-x="701" 
d="M302 795l120 139h66l-124 -139h-62zM350 -5c-158 0 -267 108 -267 291v424h56v-419c0 -147 84 -240 211 -240c126 0 213 89 213 240v419h56v-424c0 -181 -107 -291 -269 -291z" />
    <glyph glyph-name="Ubreve" unicode="&#x16c;" horiz-adv-x="701" 
d="M351 794c-68 0 -129 48 -134 134h46c4 -51 35 -90 88 -90c52 0 84 38 87 90h47c-6 -83 -62 -134 -134 -134zM350 -5c-158 0 -267 108 -267 291v424h56v-419c0 -147 84 -240 211 -240c126 0 213 89 213 240v419h56v-424c0 -181 -107 -291 -269 -291z" />
    <glyph glyph-name="Ucircumflex" unicode="&#xdb;" horiz-adv-x="701" 
d="M348 892l-83 -97h-61l120 140h51l122 -140h-62l-83 97h-4zM563 710h56v-424c0 -181 -107 -291 -269 -291c-158 0 -267 108 -267 291v424h56v-419c0 -147 84 -240 211 -240c126 0 213 89 213 240v419z" />
    <glyph glyph-name="Udieresis" unicode="&#xdc;" horiz-adv-x="701" 
d="M269 827c-26 0 -44 19 -44 44s18 44 44 44c25 0 44 -19 44 -44s-19 -44 -44 -44zM434 828c-24 0 -44 19 -44 43s20 43 44 43c25 0 43 -19 43 -43s-18 -43 -43 -43zM350 -5c-158 0 -267 108 -267 291v424h56v-419c0 -147 84 -240 211 -240c126 0 213 89 213 240v419h56
v-424c0 -181 -107 -291 -269 -291z" />
    <glyph glyph-name="uni1EE4" unicode="&#x1ee4;" horiz-adv-x="701" 
d="M350 -5c-158 0 -267 108 -267 291v424h56v-419c0 -147 84 -240 211 -240c126 0 213 89 213 240v419h56v-424c0 -181 -107 -291 -269 -291zM348 -120c26 0 45 -19 45 -44s-19 -44 -45 -44c-25 0 -44 19 -44 44s19 44 44 44z" />
    <glyph glyph-name="Ugrave" unicode="&#xd9;" horiz-adv-x="701" 
d="M349 795l-124 139h66l120 -139h-62zM350 -5c-158 0 -267 108 -267 291v424h56v-419c0 -147 84 -240 211 -240c126 0 213 89 213 240v419h56v-424c0 -181 -107 -291 -269 -291z" />
    <glyph glyph-name="uni1EE6" unicode="&#x1ee6;" horiz-adv-x="701" 
d="M330 771c-7 8 -11 14 -11 24c0 32 82 43 82 82c0 28 -26 37 -47 37c-28 0 -54 -13 -69 -32l-25 24c22 24 56 43 99 43c52 0 83 -31 83 -71c0 -39 -37 -63 -82 -80l-5 -27h-25zM350 -5c-158 0 -267 108 -267 291v424h56v-419c0 -147 84 -240 211 -240
c126 0 213 89 213 240v419h56v-424c0 -181 -107 -291 -269 -291z" />
    <glyph glyph-name="Uhorn" unicode="&#x1af;" horiz-adv-x="771" 
d="M700 774h54v-75c0 -114 -49 -163 -135 -164v-249c0 -181 -107 -291 -269 -291c-158 0 -267 108 -267 291v424h56v-419c0 -147 84 -240 211 -240c126 0 213 89 213 240v419h56v-135c60 5 81 40 81 126v73z" />
    <glyph glyph-name="uni1EE8" unicode="&#x1ee8;" horiz-adv-x="771" 
d="M488 934l-124 -139h-62l120 139h66zM700 774h54v-75c0 -114 -49 -163 -135 -164v-249c0 -181 -107 -291 -269 -291c-158 0 -267 108 -267 291v424h56v-419c0 -147 84 -240 211 -240c126 0 213 89 213 240v419h56v-135c60 5 81 40 81 126v73z" />
    <glyph glyph-name="uni1EF0" unicode="&#x1ef0;" horiz-adv-x="771" 
d="M700 774h54v-75c0 -114 -49 -163 -135 -164v-249c0 -181 -107 -291 -269 -291c-158 0 -267 108 -267 291v424h56v-419c0 -147 84 -240 211 -240c126 0 213 89 213 240v419h56v-135c60 5 81 40 81 126v73zM348 -120c26 0 45 -19 45 -44s-19 -44 -45 -44
c-25 0 -44 19 -44 44s19 44 44 44z" />
    <glyph glyph-name="uni1EEA" unicode="&#x1eea;" horiz-adv-x="771" 
d="M411 795h-62l-124 139h66zM700 774h54v-75c0 -114 -49 -163 -135 -164v-249c0 -181 -107 -291 -269 -291c-158 0 -267 108 -267 291v424h56v-419c0 -147 84 -240 211 -240c126 0 213 89 213 240v419h56v-135c60 5 81 40 81 126v73z" />
    <glyph glyph-name="uni1EEC" unicode="&#x1eec;" horiz-adv-x="771" 
d="M354 914c-28 0 -54 -13 -69 -32l-25 24c22 24 56 43 99 43c52 0 83 -31 83 -71c0 -39 -37 -63 -82 -80l-5 -27h-25c-7 8 -11 14 -11 24c0 32 82 43 82 82c0 28 -26 37 -47 37zM700 774h54v-75c0 -114 -49 -163 -135 -164v-249c0 -181 -107 -291 -269 -291
c-158 0 -267 108 -267 291v424h56v-419c0 -147 84 -240 211 -240c126 0 213 89 213 240v419h56v-135c60 5 81 40 81 126v73z" />
    <glyph glyph-name="uni1EEE" unicode="&#x1eee;" horiz-adv-x="771" 
d="M277 870c-28 0 -49 -21 -61 -58l-38 17c18 55 48 89 94 89c33 0 56 -16 79 -30c23 -15 45 -33 69 -33s46 19 59 58l37 -13c-17 -63 -52 -93 -91 -93c-34 0 -62 21 -87 38c-21 14 -41 25 -61 25zM700 774h54v-75c0 -114 -49 -163 -135 -164v-249
c0 -181 -107 -291 -269 -291c-158 0 -267 108 -267 291v424h56v-419c0 -147 84 -240 211 -240c126 0 213 89 213 240v419h56v-135c60 5 81 40 81 126v73z" />
    <glyph glyph-name="Uhungarumlaut" unicode="&#x170;" horiz-adv-x="701" 
d="M249 795l120 139h60l-125 -139h-55zM396 795l119 139h60l-125 -139h-54zM350 -5c-158 0 -267 108 -267 291v424h56v-419c0 -147 84 -240 211 -240c126 0 213 89 213 240v419h56v-424c0 -181 -107 -291 -269 -291z" />
    <glyph glyph-name="Umacron" unicode="&#x16a;" horiz-adv-x="701" 
d="M213 841v51h277v-51h-277zM350 -5c-158 0 -267 108 -267 291v424h56v-419c0 -147 84 -240 211 -240c126 0 213 89 213 240v419h56v-424c0 -181 -107 -291 -269 -291z" />
    <glyph glyph-name="Uogonek" unicode="&#x172;" horiz-adv-x="701" 
d="M563 710h56v-424c0 -152 -75 -254 -195 -283h1c-48 -19 -77 -56 -77 -91c0 -28 16 -48 53 -48c27 0 36 3 51 11l5 -42c-17 -9 -37 -13 -66 -13c-56 0 -92 29 -92 79c0 30 19 65 54 94v2h-3c-158 0 -267 108 -267 291v424h56v-419c0 -147 84 -240 211 -240
c126 0 213 89 213 240v419z" />
    <glyph glyph-name="Uring" unicode="&#x16e;" horiz-adv-x="701" 
d="M351 779c-49 0 -91 39 -91 89c0 49 40 89 91 89c49 0 91 -39 91 -89c0 -49 -40 -89 -91 -89zM351 823c25 0 46 20 46 45s-21 46 -46 46s-46 -21 -46 -46s21 -45 46 -45zM350 -5c-158 0 -267 108 -267 291v424h56v-419c0 -147 84 -240 211 -240c126 0 213 89 213 240v419
h56v-424c0 -181 -107 -291 -269 -291z" />
    <glyph glyph-name="Utilde" unicode="&#x168;" horiz-adv-x="701" 
d="M427 807c-34 0 -62 21 -87 38c-21 14 -41 25 -61 25c-28 0 -49 -21 -61 -58l-38 17c18 55 48 89 94 89c33 0 56 -16 79 -30c23 -15 45 -33 69 -33s46 19 59 58l37 -13c-17 -63 -52 -93 -91 -93zM350 -5c-158 0 -267 108 -267 291v424h56v-419c0 -147 84 -240 211 -240
c126 0 213 89 213 240v419h56v-424c0 -181 -107 -291 -269 -291z" />
    <glyph glyph-name="V" unicode="V" horiz-adv-x="658" 
d="M565 710h61l-270 -710h-53l-270 710h62l233 -626h2z" />
    <glyph glyph-name="W" unicode="W" horiz-adv-x="1012" 
d="M916 710h60l-228 -710h-59l-182 627h-1l-183 -627h-58l-229 710h60l197 -617h2l180 617h64l179 -619z" />
    <glyph glyph-name="Wacute" unicode="&#x1e82;" horiz-adv-x="1012" 
d="M672 934l-124 -139h-62l120 139h66zM916 710h60l-228 -710h-59l-182 627h-1l-183 -627h-58l-229 710h60l197 -617h2l180 617h64l179 -619z" />
    <glyph glyph-name="Wcircumflex" unicode="&#x174;" horiz-adv-x="1012" 
d="M504 892l-83 -97h-61l120 140h51l122 -140h-62l-83 97h-4zM916 710h60l-228 -710h-59l-182 627h-1l-183 -627h-58l-229 710h60l197 -617h2l180 617h64l179 -619z" />
    <glyph glyph-name="Wdieresis" unicode="&#x1e84;" horiz-adv-x="1012" 
d="M425 827c-26 0 -44 19 -44 44s18 44 44 44c25 0 44 -19 44 -44s-19 -44 -44 -44zM590 828c-24 0 -44 19 -44 43s20 43 44 43c25 0 43 -19 43 -43s-18 -43 -43 -43zM916 710h60l-228 -710h-59l-182 627h-1l-183 -627h-58l-229 710h60l197 -617h2l180 617h64l179 -619z" />
    <glyph glyph-name="Wgrave" unicode="&#x1e80;" horiz-adv-x="1012" 
d="M538 795h-62l-124 139h66zM916 710h60l-228 -710h-59l-182 627h-1l-183 -627h-58l-229 710h60l197 -617h2l180 617h64l179 -619z" />
    <glyph glyph-name="X" unicode="X" horiz-adv-x="642" 
d="M538 0l-216 307h-1l-217 -307h-68l248 354l-247 356h67l217 -309h1l215 309h67l-246 -356l248 -354h-68z" />
    <glyph glyph-name="Y" unicode="Y" 
d="M500 710h66l-246 -390v-320h-56v320l-244 390h65l206 -330h2z" />
    <glyph glyph-name="Yacute" unicode="&#xdd;" 
d="M447 934l-124 -139h-62l120 139h66zM500 710h66l-246 -390v-320h-56v320l-244 390h65l206 -330h2z" />
    <glyph glyph-name="Ycircumflex" unicode="&#x176;" 
d="M291 892l-83 -97h-61l120 140h51l122 -140h-62l-83 97h-4zM500 710h66l-246 -390v-320h-56v320l-244 390h65l206 -330h2z" />
    <glyph glyph-name="Ydieresis" unicode="&#x178;" 
d="M212 827c-26 0 -44 19 -44 44s18 44 44 44c25 0 44 -19 44 -44s-19 -44 -44 -44zM377 828c-24 0 -44 19 -44 43s20 43 44 43c25 0 43 -19 43 -43s-18 -43 -43 -43zM500 710h66l-246 -390v-320h-56v320l-244 390h65l206 -330h2z" />
    <glyph glyph-name="uni1EF4" unicode="&#x1ef4;" 
d="M264 0v320l-244 390h65l206 -330h2l207 330h66l-246 -390v-320h-56zM290 -120c26 0 45 -19 45 -44s-19 -44 -45 -44c-25 0 -44 19 -44 44s19 44 44 44z" />
    <glyph glyph-name="Ygrave" unicode="&#x1ef2;" 
d="M341 795h-62l-124 139h66zM500 710h66l-246 -390v-320h-56v320l-244 390h65l206 -330h2z" />
    <glyph glyph-name="uni1EF6" unicode="&#x1ef6;" 
d="M297 914c-28 0 -54 -13 -69 -32l-25 24c22 24 56 43 99 43c52 0 83 -31 83 -71c0 -39 -37 -63 -82 -80l-5 -27h-25c-7 8 -11 14 -11 24c0 32 82 43 82 82c0 28 -26 37 -47 37zM500 710h66l-246 -390v-320h-56v320l-244 390h65l206 -330h2z" />
    <glyph glyph-name="uni0232" unicode="&#x232;" 
d="M430 892v-51h-277v51h277zM500 710h66l-246 -390v-320h-56v320l-244 390h65l206 -330h2z" />
    <glyph glyph-name="uni1EF8" unicode="&#x1ef8;" 
d="M220 870c-28 0 -49 -21 -61 -58l-38 17c18 55 48 89 94 89c33 0 56 -16 79 -30c23 -15 45 -33 69 -33s46 19 59 58l37 -13c-17 -63 -52 -93 -91 -93c-34 0 -62 21 -87 38c-21 14 -41 25 -61 25zM500 710h66l-246 -390v-320h-56v320l-244 390h65l206 -330h2z" />
    <glyph glyph-name="Z" unicode="Z" horiz-adv-x="607" 
d="M133 54h409v-54h-482v47l404 607v3h-381v53h456v-47l-406 -608v-1z" />
    <glyph glyph-name="Zacute" unicode="&#x179;" horiz-adv-x="607" 
d="M408 935l-124 -139h-62l120 139h66zM133 54h409v-54h-482v47l404 607v3h-381v53h456v-47l-406 -608v-1z" />
    <glyph glyph-name="Zcaron" unicode="&#x17d;" horiz-adv-x="607" 
d="M323 795h-51l-118 140h61l84 -98h2l84 98h62zM133 54h409v-54h-482v47l404 607v3h-381v53h456v-47l-406 -608v-1z" />
    <glyph glyph-name="Zdotaccent" unicode="&#x17b;" horiz-adv-x="607" 
d="M302 827c-26 0 -45 19 -45 44s19 44 45 44c25 0 44 -19 44 -44s-19 -44 -44 -44zM133 54h409v-54h-482v47l404 607v3h-381v53h456v-47l-406 -608v-1z" />
    <glyph glyph-name="Q.alt" horiz-adv-x="828" 
d="M766 356c0 -148 -73 -263 -183 -321l152 -127l-35 -44l-173 148c-35 -11 -73 -17 -112 -17c-210 0 -352 158 -352 361c0 201 142 359 352 359c196 0 351 -143 351 -359zM122 356c0 -168 118 -305 294 -305c161 0 291 124 291 305s-130 304 -291 304
c-176 0 -294 -137 -294 -304z" />
    <glyph glyph-name="a" unicode="a" horiz-adv-x="598" 
d="M470 486h52v-486h-50v93h-2c-38 -60 -102 -98 -184 -98c-131 0 -238 96 -238 244c0 141 97 252 236 252c76 0 144 -37 184 -101h2v96zM289 45c98 0 183 78 183 193c0 113 -76 202 -182 202c-103 0 -188 -79 -188 -202c0 -109 76 -193 187 -193z" />
    <glyph glyph-name="aacute" unicode="&#xe1;" horiz-adv-x="598" 
d="M458 697l-124 -139h-62l120 139h66zM470 486h52v-486h-50v93h-2c-38 -60 -102 -98 -184 -98c-131 0 -238 96 -238 244c0 141 97 252 236 252c76 0 144 -37 184 -101h2v96zM289 45c98 0 183 78 183 193c0 113 -76 202 -182 202c-103 0 -188 -79 -188 -202
c0 -109 76 -193 187 -193z" />
    <glyph glyph-name="abreve" unicode="&#x103;" horiz-adv-x="598" 
d="M291 556c-68 0 -129 48 -134 134h46c4 -51 35 -90 88 -90c52 0 84 38 87 90h47c-6 -83 -62 -134 -134 -134zM470 486h52v-486h-50v93h-2c-38 -60 -102 -98 -184 -98c-131 0 -238 96 -238 244c0 141 97 252 236 252c76 0 144 -37 184 -101h2v96zM289 45
c98 0 183 78 183 193c0 113 -76 202 -182 202c-103 0 -188 -79 -188 -202c0 -109 76 -193 187 -193z" />
    <glyph glyph-name="uni1EAF" unicode="&#x1eaf;" horiz-adv-x="598" 
d="M420 840l-124 -139h-62l120 139h66zM290 556c-68 0 -129 48 -134 134h46c4 -51 35 -90 88 -90c52 0 84 38 87 90h47c-6 -83 -62 -134 -134 -134zM470 486h52v-486h-50v93h-2c-38 -60 -102 -98 -184 -98c-131 0 -238 96 -238 244c0 141 97 252 236 252
c76 0 144 -37 184 -101h2v96zM289 45c98 0 183 78 183 193c0 113 -76 202 -182 202c-103 0 -188 -79 -188 -202c0 -109 76 -193 187 -193z" />
    <glyph glyph-name="uni1EB7" unicode="&#x1eb7;" horiz-adv-x="598" 
d="M289 556c-68 0 -129 48 -134 134h46c4 -51 35 -90 88 -90c52 0 84 38 87 90h47c-6 -83 -62 -134 -134 -134zM470 486h52v-486h-50v93h-2c-38 -60 -102 -98 -184 -98c-131 0 -238 96 -238 244c0 141 97 252 236 252c76 0 144 -37 184 -101h2v96zM289 45
c98 0 183 78 183 193c0 113 -76 202 -182 202c-103 0 -188 -79 -188 -202c0 -109 76 -193 187 -193zM292 -120c26 0 45 -19 45 -44s-19 -44 -45 -44c-25 0 -44 19 -44 44s19 44 44 44z" />
    <glyph glyph-name="uni1EB1" unicode="&#x1eb1;" horiz-adv-x="598" 
d="M324 701h-62l-124 139h66zM203 690c4 -51 35 -90 88 -90c52 0 84 38 87 90h47c-6 -83 -62 -134 -134 -134c-68 0 -129 48 -134 134h46zM470 486h52v-486h-50v93h-2c-38 -60 -102 -98 -184 -98c-131 0 -238 96 -238 244c0 141 97 252 236 252c76 0 144 -37 184 -101h2v96z
M289 45c98 0 183 78 183 193c0 113 -76 202 -182 202c-103 0 -188 -79 -188 -202c0 -109 76 -193 187 -193z" />
    <glyph glyph-name="uni1EB3" unicode="&#x1eb3;" horiz-adv-x="598" 
d="M294 821c-28 0 -54 -13 -69 -32l-25 24c22 24 56 43 99 43c52 0 83 -31 83 -71c0 -39 -37 -63 -82 -80l-5 -27h-25c-7 8 -11 14 -11 24c0 32 82 43 82 82c0 28 -26 37 -47 37zM290 556c-68 0 -129 48 -134 134h46c4 -51 35 -90 88 -90c52 0 84 38 87 90h47
c-6 -83 -62 -134 -134 -134zM470 486h52v-486h-50v93h-2c-38 -60 -102 -98 -184 -98c-131 0 -238 96 -238 244c0 141 97 252 236 252c76 0 144 -37 184 -101h2v96zM289 45c98 0 183 78 183 193c0 113 -76 202 -182 202c-103 0 -188 -79 -188 -202c0 -109 76 -193 187 -193z
" />
    <glyph glyph-name="uni1EB5" unicode="&#x1eb5;" horiz-adv-x="598" 
d="M220 777c-21 0 -43 -21 -56 -58l-38 17c18 55 49 89 90 89c33 0 54 -16 77 -30c23 -15 45 -33 69 -33s46 19 59 58l37 -13c-18 -63 -52 -93 -91 -93c-34 0 -62 21 -87 38c-21 14 -37 25 -60 25zM290 600c52 0 84 38 87 90h47c-6 -83 -62 -134 -134 -134
c-68 0 -129 48 -134 134h46c4 -51 35 -90 88 -90zM470 486h52v-486h-50v93h-2c-38 -60 -102 -98 -184 -98c-131 0 -238 96 -238 244c0 141 97 252 236 252c76 0 144 -37 184 -101h2v96zM289 45c98 0 183 78 183 193c0 113 -76 202 -182 202c-103 0 -188 -79 -188 -202
c0 -109 76 -193 187 -193z" />
    <glyph glyph-name="acircumflex" unicode="&#xe2;" horiz-adv-x="598" 
d="M288 654l-83 -97h-61l120 140h51l122 -140h-62l-83 97h-4zM470 486h52v-486h-50v93h-2c-38 -60 -102 -98 -184 -98c-131 0 -238 96 -238 244c0 141 97 252 236 252c76 0 144 -37 184 -101h2v96zM289 45c98 0 183 78 183 193c0 113 -76 202 -182 202
c-103 0 -188 -79 -188 -202c0 -109 76 -193 187 -193z" />
    <glyph glyph-name="uni1EA5" unicode="&#x1ea5;" horiz-adv-x="598" 
d="M575 779l-135 -138h-48l120 138h63zM288 654l-83 -97h-61l120 140h51l122 -140h-62l-83 97h-4zM470 390v96h52v-486h-50v93h-2c-38 -60 -102 -98 -184 -98c-131 0 -238 96 -238 244c0 141 97 252 236 252c76 0 144 -37 184 -101h2zM289 45c98 0 183 78 183 193
c0 113 -76 202 -182 202c-103 0 -188 -79 -188 -202c0 -109 76 -193 187 -193z" />
    <glyph glyph-name="uni1EAD" unicode="&#x1ead;" horiz-adv-x="598" 
d="M286 654l-83 -97h-61l120 140h51l122 -140h-62l-83 97h-4zM470 486h52v-486h-50v93h-2c-38 -60 -102 -98 -184 -98c-131 0 -238 96 -238 244c0 141 97 252 236 252c76 0 144 -37 184 -101h2v96zM289 45c98 0 183 78 183 193c0 113 -76 202 -182 202
c-103 0 -188 -79 -188 -202c0 -109 76 -193 187 -193zM292 -120c26 0 45 -19 45 -44s-19 -44 -45 -44c-25 0 -44 19 -44 44s19 44 44 44z" />
    <glyph glyph-name="uni1EA7" unicode="&#x1ea7;" horiz-adv-x="598" 
d="M487 641h-49l-124 138h63zM290 655l-83 -97h-61l120 140h51l122 -140h-62l-83 97h-4zM470 486h52v-486h-50v93h-2c-38 -60 -102 -98 -184 -98c-131 0 -238 96 -238 244c0 141 97 252 236 252c76 0 144 -37 184 -101h2v96zM289 45c98 0 183 78 183 193
c0 113 -76 202 -182 202c-103 0 -188 -79 -188 -202c0 -109 76 -193 187 -193z" />
    <glyph glyph-name="uni1EA9" unicode="&#x1ea9;" horiz-adv-x="598" 
d="M437 760c-28 0 -55 -14 -69 -33l-26 24c23 24 57 43 99 43c51 0 82 -30 82 -71c0 -39 -38 -63 -81 -80l-4 -27h-25c-7 9 -12 14 -12 24c0 32 81 43 81 82c0 27 -24 38 -45 38zM288 654l-83 -97h-61l120 140h51l122 -140h-62l-83 97h-4zM470 390v96h52v-486h-50v93h-2
c-38 -60 -102 -98 -184 -98c-131 0 -238 96 -238 244c0 141 97 252 236 252c76 0 144 -37 184 -101h2zM289 45c98 0 183 78 183 193c0 113 -76 202 -182 202c-103 0 -188 -79 -188 -202c0 -109 76 -193 187 -193z" />
    <glyph glyph-name="uni1EAB" unicode="&#x1eab;" horiz-adv-x="598" 
d="M221 777c-21 0 -43 -21 -56 -58l-38 17c18 55 49 89 90 89c33 0 54 -16 77 -30c23 -15 45 -33 69 -33s46 19 59 58l37 -13c-18 -63 -52 -93 -91 -93c-34 0 -62 21 -87 38c-21 14 -37 25 -60 25zM265 697h51l122 -140h-62l-83 97h-4l-83 -97h-61zM470 486h52v-486h-50v93
h-2c-38 -60 -102 -98 -184 -98c-131 0 -238 96 -238 244c0 141 97 252 236 252c76 0 144 -37 184 -101h2v96zM289 45c98 0 183 78 183 193c0 113 -76 202 -182 202c-103 0 -188 -79 -188 -202c0 -109 76 -193 187 -193z" />
    <glyph glyph-name="adieresis" unicode="&#xe4;" horiz-adv-x="598" 
d="M209 589c-26 0 -44 19 -44 44s18 44 44 44c25 0 44 -19 44 -44s-19 -44 -44 -44zM374 590c-24 0 -44 19 -44 43s20 43 44 43c25 0 43 -19 43 -43s-18 -43 -43 -43zM470 486h52v-486h-50v93h-2c-38 -60 -102 -98 -184 -98c-131 0 -238 96 -238 244c0 141 97 252 236 252
c76 0 144 -37 184 -101h2v96zM289 45c98 0 183 78 183 193c0 113 -76 202 -182 202c-103 0 -188 -79 -188 -202c0 -109 76 -193 187 -193z" />
    <glyph glyph-name="uni1EA1" unicode="&#x1ea1;" horiz-adv-x="598" 
d="M470 486h52v-486h-50v93h-2c-38 -60 -102 -98 -184 -98c-131 0 -238 96 -238 244c0 141 97 252 236 252c76 0 144 -37 184 -101h2v96zM289 45c98 0 183 78 183 193c0 113 -76 202 -182 202c-103 0 -188 -79 -188 -202c0 -109 76 -193 187 -193zM292 -120
c26 0 45 -19 45 -44s-19 -44 -45 -44c-25 0 -44 19 -44 44s19 44 44 44z" />
    <glyph glyph-name="agrave" unicode="&#xe0;" horiz-adv-x="598" 
d="M361 558h-62l-124 139h66zM470 486h52v-486h-50v93h-2c-38 -60 -102 -98 -184 -98c-131 0 -238 96 -238 244c0 141 97 252 236 252c76 0 144 -37 184 -101h2v96zM289 45c98 0 183 78 183 193c0 113 -76 202 -182 202c-103 0 -188 -79 -188 -202c0 -109 76 -193 187 -193z
" />
    <glyph glyph-name="uni1EA3" unicode="&#x1ea3;" horiz-adv-x="598" 
d="M294 676c-28 0 -54 -13 -69 -32l-25 24c22 24 56 43 99 43c52 0 83 -31 83 -71c0 -39 -37 -63 -82 -80l-5 -27h-25c-7 8 -11 14 -11 24c0 32 82 43 82 82c0 28 -26 37 -47 37zM470 486h52v-486h-50v93h-2c-38 -60 -102 -98 -184 -98c-131 0 -238 96 -238 244
c0 141 97 252 236 252c76 0 144 -37 184 -101h2v96zM289 45c98 0 183 78 183 193c0 113 -76 202 -182 202c-103 0 -188 -79 -188 -202c0 -109 76 -193 187 -193z" />
    <glyph glyph-name="amacron" unicode="&#x101;" horiz-adv-x="598" 
d="M430 654v-51h-277v51h277zM470 486h52v-486h-50v93h-2c-38 -60 -102 -98 -184 -98c-131 0 -238 96 -238 244c0 141 97 252 236 252c76 0 144 -37 184 -101h2v96zM289 45c98 0 183 78 183 193c0 113 -76 202 -182 202c-103 0 -188 -79 -188 -202c0 -109 76 -193 187 -193z
" />
    <glyph glyph-name="aogonek" unicode="&#x105;" horiz-adv-x="598" 
d="M545 -128l5 -42c-17 -9 -37 -13 -66 -13c-56 0 -92 29 -92 79c0 37 28 81 80 112v85h-2c-38 -60 -102 -98 -184 -98c-131 0 -238 96 -238 244c0 141 97 252 236 252c76 0 144 -37 184 -101h2v96h52v-486h-4c-48 -19 -77 -56 -77 -91c0 -28 16 -48 53 -48c27 0 36 3 51 11
zM289 45c98 0 183 78 183 193c0 113 -76 202 -182 202c-103 0 -188 -79 -188 -202c0 -109 76 -193 187 -193z" />
    <glyph glyph-name="aring" unicode="&#xe5;" horiz-adv-x="598" 
d="M291 541c-49 0 -91 39 -91 89c0 49 40 89 91 89c49 0 91 -39 91 -89c0 -49 -40 -89 -91 -89zM291 676c-25 0 -46 -21 -46 -46s21 -45 46 -45s46 20 46 45s-21 46 -46 46zM470 486h52v-486h-50v93h-2c-38 -60 -102 -98 -184 -98c-131 0 -238 96 -238 244
c0 141 97 252 236 252c76 0 144 -37 184 -101h2v96zM289 45c98 0 183 78 183 193c0 113 -76 202 -182 202c-103 0 -188 -79 -188 -202c0 -109 76 -193 187 -193z" />
    <glyph glyph-name="aringacute" unicode="&#x1fb;" horiz-adv-x="598" 
d="M291 541c-49 0 -91 39 -91 89c0 49 40 89 91 89c28 0 53 -12 70 -32l78 52h72l-131 -91c1 -6 2 -12 2 -18c0 -49 -40 -89 -91 -89zM291 676c-25 0 -46 -21 -46 -46s21 -45 46 -45s46 20 46 45s-21 46 -46 46zM470 486h52v-486h-50v93h-2c-38 -60 -102 -98 -184 -98
c-131 0 -238 96 -238 244c0 141 97 252 236 252c76 0 144 -37 184 -101h2v96zM289 45c98 0 183 78 183 193c0 113 -76 202 -182 202c-103 0 -188 -79 -188 -202c0 -109 76 -193 187 -193z" />
    <glyph glyph-name="atilde" unicode="&#xe3;" horiz-adv-x="598" 
d="M219 632c-28 0 -49 -21 -61 -58l-38 17c18 55 48 89 94 89c33 0 56 -16 79 -30c23 -15 45 -33 69 -33s46 19 59 58l37 -13c-17 -63 -52 -93 -91 -93c-34 0 -62 21 -87 38c-21 14 -41 25 -61 25zM470 486h52v-486h-50v93h-2c-38 -60 -102 -98 -184 -98
c-131 0 -238 96 -238 244c0 141 97 252 236 252c76 0 144 -37 184 -101h2v96zM289 45c98 0 183 78 183 193c0 113 -76 202 -182 202c-103 0 -188 -79 -188 -202c0 -109 76 -193 187 -193z" />
    <glyph glyph-name="ae" unicode="&#xe6;" horiz-adv-x="798" 
d="M763 253c0 -9 -1 -19 -1 -24h-361c6 -108 73 -184 163 -184c56 0 105 29 140 73l38 -32c-42 -55 -104 -91 -179 -91c-78 0 -144 48 -178 121c-23 -71 -94 -121 -188 -121c-107 0 -158 66 -158 142c0 82 56 141 172 141h140v16c0 109 -29 147 -103 147
c-60 0 -109 -20 -147 -40l-22 43c48 29 114 47 171 47c79 0 122 -34 139 -108h1c36 66 98 107 176 107c114 0 197 -100 197 -237zM563 440c-83 0 -147 -66 -160 -162h307c-11 98 -70 162 -147 162zM201 45c80 0 149 53 149 139c0 5 0 10 1 16v30l-135 -1
c-68 0 -124 -29 -124 -90c0 -48 35 -94 109 -94z" />
    <glyph glyph-name="aeacute" unicode="&#x1fd;" horiz-adv-x="798" 
d="M546 703l-124 -139h-62l120 139h66zM763 253c0 -9 -1 -19 -1 -24h-361c6 -108 73 -184 163 -184c56 0 105 29 140 73l38 -32c-42 -55 -104 -91 -179 -91c-78 0 -144 48 -178 121c-23 -71 -94 -121 -188 -121c-107 0 -158 66 -158 142c0 82 56 141 172 141h140v16
c0 109 -29 147 -103 147c-60 0 -109 -20 -147 -40l-22 43c48 29 114 47 171 47c79 0 122 -34 139 -108h1c36 66 98 107 176 107c114 0 197 -100 197 -237zM563 440c-83 0 -147 -66 -160 -162h307c-11 98 -70 162 -147 162zM201 45c80 0 149 53 149 139c0 5 0 10 1 16v30
l-135 -1c-68 0 -124 -29 -124 -90c0 -48 35 -94 109 -94z" />
    <glyph glyph-name="b" unicode="b" horiz-adv-x="606" 
d="M320 491c139 0 236 -111 236 -252c0 -148 -107 -244 -238 -244c-82 0 -146 38 -184 98h-2v-93h-51v736h53v-346h2c40 64 108 101 184 101zM315 45c111 0 187 84 187 193c0 123 -85 202 -188 202c-106 0 -182 -89 -182 -202c0 -115 85 -193 183 -193z" />
    <glyph glyph-name="c" unicode="c" horiz-adv-x="517" 
d="M286 -5c-140 0 -237 101 -237 247s97 248 239 248c70 0 142 -27 189 -81l-38 -34c-32 38 -85 65 -149 65c-111 0 -187 -82 -187 -197c0 -118 76 -198 187 -198c61 0 118 25 152 64l37 -35c-41 -45 -112 -79 -193 -79z" />
    <glyph glyph-name="cacute" unicode="&#x107;" horiz-adv-x="517" 
d="M254 558l120 139h66l-124 -139h-62zM286 -5c-140 0 -237 101 -237 247s97 248 239 248c70 0 142 -27 189 -81l-38 -34c-32 38 -85 65 -149 65c-111 0 -187 -82 -187 -197c0 -118 76 -198 187 -198c61 0 118 25 152 64l37 -35c-41 -45 -112 -79 -193 -79z" />
    <glyph glyph-name="ccaron" unicode="&#x10d;" horiz-adv-x="517" 
d="M311 557h-51l-118 140h61l84 -98h2l84 98h62zM442 109l37 -35c-41 -45 -112 -79 -193 -79c-140 0 -237 101 -237 247s97 248 239 248c70 0 142 -27 189 -81l-38 -34c-32 38 -85 65 -149 65c-111 0 -187 -82 -187 -197c0 -118 76 -198 187 -198c61 0 118 25 152 64z" />
    <glyph glyph-name="ccedilla" unicode="&#xe7;" horiz-adv-x="517" 
d="M294 -5l-14 -29c46 -2 86 -29 86 -78c0 -40 -31 -74 -97 -74c-20 0 -37 2 -52 6v34c13 -4 27 -7 46 -7c32 0 62 14 62 44c0 25 -27 48 -83 48v26l14 30v2c-124 13 -207 110 -207 245c0 146 97 248 239 248c70 0 142 -27 189 -81l-38 -34c-32 38 -85 65 -149 65
c-111 0 -187 -82 -187 -197c0 -118 76 -198 187 -198c61 0 118 25 152 64l37 -35c-40 -44 -107 -77 -185 -79z" />
    <glyph glyph-name="ccircumflex" unicode="&#x109;" horiz-adv-x="517" 
d="M286 654l-83 -97h-61l120 140h51l122 -140h-62l-83 97h-4zM442 109l37 -35c-41 -45 -112 -79 -193 -79c-140 0 -237 101 -237 247s97 248 239 248c70 0 142 -27 189 -81l-38 -34c-32 38 -85 65 -149 65c-111 0 -187 -82 -187 -197c0 -118 76 -198 187 -198
c61 0 118 25 152 64z" />
    <glyph glyph-name="cdotaccent" unicode="&#x10b;" horiz-adv-x="517" 
d="M290 589c-26 0 -45 19 -45 44s19 44 45 44c25 0 44 -19 44 -44s-19 -44 -44 -44zM286 -5c-140 0 -237 101 -237 247s97 248 239 248c70 0 142 -27 189 -81l-38 -34c-32 38 -85 65 -149 65c-111 0 -187 -82 -187 -197c0 -118 76 -198 187 -198c61 0 118 25 152 64l37 -35
c-41 -45 -112 -79 -193 -79z" />
    <glyph glyph-name="d" unicode="d" horiz-adv-x="605" 
d="M472 736h52v-736h-51v92h-2c-38 -60 -101 -97 -184 -97c-131 0 -238 96 -238 244c0 141 97 252 236 252c77 0 144 -37 185 -101h2v346zM291 45c98 0 182 78 182 193c0 113 -76 202 -182 202c-103 0 -188 -79 -188 -202c0 -109 76 -193 188 -193z" />
    <glyph glyph-name="eth" unicode="&#xf0;" horiz-adv-x="591" 
d="M541 248v-3c0 -140 -100 -250 -247 -250c-135 0 -244 100 -244 243c0 145 101 251 242 251c73 0 128 -28 170 -73l1 1c-37 90 -98 160 -174 211l-81 -63l-30 35l68 54c-30 16 -62 30 -96 41l27 44c39 -13 77 -31 112 -52l71 56l30 -37l-60 -47c127 -93 211 -239 211 -411
zM295 45c114 0 192 87 192 196c0 118 -86 198 -193 198c-113 0 -190 -88 -190 -198c0 -116 84 -196 191 -196z" />
    <glyph glyph-name="dcaron" unicode="&#x10f;" horiz-adv-x="678" 
d="M637 765h54l-41 -173h-40zM472 390v346h52v-736h-51v92h-2c-38 -60 -101 -97 -184 -97c-131 0 -238 96 -238 244c0 141 97 252 236 252c77 0 144 -37 185 -101h2zM291 45c98 0 182 78 182 193c0 113 -76 202 -182 202c-103 0 -188 -79 -188 -202c0 -109 76 -193 188 -193
z" />
    <glyph glyph-name="dcroat" unicode="&#x111;" horiz-adv-x="612" 
d="M598 624v-48h-74v-576h-51v92h-2c-38 -60 -101 -97 -184 -97c-131 0 -238 96 -238 244c0 141 97 252 236 252c77 0 144 -37 185 -101h2v186h-133v48h133v112h52v-112h74zM291 45c98 0 182 78 182 193c0 113 -76 202 -182 202c-103 0 -188 -79 -188 -202
c0 -109 76 -193 188 -193z" />
    <glyph glyph-name="e" unicode="e" horiz-adv-x="543" 
d="M496 256c0 -12 -1 -25 -1 -26h-392c6 -111 81 -185 182 -185c67 0 118 30 153 73l38 -32c-42 -55 -106 -91 -190 -91c-135 0 -237 101 -237 248c0 146 101 247 228 247c132 0 219 -100 219 -234zM281 440c-89 0 -161 -63 -175 -161h337c-11 96 -72 161 -162 161z" />
    <glyph glyph-name="eacute" unicode="&#xe9;" horiz-adv-x="543" 
d="M430 697l-124 -139h-62l120 139h66zM496 256c0 -12 -1 -25 -1 -26h-392c6 -111 81 -185 182 -185c67 0 118 30 153 73l38 -32c-42 -55 -106 -91 -190 -91c-135 0 -237 101 -237 248c0 146 101 247 228 247c132 0 219 -100 219 -234zM281 440c-89 0 -161 -63 -175 -161
h337c-11 96 -72 161 -162 161z" />
    <glyph glyph-name="ebreve" unicode="&#x115;" horiz-adv-x="543" 
d="M285 556c-68 0 -129 48 -134 134h46c4 -51 35 -90 88 -90c52 0 84 38 87 90h47c-6 -83 -62 -134 -134 -134zM496 256c0 -12 -1 -25 -1 -26h-392c6 -111 81 -185 182 -185c67 0 118 30 153 73l38 -32c-42 -55 -106 -91 -190 -91c-135 0 -237 101 -237 248
c0 146 101 247 228 247c132 0 219 -100 219 -234zM281 440c-89 0 -161 -63 -175 -161h337c-11 96 -72 161 -162 161z" />
    <glyph glyph-name="ecaron" unicode="&#x11b;" horiz-adv-x="543" 
d="M307 557h-51l-118 140h61l84 -98h2l84 98h62zM496 256c0 -12 -1 -25 -1 -26h-392c6 -111 81 -185 182 -185c67 0 118 30 153 73l38 -32c-42 -55 -106 -91 -190 -91c-135 0 -237 101 -237 248c0 146 101 247 228 247c132 0 219 -100 219 -234zM281 440
c-89 0 -161 -63 -175 -161h337c-11 96 -72 161 -162 161z" />
    <glyph glyph-name="ecircumflex" unicode="&#xea;" horiz-adv-x="543" 
d="M282 654l-83 -97h-61l120 140h51l122 -140h-62l-83 97h-4zM496 256c0 -12 -1 -25 -1 -26h-392c6 -111 81 -185 182 -185c67 0 118 30 153 73l38 -32c-42 -55 -106 -91 -190 -91c-135 0 -237 101 -237 248c0 146 101 247 228 247c132 0 219 -100 219 -234zM281 440
c-89 0 -161 -63 -175 -161h337c-11 96 -72 161 -162 161z" />
    <glyph glyph-name="uni1EBF" unicode="&#x1ebf;" horiz-adv-x="543" 
d="M569 779l-135 -138h-48l120 138h63zM282 654l-83 -97h-61l120 140h51l122 -140h-62l-83 97h-4zM277 490c132 0 219 -100 219 -234c0 -12 -1 -25 -1 -26h-392c6 -111 81 -185 182 -185c67 0 118 30 153 73l38 -32c-42 -55 -106 -91 -190 -91c-135 0 -237 101 -237 248
c0 146 101 247 228 247zM281 440c-89 0 -161 -63 -175 -161h337c-11 96 -72 161 -162 161z" />
    <glyph glyph-name="uni1EC7" unicode="&#x1ec7;" horiz-adv-x="543" 
d="M280 654l-83 -97h-61l120 140h51l122 -140h-62l-83 97h-4zM496 256c0 -12 -1 -25 -1 -26h-392c6 -111 81 -185 182 -185c67 0 118 30 153 73l38 -32c-42 -55 -106 -91 -190 -91c-135 0 -237 101 -237 248c0 146 101 247 228 247c132 0 219 -100 219 -234zM281 440
c-89 0 -161 -63 -175 -161h337c-11 96 -72 161 -162 161zM288 -120c26 0 45 -19 45 -44s-19 -44 -45 -44c-25 0 -44 19 -44 44s19 44 44 44z" />
    <glyph glyph-name="uni1EC1" unicode="&#x1ec1;" horiz-adv-x="543" 
d="M481 641h-49l-124 138h63zM284 655l-83 -97h-61l120 140h51l122 -140h-62l-83 97h-4zM496 256c0 -12 -1 -25 -1 -26h-392c6 -111 81 -185 182 -185c67 0 118 30 153 73l38 -32c-42 -55 -106 -91 -190 -91c-135 0 -237 101 -237 248c0 146 101 247 228 247
c132 0 219 -100 219 -234zM281 440c-89 0 -161 -63 -175 -161h337c-11 96 -72 161 -162 161z" />
    <glyph glyph-name="uni1EC3" unicode="&#x1ec3;" horiz-adv-x="543" 
d="M435 794c51 0 82 -30 82 -71c0 -39 -38 -63 -81 -80l-4 -27h-25c-7 9 -12 14 -12 24c0 32 81 43 81 82c0 27 -24 38 -45 38c-28 0 -55 -14 -69 -33l-26 24c23 24 57 43 99 43zM282 654l-83 -97h-61l120 140h51l122 -140h-62l-83 97h-4zM277 490c132 0 219 -100 219 -234
c0 -12 -1 -25 -1 -26h-392c6 -111 81 -185 182 -185c67 0 118 30 153 73l38 -32c-42 -55 -106 -91 -190 -91c-135 0 -237 101 -237 248c0 146 101 247 228 247zM281 440c-89 0 -161 -63 -175 -161h337c-11 96 -72 161 -162 161z" />
    <glyph glyph-name="uni1EC5" unicode="&#x1ec5;" horiz-adv-x="543" 
d="M215 777c-21 0 -43 -21 -56 -58l-38 17c18 55 49 89 90 89c33 0 54 -16 77 -30c23 -15 45 -33 69 -33s46 19 59 58l37 -13c-18 -63 -52 -93 -91 -93c-34 0 -62 21 -87 38c-21 14 -37 25 -60 25zM259 697h51l122 -140h-62l-83 97h-4l-83 -97h-61zM496 256
c0 -12 -1 -25 -1 -26h-392c6 -111 81 -185 182 -185c67 0 118 30 153 73l38 -32c-42 -55 -106 -91 -190 -91c-135 0 -237 101 -237 248c0 146 101 247 228 247c132 0 219 -100 219 -234zM281 440c-89 0 -161 -63 -175 -161h337c-11 96 -72 161 -162 161z" />
    <glyph glyph-name="edieresis" unicode="&#xeb;" horiz-adv-x="543" 
d="M203 589c-26 0 -44 19 -44 44s18 44 44 44c25 0 44 -19 44 -44s-19 -44 -44 -44zM368 590c-24 0 -44 19 -44 43s20 43 44 43c25 0 43 -19 43 -43s-18 -43 -43 -43zM496 256c0 -12 -1 -25 -1 -26h-392c6 -111 81 -185 182 -185c67 0 118 30 153 73l38 -32
c-42 -55 -106 -91 -190 -91c-135 0 -237 101 -237 248c0 146 101 247 228 247c132 0 219 -100 219 -234zM281 440c-89 0 -161 -63 -175 -161h337c-11 96 -72 161 -162 161z" />
    <glyph glyph-name="edotaccent" unicode="&#x117;" horiz-adv-x="543" 
d="M286 589c-26 0 -45 19 -45 44s19 44 45 44c25 0 44 -19 44 -44s-19 -44 -44 -44zM496 256c0 -12 -1 -25 -1 -26h-392c6 -111 81 -185 182 -185c67 0 118 30 153 73l38 -32c-42 -55 -106 -91 -190 -91c-135 0 -237 101 -237 248c0 146 101 247 228 247
c132 0 219 -100 219 -234zM281 440c-89 0 -161 -63 -175 -161h337c-11 96 -72 161 -162 161z" />
    <glyph glyph-name="uni1EB9" unicode="&#x1eb9;" horiz-adv-x="543" 
d="M496 256c0 -12 -1 -25 -1 -26h-392c6 -111 81 -185 182 -185c67 0 118 30 153 73l38 -32c-42 -55 -106 -91 -190 -91c-135 0 -237 101 -237 248c0 146 101 247 228 247c132 0 219 -100 219 -234zM281 440c-89 0 -161 -63 -175 -161h337c-11 96 -72 161 -162 161z
M288 -120c26 0 45 -19 45 -44s-19 -44 -45 -44c-25 0 -44 19 -44 44s19 44 44 44z" />
    <glyph glyph-name="egrave" unicode="&#xe8;" horiz-adv-x="543" 
d="M345 558h-62l-124 139h66zM496 256c0 -12 -1 -25 -1 -26h-392c6 -111 81 -185 182 -185c67 0 118 30 153 73l38 -32c-42 -55 -106 -91 -190 -91c-135 0 -237 101 -237 248c0 146 101 247 228 247c132 0 219 -100 219 -234zM281 440c-89 0 -161 -63 -175 -161h337
c-11 96 -72 161 -162 161z" />
    <glyph glyph-name="uni1EBB" unicode="&#x1ebb;" horiz-adv-x="543" 
d="M288 676c-28 0 -54 -13 -69 -32l-25 24c22 24 56 43 99 43c52 0 83 -31 83 -71c0 -39 -37 -63 -82 -80l-5 -27h-25c-7 8 -11 14 -11 24c0 32 82 43 82 82c0 28 -26 37 -47 37zM496 256c0 -12 -1 -25 -1 -26h-392c6 -111 81 -185 182 -185c67 0 118 30 153 73l38 -32
c-42 -55 -106 -91 -190 -91c-135 0 -237 101 -237 248c0 146 101 247 228 247c132 0 219 -100 219 -234zM281 440c-89 0 -161 -63 -175 -161h337c-11 96 -72 161 -162 161z" />
    <glyph glyph-name="emacron" unicode="&#x113;" horiz-adv-x="543" 
d="M424 654v-51h-277v51h277zM496 256c0 -12 -1 -25 -1 -26h-392c6 -111 81 -185 182 -185c67 0 118 30 153 73l38 -32c-42 -55 -106 -91 -190 -91c-135 0 -237 101 -237 248c0 146 101 247 228 247c132 0 219 -100 219 -234zM281 440c-89 0 -161 -63 -175 -161h337
c-11 96 -72 161 -162 161z" />
    <glyph glyph-name="eogonek" unicode="&#x119;" horiz-adv-x="543" 
d="M496 256c0 -12 -1 -25 -1 -26h-392c6 -111 81 -185 182 -185c67 0 118 30 153 73l38 -32c-32 -42 -78 -73 -135 -85c-48 -23 -79 -55 -79 -89c0 -24 16 -44 53 -44c27 0 36 3 51 10l5 -45c-17 -8 -36 -13 -65 -13c-63 0 -99 29 -99 80c0 30 19 65 55 94v2
c-123 12 -213 109 -213 247c0 146 101 247 228 247c132 0 219 -100 219 -234zM281 440c-89 0 -161 -63 -175 -161h337c-11 96 -72 161 -162 161z" />
    <glyph glyph-name="uni1EBD" unicode="&#x1ebd;" horiz-adv-x="543" 
d="M211 632c-28 0 -49 -21 -61 -58l-38 17c18 55 48 89 94 89c33 0 56 -16 79 -30c23 -15 45 -33 69 -33s46 19 59 58l37 -13c-17 -63 -52 -93 -91 -93c-34 0 -62 21 -87 38c-21 14 -41 25 -61 25zM496 256c0 -12 -1 -25 -1 -26h-392c6 -111 81 -185 182 -185
c67 0 118 30 153 73l38 -32c-42 -55 -106 -91 -190 -91c-135 0 -237 101 -237 248c0 146 101 247 228 247c132 0 219 -100 219 -234zM281 440c-89 0 -161 -63 -175 -161h337c-11 96 -72 161 -162 161z" />
    <glyph glyph-name="f" unicode="f" horiz-adv-x="328" 
d="M104 0v437h-64v49h64v107c0 101 49 148 127 148c43 0 76 -12 104 -28l-11 -47c-30 16 -57 25 -89 25c-45 0 -79 -28 -79 -102v-103h155v-49h-155v-437h-52z" />
    <glyph glyph-name="g" unicode="g" horiz-adv-x="594" 
d="M467 486h52v-463c0 -132 -72 -226 -231 -226c-73 0 -137 18 -198 55l14 49c59 -36 113 -54 183 -54c122 0 180 72 180 168v83h-2c-40 -56 -102 -89 -181 -89c-131 0 -235 94 -235 239c0 138 95 243 233 243c74 0 141 -34 183 -92h2v87zM286 59c110 0 182 83 182 194
c0 113 -80 188 -181 188c-108 0 -184 -82 -184 -191c0 -117 84 -191 183 -191z" />
    <glyph glyph-name="gbreve" unicode="&#x11f;" horiz-adv-x="594" 
d="M282 556c-68 0 -129 48 -134 134h46c4 -51 35 -90 88 -90c52 0 84 38 87 90h47c-6 -83 -62 -134 -134 -134zM467 486h52v-463c0 -132 -72 -226 -231 -226c-73 0 -137 18 -198 55l14 49c59 -36 113 -54 183 -54c122 0 180 72 180 168v83h-2c-40 -56 -102 -89 -181 -89
c-131 0 -235 94 -235 239c0 138 95 243 233 243c74 0 141 -34 183 -92h2v87zM286 59c110 0 182 83 182 194c0 113 -80 188 -181 188c-108 0 -184 -82 -184 -191c0 -117 84 -191 183 -191z" />
    <glyph glyph-name="gcaron" unicode="&#x1e7;" horiz-adv-x="594" 
d="M302 557h-51l-118 140h61l84 -98h2l84 98h62zM467 486h52v-463c0 -132 -72 -226 -231 -226c-73 0 -137 18 -198 55l14 49c59 -36 113 -54 183 -54c122 0 180 72 180 168v83h-2c-40 -56 -102 -89 -181 -89c-131 0 -235 94 -235 239c0 138 95 243 233 243
c74 0 141 -34 183 -92h2v87zM286 59c110 0 182 83 182 194c0 113 -80 188 -181 188c-108 0 -184 -82 -184 -191c0 -117 84 -191 183 -191z" />
    <glyph glyph-name="gcircumflex" unicode="&#x11d;" horiz-adv-x="594" 
d="M279 654l-83 -97h-61l120 140h51l122 -140h-62l-83 97h-4zM467 486h52v-463c0 -132 -72 -226 -231 -226c-73 0 -137 18 -198 55l14 49c59 -36 113 -54 183 -54c122 0 180 72 180 168v83h-2c-40 -56 -102 -89 -181 -89c-131 0 -235 94 -235 239c0 138 95 243 233 243
c74 0 141 -34 183 -92h2v87zM286 59c110 0 182 83 182 194c0 113 -80 188 -181 188c-108 0 -184 -82 -184 -191c0 -117 84 -191 183 -191z" />
    <glyph glyph-name="gcommaaccent" unicode="&#x123;" horiz-adv-x="594" 
d="M316 553h-50c-4 16 -5 34 -5 53c0 55 33 94 99 99l14 -34c-52 -7 -64 -34 -64 -68c0 -17 2 -32 6 -50zM467 486h52v-463c0 -132 -72 -226 -231 -226c-73 0 -137 18 -198 55l14 49c59 -36 113 -54 183 -54c122 0 180 72 180 168v83h-2c-40 -56 -102 -89 -181 -89
c-131 0 -235 94 -235 239c0 138 95 243 233 243c74 0 141 -34 183 -92h2v87zM286 59c110 0 182 83 182 194c0 113 -80 188 -181 188c-108 0 -184 -82 -184 -191c0 -117 84 -191 183 -191z" />
    <glyph glyph-name="gdotaccent" unicode="&#x121;" horiz-adv-x="594" 
d="M283 589c-26 0 -45 19 -45 44s19 44 45 44c25 0 44 -19 44 -44s-19 -44 -44 -44zM467 486h52v-463c0 -132 -72 -226 -231 -226c-73 0 -137 18 -198 55l14 49c59 -36 113 -54 183 -54c122 0 180 72 180 168v83h-2c-40 -56 -102 -89 -181 -89c-131 0 -235 94 -235 239
c0 138 95 243 233 243c74 0 141 -34 183 -92h2v87zM286 59c110 0 182 83 182 194c0 113 -80 188 -181 188c-108 0 -184 -82 -184 -191c0 -117 84 -191 183 -191z" />
    <glyph glyph-name="h" unicode="h" horiz-adv-x="565" 
d="M324 491c103 0 169 -58 169 -203v-288h-53v281c0 127 -55 160 -128 160c-107 0 -178 -79 -178 -200v-241h-53v736h53v-345h1c41 64 110 100 189 100z" />
    <glyph glyph-name="hbar" unicode="&#x127;" horiz-adv-x="565" 
d="M324 491c103 0 169 -58 169 -203v-288h-53v281c0 127 -55 160 -128 160c-107 0 -178 -79 -178 -200v-241h-53v576h-73v48h73v112h53v-112h133v-48h-133v-185h1c41 64 110 100 189 100z" />
    <glyph glyph-name="hcircumflex" unicode="&#x125;" horiz-adv-x="565" 
d="M218 903l-83 -97h-61l120 140h51l122 -140h-62l-83 97h-4zM324 491c103 0 169 -58 169 -203v-288h-53v281c0 127 -55 160 -128 160c-107 0 -178 -79 -178 -200v-241h-53v736h53v-345h1c41 64 110 100 189 100z" />
    <glyph glyph-name="i" unicode="i" horiz-adv-x="228" 
d="M115 589c-26 0 -45 19 -45 44s19 44 45 44c25 0 44 -19 44 -44s-19 -44 -44 -44zM87 0v486h53v-486h-53z" />
    <glyph glyph-name="dotlessi" unicode="&#x131;" horiz-adv-x="228" 
d="M87 0v486h53v-486h-53z" />
    <glyph glyph-name="iacute" unicode="&#xed;" horiz-adv-x="228" 
d="M93 558l120 139h66l-124 -139h-62zM87 0v486h53v-486h-53z" />
    <glyph glyph-name="ibreve" unicode="&#x12d;" horiz-adv-x="228" 
d="M114 556c-67 0 -119 48 -124 134h48c3 -51 27 -90 76 -90c48 0 75 38 76 90h48c-5 -83 -54 -134 -124 -134zM87 0v486h53v-486h-53z" />
    <glyph glyph-name="icircumflex" unicode="&#xee;" horiz-adv-x="228" 
d="M138 697l122 -140h-62l-83 97h-4l-83 -97h-61l120 140h51zM87 0v486h53v-486h-53z" />
    <glyph glyph-name="idieresis" unicode="&#xef;" horiz-adv-x="228" 
d="M32 589c-26 0 -44 19 -44 44s18 44 44 44c25 0 44 -19 44 -44s-19 -44 -44 -44zM197 590c-24 0 -44 19 -44 43s20 43 44 43c25 0 43 -19 43 -43s-18 -43 -43 -43zM87 0v486h53v-486h-53z" />
    <glyph glyph-name="i.loclTRK" horiz-adv-x="228" 
d="M115 589c-26 0 -45 19 -45 44s19 44 45 44c25 0 44 -19 44 -44s-19 -44 -44 -44zM87 0v486h53v-486h-53z" />
    <glyph glyph-name="uni1ECB" unicode="&#x1ecb;" horiz-adv-x="228" 
d="M115 589c-26 0 -45 19 -45 44s19 44 45 44c25 0 44 -19 44 -44s-19 -44 -44 -44zM87 0v486h53v-486h-53zM113 -120c26 0 45 -19 45 -44s-19 -44 -45 -44c-25 0 -44 19 -44 44s19 44 44 44z" />
    <glyph glyph-name="igrave" unicode="&#xec;" horiz-adv-x="228" 
d="M82 558l-92 139h62l88 -139h-58zM87 0v486h53v-486h-53z" />
    <glyph glyph-name="uni1EC9" unicode="&#x1ec9;" horiz-adv-x="228" 
d="M93 533c-7 8 -11 14 -11 24c0 32 82 43 82 82c0 28 -26 37 -47 37c-28 0 -54 -13 -69 -32l-25 24c22 24 56 43 99 43c52 0 83 -31 83 -71c0 -39 -37 -63 -82 -80l-5 -27h-25zM87 0v486h53v-486h-53z" />
    <glyph glyph-name="ij" unicode="&#x133;" horiz-adv-x="436" 
d="M115 589c-26 0 -45 19 -45 44s19 44 45 44c25 0 44 -19 44 -44s-19 -44 -44 -44zM336 587c-26 0 -45 19 -45 44s19 44 45 44c25 0 44 -19 44 -44s-19 -44 -44 -44zM87 0v486h53v-486h-53zM250 -203c-22 0 -48 4 -74 16l8 49c18 -11 40 -15 56 -15c41 0 70 24 70 86v553
h53v-553c0 -79 -34 -136 -113 -136z" />
    <glyph glyph-name="imacron" unicode="&#x12b;" horiz-adv-x="228" 
d="M-24 603v51h277v-51h-277zM87 0v486h53v-486h-53z" />
    <glyph glyph-name="iogonek" unicode="&#x12f;" horiz-adv-x="228" 
d="M115 589c-26 0 -45 19 -45 44s19 44 45 44c25 0 44 -19 44 -44s-19 -44 -44 -44zM165 -128l5 -42c-17 -9 -37 -13 -66 -13c-56 0 -92 29 -92 79c0 35 27 78 75 109v481h53v-486h-2c-48 -19 -77 -56 -77 -91c0 -28 16 -48 53 -48c27 0 36 3 51 11z" />
    <glyph glyph-name="itilde" unicode="&#x129;" horiz-adv-x="228" 
d="M190 569c-34 0 -62 21 -87 38c-21 14 -37 25 -60 25c-21 0 -43 -21 -56 -58l-38 17c18 55 49 89 90 89c33 0 54 -16 77 -30c23 -15 45 -33 69 -33s46 19 59 58l37 -13c-18 -63 -52 -93 -91 -93zM87 0v486h53v-486h-53z" />
    <glyph glyph-name="j" unicode="j" horiz-adv-x="208" 
d="M108 587c-26 0 -45 19 -45 44s19 44 45 44c25 0 44 -19 44 -44s-19 -44 -44 -44zM22 -203c-22 0 -48 4 -74 16l8 49c18 -11 40 -15 56 -15c41 0 70 24 70 86v553h53v-553c0 -79 -34 -136 -113 -136z" />
    <glyph glyph-name="uni0237" unicode="&#x237;" horiz-adv-x="208" 
d="M22 -203c-22 0 -48 4 -74 16l8 49c18 -11 40 -15 56 -15c41 0 70 24 70 86v553h53v-553c0 -79 -34 -136 -113 -136z" />
    <glyph glyph-name="jcircumflex" unicode="&#x135;" horiz-adv-x="208" 
d="M131 695l122 -140h-62l-83 97h-4l-83 -97h-61l120 140h51zM82 -67v553h53v-553c0 -79 -34 -136 -113 -136c-22 0 -48 4 -74 16l8 49c18 -11 40 -15 56 -15c41 0 70 24 70 86z" />
    <glyph glyph-name="k" unicode="k" horiz-adv-x="508" 
d="M478 486l-186 -205l186 -281h-61l-161 239h-2l-120 -132v-107h-53v736h53v-554h1l276 304h67z" />
    <glyph glyph-name="kcommaaccent" unicode="&#x137;" horiz-adv-x="508" 
d="M478 486l-186 -205l186 -281h-61l-161 239h-2l-120 -132v-107h-53v736h53v-554h1l276 304h67zM243 -54h50c4 -16 5 -34 5 -53c0 -55 -33 -94 -99 -99l-14 34c52 7 64 34 64 68c0 17 -2 32 -6 50z" />
    <glyph glyph-name="kgreenlandic" unicode="&#x138;" horiz-adv-x="509" 
d="M479 486l-187 -206l187 -280h-62l-161 239h-2l-120 -132v-107h-53v486h53v-304h2l275 304h68z" />
    <glyph glyph-name="l" unicode="l" horiz-adv-x="227" 
d="M87 0v736h53v-736h-53z" />
    <glyph glyph-name="lacute" unicode="&#x13a;" horiz-adv-x="227" 
d="M86 809l120 139h66l-124 -139h-62zM87 0v736h53v-736h-53z" />
    <glyph glyph-name="lcaron" unicode="&#x13e;" horiz-adv-x="294" 
d="M228 592l26 173h54l-40 -173h-40zM87 0v736h53v-736h-53z" />
    <glyph glyph-name="lcommaaccent" unicode="&#x13c;" horiz-adv-x="227" 
d="M87 0v736h53v-736h-53zM43 -206l-14 34c52 7 64 34 64 68c0 17 -2 32 -6 50h50c4 -16 5 -34 5 -53c0 -55 -33 -94 -99 -99z" />
    <glyph glyph-name="ldot" unicode="&#x140;" horiz-adv-x="323" 
d="M87 0v736h53v-736h-53zM278 206c-25 0 -45 19 -45 44s20 44 45 44s45 -19 45 -44s-20 -44 -45 -44z" />
    <glyph glyph-name="lslash" unicode="&#x142;" horiz-adv-x="241" 
d="M213 395v-54l-67 -32v-309h-53v285l-67 -32v54l67 32v397h53v-373z" />
    <glyph glyph-name="m" unicode="m" horiz-adv-x="875" 
d="M641 491c109 0 164 -70 164 -207v-285h-53v268c0 129 -44 174 -124 174c-86 0 -158 -78 -158 -200v-242h-53v272c0 125 -47 170 -122 170c-90 0 -161 -78 -161 -200v-241h-53v486h53v-93h2c40 62 104 98 172 98c74 0 125 -36 148 -106h3c39 67 105 106 182 106z" />
    <glyph glyph-name="n" unicode="n" horiz-adv-x="560" 
d="M324 491c97 0 164 -58 164 -203v-288h-53v281c0 127 -55 160 -123 160c-107 0 -178 -79 -178 -200v-241h-53v486h53v-95h1c41 64 110 100 189 100z" />
    <glyph glyph-name="nacute" unicode="&#x144;" horiz-adv-x="560" 
d="M426 697l-124 -139h-62l120 139h66zM324 491c97 0 164 -58 164 -203v-288h-53v281c0 127 -55 160 -123 160c-107 0 -178 -79 -178 -200v-241h-53v486h53v-95h1c41 64 110 100 189 100z" />
    <glyph glyph-name="napostrophe" unicode="&#x149;" horiz-adv-x="620" 
d="M18 529l26 181h55l-41 -181h-40zM385 491c97 0 164 -58 164 -203v-288h-53v281c0 127 -55 160 -123 160c-107 0 -178 -79 -178 -200v-241h-53v486h53v-95h1c41 64 110 100 189 100z" />
    <glyph glyph-name="ncaron" unicode="&#x148;" horiz-adv-x="560" 
d="M307 557h-51l-118 140h61l84 -98h2l84 98h62zM324 491c97 0 164 -58 164 -203v-288h-53v281c0 127 -55 160 -123 160c-107 0 -178 -79 -178 -200v-241h-53v486h53v-95h1c41 64 110 100 189 100z" />
    <glyph glyph-name="ncommaaccent" unicode="&#x146;" horiz-adv-x="560" 
d="M324 491c97 0 164 -58 164 -203v-288h-53v281c0 127 -55 160 -123 160c-107 0 -178 -79 -178 -200v-241h-53v486h53v-95h1c41 64 110 100 189 100zM262 -54h50c4 -16 5 -34 5 -53c0 -55 -33 -94 -99 -99l-14 34c52 7 64 34 64 68c0 17 -2 32 -6 50z" />
    <glyph glyph-name="eng" unicode="&#x14b;" horiz-adv-x="557" 
d="M315 491c115 0 170 -77 170 -206v-352c0 -79 -34 -136 -112 -136c-23 0 -49 4 -75 16l9 47c17 -11 39 -15 55 -15c41 0 70 26 70 86v335c0 121 -42 175 -131 175c-88 0 -167 -79 -167 -200v-241h-53v486h53v-95h1c41 63 116 100 180 100z" />
    <glyph glyph-name="uni0272" unicode="&#x272;" horiz-adv-x="560" 
d="M324 491c97 0 164 -58 164 -203v-288h-53v281c0 127 -55 160 -123 160c-107 0 -178 -79 -178 -200v-241v-67c0 -79 -35 -136 -113 -136c-22 0 -48 4 -74 16l8 47c18 -11 39 -15 56 -15c40 0 70 26 70 86v291v264h53v-95h1c41 64 110 100 189 100z" />
    <glyph glyph-name="ntilde" unicode="&#xf1;" horiz-adv-x="560" 
d="M213 632c-28 0 -49 -21 -61 -58l-38 17c18 55 48 89 94 89c33 0 56 -16 79 -30c23 -15 45 -33 69 -33s46 19 59 58l37 -13c-17 -63 -52 -93 -91 -93c-34 0 -62 21 -87 38c-21 14 -41 25 -61 25zM324 491c97 0 164 -58 164 -203v-288h-53v281c0 127 -55 160 -123 160
c-107 0 -178 -79 -178 -200v-241h-53v486h53v-95h1c41 64 110 100 189 100z" />
    <glyph glyph-name="o" unicode="o" horiz-adv-x="591" 
d="M296 -5c-149 0 -247 110 -247 247c0 138 98 249 247 249c140 0 246 -101 246 -249c0 -146 -106 -247 -246 -247zM295 45c107 0 193 80 193 197c0 119 -86 199 -193 199c-116 0 -192 -89 -192 -199c0 -108 77 -197 192 -197z" />
    <glyph glyph-name="oacute" unicode="&#xf3;" horiz-adv-x="591" 
d="M263 558l120 139h66l-124 -139h-62zM296 -5c-149 0 -247 110 -247 247c0 138 98 249 247 249c140 0 246 -101 246 -249c0 -146 -106 -247 -246 -247zM295 45c107 0 193 80 193 197c0 119 -86 199 -193 199c-116 0 -192 -89 -192 -199c0 -108 77 -197 192 -197z" />
    <glyph glyph-name="obreve" unicode="&#x14f;" horiz-adv-x="591" 
d="M296 556c-68 0 -129 48 -134 134h46c4 -51 35 -90 88 -90c52 0 84 38 87 90h47c-6 -83 -62 -134 -134 -134zM296 -5c-149 0 -247 110 -247 247c0 138 98 249 247 249c140 0 246 -101 246 -249c0 -146 -106 -247 -246 -247zM295 45c107 0 193 80 193 197
c0 119 -86 199 -193 199c-116 0 -192 -89 -192 -199c0 -108 77 -197 192 -197z" />
    <glyph glyph-name="ocircumflex" unicode="&#xf4;" horiz-adv-x="591" 
d="M293 654l-83 -97h-61l120 140h51l122 -140h-62l-83 97h-4zM296 491c140 0 246 -101 246 -249c0 -146 -106 -247 -246 -247c-149 0 -247 110 -247 247c0 138 98 249 247 249zM295 45c107 0 193 80 193 197c0 119 -86 199 -193 199c-116 0 -192 -89 -192 -199
c0 -108 77 -197 192 -197z" />
    <glyph glyph-name="uni1ED1" unicode="&#x1ed1;" horiz-adv-x="591" 
d="M580 779l-135 -138h-48l120 138h63zM293 654l-83 -97h-61l120 140h51l122 -140h-62l-83 97h-4zM296 491c140 0 246 -101 246 -249c0 -146 -106 -247 -246 -247c-149 0 -247 110 -247 247c0 138 98 249 247 249zM295 45c107 0 193 80 193 197c0 119 -86 199 -193 199
c-116 0 -192 -89 -192 -199c0 -108 77 -197 192 -197z" />
    <glyph glyph-name="uni1ED9" unicode="&#x1ed9;" horiz-adv-x="591" 
d="M291 654l-83 -97h-61l120 140h51l122 -140h-62l-83 97h-4zM296 491c140 0 246 -101 246 -249c0 -146 -106 -247 -246 -247c-149 0 -247 110 -247 247c0 138 98 249 247 249zM295 45c107 0 193 80 193 197c0 119 -86 199 -193 199c-116 0 -192 -89 -192 -199
c0 -108 77 -197 192 -197zM293 -120c26 0 45 -19 45 -44s-19 -44 -45 -44c-25 0 -44 19 -44 44s19 44 44 44z" />
    <glyph glyph-name="uni1ED3" unicode="&#x1ed3;" horiz-adv-x="591" 
d="M492 641h-49l-124 138h63zM295 655l-83 -97h-61l120 140h51l122 -140h-62l-83 97h-4zM296 491c140 0 246 -101 246 -249c0 -146 -106 -247 -246 -247c-149 0 -247 110 -247 247c0 138 98 249 247 249zM295 45c107 0 193 80 193 197c0 119 -86 199 -193 199
c-116 0 -192 -89 -192 -199c0 -108 77 -197 192 -197z" />
    <glyph glyph-name="uni1ED5" unicode="&#x1ed5;" horiz-adv-x="591" 
d="M442 760c-28 0 -55 -14 -69 -33l-26 24c23 24 57 43 99 43c51 0 82 -30 82 -71c0 -39 -38 -63 -81 -80l-4 -27h-25c-7 9 -12 14 -12 24c0 32 81 43 81 82c0 27 -24 38 -45 38zM293 654l-83 -97h-61l120 140h51l122 -140h-62l-83 97h-4zM296 491c140 0 246 -101 246 -249
c0 -146 -106 -247 -246 -247c-149 0 -247 110 -247 247c0 138 98 249 247 249zM295 45c107 0 193 80 193 197c0 119 -86 199 -193 199c-116 0 -192 -89 -192 -199c0 -108 77 -197 192 -197z" />
    <glyph glyph-name="uni1ED7" unicode="&#x1ed7;" horiz-adv-x="591" 
d="M226 777c-21 0 -43 -21 -56 -58l-38 17c18 55 49 89 90 89c33 0 54 -16 77 -30c23 -15 45 -33 69 -33s46 19 59 58l37 -13c-18 -63 -52 -93 -91 -93c-34 0 -62 21 -87 38c-21 14 -37 25 -60 25zM270 697h51l122 -140h-62l-83 97h-4l-83 -97h-61zM296 491
c140 0 246 -101 246 -249c0 -146 -106 -247 -246 -247c-149 0 -247 110 -247 247c0 138 98 249 247 249zM295 45c107 0 193 80 193 197c0 119 -86 199 -193 199c-116 0 -192 -89 -192 -199c0 -108 77 -197 192 -197z" />
    <glyph glyph-name="odieresis" unicode="&#xf6;" horiz-adv-x="591" 
d="M214 589c-26 0 -44 19 -44 44s18 44 44 44c25 0 44 -19 44 -44s-19 -44 -44 -44zM379 590c-24 0 -44 19 -44 43s20 43 44 43c25 0 43 -19 43 -43s-18 -43 -43 -43zM296 -5c-149 0 -247 110 -247 247c0 138 98 249 247 249c140 0 246 -101 246 -249
c0 -146 -106 -247 -246 -247zM295 45c107 0 193 80 193 197c0 119 -86 199 -193 199c-116 0 -192 -89 -192 -199c0 -108 77 -197 192 -197z" />
    <glyph glyph-name="uni1ECD" unicode="&#x1ecd;" horiz-adv-x="591" 
d="M296 -5c-149 0 -247 110 -247 247c0 138 98 249 247 249c140 0 246 -101 246 -249c0 -146 -106 -247 -246 -247zM295 45c107 0 193 80 193 197c0 119 -86 199 -193 199c-116 0 -192 -89 -192 -199c0 -108 77 -197 192 -197zM293 -120c26 0 45 -19 45 -44s-19 -44 -45 -44
c-25 0 -44 19 -44 44s19 44 44 44z" />
    <glyph glyph-name="ograve" unicode="&#xf2;" horiz-adv-x="591" 
d="M266 558l-124 139h66l120 -139h-62zM296 -5c-149 0 -247 110 -247 247c0 138 98 249 247 249c140 0 246 -101 246 -249c0 -146 -106 -247 -246 -247zM295 45c107 0 193 80 193 197c0 119 -86 199 -193 199c-116 0 -192 -89 -192 -199c0 -108 77 -197 192 -197z" />
    <glyph glyph-name="uni1ECF" unicode="&#x1ecf;" horiz-adv-x="591" 
d="M275 533c-7 8 -11 14 -11 24c0 32 82 43 82 82c0 28 -26 37 -47 37c-28 0 -54 -13 -69 -32l-25 24c22 24 56 43 99 43c52 0 83 -31 83 -71c0 -39 -37 -63 -82 -80l-5 -27h-25zM296 -5c-149 0 -247 110 -247 247c0 138 98 249 247 249c140 0 246 -101 246 -249
c0 -146 -106 -247 -246 -247zM295 45c107 0 193 80 193 197c0 119 -86 199 -193 199c-116 0 -192 -89 -192 -199c0 -108 77 -197 192 -197z" />
    <glyph glyph-name="ohorn" unicode="&#x1a1;" horiz-adv-x="668" 
d="M583 565h54v-75c0 -102 -39 -151 -108 -162c8 -26 13 -55 13 -86c0 -146 -106 -247 -246 -247c-149 0 -247 110 -247 247c0 138 98 249 247 249c96 0 175 -47 216 -124c53 8 71 44 71 125v73zM295 45c107 0 193 80 193 197c0 119 -86 199 -193 199
c-116 0 -192 -89 -192 -199c0 -108 77 -197 192 -197z" />
    <glyph glyph-name="uni1EDB" unicode="&#x1edb;" horiz-adv-x="668" 
d="M449 697l-124 -139h-62l120 139h66zM583 565h54v-75c0 -102 -39 -151 -108 -162c8 -26 13 -55 13 -86c0 -146 -106 -247 -246 -247c-149 0 -247 110 -247 247c0 138 98 249 247 249c96 0 175 -47 216 -124c53 8 71 44 71 125v73zM295 45c107 0 193 80 193 197
c0 119 -86 199 -193 199c-116 0 -192 -89 -192 -199c0 -108 77 -197 192 -197z" />
    <glyph glyph-name="uni1EE3" unicode="&#x1ee3;" horiz-adv-x="668" 
d="M583 565h54v-75c0 -102 -39 -151 -108 -162c8 -26 13 -55 13 -86c0 -146 -106 -247 -246 -247c-149 0 -247 110 -247 247c0 138 98 249 247 249c96 0 175 -47 216 -124c53 8 71 44 71 125v73zM295 45c107 0 193 80 193 197c0 119 -86 199 -193 199
c-116 0 -192 -89 -192 -199c0 -108 77 -197 192 -197zM293 -120c26 0 45 -19 45 -44s-19 -44 -45 -44c-25 0 -44 19 -44 44s19 44 44 44z" />
    <glyph glyph-name="uni1EDD" unicode="&#x1edd;" horiz-adv-x="668" 
d="M328 558h-62l-124 139h66zM583 565h54v-75c0 -102 -39 -151 -108 -162c8 -26 13 -55 13 -86c0 -146 -106 -247 -246 -247c-149 0 -247 110 -247 247c0 138 98 249 247 249c96 0 175 -47 216 -124c53 8 71 44 71 125v73zM295 45c107 0 193 80 193 197
c0 119 -86 199 -193 199c-116 0 -192 -89 -192 -199c0 -108 77 -197 192 -197z" />
    <glyph glyph-name="uni1EDF" unicode="&#x1edf;" horiz-adv-x="668" 
d="M299 676c-28 0 -54 -13 -69 -32l-25 24c22 24 56 43 99 43c52 0 83 -31 83 -71c0 -39 -37 -63 -82 -80l-5 -27h-25c-7 8 -11 14 -11 24c0 32 82 43 82 82c0 28 -26 37 -47 37zM583 565h54v-75c0 -102 -39 -151 -108 -162c8 -26 13 -55 13 -86c0 -146 -106 -247 -246 -247
c-149 0 -247 110 -247 247c0 138 98 249 247 249c96 0 175 -47 216 -124c53 8 71 44 71 125v73zM295 45c107 0 193 80 193 197c0 119 -86 199 -193 199c-116 0 -192 -89 -192 -199c0 -108 77 -197 192 -197z" />
    <glyph glyph-name="uni1EE1" unicode="&#x1ee1;" horiz-adv-x="668" 
d="M222 632c-28 0 -49 -21 -61 -58l-38 17c18 55 48 89 94 89c33 0 56 -16 79 -30c23 -15 45 -33 69 -33s46 19 59 58l37 -13c-17 -63 -52 -93 -91 -93c-34 0 -62 21 -87 38c-21 14 -41 25 -61 25zM583 565h54v-75c0 -102 -39 -151 -108 -162c8 -26 13 -55 13 -86
c0 -146 -106 -247 -246 -247c-149 0 -247 110 -247 247c0 138 98 249 247 249c96 0 175 -47 216 -124c53 8 71 44 71 125v73zM295 45c107 0 193 80 193 197c0 119 -86 199 -193 199c-116 0 -192 -89 -192 -199c0 -108 77 -197 192 -197z" />
    <glyph glyph-name="ohungarumlaut" unicode="&#x151;" horiz-adv-x="591" 
d="M191 558l120 139h60l-125 -139h-55zM338 558l119 139h60l-125 -139h-54zM296 -5c-149 0 -247 110 -247 247c0 138 98 249 247 249c140 0 246 -101 246 -249c0 -146 -106 -247 -246 -247zM295 45c107 0 193 80 193 197c0 119 -86 199 -193 199c-116 0 -192 -89 -192 -199
c0 -108 77 -197 192 -197z" />
    <glyph glyph-name="omacron" unicode="&#x14d;" horiz-adv-x="591" 
d="M158 603v51h277v-51h-277zM296 -5c-149 0 -247 110 -247 247c0 138 98 249 247 249c140 0 246 -101 246 -249c0 -146 -106 -247 -246 -247zM295 45c107 0 193 80 193 197c0 119 -86 199 -193 199c-116 0 -192 -89 -192 -199c0 -108 77 -197 192 -197z" />
    <glyph glyph-name="uni01EB" unicode="&#x1eb;" horiz-adv-x="591" 
d="M327 -3c-43 -20 -69 -55 -69 -88c0 -28 16 -48 53 -48c27 0 36 3 51 11l5 -42c-17 -9 -37 -13 -66 -13c-56 0 -92 29 -92 79c0 32 21 69 60 99v1c-134 13 -220 117 -220 246c0 138 98 249 247 249c140 0 246 -101 246 -249c0 -135 -91 -231 -215 -245zM103 242
c0 -108 77 -197 192 -197c107 0 193 80 193 197c0 119 -86 199 -193 199c-116 0 -192 -89 -192 -199z" />
    <glyph glyph-name="oslash" unicode="&#xf8;" horiz-adv-x="595" 
d="M550 468l-61 -65c33 -42 53 -97 53 -161c0 -146 -106 -247 -246 -247c-58 0 -109 17 -149 46l-56 -60l-34 31l56 59c-41 44 -64 105 -64 171c0 138 98 249 247 249c62 0 118 -20 160 -55l60 63zM103 242c0 -50 17 -97 46 -132l271 287c-34 28 -77 44 -125 44
c-116 0 -192 -89 -192 -199zM488 242c0 47 -14 89 -37 121l-268 -284c31 -21 69 -34 112 -34c107 0 193 80 193 197z" />
    <glyph glyph-name="oslashacute" unicode="&#x1ff;" horiz-adv-x="595" 
d="M450 698l-124 -139h-62l120 139h66zM550 468l-61 -65c33 -42 53 -97 53 -161c0 -146 -106 -247 -246 -247c-58 0 -109 17 -149 46l-56 -60l-34 31l56 59c-41 44 -64 105 -64 171c0 138 98 249 247 249c62 0 118 -20 160 -55l60 63zM103 242c0 -50 17 -97 46 -132l271 287
c-34 28 -77 44 -125 44c-116 0 -192 -89 -192 -199zM488 242c0 47 -14 89 -37 121l-268 -284c31 -21 69 -34 112 -34c107 0 193 80 193 197z" />
    <glyph glyph-name="otilde" unicode="&#xf5;" horiz-adv-x="591" 
d="M372 569c-34 0 -62 21 -87 38c-21 14 -41 25 -61 25c-28 0 -49 -21 -61 -58l-38 17c18 55 48 89 94 89c33 0 56 -16 79 -30c23 -15 45 -33 69 -33s46 19 59 58l37 -13c-17 -63 -52 -93 -91 -93zM296 -5c-149 0 -247 110 -247 247c0 138 98 249 247 249
c140 0 246 -101 246 -249c0 -146 -106 -247 -246 -247zM295 45c107 0 193 80 193 197c0 119 -86 199 -193 199c-116 0 -192 -89 -192 -199c0 -108 77 -197 192 -197z" />
    <glyph glyph-name="oe" unicode="&#x153;" horiz-adv-x="824" 
d="M789 253c0 -9 -1 -19 -2 -24l-340 1c4 -108 50 -185 149 -185c55 0 104 29 134 73l38 -32c-38 -55 -104 -91 -172 -91c-96 0 -150 51 -178 118h-2c-34 -73 -97 -118 -172 -118c-124 0 -205 108 -205 247c0 141 87 248 207 248c73 0 137 -45 171 -120h2
c31 73 92 120 175 120c111 0 195 -100 195 -237zM244 45c83 0 150 80 150 197c0 118 -68 198 -148 198c-88 0 -153 -86 -153 -198s61 -197 151 -197zM592 440c-83 0 -133 -65 -143 -161h287c-11 97 -64 161 -144 161z" />
    <glyph glyph-name="p" unicode="p" horiz-adv-x="606" 
d="M320 491c139 0 236 -111 236 -252c0 -148 -107 -244 -238 -244c-81 0 -144 36 -182 95h-2v-288h-53v684h53v-97h1c41 65 109 102 185 102zM315 45c111 0 187 84 187 193c0 123 -85 202 -188 202c-106 0 -182 -89 -182 -202c0 -115 85 -193 183 -193z" />
    <glyph glyph-name="thorn" unicode="&#xfe;" horiz-adv-x="606" 
d="M320 491c139 0 236 -111 236 -252c0 -148 -107 -244 -238 -244c-81 0 -144 36 -182 95h-2v-288h-53v934h53v-347h1c41 65 109 102 185 102zM315 45c111 0 187 84 187 193c0 123 -85 202 -188 202c-106 0 -182 -89 -182 -202c0 -115 85 -193 183 -193z" />
    <glyph glyph-name="q" unicode="q" horiz-adv-x="605" 
d="M473 486h52v-684h-52v288h-2c-38 -59 -101 -95 -183 -95c-131 0 -238 96 -238 244c0 141 97 252 236 252c77 0 145 -37 186 -102h1v97zM292 45c98 0 182 78 182 193c0 113 -76 202 -182 202c-103 0 -188 -79 -188 -202c0 -109 76 -193 188 -193z" />
    <glyph glyph-name="r" unicode="r" horiz-adv-x="343" 
d="M301 491c9 0 18 0 26 -1v-58c-11 1 -22 2 -31 2c-99 0 -162 -81 -162 -196v-238h-53v486h53v-93h2c35 62 94 98 165 98z" />
    <glyph glyph-name="racute" unicode="&#x155;" horiz-adv-x="343" 
d="M313 697l-124 -139h-62l120 139h66zM301 491c9 0 18 0 26 -1v-58c-11 1 -22 2 -31 2c-99 0 -162 -81 -162 -196v-238h-53v486h53v-93h2c35 62 94 98 165 98z" />
    <glyph glyph-name="rcaron" unicode="&#x159;" horiz-adv-x="343" 
d="M228 557h-51l-118 140h61l84 -98h2l84 98h62zM136 393c35 62 94 98 165 98c9 0 18 0 26 -1v-58c-11 1 -22 2 -31 2c-99 0 -162 -81 -162 -196v-238h-53v486h53v-93h2z" />
    <glyph glyph-name="rcommaaccent" unicode="&#x157;" horiz-adv-x="343" 
d="M301 491c9 0 18 0 26 -1v-58c-11 1 -22 2 -31 2c-99 0 -162 -81 -162 -196v-238h-53v486h53v-93h2c35 62 94 98 165 98zM84 -54h50c4 -16 5 -34 5 -53c0 -55 -33 -94 -99 -99l-14 34c52 7 64 34 64 68c0 17 -2 32 -6 50z" />
    <glyph glyph-name="s" unicode="s" horiz-adv-x="433" 
d="M223 -5c-81 0 -142 29 -187 69l30 41c37 -35 80 -60 157 -60c72 0 113 37 113 85c0 53 -56 68 -134 95c-79 27 -143 58 -143 141c0 72 63 124 151 124c54 0 109 -14 162 -59l-30 -41c-46 40 -92 51 -137 51c-49 0 -93 -27 -93 -75c0 -53 48 -68 107 -89
c101 -36 172 -55 171 -150c0 -70 -56 -132 -167 -132z" />
    <glyph glyph-name="sacute" unicode="&#x15b;" horiz-adv-x="433" 
d="M186 558l120 139h66l-124 -139h-62zM223 -5c-81 0 -142 29 -187 69l30 41c37 -35 80 -60 157 -60c72 0 113 37 113 85c0 53 -56 68 -134 95c-79 27 -143 58 -143 141c0 72 63 124 151 124c54 0 109 -14 162 -59l-30 -41c-46 40 -92 51 -137 51c-49 0 -93 -27 -93 -75
c0 -53 48 -68 107 -89c101 -36 172 -55 171 -150c0 -70 -56 -132 -167 -132z" />
    <glyph glyph-name="scaron" unicode="&#x161;" horiz-adv-x="433" 
d="M245 557h-51l-118 140h61l84 -98h2l84 98h62zM219 277c101 -36 172 -55 171 -150c0 -70 -56 -132 -167 -132c-81 0 -142 29 -187 69l30 41c37 -35 80 -60 157 -60c72 0 113 37 113 85c0 53 -56 68 -134 95c-79 27 -143 58 -143 141c0 72 63 124 151 124
c54 0 109 -14 162 -59l-30 -41c-46 40 -92 51 -137 51c-49 0 -93 -27 -93 -75c0 -53 48 -68 107 -89z" />
    <glyph glyph-name="scedilla" unicode="&#x15f;" horiz-adv-x="433" 
d="M219 277c101 -36 172 -55 171 -150c0 -70 -56 -132 -167 -132h-11l-14 -29c46 -2 86 -29 86 -78c0 -40 -31 -74 -97 -74c-20 0 -37 2 -52 6v34c13 -4 27 -7 46 -7c32 0 62 14 62 44c0 25 -27 48 -83 48v26l16 34c-58 8 -104 33 -140 65l30 41c37 -35 80 -60 157 -60
c72 0 113 37 113 85c0 53 -56 68 -134 95c-79 27 -143 58 -143 141c0 72 63 124 151 124c54 0 109 -14 162 -59l-30 -41c-46 40 -92 51 -137 51c-49 0 -93 -27 -93 -75c0 -53 48 -68 107 -89z" />
    <glyph glyph-name="scircumflex" unicode="&#x15d;" horiz-adv-x="433" 
d="M220 654l-83 -97h-61l120 140h51l122 -140h-62l-83 97h-4zM219 277c101 -36 172 -55 171 -150c0 -70 -56 -132 -167 -132c-81 0 -142 29 -187 69l30 41c37 -35 80 -60 157 -60c72 0 113 37 113 85c0 53 -56 68 -134 95c-79 27 -143 58 -143 141c0 72 63 124 151 124
c54 0 109 -14 162 -59l-30 -41c-46 40 -92 51 -137 51c-49 0 -93 -27 -93 -75c0 -53 48 -68 107 -89z" />
    <glyph glyph-name="scommaaccent" unicode="&#x219;" horiz-adv-x="433" 
d="M223 -5c-81 0 -142 29 -187 69l30 41c37 -35 80 -60 157 -60c72 0 113 37 113 85c0 53 -56 68 -134 95c-79 27 -143 58 -143 141c0 72 63 124 151 124c54 0 109 -14 162 -59l-30 -41c-46 40 -92 51 -137 51c-49 0 -93 -27 -93 -75c0 -53 48 -68 107 -89
c101 -36 172 -55 171 -150c0 -70 -56 -132 -167 -132zM138 -206l-14 34c52 7 64 34 64 68c0 17 -2 32 -6 50h50c4 -16 5 -34 5 -53c0 -55 -33 -94 -99 -99z" />
    <glyph glyph-name="germandbls" unicode="&#xdf;" horiz-adv-x="608" 
d="M425 431c89 -35 142 -121 142 -211c0 -138 -96 -225 -223 -225h-113v50h98c109 0 184 69 184 174c0 93 -66 182 -196 182h-56v50h58c128 2 148 80 148 116c0 74 -56 124 -159 124c-105 0 -174 -57 -174 -190v-501h-52v499c0 166 89 242 225 242c134 0 213 -66 213 -169
c0 -40 -18 -108 -95 -139v-2z" />
    <glyph glyph-name="longs" unicode="&#x17f;" horiz-adv-x="309" 
d="M104 0v437h-64v49h64v107c0 101 49 148 127 148c43 0 76 -12 104 -28l-11 -47c-30 16 -57 25 -89 25c-45 0 -79 -28 -79 -102v-589h-52z" />
    <glyph glyph-name="uni0259" unicode="&#x259;" horiz-adv-x="551" 
d="M260 491c140 0 241 -101 241 -248c0 -146 -100 -248 -231 -248c-136 0 -223 100 -223 237c0 13 1 24 1 27h399c-7 109 -81 182 -185 182c-63 0 -111 -21 -150 -39l-23 43c38 20 102 46 171 46zM266 45c95 0 167 65 180 165h-344c11 -99 72 -165 164 -165z" />
    <glyph glyph-name="t" unicode="t" horiz-adv-x="364" 
d="M212 -5c-88 0 -118 53 -118 142v300h-64v49h64v170l53 6v-176h177v-49h-177v-287c0 -67 13 -104 71 -104c37 0 71 16 92 28l13 -48c-24 -14 -59 -31 -111 -31z" />
    <glyph glyph-name="tbar" unicode="&#x167;" horiz-adv-x="364" 
d="M324 437h-177v-134h150v-48h-150v-105c0 -67 13 -104 71 -104c37 0 71 16 92 28l13 -48c-24 -14 -59 -31 -111 -31c-88 0 -118 53 -118 142v118h-56v48h56v134h-64v49h64v170l53 6v-176h177v-49z" />
    <glyph glyph-name="tcaron" unicode="&#x165;" horiz-adv-x="364" 
d="M223 592l26 173h55l-41 -173h-40zM212 -5c-88 0 -118 53 -118 142v300h-64v49h64v170l53 6v-176h177v-49h-177v-287c0 -67 13 -104 71 -104c37 0 71 16 92 28l13 -48c-24 -14 -59 -31 -111 -31z" />
    <glyph glyph-name="uni0163" unicode="&#x163;" horiz-adv-x="364" 
d="M324 437h-177v-287c0 -67 13 -104 71 -104c37 0 71 16 92 28l13 -48c-24 -14 -59 -31 -111 -31h-12l-14 -29c46 -2 86 -29 86 -78c0 -40 -31 -74 -97 -74c-20 0 -37 2 -52 6v34c13 -4 27 -7 46 -7c32 0 62 14 62 44c0 25 -27 48 -83 48v26l17 37c-52 16 -71 64 -71 135
v300h-64v49h64v170l53 6v-176h177v-49z" />
    <glyph glyph-name="uni021B" unicode="&#x21b;" horiz-adv-x="364" 
d="M212 -5c-88 0 -118 53 -118 142v300h-64v49h64v170l53 6v-176h177v-49h-177v-287c0 -67 13 -104 71 -104c37 0 71 16 92 28l13 -48c-24 -14 -59 -31 -111 -31zM126 -206l-14 34c52 7 64 34 64 68c0 17 -2 32 -6 50h50c4 -16 5 -34 5 -53c0 -55 -33 -94 -99 -99z" />
    <glyph glyph-name="u" unicode="u" horiz-adv-x="547" 
d="M418 486h53v-486h-53v90h-2c-40 -60 -103 -95 -168 -95c-111 0 -178 68 -178 200v291h53v-275c0 -123 49 -166 132 -166c86 0 163 79 163 201v240z" />
    <glyph glyph-name="uacute" unicode="&#xfa;" horiz-adv-x="547" 
d="M430 697l-124 -139h-62l120 139h66zM418 486h53v-486h-53v90h-2c-40 -60 -103 -95 -168 -95c-111 0 -178 68 -178 200v291h53v-275c0 -123 49 -166 132 -166c86 0 163 79 163 201v240z" />
    <glyph glyph-name="ubreve" unicode="&#x16d;" horiz-adv-x="547" 
d="M266 556c-68 0 -129 48 -134 134h46c4 -51 35 -90 88 -90c52 0 84 38 87 90h47c-6 -83 -62 -134 -134 -134zM418 486h53v-486h-53v90h-2c-40 -60 -103 -95 -168 -95c-111 0 -178 68 -178 200v291h53v-275c0 -123 49 -166 132 -166c86 0 163 79 163 201v240z" />
    <glyph glyph-name="ucircumflex" unicode="&#xfb;" horiz-adv-x="547" 
d="M263 654l-83 -97h-61l120 140h51l122 -140h-62l-83 97h-4zM418 486h53v-486h-53v90h-2c-40 -60 -103 -95 -168 -95c-111 0 -178 68 -178 200v291h53v-275c0 -123 49 -166 132 -166c86 0 163 79 163 201v240z" />
    <glyph glyph-name="udieresis" unicode="&#xfc;" horiz-adv-x="547" 
d="M184 589c-26 0 -44 19 -44 44s18 44 44 44c25 0 44 -19 44 -44s-19 -44 -44 -44zM349 590c-24 0 -44 19 -44 43s20 43 44 43c25 0 43 -19 43 -43s-18 -43 -43 -43zM418 486h53v-486h-53v90h-2c-40 -60 -103 -95 -168 -95c-111 0 -178 68 -178 200v291h53v-275
c0 -123 49 -166 132 -166c86 0 163 79 163 201v240z" />
    <glyph glyph-name="uni1EE5" unicode="&#x1ee5;" horiz-adv-x="547" 
d="M418 486h53v-486h-53v90h-2c-40 -60 -103 -95 -168 -95c-111 0 -178 68 -178 200v291h53v-275c0 -123 49 -166 132 -166c86 0 163 79 163 201v240zM266 -120c26 0 45 -19 45 -44s-19 -44 -45 -44c-25 0 -44 19 -44 44s19 44 44 44z" />
    <glyph glyph-name="ugrave" unicode="&#xf9;" horiz-adv-x="547" 
d="M339 558h-62l-124 139h66zM418 486h53v-486h-53v90h-2c-40 -60 -103 -95 -168 -95c-111 0 -178 68 -178 200v291h53v-275c0 -123 49 -166 132 -166c86 0 163 79 163 201v240z" />
    <glyph glyph-name="uni1EE7" unicode="&#x1ee7;" horiz-adv-x="547" 
d="M269 676c-28 0 -54 -13 -69 -32l-25 24c22 24 56 43 99 43c52 0 83 -31 83 -71c0 -39 -37 -63 -82 -80l-5 -27h-25c-7 8 -11 14 -11 24c0 32 82 43 82 82c0 28 -26 37 -47 37zM418 486h53v-486h-53v90h-2c-40 -60 -103 -95 -168 -95c-111 0 -178 68 -178 200v291h53v-275
c0 -123 49 -166 132 -166c86 0 163 79 163 201v240z" />
    <glyph glyph-name="uhorn" unicode="&#x1b0;" horiz-adv-x="628" 
d="M548 565h54v-75c0 -112 -47 -161 -131 -164v-326h-53v90h-2c-40 -60 -103 -95 -168 -95c-111 0 -178 68 -178 200v291h53v-275c0 -123 49 -166 132 -166c86 0 163 79 163 201v240h53v-120c57 6 77 42 77 126v73z" />
    <glyph glyph-name="uni1EE9" unicode="&#x1ee9;" horiz-adv-x="628" 
d="M430 697l-124 -139h-62l120 139h66zM548 565h54v-75c0 -112 -47 -161 -131 -164v-326h-53v90h-2c-40 -60 -103 -95 -168 -95c-111 0 -178 68 -178 200v291h53v-275c0 -123 49 -166 132 -166c86 0 163 79 163 201v240h53v-120c57 6 77 42 77 126v73z" />
    <glyph glyph-name="uni1EF1" unicode="&#x1ef1;" horiz-adv-x="628" 
d="M548 565h54v-75c0 -112 -47 -161 -131 -164v-326h-53v90h-2c-40 -60 -103 -95 -168 -95c-111 0 -178 68 -178 200v291h53v-275c0 -123 49 -166 132 -166c86 0 163 79 163 201v240h53v-120c57 6 77 42 77 126v73zM266 -120c26 0 45 -19 45 -44s-19 -44 -45 -44
c-25 0 -44 19 -44 44s19 44 44 44z" />
    <glyph glyph-name="uni1EEB" unicode="&#x1eeb;" horiz-adv-x="628" 
d="M339 558h-62l-124 139h66zM548 565h54v-75c0 -112 -47 -161 -131 -164v-326h-53v90h-2c-40 -60 -103 -95 -168 -95c-111 0 -178 68 -178 200v291h53v-275c0 -123 49 -166 132 -166c86 0 163 79 163 201v240h53v-120c57 6 77 42 77 126v73z" />
    <glyph glyph-name="uni1EED" unicode="&#x1eed;" horiz-adv-x="628" 
d="M269 676c-28 0 -54 -13 -69 -32l-25 24c22 24 56 43 99 43c52 0 83 -31 83 -71c0 -39 -37 -63 -82 -80l-5 -27h-25c-7 8 -11 14 -11 24c0 32 82 43 82 82c0 28 -26 37 -47 37zM548 565h54v-75c0 -112 -47 -161 -131 -164v-326h-53v90h-2c-40 -60 -103 -95 -168 -95
c-111 0 -178 68 -178 200v291h53v-275c0 -123 49 -166 132 -166c86 0 163 79 163 201v240h53v-120c57 6 77 42 77 126v73z" />
    <glyph glyph-name="uni1EEF" unicode="&#x1eef;" horiz-adv-x="628" 
d="M192 632c-28 0 -49 -21 -61 -58l-38 17c18 55 48 89 94 89c33 0 56 -16 79 -30c23 -15 45 -33 69 -33s46 19 59 58l37 -13c-17 -63 -52 -93 -91 -93c-34 0 -62 21 -87 38c-21 14 -41 25 -61 25zM548 565h54v-75c0 -112 -47 -161 -131 -164v-326h-53v90h-2
c-40 -60 -103 -95 -168 -95c-111 0 -178 68 -178 200v291h53v-275c0 -123 49 -166 132 -166c86 0 163 79 163 201v240h53v-120c57 6 77 42 77 126v73z" />
    <glyph glyph-name="uhungarumlaut" unicode="&#x171;" horiz-adv-x="547" 
d="M348 697l-125 -139h-55l120 139h60zM369 558h-54l119 139h60zM418 246v240h53v-486h-53v90h-2c-40 -60 -103 -95 -168 -95c-111 0 -178 68 -178 200v291h53v-275c0 -123 49 -166 132 -166c86 0 163 79 163 201z" />
    <glyph glyph-name="umacron" unicode="&#x16b;" horiz-adv-x="547" 
d="M405 654v-51h-277v51h277zM418 486h53v-486h-53v90h-2c-40 -60 -103 -95 -168 -95c-111 0 -178 68 -178 200v291h53v-275c0 -123 49 -166 132 -166c86 0 163 79 163 201v240z" />
    <glyph glyph-name="uogonek" unicode="&#x173;" horiz-adv-x="547" 
d="M495 -128l5 -42c-17 -9 -37 -13 -66 -13c-56 0 -92 29 -92 79c0 36 27 79 76 110v84h-2c-40 -60 -103 -95 -168 -95c-111 0 -178 68 -178 200v291h53v-275c0 -123 49 -166 132 -166c86 0 163 79 163 201v240h53v-486h-3c-48 -19 -77 -56 -77 -91c0 -28 16 -48 53 -48
c27 0 36 3 51 11z" />
    <glyph glyph-name="uring" unicode="&#x16f;" horiz-adv-x="547" 
d="M266 541c-49 0 -91 39 -91 89c0 49 40 89 91 89c49 0 91 -39 91 -89c0 -49 -40 -89 -91 -89zM266 676c-25 0 -46 -21 -46 -46s21 -45 46 -45s46 20 46 45s-21 46 -46 46zM418 486h53v-486h-53v90h-2c-40 -60 -103 -95 -168 -95c-111 0 -178 68 -178 200v291h53v-275
c0 -123 49 -166 132 -166c86 0 163 79 163 201v240z" />
    <glyph glyph-name="utilde" unicode="&#x169;" horiz-adv-x="547" 
d="M194 632c-28 0 -49 -21 -61 -58l-38 17c18 55 48 89 94 89c33 0 56 -16 79 -30c23 -15 45 -33 69 -33s46 19 59 58l37 -13c-17 -63 -52 -93 -91 -93c-34 0 -62 21 -87 38c-21 14 -41 25 -61 25zM418 486h53v-486h-53v90h-2c-40 -60 -103 -95 -168 -95
c-111 0 -178 68 -178 200v291h53v-275c0 -123 49 -166 132 -166c86 0 163 79 163 201v240z" />
    <glyph glyph-name="v" unicode="v" horiz-adv-x="514" 
d="M427 486h58l-201 -486h-52l-203 486h58l170 -416h2z" />
    <glyph glyph-name="w" unicode="w" horiz-adv-x="765" 
d="M677 486h54l-170 -486h-55l-124 392h-3l-122 -392h-53l-171 486h55l141 -405h2l125 405h49l129 -406h2z" />
    <glyph glyph-name="wacute" unicode="&#x1e83;" horiz-adv-x="765" 
d="M538 697l-124 -139h-62l120 139h66zM677 486h54l-170 -486h-55l-124 392h-3l-122 -392h-53l-171 486h55l141 -405h2l125 405h49l129 -406h2z" />
    <glyph glyph-name="wcircumflex" unicode="&#x175;" horiz-adv-x="765" 
d="M379 654l-83 -97h-61l120 140h51l122 -140h-62l-83 97h-4zM677 486h54l-170 -486h-55l-124 392h-3l-122 -392h-53l-171 486h55l141 -405h2l125 405h49l129 -406h2z" />
    <glyph glyph-name="wdieresis" unicode="&#x1e85;" horiz-adv-x="765" 
d="M300 589c-26 0 -44 19 -44 44s18 44 44 44c25 0 44 -19 44 -44s-19 -44 -44 -44zM465 590c-24 0 -44 19 -44 43s20 43 44 43c25 0 43 -19 43 -43s-18 -43 -43 -43zM677 486h54l-170 -486h-55l-124 392h-3l-122 -392h-53l-171 486h55l141 -405h2l125 405h49l129 -406h2z
" />
    <glyph glyph-name="wgrave" unicode="&#x1e81;" horiz-adv-x="765" 
d="M411 558h-62l-124 139h66zM677 486h54l-170 -486h-55l-124 392h-3l-122 -392h-53l-171 486h55l141 -405h2l125 405h49l129 -406h2z" />
    <glyph glyph-name="x" unicode="x" horiz-adv-x="494" 
d="M399 0l-150 201h-2l-150 -201h-63l182 243l-183 243h64l148 -199h2l149 199h64l-181 -242l183 -244h-63z" />
    <glyph glyph-name="y" unicode="y" horiz-adv-x="522" 
d="M436 486h58l-283 -684h-57l86 212l-212 472h57l181 -409h1z" />
    <glyph glyph-name="yacute" unicode="&#xfd;" horiz-adv-x="522" 
d="M399 697l-124 -139h-62l120 139h66zM436 486h58l-283 -684h-57l86 212l-212 472h57l181 -409h1z" />
    <glyph glyph-name="ycircumflex" unicode="&#x177;" horiz-adv-x="522" 
d="M259 654l-83 -97h-61l120 140h51l122 -140h-62l-83 97h-4zM436 486h58l-283 -684h-57l86 212l-212 472h57l181 -409h1z" />
    <glyph glyph-name="ydieresis" unicode="&#xff;" horiz-adv-x="522" 
d="M180 589c-26 0 -44 19 -44 44s18 44 44 44c25 0 44 -19 44 -44s-19 -44 -44 -44zM345 590c-24 0 -44 19 -44 43s20 43 44 43c25 0 43 -19 43 -43s-18 -43 -43 -43zM436 486h58l-283 -684h-57l86 212l-212 472h57l181 -409h1z" />
    <glyph glyph-name="uni1EF5" unicode="&#x1ef5;" horiz-adv-x="522" 
d="M436 486h58l-283 -684h-57l86 212l-212 472h57l181 -409h1zM387 -120c26 0 45 -19 45 -44s-19 -44 -45 -44c-25 0 -44 19 -44 44s19 44 44 44z" />
    <glyph glyph-name="ygrave" unicode="&#x1ef3;" horiz-adv-x="522" 
d="M313 559h-62l-124 139h66zM436 486h58l-283 -684h-57l86 212l-212 472h57l181 -409h1z" />
    <glyph glyph-name="uni1EF7" unicode="&#x1ef7;" horiz-adv-x="522" 
d="M265 676c-28 0 -54 -13 -69 -32l-25 24c22 24 56 43 99 43c52 0 83 -31 83 -71c0 -39 -37 -63 -82 -80l-5 -27h-25c-7 8 -11 14 -11 24c0 32 82 43 82 82c0 28 -26 37 -47 37zM436 486h58l-283 -684h-57l86 212l-212 472h57l181 -409h1z" />
    <glyph glyph-name="uni0233" unicode="&#x233;" horiz-adv-x="522" 
d="M398 654v-51h-277v51h277zM436 486h58l-283 -684h-57l86 212l-212 472h57l181 -409h1z" />
    <glyph glyph-name="uni1EF9" unicode="&#x1ef9;" horiz-adv-x="522" 
d="M188 632c-28 0 -49 -21 -61 -58l-38 17c18 55 48 89 94 89c33 0 56 -16 79 -30c23 -15 45 -33 69 -33s46 19 59 58l37 -13c-17 -63 -52 -93 -91 -93c-34 0 -62 21 -87 38c-21 14 -41 25 -61 25zM436 486h58l-283 -684h-57l86 212l-212 472h57l181 -409h1z" />
    <glyph glyph-name="z" unicode="z" horiz-adv-x="461" 
d="M107 49h316v-49h-387v42l311 393v2h-297v49h370v-41l-313 -395v-1z" />
    <glyph glyph-name="zacute" unicode="&#x17a;" horiz-adv-x="461" 
d="M338 697l-124 -139h-62l120 139h66zM107 49h316v-49h-387v42l311 393v2h-297v49h370v-41l-313 -395v-1z" />
    <glyph glyph-name="zcaron" unicode="&#x17e;" horiz-adv-x="461" 
d="M253 557h-51l-118 140h61l84 -98h2l84 98h62zM107 49h316v-49h-387v42l311 393v2h-297v49h370v-41l-313 -395v-1z" />
    <glyph glyph-name="zdotaccent" unicode="&#x17c;" horiz-adv-x="461" 
d="M232 589c-26 0 -45 19 -45 44s19 44 45 44c25 0 44 -19 44 -44s-19 -44 -44 -44zM107 49h316v-49h-387v42l311 393v2h-297v49h370v-41l-313 -395v-1z" />
    <glyph glyph-name="a.alt" horiz-adv-x="500" 
d="M255 491c118 0 174 -70 174 -202v-289h-50l-2 66h-2c-39 -40 -100 -71 -168 -71c-112 0 -164 66 -164 144c0 87 57 146 183 146h150v4c0 108 -43 152 -124 152c-59 0 -109 -19 -147 -39l-22 42c38 22 97 47 172 47zM215 45c92 0 161 62 161 119v72h-146
c-78 0 -133 -29 -133 -95c0 -50 35 -96 118 -96z" />
    <glyph glyph-name="aacute.alt" horiz-adv-x="500" 
d="M404 697l-124 -139h-62l120 139h66zM255 491c118 0 174 -70 174 -202v-289h-50l-2 66h-2c-39 -40 -100 -71 -168 -71c-112 0 -164 66 -164 144c0 87 57 146 183 146h150v4c0 108 -43 152 -124 152c-59 0 -109 -19 -147 -39l-22 42c38 22 97 47 172 47zM215 45
c92 0 161 62 161 119v72h-146c-78 0 -133 -29 -133 -95c0 -50 35 -96 118 -96z" />
    <glyph glyph-name="abreve.alt" horiz-adv-x="500" 
d="M260 556c-68 0 -129 48 -134 134h46c4 -51 35 -90 88 -90c52 0 84 38 87 90h47c-6 -83 -62 -134 -134 -134zM255 491c118 0 174 -70 174 -202v-289h-50l-2 66h-2c-39 -40 -100 -71 -168 -71c-112 0 -164 66 -164 144c0 87 57 146 183 146h150v4c0 108 -43 152 -124 152
c-59 0 -109 -19 -147 -39l-22 42c38 22 97 47 172 47zM215 45c92 0 161 62 161 119v72h-146c-78 0 -133 -29 -133 -95c0 -50 35 -96 118 -96z" />
    <glyph glyph-name="uni1EAF.alt" horiz-adv-x="500" 
d="M389 840l-124 -139h-62l120 139h66zM259 556c-68 0 -129 48 -134 134h46c4 -51 35 -90 88 -90c52 0 84 38 87 90h47c-6 -83 -62 -134 -134 -134zM255 491c118 0 174 -70 174 -202v-289h-50l-2 66h-2c-39 -40 -100 -71 -168 -71c-112 0 -164 66 -164 144
c0 87 57 146 183 146h150v4c0 108 -43 152 -124 152c-59 0 -109 -19 -147 -39l-22 42c38 22 97 47 172 47zM215 45c92 0 161 62 161 119v72h-146c-78 0 -133 -29 -133 -95c0 -50 35 -96 118 -96z" />
    <glyph glyph-name="uni1EB7.alt" horiz-adv-x="500" 
d="M258 556c-68 0 -129 48 -134 134h46c4 -51 35 -90 88 -90c52 0 84 38 87 90h47c-6 -83 -62 -134 -134 -134zM255 491c118 0 174 -70 174 -202v-289h-50l-2 66h-2c-39 -40 -100 -71 -168 -71c-112 0 -164 66 -164 144c0 87 57 146 183 146h150v4c0 108 -43 152 -124 152
c-59 0 -109 -19 -147 -39l-22 42c38 22 97 47 172 47zM215 45c92 0 161 62 161 119v72h-146c-78 0 -133 -29 -133 -95c0 -50 35 -96 118 -96zM250 -120c26 0 45 -19 45 -44s-19 -44 -45 -44c-25 0 -44 19 -44 44s19 44 44 44z" />
    <glyph glyph-name="uni1EB1.alt" horiz-adv-x="500" 
d="M293 701h-62l-124 139h66zM172 690c4 -51 35 -90 88 -90c52 0 84 38 87 90h47c-6 -83 -62 -134 -134 -134c-68 0 -129 48 -134 134h46zM255 491c118 0 174 -70 174 -202v-289h-50l-2 66h-2c-39 -40 -100 -71 -168 -71c-112 0 -164 66 -164 144c0 87 57 146 183 146h150v4
c0 108 -43 152 -124 152c-59 0 -109 -19 -147 -39l-22 42c38 22 97 47 172 47zM215 45c92 0 161 62 161 119v72h-146c-78 0 -133 -29 -133 -95c0 -50 35 -96 118 -96z" />
    <glyph glyph-name="uni1EB3.alt" horiz-adv-x="500" 
d="M263 821c-28 0 -54 -13 -69 -32l-25 24c22 24 56 43 99 43c52 0 83 -31 83 -71c0 -39 -37 -63 -82 -80l-5 -27h-25c-7 8 -11 14 -11 24c0 32 82 43 82 82c0 28 -26 37 -47 37zM259 556c-68 0 -129 48 -134 134h46c4 -51 35 -90 88 -90c52 0 84 38 87 90h47
c-6 -83 -62 -134 -134 -134zM255 491c118 0 174 -70 174 -202v-289h-50l-2 66h-2c-39 -40 -100 -71 -168 -71c-112 0 -164 66 -164 144c0 87 57 146 183 146h150v4c0 108 -43 152 -124 152c-59 0 -109 -19 -147 -39l-22 42c38 22 97 47 172 47zM215 45c92 0 161 62 161 119
v72h-146c-78 0 -133 -29 -133 -95c0 -50 35 -96 118 -96z" />
    <glyph glyph-name="uni1EB5.alt" horiz-adv-x="500" 
d="M189 777c-21 0 -43 -21 -56 -58l-38 17c18 55 49 89 90 89c33 0 54 -16 77 -30c23 -15 45 -33 69 -33s46 19 59 58l37 -13c-18 -63 -52 -93 -91 -93c-34 0 -62 21 -87 38c-21 14 -37 25 -60 25zM259 600c52 0 84 38 87 90h47c-6 -83 -62 -134 -134 -134
c-68 0 -129 48 -134 134h46c4 -51 35 -90 88 -90zM255 491c118 0 174 -70 174 -202v-289h-50l-2 66h-2c-39 -40 -100 -71 -168 -71c-112 0 -164 66 -164 144c0 87 57 146 183 146h150v4c0 108 -43 152 -124 152c-59 0 -109 -19 -147 -39l-22 42c38 22 97 47 172 47zM215 45
c92 0 161 62 161 119v72h-146c-78 0 -133 -29 -133 -95c0 -50 35 -96 118 -96z" />
    <glyph glyph-name="acircumflex.alt" horiz-adv-x="500" 
d="M257 654l-83 -97h-61l120 140h51l122 -140h-62l-83 97h-4zM255 491c118 0 174 -70 174 -202v-289h-50l-2 66h-2c-39 -40 -100 -71 -168 -71c-112 0 -164 66 -164 144c0 87 57 146 183 146h150v4c0 108 -43 152 -124 152c-59 0 -109 -19 -147 -39l-22 42
c38 22 97 47 172 47zM215 45c92 0 161 62 161 119v72h-146c-78 0 -133 -29 -133 -95c0 -50 35 -96 118 -96z" />
    <glyph glyph-name="uni1EA5.alt" horiz-adv-x="500" 
d="M544 779l-135 -138h-48l120 138h63zM257 654l-83 -97h-61l120 140h51l122 -140h-62l-83 97h-4zM255 491c118 0 174 -70 174 -202v-289h-50l-2 66h-2c-39 -40 -100 -71 -168 -71c-112 0 -164 66 -164 144c0 87 57 146 183 146h150v4c0 108 -43 152 -124 152
c-59 0 -109 -19 -147 -39l-22 42c38 22 97 47 172 47zM215 45c92 0 161 62 161 119v72h-146c-78 0 -133 -29 -133 -95c0 -50 35 -96 118 -96z" />
    <glyph glyph-name="uni1EAD.alt" horiz-adv-x="500" 
d="M255 654l-83 -97h-61l120 140h51l122 -140h-62l-83 97h-4zM255 491c118 0 174 -70 174 -202v-289h-50l-2 66h-2c-39 -40 -100 -71 -168 -71c-112 0 -164 66 -164 144c0 87 57 146 183 146h150v4c0 108 -43 152 -124 152c-59 0 -109 -19 -147 -39l-22 42
c38 22 97 47 172 47zM215 45c92 0 161 62 161 119v72h-146c-78 0 -133 -29 -133 -95c0 -50 35 -96 118 -96zM250 -120c26 0 45 -19 45 -44s-19 -44 -45 -44c-25 0 -44 19 -44 44s19 44 44 44z" />
    <glyph glyph-name="uni1EA7.alt" horiz-adv-x="500" 
d="M456 641h-49l-124 138h63zM259 655l-83 -97h-61l120 140h51l122 -140h-62l-83 97h-4zM255 491c118 0 174 -70 174 -202v-289h-50l-2 66h-2c-39 -40 -100 -71 -168 -71c-112 0 -164 66 -164 144c0 87 57 146 183 146h150v4c0 108 -43 152 -124 152
c-59 0 -109 -19 -147 -39l-22 42c38 22 97 47 172 47zM215 45c92 0 161 62 161 119v72h-146c-78 0 -133 -29 -133 -95c0 -50 35 -96 118 -96z" />
    <glyph glyph-name="uni1EA9.alt" horiz-adv-x="500" 
d="M410 794c51 0 82 -30 82 -71c0 -39 -38 -63 -81 -80l-4 -27h-25c-7 9 -12 14 -12 24c0 32 81 43 81 82c0 27 -24 38 -45 38c-28 0 -55 -14 -69 -33l-26 24c23 24 57 43 99 43zM257 654l-83 -97h-61l120 140h51l122 -140h-62l-83 97h-4zM255 491c118 0 174 -70 174 -202
v-289h-50l-2 66h-2c-39 -40 -100 -71 -168 -71c-112 0 -164 66 -164 144c0 87 57 146 183 146h150v4c0 108 -43 152 -124 152c-59 0 -109 -19 -147 -39l-22 42c38 22 97 47 172 47zM215 45c92 0 161 62 161 119v72h-146c-78 0 -133 -29 -133 -95c0 -50 35 -96 118 -96z" />
    <glyph glyph-name="uni1EAB.alt" horiz-adv-x="500" 
d="M190 777c-21 0 -43 -21 -56 -58l-38 17c18 55 49 89 90 89c33 0 54 -16 77 -30c23 -15 45 -33 69 -33s46 19 59 58l37 -13c-18 -63 -52 -93 -91 -93c-34 0 -62 21 -87 38c-21 14 -37 25 -60 25zM234 697h51l122 -140h-62l-83 97h-4l-83 -97h-61zM255 491
c118 0 174 -70 174 -202v-289h-50l-2 66h-2c-39 -40 -100 -71 -168 -71c-112 0 -164 66 -164 144c0 87 57 146 183 146h150v4c0 108 -43 152 -124 152c-59 0 -109 -19 -147 -39l-22 42c38 22 97 47 172 47zM215 45c92 0 161 62 161 119v72h-146c-78 0 -133 -29 -133 -95
c0 -50 35 -96 118 -96z" />
    <glyph glyph-name="adieresis.alt" horiz-adv-x="500" 
d="M178 589c-26 0 -44 19 -44 44s18 44 44 44c25 0 44 -19 44 -44s-19 -44 -44 -44zM343 590c-24 0 -44 19 -44 43s20 43 44 43c25 0 43 -19 43 -43s-18 -43 -43 -43zM255 491c118 0 174 -70 174 -202v-289h-50l-2 66h-2c-39 -40 -100 -71 -168 -71c-112 0 -164 66 -164 144
c0 87 57 146 183 146h150v4c0 108 -43 152 -124 152c-59 0 -109 -19 -147 -39l-22 42c38 22 97 47 172 47zM215 45c92 0 161 62 161 119v72h-146c-78 0 -133 -29 -133 -95c0 -50 35 -96 118 -96z" />
    <glyph glyph-name="uni1EA1.alt" horiz-adv-x="500" 
d="M255 491c118 0 174 -70 174 -202v-289h-50l-2 66h-2c-39 -40 -100 -71 -168 -71c-112 0 -164 66 -164 144c0 87 57 146 183 146h150v4c0 108 -43 152 -124 152c-59 0 -109 -19 -147 -39l-22 42c38 22 97 47 172 47zM215 45c92 0 161 62 161 119v72h-146
c-78 0 -133 -29 -133 -95c0 -50 35 -96 118 -96zM250 -120c26 0 45 -19 45 -44s-19 -44 -45 -44c-25 0 -44 19 -44 44s19 44 44 44z" />
    <glyph glyph-name="agrave.alt" horiz-adv-x="500" 
d="M324 558h-62l-124 139h66zM255 491c118 0 174 -70 174 -202v-289h-50l-2 66h-2c-39 -40 -100 -71 -168 -71c-112 0 -164 66 -164 144c0 87 57 146 183 146h150v4c0 108 -43 152 -124 152c-59 0 -109 -19 -147 -39l-22 42c38 22 97 47 172 47zM215 45c92 0 161 62 161 119
v72h-146c-78 0 -133 -29 -133 -95c0 -50 35 -96 118 -96z" />
    <glyph glyph-name="uni1EA3.alt" horiz-adv-x="500" 
d="M263 676c-28 0 -54 -13 -69 -32l-25 24c22 24 56 43 99 43c52 0 83 -31 83 -71c0 -39 -37 -63 -82 -80l-5 -27h-25c-7 8 -11 14 -11 24c0 32 82 43 82 82c0 28 -26 37 -47 37zM255 491c118 0 174 -70 174 -202v-289h-50l-2 66h-2c-39 -40 -100 -71 -168 -71
c-112 0 -164 66 -164 144c0 87 57 146 183 146h150v4c0 108 -43 152 -124 152c-59 0 -109 -19 -147 -39l-22 42c38 22 97 47 172 47zM215 45c92 0 161 62 161 119v72h-146c-78 0 -133 -29 -133 -95c0 -50 35 -96 118 -96z" />
    <glyph glyph-name="amacron.alt" horiz-adv-x="500" 
d="M399 654v-51h-277v51h277zM255 491c118 0 174 -70 174 -202v-289h-50l-2 66h-2c-39 -40 -100 -71 -168 -71c-112 0 -164 66 -164 144c0 87 57 146 183 146h150v4c0 108 -43 152 -124 152c-59 0 -109 -19 -147 -39l-22 42c38 22 97 47 172 47zM215 45c92 0 161 62 161 119
v72h-146c-78 0 -133 -29 -133 -95c0 -50 35 -96 118 -96z" />
    <glyph glyph-name="aogonek.alt" horiz-adv-x="500" 
d="M455 -128l5 -42c-17 -9 -37 -13 -66 -13c-56 0 -92 29 -92 79c0 36 27 79 75 109l2 4l-2 57h-2c-39 -40 -100 -71 -168 -71c-112 0 -164 66 -164 144c0 87 57 146 183 146h150v4c0 108 -43 152 -124 152c-59 0 -109 -19 -147 -39l-22 42c38 22 97 47 172 47
c118 0 174 -70 174 -202v-289h-1c-48 -19 -77 -56 -77 -91c0 -28 16 -48 53 -48c27 0 36 3 51 11zM215 45c92 0 161 62 161 119v72h-146c-78 0 -133 -29 -133 -95c0 -50 35 -96 118 -96z" />
    <glyph glyph-name="aring.alt" horiz-adv-x="500" 
d="M260 541c-49 0 -91 39 -91 89c0 49 40 89 91 89c49 0 91 -39 91 -89c0 -49 -40 -89 -91 -89zM260 676c-25 0 -46 -21 -46 -46s21 -45 46 -45s46 20 46 45s-21 46 -46 46zM255 491c118 0 174 -70 174 -202v-289h-50l-2 66h-2c-39 -40 -100 -71 -168 -71
c-112 0 -164 66 -164 144c0 87 57 146 183 146h150v4c0 108 -43 152 -124 152c-59 0 -109 -19 -147 -39l-22 42c38 22 97 47 172 47zM215 45c92 0 161 62 161 119v72h-146c-78 0 -133 -29 -133 -95c0 -50 35 -96 118 -96z" />
    <glyph glyph-name="aringacute.alt" horiz-adv-x="500" 
d="M260 541c-49 0 -91 39 -91 89c0 49 40 89 91 89c28 0 53 -12 70 -32l78 52h72l-131 -91c1 -6 2 -12 2 -18c0 -49 -40 -89 -91 -89zM260 676c-25 0 -46 -21 -46 -46s21 -45 46 -45s46 20 46 45s-21 46 -46 46zM255 491c118 0 174 -70 174 -202v-289h-50l-2 66h-2
c-39 -40 -100 -71 -168 -71c-112 0 -164 66 -164 144c0 87 57 146 183 146h150v4c0 108 -43 152 -124 152c-59 0 -109 -19 -147 -39l-22 42c38 22 97 47 172 47zM215 45c92 0 161 62 161 119v72h-146c-78 0 -133 -29 -133 -95c0 -50 35 -96 118 -96z" />
    <glyph glyph-name="atilde.alt" horiz-adv-x="500" 
d="M188 632c-28 0 -49 -21 -61 -58l-38 17c18 55 48 89 94 89c33 0 56 -16 79 -30c23 -15 45 -33 69 -33s46 19 59 58l37 -13c-17 -63 -52 -93 -91 -93c-34 0 -62 21 -87 38c-21 14 -41 25 -61 25zM255 491c118 0 174 -70 174 -202v-289h-50l-2 66h-2
c-39 -40 -100 -71 -168 -71c-112 0 -164 66 -164 144c0 87 57 146 183 146h150v4c0 108 -43 152 -124 152c-59 0 -109 -19 -147 -39l-22 42c38 22 97 47 172 47zM215 45c92 0 161 62 161 119v72h-146c-78 0 -133 -29 -133 -95c0 -50 35 -96 118 -96z" />
    <glyph glyph-name="g.alt" horiz-adv-x="549" 
d="M310 62c101 0 207 -19 207 -125c0 -82 -70 -154 -249 -154c-142 0 -229 47 -229 139c0 49 28 88 59 113v2c-21 13 -34 35 -33 63c0 31 20 62 63 103v2c-25 29 -40 66 -40 109c0 99 74 177 187 177c44 0 84 -13 116 -35l96 92l34 -33l-95 -92v-1c22 -29 35 -66 35 -108
c0 -94 -73 -173 -186 -173c-40 0 -78 12 -110 32h-1c-29 -27 -48 -47 -48 -69s12 -41 59 -42h3h132zM275 441c-77 0 -129 -51 -129 -127c0 -70 56 -124 129 -124c76 0 129 52 129 124c0 76 -52 127 -129 127zM271 -167c115 0 191 37 191 104c0 64 -71 76 -172 76
c-37 0 -115 -3 -149 4c-12 -11 -52 -43 -52 -87c0 -53 40 -97 182 -97z" />
    <glyph glyph-name="gbreve.alt" horiz-adv-x="549" 
d="M274 554c-68 0 -129 48 -134 134h46c4 -51 35 -90 88 -90c52 0 84 38 87 90h47c-6 -83 -62 -134 -134 -134zM310 62c101 0 207 -19 207 -125c0 -82 -70 -154 -249 -154c-142 0 -229 47 -229 139c0 49 28 88 59 113v2c-21 13 -34 35 -33 63c0 31 20 62 63 103v2
c-25 29 -40 66 -40 109c0 99 74 177 187 177c44 0 84 -13 116 -35l96 92l34 -33l-95 -92v-1c22 -29 35 -66 35 -108c0 -94 -73 -173 -186 -173c-40 0 -78 12 -110 32h-1c-29 -27 -48 -47 -48 -69s12 -41 59 -42h3h132zM275 441c-77 0 -129 -51 -129 -127
c0 -70 56 -124 129 -124c76 0 129 52 129 124c0 76 -52 127 -129 127zM271 -167c115 0 191 37 191 104c0 64 -71 76 -172 76c-37 0 -115 -3 -149 4c-12 -11 -52 -43 -52 -87c0 -53 40 -97 182 -97z" />
    <glyph glyph-name="gcaron.alt" horiz-adv-x="549" 
d="M294 555h-51l-118 140h61l84 -98h2l84 98h62zM310 62c101 0 207 -19 207 -125c0 -82 -70 -154 -249 -154c-142 0 -229 47 -229 139c0 49 28 88 59 113v2c-21 13 -34 35 -33 63c0 31 20 62 63 103v2c-25 29 -40 66 -40 109c0 99 74 177 187 177c44 0 84 -13 116 -35l96 92
l34 -33l-95 -92v-1c22 -29 35 -66 35 -108c0 -94 -73 -173 -186 -173c-40 0 -78 12 -110 32h-1c-29 -27 -48 -47 -48 -69s12 -41 59 -42h3h132zM275 441c-77 0 -129 -51 -129 -127c0 -70 56 -124 129 -124c76 0 129 52 129 124c0 76 -52 127 -129 127zM271 -167
c115 0 191 37 191 104c0 64 -71 76 -172 76c-37 0 -115 -3 -149 4c-12 -11 -52 -43 -52 -87c0 -53 40 -97 182 -97z" />
    <glyph glyph-name="gcircumflex.alt" horiz-adv-x="549" 
d="M268 655l-85 -98h-61l119 139h51l122 -139h-61zM310 62c101 0 207 -19 207 -125c0 -82 -70 -154 -249 -154c-142 0 -229 47 -229 139c0 49 28 88 59 113v2c-21 13 -34 35 -33 63c0 31 20 62 63 103v2c-25 29 -40 66 -40 109c0 99 74 177 187 177c44 0 84 -13 116 -35
l96 92l34 -33l-95 -92v-1c22 -29 35 -66 35 -108c0 -94 -73 -173 -186 -173c-40 0 -78 12 -110 32h-1c-29 -27 -48 -47 -48 -69s12 -41 59 -42h3h132zM275 441c-77 0 -129 -51 -129 -127c0 -70 56 -124 129 -124c76 0 129 52 129 124c0 76 -52 127 -129 127zM271 -167
c115 0 191 37 191 104c0 64 -71 76 -172 76c-37 0 -115 -3 -149 4c-12 -11 -52 -43 -52 -87c0 -53 40 -97 182 -97z" />
    <glyph glyph-name="gcommaaccent.alt" horiz-adv-x="549" 
d="M308 551h-50c-4 16 -5 34 -5 53c0 55 33 94 99 99l14 -34c-52 -7 -64 -34 -64 -68c0 -17 2 -32 6 -50zM310 62c101 0 207 -19 207 -125c0 -82 -70 -154 -249 -154c-142 0 -229 47 -229 139c0 49 28 88 59 113v2c-21 13 -34 35 -33 63c0 31 20 62 63 103v2
c-25 29 -40 66 -40 109c0 99 74 177 187 177c44 0 84 -13 116 -35l96 92l34 -33l-95 -92v-1c22 -29 35 -66 35 -108c0 -94 -73 -173 -186 -173c-40 0 -78 12 -110 32h-1c-29 -27 -48 -47 -48 -69s12 -41 59 -42h3h132zM275 441c-77 0 -129 -51 -129 -127
c0 -70 56 -124 129 -124c76 0 129 52 129 124c0 76 -52 127 -129 127zM271 -167c115 0 191 37 191 104c0 64 -71 76 -172 76c-37 0 -115 -3 -149 4c-12 -11 -52 -43 -52 -87c0 -53 40 -97 182 -97z" />
    <glyph glyph-name="gdotaccent.alt" horiz-adv-x="549" 
d="M275 587c-26 0 -45 19 -45 44s19 44 45 44c25 0 44 -19 44 -44s-19 -44 -44 -44zM310 62c101 0 207 -19 207 -125c0 -82 -70 -154 -249 -154c-142 0 -229 47 -229 139c0 49 28 88 59 113v2c-21 13 -34 35 -33 63c0 31 20 62 63 103v2c-25 29 -40 66 -40 109
c0 99 74 177 187 177c44 0 84 -13 116 -35l96 92l34 -33l-95 -92v-1c22 -29 35 -66 35 -108c0 -94 -73 -173 -186 -173c-40 0 -78 12 -110 32h-1c-29 -27 -48 -47 -48 -69s12 -41 59 -42h3h132zM275 441c-77 0 -129 -51 -129 -127c0 -70 56 -124 129 -124
c76 0 129 52 129 124c0 76 -52 127 -129 127zM271 -167c115 0 191 37 191 104c0 64 -71 76 -172 76c-37 0 -115 -3 -149 4c-12 -11 -52 -43 -52 -87c0 -53 40 -97 182 -97z" />
    <glyph glyph-name="f.calt" horiz-adv-x="328" 
d="M104 0v437h-64v49h64v107c0 101 49 148 127 148c27 0 50 -4 70 -12l-11 -48c-18 7 -35 10 -55 10c-45 0 -79 -28 -79 -102v-103h155v-49h-155v-437h-52z" />
    <glyph glyph-name="j.calt" horiz-adv-x="208" 
d="M108 587c-26 0 -45 19 -45 44s19 44 45 44c25 0 44 -19 44 -44s-19 -44 -44 -44zM-13 -150c9 -2 28 -3 35 -3c45 0 60 24 60 86v553h53v-553c0 -79 -15 -136 -103 -136c-13 0 -36 2 -51 5z" />
    <glyph glyph-name="uni0237.calt" horiz-adv-x="208" 
d="M-13 -150c9 -2 28 -3 35 -3c45 0 60 24 60 86v553h53v-553c0 -79 -15 -136 -103 -136c-13 0 -36 2 -51 5z" />
    <glyph glyph-name="jcircumflex.calt" horiz-adv-x="208" 
d="M131 695l122 -140h-62l-83 97h-4l-83 -97h-61l120 140h51zM82 -67v553h53v-553c0 -79 -15 -136 -103 -136c-13 0 -36 2 -51 5l6 48c9 -2 28 -3 35 -3c45 0 60 24 60 86z" />
    <glyph glyph-name="germandbls.calt" horiz-adv-x="724" 
d="M467 390c116 -46 219 -77 219 -205c0 -116 -99 -190 -227 -190c-78 0 -162 28 -227 94l28 53c51 -63 129 -93 200 -93c92 0 167 46 167 131c0 92 -80 115 -179 154c-30 12 -63 26 -94 41l142 265v3c-63 11 -133 19 -188 19c-127 0 -185 -48 -185 -162v-500h-57v504
c0 146 81 211 236 211c73 0 181 -14 275 -37l-147 -272v-1z" />
    <glyph glyph-name="ordfeminine" unicode="&#xaa;" horiz-adv-x="419" 
d="M313 687h41v-291h-41v47h-3c-27 -32 -67 -51 -113 -51c-84 0 -146 59 -146 147c0 85 58 151 144 151c43 0 87 -20 116 -55h2v52zM205 432c60 0 108 43 108 107c0 62 -45 111 -107 111c-63 0 -112 -45 -112 -111c0 -60 45 -107 111 -107z" />
    <glyph glyph-name="ordmasculine" unicode="&#xba;" horiz-adv-x="408" 
d="M202 392c-90 0 -151 65 -151 149s61 149 151 149c86 0 152 -60 152 -149s-66 -149 -152 -149zM202 432c61 0 108 45 108 109c0 65 -46 109 -108 109c-65 0 -107 -48 -107 -109c0 -60 42 -109 107 -109z" />
    <glyph glyph-name="Alpha" unicode="&#x391;" horiz-adv-x="667" 
d="M576 0l-71 188h-343l-71 -188h-60l272 710h59l275 -710h-61zM182 242h303l-151 400h-2z" />
    <glyph glyph-name="Beta" unicode="&#x392;" horiz-adv-x="630" 
d="M427 371c75 -16 145 -75 145 -181c0 -112 -77 -190 -241 -190h-239v710h219c131 0 226 -48 226 -172c0 -71 -37 -138 -110 -165v-2zM148 657v-263h171c74 0 159 33 159 135c0 79 -51 128 -181 128h-149zM316 54c117 0 196 44 196 138c0 95 -68 149 -190 149h-174v-287
h168z" />
    <glyph glyph-name="Gamma" unicode="&#x393;" horiz-adv-x="553" 
d="M92 0v710h434v-53h-378v-657h-56z" />
    <glyph glyph-name="uni0394" unicode="&#x394;" horiz-adv-x="650" 
d="M354 710l261 -664v-46h-46h-526h-8v46l258 664h61zM101 54h447l-222 585h-2z" />
    <glyph glyph-name="Epsilon" unicode="&#x395;" 
d="M92 0v710h424v-53h-368v-276h306v-54h-306v-273h389v-54h-445z" />
    <glyph glyph-name="Zeta" unicode="&#x396;" horiz-adv-x="607" 
d="M133 54h409v-54h-482v47l404 607v3h-381v53h456v-47l-406 -608v-1z" />
    <glyph glyph-name="Eta" unicode="&#x397;" horiz-adv-x="714" 
d="M92 0v710h56v-347h418v347h56v-710h-56v309h-418v-309h-56z" />
    <glyph glyph-name="Theta" unicode="&#x398;" horiz-adv-x="829" 
d="M415 -5c-210 0 -352 158 -352 361c0 201 142 359 352 359c196 0 351 -143 351 -359c0 -217 -155 -361 -351 -361zM415 51c161 0 292 124 292 305s-131 304 -292 304c-175 0 -293 -137 -293 -304c0 -168 118 -305 293 -305zM231 324v53h384v-53h-384z" />
    <glyph glyph-name="Iota" unicode="&#x399;" horiz-adv-x="252" 
d="M98 0v710h56v-710h-56z" />
    <glyph glyph-name="Kappa" unicode="&#x39a;" horiz-adv-x="636" 
d="M272 335h-2l-122 -142v-193h-56v710h56v-435h1l369 435h73l-282 -329l288 -381h-72z" />
    <glyph glyph-name="Lambda" unicode="&#x39b;" horiz-adv-x="664" 
d="M568 0l-236 631h-2l-236 -631h-62l267 710h62l270 -710h-63z" />
    <glyph glyph-name="Mu" unicode="&#x39c;" horiz-adv-x="870" 
d="M722 710h56v-710h-56v598h-1l-265 -451h-41l-266 451h-1v-598h-56v710h57l286 -490h2z" />
    <glyph glyph-name="Nu" unicode="&#x39d;" horiz-adv-x="746" 
d="M598 710h56v-710h-57l-447 611h-2v-611h-56v710h55l449 -614h2v614z" />
    <glyph glyph-name="Xi" unicode="&#x39e;" horiz-adv-x="616" 
d="M73 654v56h471v-56h-471zM114 323v55h388v-55h-388zM66 0v56h485v-56h-485z" />
    <glyph glyph-name="Omicron" unicode="&#x39f;" horiz-adv-x="829" 
d="M415 -5c-210 0 -352 158 -352 361c0 201 142 359 352 359c196 0 351 -143 351 -359c0 -217 -155 -361 -351 -361zM415 51c161 0 292 124 292 305s-131 304 -292 304c-175 0 -293 -137 -293 -304c0 -168 118 -305 293 -305z" />
    <glyph glyph-name="Pi" unicode="&#x3a0;" horiz-adv-x="690" 
d="M92 0v710h507v-710h-56v657h-395v-657h-56z" />
    <glyph glyph-name="Rho" unicode="&#x3a1;" horiz-adv-x="605" 
d="M92 0v710h241c162 0 227 -90 227 -210c0 -148 -100 -213 -244 -213h-168v-287h-56zM148 341h166c136 0 186 70 186 159c0 105 -65 157 -168 157h-184v-316z" />
    <glyph glyph-name="Sigma" unicode="&#x3a3;" horiz-adv-x="573" 
d="M525 657h-393l201 -300l-201 -302v-1h393v-54h-467v43l208 314l-208 309v44h467v-53z" />
    <glyph glyph-name="Tau" unicode="&#x3a4;" horiz-adv-x="565" 
d="M252 0v657h-222v53h504v-53h-225v-657h-57z" />
    <glyph glyph-name="Upsilon" unicode="&#x3a5;" 
d="M500 710h66l-246 -390v-320h-56v320l-244 390h65l206 -330h2z" />
    <glyph glyph-name="Phi" unicode="&#x3a6;" horiz-adv-x="815" 
d="M759 358c0 -173 -126 -287 -323 -296v-62h-56v62c-198 9 -324 123 -324 296c0 184 125 302 324 311v51h56v-51c197 -10 323 -125 323 -311zM115 358c0 -137 101 -231 265 -240v495c-166 -9 -265 -108 -265 -255zM436 118c164 9 264 103 264 240c0 147 -99 245 -264 255
v-495z" />
    <glyph glyph-name="Chi" unicode="&#x3a7;" horiz-adv-x="642" 
d="M538 0l-216 307h-1l-217 -307h-68l248 354l-247 356h67l217 -309h1l215 309h67l-246 -356l248 -354h-68z" />
    <glyph glyph-name="Psi" unicode="&#x3a8;" horiz-adv-x="786" 
d="M654 710h56l-1 -253c0 -176 -81 -281 -288 -282v-175h-56v175c-199 3 -290 99 -289 282v253h56v-249c-1 -146 58 -229 233 -232v481h56v-481c161 2 232 77 232 232z" />
    <glyph glyph-name="uni03A9" unicode="&#x3a9;" horiz-adv-x="785" 
d="M550 55v-1h163v-54h-260v54c127 65 211 170 211 312c0 173 -106 293 -271 294c-166 0 -271 -121 -271 -294c0 -142 83 -247 211 -312v-54h-260v54h162v1c-107 62 -173 178 -173 311c0 206 129 349 331 349c201 0 330 -143 330 -349c0 -133 -66 -249 -173 -311z" />
    <glyph glyph-name="Alphatonos" unicode="&#x386;" horiz-adv-x="667" 
d="M576 0l-71 188h-343l-71 -188h-60l272 710h59l275 -710h-61zM170 703l-84 -159h-55l75 159h64zM182 242h303l-151 400h-2z" />
    <glyph glyph-name="Epsilontonos" unicode="&#x388;" horiz-adv-x="581" 
d="M87 0v710h424v-53h-368v-276h306v-54h-306v-273h389v-54h-445zM-128 546l75 159h64l-84 -159h-55z" />
    <glyph glyph-name="Etatonos" unicode="&#x389;" horiz-adv-x="710" 
d="M88 0v710h56v-347h418v347h56v-710h-56v309h-418v-309h-56zM-129 546l75 159h64l-84 -159h-55z" />
    <glyph glyph-name="Iotatonos" unicode="&#x38a;" horiz-adv-x="252" 
d="M98 0v710h56v-710h-56zM-130 546l75 159h64l-84 -159h-55z" />
    <glyph glyph-name="Omicrontonos" unicode="&#x38c;" horiz-adv-x="836" 
d="M422 -5c-210 0 -352 158 -352 361c0 201 142 359 352 359c196 0 351 -143 351 -359c0 -217 -155 -361 -351 -361zM-55 546l75 159h64l-84 -159h-55zM422 51c161 0 292 124 292 305s-131 304 -292 304c-175 0 -293 -137 -293 -304c0 -168 118 -305 293 -305z" />
    <glyph glyph-name="Upsilontonos" unicode="&#x38e;" horiz-adv-x="591" 
d="M505 710h66l-246 -390v-320h-56v320l-244 390h65l206 -330h2zM-159 546l75 159h64l-84 -159h-55z" />
    <glyph glyph-name="Omegatonos" unicode="&#x38f;" horiz-adv-x="785" 
d="M550 55v-1h163v-54h-260v54c127 65 211 170 211 312c0 173 -106 293 -271 294c-166 0 -271 -121 -271 -294c0 -142 83 -247 211 -312v-54h-260v54h162v1c-107 62 -173 178 -173 311c0 206 129 349 331 349c201 0 330 -143 330 -349c0 -133 -66 -249 -173 -311zM1 705h64
l-84 -159h-55z" />
    <glyph glyph-name="Iotadieresis" unicode="&#x3aa;" horiz-adv-x="252" 
d="M13 827c-25 0 -44 19 -44 44s19 44 44 44s45 -19 45 -44s-20 -44 -45 -44zM244 828c-24 0 -44 19 -44 43c0 23 20 43 44 43c25 0 44 -19 44 -43s-19 -43 -44 -43zM98 0v710h56v-710h-56z" />
    <glyph glyph-name="Upsilondieresis" unicode="&#x3ab;" 
d="M172 827c-25 0 -44 19 -44 44s19 44 44 44s45 -19 45 -44s-20 -44 -45 -44zM403 828c-24 0 -44 19 -44 43c0 23 20 43 44 43c25 0 44 -19 44 -43s-19 -43 -44 -43zM500 710h66l-246 -390v-320h-56v320l-244 390h65l206 -330h2z" />
    <glyph glyph-name="alpha" unicode="&#x3b1;" horiz-adv-x="612" 
d="M593 53l6 -46c-16 -7 -34 -12 -59 -12c-56 0 -78 49 -79 103h-2c-40 -63 -106 -103 -186 -103c-128 0 -226 98 -226 244c0 140 93 252 232 252c80 0 151 -37 190 -109h3l6 104h52l-21 -231v-121c0 -48 5 -89 46 -89c14 0 28 4 38 8zM277 45c95 0 175 77 185 191v11
c-3 111 -71 194 -178 194c-102 0 -183 -81 -183 -202c0 -109 70 -194 176 -194z" />
    <glyph glyph-name="beta" unicode="&#x3b2;" horiz-adv-x="579" 
d="M395 397c89 -30 138 -104 138 -188c0 -125 -87 -214 -221 -214c-74 0 -136 31 -176 83h-2v-276h-52v697c0 166 89 242 215 242c120 0 199 -75 199 -177c0 -55 -18 -132 -101 -166v-1zM308 44c106 0 171 70 171 164c0 85 -62 159 -186 159h-43v49h40c133 1 152 89 152 144
c0 74 -53 131 -143 131c-95 0 -165 -56 -165 -190v-277c0 -98 68 -180 174 -180z" />
    <glyph glyph-name="gamma" unicode="&#x3b3;" horiz-adv-x="516" 
d="M485 486l-201 -500c11 -45 9 -93 9 -184h-53c0 86 4 148 -20 208l-190 476h58l170 -432l169 432h58z" />
    <glyph glyph-name="delta" unicode="&#x3b4;" horiz-adv-x="575" 
d="M354 475c84 -35 173 -105 173 -239c0 -146 -107 -241 -238 -241c-142 0 -241 106 -241 243c0 119 72 202 170 242c-73 35 -97 81 -97 127c0 73 62 134 170 134c50 1 129 -10 199 -50l-20 -44c-64 34 -121 44 -173 44c-76 0 -123 -37 -123 -84c0 -37 22 -65 93 -96
c21 -10 42 -17 87 -36zM289 45c100 0 185 73 185 191c0 111 -75 178 -187 213c-6 2 -11 4 -17 7c-101 -33 -168 -114 -168 -218c0 -109 76 -193 187 -193z" />
    <glyph glyph-name="epsilon" unicode="&#x3b5;" horiz-adv-x="475" 
d="M415 88l25 -41c-67 -37 -133 -52 -205 -52c-109 0 -183 44 -183 134c0 54 30 102 91 124c-51 22 -77 64 -77 103c0 82 62 134 175 135c47 0 126 -11 196 -51l-21 -41c-63 30 -128 42 -168 42c-84 0 -128 -36 -128 -88c0 -33 34 -79 117 -79h87v-49h-100
c-88 0 -117 -54 -117 -91c0 -61 54 -89 139 -89c58 0 113 12 169 43z" />
    <glyph glyph-name="zeta" unicode="&#x3b6;" horiz-adv-x="452" 
d="M455 694c-191 -139 -350 -312 -351 -458c-1 -111 80 -140 197 -180c91 -30 137 -52 137 -119c0 -53 -36 -106 -67 -143l-47 24c27 34 59 72 59 113s-26 53 -113 81c-127 43 -221 82 -220 224c1 147 139 308 317 449v3h-288v48h376v-42z" />
    <glyph glyph-name="eta" unicode="&#x3b7;" horiz-adv-x="566" 
d="M323 490c104 0 171 -67 171 -200v-488h-53v471c0 122 -56 167 -131 167c-105 0 -176 -78 -176 -199v-241h-52v486h52v-94h2c42 62 110 98 187 98z" />
    <glyph glyph-name="theta" unicode="&#x3b8;" horiz-adv-x="578" 
d="M290 741c137 0 240 -111 240 -372c0 -209 -68 -374 -240 -374c-139 0 -241 111 -241 374c0 208 67 372 241 372zM290 691c-124 0 -180 -118 -186 -290h371c-7 200 -81 290 -185 290zM290 45c126 0 183 127 186 308h-373c4 -213 79 -308 187 -308z" />
    <glyph glyph-name="iota" unicode="&#x3b9;" horiz-adv-x="255" 
d="M177 -5c-78 0 -92 56 -92 113v378h53v-361c0 -48 4 -80 50 -80c23 0 38 5 49 9l6 -47c-16 -5 -34 -12 -66 -12z" />
    <glyph glyph-name="kappa" unicode="&#x3ba;" horiz-adv-x="563" 
d="M270 245h-3l-133 -126v-119h-53v486h53v-298h2l316 298h69l-213 -202l224 -284h-68z" />
    <glyph glyph-name="lambda" unicode="&#x3bb;" horiz-adv-x="535" 
d="M450 0c-52 144 -105 287 -156 422h-3l-198 -422h-58l231 492c-11 31 -23 61 -35 91c-24 66 -52 109 -107 109c-18 0 -34 -4 -48 -8l-7 46c15 6 37 11 65 11c76 0 116 -58 150 -148c70 -184 148 -387 223 -593h-57z" />
    <glyph glyph-name="uni03BC" unicode="&#x3bc;" horiz-adv-x="564" 
d="M433 486h53v-486h-48l-4 100h-2c-36 -66 -96 -105 -163 -105c-66 0 -111 27 -138 74l-2 -1c2 -36 3 -73 3 -109v-157h-53v684h53v-262c0 -123 56 -179 145 -179c86 0 156 78 156 200v241z" />
    <glyph glyph-name="nu" unicode="&#x3bd;" horiz-adv-x="514" 
d="M427 486h58l-201 -486h-52l-203 486h58l170 -416h2z" />
    <glyph glyph-name="xi" unicode="&#x3be;" horiz-adv-x="469" 
d="M271 65c121 -43 171 -66 170 -132c0 -44 -35 -102 -67 -139l-47 24c26 31 60 78 60 110c1 42 -30 54 -142 93c-104 37 -195 91 -195 202c0 77 53 150 143 180v2c-61 25 -105 75 -105 156c0 113 90 180 191 180c43 0 112 -10 182 -50l-21 -44c-63 34 -111 44 -156 44
c-83 1 -142 -56 -142 -131c0 -99 84 -135 186 -135h73v-49h-102c-124 0 -195 -75 -195 -150c0 -83 70 -126 167 -161z" />
    <glyph glyph-name="omicron" unicode="&#x3bf;" horiz-adv-x="591" 
d="M290 -5c-146 0 -243 109 -243 247c0 139 97 248 243 248c137 0 241 -100 241 -248c0 -146 -104 -247 -241 -247zM290 45c106 0 187 80 187 197c0 118 -81 198 -187 198c-114 0 -189 -87 -189 -198c0 -110 75 -197 189 -197z" />
    <glyph glyph-name="pi" unicode="&#x3c0;" horiz-adv-x="604" 
d="M583 486v-49h-103v-437h-53v437h-260v-437h-53v437h-89v49h558z" />
    <glyph glyph-name="rho" unicode="&#x3c1;" horiz-adv-x="593" 
d="M302 491c144 0 243 -112 243 -252c0 -146 -103 -244 -234 -244c-79 0 -145 36 -186 93h-2v-286h-53v437c0 148 99 252 232 252zM303 45c114 0 189 85 189 194c0 120 -84 202 -190 202c-108 0 -181 -90 -181 -202c0 -116 81 -194 182 -194z" />
    <glyph glyph-name="uni03C2" unicode="&#x3c2;" horiz-adv-x="498" 
d="M366 -206l-47 24c30 33 60 66 60 106c0 42 -28 57 -104 86c-130 51 -228 103 -228 250c0 134 93 231 236 231c65 0 137 -28 186 -82l-37 -34c-35 38 -90 66 -148 66c-112 0 -183 -78 -183 -181c0 -114 80 -158 202 -205c83 -32 131 -59 131 -125c0 -55 -37 -100 -68 -136
z" />
    <glyph glyph-name="sigma" unicode="&#x3c3;" horiz-adv-x="582" 
d="M562 437h-142l-1 -2c60 -46 104 -113 104 -203c0 -133 -96 -237 -238 -237c-133 0 -237 96 -237 243c0 139 97 248 243 248h271v-49zM469 238c0 88 -49 158 -124 199h-54c-114 0 -189 -90 -189 -199c0 -118 82 -193 183 -193c111 0 184 84 184 193z" />
    <glyph glyph-name="tau" unicode="&#x3c4;" horiz-adv-x="454" 
d="M277 -5c-89 0 -113 48 -113 137v305h-150v49h406v-49h-203v-287c0 -67 7 -105 71 -105c42 0 77 17 101 31l13 -49c-31 -16 -74 -32 -125 -32z" />
    <glyph glyph-name="upsilon" unicode="&#x3c5;" horiz-adv-x="554" 
d="M277 -5c-121 0 -206 80 -206 234v257h53v-246c0 -141 71 -195 153 -195c89 0 153 54 153 195v246h53v-257c0 -154 -78 -234 -206 -234z" />
    <glyph glyph-name="phi" unicode="&#x3c6;" horiz-adv-x="690" 
d="M640 262c0 -151 -103 -264 -276 -265v-195h-52v195c-148 1 -261 94 -261 245c0 94 32 175 103 253l52 -17c-70 -75 -102 -154 -102 -232c0 -121 87 -197 208 -200v257c0 135 64 188 143 188c104 0 185 -94 185 -229zM364 46c144 2 222 93 222 215c0 90 -46 180 -128 180
c-60 0 -94 -48 -94 -144v-251z" />
    <glyph glyph-name="chi" unicode="&#x3c7;" horiz-adv-x="511" 
d="M493 -150l6 -45c-14 -5 -24 -8 -40 -8c-48 0 -76 32 -101 86l-103 217h-2l-170 -298h-59l204 353l-110 226c-19 38 -36 60 -67 60c-6 0 -12 -1 -20 -3l-6 45c13 5 26 8 40 8c49 0 76 -33 101 -86l92 -196h1l158 277h58l-191 -332l121 -247c19 -39 37 -61 66 -61
c8 0 15 2 22 4z" />
    <glyph glyph-name="psi" unicode="&#x3c8;" horiz-adv-x="703" 
d="M572 486h53v-257c0 -153 -96 -233 -252 -234v-193h-53v193c-150 1 -246 81 -246 234v257h53v-246c0 -139 85 -193 193 -194v585h53v-585c114 1 199 55 199 194v246z" />
    <glyph glyph-name="omega" unicode="&#x3c9;" horiz-adv-x="747" 
d="M593 496c71 -76 103 -158 103 -260c0 -143 -73 -241 -175 -241c-79 0 -125 41 -147 113h-2c-22 -72 -67 -113 -146 -113c-102 0 -176 98 -176 241c0 102 33 184 103 260l47 -16c-62 -71 -96 -154 -96 -240c0 -123 55 -195 127 -195c79 0 116 78 116 200v119h52v-119
c0 -122 39 -200 117 -200c72 0 127 72 127 195c0 86 -34 169 -97 240z" />
    <glyph glyph-name="iotatonos" unicode="&#x3af;" horiz-adv-x="255" 
d="M86 558l61 159h66l-69 -159h-58zM177 -5c-78 0 -92 56 -92 113v378h53v-361c0 -48 4 -80 50 -80c23 0 38 5 49 9l6 -47c-16 -5 -34 -12 -66 -12z" />
    <glyph glyph-name="iotadieresis" unicode="&#x3ca;" horiz-adv-x="255" 
d="M-5 589c-25 0 -44 19 -44 44s19 44 44 44s45 -19 45 -44s-20 -44 -45 -44zM226 590c-24 0 -44 19 -44 43c0 23 20 43 44 43c25 0 44 -19 44 -43s-19 -43 -44 -43zM177 -5c-78 0 -92 56 -92 113v378h53v-361c0 -48 4 -80 50 -80c23 0 38 5 49 9l6 -47
c-16 -5 -34 -12 -66 -12z" />
    <glyph glyph-name="iotadieresistonos" unicode="&#x390;" horiz-adv-x="255" 
d="M91 558l64 159h58l-73 -159h-49zM-1 589c-25 0 -44 19 -44 44s19 44 44 44c26 0 45 -19 45 -44s-19 -44 -45 -44zM260 590c-25 0 -44 19 -44 43c0 23 19 43 44 43c24 0 43 -19 43 -43s-19 -43 -43 -43zM177 -5c-78 0 -92 56 -92 113v378h53v-361c0 -48 4 -80 50 -80
c23 0 38 5 49 9l6 -47c-16 -5 -34 -12 -66 -12z" />
    <glyph glyph-name="upsilontonos" unicode="&#x3cd;" horiz-adv-x="554" 
d="M250 559l61 159h66l-69 -159h-58zM277 -5c-121 0 -206 80 -206 234v257h53v-246c0 -141 71 -195 153 -195c89 0 153 54 153 195v246h53v-257c0 -154 -78 -234 -206 -234z" />
    <glyph glyph-name="upsilondieresis" unicode="&#x3cb;" horiz-adv-x="554" 
d="M159 590c-25 0 -44 19 -44 44s19 44 44 44s45 -19 45 -44s-20 -44 -45 -44zM390 591c-24 0 -44 19 -44 43c0 23 20 43 44 43c25 0 44 -19 44 -43s-19 -43 -44 -43zM277 -5c-121 0 -206 80 -206 234v257h53v-246c0 -141 71 -195 153 -195c89 0 153 54 153 195v246h53v-257
c0 -154 -78 -234 -206 -234z" />
    <glyph glyph-name="upsilondieresistonos" unicode="&#x3b0;" horiz-adv-x="554" 
d="M256 558l64 159h58l-73 -159h-49zM164 589c-25 0 -44 19 -44 44s19 44 44 44c26 0 45 -19 45 -44s-19 -44 -45 -44zM425 590c-25 0 -44 19 -44 43c0 23 19 43 44 43c24 0 43 -19 43 -43s-19 -43 -43 -43zM277 -5c-121 0 -206 80 -206 234v257h53v-246
c0 -141 71 -195 153 -195c89 0 153 54 153 195v246h53v-257c0 -154 -78 -234 -206 -234z" />
    <glyph glyph-name="omicrontonos" unicode="&#x3cc;" horiz-adv-x="591" 
d="M263 559l61 159h66l-69 -159h-58zM290 -5c-146 0 -243 109 -243 247c0 139 97 248 243 248c137 0 241 -100 241 -248c0 -146 -104 -247 -241 -247zM290 45c106 0 187 80 187 197c0 118 -81 198 -187 198c-114 0 -189 -87 -189 -198c0 -110 75 -197 189 -197z" />
    <glyph glyph-name="omegatonos" unicode="&#x3ce;" horiz-adv-x="747" 
d="M478 718l-69 -159h-58l61 159h66zM593 496c71 -76 103 -158 103 -260c0 -143 -73 -241 -175 -241c-79 0 -125 41 -147 113h-2c-22 -72 -67 -113 -146 -113c-102 0 -176 98 -176 241c0 102 33 184 103 260l47 -16c-62 -71 -96 -154 -96 -240c0 -123 55 -195 127 -195
c79 0 116 78 116 200v119h52v-119c0 -122 39 -200 117 -200c72 0 127 72 127 195c0 86 -34 169 -97 240z" />
    <glyph glyph-name="alphatonos" unicode="&#x3ac;" horiz-adv-x="612" 
d="M392 718l-69 -159h-58l61 159h66zM593 53l6 -46c-16 -7 -34 -12 -59 -12c-56 0 -78 49 -79 103h-2c-40 -63 -106 -103 -186 -103c-128 0 -226 98 -226 244c0 140 93 252 232 252c80 0 151 -37 190 -109h3l6 104h52l-21 -231v-121c0 -48 5 -89 46 -89c14 0 28 4 38 8z
M277 45c95 0 175 77 185 191v11c-3 111 -71 194 -178 194c-102 0 -183 -81 -183 -202c0 -109 70 -194 176 -194z" />
    <glyph glyph-name="epsilontonos" unicode="&#x3ad;" horiz-adv-x="475" 
d="M348 718l-69 -159h-58l61 159h66zM415 88l25 -41c-67 -37 -133 -52 -205 -52c-109 0 -183 44 -183 134c0 54 30 102 91 124c-51 22 -77 64 -77 103c0 82 62 134 175 135c47 0 126 -11 196 -51l-21 -41c-63 30 -128 42 -168 42c-84 0 -128 -36 -128 -88
c0 -33 34 -79 117 -79h87v-49h-100c-88 0 -117 -54 -117 -91c0 -61 54 -89 139 -89c58 0 113 12 169 43z" />
    <glyph glyph-name="etatonos" unicode="&#x3ae;" horiz-adv-x="566" 
d="M387 718l-69 -159h-58l61 159h66zM323 490c104 0 171 -67 171 -200v-488h-53v471c0 122 -56 167 -131 167c-105 0 -176 -78 -176 -199v-241h-52v486h52v-94h2c42 62 110 98 187 98z" />
    <glyph glyph-name="uni03D7" unicode="&#x3d7;" horiz-adv-x="573" 
d="M295 277c45 -140 124 -211 245 -246v-25c-112 -152 -207 -222 -343 -222c-72 0 -140 21 -186 48l10 50c48 -32 112 -50 171 -50c103 0 189 51 277 164v3c-109 44 -176 126 -212 237h-2l-121 -127v-109h-53v486h53v-303h2l290 303h68l-199 -208v-1z" />
    <glyph glyph-name="gamma.alt" horiz-adv-x="532" 
d="M486 486c-20 -207 -114 -366 -213 -504c11 -64 16 -123 20 -180h-51c-10 112 -22 202 -61 348c-49 180 -90 291 -149 291c-6 0 -12 -1 -21 -3l-5 45c12 4 26 8 39 8c69 0 114 -83 163 -256c18 -56 36 -125 49 -183h2c75 110 160 265 170 434h57z" />
    <glyph glyph-name="eta.alt" horiz-adv-x="599" 
d="M348 491c110 0 178 -76 178 -211v-478h-52v461c0 125 -57 178 -138 178c-99 0 -169 -88 -169 -213v-228h-53v362c0 48 -10 79 -46 79c-6 0 -13 -1 -22 -3l-5 45c14 5 26 8 42 8c52 0 82 -43 84 -100h1c42 64 108 100 180 100z" />
    <glyph glyph-name="uni03BC.alt" horiz-adv-x="584" 
d="M566 54l6 -47c-14 -7 -32 -12 -57 -12c-58 0 -81 51 -84 104h-2c-36 -66 -95 -104 -163 -104c-65 0 -109 27 -136 75h-2c3 -37 4 -74 4 -111v-157h-53v684h53v-262c0 -123 52 -179 139 -179s158 87 158 209v232h53v-354c0 -49 6 -87 46 -87c15 0 29 4 38 9z" />
    <glyph glyph-name="nu.alt" horiz-adv-x="516" 
d="M421 486h58c-4 -204 -98 -364 -202 -486h-51l-197 486h58l168 -428h2c88 107 169 257 164 428z" />
    <glyph glyph-name="xi.alt" horiz-adv-x="469" 
d="M449 689c-160 -20 -289 -61 -289 -160c0 -76 66 -115 158 -115h82v-49h-106c-119 0 -190 -52 -190 -143c0 -90 69 -122 167 -156c121 -42 171 -62 170 -133c0 -44 -35 -102 -67 -139l-47 24c26 31 60 78 60 110c1 43 -30 54 -142 93c-104 37 -195 81 -195 204
c0 86 53 145 138 170v2c-51 27 -83 71 -82 129c2 86 70 134 144 159v3h-167v48h366v-47z" />
    <glyph glyph-name="pi.alt" horiz-adv-x="614" 
d="M587 437h-106v-315c0 -45 5 -77 54 -77c21 0 34 5 44 8l5 -47c-17 -6 -35 -11 -65 -11c-75 0 -90 54 -90 111v331h-260v-437h-53v437h-91v44l96 5h466v-49z" />
    <glyph glyph-name="upsilon.alt" horiz-adv-x="543" 
d="M272 -5c-122 0 -205 77 -205 237v254h53v-243c0 -147 69 -198 153 -198c89 0 165 81 165 229c0 66 -10 137 -35 209l53 11c27 -82 36 -148 36 -220c0 -180 -94 -279 -220 -279z" />
    <glyph glyph-name="psi.alt" horiz-adv-x="679" 
d="M633 272c0 -186 -97 -276 -261 -277v-193h-53v193c-157 2 -253 82 -253 234v257h53v-246c0 -138 86 -192 200 -194v585l53 4v-589c122 1 207 64 207 227c0 76 -14 145 -37 210l52 11c28 -80 39 -141 39 -222z" />
    <glyph glyph-name="upsilontonos.alt" horiz-adv-x="543" 
d="M249 560l61 159h66l-69 -159h-58zM272 -5c-122 0 -205 77 -205 237v254h53v-243c0 -147 69 -198 153 -198c89 0 165 81 165 229c0 66 -10 137 -35 209l53 11c27 -82 36 -148 36 -220c0 -180 -94 -279 -220 -279z" />
    <glyph glyph-name="upsilondieresis.alt" horiz-adv-x="543" 
d="M158 591c-25 0 -44 19 -44 44s19 44 44 44s45 -19 45 -44s-20 -44 -45 -44zM389 592c-24 0 -44 19 -44 43c0 23 20 43 44 43c25 0 44 -19 44 -43s-19 -43 -44 -43zM272 -5c-122 0 -205 77 -205 237v254h53v-243c0 -147 69 -198 153 -198c89 0 165 81 165 229
c0 66 -10 137 -35 209l53 11c27 -82 36 -148 36 -220c0 -180 -94 -279 -220 -279z" />
    <glyph glyph-name="upsilondieresistonos.alt" horiz-adv-x="543" 
d="M234 560l64 159h58l-73 -159h-49zM142 591c-25 0 -44 19 -44 44s19 44 44 44c26 0 45 -19 45 -44s-19 -44 -45 -44zM403 592c-25 0 -44 19 -44 43c0 23 19 43 44 43c24 0 43 -19 43 -43s-19 -43 -43 -43zM272 -5c-122 0 -205 77 -205 237v254h53v-243
c0 -147 69 -198 153 -198c89 0 165 81 165 229c0 66 -10 137 -35 209l53 11c27 -82 36 -148 36 -220c0 -180 -94 -279 -220 -279z" />
    <glyph glyph-name="etatonos.alt" horiz-adv-x="599" 
d="M420 719l-69 -159h-58l61 159h66zM348 491c110 0 178 -76 178 -211v-478h-52v461c0 125 -57 178 -138 178c-99 0 -169 -88 -169 -213v-228h-53v362c0 48 -10 79 -46 79c-6 0 -13 -1 -22 -3l-5 45c14 5 26 8 42 8c52 0 82 -43 84 -100h1c42 64 108 100 180 100z" />
    <glyph glyph-name="zero" unicode="0" horiz-adv-x="623" 
d="M311 -5c-144 0 -252 122 -252 348c0 200 90 348 252 348c144 0 252 -121 252 -348c0 -198 -89 -348 -252 -348zM312 47c127 0 196 121 196 296c0 196 -83 297 -196 297c-127 0 -198 -121 -198 -297c0 -194 85 -296 198 -296z" />
    <glyph glyph-name="one" unicode="1" horiz-adv-x="352" 
d="M202 0v621l-150 -113l-27 41l184 138h46v-687h-53z" />
    <glyph glyph-name="two" unicode="2" horiz-adv-x="507" 
d="M126 51h334v-51h-422l-1 41l247 247c59 61 112 122 112 198c0 88 -62 154 -151 154c-74 0 -130 -37 -162 -106l-43 27c37 78 105 130 208 130c106 0 203 -74 203 -200c0 -78 -36 -148 -119 -231l-206 -208v-1z" />
    <glyph glyph-name="three" unicode="3" horiz-adv-x="523" 
d="M350 358c75 -28 122 -93 122 -176c0 -110 -93 -187 -217 -187c-113 0 -193 50 -228 128l48 21c28 -59 87 -97 178 -97c92 0 164 57 164 144c0 76 -57 142 -172 142h-61v51h71c102 0 146 59 146 125c0 80 -66 131 -152 131c-78 0 -124 -32 -155 -73l-45 23
c37 59 103 101 200 101c115 0 206 -64 206 -177c0 -69 -37 -128 -105 -155v-1z" />
    <glyph glyph-name="four" unicode="4" horiz-adv-x="556" 
d="M364 0v126h-335v45l341 516h47v-510h107v-51h-107v-126h-53zM96 177h268v405z" />
    <glyph glyph-name="five" unicode="5" horiz-adv-x="547" 
d="M273 433c125 0 227 -79 227 -219c0 -130 -105 -219 -235 -219c-96 0 -181 47 -223 118l42 30c34 -58 99 -96 178 -96c102 0 183 71 183 167c0 108 -84 167 -183 167c-50 0 -100 -11 -132 -39l-35 6l19 339h356v-51h-306l-13 -229c38 18 83 26 122 26z" />
    <glyph glyph-name="six" unicode="6" horiz-adv-x="577" 
d="M313 429c126 0 214 -82 214 -216c0 -122 -95 -218 -232 -218c-136 0 -238 105 -238 261c0 260 180 425 341 454l17 -46c-125 -30 -262 -137 -295 -323v-1c43 53 112 89 193 89zM294 47c108 0 178 76 178 167c0 99 -66 163 -169 163c-96 0 -160 -60 -191 -122v-3
c0 -122 77 -205 182 -205z" />
    <glyph glyph-name="seven" unicode="7" horiz-adv-x="492" 
d="M31 687h424v-41l-291 -656l-57 12l285 634h-361v51z" />
    <glyph glyph-name="eight" unicode="8" horiz-adv-x="573" 
d="M387 371c79 -23 136 -90 136 -183c0 -116 -106 -192 -238 -192c-141 0 -237 85 -237 192c0 93 56 160 135 183v2c-48 15 -102 69 -102 147c0 106 87 171 204 171c125 0 205 -72 205 -171c0 -78 -54 -132 -103 -147v-2zM136 516c0 -74 66 -120 149 -120
c85 0 151 46 151 120s-64 124 -151 124c-91 0 -149 -55 -149 -124zM285 47c111 0 182 67 182 146c0 91 -76 151 -182 151c-105 0 -182 -60 -182 -151c0 -86 80 -146 182 -146z" />
    <glyph glyph-name="nine" unicode="9" horiz-adv-x="579" 
d="M285 691c134 0 238 -104 237 -268c-1 -261 -197 -419 -353 -447l-17 51c125 28 273 128 307 316l-1 1c-44 -52 -114 -87 -200 -87c-120 0 -209 82 -209 210c0 125 98 224 236 224zM268 310c79 0 159 42 199 119c0 130 -77 211 -181 211c-111 0 -182 -78 -182 -172
s67 -158 164 -158z" />
    <glyph glyph-name="fraction" unicode="&#x2044;" horiz-adv-x="238" 
d="M-6 -13l-47 17l308 714l47 -18z" />
    <glyph glyph-name="onehalf" unicode="&#xbd;" horiz-adv-x="798" 
d="M494 718l47 -18l-308 -713l-47 17zM20 625l124 85h40v-411h-51v346l-88 -60zM568 47h195v-47h-277v37l152 141c42 38 69 73 69 114c0 40 -36 75 -86 75c-34 0 -75 -17 -95 -57l-40 28c25 46 77 78 138 78c69 0 133 -48 133 -128c0 -40 -21 -84 -76 -136l-113 -103v-2z
" />
    <glyph glyph-name="onequarter" unicode="&#xbc;" horiz-adv-x="768" 
d="M233 -13l-47 17l308 714l47 -18zM133 299v346l-88 -60l-25 40l124 85h40v-411h-51zM627 0v71h-200v36l210 305h41v-293h64v-48h-64v-71h-51zM494 119h133v194z" />
    <glyph glyph-name="threequarters" unicode="&#xbe;" horiz-adv-x="845" 
d="M572 718l47 -18l-308 -713l-47 17zM314 409c0 -68 -57 -115 -142 -115c-75 0 -129 35 -150 83l46 21c16 -35 49 -56 101 -56c57 0 94 28 94 75c0 38 -37 71 -100 71h-37v46h43c52 0 82 30 82 64c0 42 -33 69 -84 69c-43 0 -70 -16 -87 -44l-43 26c22 39 67 66 130 66
c75 0 135 -39 135 -109c0 -41 -20 -75 -60 -93v-2c44 -18 72 -54 72 -102zM755 119h64v-48h-64v-71h-51v71h-200v36l210 305h41v-293zM704 119v194l-133 -194h133z" />
    <glyph glyph-name="uni2070" unicode="&#x2070;" horiz-adv-x="398" 
d="M199 432c-100 0 -168 78 -168 212c0 126 64 210 168 210c100 0 169 -77 169 -210c0 -127 -64 -212 -169 -212zM200 480c74 0 117 63 117 163c0 107 -49 163 -117 163c-75 0 -118 -63 -118 -163c0 -106 48 -163 118 -163z" />
    <glyph glyph-name="uni00B9" unicode="&#xb9;" horiz-adv-x="251" 
d="M133 436v346l-88 -60l-25 40l124 85h40v-411h-51z" />
    <glyph glyph-name="uni00B2" unicode="&#xb2;" horiz-adv-x="339" 
d="M109 483h195v-47h-277v37l152 141c42 38 69 73 69 114c0 40 -36 75 -86 75c-34 0 -75 -17 -95 -57l-40 28c25 46 77 78 138 78c69 0 133 -48 133 -128c0 -40 -21 -84 -76 -136l-113 -103v-2z" />
    <glyph glyph-name="uni00B3" unicode="&#xb3;" horiz-adv-x="344" 
d="M242 648c44 -18 72 -54 72 -102c0 -68 -57 -115 -142 -115c-75 0 -129 35 -150 83l46 21c16 -35 49 -56 101 -56c57 0 94 28 94 75c0 38 -37 71 -100 71h-37v46h43c52 0 82 30 82 64c0 42 -33 69 -84 69c-43 0 -70 -16 -87 -44l-43 26c22 39 67 66 130 66
c75 0 135 -39 135 -109c0 -41 -20 -75 -60 -93v-2z" />
    <glyph glyph-name="asterisk" unicode="*" horiz-adv-x="413" 
d="M187 398l3 128l-108 -68l-20 37l112 59l-113 60l21 36l108 -67l-3 127h40l-4 -127l108 67l20 -36l-113 -60l114 -59l-21 -36l-108 67l4 -128h-40z" />
    <glyph glyph-name="backslash" unicode="\" horiz-adv-x="407" 
d="M379 -113l-386 851l46 23l386 -852z" />
    <glyph glyph-name="periodcentered" unicode="&#xb7;" horiz-adv-x="216" 
d="M107 197c-25 0 -45 19 -45 44s20 44 45 44s45 -19 45 -44s-20 -44 -45 -44z" />
    <glyph glyph-name="bullet" unicode="&#x2022;" horiz-adv-x="404" 
d="M202 222c-53 0 -95 41 -95 94c0 52 42 94 95 94c52 0 95 -42 95 -94c0 -53 -43 -94 -95 -94z" />
    <glyph glyph-name="colon" unicode=":" horiz-adv-x="219" 
d="M106 402c-25 0 -45 19 -45 44s20 44 45 44s45 -19 45 -44s-20 -44 -45 -44zM106 -5c-25 0 -45 19 -45 44s20 44 45 44s45 -19 45 -44s-20 -44 -45 -44z" />
    <glyph glyph-name="comma" unicode="," horiz-adv-x="198" 
d="M36 -129l34 230h62l-55 -230h-41z" />
    <glyph glyph-name="ellipsis" unicode="&#x2026;" horiz-adv-x="1000" 
d="M166 -5c-25 0 -45 19 -45 44s20 44 45 44s45 -19 45 -44s-20 -44 -45 -44zM500 -5c-25 0 -45 19 -45 44s20 44 45 44s45 -19 45 -44s-20 -44 -45 -44zM833 -5c-25 0 -45 19 -45 44s20 44 45 44s45 -19 45 -44s-20 -44 -45 -44z" />
    <glyph glyph-name="exclam" unicode="!" horiz-adv-x="226" 
d="M92 195l-9 541h64l-10 -541h-45zM112 -5c-25 0 -45 19 -45 44s20 44 45 44s45 -19 45 -44s-20 -44 -45 -44z" />
    <glyph glyph-name="exclamdown" unicode="&#xa1;" horiz-adv-x="226" 
d="M112 490c25 0 45 -19 45 -44s-20 -44 -45 -44s-45 19 -45 44s20 44 45 44zM92 290h45l10 -541h-64z" />
    <glyph glyph-name="numbersign" unicode="#" horiz-adv-x="627" 
d="M138 -30l33 214h-126v43h132l27 173h-138v43h144l33 213h44l-33 -213h175l32 213h44l-33 -213h127v-43h-134l-26 -173h139v-43h-145l-33 -214h-43l33 214h-175l-33 -214h-44zM220 227h176l25 173h-174z" />
    <glyph glyph-name="period" unicode="." horiz-adv-x="225" 
d="M112 -5c-25 0 -45 19 -45 44s20 44 45 44s45 -19 45 -44s-20 -44 -45 -44z" />
    <glyph glyph-name="question" unicode="?" horiz-adv-x="441" 
d="M169 195l-1 55c0 61 45 98 94 154c40 47 80 83 80 153c0 86 -60 131 -135 131c-52 0 -106 -26 -139 -75l-41 35c44 61 109 93 183 93c104 0 189 -69 189 -182c0 -85 -44 -136 -92 -185c-42 -44 -89 -82 -90 -141l-1 -38h-47zM195 -5c-25 0 -45 19 -45 44s20 44 45 44
s45 -19 45 -44s-20 -44 -45 -44z" />
    <glyph glyph-name="questiondown" unicode="&#xbf;" horiz-adv-x="415" 
d="M246 490c25 0 45 -19 45 -44s-20 -44 -45 -44s-45 19 -45 44s20 44 45 44zM272 290l1 -55c0 -61 -45 -98 -94 -154c-40 -47 -80 -83 -80 -153c0 -86 60 -131 135 -131c52 0 106 26 139 75l41 -35c-44 -61 -109 -93 -183 -93c-104 0 -189 69 -189 182c0 85 44 136 92 185
c42 44 89 82 90 141l1 38h47z" />
    <glyph glyph-name="quotedbl" unicode="&#x22;" horiz-adv-x="300" 
d="M42 480l35 230h62l-49 -230h-48zM159 480l33 230h63l-48 -230h-48z" />
    <glyph glyph-name="quotesingle" unicode="'" horiz-adv-x="184" 
d="M42 480l35 230h62l-49 -230h-48z" />
    <glyph glyph-name="semicolon" unicode=";" horiz-adv-x="212" 
d="M105 402c-25 0 -45 19 -45 44s20 44 45 44s45 -19 45 -44s-20 -44 -45 -44zM38 -129l34 230h62l-55 -230h-41z" />
    <glyph glyph-name="slash" unicode="/" horiz-adv-x="400" 
d="M21 -113l-46 22l386 852l46 -23z" />
    <glyph glyph-name="underscore" unicode="_" horiz-adv-x="523" 
d="M-2 -73v45h527v-45h-527z" />
    <glyph glyph-name="bullet.case" horiz-adv-x="425" 
d="M202 239c-53 0 -95 41 -95 94c0 52 42 94 95 94c52 0 95 -42 95 -94c0 -53 -43 -94 -95 -94z" />
    <glyph glyph-name="exclamdown.case" horiz-adv-x="226" 
d="M112 532c25 0 45 -19 45 -44s-20 -44 -45 -44s-45 19 -45 44s20 44 45 44zM92 332h45l10 -541h-64z" />
    <glyph glyph-name="questiondown.case" horiz-adv-x="441" 
d="M246 531c25 0 45 -19 45 -44s-20 -44 -45 -44s-45 19 -45 44s20 44 45 44zM272 331l1 -55c0 -61 -45 -98 -94 -154c-40 -47 -80 -83 -80 -153c0 -86 60 -131 135 -131c52 0 106 26 139 75l41 -35c-44 -61 -109 -93 -183 -93c-104 0 -189 69 -189 182c0 85 44 136 92 185
c42 44 89 82 90 141l1 38h47z" />
    <glyph glyph-name="braceleft" unicode="{" horiz-adv-x="327" 
d="M176 383c0 -54 -11 -84 -60 -95c49 -12 60 -37 60 -97v-210c0 -59 20 -82 68 -82h27v-41h-42c-57 0 -102 37 -102 101v230c0 37 -2 70 -77 75v46c75 6 77 41 77 76v239c0 56 38 102 102 102h42v-42h-27c-42 0 -68 -30 -68 -69v-233z" />
    <glyph glyph-name="braceright" unicode="}" horiz-adv-x="327" 
d="M200 386c0 -35 2 -70 77 -76v-46c-75 -5 -77 -38 -77 -75v-230c0 -64 -45 -101 -102 -101h-42v41h27c48 0 68 23 68 82v210c0 60 11 85 60 97c-49 11 -60 41 -60 95v233c0 39 -26 69 -68 69h-27v42h42c64 0 102 -46 102 -102v-239z" />
    <glyph glyph-name="bracketleft" unicode="[" horiz-adv-x="292" 
d="M71 -143v870h172v-45h-122v-780h122v-45h-172z" />
    <glyph glyph-name="bracketright" unicode="]" horiz-adv-x="292" 
d="M221 -143h-172v45h122v780h-122v45h172v-870z" />
    <glyph glyph-name="parenleft" unicode="(" horiz-adv-x="269" 
d="M173 -143c-63 121 -107 264 -107 440c0 168 44 326 112 440l43 -21c-63 -113 -102 -261 -102 -419c0 -166 40 -299 99 -420z" />
    <glyph glyph-name="parenright" unicode=")" horiz-adv-x="287" 
d="M114 -143l-45 20c59 121 99 254 99 420c0 158 -39 306 -102 419l43 21c68 -114 112 -272 112 -440c0 -176 -44 -319 -107 -440z" />
    <glyph glyph-name="braceleft.case" horiz-adv-x="284" 
d="M176 429c0 -54 -11 -84 -60 -95c49 -12 60 -37 60 -97v-210c0 -59 20 -82 68 -82h27v-41h-42c-57 0 -102 37 -102 101v230c0 37 -2 70 -77 75v46c75 6 77 41 77 76v239c0 56 38 102 102 102h42v-42h-27c-42 0 -68 -30 -68 -69v-233z" />
    <glyph glyph-name="braceright.case" horiz-adv-x="284" 
d="M157 432c0 -35 2 -70 77 -76v-46c-75 -5 -77 -38 -77 -75v-230c0 -64 -45 -101 -102 -101h-42v41h27c48 0 68 23 68 82v210c0 60 11 85 60 97c-49 11 -60 41 -60 95v233c0 39 -26 69 -68 69h-27v42h42c64 0 102 -46 102 -102v-239z" />
    <glyph glyph-name="bracketleft.case" horiz-adv-x="248" 
d="M71 -99v870h172v-45h-122v-780h122v-45h-172z" />
    <glyph glyph-name="bracketright.case" horiz-adv-x="272" 
d="M201 -98h-172v45h122v780h-122v45h172v-870z" />
    <glyph glyph-name="parenleft.case" horiz-adv-x="241" 
d="M173 -98c-63 121 -107 264 -107 440c0 168 44 326 112 440l43 -21c-63 -113 -102 -261 -102 -419c0 -166 40 -299 99 -420z" />
    <glyph glyph-name="parenright.case" horiz-adv-x="260" 
d="M88 -98l-45 20c59 121 99 254 99 420c0 158 -39 306 -102 419l43 21c68 -114 112 -272 112 -440c0 -176 -44 -319 -107 -440z" />
    <glyph glyph-name="emdash" unicode="&#x2014;" horiz-adv-x="1056" 
d="M61 271v51h934v-51h-934z" />
    <glyph glyph-name="endash" unicode="&#x2013;" horiz-adv-x="589" 
d="M61 271v51h467v-51h-467z" />
    <glyph glyph-name="uni2015" unicode="&#x2015;" horiz-adv-x="1202" 
d="M61 271v51h1080v-51h-1080z" />
    <glyph glyph-name="hyphen" unicode="-" horiz-adv-x="415" 
d="M61 282v54h293v-54h-293z" />
    <glyph glyph-name="emdash.case" horiz-adv-x="1036" 
d="M51 300v51h934v-51h-934z" />
    <glyph glyph-name="endash.case" horiz-adv-x="569" 
d="M51 300v51h467v-51h-467z" />
    <glyph glyph-name="uni2015.case" horiz-adv-x="1182" 
d="M51 300v51h1080v-51h-1080z" />
    <glyph glyph-name="hyphen.case" horiz-adv-x="383" 
d="M51 306v54h281v-54h-281z" />
    <glyph glyph-name="guillemotleft" unicode="&#xab;" horiz-adv-x="435" 
d="M227 20h-56l-128 225l128 224h57l-127 -224zM386 20h-56l-128 225l128 224h57l-127 -224z" />
    <glyph glyph-name="guillemotright" unicode="&#xbb;" horiz-adv-x="435" 
d="M49 20l126 225l-127 224h57l128 -224l-128 -225h-56zM208 20l126 225l-127 224h57l128 -224l-128 -225h-56z" />
    <glyph glyph-name="guilsinglleft" unicode="&#x2039;" horiz-adv-x="280" 
d="M240 20h-56l-128 225l128 224h57l-127 -224z" />
    <glyph glyph-name="guilsinglright" unicode="&#x203a;" horiz-adv-x="276" 
d="M49 20l126 225l-127 224h57l128 -224l-128 -225h-56z" />
    <glyph glyph-name="quotedblbase" unicode="&#x201e;" horiz-adv-x="314" 
d="M35 -75l35 230h62l-49 -230h-48zM152 -75l33 230h63l-48 -230h-48z" />
    <glyph glyph-name="quotedblleft" unicode="&#x201c;" horiz-adv-x="300" 
d="M141 710l-33 -230h-63l48 230h48zM258 710l-35 -230h-62l49 230h48z" />
    <glyph glyph-name="quotedblright" unicode="&#x201d;" horiz-adv-x="300" 
d="M42 480l35 230h62l-49 -230h-48zM159 480l33 230h63l-48 -230h-48z" />
    <glyph glyph-name="quoteleft" unicode="&#x2018;" horiz-adv-x="184" 
d="M142 709l-35 -230h-62l49 230h48z" />
    <glyph glyph-name="quoteright" unicode="&#x2019;" horiz-adv-x="184" 
d="M42 480l35 230h62l-49 -230h-48z" />
    <glyph glyph-name="quotesinglbase" unicode="&#x201a;" horiz-adv-x="198" 
d="M36 -129l34 230h62l-55 -230h-41z" />
    <glyph glyph-name="guillemotleft.case" horiz-adv-x="435" 
d="M227 65h-56l-128 225l128 224h57l-127 -224zM386 65h-56l-128 225l128 224h57l-127 -224z" />
    <glyph glyph-name="guillemotright.case" horiz-adv-x="435" 
d="M49 64l126 225l-127 224h57l128 -224l-128 -225h-56zM208 64l126 225l-127 224h57l128 -224l-128 -225h-56z" />
    <glyph glyph-name="anoteleia" unicode="&#x387;" horiz-adv-x="226" 
d="M112 402c-25 0 -45 19 -45 44s20 44 45 44s45 -19 45 -44s-20 -44 -45 -44z" />
    <glyph glyph-name="uni037E" unicode="&#x37e;" horiz-adv-x="212" 
d="M105 402c-25 0 -45 19 -45 44s20 44 45 44s45 -19 45 -44s-20 -44 -45 -44zM38 -129l34 230h62l-55 -230h-41z" />
    <glyph glyph-name="uni2003" unicode="&#x2003;" horiz-adv-x="934" 
 />
    <glyph glyph-name="uni2002" unicode="&#x2002;" horiz-adv-x="467" 
 />
    <glyph glyph-name="space" unicode=" " horiz-adv-x="282" 
 />
    <glyph glyph-name="uni2009" unicode="&#x2009;" horiz-adv-x="32" 
 />
    <glyph glyph-name="CR" horiz-adv-x="249" 
 />
    <glyph glyph-name="cent" unicode="&#xa2;" horiz-adv-x="540" 
d="M497 128c-38 -41 -101 -72 -173 -78v-108h-44v108c-132 9 -223 106 -223 246c0 139 91 238 223 247v116h44v-116c64 -5 128 -32 171 -80l-37 -34c-34 39 -89 66 -154 66c-115 0 -193 -82 -193 -199c0 -118 78 -197 192 -197c63 0 122 25 157 64z" />
    <glyph glyph-name="currency" unicode="&#xa4;" horiz-adv-x="501" 
d="M431 385c0 -44 -15 -84 -41 -115l78 -77l-28 -28l-78 77c-32 -24 -72 -39 -115 -39s-82 15 -114 40l-77 -77l-29 28l78 77c-25 31 -40 71 -40 114c0 44 15 83 40 115l-78 77l29 28l77 -77c32 25 71 41 115 41c43 0 83 -15 115 -40l77 77l28 -28l-77 -77
c25 -32 40 -72 40 -116zM248 246c77 0 140 63 141 140c-1 77 -64 140 -141 140c-77 -1 -140 -63 -141 -140c1 -77 64 -140 141 -140z" />
    <glyph glyph-name="dollar" unicode="$" horiz-adv-x="563" 
d="M513 174c0 -99 -71 -170 -197 -176v-128h-46v129c-75 7 -148 39 -207 96l36 42c56 -55 130 -86 202 -86c86 0 153 43 153 119c0 89 -72 115 -170 146c-108 36 -207 67 -207 183c0 93 68 166 193 167v131h46v-135c60 -9 126 -36 170 -69l-34 -42c-51 38 -125 61 -177 61
c-80 0 -140 -39 -140 -110c0 -78 75 -103 165 -132c117 -38 213 -71 213 -196z" />
    <glyph glyph-name="dong" unicode="&#x20ab;" horiz-adv-x="612" 
d="M524 624h74v-48h-74v-576h-51v92h-2c-38 -60 -101 -97 -184 -97c-131 0 -238 96 -238 244c0 141 97 252 236 252c77 0 144 -37 185 -101h2v186h-133v48h133v112h52v-112zM291 45c98 0 182 78 182 193c0 113 -76 202 -182 202c-103 0 -188 -79 -188 -202
c0 -109 76 -193 188 -193zM60 -136v53h465v-53h-465z" />
    <glyph glyph-name="Euro" unicode="&#x20ac;" horiz-adv-x="595" 
d="M532 98l31 -43c-50 -35 -112 -59 -192 -59c-128 0 -259 87 -293 252h-65v47h58c-1 13 -2 26 -2 40s1 27 2 40h-58v48h65c31 146 140 253 293 253c67 0 130 -17 188 -58l-33 -42c-47 33 -98 49 -155 49c-116 0 -204 -84 -234 -202h303v-48h-311c-1 -13 -2 -26 -2 -40
s1 -27 2 -40h311v-47h-303c32 -129 133 -200 234 -200c67 0 118 18 161 50z" />
    <glyph glyph-name="florin" unicode="&#x192;" horiz-adv-x="532" 
d="M99 -109c-54 0 -96 17 -121 40l23 39c26 -20 57 -29 91 -29c53 0 91 27 102 111l49 367h-78l7 48h78l17 124c14 107 65 150 145 150c52 0 94 -17 121 -40l-24 -40c-26 21 -57 30 -92 30c-50 0 -89 -25 -100 -111l-14 -113h158l-6 -48h-159l-50 -377
c-14 -107 -65 -151 -147 -151z" />
    <glyph glyph-name="uni20BA" unicode="&#x20ba;" horiz-adv-x="521" 
d="M448 189l48 -20c-47 -127 -135 -169 -244 -169h-167v238l-64 -31l-17 38l81 40v76l-64 -32l-17 39l81 40v287h58v-258l156 77l18 -39l-174 -86v-75l156 77l18 -39l-174 -85v-218h103c113 0 169 46 202 140z" />
    <glyph glyph-name="sterling" unicode="&#xa3;" horiz-adv-x="561" 
d="M48 0v53h86v301h-67v47h67v67c0 158 91 221 192 221c77 0 139 -36 178 -98l-32 -36c-33 53 -82 80 -141 80c-83 0 -142 -51 -142 -177v-57h179v-47h-178v-301h343v-53h-485z" />
    <glyph glyph-name="yen" unicode="&#xa5;" horiz-adv-x="542" 
d="M526 687l-164 -283h114v-48h-141l-35 -60v-9h176v-48h-176v-239h-56v239h-181v48h181v9l-35 60h-146v48h118l-164 283h66l187 -332h2l189 332h65z" />
    <glyph glyph-name="uni2126" unicode="&#x2126;" horiz-adv-x="785" 
d="M550 55v-1h163v-54h-260v54c127 65 211 170 211 312c0 173 -106 293 -271 294c-166 0 -271 -121 -271 -294c0 -142 83 -247 211 -312v-54h-260v54h162v1c-107 62 -173 178 -173 311c0 206 129 349 331 349c201 0 330 -143 330 -349c0 -133 -66 -249 -173 -311z" />
    <glyph glyph-name="approxequal" unicode="&#x2248;" horiz-adv-x="593" 
d="M409 330c-72 0 -132 49 -208 49c-55 0 -101 -25 -120 -40l-17 42c17 15 70 50 135 50c87 0 133 -48 207 -48c47 0 79 24 105 47l17 -41c-26 -28 -63 -59 -119 -59zM409 114c-72 0 -132 49 -208 49c-55 0 -101 -25 -120 -40l-17 41c17 15 70 51 135 51
c87 0 133 -49 207 -49c47 0 79 25 105 48l17 -42c-26 -28 -63 -58 -119 -58z" />
    <glyph glyph-name="asciitilde" unicode="~" horiz-adv-x="557" 
d="M378 219c-42 0 -77 20 -111 37c-27 14 -53 24 -79 24c-36 0 -63 -21 -81 -56l-41 16c23 58 60 94 116 94c42 0 72 -15 102 -29c29 -14 57 -31 90 -31c30 0 60 19 75 56l42 -15c-22 -61 -66 -96 -113 -96z" />
    <glyph glyph-name="divide" unicode="&#xf7;" 
d="M293 423c-26 0 -46 19 -46 45c0 25 20 45 46 45s45 -20 45 -45c0 -26 -19 -45 -45 -45zM67 250v53h465v-53h-465zM293 32c-26 0 -46 19 -46 45c0 25 20 45 46 45s45 -20 45 -45c0 -26 -19 -45 -45 -45z" />
    <glyph glyph-name="emptyset" unicode="&#x2205;" horiz-adv-x="693" 
d="M569 512c44 -53 71 -121 71 -194c0 -160 -129 -296 -294 -296c-75 0 -142 28 -193 74l-43 -43l-27 27l43 43c-46 52 -73 121 -73 195c0 160 129 296 294 296c76 0 144 -28 195 -75l37 37l27 -27zM98 317c0 -62 22 -119 60 -162l352 352c-43 38 -100 61 -163 61
c-140 0 -249 -114 -249 -251zM346 68c139 0 248 114 248 250c0 61 -22 118 -58 161l-352 -352c43 -37 100 -59 162 -59z" />
    <glyph glyph-name="equal" unicode="=" horiz-adv-x="579" 
d="M64 362v53h465v-53h-465zM64 138v53h465v-53h-465z" />
    <glyph glyph-name="greater" unicode="&#x3e;" horiz-adv-x="570" 
d="M72 52v58l361 170l-361 170v59l441 -209v-41z" />
    <glyph glyph-name="greaterequal" unicode="&#x2265;" horiz-adv-x="578" 
d="M74 141v58l361 170l-361 170v59l441 -209v-41zM72 0v53h445v-53h-445z" />
    <glyph glyph-name="uni2206" unicode="&#x2206;" horiz-adv-x="650" 
d="M354 710l261 -664v-46h-46h-526h-8v46l258 664h61zM101 54h447l-222 585h-2z" />
    <glyph glyph-name="infinity" unicode="&#x221e;" horiz-adv-x="783" 
d="M563 430c85 0 157 -66 157 -157c0 -88 -70 -156 -157 -156c-71 0 -128 45 -172 110c-44 -65 -101 -110 -172 -110c-87 0 -157 68 -157 156c0 91 72 157 157 157c58 0 117 -29 172 -111c55 82 114 111 172 111zM222 165c40 0 90 30 140 108c-39 58 -83 107 -140 107
s-105 -46 -105 -107c0 -60 48 -108 105 -108zM560 165c57 0 105 48 105 108c0 61 -48 107 -105 107c-58 0 -101 -49 -140 -107c50 -78 100 -108 140 -108z" />
    <glyph glyph-name="integral" unicode="&#x222b;" horiz-adv-x="324" 
d="M-28 -168l5 43h8c65 0 69 23 83 109l87 579c12 79 38 120 82 127c30 4 51 0 71 1l-4 -41h-16c-66 0 -69 -17 -83 -109l-88 -582c-12 -76 -37 -116 -81 -125c-20 -3 -39 -3 -64 -2z" />
    <glyph glyph-name="less" unicode="&#x3c;" horiz-adv-x="571" 
d="M499 52l-441 207v41l441 209v-59l-361 -170l361 -170v-58z" />
    <glyph glyph-name="lessequal" unicode="&#x2264;" horiz-adv-x="578" 
d="M504 141l-441 207v41l441 209v-59l-361 -170l361 -170v-58zM506 0h-445v53h445v-53z" />
    <glyph glyph-name="logicalnot" unicode="&#xac;" horiz-adv-x="567" 
d="M453 173v157h-390v51h441v-208h-51z" />
    <glyph glyph-name="uni00B5" unicode="&#xb5;" horiz-adv-x="564" 
d="M433 486h53v-486h-48l-4 100h-2c-36 -66 -96 -105 -163 -105c-66 0 -111 27 -138 74l-2 -1c2 -36 3 -73 3 -109v-157h-53v684h53v-262c0 -123 56 -179 145 -179c86 0 156 78 156 200v241z" />
    <glyph glyph-name="minus" unicode="&#x2212;" horiz-adv-x="590" 
d="M63 250v53h465v-53h-465z" />
    <glyph glyph-name="multiply" unicode="&#xd7;" horiz-adv-x="503" 
d="M96 85l-36 36l155 155l-155 155l36 37l154 -155l156 156l37 -37l-155 -156l155 -155l-37 -36l-155 155z" />
    <glyph glyph-name="notequal" unicode="&#x2260;" horiz-adv-x="579" 
d="M523 362h-170l-80 -171h250v-53h-275l-61 -132l-42 17l54 115h-141v53h165l80 171h-245v53h270l63 135l41 -17l-55 -118h146v-53z" />
    <glyph glyph-name="partialdiff" unicode="&#x2202;" horiz-adv-x="570" 
d="M278 691c191 0 242 -247 242 -402c0 -199 -103 -294 -238 -294c-137 0 -233 92 -233 218c0 138 96 222 222 222c82 0 147 -32 188 -85h1c-11 135 -56 287 -191 287c-55 0 -100 -22 -152 -45l-18 52c61 29 121 47 179 47zM282 49c102 0 176 73 181 212
c-31 60 -96 119 -189 119c-101 0 -167 -63 -167 -167c0 -92 69 -164 175 -164z" />
    <glyph glyph-name="percent" unicode="%" horiz-adv-x="988" 
d="M365 -13l-48 17l309 714l47 -18zM247 325c-109 0 -198 78 -198 196c0 107 79 194 198 194c108 0 198 -77 198 -194c0 -108 -80 -196 -198 -196zM247 374c88 0 146 65 146 147c0 88 -64 146 -146 146c-88 0 -146 -65 -146 -146c0 -89 66 -147 146 -147zM736 -5
c-109 0 -197 78 -197 195c0 108 79 195 197 195c109 0 199 -77 199 -195c0 -107 -80 -195 -199 -195zM737 43c88 0 146 66 146 147c0 88 -65 146 -146 146c-88 0 -147 -65 -147 -146c0 -88 66 -147 147 -147z" />
    <glyph glyph-name="perthousand" unicode="&#x2030;" horiz-adv-x="1436" 
d="M365 -13l-48 17l309 714l47 -18zM247 326c-109 0 -198 78 -198 195c0 107 79 194 198 194c108 0 198 -77 198 -194c0 -107 -80 -195 -198 -195zM247 374c88 0 146 65 146 147c0 88 -64 146 -146 146c-88 0 -146 -65 -146 -146c0 -88 66 -147 146 -147zM736 -5
c-109 0 -197 78 -197 195c0 108 79 195 197 195c109 0 199 -77 199 -195c0 -107 -80 -195 -199 -195zM1184 -5c-109 0 -198 78 -198 195c0 108 79 195 198 195c109 0 198 -77 198 -195c0 -107 -79 -195 -198 -195zM737 43c88 0 146 66 146 147c0 88 -65 146 -146 146
c-88 0 -147 -65 -147 -146c0 -88 66 -147 147 -147zM1185 43c88 0 146 66 146 147c0 88 -65 146 -146 146c-88 0 -147 -65 -147 -146c0 -88 66 -147 147 -147z" />
    <glyph glyph-name="plus" unicode="+" horiz-adv-x="583" 
d="M265 44v206h-206v53h206v206h53v-206h206v-53h-206v-206h-53z" />
    <glyph glyph-name="plusminus" unicode="&#xb1;" horiz-adv-x="601" 
d="M266 150v206h-206v53h206v206h53v-206h206v-53h-206v-206h-53zM76 -2v53h465v-53h-465z" />
    <glyph glyph-name="product" unicode="&#x220f;" horiz-adv-x="693" 
d="M93 -101v811h507v-811h-56v759h-395v-759h-56z" />
    <glyph glyph-name="radical" unicode="&#x221a;" horiz-adv-x="673" 
d="M669 822h53l-368 -822h-44l-167 499h-108v52h150l154 -466h3z" />
    <glyph glyph-name="uni2236" unicode="&#x2236;" horiz-adv-x="206" 
d="M106 464c-25 0 -45 19 -45 44s20 44 45 44s45 -19 45 -44s-20 -44 -45 -44zM106 57c-25 0 -45 19 -45 44s20 44 45 44s45 -19 45 -44s-20 -44 -45 -44z" />
    <glyph glyph-name="summation" unicode="&#x2211;" horiz-adv-x="595" 
d="M552 710v-52h-419l220 -347l-220 -348h419v-53h-494v44l227 357l-227 355v44h494z" />
    <glyph glyph-name="plus.case" horiz-adv-x="583" 
d="M265 100v206h-206v53h206v206h53v-206h206v-53h-206v-206h-53z" />
    <glyph glyph-name="uni2713" unicode="&#x2713;" horiz-adv-x="596" 
d="M218 115l-193 200l35 34l148 -155l351 572l42 -26z" />
    <glyph glyph-name="uni2715" unicode="&#x2715;" horiz-adv-x="381" 
d="M55 109l-31 32l136 136l-136 136l31 30l134 -136l138 137l31 -31l-137 -137l136 -137l-31 -30l-136 136z" />
    <glyph glyph-name="bar" unicode="|" horiz-adv-x="282" 
d="M115 -115v852h52v-852h-52z" />
    <glyph glyph-name="brokenbar" unicode="&#xa6;" horiz-adv-x="282" 
d="M115 386v351h52v-351h-52zM115 -114v354h52v-354h-52z" />
    <glyph glyph-name="at" unicode="@" horiz-adv-x="904" 
d="M474 654c252 0 378 -169 378 -346c0 -115 -53 -264 -182 -264c-54 0 -90 26 -98 69c-1 6 -2 14 -2 22h-3c-33 -52 -95 -81 -157 -81c-105 0 -180 80 -180 189c0 102 68 226 204 226c66 0 121 -30 150 -85h2l8 80h56l-25 -276c-2 -13 -2 -23 -2 -32c0 -56 21 -65 45 -65
c96 0 136 124 136 216c0 151 -108 302 -329 302c-263 0 -376 -214 -376 -380c0 -182 136 -320 321 -320c66 0 146 18 209 53l23 -35c-66 -40 -152 -63 -234 -63c-210 0 -366 155 -366 362c0 178 115 428 422 428zM422 105c107 0 156 98 156 175s-50 138 -136 138
c-101 0 -158 -83 -158 -169c0 -83 53 -144 138 -144z" />
    <glyph glyph-name="ampersand" unicode="&#x26;" horiz-adv-x="651" 
d="M551 0l-67 77h-2c-46 -50 -113 -82 -203 -82c-124 0 -222 81 -222 204c0 86 56 168 138 211l-91 105c4 121 86 200 202 200c108 0 173 -64 200 -126l-49 -22c-22 50 -66 94 -145 94c-94 1 -146 -56 -148 -132l319 -370c31 50 45 110 45 164h55c0 -66 -17 -144 -62 -207
v-1l99 -115h-69zM115 202c0 -87 67 -152 168 -152c72 0 126 26 165 65l1 3l-219 251c-69 -33 -115 -100 -115 -167z" />
    <glyph glyph-name="paragraph" unicode="&#xb6;" horiz-adv-x="438" 
d="M297 -149v749h-60v-600h-41v379c-83 3 -142 48 -142 131s56 132 147 132h136v-791h-40z" />
    <glyph glyph-name="copyright" unicode="&#xa9;" horiz-adv-x="688" 
d="M344 20c-166 0 -296 136 -296 298c0 161 131 298 297 298s295 -136 295 -298c0 -161 -130 -298 -296 -298zM344 63c142 0 252 117 252 255c0 139 -110 255 -251 255c-143 0 -253 -117 -253 -256s110 -254 252 -254zM353 153c-88 0 -162 57 -162 163c0 91 57 164 162 164
c45 0 91 -18 126 -62l-30 -24c-25 30 -59 47 -96 47c-77 0 -120 -52 -120 -125c0 -79 51 -123 120 -123c43 0 74 19 96 47l30 -26c-28 -35 -68 -61 -126 -61z" />
    <glyph glyph-name="registered" unicode="&#xae;" horiz-adv-x="690" 
d="M346 617c166 0 295 -137 295 -299c0 -161 -130 -298 -297 -298c-165 0 -296 136 -296 298c0 161 131 299 298 299zM344 62c143 0 254 117 254 256c0 140 -111 256 -252 256c-143 0 -254 -117 -254 -257c0 -139 110 -255 252 -255zM462 384c0 -56 -30 -86 -78 -95l93 -131
h-48l-89 128h-56v-128h-39v324h112c73 0 105 -43 105 -98zM284 445v-123h64c55 0 73 30 73 63c0 37 -25 60 -67 60h-70z" />
    <glyph glyph-name="section" unicode="&#xa7;" horiz-adv-x="534" 
d="M384 123c44 -26 73 -60 73 -119c0 -91 -72 -156 -188 -156c-76 0 -151 27 -206 89l35 41c45 -54 111 -78 169 -78c69 0 133 36 133 102c0 67 -64 88 -145 118c-103 38 -195 71 -195 167c0 60 35 108 94 130c-40 25 -69 60 -69 117c0 85 68 150 174 150
c63 0 136 -26 185 -66l-35 -40c-47 36 -103 53 -146 53c-61 0 -122 -32 -122 -95c0 -66 67 -89 139 -117c109 -41 193 -65 193 -167c0 -57 -32 -104 -89 -129zM115 295c0 -64 64 -89 156 -123c18 -6 35 -13 51 -19c56 11 95 45 95 93c0 69 -61 88 -152 122
c-15 6 -30 11 -45 17c-59 -6 -105 -41 -105 -90z" />
    <glyph glyph-name="trademark" unicode="&#x2122;" horiz-adv-x="681" 
d="M121 387v286h-97v37h235v-37h-97v-286h-41zM310 387v323h42l117 -208l117 208h42v-323h-40v247l-105 -181h-28l-105 181v-247h-40z" />
    <glyph glyph-name="degree" unicode="&#xb0;" horiz-adv-x="397" 
d="M198 447c-74 0 -136 60 -136 134c0 73 64 134 136 134c73 0 137 -61 137 -135c0 -73 -63 -133 -137 -133zM198 491c51 0 92 41 92 89c0 50 -43 91 -92 91c-48 0 -92 -41 -92 -90c0 -50 42 -90 92 -90z" />
    <glyph glyph-name="estimated" unicode="&#x212e;" horiz-adv-x="789" 
d="M395 -10c-195 0 -331 144 -331 321c0 189 148 321 331 321c195 0 331 -145 331 -321v-9h-553v-194c58 -64 151 -92 223 -92c79 0 159 33 206 86h42c-57 -71 -156 -112 -249 -112zM172 330h440v190c-52 60 -142 85 -216 85c-81 0 -171 -27 -223 -93z" />
    <glyph glyph-name="uni2113" unicode="&#x2113;" horiz-adv-x="449" 
d="M403 104l23 -17c-42 -61 -101 -92 -169 -92c-97 0 -149 65 -154 158c-17 -13 -36 -29 -55 -43l-15 21c24 20 48 37 70 57l2 271c1 166 73 220 154 220c73 0 107 -67 107 -141c0 -97 -79 -220 -197 -331v-23c0 -121 53 -156 104 -156c56 0 104 42 130 76zM263 645
c-49 0 -95 -38 -94 -178v-222c107 105 167 208 167 292c0 61 -20 108 -73 108z" />
    <glyph glyph-name="uni2116" unicode="&#x2116;" horiz-adv-x="1130" 
d="M915 414c-90 0 -151 65 -151 149s61 149 151 149c86 0 152 -60 152 -149s-66 -149 -152 -149zM598 96v614h56v-710h-57l-447 611h-2v-611h-56v710h55l449 -614h2zM915 672c-65 0 -107 -48 -107 -109c0 -60 42 -109 107 -109c61 0 108 45 108 109c0 65 -46 109 -108 109z
M768 306v35h295v-35h-295z" />
    <glyph glyph-name="asciicircum" unicode="^" horiz-adv-x="468" 
d="M67 500l142 210h49l143 -210h-56l-112 167l-111 -167h-55z" />
    <glyph glyph-name="dagger" unicode="&#x2020;" horiz-adv-x="407" 
d="M205 260l-21 38l3 138v112h-22l-103 -4v43l103 -3h21l-2 101h42l-3 -101h18l104 2v-42l-104 4h-19v-112l4 -138z" />
    <glyph glyph-name="daggerdbl" unicode="&#x2021;" horiz-adv-x="407" 
d="M184 60l2 100h-21l-103 -3v42l103 -2h22v107l-3 74l3 74v96h-22l-103 -3v42l103 -4h21l-2 102h42l-4 -102h19l104 3v-42l-104 4h-19v-96l4 -74l-5 -74l1 -107h19l104 3v-42l-104 2h-19l4 -100h-42z" />
    <glyph glyph-name="at.case" horiz-adv-x="896" 
d="M474 723c252 0 378 -169 378 -346c0 -115 -53 -264 -182 -264c-54 0 -90 26 -98 69c-1 6 -2 14 -2 22h-3c-33 -52 -95 -81 -157 -81c-105 0 -180 80 -180 189c0 102 68 226 204 226c66 0 121 -30 150 -85h2l8 80h56l-25 -276c-2 -13 -2 -23 -2 -32c0 -56 21 -65 45 -65
c96 0 136 124 136 216c0 151 -108 302 -329 302c-263 0 -376 -214 -376 -380c0 -182 136 -320 321 -320c66 0 146 18 209 53l23 -35c-66 -40 -152 -63 -234 -63c-210 0 -366 155 -366 362c0 178 115 428 422 428zM422 174c107 0 156 98 156 175s-50 138 -136 138
c-101 0 -158 -83 -158 -169c0 -83 53 -144 138 -144z" />
    <glyph glyph-name="uni0374" unicode="&#x374;" horiz-adv-x="250" 
d="M54 484l55 239h59l-62 -239h-52z" />
    <glyph glyph-name="uni0375" unicode="&#x375;" horiz-adv-x="251" 
d="M84 -142l55 239h59l-62 -239h-52z" />
    <glyph glyph-name="acute" unicode="&#xb4;" horiz-adv-x="509" 
d="M177 544l120 139h66l-124 -139h-62z" />
    <glyph glyph-name="breve" unicode="&#x2d8;" horiz-adv-x="468" 
d="M234 542c-68 0 -129 48 -134 134h46c4 -51 35 -90 88 -90c52 0 84 38 87 90h47c-6 -83 -62 -134 -134 -134z" />
    <glyph glyph-name="caron" unicode="&#x2c7;" horiz-adv-x="507" 
d="M338 683h62l-124 -140h-51l-118 140h61l84 -98h2z" />
    <glyph glyph-name="cedilla" unicode="&#xb8;" horiz-adv-x="387" 
d="M184 -34c46 -2 86 -29 86 -78c0 -40 -31 -74 -97 -74c-20 0 -37 2 -52 6v34c13 -4 27 -7 46 -7c32 0 62 14 62 44c0 25 -27 48 -83 48v26l19 41h38z" />
    <glyph glyph-name="circumflex" unicode="&#x2c6;" horiz-adv-x="507" 
d="M338 543l-83 97h-4l-83 -97h-61l120 140h51l122 -140h-62z" />
    <glyph glyph-name="dieresis" unicode="&#xa8;" horiz-adv-x="500" 
d="M168 575c-26 0 -44 19 -44 44s18 44 44 44c25 0 44 -19 44 -44s-19 -44 -44 -44zM333 576c-24 0 -44 19 -44 43s20 43 44 43c25 0 43 -19 43 -43s-18 -43 -43 -43z" />
    <glyph glyph-name="dotaccent" unicode="&#x2d9;" horiz-adv-x="491" 
d="M246 575c-26 0 -45 19 -45 44s19 44 45 44c25 0 44 -19 44 -44s-19 -44 -44 -44z" />
    <glyph glyph-name="grave" unicode="`" horiz-adv-x="509" 
d="M270 544l-124 139h66l120 -139h-62z" />
    <glyph glyph-name="hungarumlaut" unicode="&#x2dd;" horiz-adv-x="506" 
d="M91 544l120 139h60l-125 -139h-55zM238 544l119 139h60l-125 -139h-54z" />
    <glyph glyph-name="macron" unicode="&#xaf;" horiz-adv-x="465" 
d="M94 589v51h277v-51h-277z" />
    <glyph glyph-name="ogonek" unicode="&#x2db;" horiz-adv-x="465" 
d="M271 -183c-56 0 -92 29 -92 79c0 39 32 87 90 118l36 -14c-48 -19 -77 -56 -77 -91c0 -28 16 -48 53 -48c27 0 36 3 51 11l5 -42c-17 -9 -37 -13 -66 -13z" />
    <glyph glyph-name="ring" unicode="&#x2da;" horiz-adv-x="460" 
d="M230 527c-49 0 -91 39 -91 89c0 49 40 89 91 89c49 0 91 -39 91 -89c0 -49 -40 -89 -91 -89zM230 571c25 0 46 20 46 45s-21 46 -46 46s-46 -21 -46 -46s21 -45 46 -45z" />
    <glyph glyph-name="tilde" unicode="&#x2dc;" horiz-adv-x="510" 
d="M333 555c-34 0 -62 21 -87 38c-21 14 -41 25 -61 25c-28 0 -49 -21 -61 -58l-38 17c18 55 48 89 94 89c33 0 56 -16 79 -30c23 -15 45 -33 69 -33s46 19 59 58l37 -13c-17 -63 -52 -93 -91 -93z" />
    <glyph glyph-name="dieresis.short" horiz-adv-x="503" 
d="M169 579c-23 0 -41 18 -41 40c0 23 18 40 41 40s41 -17 41 -40c0 -22 -18 -40 -41 -40zM334 579c-22 0 -41 18 -41 40s19 40 41 40c23 0 41 -18 41 -40s-18 -40 -41 -40z" />
    <glyph glyph-name="tonos" unicode="&#x384;" horiz-adv-x="464" 
d="M182 544l61 159h66l-69 -159h-58z" />
    <glyph glyph-name="dieresistonos" unicode="&#x385;" horiz-adv-x="541" 
d="M223 544l64 159h58l-73 -159h-49zM131 575c-25 0 -44 19 -44 44s19 44 44 44c26 0 45 -19 45 -44s-19 -44 -45 -44zM392 576c-25 0 -44 19 -44 43c0 23 19 43 44 43c24 0 43 -19 43 -43s-19 -43 -43 -43z" />
    <glyph glyph-name="NULL" horiz-adv-x="0" 
 />
    <glyph glyph-name="KB" horiz-adv-x="924" 
d="M473 -1c-130 0 -219 57 -254 131l21 9c52 -69 116 -94 200 -94c64 0 122 28 122 101c0 57 -61 119 -161 157c-6 -22 -13 -47 -19 -74c23 -4 47 -9 71 -17l-5 -36h-248l-1 34c29 20 62 38 98 50l73 382l-65 19l-2 30c26 16 68 29 117 29l70 -35l-63 -194l-66 -189l10 -2
c49 184 127 244 221 244c70 0 122 -29 122 -98c0 -74 -59 -136 -195 -136c-22 0 -45 1 -69 4v-9c105 -13 257 -38 257 -152c0 -85 -82 -154 -234 -154zM410 330c133 5 173 74 173 124c0 27 -15 50 -41 50c-28 0 -86 -42 -132 -174zM49 -146l-12 39h6l9 -28l8 28h6l8 -28
l9 28h6l-12 -39h-6l-8 29l-8 -29h-6zM105 -146l-12 39h7l8 -28l8 28h7l7 -28l9 28h7l-12 -39h-7l-7 29l-9 -29h-6zM162 -146l-13 39h7l9 -28l7 28h7l8 -28l8 28h7l-12 -39h-6l-8 29l-9 -29h-5zM218 -146v39h7v-19l15 19h8l-15 -18l16 -21h-9l-11 16l-4 -5v-11h-7zM270 -146
c-12 0 -20 8 -20 20c0 11 8 19 20 19c11 0 19 -8 19 -19c0 -13 -8 -20 -19 -20zM309 -146c-5 0 -11 1 -15 6l4 5c3 -4 7 -5 11 -5s6 1 6 4c0 4 -2 5 -7 7c-6 2 -12 4 -12 11c0 6 5 11 12 11c5 0 9 -1 13 -5l-4 -5c-3 3 -6 4 -9 4s-5 -1 -5 -4s2 -4 7 -6c6 -2 12 -4 12 -12
s-8 -11 -13 -11zM336 -146v33h-11v6h29v-6h-11v-33h-7zM353 -146l15 39h6l15 -39h-7l-3 8h-16l-3 -8h-7zM406 -146c-5 0 -10 1 -14 6l4 5c3 -4 6 -5 10 -5s6 1 6 4c0 4 -2 5 -7 7c-6 2 -12 4 -12 11c0 6 5 11 12 11c5 0 9 -1 13 -5l-4 -5c-3 3 -6 4 -9 4s-5 -1 -5 -4
s2 -4 7 -6c7 -2 12 -4 12 -12s-7 -11 -13 -11zM426 -146v39h14c8 0 13 -3 13 -10c0 -4 -2 -7 -6 -8c4 -1 8 -5 8 -10c0 -7 -5 -11 -13 -11h-16zM458 -146l14 39h7l14 -39h-7l-3 8h-15l-3 -8h-7zM499 -146v39h15c8 0 13 -6 13 -13c0 -6 -4 -10 -9 -11l10 -15h-8l-9 14h-5v-14
h-7zM542 -146v33h-11v6h29v-6h-12v-33h-6zM578 -146c-5 0 -11 1 -15 6l5 5c2 -4 6 -5 10 -5s6 1 6 4c0 4 -2 5 -7 7c-6 2 -12 4 -12 11c0 6 5 11 12 11c5 0 9 -1 13 -5l-4 -5c-3 3 -6 4 -9 4s-5 -1 -5 -4s2 -4 7 -6c6 -2 12 -4 12 -12s-8 -11 -13 -11zM616 -146
c-12 0 -19 8 -19 20c0 11 7 19 19 19c11 0 20 -8 20 -19c0 -13 -9 -20 -20 -20zM643 -146v39h7v-19l15 19h8l-14 -18l15 -21h-8l-12 16l-4 -5v-11h-7zM676 -146l14 39h7l14 -39h-6l-3 8h-16l-3 -8h-7zM729 -146c-5 0 -10 1 -14 6l4 5c3 -4 7 -5 10 -5c4 0 6 1 6 4
c0 4 -3 5 -7 7c-6 2 -12 4 -12 11c0 6 6 11 12 11c5 0 9 -1 13 -5l-4 -5c-3 3 -6 4 -9 4s-5 -1 -5 -4s3 -4 7 -6c7 -2 12 -4 12 -12s-7 -11 -13 -11zM779 -146c-11 0 -20 6 -20 19c0 11 7 20 20 20c5 0 11 -2 15 -7l-5 -4c-2 3 -6 5 -10 5c-8 0 -13 -6 -13 -14s5 -13 13 -13
c4 0 8 2 10 5l5 -4c-3 -4 -8 -7 -15 -7zM818 -146c-11 0 -19 8 -19 20c0 11 8 19 19 19c12 0 20 -8 20 -19c0 -13 -8 -20 -20 -20zM846 -146v39h6l13 -23l13 23h6v-39h-6v26l-11 -19h-4l-11 19v-26h-6zM270 -140c7 0 12 5 12 14c0 7 -5 13 -12 13c-8 0 -13 -6 -13 -13
c0 -8 5 -14 13 -14zM433 -124h6c3 0 7 2 7 6c0 3 -2 5 -8 5h-5v-11zM506 -126h6c6 0 8 2 8 6s-3 7 -7 7h-7v-13zM616 -140c7 0 13 5 13 14c0 7 -6 13 -13 13c-8 0 -12 -6 -12 -13c0 -8 4 -14 12 -14zM818 -140c8 0 13 5 13 14c0 7 -5 13 -13 13c-7 0 -12 -6 -12 -13
c0 -8 5 -14 12 -14zM365 -132h11l-5 17zM470 -132h11l-5 17zM688 -132h12l-6 17zM433 -140h7c4 0 8 2 8 5c0 4 -3 6 -8 6h-7v-11zM207 -146c-3 0 -4 1 -4 3c0 3 1 5 4 5c2 0 3 -2 3 -5c0 -2 -1 -3 -3 -3zM751 -146c-2 0 -4 1 -4 3c0 3 2 5 4 5s4 -2 4 -5c0 -2 -2 -3 -4 -3z
" />
    <glyph glyph-name="jacute" horiz-adv-x="208" 
d="M84 571l120 139h66l-124 -139h-62zM22 -203c-22 0 -48 4 -74 16l8 49c18 -11 40 -15 56 -15c41 0 70 24 70 86v553h53v-553c0 -79 -34 -136 -113 -136z" />
    <glyph glyph-name="Jacute" horiz-adv-x="483" 
d="M351 791l120 139h66l-124 -139h-62zM213 -4c-59 0 -133 30 -182 89l32 44c40 -46 95 -79 151 -79c80 0 133 46 133 176v484h56v-490c0 -150 -60 -224 -190 -224z" />
    </font>
</defs>
</svg>
