<?xml version="1.0" standalone="no"?>
<!DOCTYPE svg PUBLIC "-//W3C//DTD SVG 1.1//EN" "http://www.w3.org/Graphics/SVG/1.1/DTD/svg11.dtd" >
<svg xmlns="http://www.w3.org/2000/svg" xmlns:xlink="http://www.w3.org/1999/xlink" version="1.1">
<metadata>
Created by FontForge 20170910 at Sat Jan  2 15:07:16 2016
 By Jimmy Wärting
Copyright (c) 2015 by Kostas Bartsokas. All rights reserved.
</metadata>
<defs>
<font id="AvertaStd-Regular" horiz-adv-x="682" >
  <font-face 
    font-family="Averta Std Regular"
    font-weight="400"
    font-stretch="normal"
    units-per-em="1000"
    panose-1="0 0 5 0 0 0 0 0 0 0"
    ascent="772"
    descent="-228"
    x-height="487"
    cap-height="710"
    bbox="-193 -257 1399 978"
    underline-thickness="38"
    underline-position="-83"
    stemh="63"
    stemv="68"
    unicode-range="U+0020-2715"
  />
<missing-glyph horiz-adv-x="449" 
 />
    <glyph glyph-name=".notdef" horiz-adv-x="449" 
 />
    <glyph glyph-name="A" unicode="A" 
d="M563 0l-63 173h-317l-63 -173h-92l269 710h87l271 -710h-92zM211 249h261l-130 355h-2z" />
    <glyph glyph-name="Aacute" unicode="&#xc1;" 
d="M517 933l-124 -142h-85l117 141zM563 0l-63 173h-317l-63 -173h-92l269 710h87l271 -710h-92zM211 249h261l-130 355h-2z" />
    <glyph glyph-name="Abreve" unicode="&#x102;" 
d="M341 789c-74 0 -138 49 -145 140h66c3 -46 31 -80 79 -80c46 0 76 32 79 80h65c-6 -85 -64 -140 -144 -140zM563 0l-63 173h-317l-63 -173h-92l269 710h87l271 -710h-92zM211 249h261l-130 355h-2z" />
    <glyph glyph-name="uni1EAE" unicode="&#x1eae;" 
d="M513 947l-141 -104l-72 1l122 103h91zM341 747c-74 0 -128 41 -149 109h58c15 -39 48 -59 91 -59c42 0 75 20 91 59h58c-21 -68 -76 -109 -149 -109zM563 0l-63 173h-317l-63 -173h-92l269 710h87l271 -710h-92zM211 249h261l-130 355h-2z" />
    <glyph glyph-name="uni1EB6" unicode="&#x1eb6;" 
d="M341 789c-74 0 -138 49 -145 140h66c3 -46 31 -80 79 -80c46 0 76 32 79 80h65c-6 -85 -64 -140 -144 -140zM655 0h-92l-63 173h-317l-63 -173h-92l269 710h87zM211 249h261l-130 355h-2zM341 -111c33 0 58 -25 58 -57c0 -31 -25 -57 -58 -57c-32 0 -58 26 -58 57
c0 32 26 57 58 57z" />
    <glyph glyph-name="uni1EB0" unicode="&#x1eb0;" 
d="M383 844l-72 -1l-140 104h90zM250 856c16 -39 49 -59 91 -59c43 0 76 20 91 59h58c-21 -68 -75 -109 -149 -109c-73 0 -128 41 -149 109h58zM563 0l-63 173h-317l-63 -173h-92l269 710h87l271 -710h-92zM211 249h261l-130 355h-2z" />
    <glyph glyph-name="uni1EB2" unicode="&#x1eb2;" 
d="M343 924c-26 0 -50 -12 -65 -29l-31 28c22 24 60 42 101 42c45 0 76 -26 76 -63c0 -33 -33 -56 -71 -69l-6 -19h-21c-11 3 -17 8 -17 19c0 29 65 37 65 68c0 20 -19 23 -31 23zM341 747c-74 0 -128 41 -149 109h58c15 -39 48 -59 91 -59c42 0 75 20 91 59h58
c-21 -68 -76 -109 -149 -109zM563 0l-63 173h-317l-63 -173h-92l269 710h87l271 -710h-92zM211 249h261l-130 355h-2z" />
    <glyph glyph-name="uni1EB4" unicode="&#x1eb4;" 
d="M279 918c-18 0 -35 -14 -46 -40l-44 16c15 44 45 71 83 71c31 0 54 -14 74 -26c16 -9 31 -17 49 -17c21 0 40 13 50 40l44 -12c-16 -49 -48 -75 -86 -75c-27 0 -50 12 -70 23c-19 11 -36 20 -54 20zM341 797c43 0 75 20 91 59h58c-21 -68 -75 -109 -149 -109
s-128 41 -149 109h58c15 -39 48 -59 91 -59zM563 0l-63 173h-317l-63 -173h-92l269 710h87l271 -710h-92zM211 249h261l-130 355h-2z" />
    <glyph glyph-name="Acircumflex" unicode="&#xc2;" 
d="M339 880l-72 -89h-82l116 143h75l119 -143h-82l-72 89h-2zM563 0l-63 173h-317l-63 -173h-92l269 710h87l271 -710h-92zM211 249h261l-130 355h-2z" />
    <glyph glyph-name="uni1EA4" unicode="&#x1ea4;" 
d="M684 950l-143 -142h-66l118 141zM339 858l-72 -89h-82l116 143h75l119 -143h-82l-72 89h-2zM297 710h87l271 -710h-92l-63 173h-317l-63 -173h-92zM211 249h261l-130 355h-2z" />
    <glyph glyph-name="uni1EAC" unicode="&#x1eac;" 
d="M339 879l-72 -89h-82l116 143h75l119 -143h-82l-72 89h-2zM655 0h-92l-63 173h-317l-63 -173h-92l269 710h87zM211 249h261l-130 355h-2zM341 -111c33 0 58 -25 58 -57c0 -31 -25 -57 -58 -57c-32 0 -58 26 -58 57c0 32 26 57 58 57z" />
    <glyph glyph-name="uni1EA6" unicode="&#x1ea6;" 
d="M594 809h-65l-124 141h91zM340 858l-72 -89h-82l116 143h75l119 -143h-82l-72 89h-2zM563 0l-63 173h-317l-63 -173h-92l269 710h87l271 -710h-92zM211 249h261l-130 355h-2z" />
    <glyph glyph-name="uni1EA8" unicode="&#x1ea8;" 
d="M539 911c-27 0 -53 -13 -70 -32l-34 33c24 26 66 46 110 46c55 0 88 -33 88 -75c0 -40 -35 -66 -82 -80l-6 -27h-35c-9 10 -15 16 -15 27c0 32 80 42 80 79c0 20 -17 29 -36 29zM339 858l-72 -89h-82l116 143h75l119 -143h-82l-72 89h-2zM563 0l-63 173h-317l-63 -173
h-92l269 710h87l271 -710h-92zM211 249h261l-130 355h-2z" />
    <glyph glyph-name="uni1EAA" unicode="&#x1eaa;" 
d="M279 918c-18 0 -35 -14 -46 -40l-44 16c15 44 45 71 83 71c31 0 54 -14 74 -26c16 -9 31 -17 49 -17c21 0 40 13 50 40l44 -12c-16 -49 -48 -75 -86 -75c-27 0 -50 12 -70 23c-19 11 -36 20 -54 20zM337 815l-76 -80h-77l116 122h75l119 -122h-77l-76 80h-4zM563 0
l-63 173h-317l-63 -173h-92l269 710h87l271 -710h-92zM211 249h261l-130 355h-2z" />
    <glyph glyph-name="Adieresis" unicode="&#xc4;" 
d="M250 812c-33 0 -58 25 -58 57c0 31 25 57 58 57c32 0 58 -26 58 -57c0 -32 -26 -57 -58 -57zM431 813c-32 0 -57 25 -57 56c0 30 25 56 57 56s57 -26 57 -56c0 -31 -25 -56 -57 -56zM563 0l-63 173h-317l-63 -173h-92l269 710h87l271 -710h-92zM211 249h261l-130 355h-2z
" />
    <glyph glyph-name="uni1EA0" unicode="&#x1ea0;" 
d="M655 0h-92l-63 173h-317l-63 -173h-92l269 710h87zM211 249h261l-130 355h-2zM341 -111c33 0 58 -25 58 -57c0 -31 -25 -57 -58 -57c-32 0 -58 26 -58 57c0 32 26 57 58 57z" />
    <glyph glyph-name="Agrave" unicode="&#xc0;" 
d="M381 791h-86l-124 142l93 -1zM563 0l-63 173h-317l-63 -173h-92l269 710h87l271 -710h-92zM211 249h261l-130 355h-2z" />
    <glyph glyph-name="uni1EA2" unicode="&#x1ea2;" 
d="M345 902c-27 0 -53 -13 -70 -32l-35 32c25 26 66 46 111 46c58 0 91 -32 91 -74c0 -40 -35 -66 -85 -80l-7 -27h-34c-9 9 -15 16 -15 27c0 32 83 42 83 79c0 23 -21 29 -39 29zM563 0l-63 173h-317l-63 -173h-92l269 710h87l271 -710h-92zM211 249h261l-130 355h-2z" />
    <glyph glyph-name="Amacron" unicode="&#x100;" 
d="M484 900v-69h-287v69h287zM563 0l-63 173h-317l-63 -173h-92l269 710h87l271 -710h-92zM211 249h261l-130 355h-2z" />
    <glyph glyph-name="Aogonek" unicode="&#x104;" 
d="M657 -120l6 -53c-18 -8 -40 -13 -68 -13c-62 0 -100 32 -100 84c0 33 24 74 67 104l-62 171h-317l-63 -173h-92l269 710h87l271 -710h-12c-50 -14 -81 -51 -81 -84c0 -27 15 -45 49 -45c25 0 33 2 46 9zM211 249h261l-130 355h-2z" />
    <glyph glyph-name="Aring" unicode="&#xc5;" 
d="M340 772c-52 0 -96 42 -96 95c0 52 41 95 96 95c54 0 98 -41 98 -95c0 -51 -42 -95 -98 -95zM341 911c-24 0 -43 -20 -43 -43c0 -24 19 -42 43 -42c23 0 43 19 43 42s-20 43 -43 43zM563 0l-63 173h-317l-63 -173h-92l269 710h87l271 -710h-92zM211 249h261l-130 355h-2z
" />
    <glyph glyph-name="Aringacute" unicode="&#x1fa;" 
d="M340 771c-52 0 -96 42 -96 95c0 52 41 95 96 95c30 0 56 -12 74 -32l69 49h98l-143 -105v-7c0 -51 -42 -95 -98 -95zM341 910c-24 0 -43 -20 -43 -43c0 -24 19 -42 43 -42c23 0 43 19 43 42s-20 43 -43 43zM563 0l-63 173h-317l-63 -173h-92l269 710h87l271 -710h-92z
M211 249h261l-130 355h-2z" />
    <glyph glyph-name="Atilde" unicode="&#xc3;" 
d="M274 856c-27 0 -47 -21 -60 -55l-52 23c18 60 52 99 103 99c36 0 59 -15 82 -29c21 -14 40 -30 63 -30c24 0 46 19 58 55l52 -17c-18 -67 -56 -105 -100 -105c-35 0 -63 19 -88 36c-20 12 -39 23 -58 23zM563 0l-63 173h-317l-63 -173h-92l269 710h87l271 -710h-92z
M211 249h261l-130 355h-2z" />
    <glyph glyph-name="AE" unicode="&#xc6;" horiz-adv-x="942" 
d="M520 80h371v-80h-456v172h-242l-92 -172h-93l382 710h481v-80h-351v-237h292v-80h-292v-233zM235 249h200v369h-2z" />
    <glyph glyph-name="AEacute" unicode="&#x1fc;" horiz-adv-x="942" 
d="M632 934l-124 -142h-85l117 141zM520 80h371v-80h-456v172h-242l-92 -172h-93l382 710h481v-80h-351v-237h292v-80h-292v-233zM235 249h200v369h-2z" />
    <glyph glyph-name="B" unicode="B" horiz-adv-x="639" 
d="M439 373c81 -17 147 -76 147 -181c0 -112 -76 -192 -237 -192h-259v710h232c139 0 229 -52 229 -173c0 -69 -36 -135 -112 -162v-2zM177 630v-225h144c68 0 141 30 141 115c0 67 -45 110 -158 110h-127zM325 80c101 0 170 39 170 120c0 79 -58 127 -166 127h-152v-247
h148z" />
    <glyph glyph-name="C" unicode="C" horiz-adv-x="728" 
d="M413 -5c-192 0 -354 125 -354 357c0 202 126 365 354 365c98 0 200 -40 277 -136l-65 -54c-54 68 -130 107 -212 107c-162 0 -263 -117 -263 -282c0 -169 113 -274 263 -274c92 0 162 44 212 106l65 -55c-62 -77 -152 -134 -277 -134z" />
    <glyph glyph-name="Cacute" unicode="&#x106;" horiz-adv-x="728" 
d="M363 791l117 141l92 1l-124 -142h-85zM413 -5c-192 0 -354 125 -354 357c0 202 126 365 354 365c98 0 200 -40 277 -136l-65 -54c-54 68 -130 107 -212 107c-162 0 -263 -117 -263 -282c0 -169 113 -274 263 -274c92 0 162 44 212 106l65 -55
c-62 -77 -152 -134 -277 -134z" />
    <glyph glyph-name="Ccaron" unicode="&#x10c;" horiz-adv-x="728" 
d="M446 791h-74l-116 143h82l72 -90h2l72 90h82zM413 78c92 0 162 44 212 106l65 -55c-62 -77 -152 -134 -277 -134c-192 0 -354 125 -354 357c0 202 126 365 354 365c98 0 200 -40 277 -136l-65 -54c-54 68 -130 107 -212 107c-162 0 -263 -117 -263 -282
c0 -169 113 -274 263 -274z" />
    <glyph glyph-name="Ccedilla" unicode="&#xc7;" horiz-adv-x="728" 
d="M413 78c92 0 162 44 212 106l65 -55c-62 -76 -151 -133 -274 -134l-12 -26l1 -2c52 -3 87 -31 87 -79c0 -42 -33 -76 -107 -76c-24 0 -41 3 -56 6v44c13 -4 27 -7 48 -7c29 0 56 11 56 37c0 22 -27 42 -83 42v30l14 29v5c-170 19 -305 142 -305 354
c0 202 126 365 354 365c98 0 200 -40 277 -136l-65 -54c-54 68 -130 107 -212 107c-162 0 -263 -117 -263 -282c0 -169 113 -274 263 -274z" />
    <glyph glyph-name="Ccircumflex" unicode="&#x108;" horiz-adv-x="728" 
d="M410 880l-72 -89h-82l116 143h75l119 -143h-82l-72 89h-2zM413 78c92 0 162 44 212 106l65 -55c-62 -77 -152 -134 -277 -134c-192 0 -354 125 -354 357c0 202 126 365 354 365c98 0 200 -40 277 -136l-65 -54c-54 68 -130 107 -212 107c-162 0 -263 -117 -263 -282
c0 -169 113 -274 263 -274z" />
    <glyph glyph-name="Cdotaccent" unicode="&#x10a;" horiz-adv-x="728" 
d="M412 812c-33 0 -58 25 -58 57c0 31 25 57 58 57c32 0 58 -26 58 -57c0 -32 -26 -57 -58 -57zM413 -5c-192 0 -354 125 -354 357c0 202 126 365 354 365c98 0 200 -40 277 -136l-65 -54c-54 68 -130 107 -212 107c-162 0 -263 -117 -263 -282c0 -169 113 -274 263 -274
c92 0 162 44 212 106l65 -55c-62 -77 -152 -134 -277 -134z" />
    <glyph glyph-name="D" unicode="D" horiz-adv-x="730" 
d="M90 0v710h213c225 0 368 -146 368 -356c0 -209 -139 -354 -365 -354h-216zM177 79h123c171 0 282 115 282 275c0 163 -112 277 -278 277h-127v-552z" />
    <glyph glyph-name="Eth" unicode="&#xd0;" horiz-adv-x="730" 
d="M303 710c225 0 368 -146 368 -356c0 -209 -139 -354 -365 -354h-216v391h-86v76h86v243h213zM300 79c171 0 282 115 282 275c0 163 -112 277 -278 277h-127v-164h123v-76h-123v-312h123z" />
    <glyph glyph-name="Dcaron" unicode="&#x10e;" horiz-adv-x="730" 
d="M392 791h-74l-116 143h82l72 -90h2l72 90h82zM303 710c225 0 368 -146 368 -356c0 -209 -139 -354 -365 -354h-216v710h213zM300 79c171 0 282 115 282 275c0 163 -112 277 -278 277h-127v-552h123z" />
    <glyph glyph-name="Dcroat" unicode="&#x110;" horiz-adv-x="730" 
d="M303 710c225 0 368 -146 368 -356c0 -209 -139 -354 -365 -354h-216v391h-86v76h86v243h213zM300 79c171 0 282 115 282 275c0 163 -112 277 -278 277h-127v-164h123v-76h-123v-312h123z" />
    <glyph glyph-name="E" unicode="E" horiz-adv-x="598" 
d="M90 0v710h435v-80h-347v-237h285v-80h-285v-233h368v-80h-456z" />
    <glyph glyph-name="Eacute" unicode="&#xc9;" horiz-adv-x="598" 
d="M224 792l117 141l92 1l-124 -142h-85zM90 0v710h435v-80h-347v-237h285v-80h-285v-233h368v-80h-456z" />
    <glyph glyph-name="Ebreve" unicode="&#x114;" horiz-adv-x="598" 
d="M312 789c-74 0 -138 49 -145 140h66c3 -46 31 -80 79 -80c46 0 76 32 79 80h65c-6 -85 -64 -140 -144 -140zM90 0v710h435v-80h-347v-237h285v-80h-285v-233h368v-80h-456z" />
    <glyph glyph-name="Ecaron" unicode="&#x11a;" horiz-adv-x="598" 
d="M346 791h-74l-116 143h82l72 -90h2l72 90h82zM178 80h368v-80h-456v710h435v-80h-347v-237h285v-80h-285v-233z" />
    <glyph glyph-name="Ecircumflex" unicode="&#xca;" horiz-adv-x="598" 
d="M310 880l-72 -89h-82l116 143h75l119 -143h-82l-72 89h-2zM178 80h368v-80h-456v710h435v-80h-347v-237h285v-80h-285v-233z" />
    <glyph glyph-name="uni1EBE" unicode="&#x1ebe;" horiz-adv-x="598" 
d="M655 950l-143 -142h-66l118 141zM310 858l-72 -89h-82l116 143h75l119 -143h-82l-72 89h-2zM178 313v-233h368v-80h-456v710h435v-80h-347v-237h285v-80h-285z" />
    <glyph glyph-name="uni1EC6" unicode="&#x1ec6;" horiz-adv-x="598" 
d="M310 879l-72 -89h-82l116 143h75l119 -143h-82l-72 89h-2zM178 80h368v-80h-456v710h435v-80h-347v-237h285v-80h-285v-233zM321 -111c33 0 58 -25 58 -57c0 -31 -25 -57 -58 -57c-32 0 -58 26 -58 57c0 32 26 57 58 57z" />
    <glyph glyph-name="uni1EC0" unicode="&#x1ec0;" horiz-adv-x="598" 
d="M565 809h-65l-124 141h91zM311 858l-72 -89h-82l116 143h75l119 -143h-82l-72 89h-2zM178 313v-233h368v-80h-456v710h435v-80h-347v-237h285v-80h-285z" />
    <glyph glyph-name="uni1EC2" unicode="&#x1ec2;" horiz-adv-x="598" 
d="M516 958c55 0 88 -33 88 -75c0 -40 -35 -66 -82 -80l-6 -27h-35c-9 10 -15 16 -15 27c0 32 80 42 80 79c0 20 -17 29 -36 29c-27 0 -53 -13 -70 -32l-34 33c24 26 66 46 110 46zM310 858l-72 -89h-82l116 143h75l119 -143h-82l-72 89h-2zM178 313v-233h368v-80h-456v710
h435v-80h-347v-237h285v-80h-285z" />
    <glyph glyph-name="uni1EC4" unicode="&#x1ec4;" horiz-adv-x="598" 
d="M250 918c-18 0 -35 -14 -46 -40l-44 16c15 44 45 71 83 71c31 0 54 -14 74 -26c16 -9 31 -17 49 -17c21 0 40 13 50 40l44 -12c-16 -49 -48 -75 -86 -75c-27 0 -50 12 -70 23c-19 11 -36 20 -54 20zM308 815l-76 -80h-77l116 122h75l119 -122h-77l-76 80h-4zM178 80h368
v-80h-456v710h435v-80h-347v-237h285v-80h-285v-233z" />
    <glyph glyph-name="Edieresis" unicode="&#xcb;" horiz-adv-x="598" 
d="M221 812c-33 0 -58 25 -58 57c0 31 25 57 58 57c32 0 58 -26 58 -57c0 -32 -26 -57 -58 -57zM402 813c-32 0 -57 25 -57 56c0 30 25 56 57 56s57 -26 57 -56c0 -31 -25 -56 -57 -56zM90 0v710h435v-80h-347v-237h285v-80h-285v-233h368v-80h-456z" />
    <glyph glyph-name="Edotaccent" unicode="&#x116;" horiz-adv-x="598" 
d="M312 812c-33 0 -58 25 -58 57c0 31 25 57 58 57c32 0 58 -26 58 -57c0 -32 -26 -57 -58 -57zM90 0v710h435v-80h-347v-237h285v-80h-285v-233h368v-80h-456z" />
    <glyph glyph-name="uni1EB8" unicode="&#x1eb8;" horiz-adv-x="598" 
d="M90 0v710h435v-80h-347v-237h285v-80h-285v-233h368v-80h-456zM321 -111c33 0 58 -25 58 -57c0 -31 -25 -57 -58 -57c-32 0 -58 26 -58 57c0 32 26 57 58 57z" />
    <glyph glyph-name="Egrave" unicode="&#xc8;" horiz-adv-x="598" 
d="M325 792l-124 142l93 -1l117 -141h-86zM90 0v710h435v-80h-347v-237h285v-80h-285v-233h368v-80h-456z" />
    <glyph glyph-name="uni1EBA" unicode="&#x1eba;" horiz-adv-x="598" 
d="M287 767c-9 9 -15 16 -15 27c0 32 83 42 83 79c0 23 -21 29 -39 29c-27 0 -53 -13 -70 -32l-35 32c25 26 66 46 111 46c58 0 91 -32 91 -74c0 -40 -35 -66 -85 -80l-7 -27h-34zM90 0v710h435v-80h-347v-237h285v-80h-285v-233h368v-80h-456z" />
    <glyph glyph-name="Emacron" unicode="&#x112;" horiz-adv-x="598" 
d="M168 831v69h287v-69h-287zM90 0v710h435v-80h-347v-237h285v-80h-285v-233h368v-80h-456z" />
    <glyph glyph-name="Eogonek" unicode="&#x118;" horiz-adv-x="598" 
d="M555 -120l6 -53c-18 -8 -40 -13 -68 -13c-62 0 -100 32 -100 84c0 32 22 71 63 101v1h-366v710h435v-80h-347v-237h285v-80h-285v-233h368v-80h-5c-50 -14 -81 -51 -81 -84c0 -27 15 -45 49 -45c25 0 33 2 46 9z" />
    <glyph glyph-name="uni1EBC" unicode="&#x1ebc;" horiz-adv-x="598" 
d="M391 797c-35 0 -63 19 -88 36c-20 12 -39 23 -58 23c-27 0 -47 -21 -60 -55l-52 23c18 60 52 99 103 99c36 0 59 -15 82 -29c21 -14 40 -30 63 -30c24 0 46 19 58 55l52 -17c-18 -67 -56 -105 -100 -105zM90 0v710h435v-80h-347v-237h285v-80h-285v-233h368v-80h-456z
" />
    <glyph glyph-name="F" unicode="F" horiz-adv-x="583" 
d="M90 0v710h453v-80h-366v-249h311v-80h-311v-301h-87z" />
    <glyph glyph-name="G" unicode="G" horiz-adv-x="763" 
d="M397 366h293v-281c-66 -56 -167 -90 -276 -90c-204 0 -355 139 -355 359c0 210 138 363 352 363c96 0 195 -33 271 -112l-62 -53c-57 54 -127 82 -210 82c-149 0 -260 -110 -260 -280c0 -160 105 -278 264 -278c71 0 136 16 189 54v156h-206v80z" />
    <glyph glyph-name="Gbreve" unicode="&#x11e;" horiz-adv-x="763" 
d="M408 789c-74 0 -138 49 -145 140h66c3 -46 31 -80 79 -80c46 0 76 32 79 80h65c-6 -85 -64 -140 -144 -140zM397 366h293v-281c-66 -56 -167 -90 -276 -90c-204 0 -355 139 -355 359c0 210 138 363 352 363c96 0 195 -33 271 -112l-62 -53c-57 54 -127 82 -210 82
c-149 0 -260 -110 -260 -280c0 -160 105 -278 264 -278c71 0 136 16 189 54v156h-206v80z" />
    <glyph glyph-name="Gcaron" unicode="&#x1e6;" horiz-adv-x="763" 
d="M442 791h-74l-116 143h82l72 -90h2l72 90h82zM397 366h293v-281c-66 -56 -167 -90 -276 -90c-204 0 -355 139 -355 359c0 210 138 363 352 363c96 0 195 -33 271 -112l-62 -53c-57 54 -127 82 -210 82c-149 0 -260 -110 -260 -280c0 -160 105 -278 264 -278
c71 0 136 16 189 54v156h-206v80z" />
    <glyph glyph-name="Gcircumflex" unicode="&#x11c;" horiz-adv-x="763" 
d="M406 880l-72 -89h-82l116 143h75l119 -143h-82l-72 89h-2zM397 366h293v-281c-66 -56 -167 -90 -276 -90c-204 0 -355 139 -355 359c0 210 138 363 352 363c96 0 195 -33 271 -112l-62 -53c-57 54 -127 82 -210 82c-149 0 -260 -110 -260 -280c0 -160 105 -278 264 -278
c71 0 136 16 189 54v156h-206v80z" />
    <glyph glyph-name="Gcommaaccent" unicode="&#x122;" horiz-adv-x="763" 
d="M397 366h293v-281c-66 -56 -167 -90 -276 -90c-204 0 -355 139 -355 359c0 210 138 363 352 363c96 0 195 -33 271 -112l-62 -53c-57 54 -127 82 -210 82c-149 0 -260 -110 -260 -280c0 -160 105 -278 264 -278c71 0 136 16 189 54v156h-206v80zM370 -53h74
c4 -16 5 -31 5 -51c0 -65 -46 -103 -113 -108l-20 49c46 10 60 32 60 64c0 17 -2 28 -6 46z" />
    <glyph glyph-name="Gdotaccent" unicode="&#x120;" horiz-adv-x="763" 
d="M408 812c-33 0 -58 25 -58 57c0 31 25 57 58 57c32 0 58 -26 58 -57c0 -32 -26 -57 -58 -57zM397 366h293v-281c-66 -56 -167 -90 -276 -90c-204 0 -355 139 -355 359c0 210 138 363 352 363c96 0 195 -33 271 -112l-62 -53c-57 54 -127 82 -210 82
c-149 0 -260 -110 -260 -280c0 -160 105 -278 264 -278c71 0 136 16 189 54v156h-206v80z" />
    <glyph glyph-name="H" unicode="H" horiz-adv-x="726" 
d="M90 0v710h87v-333h372v333h87v-710h-87v297h-372v-297h-87z" />
    <glyph glyph-name="Hbar" unicode="&#x126;" horiz-adv-x="726" 
d="M697 584v-68h-61v-516h-87v297h-372v-297h-87v516h-59v68h59v126h87v-126h372v126h87v-126h61zM549 377v139h-372v-139h372z" />
    <glyph glyph-name="Hcircumflex" unicode="&#x124;" horiz-adv-x="726" 
d="M363 880l-72 -89h-82l116 143h75l119 -143h-82l-72 89h-2zM549 710h87v-710h-87v297h-372v-297h-87v710h87v-333h372v333z" />
    <glyph glyph-name="I" unicode="I" horiz-adv-x="278" 
d="M95 0v710h88v-710h-88z" />
    <glyph glyph-name="IJ" unicode="&#x132;" horiz-adv-x="775" 
d="M95 0v710h88v-710h-88zM496 -5c-63 0 -137 30 -186 90l49 64c34 -39 85 -71 134 -71c69 0 117 40 117 155v477h86v-479c0 -152 -59 -236 -200 -236z" />
    <glyph glyph-name="Iacute" unicode="&#xcd;" horiz-adv-x="278" 
d="M106 791l117 141l92 1l-124 -142h-85zM95 0v710h88v-710h-88z" />
    <glyph glyph-name="Ibreve" unicode="&#x12c;" horiz-adv-x="278" 
d="M138 789c-74 0 -138 49 -145 140h66c3 -46 31 -80 79 -80c46 0 76 32 79 80h65c-6 -85 -64 -140 -144 -140zM95 0v710h88v-710h-88z" />
    <glyph glyph-name="Icircumflex" unicode="&#xce;" horiz-adv-x="278" 
d="M173 934l119 -143h-82l-72 89h-2l-72 -89h-82l116 143h75zM95 0v710h88v-710h-88z" />
    <glyph glyph-name="Idieresis" unicode="&#xcf;" horiz-adv-x="278" 
d="M47 812c-33 0 -58 25 -58 57c0 31 25 57 58 57c32 0 58 -26 58 -57c0 -32 -26 -57 -58 -57zM228 813c-32 0 -57 25 -57 56c0 30 25 56 57 56s57 -26 57 -56c0 -31 -25 -56 -57 -56zM95 0v710h88v-710h-88z" />
    <glyph glyph-name="Idotaccent" unicode="&#x130;" horiz-adv-x="278" 
d="M138 812c-33 0 -58 25 -58 57c0 31 25 57 58 57c32 0 58 -26 58 -57c0 -32 -26 -57 -58 -57zM95 0v710h88v-710h-88z" />
    <glyph glyph-name="uni1ECA" unicode="&#x1eca;" horiz-adv-x="278" 
d="M95 0v710h88v-710h-88zM137 -111c33 0 58 -25 58 -57c0 -31 -25 -57 -58 -57c-32 0 -58 26 -58 57c0 32 26 57 58 57z" />
    <glyph glyph-name="Igrave" unicode="&#xcc;" horiz-adv-x="278" 
d="M92 791l-124 142l93 -1l117 -141h-86zM95 0v710h88v-710h-88z" />
    <glyph glyph-name="uni1EC8" unicode="&#x1ec8;" horiz-adv-x="278" 
d="M113 767c-9 9 -15 16 -15 27c0 32 83 42 83 79c0 23 -21 29 -39 29c-27 0 -53 -13 -70 -32l-35 32c25 26 66 46 111 46c58 0 91 -32 91 -74c0 -40 -35 -66 -85 -80l-7 -27h-34zM95 0v710h88v-710h-88z" />
    <glyph glyph-name="Imacron" unicode="&#x12a;" horiz-adv-x="278" 
d="M-6 831v69h287v-69h-287zM95 0v710h88v-710h-88z" />
    <glyph glyph-name="Iogonek" unicode="&#x12e;" horiz-adv-x="278" 
d="M187 -120l6 -53c-18 -8 -40 -13 -68 -13c-62 0 -100 32 -100 84c0 34 25 75 70 105v707h88v-710h-10c-50 -14 -81 -51 -81 -84c0 -27 15 -45 49 -45c25 0 33 2 46 9z" />
    <glyph glyph-name="Itilde" unicode="&#x128;" horiz-adv-x="278" 
d="M217 797c-35 0 -63 19 -88 36c-20 12 -39 23 -58 23c-27 0 -47 -21 -60 -55l-52 23c18 60 52 99 103 99c36 0 59 -15 82 -29c21 -14 40 -30 63 -30c24 0 46 19 58 55l52 -17c-18 -67 -56 -105 -100 -105zM95 0v710h88v-710h-88z" />
    <glyph glyph-name="J" unicode="J" horiz-adv-x="497" 
d="M218 -5c-63 0 -137 30 -186 90l49 64c34 -39 85 -71 134 -71c69 0 117 40 117 155v477h86v-479c0 -152 -59 -236 -200 -236z" />
    <glyph glyph-name="Jcircumflex" unicode="&#x134;" horiz-adv-x="497" 
d="M410 934l119 -143h-82l-72 89h-2l-72 -89h-82l116 143h75zM332 233v477h86v-479c0 -152 -59 -236 -200 -236c-63 0 -137 30 -186 90l49 64c34 -39 85 -71 134 -71c69 0 117 40 117 155z" />
    <glyph glyph-name="K" unicode="K" horiz-adv-x="650" 
d="M281 316h-3l-101 -120v-196h-87v710h87v-390h2l323 390h111l-275 -323l283 -387h-109z" />
    <glyph glyph-name="Kcommaaccent" unicode="&#x136;" horiz-adv-x="650" 
d="M338 387l283 -387h-109l-231 316h-3l-101 -120v-196h-87v710h87v-390h2l323 390h111zM293 -53h74c4 -16 5 -31 5 -51c0 -65 -46 -103 -113 -108l-20 49c46 10 60 32 60 64c0 17 -2 28 -6 46z" />
    <glyph glyph-name="L" unicode="L" horiz-adv-x="562" 
d="M90 0v710h87v-630h352v-80h-439z" />
    <glyph glyph-name="Lacute" unicode="&#x139;" horiz-adv-x="562" 
d="M195 792l117 141l92 1l-124 -142h-85zM90 0v710h87v-630h352v-80h-439z" />
    <glyph glyph-name="Lcaron" unicode="&#x13d;" horiz-adv-x="562" 
d="M306 588l28 184h81l-49 -184h-60zM90 0v710h87v-630h352v-80h-439z" />
    <glyph glyph-name="Lcommaaccent" unicode="&#x13b;" horiz-adv-x="562" 
d="M90 0v710h87v-630h352v-80h-439zM232 -212l-20 49c46 10 60 32 60 64c0 17 -2 28 -6 46h74c4 -16 5 -31 5 -51c0 -65 -46 -103 -113 -108z" />
    <glyph glyph-name="Ldot" unicode="&#x13f;" horiz-adv-x="562" 
d="M90 0v710h87v-630h352v-80h-439zM737 381c-33 0 -58 25 -58 56c0 32 25 57 58 57c31 0 57 -25 57 -57c0 -31 -26 -56 -57 -56z" />
    <glyph glyph-name="Lslash" unicode="&#x141;" horiz-adv-x="576" 
d="M191 80h352v-80h-439v285l-81 -38v73l81 39v351h87v-310l88 42v-74l-88 -42v-246z" />
    <glyph glyph-name="M" unicode="M" horiz-adv-x="879" 
d="M702 710h87v-710h-87v544h-2l-231 -401h-59l-231 401h-2v-544h-87v710h88l261 -459h2z" />
    <glyph glyph-name="N" unicode="N" horiz-adv-x="756" 
d="M579 710h87v-710h-89l-398 560h-2v-560h-87v710h86l401 -566h2v566z" />
    <glyph glyph-name="Nacute" unicode="&#x143;" horiz-adv-x="756" 
d="M498 934l-124 -142h-85l117 141zM579 710h87v-710h-89l-398 560h-2v-560h-87v710h86l401 -566h2v566z" />
    <glyph glyph-name="Ncaron" unicode="&#x147;" horiz-adv-x="756" 
d="M411 791h-74l-116 143h82l72 -90h2l72 90h82zM579 710h87v-710h-89l-398 560h-2v-560h-87v710h86l401 -566h2v566z" />
    <glyph glyph-name="Ncommaaccent" unicode="&#x145;" horiz-adv-x="756" 
d="M579 710h87v-710h-89l-398 560h-2v-560h-87v710h86l401 -566h2v566zM338 -53h74c4 -16 5 -31 5 -51c0 -65 -46 -103 -113 -108l-20 49c46 10 60 32 60 64c0 17 -2 28 -6 46z" />
    <glyph glyph-name="Eng" unicode="&#x14a;" horiz-adv-x="756" 
d="M579 710h87v-678v-83c0 -95 -47 -153 -131 -153c-28 0 -53 4 -84 16l13 69c16 -10 35 -15 51 -15c36 0 64 27 64 80v52l-400 563h-2v-561h-87v710h85l401 -566h3v566z" />
    <glyph glyph-name="uni019D" unicode="&#x19d;" horiz-adv-x="756" 
d="M579 710h87v-710h-89l-398 560h-2v-560v-51c0 -95 -47 -153 -130 -153c-28 0 -53 4 -84 16l14 69c16 -10 34 -15 50 -15c36 0 63 27 63 80v260v504h86l401 -566h2v566z" />
    <glyph glyph-name="Ntilde" unicode="&#xd1;" horiz-adv-x="756" 
d="M310 856c-27 0 -47 -21 -60 -55l-52 23c18 60 52 99 103 99c36 0 59 -15 82 -29c21 -14 40 -30 63 -30c24 0 46 19 58 55l52 -17c-18 -67 -56 -105 -100 -105c-35 0 -63 19 -88 36c-20 12 -39 23 -58 23zM579 710h87v-710h-89l-398 560h-2v-560h-87v710h86l401 -566h2
v566z" />
    <glyph glyph-name="O" unicode="O" horiz-adv-x="829" 
d="M416 -6c-213 0 -357 156 -357 361s144 362 357 362c200 0 354 -145 354 -362c0 -216 -154 -361 -354 -361zM416 77c147 0 263 115 263 278c0 165 -116 279 -263 279c-159 0 -267 -125 -267 -279s108 -278 267 -278z" />
    <glyph glyph-name="Oacute" unicode="&#xd3;" horiz-adv-x="829" 
d="M380 791l117 141l92 1l-124 -142h-85zM416 -6c-213 0 -357 156 -357 361s144 362 357 362c200 0 354 -145 354 -362c0 -216 -154 -361 -354 -361zM416 77c147 0 263 115 263 278c0 165 -116 279 -263 279c-159 0 -267 -125 -267 -279s108 -278 267 -278z" />
    <glyph glyph-name="Obreve" unicode="&#x14e;" horiz-adv-x="829" 
d="M416 789c-74 0 -138 49 -145 140h66c3 -46 31 -80 79 -80c46 0 76 32 79 80h65c-6 -85 -64 -140 -144 -140zM416 -6c-213 0 -357 156 -357 361s144 362 357 362c200 0 354 -145 354 -362c0 -216 -154 -361 -354 -361zM416 77c147 0 263 115 263 278
c0 165 -116 279 -263 279c-159 0 -267 -125 -267 -279s108 -278 267 -278z" />
    <glyph glyph-name="Ocircumflex" unicode="&#xd4;" horiz-adv-x="829" 
d="M414 880l-72 -89h-82l116 143h75l119 -143h-82l-72 89h-2zM416 717c200 0 354 -145 354 -362c0 -216 -154 -361 -354 -361c-213 0 -357 156 -357 361s144 362 357 362zM416 77c147 0 263 115 263 278c0 165 -116 279 -263 279c-159 0 -267 -125 -267 -279
s108 -278 267 -278z" />
    <glyph glyph-name="uni1ED0" unicode="&#x1ed0;" horiz-adv-x="829" 
d="M759 950l-143 -142h-66l118 141zM414 858l-72 -89h-82l116 143h75l119 -143h-82l-72 89h-2zM416 717c200 0 354 -145 354 -362c0 -216 -154 -361 -354 -361c-213 0 -357 156 -357 361s144 362 357 362zM416 77c147 0 263 115 263 278c0 165 -116 279 -263 279
c-159 0 -267 -125 -267 -279s108 -278 267 -278z" />
    <glyph glyph-name="uni1ED8" unicode="&#x1ed8;" horiz-adv-x="829" 
d="M414 879l-72 -89h-82l116 143h75l119 -143h-82l-72 89h-2zM416 717c200 0 354 -145 354 -362c0 -216 -154 -361 -354 -361c-213 0 -357 156 -357 361s144 362 357 362zM416 77c147 0 263 115 263 278c0 165 -116 279 -263 279c-159 0 -267 -125 -267 -279
s108 -278 267 -278zM416 -111c33 0 58 -25 58 -57c0 -31 -25 -57 -58 -57c-32 0 -58 26 -58 57c0 32 26 57 58 57z" />
    <glyph glyph-name="uni1ED2" unicode="&#x1ed2;" horiz-adv-x="829" 
d="M669 809h-65l-124 141h91zM415 858l-72 -89h-82l116 143h75l119 -143h-82l-72 89h-2zM416 717c200 0 354 -145 354 -362c0 -216 -154 -361 -354 -361c-213 0 -357 156 -357 361s144 362 357 362zM416 77c147 0 263 115 263 278c0 165 -116 279 -263 279
c-159 0 -267 -125 -267 -279s108 -278 267 -278z" />
    <glyph glyph-name="uni1ED4" unicode="&#x1ed4;" horiz-adv-x="829" 
d="M614 911c-27 0 -53 -13 -70 -32l-34 33c24 26 66 46 110 46c55 0 88 -33 88 -75c0 -40 -35 -66 -82 -80l-6 -27h-35c-9 10 -15 16 -15 27c0 32 80 42 80 79c0 20 -17 29 -36 29zM414 858l-72 -89h-82l116 143h75l119 -143h-82l-72 89h-2zM416 717
c200 0 354 -145 354 -362c0 -216 -154 -361 -354 -361c-213 0 -357 156 -357 361s144 362 357 362zM416 77c147 0 263 115 263 278c0 165 -116 279 -263 279c-159 0 -267 -125 -267 -279s108 -278 267 -278z" />
    <glyph glyph-name="uni1ED6" unicode="&#x1ed6;" horiz-adv-x="829" 
d="M354 918c-18 0 -35 -14 -46 -40l-44 16c15 44 45 71 83 71c31 0 54 -14 74 -26c16 -9 31 -17 49 -17c21 0 40 13 50 40l44 -12c-16 -49 -48 -75 -86 -75c-27 0 -50 12 -70 23c-19 11 -36 20 -54 20zM412 815l-76 -80h-77l116 122h75l119 -122h-77l-76 80h-4zM416 717
c200 0 354 -145 354 -362c0 -216 -154 -361 -354 -361c-213 0 -357 156 -357 361s144 362 357 362zM416 77c147 0 263 115 263 278c0 165 -116 279 -263 279c-159 0 -267 -125 -267 -279s108 -278 267 -278z" />
    <glyph glyph-name="Odieresis" unicode="&#xd6;" horiz-adv-x="829" 
d="M325 812c-33 0 -58 25 -58 57c0 31 25 57 58 57c32 0 58 -26 58 -57c0 -32 -26 -57 -58 -57zM506 813c-32 0 -57 25 -57 56c0 30 25 56 57 56s57 -26 57 -56c0 -31 -25 -56 -57 -56zM416 -6c-213 0 -357 156 -357 361s144 362 357 362c200 0 354 -145 354 -362
c0 -216 -154 -361 -354 -361zM416 77c147 0 263 115 263 278c0 165 -116 279 -263 279c-159 0 -267 -125 -267 -279s108 -278 267 -278z" />
    <glyph glyph-name="uni1ECC" unicode="&#x1ecc;" horiz-adv-x="829" 
d="M416 -6c-213 0 -357 156 -357 361s144 362 357 362c200 0 354 -145 354 -362c0 -216 -154 -361 -354 -361zM416 77c147 0 263 115 263 278c0 165 -116 279 -263 279c-159 0 -267 -125 -267 -279s108 -278 267 -278zM416 -111c33 0 58 -25 58 -57c0 -31 -25 -57 -58 -57
c-32 0 -58 26 -58 57c0 32 26 57 58 57z" />
    <glyph glyph-name="Ograve" unicode="&#xd2;" horiz-adv-x="829" 
d="M377 791l-124 142l93 -1l117 -141h-86zM416 -6c-213 0 -357 156 -357 361s144 362 357 362c200 0 354 -145 354 -362c0 -216 -154 -361 -354 -361zM416 77c147 0 263 115 263 278c0 165 -116 279 -263 279c-159 0 -267 -125 -267 -279s108 -278 267 -278z" />
    <glyph glyph-name="uni1ECE" unicode="&#x1ece;" horiz-adv-x="829" 
d="M391 767c-9 9 -15 16 -15 27c0 32 83 42 83 79c0 23 -21 29 -39 29c-27 0 -53 -13 -70 -32l-35 32c25 26 66 46 111 46c58 0 91 -32 91 -74c0 -40 -35 -66 -85 -80l-7 -27h-34zM416 -6c-213 0 -357 156 -357 361s144 362 357 362c200 0 354 -145 354 -362
c0 -216 -154 -361 -354 -361zM416 77c147 0 263 115 263 278c0 165 -116 279 -263 279c-159 0 -267 -125 -267 -279s108 -278 267 -278z" />
    <glyph glyph-name="Ohorn" unicode="&#x1a0;" horiz-adv-x="870" 
d="M755 774h83v-73c0 -94 -37 -152 -107 -171v-1c25 -50 39 -109 39 -174c0 -216 -154 -361 -354 -361c-213 0 -357 156 -357 361s144 362 357 362c117 0 219 -50 282 -135c49 14 57 56 57 124v68zM416 77c147 0 263 115 263 278c0 165 -116 279 -263 279
c-159 0 -267 -125 -267 -279s108 -278 267 -278z" />
    <glyph glyph-name="uni1EDA" unicode="&#x1eda;" horiz-adv-x="870" 
d="M589 933l-124 -142h-85l117 141zM755 774h83v-73c0 -94 -37 -152 -107 -171v-1c25 -50 39 -109 39 -174c0 -216 -154 -361 -354 -361c-213 0 -357 156 -357 361s144 362 357 362c117 0 219 -50 282 -135c49 14 57 56 57 124v68zM416 77c147 0 263 115 263 278
c0 165 -116 279 -263 279c-159 0 -267 -125 -267 -279s108 -278 267 -278z" />
    <glyph glyph-name="uni1EE2" unicode="&#x1ee2;" horiz-adv-x="870" 
d="M755 774h83v-73c0 -94 -37 -152 -107 -171v-1c25 -50 39 -109 39 -174c0 -216 -154 -361 -354 -361c-213 0 -357 156 -357 361s144 362 357 362c117 0 219 -50 282 -135c49 14 57 56 57 124v68zM416 77c147 0 263 115 263 278c0 165 -116 279 -263 279
c-159 0 -267 -125 -267 -279s108 -278 267 -278zM416 -111c33 0 58 -25 58 -57c0 -31 -25 -57 -58 -57c-32 0 -58 26 -58 57c0 32 26 57 58 57z" />
    <glyph glyph-name="uni1EDC" unicode="&#x1edc;" horiz-adv-x="870" 
d="M463 791h-86l-124 142l93 -1zM755 774h83v-73c0 -94 -37 -152 -107 -171v-1c25 -50 39 -109 39 -174c0 -216 -154 -361 -354 -361c-213 0 -357 156 -357 361s144 362 357 362c117 0 219 -50 282 -135c49 14 57 56 57 124v68zM416 77c147 0 263 115 263 278
c0 165 -116 279 -263 279c-159 0 -267 -125 -267 -279s108 -278 267 -278z" />
    <glyph glyph-name="uni1EDE" unicode="&#x1ede;" horiz-adv-x="870" 
d="M420 902c-27 0 -53 -13 -70 -32l-35 32c25 26 66 46 111 46c58 0 91 -32 91 -74c0 -40 -35 -66 -85 -80l-7 -27h-34c-9 9 -15 16 -15 27c0 32 83 42 83 79c0 23 -21 29 -39 29zM755 774h83v-73c0 -94 -37 -152 -107 -171v-1c25 -50 39 -109 39 -174
c0 -216 -154 -361 -354 -361c-213 0 -357 156 -357 361s144 362 357 362c117 0 219 -50 282 -135c49 14 57 56 57 124v68zM416 77c147 0 263 115 263 278c0 165 -116 279 -263 279c-159 0 -267 -125 -267 -279s108 -278 267 -278z" />
    <glyph glyph-name="uni1EE0" unicode="&#x1ee0;" horiz-adv-x="870" 
d="M349 856c-27 0 -47 -21 -60 -55l-52 23c18 60 52 99 103 99c36 0 59 -15 82 -29c21 -14 40 -30 63 -30c24 0 46 19 58 55l52 -17c-18 -67 -56 -105 -100 -105c-35 0 -63 19 -88 36c-20 12 -39 23 -58 23zM755 774h83v-73c0 -94 -37 -152 -107 -171v-1
c25 -50 39 -109 39 -174c0 -216 -154 -361 -354 -361c-213 0 -357 156 -357 361s144 362 357 362c117 0 219 -50 282 -135c49 14 57 56 57 124v68zM416 77c147 0 263 115 263 278c0 165 -116 279 -263 279c-159 0 -267 -125 -267 -279s108 -278 267 -278z" />
    <glyph glyph-name="Ohungarumlaut" unicode="&#x150;" horiz-adv-x="829" 
d="M293 792l117 141l86 1l-124 -142h-79zM460 792l117 141l86 1l-124 -142h-79zM416 -6c-213 0 -357 156 -357 361s144 362 357 362c200 0 354 -145 354 -362c0 -216 -154 -361 -354 -361zM416 77c147 0 263 115 263 278c0 165 -116 279 -263 279
c-159 0 -267 -125 -267 -279s108 -278 267 -278z" />
    <glyph glyph-name="Omacron" unicode="&#x14c;" horiz-adv-x="829" 
d="M272 831v69h287v-69h-287zM416 -6c-213 0 -357 156 -357 361s144 362 357 362c200 0 354 -145 354 -362c0 -216 -154 -361 -354 -361zM416 77c147 0 263 115 263 278c0 165 -116 279 -263 279c-159 0 -267 -125 -267 -279s108 -278 267 -278z" />
    <glyph glyph-name="uni01EA" unicode="&#x1ea;" horiz-adv-x="829" 
d="M472 -2c-46 -15 -74 -50 -74 -82c0 -27 15 -45 49 -45c25 0 33 2 46 9l6 -53c-18 -8 -40 -13 -68 -13c-62 0 -100 32 -100 84c0 30 19 67 56 95v2c-197 13 -328 164 -328 360c0 205 144 362 357 362c200 0 354 -145 354 -362c0 -195 -126 -332 -298 -357zM149 355
c0 -154 108 -278 267 -278c147 0 263 115 263 278c0 165 -116 279 -263 279c-159 0 -267 -125 -267 -279z" />
    <glyph glyph-name="Oslash" unicode="&#xd8;" horiz-adv-x="829" 
d="M774 683l-84 -90c50 -62 80 -143 80 -238c0 -216 -154 -361 -354 -361c-85 0 -158 25 -216 67l-81 -87l-53 48l81 87c-56 64 -88 149 -88 246c0 205 144 362 357 362c86 0 164 -27 225 -75l82 88zM149 355c0 -69 21 -131 59 -180l373 402c-45 36 -102 57 -165 57
c-159 0 -267 -125 -267 -279zM679 355c0 66 -19 124 -51 170l-369 -399c43 -31 96 -49 157 -49c147 0 263 115 263 278z" />
    <glyph glyph-name="Oslashacute" unicode="&#x1fe;" horiz-adv-x="829" 
d="M573 934l-124 -142h-85l117 141zM774 683l-84 -90c50 -62 80 -143 80 -238c0 -216 -154 -361 -354 -361c-85 0 -158 25 -216 67l-81 -87l-53 48l81 87c-56 64 -88 149 -88 246c0 205 144 362 357 362c86 0 164 -27 225 -75l82 88zM149 355c0 -69 21 -131 59 -180l373 402
c-45 36 -102 57 -165 57c-159 0 -267 -125 -267 -279zM679 355c0 66 -19 124 -51 170l-369 -399c43 -31 96 -49 157 -49c147 0 263 115 263 278z" />
    <glyph glyph-name="Otilde" unicode="&#xd5;" horiz-adv-x="829" 
d="M495 797c-35 0 -63 19 -88 36c-20 12 -39 23 -58 23c-27 0 -47 -21 -60 -55l-52 23c18 60 52 99 103 99c36 0 59 -15 82 -29c21 -14 40 -30 63 -30c24 0 46 19 58 55l52 -17c-18 -67 -56 -105 -100 -105zM416 -6c-213 0 -357 156 -357 361s144 362 357 362
c200 0 354 -145 354 -362c0 -216 -154 -361 -354 -361zM416 77c147 0 263 115 263 278c0 165 -116 279 -263 279c-159 0 -267 -125 -267 -279s108 -278 267 -278z" />
    <glyph glyph-name="OE" unicode="&#x152;" horiz-adv-x="959" 
d="M541 80h366v-80h-453h-36c-214 0 -359 158 -359 356c0 199 145 355 359 354h63h406v-80h-346v-238h287v-80h-287v-232zM418 82h36v547h-36c-150 1 -269 -113 -269 -273c0 -159 119 -275 269 -274z" />
    <glyph glyph-name="P" unicode="P" horiz-adv-x="618" 
d="M90 0v710h249c166 0 235 -94 235 -220c0 -150 -102 -219 -250 -219h-147v-271h-87zM177 351h139c119 0 167 60 167 141c0 90 -58 138 -153 138h-153v-279z" />
    <glyph glyph-name="Thorn" unicode="&#xde;" horiz-adv-x="637" 
d="M90 0v710h87v-140h181c166 0 234 -94 234 -220c0 -149 -101 -218 -249 -218h-166v-132h-87zM177 212h159c117 0 166 60 166 140c0 90 -58 138 -153 138h-172v-278z" />
    <glyph glyph-name="Q" unicode="Q" horiz-adv-x="846" 
d="M787 48l-50 -63l-94 86c-61 -49 -140 -77 -227 -77c-213 0 -357 156 -357 361s144 362 357 362c200 0 354 -145 354 -362c0 -90 -27 -167 -72 -227zM416 77c62 0 117 20 160 54l-81 74l49 60l86 -77c31 46 49 104 49 167c0 159 -111 279 -263 279
c-154 0 -267 -120 -267 -279s113 -278 267 -278z" />
    <glyph glyph-name="R" unicode="R" horiz-adv-x="647" 
d="M596 0h-105l-180 271h-134v-271h-87v710h252c164 0 235 -94 235 -220c0 -121 -66 -189 -169 -211v-1zM177 630v-279h142c118 0 168 60 168 141c0 90 -59 138 -156 138h-154z" />
    <glyph glyph-name="Racute" unicode="&#x154;" horiz-adv-x="647" 
d="M441 934l-124 -142h-85l117 141zM596 0h-105l-180 271h-134v-271h-87v710h252c164 0 235 -94 235 -220c0 -121 -66 -189 -169 -211v-1zM177 630v-279h142c118 0 168 60 168 141c0 90 -59 138 -156 138h-154z" />
    <glyph glyph-name="Rcaron" unicode="&#x158;" horiz-adv-x="647" 
d="M354 791h-74l-116 143h82l72 -90h2l72 90h82zM596 0h-105l-180 271h-134v-271h-87v710h252c164 0 235 -94 235 -220c0 -121 -66 -189 -169 -211v-1zM177 630v-279h142c118 0 168 60 168 141c0 90 -59 138 -156 138h-154z" />
    <glyph glyph-name="Rcommaaccent" unicode="&#x156;" horiz-adv-x="647" 
d="M408 278l188 -278h-105l-180 271h-134v-271h-87v710h252c164 0 235 -94 235 -220c0 -121 -66 -189 -169 -211v-1zM177 630v-279h142c118 0 168 60 168 141c0 90 -59 138 -156 138h-154zM278 -53h74c4 -16 5 -31 5 -51c0 -65 -46 -103 -113 -108l-20 49c46 10 60 32 60 64
c0 17 -2 28 -6 46z" />
    <glyph glyph-name="S" unicode="S" horiz-adv-x="584" 
d="M296 -6c-89 0 -181 34 -252 110l56 66c51 -63 128 -94 197 -94c87 0 145 41 145 109c0 80 -64 101 -159 137c-105 39 -212 84 -212 207c0 106 96 187 217 188c79 0 157 -29 225 -83l-53 -68c-56 47 -119 70 -172 70c-66 0 -126 -36 -126 -103c-1 -68 63 -92 151 -127
c120 -46 220 -79 220 -212c0 -131 -115 -200 -237 -200z" />
    <glyph glyph-name="Sacute" unicode="&#x15a;" horiz-adv-x="584" 
d="M242 791l117 141l92 1l-124 -142h-85zM296 -6c-89 0 -181 34 -252 110l56 66c51 -63 128 -94 197 -94c87 0 145 41 145 109c0 80 -64 101 -159 137c-105 39 -212 84 -212 207c0 106 96 187 217 188c79 0 157 -29 225 -83l-53 -68c-56 47 -119 70 -172 70
c-66 0 -126 -36 -126 -103c-1 -68 63 -92 151 -127c120 -46 220 -79 220 -212c0 -131 -115 -200 -237 -200z" />
    <glyph glyph-name="Scaron" unicode="&#x160;" horiz-adv-x="584" 
d="M325 791h-74l-116 143h82l72 -90h2l72 90h82zM313 406c120 -46 220 -79 220 -212c0 -131 -115 -200 -237 -200c-89 0 -181 34 -252 110l56 66c51 -63 128 -94 197 -94c87 0 145 41 145 109c0 80 -64 101 -159 137c-105 39 -212 84 -212 207c0 106 96 187 217 188
c79 0 157 -29 225 -83l-53 -68c-56 47 -119 70 -172 70c-66 0 -126 -36 -126 -103c-1 -68 63 -92 151 -127z" />
    <glyph glyph-name="Scedilla" unicode="&#x15e;" horiz-adv-x="584" 
d="M309 -6l-12 -25l1 -2c52 -3 87 -31 87 -79c0 -42 -33 -76 -107 -76c-24 0 -41 3 -56 6v44c13 -4 27 -7 48 -7c29 0 56 11 56 37c0 22 -27 42 -83 42v30l15 32c-77 8 -153 43 -214 108l56 66c51 -63 128 -94 197 -94c87 0 145 41 145 109c0 80 -64 101 -159 137
c-105 39 -212 84 -212 207c0 106 96 187 217 188c79 0 157 -29 225 -83l-53 -68c-56 47 -119 70 -172 70c-66 0 -126 -36 -126 -103c-1 -68 63 -92 151 -127c120 -46 220 -79 220 -212c0 -126 -107 -195 -224 -200z" />
    <glyph glyph-name="Scircumflex" unicode="&#x15c;" horiz-adv-x="584" 
d="M289 880l-72 -89h-82l116 143h75l119 -143h-82l-72 89h-2zM313 406c120 -46 220 -79 220 -212c0 -131 -115 -200 -237 -200c-89 0 -181 34 -252 110l56 66c51 -63 128 -94 197 -94c87 0 145 41 145 109c0 80 -64 101 -159 137c-105 39 -212 84 -212 207
c0 106 96 187 217 188c79 0 157 -29 225 -83l-53 -68c-56 47 -119 70 -172 70c-66 0 -126 -36 -126 -103c-1 -68 63 -92 151 -127z" />
    <glyph glyph-name="Scommaaccent" unicode="&#x218;" horiz-adv-x="584" 
d="M296 -6c-89 0 -181 34 -252 110l56 66c51 -63 128 -94 197 -94c87 0 145 41 145 109c0 80 -64 101 -159 137c-105 39 -212 84 -212 207c0 106 96 187 217 188c79 0 157 -29 225 -83l-53 -68c-56 47 -119 70 -172 70c-66 0 -126 -36 -126 -103c-1 -68 63 -92 151 -127
c120 -46 220 -79 220 -212c0 -131 -115 -200 -237 -200zM228 -212l-20 49c46 10 60 32 60 64c0 17 -2 28 -6 46h74c4 -16 5 -31 5 -51c0 -65 -46 -103 -113 -108z" />
    <glyph glyph-name="uni1E9E" unicode="&#x1e9e;" horiz-adv-x="743" 
d="M492 406c119 -47 219 -79 219 -212c0 -131 -114 -200 -231 -200c-73 0 -155 27 -221 88l41 79c51 -58 122 -86 181 -86c81 0 140 40 140 110c0 78 -65 100 -160 135c-33 12 -67 27 -103 44l10 16l126 241v1c-62 9 -124 15 -167 15c-116 0 -171 -41 -171 -150l-1 -487h-87
l1 492c0 157 91 225 248 225c70 0 192 -18 297 -42l-139 -261l2 -2z" />
    <glyph glyph-name="uni018F" unicode="&#x18f;" horiz-adv-x="716" 
d="M341 717c184 0 316 -148 316 -363c0 -211 -128 -360 -309 -360c-159 0 -295 119 -295 342c0 14 0 28 2 35h513c-7 157 -97 263 -229 263c-68 0 -118 -19 -161 -41l-40 73c42 24 111 51 203 51zM345 77c117 0 199 85 219 215h-422c12 -128 92 -215 203 -215z" />
    <glyph glyph-name="T" unicode="T" horiz-adv-x="577" 
d="M244 0v630h-213v80h514v-80h-214v-630h-87z" />
    <glyph glyph-name="Tbar" unicode="&#x166;" horiz-adv-x="577" 
d="M545 630h-214v-233h120v-73h-120v-324h-87v324h-115v73h115v233h-213v80h514v-80z" />
    <glyph glyph-name="Tcaron" unicode="&#x164;" horiz-adv-x="577" 
d="M321 791h-74l-116 143h82l72 -90h2l72 90h82zM31 710h514v-80h-214v-630h-87v630h-213v80z" />
    <glyph glyph-name="uni0162" unicode="&#x162;" horiz-adv-x="577" 
d="M293 0l-14 -31l1 -2c52 -3 87 -31 87 -79c0 -42 -33 -76 -107 -76c-24 0 -41 3 -56 6v44c13 -4 27 -7 48 -7c29 0 56 11 56 37c0 22 -27 42 -83 42v30l19 40v626h-213v80h514v-80h-214v-630h-38z" />
    <glyph glyph-name="uni021A" unicode="&#x21a;" horiz-adv-x="577" 
d="M244 0v630h-213v80h514v-80h-214v-630h-87zM210 -212l-20 49c46 10 60 32 60 64c0 17 -2 28 -6 46h74c4 -16 5 -31 5 -51c0 -65 -46 -103 -113 -108z" />
    <glyph glyph-name="U" unicode="U" horiz-adv-x="711" 
d="M354 -6c-162 0 -274 108 -274 295v421h87v-415c0 -131 73 -218 187 -218c111 0 189 81 189 218v415h87v-421c0 -183 -107 -295 -276 -295z" />
    <glyph glyph-name="Uacute" unicode="&#xda;" horiz-adv-x="711" 
d="M293 791l117 141l92 1l-124 -142h-85zM354 -6c-162 0 -274 108 -274 295v421h87v-415c0 -131 73 -218 187 -218c111 0 189 81 189 218v415h87v-421c0 -183 -107 -295 -276 -295z" />
    <glyph glyph-name="Ubreve" unicode="&#x16c;" horiz-adv-x="711" 
d="M355 789c-74 0 -138 49 -145 140h66c3 -46 31 -80 79 -80c46 0 76 32 79 80h65c-6 -85 -64 -140 -144 -140zM354 -6c-162 0 -274 108 -274 295v421h87v-415c0 -131 73 -218 187 -218c111 0 189 81 189 218v415h87v-421c0 -183 -107 -295 -276 -295z" />
    <glyph glyph-name="Ucircumflex" unicode="&#xdb;" horiz-adv-x="711" 
d="M353 880l-72 -89h-82l116 143h75l119 -143h-82l-72 89h-2zM543 710h87v-421c0 -183 -107 -295 -276 -295c-162 0 -274 108 -274 295v421h87v-415c0 -131 73 -218 187 -218c111 0 189 81 189 218v415z" />
    <glyph glyph-name="Udieresis" unicode="&#xdc;" horiz-adv-x="711" 
d="M264 812c-33 0 -58 25 -58 57c0 31 25 57 58 57c32 0 58 -26 58 -57c0 -32 -26 -57 -58 -57zM445 813c-32 0 -57 25 -57 56c0 30 25 56 57 56s57 -26 57 -56c0 -31 -25 -56 -57 -56zM354 -6c-162 0 -274 108 -274 295v421h87v-415c0 -131 73 -218 187 -218
c111 0 189 81 189 218v415h87v-421c0 -183 -107 -295 -276 -295z" />
    <glyph glyph-name="uni1EE4" unicode="&#x1ee4;" horiz-adv-x="711" 
d="M354 -6c-162 0 -274 108 -274 295v421h87v-415c0 -131 73 -218 187 -218c111 0 189 81 189 218v415h87v-421c0 -183 -107 -295 -276 -295zM355 -111c33 0 58 -25 58 -57c0 -31 -25 -57 -58 -57c-32 0 -58 26 -58 57c0 32 26 57 58 57z" />
    <glyph glyph-name="Ugrave" unicode="&#xd9;" horiz-adv-x="711" 
d="M335 791l-124 142l93 -1l117 -141h-86zM354 -6c-162 0 -274 108 -274 295v421h87v-415c0 -131 73 -218 187 -218c111 0 189 81 189 218v415h87v-421c0 -183 -107 -295 -276 -295z" />
    <glyph glyph-name="uni1EE6" unicode="&#x1ee6;" horiz-adv-x="711" 
d="M330 767c-9 9 -15 16 -15 27c0 32 83 42 83 79c0 23 -21 29 -39 29c-27 0 -53 -13 -70 -32l-35 32c25 26 66 46 111 46c58 0 91 -32 91 -74c0 -40 -35 -66 -85 -80l-7 -27h-34zM354 -6c-162 0 -274 108 -274 295v421h87v-415c0 -131 73 -218 187 -218
c111 0 189 81 189 218v415h87v-421c0 -183 -107 -295 -276 -295z" />
    <glyph glyph-name="Uhorn" unicode="&#x1af;" horiz-adv-x="792" 
d="M701 774h83v-73c0 -114 -54 -175 -154 -177v-235c0 -183 -107 -295 -276 -295c-162 0 -274 108 -274 295v421h87v-415c0 -131 73 -218 187 -218c111 0 189 81 189 218v415h87v-131c62 9 71 53 71 127v68z" />
    <glyph glyph-name="uni1EE8" unicode="&#x1ee8;" horiz-adv-x="792" 
d="M502 933l-124 -142h-85l117 141zM701 774h83v-73c0 -114 -54 -175 -154 -177v-235c0 -183 -107 -295 -276 -295c-162 0 -274 108 -274 295v421h87v-415c0 -131 73 -218 187 -218c111 0 189 81 189 218v415h87v-131c62 9 71 53 71 127v68z" />
    <glyph glyph-name="uni1EF0" unicode="&#x1ef0;" horiz-adv-x="792" 
d="M701 774h83v-73c0 -114 -54 -175 -154 -177v-235c0 -183 -107 -295 -276 -295c-162 0 -274 108 -274 295v421h87v-415c0 -131 73 -218 187 -218c111 0 189 81 189 218v415h87v-131c62 9 71 53 71 127v68zM355 -111c33 0 58 -25 58 -57c0 -31 -25 -57 -58 -57
c-32 0 -58 26 -58 57c0 32 26 57 58 57z" />
    <glyph glyph-name="uni1EEA" unicode="&#x1eea;" horiz-adv-x="792" 
d="M421 791h-86l-124 142l93 -1zM701 774h83v-73c0 -114 -54 -175 -154 -177v-235c0 -183 -107 -295 -276 -295c-162 0 -274 108 -274 295v421h87v-415c0 -131 73 -218 187 -218c111 0 189 81 189 218v415h87v-131c62 9 71 53 71 127v68z" />
    <glyph glyph-name="uni1EEC" unicode="&#x1eec;" horiz-adv-x="792" 
d="M359 902c-27 0 -53 -13 -70 -32l-35 32c25 26 66 46 111 46c58 0 91 -32 91 -74c0 -40 -35 -66 -85 -80l-7 -27h-34c-9 9 -15 16 -15 27c0 32 83 42 83 79c0 23 -21 29 -39 29zM701 774h83v-73c0 -114 -54 -175 -154 -177v-235c0 -183 -107 -295 -276 -295
c-162 0 -274 108 -274 295v421h87v-415c0 -131 73 -218 187 -218c111 0 189 81 189 218v415h87v-131c62 9 71 53 71 127v68z" />
    <glyph glyph-name="uni1EEE" unicode="&#x1eee;" horiz-adv-x="792" 
d="M288 856c-27 0 -47 -21 -60 -55l-52 23c18 60 52 99 103 99c36 0 59 -15 82 -29c21 -14 40 -30 63 -30c24 0 46 19 58 55l52 -17c-18 -67 -56 -105 -100 -105c-35 0 -63 19 -88 36c-20 12 -39 23 -58 23zM701 774h83v-73c0 -114 -54 -175 -154 -177v-235
c0 -183 -107 -295 -276 -295c-162 0 -274 108 -274 295v421h87v-415c0 -131 73 -218 187 -218c111 0 189 81 189 218v415h87v-131c62 9 71 53 71 127v68z" />
    <glyph glyph-name="Uhungarumlaut" unicode="&#x170;" horiz-adv-x="711" 
d="M225 791l117 141l86 1l-124 -142h-79zM392 791l117 141l86 1l-124 -142h-79zM354 -6c-162 0 -274 108 -274 295v421h87v-415c0 -131 73 -218 187 -218c111 0 189 81 189 218v415h87v-421c0 -183 -107 -295 -276 -295z" />
    <glyph glyph-name="Umacron" unicode="&#x16a;" horiz-adv-x="711" 
d="M211 831v69h287v-69h-287zM354 -6c-162 0 -274 108 -274 295v421h87v-415c0 -131 73 -218 187 -218c111 0 189 81 189 218v415h87v-421c0 -183 -107 -295 -276 -295z" />
    <glyph glyph-name="Uogonek" unicode="&#x172;" horiz-adv-x="711" 
d="M543 710h87v-421c0 -152 -74 -256 -197 -286h1c-50 -14 -81 -51 -81 -84c0 -27 15 -45 49 -45c25 0 33 2 46 9l6 -53c-18 -8 -40 -13 -68 -13c-62 0 -100 32 -100 84c0 29 18 64 52 92v1c-153 7 -258 114 -258 295v421h87v-415c0 -131 73 -218 187 -218
c111 0 189 81 189 218v415z" />
    <glyph glyph-name="Uring" unicode="&#x16e;" horiz-adv-x="711" 
d="M354 772c-52 0 -96 42 -96 95c0 52 41 95 96 95c54 0 98 -41 98 -95c0 -51 -42 -95 -98 -95zM355 826c23 0 43 19 43 42s-20 43 -43 43c-24 0 -43 -20 -43 -43c0 -24 19 -42 43 -42zM354 -6c-162 0 -274 108 -274 295v421h87v-415c0 -131 73 -218 187 -218
c111 0 189 81 189 218v415h87v-421c0 -183 -107 -295 -276 -295z" />
    <glyph glyph-name="Utilde" unicode="&#x168;" horiz-adv-x="711" 
d="M434 797c-35 0 -63 19 -88 36c-20 12 -39 23 -58 23c-27 0 -47 -21 -60 -55l-52 23c18 60 52 99 103 99c36 0 59 -15 82 -29c21 -14 40 -30 63 -30c24 0 46 19 58 55l52 -17c-18 -67 -56 -105 -100 -105zM354 -6c-162 0 -274 108 -274 295v421h87v-415
c0 -131 73 -218 187 -218c111 0 189 81 189 218v415h87v-421c0 -183 -107 -295 -276 -295z" />
    <glyph glyph-name="V" unicode="V" horiz-adv-x="674" 
d="M552 710h94l-268 -710h-78l-268 710h94l212 -585h2z" />
    <glyph glyph-name="W" unicode="W" horiz-adv-x="1024" 
d="M896 710h93l-227 -710h-84l-164 582h-1l-167 -582h-84l-227 710h93l175 -567h2l160 567h95l160 -569h1z" />
    <glyph glyph-name="Wacute" unicode="&#x1e82;" horiz-adv-x="1024" 
d="M686 933l-124 -142h-85l117 141zM896 710h93l-227 -710h-84l-164 582h-1l-167 -582h-84l-227 710h93l175 -567h2l160 567h95l160 -569h1z" />
    <glyph glyph-name="Wcircumflex" unicode="&#x174;" horiz-adv-x="1024" 
d="M511 880l-72 -89h-82l116 143h75l119 -143h-82l-72 89h-2zM896 710h93l-227 -710h-84l-164 582h-1l-167 -582h-84l-227 710h93l175 -567h2l160 567h95l160 -569h1z" />
    <glyph glyph-name="Wdieresis" unicode="&#x1e84;" horiz-adv-x="1024" 
d="M422 812c-33 0 -58 25 -58 57c0 31 25 57 58 57c32 0 58 -26 58 -57c0 -32 -26 -57 -58 -57zM603 813c-32 0 -57 25 -57 56c0 30 25 56 57 56s57 -26 57 -56c0 -31 -25 -56 -57 -56zM896 710h93l-227 -710h-84l-164 582h-1l-167 -582h-84l-227 710h93l175 -567h2l160 567
h95l160 -569h1z" />
    <glyph glyph-name="Wgrave" unicode="&#x1e80;" horiz-adv-x="1024" 
d="M553 791h-86l-124 142l93 -1zM896 710h93l-227 -710h-84l-164 582h-1l-167 -582h-84l-227 710h93l175 -567h2l160 567h95l160 -569h1z" />
    <glyph glyph-name="X" unicode="X" horiz-adv-x="667" 
d="M530 0l-195 286h-2l-195 -286h-103l243 355l-240 355h100l195 -287h2l194 287h101l-239 -356l242 -354h-103z" />
    <glyph glyph-name="Y" unicode="Y" horiz-adv-x="604" 
d="M486 710h101l-242 -393v-317h-87v317l-241 393h100l184 -306h2z" />
    <glyph glyph-name="Yacute" unicode="&#xdd;" horiz-adv-x="604" 
d="M464 933l-124 -142h-85l117 141zM486 710h101l-242 -393v-317h-87v317l-241 393h100l184 -306h2z" />
    <glyph glyph-name="Ycircumflex" unicode="&#x176;" horiz-adv-x="604" 
d="M302 880l-72 -89h-82l116 143h75l119 -143h-82l-72 89h-2zM486 710h101l-242 -393v-317h-87v317l-241 393h100l184 -306h2z" />
    <glyph glyph-name="Ydieresis" unicode="&#x178;" horiz-adv-x="604" 
d="M213 812c-33 0 -58 25 -58 57c0 31 25 57 58 57c32 0 58 -26 58 -57c0 -32 -26 -57 -58 -57zM394 813c-32 0 -57 25 -57 56c0 30 25 56 57 56s57 -26 57 -56c0 -31 -25 -56 -57 -56zM486 710h101l-242 -393v-317h-87v317l-241 393h100l184 -306h2z" />
    <glyph glyph-name="uni1EF4" unicode="&#x1ef4;" horiz-adv-x="604" 
d="M258 0v317l-241 393h100l184 -306h2l183 306h101l-242 -393v-317h-87zM301 -111c33 0 58 -25 58 -57c0 -31 -25 -57 -58 -57c-32 0 -58 26 -58 57c0 32 26 57 58 57z" />
    <glyph glyph-name="Ygrave" unicode="&#x1ef2;" horiz-adv-x="604" 
d="M360 791h-86l-124 142l93 -1zM486 710h101l-242 -393v-317h-87v317l-241 393h100l184 -306h2z" />
    <glyph glyph-name="uni1EF6" unicode="&#x1ef6;" horiz-adv-x="604" 
d="M308 902c-27 0 -53 -13 -70 -32l-35 32c25 26 66 46 111 46c58 0 91 -32 91 -74c0 -40 -35 -66 -85 -80l-7 -27h-34c-9 9 -15 16 -15 27c0 32 83 42 83 79c0 23 -21 29 -39 29zM486 710h101l-242 -393v-317h-87v317l-241 393h100l184 -306h2z" />
    <glyph glyph-name="uni0232" unicode="&#x232;" horiz-adv-x="604" 
d="M447 900v-69h-287v69h287zM486 710h101l-242 -393v-317h-87v317l-241 393h100l184 -306h2z" />
    <glyph glyph-name="uni1EF8" unicode="&#x1ef8;" horiz-adv-x="604" 
d="M237 856c-27 0 -47 -21 -60 -55l-52 23c18 60 52 99 103 99c36 0 59 -15 82 -29c21 -14 40 -30 63 -30c24 0 46 19 58 55l52 -17c-18 -67 -56 -105 -100 -105c-35 0 -63 19 -88 36c-20 12 -39 23 -58 23zM486 710h101l-242 -393v-317h-87v317l-241 393h100l184 -306h2z
" />
    <glyph glyph-name="Z" unicode="Z" horiz-adv-x="618" 
d="M170 80h385v-80h-496v69l379 560v1h-359v80h473v-69z" />
    <glyph glyph-name="Zacute" unicode="&#x179;" horiz-adv-x="618" 
d="M428 934l-124 -142h-85l117 141zM170 80h385v-80h-496v69l379 560v1h-359v80h473v-69z" />
    <glyph glyph-name="Zcaron" unicode="&#x17d;" horiz-adv-x="618" 
d="M341 791h-74l-116 143h82l72 -90h2l72 90h82zM170 80h385v-80h-496v69l379 560v1h-359v80h473v-69z" />
    <glyph glyph-name="Zdotaccent" unicode="&#x17b;" horiz-adv-x="618" 
d="M307 812c-33 0 -58 25 -58 57c0 31 25 57 58 57c32 0 58 -26 58 -57c0 -32 -26 -57 -58 -57zM170 80h385v-80h-496v69l379 560v1h-359v80h473v-69z" />
    <glyph glyph-name="Q.alt" horiz-adv-x="829" 
d="M770 355c0 -140 -65 -251 -165 -311l144 -121l-53 -65l-176 150c-33 -9 -68 -14 -104 -14c-213 0 -357 156 -357 361s144 362 357 362c200 0 354 -145 354 -362zM149 355c0 -154 108 -278 267 -279c147 0 263 116 263 279c0 165 -116 279 -263 279
c-159 0 -267 -125 -267 -279z" />
    <glyph glyph-name="a" unicode="a" horiz-adv-x="608" 
d="M455 487h81v-487h-78v77h-1c-39 -52 -99 -83 -170 -83c-135 0 -239 97 -239 246c0 144 100 253 238 253c67 0 127 -28 168 -79h1v73zM294 68c88 0 164 69 164 172c0 100 -69 178 -163 178c-92 0 -165 -70 -165 -178c0 -98 65 -172 164 -172z" />
    <glyph glyph-name="aacute" unicode="&#xe1;" horiz-adv-x="608" 
d="M464 699l-124 -142h-85l117 141zM455 487h81v-487h-78v77h-1c-39 -52 -99 -83 -170 -83c-135 0 -239 97 -239 246c0 144 100 253 238 253c67 0 127 -28 168 -79h1v73zM294 68c88 0 164 69 164 172c0 100 -69 178 -163 178c-92 0 -165 -70 -165 -178
c0 -98 65 -172 164 -172z" />
    <glyph glyph-name="abreve" unicode="&#x103;" horiz-adv-x="608" 
d="M302 554c-74 0 -138 49 -145 140h66c3 -46 31 -80 79 -80c46 0 76 32 79 80h65c-6 -85 -64 -140 -144 -140zM455 487h81v-487h-78v77h-1c-39 -52 -99 -83 -170 -83c-135 0 -239 97 -239 246c0 144 100 253 238 253c67 0 127 -28 168 -79h1v73zM294 68
c88 0 164 69 164 172c0 100 -69 178 -163 178c-92 0 -165 -70 -165 -178c0 -98 65 -172 164 -172z" />
    <glyph glyph-name="uni1EAF" unicode="&#x1eaf;" horiz-adv-x="608" 
d="M445 847l-124 -142h-85l117 141zM301 553c-74 0 -138 49 -145 140h66c3 -46 31 -80 79 -80c46 0 76 32 79 80h65c-6 -85 -64 -140 -144 -140zM455 487h81v-487h-78v77h-1c-39 -52 -99 -83 -170 -83c-135 0 -239 97 -239 246c0 144 100 253 238 253c67 0 127 -28 168 -79
h1v73zM294 68c88 0 164 69 164 172c0 100 -69 178 -163 178c-92 0 -165 -70 -165 -178c0 -98 65 -172 164 -172z" />
    <glyph glyph-name="uni1EB7" unicode="&#x1eb7;" horiz-adv-x="608" 
d="M302 554c-74 0 -138 49 -145 140h66c3 -46 31 -80 79 -80c46 0 76 32 79 80h65c-6 -85 -64 -140 -144 -140zM455 487h81v-487h-78v77h-1c-39 -52 -99 -83 -170 -83c-135 0 -239 97 -239 246c0 144 100 253 238 253c67 0 127 -28 168 -79h1v73zM294 68
c88 0 164 69 164 172c0 100 -69 178 -163 178c-92 0 -165 -70 -165 -178c0 -98 65 -172 164 -172zM295 -111c33 0 58 -25 58 -57c0 -31 -25 -57 -58 -57c-32 0 -58 26 -58 57c0 32 26 57 58 57z" />
    <glyph glyph-name="uni1EB1" unicode="&#x1eb1;" horiz-adv-x="608" 
d="M343 705h-86l-124 142l93 -1zM224 693c3 -46 31 -80 79 -80c46 0 76 32 79 80h65c-6 -85 -64 -140 -144 -140c-74 0 -138 49 -145 140h66zM455 487h81v-487h-78v77h-1c-39 -52 -99 -83 -170 -83c-135 0 -239 97 -239 246c0 144 100 253 238 253c67 0 127 -28 168 -79h1
v73zM294 68c88 0 164 69 164 172c0 100 -69 178 -163 178c-92 0 -165 -70 -165 -178c0 -98 65 -172 164 -172z" />
    <glyph glyph-name="uni1EB3" unicode="&#x1eb3;" horiz-adv-x="608" 
d="M307 819c-27 0 -53 -13 -70 -32l-35 32c25 26 66 46 111 46c58 0 91 -32 91 -74c0 -40 -35 -66 -85 -80l-7 -27h-34c-9 9 -15 16 -15 27c0 32 83 42 83 79c0 23 -21 29 -39 29zM303 553c-74 0 -138 49 -145 140h66c3 -46 31 -80 79 -80c46 0 76 32 79 80h65
c-6 -85 -64 -140 -144 -140zM455 487h81v-487h-78v77h-1c-39 -52 -99 -83 -170 -83c-135 0 -239 97 -239 246c0 144 100 253 238 253c67 0 127 -28 168 -79h1v73zM294 68c88 0 164 69 164 172c0 100 -69 178 -163 178c-92 0 -165 -70 -165 -178c0 -98 65 -172 164 -172z" />
    <glyph glyph-name="uni1EB5" unicode="&#x1eb5;" horiz-adv-x="608" 
d="M236 773c-20 0 -40 -21 -52 -55l-53 23c19 60 54 99 97 99c36 0 56 -15 79 -29c21 -14 40 -30 63 -30c24 0 46 19 58 55l52 -17c-18 -67 -56 -105 -100 -105c-35 0 -63 19 -88 36c-20 12 -34 23 -56 23zM301 613c46 0 76 32 79 80h65c-6 -85 -64 -140 -144 -140
c-74 0 -138 49 -145 140h66c3 -46 31 -80 79 -80zM455 487h81v-487h-78v77h-1c-39 -52 -99 -83 -170 -83c-135 0 -239 97 -239 246c0 144 100 253 238 253c67 0 127 -28 168 -79h1v73zM294 68c88 0 164 69 164 172c0 100 -69 178 -163 178c-92 0 -165 -70 -165 -178
c0 -98 65 -172 164 -172z" />
    <glyph glyph-name="acircumflex" unicode="&#xe2;" horiz-adv-x="608" 
d="M300 645l-72 -89h-82l116 143h75l119 -143h-82l-72 89h-2zM455 487h81v-487h-78v77h-1c-39 -52 -99 -83 -170 -83c-135 0 -239 97 -239 246c0 144 100 253 238 253c67 0 127 -28 168 -79h1v73zM294 68c88 0 164 69 164 172c0 100 -69 178 -163 178
c-92 0 -165 -70 -165 -178c0 -98 65 -172 164 -172z" />
    <glyph glyph-name="uni1EA5" unicode="&#x1ea5;" horiz-adv-x="608" 
d="M619 783l-144 -142h-65l118 142h91zM301 644l-72 -89h-82l116 143h75l119 -143h-82l-72 89h-2zM455 414v73h81v-487h-78v77h-1c-39 -52 -99 -83 -170 -83c-135 0 -239 97 -239 246c0 144 100 253 238 253c67 0 127 -28 168 -79h1zM294 68c88 0 164 69 164 172
c0 100 -69 178 -163 178c-92 0 -165 -70 -165 -178c0 -98 65 -172 164 -172z" />
    <glyph glyph-name="uni1EAD" unicode="&#x1ead;" horiz-adv-x="608" 
d="M300 644l-72 -89h-82l116 143h75l119 -143h-82l-72 89h-2zM455 487h81v-487h-78v77h-1c-39 -52 -99 -83 -170 -83c-135 0 -239 97 -239 246c0 144 100 253 238 253c67 0 127 -28 168 -79h1v73zM294 68c88 0 164 69 164 172c0 100 -69 178 -163 178
c-92 0 -165 -70 -165 -178c0 -98 65 -172 164 -172zM295 -111c33 0 58 -25 58 -57c0 -31 -25 -57 -58 -57c-32 0 -58 26 -58 57c0 32 26 57 58 57z" />
    <glyph glyph-name="uni1EA7" unicode="&#x1ea7;" horiz-adv-x="608" 
d="M516 641h-65l-124 142h91zM298 644l-72 -89h-82l116 143h75l119 -143h-82l-72 89h-2zM455 487h81v-487h-78v77h-1c-39 -52 -99 -83 -170 -83c-135 0 -239 97 -239 246c0 144 100 253 238 253c67 0 127 -28 168 -79h1v73zM294 68c88 0 164 69 164 172
c0 100 -69 178 -163 178c-92 0 -165 -70 -165 -178c0 -98 65 -172 164 -172z" />
    <glyph glyph-name="uni1EA9" unicode="&#x1ea9;" horiz-adv-x="608" 
d="M461 750c-28 0 -54 -12 -70 -31l-35 32c25 26 66 46 111 46c55 0 87 -32 87 -74c0 -40 -34 -66 -82 -81l-6 -26h-34c-9 9 -15 16 -15 27c0 32 79 42 79 79c0 20 -17 28 -35 28zM300 644l-72 -89h-82l116 143h75l119 -143h-82l-72 89h-2zM455 414v73h81v-487h-78v77h-1
c-39 -52 -99 -83 -170 -83c-135 0 -239 97 -239 246c0 144 100 253 238 253c67 0 127 -28 168 -79h1zM294 68c88 0 164 69 164 172c0 100 -69 178 -163 178c-92 0 -165 -70 -165 -178c0 -98 65 -172 164 -172z" />
    <glyph glyph-name="uni1EAB" unicode="&#x1eab;" horiz-adv-x="608" 
d="M237 773c-20 0 -40 -21 -52 -55l-53 23c19 60 54 99 97 99c36 0 56 -15 79 -29c21 -14 40 -30 63 -30c24 0 46 19 58 55l52 -17c-18 -67 -56 -105 -100 -105c-35 0 -63 19 -88 36c-20 12 -34 23 -56 23zM262 698h75l119 -143h-82l-72 89h-2l-72 -89h-82zM455 487h81v-487
h-78v77h-1c-39 -52 -99 -83 -170 -83c-135 0 -239 97 -239 246c0 144 100 253 238 253c67 0 127 -28 168 -79h1v73zM294 68c88 0 164 69 164 172c0 100 -69 178 -163 178c-92 0 -165 -70 -165 -178c0 -98 65 -172 164 -172z" />
    <glyph glyph-name="adieresis" unicode="&#xe4;" horiz-adv-x="608" 
d="M211 577c-33 0 -58 25 -58 57c0 31 25 57 58 57c32 0 58 -26 58 -57c0 -32 -26 -57 -58 -57zM392 578c-32 0 -57 25 -57 56c0 30 25 56 57 56s57 -26 57 -56c0 -31 -25 -56 -57 -56zM455 487h81v-487h-78v77h-1c-39 -52 -99 -83 -170 -83c-135 0 -239 97 -239 246
c0 144 100 253 238 253c67 0 127 -28 168 -79h1v73zM294 68c88 0 164 69 164 172c0 100 -69 178 -163 178c-92 0 -165 -70 -165 -178c0 -98 65 -172 164 -172z" />
    <glyph glyph-name="uni1EA1" unicode="&#x1ea1;" horiz-adv-x="608" 
d="M455 487h81v-487h-78v77h-1c-39 -52 -99 -83 -170 -83c-135 0 -239 97 -239 246c0 144 100 253 238 253c67 0 127 -28 168 -79h1v73zM294 68c88 0 164 69 164 172c0 100 -69 178 -163 178c-92 0 -165 -70 -165 -178c0 -98 65 -172 164 -172zM295 -111c33 0 58 -25 58 -57
c0 -31 -25 -57 -58 -57c-32 0 -58 26 -58 57c0 32 26 57 58 57z" />
    <glyph glyph-name="agrave" unicode="&#xe0;" horiz-adv-x="608" 
d="M371 557h-86l-124 142l93 -1zM455 487h81v-487h-78v77h-1c-39 -52 -99 -83 -170 -83c-135 0 -239 97 -239 246c0 144 100 253 238 253c67 0 127 -28 168 -79h1v73zM294 68c88 0 164 69 164 172c0 100 -69 178 -163 178c-92 0 -165 -70 -165 -178c0 -98 65 -172 164 -172z
" />
    <glyph glyph-name="uni1EA3" unicode="&#x1ea3;" horiz-adv-x="608" 
d="M306 667c-27 0 -53 -13 -70 -32l-35 32c25 26 66 46 111 46c58 0 91 -32 91 -74c0 -40 -35 -66 -85 -80l-7 -27h-34c-9 9 -15 16 -15 27c0 32 83 42 83 79c0 23 -21 29 -39 29zM455 487h81v-487h-78v77h-1c-39 -52 -99 -83 -170 -83c-135 0 -239 97 -239 246
c0 144 100 253 238 253c67 0 127 -28 168 -79h1v73zM294 68c88 0 164 69 164 172c0 100 -69 178 -163 178c-92 0 -165 -70 -165 -178c0 -98 65 -172 164 -172z" />
    <glyph glyph-name="amacron" unicode="&#x101;" horiz-adv-x="608" 
d="M445 665v-69h-287v69h287zM455 487h81v-487h-78v77h-1c-39 -52 -99 -83 -170 -83c-135 0 -239 97 -239 246c0 144 100 253 238 253c67 0 127 -28 168 -79h1v73zM294 68c88 0 164 69 164 172c0 100 -69 178 -163 178c-92 0 -165 -70 -165 -178c0 -98 65 -172 164 -172z
" />
    <glyph glyph-name="aogonek" unicode="&#x105;" horiz-adv-x="608" 
d="M546 -120l6 -53c-18 -8 -40 -13 -68 -13c-62 0 -100 32 -100 84c0 35 26 78 74 108v71h-1c-39 -52 -99 -83 -170 -83c-135 0 -239 97 -239 246c0 144 100 253 238 253c67 0 127 -28 168 -79h1v73h81v-487h-4c-50 -14 -81 -51 -81 -84c0 -27 15 -45 49 -45c25 0 33 2 46 9
zM294 68c88 0 164 69 164 172c0 100 -69 178 -163 178c-92 0 -165 -70 -165 -178c0 -98 65 -172 164 -172z" />
    <glyph glyph-name="aring" unicode="&#xe5;" horiz-adv-x="608" 
d="M301 537c-52 0 -96 42 -96 95c0 52 41 95 96 95c54 0 98 -41 98 -95c0 -51 -42 -95 -98 -95zM302 676c-24 0 -43 -20 -43 -43c0 -24 19 -42 43 -42c23 0 43 19 43 42s-20 43 -43 43zM455 487h81v-487h-78v77h-1c-39 -52 -99 -83 -170 -83c-135 0 -239 97 -239 246
c0 144 100 253 238 253c67 0 127 -28 168 -79h1v73zM294 68c88 0 164 69 164 172c0 100 -69 178 -163 178c-92 0 -165 -70 -165 -178c0 -98 65 -172 164 -172z" />
    <glyph glyph-name="aringacute" unicode="&#x1fb;" horiz-adv-x="610" 
d="M302 537c-52 0 -96 42 -96 95c0 52 41 95 96 95c26 0 50 -10 68 -26l68 47l97 1l-136 -101c1 -5 1 -11 1 -16c0 -51 -42 -95 -98 -95zM303 676c-24 0 -43 -20 -43 -43c0 -24 19 -42 43 -42c23 0 43 19 43 42s-20 43 -43 43zM455 487h81v-487h-78v77h-1
c-39 -52 -99 -83 -170 -83c-135 0 -239 97 -239 246c0 144 100 253 238 253c67 0 127 -28 168 -79h1v73zM294 68c88 0 164 69 164 172c0 100 -69 178 -163 178c-92 0 -165 -70 -165 -178c0 -98 65 -172 164 -172z" />
    <glyph glyph-name="atilde" unicode="&#xe3;" horiz-adv-x="608" 
d="M235 621c-27 0 -47 -21 -60 -55l-52 23c18 60 52 99 103 99c36 0 59 -15 82 -29c21 -14 40 -30 63 -30c24 0 46 19 58 55l52 -17c-18 -67 -56 -105 -100 -105c-35 0 -63 19 -88 36c-20 12 -39 23 -58 23zM455 487h81v-487h-78v77h-1c-39 -52 -99 -83 -170 -83
c-135 0 -239 97 -239 246c0 144 100 253 238 253c67 0 127 -28 168 -79h1v73zM294 68c88 0 164 69 164 172c0 100 -69 178 -163 178c-92 0 -165 -70 -165 -178c0 -98 65 -172 164 -172z" />
    <glyph glyph-name="ae" unicode="&#xe6;" horiz-adv-x="784" 
d="M759 251c0 -12 -2 -25 -3 -33h-345c10 -88 67 -150 148 -150c49 0 92 28 122 65l57 -48c-42 -54 -105 -91 -183 -91c-74 0 -136 38 -171 99h-2c-27 -54 -91 -99 -181 -99c-116 0 -169 65 -169 146c0 88 60 147 183 147l118 1v11c0 90 -28 119 -89 119
c-53 0 -103 -15 -142 -36l-32 65c34 20 98 46 179 46c72 0 118 -27 140 -90h1c37 56 96 90 168 90c117 0 201 -102 201 -242zM552 418c-70 0 -124 -51 -138 -131h264c-13 79 -62 131 -126 131zM207 67c69 0 129 51 129 106v5l-1 41h-113c-64 -1 -109 -25 -109 -76
c0 -39 31 -76 94 -76z" />
    <glyph glyph-name="aeacute" unicode="&#x1fd;" horiz-adv-x="784" 
d="M554 700l-124 -142h-85l117 141zM759 251c0 -12 -2 -25 -3 -33h-345c10 -88 67 -150 148 -150c49 0 92 28 122 65l57 -48c-42 -54 -105 -91 -183 -91c-74 0 -136 38 -171 99h-2c-27 -54 -91 -99 -181 -99c-116 0 -169 65 -169 146c0 88 60 147 183 147l118 1v11
c0 90 -28 119 -89 119c-53 0 -103 -15 -142 -36l-32 65c34 20 98 46 179 46c72 0 118 -27 140 -90h1c37 56 96 90 168 90c117 0 201 -102 201 -242zM552 418c-70 0 -124 -51 -138 -131h264c-13 79 -62 131 -126 131zM207 67c69 0 129 51 129 106v5l-1 41h-113
c-64 -1 -109 -25 -109 -76c0 -39 31 -76 94 -76z" />
    <glyph glyph-name="b" unicode="b" horiz-adv-x="613" 
d="M328 493c137 0 238 -109 238 -253c0 -149 -105 -246 -239 -246c-71 0 -131 31 -170 83h-2v-77h-77v736h81v-322h1c41 51 101 79 168 79zM319 68c99 0 164 74 164 172c0 108 -72 178 -165 178s-162 -78 -162 -178c0 -103 76 -172 163 -172z" />
    <glyph glyph-name="c" unicode="c" horiz-adv-x="522" 
d="M288 -6c-140 0 -241 101 -241 249c0 147 101 250 244 250c73 0 148 -30 196 -87l-56 -49c-30 37 -78 61 -136 61c-98 0 -166 -72 -166 -175c0 -104 68 -175 166 -175c57 0 108 25 138 58l56 -50c-41 -46 -114 -82 -201 -82z" />
    <glyph glyph-name="cacute" unicode="&#x107;" horiz-adv-x="522" 
d="M244 557l117 141l92 1l-124 -142h-85zM288 -6c-140 0 -241 101 -241 249c0 147 101 250 244 250c73 0 148 -30 196 -87l-56 -49c-30 37 -78 61 -136 61c-98 0 -166 -72 -166 -175c0 -104 68 -175 166 -175c57 0 108 25 138 58l56 -50c-41 -46 -114 -82 -201 -82z" />
    <glyph glyph-name="ccaron" unicode="&#x10d;" horiz-adv-x="522" 
d="M331 556h-74l-116 143h82l72 -90h2l72 90h82zM433 126l56 -50c-41 -46 -114 -82 -201 -82c-140 0 -241 101 -241 249c0 147 101 250 244 250c73 0 148 -30 196 -87l-56 -49c-30 37 -78 61 -136 61c-98 0 -166 -72 -166 -175c0 -104 68 -175 166 -175c57 0 108 25 138 58z
" />
    <glyph glyph-name="ccedilla" unicode="&#xe7;" horiz-adv-x="522" 
d="M307 -5l-12 -26l1 -2c52 -3 87 -31 87 -79c0 -42 -33 -76 -107 -76c-24 0 -41 3 -56 6v44c13 -4 27 -7 48 -7c29 0 56 11 56 37c0 22 -27 42 -83 42v30l13 27v5c-122 15 -207 111 -207 247c0 147 101 250 244 250c73 0 148 -30 196 -87l-56 -49c-30 37 -78 61 -136 61
c-98 0 -166 -72 -166 -175c0 -104 68 -175 166 -175c57 0 108 25 138 58l56 -50c-38 -43 -104 -77 -182 -81z" />
    <glyph glyph-name="ccircumflex" unicode="&#x109;" horiz-adv-x="522" 
d="M295 645l-72 -89h-82l116 143h75l119 -143h-82l-72 89h-2zM433 126l56 -50c-41 -46 -114 -82 -201 -82c-140 0 -241 101 -241 249c0 147 101 250 244 250c73 0 148 -30 196 -87l-56 -49c-30 37 -78 61 -136 61c-98 0 -166 -72 -166 -175c0 -104 68 -175 166 -175
c57 0 108 25 138 58z" />
    <glyph glyph-name="cdotaccent" unicode="&#x10b;" horiz-adv-x="522" 
d="M297 577c-33 0 -58 25 -58 57c0 31 25 57 58 57c32 0 58 -26 58 -57c0 -32 -26 -57 -58 -57zM288 -6c-140 0 -241 101 -241 249c0 147 101 250 244 250c73 0 148 -30 196 -87l-56 -49c-30 37 -78 61 -136 61c-98 0 -166 -72 -166 -175c0 -104 68 -175 166 -175
c57 0 108 25 138 58l56 -50c-41 -46 -114 -82 -201 -82z" />
    <glyph glyph-name="d" unicode="d" horiz-adv-x="611" 
d="M452 736h81v-736h-77v77h-2c-39 -52 -98 -83 -168 -83c-135 0 -239 97 -239 246c0 144 100 253 238 253c66 0 126 -28 166 -79h1v322zM293 68c86 0 162 69 162 172c0 100 -69 178 -161 178s-165 -70 -165 -178c0 -98 65 -172 164 -172z" />
    <glyph glyph-name="eth" unicode="&#xf0;" horiz-adv-x="594" 
d="M546 250v-2c0 -145 -102 -254 -251 -254c-138 0 -247 100 -247 241c0 146 102 246 239 246c53 0 100 -16 137 -43h2c-35 71 -86 127 -148 169l-73 -56l-37 42l58 46c-28 14 -57 27 -88 37l39 64c39 -14 77 -31 112 -51l70 55l37 -45l-57 -44c126 -93 207 -235 207 -405z
M296 68c99 0 167 76 167 172c0 97 -72 167 -168 167c-97 0 -165 -76 -165 -167c0 -101 73 -172 166 -172z" />
    <glyph glyph-name="dcaron" unicode="&#x10f;" horiz-adv-x="679" 
d="M637 772h81l-50 -184h-59zM452 414v322h81v-736h-77v77h-2c-39 -52 -98 -83 -168 -83c-135 0 -239 97 -239 246c0 144 100 253 238 253c66 0 126 -28 166 -79h1zM293 68c86 0 162 69 162 172c0 100 -69 178 -161 178s-165 -70 -165 -178c0 -98 65 -172 164 -172z" />
    <glyph glyph-name="dcroat" unicode="&#x111;" horiz-adv-x="609" 
d="M602 632v-65h-69v-567h-77v77h-2c-39 -52 -98 -83 -168 -83c-135 0 -239 97 -239 246c0 144 100 253 238 253c66 0 126 -28 166 -79h1v153h-120v65h120v104h81v-104h69zM293 68c86 0 162 69 162 172c0 100 -69 178 -161 178s-165 -70 -165 -178c0 -98 65 -172 164 -172z
" />
    <glyph glyph-name="e" unicode="e" horiz-adv-x="552" 
d="M506 251c0 -13 -2 -30 -2 -33h-375c11 -91 75 -150 163 -150c61 0 107 28 137 66l57 -49c-42 -54 -108 -91 -197 -91c-138 0 -242 101 -242 249c0 147 101 250 233 250c136 0 226 -102 226 -242zM284 418c-76 0 -137 -50 -152 -133h294c-13 80 -64 133 -142 133z" />
    <glyph glyph-name="eacute" unicode="&#xe9;" horiz-adv-x="552" 
d="M446 699l-124 -142h-85l117 141zM506 251c0 -13 -2 -30 -2 -33h-375c11 -91 75 -150 163 -150c61 0 107 28 137 66l57 -49c-42 -54 -108 -91 -197 -91c-138 0 -242 101 -242 249c0 147 101 250 233 250c136 0 226 -102 226 -242zM284 418c-76 0 -137 -50 -152 -133h294
c-13 80 -64 133 -142 133z" />
    <glyph glyph-name="ebreve" unicode="&#x115;" horiz-adv-x="552" 
d="M287 554c-74 0 -138 49 -145 140h66c3 -46 31 -80 79 -80c46 0 76 32 79 80h65c-6 -85 -64 -140 -144 -140zM506 251c0 -13 -2 -30 -2 -33h-375c11 -91 75 -150 163 -150c61 0 107 28 137 66l57 -49c-42 -54 -108 -91 -197 -91c-138 0 -242 101 -242 249
c0 147 101 250 233 250c136 0 226 -102 226 -242zM284 418c-76 0 -137 -50 -152 -133h294c-13 80 -64 133 -142 133z" />
    <glyph glyph-name="ecaron" unicode="&#x11b;" horiz-adv-x="552" 
d="M321 556h-74l-116 143h82l72 -90h2l72 90h82zM506 251c0 -13 -2 -30 -2 -33h-375c11 -91 75 -150 163 -150c61 0 107 28 137 66l57 -49c-42 -54 -108 -91 -197 -91c-138 0 -242 101 -242 249c0 147 101 250 233 250c136 0 226 -102 226 -242zM284 418
c-76 0 -137 -50 -152 -133h294c-13 80 -64 133 -142 133z" />
    <glyph glyph-name="ecircumflex" unicode="&#xea;" horiz-adv-x="552" 
d="M285 645l-72 -89h-82l116 143h75l119 -143h-82l-72 89h-2zM506 251c0 -13 -2 -30 -2 -33h-375c11 -91 75 -150 163 -150c61 0 107 28 137 66l57 -49c-42 -54 -108 -91 -197 -91c-138 0 -242 101 -242 249c0 147 101 250 233 250c136 0 226 -102 226 -242zM284 418
c-76 0 -137 -50 -152 -133h294c-13 80 -64 133 -142 133z" />
    <glyph glyph-name="uni1EBF" unicode="&#x1ebf;" horiz-adv-x="552" 
d="M604 783l-144 -142h-65l118 142h91zM286 644l-72 -89h-82l116 143h75l119 -143h-82l-72 89h-2zM280 493c136 0 226 -102 226 -242c0 -13 -2 -30 -2 -33h-375c11 -91 75 -150 163 -150c61 0 107 28 137 66l57 -49c-42 -54 -108 -91 -197 -91c-138 0 -242 101 -242 249
c0 147 101 250 233 250zM284 418c-76 0 -137 -50 -152 -133h294c-13 80 -64 133 -142 133z" />
    <glyph glyph-name="uni1EC7" unicode="&#x1ec7;" horiz-adv-x="552" 
d="M285 644l-72 -89h-82l116 143h75l119 -143h-82l-72 89h-2zM506 251c0 -13 -2 -30 -2 -33h-375c11 -91 75 -150 163 -150c61 0 107 28 137 66l57 -49c-42 -54 -108 -91 -197 -91c-138 0 -242 101 -242 249c0 147 101 250 233 250c136 0 226 -102 226 -242zM284 418
c-76 0 -137 -50 -152 -133h294c-13 80 -64 133 -142 133zM295 -111c33 0 58 -25 58 -57c0 -31 -25 -57 -58 -57c-32 0 -58 26 -58 57c0 32 26 57 58 57z" />
    <glyph glyph-name="uni1EC1" unicode="&#x1ec1;" horiz-adv-x="552" 
d="M501 641h-65l-124 142h91zM283 644l-72 -89h-82l116 143h75l119 -143h-82l-72 89h-2zM506 251c0 -13 -2 -30 -2 -33h-375c11 -91 75 -150 163 -150c61 0 107 28 137 66l57 -49c-42 -54 -108 -91 -197 -91c-138 0 -242 101 -242 249c0 147 101 250 233 250
c136 0 226 -102 226 -242zM284 418c-76 0 -137 -50 -152 -133h294c-13 80 -64 133 -142 133z" />
    <glyph glyph-name="uni1EC3" unicode="&#x1ec3;" horiz-adv-x="552" 
d="M452 797c55 0 87 -32 87 -74c0 -40 -34 -66 -82 -81l-6 -26h-34c-9 9 -15 16 -15 27c0 32 79 42 79 79c0 20 -17 28 -35 28c-28 0 -54 -12 -70 -31l-35 32c25 26 66 46 111 46zM285 644l-72 -89h-82l116 143h75l119 -143h-82l-72 89h-2zM280 493c136 0 226 -102 226 -242
c0 -13 -2 -30 -2 -33h-375c11 -91 75 -150 163 -150c61 0 107 28 137 66l57 -49c-42 -54 -108 -91 -197 -91c-138 0 -242 101 -242 249c0 147 101 250 233 250zM284 418c-76 0 -137 -50 -152 -133h294c-13 80 -64 133 -142 133z" />
    <glyph glyph-name="uni1EC5" unicode="&#x1ec5;" horiz-adv-x="552" 
d="M222 773c-20 0 -40 -21 -52 -55l-53 23c19 60 54 99 97 99c36 0 56 -15 79 -29c21 -14 40 -30 63 -30c24 0 46 19 58 55l52 -17c-18 -67 -56 -105 -100 -105c-35 0 -63 19 -88 36c-20 12 -34 23 -56 23zM247 698h75l119 -143h-82l-72 89h-2l-72 -89h-82zM506 251
c0 -13 -2 -30 -2 -33h-375c11 -91 75 -150 163 -150c61 0 107 28 137 66l57 -49c-42 -54 -108 -91 -197 -91c-138 0 -242 101 -242 249c0 147 101 250 233 250c136 0 226 -102 226 -242zM284 418c-76 0 -137 -50 -152 -133h294c-13 80 -64 133 -142 133z" />
    <glyph glyph-name="edieresis" unicode="&#xeb;" horiz-adv-x="552" 
d="M196 577c-33 0 -58 25 -58 57c0 31 25 57 58 57c32 0 58 -26 58 -57c0 -32 -26 -57 -58 -57zM377 578c-32 0 -57 25 -57 56c0 30 25 56 57 56s57 -26 57 -56c0 -31 -25 -56 -57 -56zM506 251c0 -13 -2 -30 -2 -33h-375c11 -91 75 -150 163 -150c61 0 107 28 137 66
l57 -49c-42 -54 -108 -91 -197 -91c-138 0 -242 101 -242 249c0 147 101 250 233 250c136 0 226 -102 226 -242zM284 418c-76 0 -137 -50 -152 -133h294c-13 80 -64 133 -142 133z" />
    <glyph glyph-name="edotaccent" unicode="&#x117;" horiz-adv-x="552" 
d="M287 577c-33 0 -58 25 -58 57c0 31 25 57 58 57c32 0 58 -26 58 -57c0 -32 -26 -57 -58 -57zM506 251c0 -13 -2 -30 -2 -33h-375c11 -91 75 -150 163 -150c61 0 107 28 137 66l57 -49c-42 -54 -108 -91 -197 -91c-138 0 -242 101 -242 249c0 147 101 250 233 250
c136 0 226 -102 226 -242zM284 418c-76 0 -137 -50 -152 -133h294c-13 80 -64 133 -142 133z" />
    <glyph glyph-name="uni1EB9" unicode="&#x1eb9;" horiz-adv-x="552" 
d="M506 251c0 -13 -2 -30 -2 -33h-375c11 -91 75 -150 163 -150c61 0 107 28 137 66l57 -49c-42 -54 -108 -91 -197 -91c-138 0 -242 101 -242 249c0 147 101 250 233 250c136 0 226 -102 226 -242zM284 418c-76 0 -137 -50 -152 -133h294c-13 80 -64 133 -142 133z
M295 -111c33 0 58 -25 58 -57c0 -31 -25 -57 -58 -57c-32 0 -58 26 -58 57c0 32 26 57 58 57z" />
    <glyph glyph-name="egrave" unicode="&#xe8;" horiz-adv-x="552" 
d="M357 557h-86l-124 142l93 -1zM506 251c0 -13 -2 -30 -2 -33h-375c11 -91 75 -150 163 -150c61 0 107 28 137 66l57 -49c-42 -54 -108 -91 -197 -91c-138 0 -242 101 -242 249c0 147 101 250 233 250c136 0 226 -102 226 -242zM284 418c-76 0 -137 -50 -152 -133h294
c-13 80 -64 133 -142 133z" />
    <glyph glyph-name="uni1EBB" unicode="&#x1ebb;" horiz-adv-x="552" 
d="M291 667c-27 0 -53 -13 -70 -32l-35 32c25 26 66 46 111 46c58 0 91 -32 91 -74c0 -40 -35 -66 -85 -80l-7 -27h-34c-9 9 -15 16 -15 27c0 32 83 42 83 79c0 23 -21 29 -39 29zM506 251c0 -13 -2 -30 -2 -33h-375c11 -91 75 -150 163 -150c61 0 107 28 137 66l57 -49
c-42 -54 -108 -91 -197 -91c-138 0 -242 101 -242 249c0 147 101 250 233 250c136 0 226 -102 226 -242zM284 418c-76 0 -137 -50 -152 -133h294c-13 80 -64 133 -142 133z" />
    <glyph glyph-name="emacron" unicode="&#x113;" horiz-adv-x="552" 
d="M430 665v-69h-287v69h287zM506 251c0 -13 -2 -30 -2 -33h-375c11 -91 75 -150 163 -150c61 0 107 28 137 66l57 -49c-42 -54 -108 -91 -197 -91c-138 0 -242 101 -242 249c0 147 101 250 233 250c136 0 226 -102 226 -242zM284 418c-76 0 -137 -50 -152 -133h294
c-13 80 -64 133 -142 133z" />
    <glyph glyph-name="eogonek" unicode="&#x119;" horiz-adv-x="552" 
d="M506 251c0 -13 -2 -30 -2 -33h-375c11 -91 75 -150 163 -150c61 0 107 28 137 66l57 -49c-30 -38 -72 -68 -125 -82c-50 -21 -84 -50 -84 -85c0 -23 16 -42 50 -42c26 0 33 3 47 10l5 -55c-18 -9 -40 -13 -68 -13c-68 0 -106 32 -106 84c0 28 18 64 52 92v2
c-122 14 -210 111 -210 247c0 147 101 250 233 250c136 0 226 -102 226 -242zM284 418c-76 0 -137 -50 -152 -133h294c-13 80 -64 133 -142 133z" />
    <glyph glyph-name="uni1EBD" unicode="&#x1ebd;" horiz-adv-x="552" 
d="M220 621c-27 0 -47 -21 -60 -55l-52 23c18 60 52 99 103 99c36 0 59 -15 82 -29c21 -14 40 -30 63 -30c24 0 46 19 58 55l52 -17c-18 -67 -56 -105 -100 -105c-35 0 -63 19 -88 36c-20 12 -39 23 -58 23zM506 251c0 -13 -2 -30 -2 -33h-375c11 -91 75 -150 163 -150
c61 0 107 28 137 66l57 -49c-42 -54 -108 -91 -197 -91c-138 0 -242 101 -242 249c0 147 101 250 233 250c136 0 226 -102 226 -242zM284 418c-76 0 -137 -50 -152 -133h294c-13 80 -64 133 -142 133z" />
    <glyph glyph-name="f" unicode="f" horiz-adv-x="335" 
d="M98 0v417h-60v70h60v98c0 105 50 158 136 158c49 0 87 -15 114 -31l-18 -70c-31 16 -59 25 -85 25c-40 0 -67 -25 -67 -89v-91h138v-70h-138v-417h-80z" />
    <glyph glyph-name="g" unicode="g" horiz-adv-x="599" 
d="M447 487h80v-450c0 -141 -69 -241 -239 -241c-73 0 -140 18 -198 53l19 75c57 -32 106 -51 175 -51c110 0 164 64 164 143v68h-2c-38 -47 -95 -75 -165 -75c-130 0 -236 96 -236 241c0 138 100 243 232 243c65 0 126 -26 168 -74h2v68zM287 85c98 0 163 72 163 169
c0 98 -71 163 -163 163c-93 0 -159 -70 -159 -164c0 -104 72 -168 159 -168z" />
    <glyph glyph-name="gbreve" unicode="&#x11f;" horiz-adv-x="599" 
d="M286 554c-74 0 -138 49 -145 140h66c3 -46 31 -80 79 -80c46 0 76 32 79 80h65c-6 -85 -64 -140 -144 -140zM447 487h80v-450c0 -141 -69 -241 -239 -241c-73 0 -140 18 -198 53l19 75c57 -32 106 -51 175 -51c110 0 164 64 164 143v68h-2c-38 -47 -95 -75 -165 -75
c-130 0 -236 96 -236 241c0 138 100 243 232 243c65 0 126 -26 168 -74h2v68zM287 85c98 0 163 72 163 169c0 98 -71 163 -163 163c-93 0 -159 -70 -159 -164c0 -104 72 -168 159 -168z" />
    <glyph glyph-name="gcaron" unicode="&#x1e7;" horiz-adv-x="599" 
d="M320 556h-74l-116 143h82l72 -90h2l72 90h82zM447 487h80v-450c0 -141 -69 -241 -239 -241c-73 0 -140 18 -198 53l19 75c57 -32 106 -51 175 -51c110 0 164 64 164 143v68h-2c-38 -47 -95 -75 -165 -75c-130 0 -236 96 -236 241c0 138 100 243 232 243
c65 0 126 -26 168 -74h2v68zM287 85c98 0 163 72 163 169c0 98 -71 163 -163 163c-93 0 -159 -70 -159 -164c0 -104 72 -168 159 -168z" />
    <glyph glyph-name="gcircumflex" unicode="&#x11d;" horiz-adv-x="599" 
d="M284 645l-72 -89h-82l116 143h75l119 -143h-82l-72 89h-2zM447 487h80v-450c0 -141 -69 -241 -239 -241c-73 0 -140 18 -198 53l19 75c57 -32 106 -51 175 -51c110 0 164 64 164 143v68h-2c-38 -47 -95 -75 -165 -75c-130 0 -236 96 -236 241c0 138 100 243 232 243
c65 0 126 -26 168 -74h2v68zM287 85c98 0 163 72 163 169c0 98 -71 163 -163 163c-93 0 -159 -70 -159 -164c0 -104 72 -168 159 -168z" />
    <glyph glyph-name="gcommaaccent" unicode="&#x123;" horiz-adv-x="599" 
d="M330 555h-74c-4 16 -5 31 -5 51c0 65 46 103 113 108l20 -49c-46 -10 -60 -32 -60 -64c0 -17 2 -28 6 -46zM447 487h80v-450c0 -141 -69 -241 -239 -241c-73 0 -140 18 -198 53l19 75c57 -32 106 -51 175 -51c110 0 164 64 164 143v68h-2c-38 -47 -95 -75 -165 -75
c-130 0 -236 96 -236 241c0 138 100 243 232 243c65 0 126 -26 168 -74h2v68zM287 85c98 0 163 72 163 169c0 98 -71 163 -163 163c-93 0 -159 -70 -159 -164c0 -104 72 -168 159 -168z" />
    <glyph glyph-name="gdotaccent" unicode="&#x121;" horiz-adv-x="599" 
d="M286 577c-33 0 -58 25 -58 57c0 31 25 57 58 57c32 0 58 -26 58 -57c0 -32 -26 -57 -58 -57zM447 487h80v-450c0 -141 -69 -241 -239 -241c-73 0 -140 18 -198 53l19 75c57 -32 106 -51 175 -51c110 0 164 64 164 143v68h-2c-38 -47 -95 -75 -165 -75
c-130 0 -236 96 -236 241c0 138 100 243 232 243c65 0 126 -26 168 -74h2v68zM287 85c98 0 163 72 163 169c0 98 -71 163 -163 163c-93 0 -159 -70 -159 -164c0 -104 72 -168 159 -168z" />
    <glyph glyph-name="h" unicode="h" horiz-adv-x="584" 
d="M339 493c106 0 177 -62 177 -201v-292h-81v269c0 110 -48 149 -119 149c-97 0 -158 -64 -158 -173v-245h-81v736h81v-329h2c40 56 104 86 179 86z" />
    <glyph glyph-name="hbar" unicode="&#x127;" horiz-adv-x="584" 
d="M339 493c106 0 177 -62 177 -201v-292h-81v269c0 110 -48 149 -119 149c-97 0 -158 -64 -158 -173v-245h-81v567h-70v65h70v104h81v-104h119v-65h-119v-160h2c40 56 104 86 179 86z" />
    <glyph glyph-name="hcircumflex" unicode="&#x125;" horiz-adv-x="584" 
d="M232 891l-72 -89h-82l116 143h75l119 -143h-82l-72 89h-2zM339 493c106 0 177 -62 177 -201v-292h-81v269c0 110 -48 149 -119 149c-97 0 -158 -64 -158 -173v-245h-81v736h81v-329h2c40 56 104 86 179 86z" />
    <glyph glyph-name="i" unicode="i" horiz-adv-x="250" 
d="M125 577c-33 0 -58 25 -58 57c0 31 25 57 58 57c32 0 58 -26 58 -57c0 -32 -26 -57 -58 -57zM84 0v487h81v-487h-81z" />
    <glyph glyph-name="dotlessi" unicode="&#x131;" horiz-adv-x="250" 
d="M84 0v487h81v-487h-81z" />
    <glyph glyph-name="iacute" unicode="&#xed;" horiz-adv-x="250" 
d="M88 557l117 141l92 1l-124 -142h-85zM84 0v487h81v-487h-81z" />
    <glyph glyph-name="ibreve" unicode="&#x12d;" horiz-adv-x="250" 
d="M125 554c-71 0 -126 49 -132 140h66c2 -46 23 -80 66 -80c40 0 64 32 65 80h66c-6 -85 -54 -140 -131 -140zM84 0v487h81v-487h-81z" />
    <glyph glyph-name="icircumflex" unicode="&#xee;" horiz-adv-x="250" 
d="M160 699l119 -143h-82l-72 89h-2l-72 -89h-82l116 143h75zM84 0v487h81v-487h-81z" />
    <glyph glyph-name="idieresis" unicode="&#xef;" horiz-adv-x="250" 
d="M43 577c-32 0 -57 25 -57 57c0 31 25 57 57 57c33 0 58 -26 58 -57c0 -32 -25 -57 -58 -57zM205 578c-31 0 -57 25 -57 56c0 30 26 56 57 56c32 0 57 -26 57 -56c0 -31 -25 -56 -57 -56zM84 0v487h81v-487h-81z" />
    <glyph glyph-name="i.loclTRK" horiz-adv-x="250" 
d="M125 577c-33 0 -58 25 -58 57c0 31 25 57 58 57c32 0 58 -26 58 -57c0 -32 -26 -57 -58 -57zM84 0v487h81v-487h-81z" />
    <glyph glyph-name="uni1ECB" unicode="&#x1ecb;" horiz-adv-x="250" 
d="M125 577c-33 0 -58 25 -58 57c0 31 25 57 58 57c32 0 58 -26 58 -57c0 -32 -26 -57 -58 -57zM84 0v487h81v-487h-81zM125 -111c33 0 58 -25 58 -57c0 -31 -25 -57 -58 -57c-32 0 -58 26 -58 57c0 32 26 57 58 57z" />
    <glyph glyph-name="igrave" unicode="&#xec;" horiz-adv-x="250" 
d="M81 557l-90 142l91 -1l83 -141h-84zM84 0v487h81v-487h-81z" />
    <glyph glyph-name="uni1EC9" unicode="&#x1ec9;" horiz-adv-x="250" 
d="M100 532c-9 9 -15 16 -15 27c0 32 83 42 83 79c0 23 -21 29 -39 29c-27 0 -53 -13 -70 -32l-35 32c25 26 66 46 111 46c58 0 91 -32 91 -74c0 -40 -35 -66 -85 -80l-7 -27h-34zM84 0v487h81v-487h-81z" />
    <glyph glyph-name="ij" unicode="&#x133;" horiz-adv-x="478" 
d="M125 577c-33 0 -58 25 -58 57c0 31 25 57 58 57c32 0 58 -26 58 -57c0 -32 -26 -57 -58 -57zM367 577c-33 0 -58 25 -58 57c0 31 25 57 58 57c32 0 58 -26 58 -57c0 -32 -26 -57 -58 -57zM84 0v487h81v-487h-81zM283 -204c-28 0 -53 3 -84 16l13 72c17 -9 35 -14 51 -14
c36 0 63 23 63 79v538h81v-538c0 -95 -47 -153 -124 -153z" />
    <glyph glyph-name="imacron" unicode="&#x12b;" horiz-adv-x="250" 
d="M-19 596v69h287v-69h-287zM84 0v487h81v-487h-81z" />
    <glyph glyph-name="iogonek" unicode="&#x12f;" horiz-adv-x="250" 
d="M125 577c-33 0 -58 25 -58 57c0 31 25 57 58 57c32 0 58 -26 58 -57c0 -32 -26 -57 -58 -57zM130 -129c25 0 33 2 46 9l6 -53c-18 -8 -40 -13 -68 -13c-62 0 -100 32 -100 84c0 34 25 75 70 105v484h81v-487h-3c-50 -14 -81 -51 -81 -84c0 -27 15 -45 49 -45z" />
    <glyph glyph-name="itilde" unicode="&#x129;" horiz-adv-x="250" 
d="M204 562c-35 0 -63 19 -88 36c-20 12 -34 23 -56 23c-20 0 -40 -21 -52 -55l-53 23c19 60 54 99 97 99c36 0 56 -15 79 -29c21 -14 40 -30 63 -30c24 0 46 19 58 55l52 -17c-18 -67 -56 -105 -100 -105zM84 0v487h81v-487h-81z" />
    <glyph glyph-name="j" unicode="j" horiz-adv-x="228" 
d="M117 577c-33 0 -58 25 -58 57c0 31 25 57 58 57c32 0 58 -26 58 -57c0 -32 -26 -57 -58 -57zM33 -204c-28 0 -53 3 -84 16l13 72c17 -9 35 -14 51 -14c36 0 63 23 63 79v538h81v-538c0 -95 -47 -153 -124 -153z" />
    <glyph glyph-name="uni0237" unicode="&#x237;" horiz-adv-x="228" 
d="M33 -204c-28 0 -53 3 -84 16l13 72c17 -9 35 -14 51 -14c36 0 63 23 63 79v538h81v-538c0 -95 -47 -153 -124 -153z" />
    <glyph glyph-name="jcircumflex" unicode="&#x135;" horiz-adv-x="228" 
d="M152 699l119 -143h-82l-72 89h-2l-72 -89h-82l116 143h75zM76 -51v538h81v-538c0 -95 -47 -153 -124 -153c-28 0 -53 3 -84 16l13 72c17 -9 35 -14 51 -14c36 0 63 23 63 79z" />
    <glyph glyph-name="k" unicode="k" horiz-adv-x="521" 
d="M262 223h-2l-102 -113v-110h-80v736h80v-515h2l239 266h99l-182 -202l183 -285h-93z" />
    <glyph glyph-name="kcommaaccent" unicode="&#x137;" horiz-adv-x="521" 
d="M316 285l183 -285h-93l-144 223h-2l-102 -113v-110h-80v736h80v-515h2l239 266h99zM237 -53h74c4 -16 5 -31 5 -51c0 -65 -46 -103 -113 -108l-20 49c46 10 60 32 60 64c0 17 -2 28 -6 46z" />
    <glyph glyph-name="kgreenlandic" unicode="&#x138;" horiz-adv-x="521" 
d="M262 223h-2l-102 -113v-110h-80v487h80v-266h2l240 266h98l-182 -202l184 -285h-94z" />
    <glyph glyph-name="l" unicode="l" horiz-adv-x="250" 
d="M84 0v736h81v-736h-81z" />
    <glyph glyph-name="lacute" unicode="&#x13a;" horiz-adv-x="250" 
d="M85 805l117 141l92 1l-124 -142h-85zM84 0v736h81v-736h-81z" />
    <glyph glyph-name="lcaron" unicode="&#x13e;" horiz-adv-x="311" 
d="M241 588l28 184h80l-49 -184h-59zM84 0v736h81v-736h-81z" />
    <glyph glyph-name="lcommaaccent" unicode="&#x13c;" horiz-adv-x="250" 
d="M84 0v736h81v-736h-81zM52 -212l-20 49c46 10 60 32 60 64c0 17 -2 28 -6 46h74c4 -16 5 -31 5 -51c0 -65 -46 -103 -113 -108z" />
    <glyph glyph-name="ldot" unicode="&#x140;" horiz-adv-x="376" 
d="M84 0v736h81v-736h-81zM311 195c-33 0 -58 25 -58 56c0 32 25 57 58 57c31 0 57 -25 57 -57c0 -31 -26 -56 -57 -56z" />
    <glyph glyph-name="lslash" unicode="&#x142;" horiz-adv-x="268" 
d="M241 413v-78l-63 -29v-306h-81v268l-66 -31v77l66 31v391h81v-353z" />
    <glyph glyph-name="m" unicode="m" horiz-adv-x="894" 
d="M656 493c111 0 171 -64 171 -208v-285h-81v263c0 110 -37 155 -114 155c-75 0 -136 -67 -136 -176v-242h-81v264c0 108 -40 154 -116 154c-79 0 -141 -67 -141 -176v-242h-80v487h80v-84h1c40 58 101 90 164 90c75 0 129 -31 155 -96h1c39 62 103 96 177 96z" />
    <glyph glyph-name="n" unicode="n" horiz-adv-x="580" 
d="M336 493c105 0 175 -65 175 -204v-289h-81v266c0 114 -48 152 -119 152c-92 0 -153 -65 -153 -175v-243h-81v487h81v-85h1c41 58 105 91 177 91z" />
    <glyph glyph-name="nacute" unicode="&#x144;" horiz-adv-x="580" 
d="M439 699l-124 -142h-85l117 141zM336 493c105 0 175 -65 175 -204v-289h-81v266c0 114 -48 152 -119 152c-92 0 -153 -65 -153 -175v-243h-81v487h81v-85h1c41 58 105 91 177 91z" />
    <glyph glyph-name="napostrophe" unicode="&#x149;" horiz-adv-x="651" 
d="M5 516l28 194h80l-49 -194h-59zM407 493c105 0 175 -65 175 -204v-289h-81v266c0 114 -48 152 -119 152c-92 0 -153 -65 -153 -175v-243h-81v487h81v-85h1c41 58 105 91 177 91z" />
    <glyph glyph-name="ncaron" unicode="&#x148;" horiz-adv-x="580" 
d="M327 556h-74l-116 143h82l72 -90h2l72 90h82zM336 493c105 0 175 -65 175 -204v-289h-81v266c0 114 -48 152 -119 152c-92 0 -153 -65 -153 -175v-243h-81v487h81v-85h1c41 58 105 91 177 91z" />
    <glyph glyph-name="ncommaaccent" unicode="&#x146;" horiz-adv-x="580" 
d="M336 493c105 0 175 -65 175 -204v-289h-81v266c0 114 -48 152 -119 152c-92 0 -153 -65 -153 -175v-243h-81v487h81v-85h1c41 58 105 91 177 91zM255 -53h74c4 -16 5 -31 5 -51c0 -65 -46 -103 -113 -108l-20 49c46 10 60 32 60 64c0 17 -2 28 -6 46z" />
    <glyph glyph-name="eng" unicode="&#x14b;" horiz-adv-x="565" 
d="M328 493c109 0 169 -69 169 -206v-338c0 -95 -47 -153 -124 -153c-29 0 -53 3 -84 16l13 69c16 -10 34 -15 51 -15c36 0 63 27 63 80v316c0 112 -35 156 -114 156c-76 0 -144 -67 -144 -176v-242h-81v487h81v-84h2c40 57 109 90 168 90z" />
    <glyph glyph-name="uni0272" unicode="&#x272;" horiz-adv-x="580" 
d="M336 493c105 0 175 -65 175 -204v-289h-81v266c0 114 -48 152 -119 152c-92 0 -153 -65 -153 -175v-243v-51c0 -95 -46 -153 -124 -153c-28 0 -53 3 -84 16l13 69c16 -10 35 -15 51 -15c36 0 63 27 63 80v260v281h81v-85h1c41 58 105 91 177 91z" />
    <glyph glyph-name="ntilde" unicode="&#xf1;" horiz-adv-x="580" 
d="M226 621c-27 0 -47 -21 -60 -55l-52 23c18 60 52 99 103 99c36 0 59 -15 82 -29c21 -14 40 -30 63 -30c24 0 46 19 58 55l52 -17c-18 -67 -56 -105 -100 -105c-35 0 -63 19 -88 36c-20 12 -39 23 -58 23zM336 493c105 0 175 -65 175 -204v-289h-81v266
c0 114 -48 152 -119 152c-92 0 -153 -65 -153 -175v-243h-81v487h81v-85h1c41 58 105 91 177 91z" />
    <glyph glyph-name="o" unicode="o" horiz-adv-x="597" 
d="M299 -6c-152 0 -252 109 -252 249s100 250 252 250c143 0 250 -102 250 -250s-107 -249 -250 -249zM299 68c94 0 168 72 168 175c0 104 -74 175 -168 175c-102 0 -170 -78 -170 -175s69 -175 170 -175z" />
    <glyph glyph-name="oacute" unicode="&#xf3;" horiz-adv-x="597" 
d="M254 557l117 141l92 1l-124 -142h-85zM299 -6c-152 0 -252 109 -252 249s100 250 252 250c143 0 250 -102 250 -250s-107 -249 -250 -249zM299 68c94 0 168 72 168 175c0 104 -74 175 -168 175c-102 0 -170 -78 -170 -175s69 -175 170 -175z" />
    <glyph glyph-name="obreve" unicode="&#x14f;" horiz-adv-x="597" 
d="M299 554c-74 0 -138 49 -145 140h66c3 -46 31 -80 79 -80c46 0 76 32 79 80h65c-6 -85 -64 -140 -144 -140zM299 -6c-152 0 -252 109 -252 249s100 250 252 250c143 0 250 -102 250 -250s-107 -249 -250 -249zM299 68c94 0 168 72 168 175c0 104 -74 175 -168 175
c-102 0 -170 -78 -170 -175s69 -175 170 -175z" />
    <glyph glyph-name="ocircumflex" unicode="&#xf4;" horiz-adv-x="597" 
d="M297 645l-72 -89h-82l116 143h75l119 -143h-82l-72 89h-2zM299 493c143 0 250 -102 250 -250s-107 -249 -250 -249c-152 0 -252 109 -252 249s100 250 252 250zM299 68c94 0 168 72 168 175c0 104 -74 175 -168 175c-102 0 -170 -78 -170 -175s69 -175 170 -175z" />
    <glyph glyph-name="uni1ED1" unicode="&#x1ed1;" horiz-adv-x="597" 
d="M616 783l-144 -142h-65l118 142h91zM298 644l-72 -89h-82l116 143h75l119 -143h-82l-72 89h-2zM299 493c143 0 250 -102 250 -250s-107 -249 -250 -249c-152 0 -252 109 -252 249s100 250 252 250zM299 68c94 0 168 72 168 175c0 104 -74 175 -168 175
c-102 0 -170 -78 -170 -175s69 -175 170 -175z" />
    <glyph glyph-name="uni1ED9" unicode="&#x1ed9;" horiz-adv-x="597" 
d="M297 644l-72 -89h-82l116 143h75l119 -143h-82l-72 89h-2zM299 493c143 0 250 -102 250 -250s-107 -249 -250 -249c-152 0 -252 109 -252 249s100 250 252 250zM299 68c94 0 168 72 168 175c0 104 -74 175 -168 175c-102 0 -170 -78 -170 -175s69 -175 170 -175z
M299 -111c33 0 58 -25 58 -57c0 -31 -25 -57 -58 -57c-32 0 -58 26 -58 57c0 32 26 57 58 57z" />
    <glyph glyph-name="uni1ED3" unicode="&#x1ed3;" horiz-adv-x="597" 
d="M513 641h-65l-124 142h91zM295 644l-72 -89h-82l116 143h75l119 -143h-82l-72 89h-2zM299 493c143 0 250 -102 250 -250s-107 -249 -250 -249c-152 0 -252 109 -252 249s100 250 252 250zM299 68c94 0 168 72 168 175c0 104 -74 175 -168 175c-102 0 -170 -78 -170 -175
s69 -175 170 -175z" />
    <glyph glyph-name="uni1ED5" unicode="&#x1ed5;" horiz-adv-x="597" 
d="M458 750c-28 0 -54 -12 -70 -31l-35 32c25 26 66 46 111 46c55 0 87 -32 87 -74c0 -40 -34 -66 -82 -81l-6 -26h-34c-9 9 -15 16 -15 27c0 32 79 42 79 79c0 20 -17 28 -35 28zM297 644l-72 -89h-82l116 143h75l119 -143h-82l-72 89h-2zM299 493c143 0 250 -102 250 -250
s-107 -249 -250 -249c-152 0 -252 109 -252 249s100 250 252 250zM299 68c94 0 168 72 168 175c0 104 -74 175 -168 175c-102 0 -170 -78 -170 -175s69 -175 170 -175z" />
    <glyph glyph-name="uni1ED7" unicode="&#x1ed7;" horiz-adv-x="597" 
d="M234 773c-20 0 -40 -21 -52 -55l-53 23c19 60 54 99 97 99c36 0 56 -15 79 -29c21 -14 40 -30 63 -30c24 0 46 19 58 55l52 -17c-18 -67 -56 -105 -100 -105c-35 0 -63 19 -88 36c-20 12 -34 23 -56 23zM259 698h75l119 -143h-82l-72 89h-2l-72 -89h-82zM299 493
c143 0 250 -102 250 -250s-107 -249 -250 -249c-152 0 -252 109 -252 249s100 250 252 250zM299 68c94 0 168 72 168 175c0 104 -74 175 -168 175c-102 0 -170 -78 -170 -175s69 -175 170 -175z" />
    <glyph glyph-name="odieresis" unicode="&#xf6;" horiz-adv-x="597" 
d="M208 577c-33 0 -58 25 -58 57c0 31 25 57 58 57c32 0 58 -26 58 -57c0 -32 -26 -57 -58 -57zM389 578c-32 0 -57 25 -57 56c0 30 25 56 57 56s57 -26 57 -56c0 -31 -25 -56 -57 -56zM299 -6c-152 0 -252 109 -252 249s100 250 252 250c143 0 250 -102 250 -250
s-107 -249 -250 -249zM299 68c94 0 168 72 168 175c0 104 -74 175 -168 175c-102 0 -170 -78 -170 -175s69 -175 170 -175z" />
    <glyph glyph-name="uni1ECD" unicode="&#x1ecd;" horiz-adv-x="597" 
d="M299 -6c-152 0 -252 109 -252 249s100 250 252 250c143 0 250 -102 250 -250s-107 -249 -250 -249zM299 68c94 0 168 72 168 175c0 104 -74 175 -168 175c-102 0 -170 -78 -170 -175s69 -175 170 -175zM299 -111c33 0 58 -25 58 -57c0 -31 -25 -57 -58 -57
c-32 0 -58 26 -58 57c0 32 26 57 58 57z" />
    <glyph glyph-name="ograve" unicode="&#xf2;" horiz-adv-x="597" 
d="M273 557l-124 142l93 -1l117 -141h-86zM299 -6c-152 0 -252 109 -252 249s100 250 252 250c143 0 250 -102 250 -250s-107 -249 -250 -249zM299 68c94 0 168 72 168 175c0 104 -74 175 -168 175c-102 0 -170 -78 -170 -175s69 -175 170 -175z" />
    <glyph glyph-name="uni1ECF" unicode="&#x1ecf;" horiz-adv-x="597" 
d="M274 532c-9 9 -15 16 -15 27c0 32 83 42 83 79c0 23 -21 29 -39 29c-27 0 -53 -13 -70 -32l-35 32c25 26 66 46 111 46c58 0 91 -32 91 -74c0 -40 -35 -66 -85 -80l-7 -27h-34zM299 -6c-152 0 -252 109 -252 249s100 250 252 250c143 0 250 -102 250 -250
s-107 -249 -250 -249zM299 68c94 0 168 72 168 175c0 104 -74 175 -168 175c-102 0 -170 -78 -170 -175s69 -175 170 -175z" />
    <glyph glyph-name="ohorn" unicode="&#x1a1;" horiz-adv-x="676" 
d="M570 565h83v-73c0 -97 -39 -156 -113 -172l-1 -2c6 -23 10 -48 10 -75c0 -148 -107 -249 -250 -249c-152 0 -252 109 -252 249s100 250 252 250c95 0 174 -45 217 -119c46 14 54 56 54 123v68zM299 68c94 0 168 72 168 175c0 104 -74 175 -168 175
c-102 0 -170 -78 -170 -175s69 -175 170 -175z" />
    <glyph glyph-name="uni1EDB" unicode="&#x1edb;" horiz-adv-x="676" 
d="M463 699l-124 -142h-85l117 141zM570 565h83v-73c0 -97 -39 -156 -113 -172l-1 -2c6 -23 10 -48 10 -75c0 -148 -107 -249 -250 -249c-152 0 -252 109 -252 249s100 250 252 250c95 0 174 -45 217 -119c46 14 54 56 54 123v68zM299 68c94 0 168 72 168 175
c0 104 -74 175 -168 175c-102 0 -170 -78 -170 -175s69 -175 170 -175z" />
    <glyph glyph-name="uni1EE3" unicode="&#x1ee3;" horiz-adv-x="676" 
d="M570 565h83v-73c0 -97 -39 -156 -113 -172l-1 -2c6 -23 10 -48 10 -75c0 -148 -107 -249 -250 -249c-152 0 -252 109 -252 249s100 250 252 250c95 0 174 -45 217 -119c46 14 54 56 54 123v68zM299 68c94 0 168 72 168 175c0 104 -74 175 -168 175
c-102 0 -170 -78 -170 -175s69 -175 170 -175zM299 -111c33 0 58 -25 58 -57c0 -31 -25 -57 -58 -57c-32 0 -58 26 -58 57c0 32 26 57 58 57z" />
    <glyph glyph-name="uni1EDD" unicode="&#x1edd;" horiz-adv-x="676" 
d="M359 557h-86l-124 142l93 -1zM570 565h83v-73c0 -97 -39 -156 -113 -172l-1 -2c6 -23 10 -48 10 -75c0 -148 -107 -249 -250 -249c-152 0 -252 109 -252 249s100 250 252 250c95 0 174 -45 217 -119c46 14 54 56 54 123v68zM299 68c94 0 168 72 168 175
c0 104 -74 175 -168 175c-102 0 -170 -78 -170 -175s69 -175 170 -175z" />
    <glyph glyph-name="uni1EDF" unicode="&#x1edf;" horiz-adv-x="676" 
d="M303 667c-27 0 -53 -13 -70 -32l-35 32c25 26 66 46 111 46c58 0 91 -32 91 -74c0 -40 -35 -66 -85 -80l-7 -27h-34c-9 9 -15 16 -15 27c0 32 83 42 83 79c0 23 -21 29 -39 29zM570 565h83v-73c0 -97 -39 -156 -113 -172l-1 -2c6 -23 10 -48 10 -75
c0 -148 -107 -249 -250 -249c-152 0 -252 109 -252 249s100 250 252 250c95 0 174 -45 217 -119c46 14 54 56 54 123v68zM299 68c94 0 168 72 168 175c0 104 -74 175 -168 175c-102 0 -170 -78 -170 -175s69 -175 170 -175z" />
    <glyph glyph-name="uni1EE1" unicode="&#x1ee1;" horiz-adv-x="676" 
d="M232 621c-27 0 -47 -21 -60 -55l-52 23c18 60 52 99 103 99c36 0 59 -15 82 -29c21 -14 40 -30 63 -30c24 0 46 19 58 55l52 -17c-18 -67 -56 -105 -100 -105c-35 0 -63 19 -88 36c-20 12 -39 23 -58 23zM570 565h83v-73c0 -97 -39 -156 -113 -172l-1 -2
c6 -23 10 -48 10 -75c0 -148 -107 -249 -250 -249c-152 0 -252 109 -252 249s100 250 252 250c95 0 174 -45 217 -119c46 14 54 56 54 123v68zM299 68c94 0 168 72 168 175c0 104 -74 175 -168 175c-102 0 -170 -78 -170 -175s69 -175 170 -175z" />
    <glyph glyph-name="ohungarumlaut" unicode="&#x151;" horiz-adv-x="597" 
d="M167 557l117 141l86 1l-124 -142h-79zM334 557l117 141l86 1l-124 -142h-79zM299 -6c-152 0 -252 109 -252 249s100 250 252 250c143 0 250 -102 250 -250s-107 -249 -250 -249zM299 68c94 0 168 72 168 175c0 104 -74 175 -168 175c-102 0 -170 -78 -170 -175
s69 -175 170 -175z" />
    <glyph glyph-name="omacron" unicode="&#x14d;" horiz-adv-x="597" 
d="M155 596v69h287v-69h-287zM299 -6c-152 0 -252 109 -252 249s100 250 252 250c143 0 250 -102 250 -250s-107 -249 -250 -249zM299 68c94 0 168 72 168 175c0 104 -74 175 -168 175c-102 0 -170 -78 -170 -175s69 -175 170 -175z" />
    <glyph glyph-name="uni01EB" unicode="&#x1eb;" horiz-adv-x="597" 
d="M339 -3c-44 -16 -71 -50 -71 -81c0 -27 15 -45 49 -45c25 0 33 2 46 9l6 -53c-18 -8 -40 -13 -68 -13c-62 0 -100 32 -100 84c0 31 21 69 59 98c-130 17 -213 119 -213 247c0 140 100 250 252 250c143 0 250 -102 250 -250c0 -134 -88 -229 -210 -246zM129 243
c0 -97 69 -175 170 -175c94 0 168 72 168 175c0 104 -74 175 -168 175c-102 0 -170 -78 -170 -175z" />
    <glyph glyph-name="oslash" unicode="&#xf8;" horiz-adv-x="597" 
d="M559 465l-61 -65c32 -42 51 -95 51 -157c0 -148 -107 -249 -250 -249c-56 0 -104 15 -144 40l-53 -57l-47 43l52 55c-38 44 -60 103 -60 168c0 140 100 250 252 250c60 0 113 -18 155 -49l60 63zM129 243c0 -41 12 -79 34 -108l237 251c-28 20 -63 32 -101 32
c-102 0 -170 -78 -170 -175zM467 243c0 37 -9 70 -26 97l-231 -248c25 -15 55 -24 89 -24c94 0 168 72 168 175z" />
    <glyph glyph-name="oslashacute" unicode="&#x1ff;" horiz-adv-x="597" 
d="M462 700l-124 -142h-85l117 141zM559 465l-61 -65c32 -42 51 -95 51 -157c0 -148 -107 -249 -250 -249c-56 0 -104 15 -144 40l-53 -57l-47 43l52 55c-38 44 -60 103 -60 168c0 140 100 250 252 250c60 0 113 -18 155 -49l60 63zM129 243c0 -41 12 -79 34 -108l237 251
c-28 20 -63 32 -101 32c-102 0 -170 -78 -170 -175zM467 243c0 37 -9 70 -26 97l-231 -248c25 -15 55 -24 89 -24c94 0 168 72 168 175z" />
    <glyph glyph-name="otilde" unicode="&#xf5;" horiz-adv-x="597" 
d="M378 562c-35 0 -63 19 -88 36c-20 12 -39 23 -58 23c-27 0 -47 -21 -60 -55l-52 23c18 60 52 99 103 99c36 0 59 -15 82 -29c21 -14 40 -30 63 -30c24 0 46 19 58 55l52 -17c-18 -67 -56 -105 -100 -105zM299 -6c-152 0 -252 109 -252 249s100 250 252 250
c143 0 250 -102 250 -250s-107 -249 -250 -249zM299 68c94 0 168 72 168 175c0 104 -74 175 -168 175c-102 0 -170 -78 -170 -175s69 -175 170 -175z" />
    <glyph glyph-name="oe" unicode="&#x153;" horiz-adv-x="811" 
d="M782 251c0 -12 -1 -25 -2 -33h-321c7 -88 50 -150 131 -150c46 0 89 28 115 65l56 -48c-37 -54 -104 -91 -175 -91c-81 0 -138 39 -171 97h-2c-37 -61 -97 -97 -167 -97c-128 0 -211 107 -211 249s91 250 214 250c68 0 127 -37 164 -99h1c36 61 95 99 170 99
c114 0 198 -102 198 -242zM246 68c71 0 130 72 130 175c0 104 -56 175 -127 175c-75 0 -132 -76 -132 -175c0 -98 51 -175 129 -175zM582 418c-68 0 -111 -52 -121 -132h241c-11 79 -55 132 -120 132z" />
    <glyph glyph-name="p" unicode="p" horiz-adv-x="611" 
d="M326 493c138 0 238 -109 238 -253c0 -149 -104 -246 -238 -246c-69 0 -127 29 -166 78h-2v-270h-80v685h81v-72h1c41 51 101 78 166 78zM318 68c99 0 164 74 164 172c0 108 -72 178 -165 178c-92 0 -161 -78 -161 -178c0 -103 76 -172 162 -172z" />
    <glyph glyph-name="thorn" unicode="&#xfe;" horiz-adv-x="611" 
d="M326 493c138 0 238 -109 238 -253c0 -149 -104 -246 -238 -246c-69 0 -127 29 -166 78h-2v-270h-80v934h81v-321h1c41 51 101 78 166 78zM318 68c99 0 164 74 164 172c0 108 -72 178 -165 178c-92 0 -161 -78 -161 -178c0 -103 76 -172 162 -172z" />
    <glyph glyph-name="q" unicode="q" horiz-adv-x="608" 
d="M453 487h81v-685h-81v270h-2c-39 -49 -97 -78 -165 -78c-135 0 -239 97 -239 246c0 144 100 253 238 253c66 0 126 -27 166 -78h2v72zM293 68c86 0 163 69 163 172c0 100 -70 178 -162 178s-165 -70 -165 -178c0 -98 65 -172 164 -172z" />
    <glyph glyph-name="r" unicode="r" horiz-adv-x="357" 
d="M318 493c8 0 15 0 20 -1v-90c-11 1 -24 2 -32 2c-92 0 -148 -71 -148 -169v-235h-81v487h81v-86h1c36 58 93 92 159 92z" />
    <glyph glyph-name="racute" unicode="&#x155;" horiz-adv-x="357" 
d="M335 699l-124 -142h-85l117 141zM318 493c8 0 15 0 20 -1v-90c-11 1 -24 2 -32 2c-92 0 -148 -71 -148 -169v-235h-81v487h81v-86h1c36 58 93 92 159 92z" />
    <glyph glyph-name="rcaron" unicode="&#x159;" horiz-adv-x="357" 
d="M248 556h-74l-116 143h82l72 -90h2l72 90h82zM159 401c36 58 93 92 159 92c8 0 15 0 20 -1v-90c-11 1 -24 2 -32 2c-92 0 -148 -71 -148 -169v-235h-81v487h81v-86h1z" />
    <glyph glyph-name="rcommaaccent" unicode="&#x157;" horiz-adv-x="357" 
d="M318 493c8 0 15 0 20 -1v-90c-11 1 -24 2 -32 2c-92 0 -148 -71 -148 -169v-235h-81v487h81v-86h1c36 58 93 92 159 92zM81 -53h74c4 -16 5 -31 5 -51c0 -65 -46 -103 -113 -108l-20 49c46 10 60 32 60 64c0 17 -2 28 -6 46z" />
    <glyph glyph-name="s" unicode="s" horiz-adv-x="441" 
d="M226 -6c-80 0 -143 27 -191 70l42 61c38 -35 80 -58 149 -58c58 0 92 30 92 65c0 42 -45 56 -116 80c-79 28 -146 61 -146 150c0 75 68 131 161 131c58 0 113 -16 167 -60l-42 -64c-43 37 -88 50 -129 50c-37 0 -75 -22 -75 -57c0 -38 40 -56 92 -76
c103 -40 171 -57 170 -153c0 -76 -57 -139 -174 -139z" />
    <glyph glyph-name="sacute" unicode="&#x15b;" horiz-adv-x="441" 
d="M172 557l117 141l92 1l-124 -142h-85zM226 -6c-80 0 -143 27 -191 70l42 61c38 -35 80 -58 149 -58c58 0 92 30 92 65c0 42 -45 56 -116 80c-79 28 -146 61 -146 150c0 75 68 131 161 131c58 0 113 -16 167 -60l-42 -64c-43 37 -88 50 -129 50c-37 0 -75 -22 -75 -57
c0 -38 40 -56 92 -76c103 -40 171 -57 170 -153c0 -76 -57 -139 -174 -139z" />
    <glyph glyph-name="scaron" unicode="&#x161;" horiz-adv-x="441" 
d="M261 556h-74l-116 143h82l72 -90h2l72 90h82zM230 286c103 -40 171 -57 170 -153c0 -76 -57 -139 -174 -139c-80 0 -143 27 -191 70l42 61c38 -35 80 -58 149 -58c58 0 92 30 92 65c0 42 -45 56 -116 80c-79 28 -146 61 -146 150c0 75 68 131 161 131
c58 0 113 -16 167 -60l-42 -64c-43 37 -88 50 -129 50c-37 0 -75 -22 -75 -57c0 -38 40 -56 92 -76z" />
    <glyph glyph-name="scedilla" unicode="&#x15f;" horiz-adv-x="441" 
d="M230 286c103 -40 171 -57 170 -153c0 -76 -57 -139 -174 -139h-2l-11 -25l1 -2c52 -3 87 -31 87 -79c0 -42 -33 -76 -107 -76c-24 0 -41 3 -56 6v44c13 -4 27 -7 48 -7c29 0 56 11 56 37c0 22 -27 42 -83 42v30l16 34c-56 9 -103 33 -140 66l42 61c38 -35 80 -58 149 -58
c58 0 92 30 92 65c0 42 -45 56 -116 80c-79 28 -146 61 -146 150c0 75 68 131 161 131c58 0 113 -16 167 -60l-42 -64c-43 37 -88 50 -129 50c-37 0 -75 -22 -75 -57c0 -38 40 -56 92 -76z" />
    <glyph glyph-name="scircumflex" unicode="&#x15d;" horiz-adv-x="441" 
d="M225 645l-72 -89h-82l116 143h75l119 -143h-82l-72 89h-2zM230 286c103 -40 171 -57 170 -153c0 -76 -57 -139 -174 -139c-80 0 -143 27 -191 70l42 61c38 -35 80 -58 149 -58c58 0 92 30 92 65c0 42 -45 56 -116 80c-79 28 -146 61 -146 150c0 75 68 131 161 131
c58 0 113 -16 167 -60l-42 -64c-43 37 -88 50 -129 50c-37 0 -75 -22 -75 -57c0 -38 40 -56 92 -76z" />
    <glyph glyph-name="scommaaccent" unicode="&#x219;" horiz-adv-x="441" 
d="M226 -6c-80 0 -143 27 -191 70l42 61c38 -35 80 -58 149 -58c58 0 92 30 92 65c0 42 -45 56 -116 80c-79 28 -146 61 -146 150c0 75 68 131 161 131c58 0 113 -16 167 -60l-42 -64c-43 37 -88 50 -129 50c-37 0 -75 -22 -75 -57c0 -38 40 -56 92 -76
c103 -40 171 -57 170 -153c0 -76 -57 -139 -174 -139zM144 -212l-20 49c46 10 60 32 60 64c0 17 -2 28 -6 46h74c4 -16 5 -31 5 -51c0 -65 -46 -103 -113 -108z" />
    <glyph glyph-name="germandbls" unicode="&#xdf;" horiz-adv-x="625" 
d="M451 428c84 -36 134 -119 134 -208c0 -138 -94 -226 -224 -226h-108v73h90c91 0 160 62 160 155c0 83 -63 161 -171 161h-55v70h51c115 1 131 75 131 108c0 60 -46 107 -139 107c-101 0 -161 -49 -161 -174v-494h-81v492c0 171 89 251 239 251c143 0 223 -74 223 -176
c0 -43 -18 -106 -89 -139z" />
    <glyph glyph-name="longs" unicode="&#x17f;" horiz-adv-x="322" 
d="M98 0v417h-60v70h60v98c0 105 50 158 136 158c49 0 87 -15 114 -31l-18 -70c-31 16 -59 25 -85 25c-40 0 -67 -25 -67 -89v-578h-80z" />
    <glyph glyph-name="uni0259" unicode="&#x259;" horiz-adv-x="557" 
d="M261 493c136 0 249 -96 249 -250c0 -147 -102 -249 -237 -249c-137 0 -228 101 -228 241c0 13 1 28 2 34h380c-11 94 -77 149 -170 149c-49 0 -95 -15 -138 -36l-32 65c56 29 114 46 174 46zM272 68c82 0 139 51 153 133h-299c8 -80 70 -133 146 -133z" />
    <glyph glyph-name="t" unicode="t" horiz-adv-x="364" 
d="M215 -6c-87 0 -127 53 -127 151v272h-62v70h62v166l81 9v-175h162v-70h-162v-260c0 -58 14 -87 60 -87c29 0 59 12 82 25l22 -71c-27 -15 -61 -30 -118 -30z" />
    <glyph glyph-name="tbar" unicode="&#x167;" horiz-adv-x="364" 
d="M311 95l22 -71c-27 -15 -61 -30 -118 -30c-87 0 -127 53 -127 151v98h-53v65h53v109h-62v70h62v166l81 9v-175h162v-70h-162v-109h136v-65h-136v-86c0 -58 14 -87 60 -87c29 0 59 12 82 25z" />
    <glyph glyph-name="tcaron" unicode="&#x165;" horiz-adv-x="364" 
d="M236 588l29 184h80l-50 -184h-59zM215 -6c-87 0 -127 53 -127 151v272h-62v70h62v166l81 9v-175h162v-70h-162v-260c0 -58 14 -87 60 -87c29 0 59 12 82 25l22 -71c-27 -15 -61 -30 -118 -30z" />
    <glyph glyph-name="uni0163" unicode="&#x163;" horiz-adv-x="364" 
d="M198 -33c52 -3 87 -31 87 -79c0 -42 -33 -76 -107 -76c-24 0 -41 3 -56 6v44c13 -4 27 -7 48 -7c29 0 56 11 56 37c0 22 -27 42 -83 42v30l18 39c-50 18 -73 67 -73 142v272h-62v70h62v166l81 9v-175h162v-70h-162v-260c0 -58 14 -87 60 -87c29 0 59 12 82 25l22 -71
c-27 -15 -61 -30 -118 -30h-6l-12 -25z" />
    <glyph glyph-name="uni021B" unicode="&#x21b;" horiz-adv-x="364" 
d="M215 -6c-87 0 -127 53 -127 151v272h-62v70h62v166l81 9v-175h162v-70h-162v-260c0 -58 14 -87 60 -87c29 0 59 12 82 25l22 -71c-27 -15 -61 -30 -118 -30zM128 -212l-20 49c46 10 60 32 60 64c0 17 -2 28 -6 46h74c4 -16 5 -31 5 -51c0 -65 -46 -103 -113 -108z" />
    <glyph glyph-name="u" unicode="u" horiz-adv-x="564" 
d="M411 487h81v-487h-81v81h-1c-39 -56 -97 -87 -160 -87c-112 0 -183 64 -183 203v290h81v-267c0 -111 41 -152 119 -152c77 0 144 67 144 183v236z" />
    <glyph glyph-name="uacute" unicode="&#xfa;" horiz-adv-x="564" 
d="M445 699l-124 -142h-85l117 141zM411 487h81v-487h-81v81h-1c-39 -56 -97 -87 -160 -87c-112 0 -183 64 -183 203v290h81v-267c0 -111 41 -152 119 -152c77 0 144 67 144 183v236z" />
    <glyph glyph-name="ubreve" unicode="&#x16d;" horiz-adv-x="564" 
d="M281 554c-74 0 -138 49 -145 140h66c3 -46 31 -80 79 -80c46 0 76 32 79 80h65c-6 -85 -64 -140 -144 -140zM411 487h81v-487h-81v81h-1c-39 -56 -97 -87 -160 -87c-112 0 -183 64 -183 203v290h81v-267c0 -111 41 -152 119 -152c77 0 144 67 144 183v236z" />
    <glyph glyph-name="ucircumflex" unicode="&#xfb;" horiz-adv-x="564" 
d="M279 645l-72 -89h-82l116 143h75l119 -143h-82l-72 89h-2zM411 487h81v-487h-81v81h-1c-39 -56 -97 -87 -160 -87c-112 0 -183 64 -183 203v290h81v-267c0 -111 41 -152 119 -152c77 0 144 67 144 183v236z" />
    <glyph glyph-name="udieresis" unicode="&#xfc;" horiz-adv-x="564" 
d="M190 577c-33 0 -58 25 -58 57c0 31 25 57 58 57c32 0 58 -26 58 -57c0 -32 -26 -57 -58 -57zM371 578c-32 0 -57 25 -57 56c0 30 25 56 57 56s57 -26 57 -56c0 -31 -25 -56 -57 -56zM411 487h81v-487h-81v81h-1c-39 -56 -97 -87 -160 -87c-112 0 -183 64 -183 203v290h81
v-267c0 -111 41 -152 119 -152c77 0 144 67 144 183v236z" />
    <glyph glyph-name="uni1EE5" unicode="&#x1ee5;" horiz-adv-x="564" 
d="M411 487h81v-487h-81v81h-1c-39 -56 -97 -87 -160 -87c-112 0 -183 64 -183 203v290h81v-267c0 -111 41 -152 119 -152c77 0 144 67 144 183v236zM283 -111c33 0 58 -25 58 -57c0 -31 -25 -57 -58 -57c-32 0 -58 26 -58 57c0 32 26 57 58 57z" />
    <glyph glyph-name="ugrave" unicode="&#xf9;" horiz-adv-x="564" 
d="M352 557h-86l-124 142l93 -1zM411 487h81v-487h-81v81h-1c-39 -56 -97 -87 -160 -87c-112 0 -183 64 -183 203v290h81v-267c0 -111 41 -152 119 -152c77 0 144 67 144 183v236z" />
    <glyph glyph-name="uni1EE7" unicode="&#x1ee7;" horiz-adv-x="564" 
d="M285 667c-27 0 -53 -13 -70 -32l-35 32c25 26 66 46 111 46c58 0 91 -32 91 -74c0 -40 -35 -66 -85 -80l-7 -27h-34c-9 9 -15 16 -15 27c0 32 83 42 83 79c0 23 -21 29 -39 29zM411 487h81v-487h-81v81h-1c-39 -56 -97 -87 -160 -87c-112 0 -183 64 -183 203v290h81v-267
c0 -111 41 -152 119 -152c77 0 144 67 144 183v236z" />
    <glyph glyph-name="uhorn" unicode="&#x1b0;" horiz-adv-x="660" 
d="M561 565h83v-73c0 -113 -53 -174 -152 -177v-315h-81v81h-1c-39 -56 -97 -87 -160 -87c-112 0 -183 64 -183 203v290h81v-267c0 -111 41 -152 119 -152c77 0 144 67 144 183v236h81v-116c60 9 69 52 69 126v68z" />
    <glyph glyph-name="uni1EE9" unicode="&#x1ee9;" horiz-adv-x="660" 
d="M445 699l-124 -142h-85l117 141zM561 565h83v-73c0 -113 -53 -174 -152 -177v-315h-81v81h-1c-39 -56 -97 -87 -160 -87c-112 0 -183 64 -183 203v290h81v-267c0 -111 41 -152 119 -152c77 0 144 67 144 183v236h81v-116c60 9 69 52 69 126v68z" />
    <glyph glyph-name="uni1EF1" unicode="&#x1ef1;" horiz-adv-x="660" 
d="M561 565h83v-73c0 -113 -53 -174 -152 -177v-315h-81v81h-1c-39 -56 -97 -87 -160 -87c-112 0 -183 64 -183 203v290h81v-267c0 -111 41 -152 119 -152c77 0 144 67 144 183v236h81v-116c60 9 69 52 69 126v68zM283 -111c33 0 58 -25 58 -57c0 -31 -25 -57 -58 -57
c-32 0 -58 26 -58 57c0 32 26 57 58 57z" />
    <glyph glyph-name="uni1EEB" unicode="&#x1eeb;" horiz-adv-x="660" 
d="M352 557h-86l-124 142l93 -1zM561 565h83v-73c0 -113 -53 -174 -152 -177v-315h-81v81h-1c-39 -56 -97 -87 -160 -87c-112 0 -183 64 -183 203v290h81v-267c0 -111 41 -152 119 -152c77 0 144 67 144 183v236h81v-116c60 9 69 52 69 126v68z" />
    <glyph glyph-name="uni1EED" unicode="&#x1eed;" horiz-adv-x="660" 
d="M285 667c-27 0 -53 -13 -70 -32l-35 32c25 26 66 46 111 46c58 0 91 -32 91 -74c0 -40 -35 -66 -85 -80l-7 -27h-34c-9 9 -15 16 -15 27c0 32 83 42 83 79c0 23 -21 29 -39 29zM561 565h83v-73c0 -113 -53 -174 -152 -177v-315h-81v81h-1c-39 -56 -97 -87 -160 -87
c-112 0 -183 64 -183 203v290h81v-267c0 -111 41 -152 119 -152c77 0 144 67 144 183v236h81v-116c60 9 69 52 69 126v68z" />
    <glyph glyph-name="uni1EEF" unicode="&#x1eef;" horiz-adv-x="660" 
d="M214 621c-27 0 -47 -21 -60 -55l-52 23c18 60 52 99 103 99c36 0 59 -15 82 -29c21 -14 40 -30 63 -30c24 0 46 19 58 55l52 -17c-18 -67 -56 -105 -100 -105c-35 0 -63 19 -88 36c-20 12 -39 23 -58 23zM561 565h83v-73c0 -113 -53 -174 -152 -177v-315h-81v81h-1
c-39 -56 -97 -87 -160 -87c-112 0 -183 64 -183 203v290h81v-267c0 -111 41 -152 119 -152c77 0 144 67 144 183v236h81v-116c60 9 69 52 69 126v68z" />
    <glyph glyph-name="uhungarumlaut" unicode="&#x171;" horiz-adv-x="564" 
d="M353 699l-124 -142h-79l117 141zM396 557h-79l117 141l86 1zM411 251v236h81v-487h-81v81h-1c-39 -56 -97 -87 -160 -87c-112 0 -183 64 -183 203v290h81v-267c0 -111 41 -152 119 -152c77 0 144 67 144 183z" />
    <glyph glyph-name="umacron" unicode="&#x16b;" horiz-adv-x="564" 
d="M424 665v-69h-287v69h287zM411 487h81v-487h-81v81h-1c-39 -56 -97 -87 -160 -87c-112 0 -183 64 -183 203v290h81v-267c0 -111 41 -152 119 -152c77 0 144 67 144 183v236z" />
    <glyph glyph-name="uogonek" unicode="&#x173;" horiz-adv-x="564" 
d="M502 -120l6 -53c-18 -8 -40 -13 -68 -13c-62 0 -100 32 -100 84c0 34 25 76 71 106v77h-1c-39 -56 -97 -87 -160 -87c-112 0 -183 64 -183 203v290h81v-267c0 -111 41 -152 119 -152c77 0 144 67 144 183v236h81v-487h-4c-50 -14 -81 -51 -81 -84c0 -27 15 -45 49 -45
c25 0 33 2 46 9z" />
    <glyph glyph-name="uring" unicode="&#x16f;" horiz-adv-x="564" 
d="M280 537c-52 0 -96 42 -96 95c0 52 41 95 96 95c54 0 98 -41 98 -95c0 -51 -42 -95 -98 -95zM281 676c-24 0 -43 -20 -43 -43c0 -24 19 -42 43 -42c23 0 43 19 43 42s-20 43 -43 43zM411 487h81v-487h-81v81h-1c-39 -56 -97 -87 -160 -87c-112 0 -183 64 -183 203v290h81
v-267c0 -111 41 -152 119 -152c77 0 144 67 144 183v236z" />
    <glyph glyph-name="utilde" unicode="&#x169;" horiz-adv-x="564" 
d="M214 621c-27 0 -47 -21 -60 -55l-52 23c18 60 52 99 103 99c36 0 59 -15 82 -29c21 -14 40 -30 63 -30c24 0 46 19 58 55l52 -17c-18 -67 -56 -105 -100 -105c-35 0 -63 19 -88 36c-20 12 -39 23 -58 23zM411 487h81v-487h-81v81h-1c-39 -56 -97 -87 -160 -87
c-112 0 -183 64 -183 203v290h81v-267c0 -111 41 -152 119 -152c77 0 144 67 144 183v236z" />
    <glyph glyph-name="v" unicode="v" horiz-adv-x="523" 
d="M411 487h88l-198 -487h-78l-199 487h87l150 -384h3z" />
    <glyph glyph-name="w" unicode="w" horiz-adv-x="768" 
d="M657 487h82l-169 -487h-76l-110 355h-1l-111 -355h-74l-169 487h82l124 -364h2l111 364h70l113 -364h2z" />
    <glyph glyph-name="wacute" unicode="&#x1e83;" horiz-adv-x="768" 
d="M552 699l-124 -142h-85l117 141zM657 487h82l-169 -487h-76l-110 355h-1l-111 -355h-74l-169 487h82l124 -364h2l111 364h70l113 -364h2z" />
    <glyph glyph-name="wcircumflex" unicode="&#x175;" horiz-adv-x="768" 
d="M382 645l-72 -89h-82l116 143h75l119 -143h-82l-72 89h-2zM657 487h82l-169 -487h-76l-110 355h-1l-111 -355h-74l-169 487h82l124 -364h2l111 364h70l113 -364h2z" />
    <glyph glyph-name="wdieresis" unicode="&#x1e85;" horiz-adv-x="768" 
d="M293 577c-33 0 -58 25 -58 57c0 31 25 57 58 57c32 0 58 -26 58 -57c0 -32 -26 -57 -58 -57zM474 578c-32 0 -57 25 -57 56c0 30 25 56 57 56s57 -26 57 -56c0 -31 -25 -56 -57 -56zM657 487h82l-169 -487h-76l-110 355h-1l-111 -355h-74l-169 487h82l124 -364h2l111 364
h70l113 -364h2z" />
    <glyph glyph-name="wgrave" unicode="&#x1e81;" horiz-adv-x="768" 
d="M425 557h-86l-124 142l93 -1zM657 487h82l-169 -487h-76l-110 355h-1l-111 -355h-74l-169 487h82l124 -364h2l111 364h70l113 -364h2z" />
    <glyph glyph-name="x" unicode="x" horiz-adv-x="510" 
d="M388 0l-132 177h-2l-131 -177h-92l177 246l-177 241h95l128 -178h2l127 178h95l-176 -241l178 -246h-92z" />
    <glyph glyph-name="y" unicode="y" horiz-adv-x="528" 
d="M417 487h86l-275 -685h-86l87 218l-206 467h87l158 -371h2z" />
    <glyph glyph-name="yacute" unicode="&#xfd;" horiz-adv-x="528" 
d="M415 699l-124 -142h-85l117 141zM417 487h86l-275 -685h-86l87 218l-206 467h87l158 -371h2z" />
    <glyph glyph-name="ycircumflex" unicode="&#x177;" horiz-adv-x="528" 
d="M263 645l-72 -89h-82l116 143h75l119 -143h-82l-72 89h-2zM417 487h86l-275 -685h-86l87 218l-206 467h87l158 -371h2z" />
    <glyph glyph-name="ydieresis" unicode="&#xff;" horiz-adv-x="528" 
d="M174 577c-33 0 -58 25 -58 57c0 31 25 57 58 57c32 0 58 -26 58 -57c0 -32 -26 -57 -58 -57zM355 578c-32 0 -57 25 -57 56c0 30 25 56 57 56s57 -26 57 -56c0 -31 -25 -56 -57 -56zM417 487h86l-275 -685h-86l87 218l-206 467h87l158 -371h2z" />
    <glyph glyph-name="uni1EF5" unicode="&#x1ef5;" horiz-adv-x="528" 
d="M417 487h86l-275 -685h-86l87 218l-206 467h87l158 -371h2zM393 -111c33 0 58 -25 58 -57c0 -31 -25 -57 -58 -57c-32 0 -58 26 -58 57c0 32 26 57 58 57z" />
    <glyph glyph-name="ygrave" unicode="&#x1ef3;" horiz-adv-x="528" 
d="M327 557h-86l-124 142l93 -1zM417 487h86l-275 -685h-86l87 218l-206 467h87l158 -371h2z" />
    <glyph glyph-name="uni1EF7" unicode="&#x1ef7;" horiz-adv-x="528" 
d="M269 667c-27 0 -53 -13 -70 -32l-35 32c25 26 66 46 111 46c58 0 91 -32 91 -74c0 -40 -35 -66 -85 -80l-7 -27h-34c-9 9 -15 16 -15 27c0 32 83 42 83 79c0 23 -21 29 -39 29zM417 487h86l-275 -685h-86l87 218l-206 467h87l158 -371h2z" />
    <glyph glyph-name="uni0233" unicode="&#x233;" horiz-adv-x="528" 
d="M408 665v-69h-287v69h287zM417 487h86l-275 -685h-86l87 218l-206 467h87l158 -371h2z" />
    <glyph glyph-name="uni1EF9" unicode="&#x1ef9;" horiz-adv-x="528" 
d="M198 621c-27 0 -47 -21 -60 -55l-52 23c18 60 52 99 103 99c36 0 59 -15 82 -29c21 -14 40 -30 63 -30c24 0 46 19 58 55l52 -17c-18 -67 -56 -105 -100 -105c-35 0 -63 19 -88 36c-20 12 -39 23 -58 23zM417 487h86l-275 -685h-86l87 218l-206 467h87l158 -371h2z" />
    <glyph glyph-name="z" unicode="z" horiz-adv-x="475" 
d="M433 429l-285 -357v-2h284v-70h-393v60l282 355v2h-267v70h379v-58z" />
    <glyph glyph-name="zacute" unicode="&#x17a;" horiz-adv-x="475" 
d="M359 699l-124 -142h-85l117 141zM433 429l-285 -357v-2h284v-70h-393v60l282 355v2h-267v70h379v-58z" />
    <glyph glyph-name="zcaron" unicode="&#x17e;" horiz-adv-x="475" 
d="M272 556h-74l-116 143h82l72 -90h2l72 90h82zM433 429l-285 -357v-2h284v-70h-393v60l282 355v2h-267v70h379v-58z" />
    <glyph glyph-name="zdotaccent" unicode="&#x17c;" horiz-adv-x="475" 
d="M238 577c-33 0 -58 25 -58 57c0 31 25 57 58 57c32 0 58 -26 58 -57c0 -32 -26 -57 -58 -57zM433 429l-285 -357v-2h284v-70h-393v60l282 355v2h-267v70h379v-58z" />
    <glyph glyph-name="a.alt" horiz-adv-x="507" 
d="M259 493c120 0 184 -68 184 -204v-289h-76l-3 59h-2c-35 -36 -91 -65 -156 -65c-111 0 -164 65 -164 149c0 92 60 151 187 152h133c-3 83 -41 123 -109 123c-52 0 -102 -15 -141 -36l-32 65c34 20 98 46 179 46zM222 68c83 0 140 53 140 96v63l-125 -1
c-69 0 -113 -24 -113 -80c0 -42 30 -78 98 -78z" />
    <glyph glyph-name="aacute.alt" horiz-adv-x="507" 
d="M417 699l-124 -142h-85l117 141zM259 493c120 0 184 -68 184 -204v-289h-76l-3 59h-2c-35 -36 -91 -65 -156 -65c-111 0 -164 65 -164 149c0 92 60 151 187 152h133c-3 83 -41 123 -109 123c-52 0 -102 -15 -141 -36l-32 65c34 20 98 46 179 46zM222 68
c83 0 140 53 140 96v63l-125 -1c-69 0 -113 -24 -113 -80c0 -42 30 -78 98 -78z" />
    <glyph glyph-name="abreve.alt" horiz-adv-x="507" 
d="M264 554c-74 0 -138 49 -145 140h66c3 -46 31 -80 79 -80c46 0 76 32 79 80h65c-6 -85 -64 -140 -144 -140zM259 493c120 0 184 -68 184 -204v-289h-76l-3 59h-2c-35 -36 -91 -65 -156 -65c-111 0 -164 65 -164 149c0 92 60 151 187 152h133c-3 83 -41 123 -109 123
c-52 0 -102 -15 -141 -36l-32 65c34 20 98 46 179 46zM222 68c83 0 140 53 140 96v63l-125 -1c-69 0 -113 -24 -113 -80c0 -42 30 -78 98 -78z" />
    <glyph glyph-name="uni1EAF.alt" horiz-adv-x="507" 
d="M407 847l-124 -142h-85l117 141zM263 553c-74 0 -138 49 -145 140h66c3 -46 31 -80 79 -80c46 0 76 32 79 80h65c-6 -85 -64 -140 -144 -140zM259 493c120 0 184 -68 184 -204v-289h-76l-3 59h-2c-35 -36 -91 -65 -156 -65c-111 0 -164 65 -164 149c0 92 60 151 187 152
h133c-3 83 -41 123 -109 123c-52 0 -102 -15 -141 -36l-32 65c34 20 98 46 179 46zM222 68c83 0 140 53 140 96v63l-125 -1c-69 0 -113 -24 -113 -80c0 -42 30 -78 98 -78z" />
    <glyph glyph-name="uni1EB7.alt" horiz-adv-x="507" 
d="M264 554c-74 0 -138 49 -145 140h66c3 -46 31 -80 79 -80c46 0 76 32 79 80h65c-6 -85 -64 -140 -144 -140zM259 493c120 0 184 -68 184 -204v-289h-76l-3 59h-2c-35 -36 -91 -65 -156 -65c-111 0 -164 65 -164 149c0 92 60 151 187 152h133c-3 83 -41 123 -109 123
c-52 0 -102 -15 -141 -36l-32 65c34 20 98 46 179 46zM222 68c83 0 140 53 140 96v63l-125 -1c-69 0 -113 -24 -113 -80c0 -42 30 -78 98 -78zM263 -111c33 0 58 -25 58 -57c0 -31 -25 -57 -58 -57c-32 0 -58 26 -58 57c0 32 26 57 58 57z" />
    <glyph glyph-name="uni1EB1.alt" horiz-adv-x="507" 
d="M305 705h-86l-124 142l93 -1zM186 693c3 -46 31 -80 79 -80c46 0 76 32 79 80h65c-6 -85 -64 -140 -144 -140c-74 0 -138 49 -145 140h66zM259 493c120 0 184 -68 184 -204v-289h-76l-3 59h-2c-35 -36 -91 -65 -156 -65c-111 0 -164 65 -164 149c0 92 60 151 187 152h133
c-3 83 -41 123 -109 123c-52 0 -102 -15 -141 -36l-32 65c34 20 98 46 179 46zM222 68c83 0 140 53 140 96v63l-125 -1c-69 0 -113 -24 -113 -80c0 -42 30 -78 98 -78z" />
    <glyph glyph-name="uni1EB3.alt" horiz-adv-x="507" 
d="M269 819c-27 0 -53 -13 -70 -32l-35 32c25 26 66 46 111 46c58 0 91 -32 91 -74c0 -40 -35 -66 -85 -80l-7 -27h-34c-9 9 -15 16 -15 27c0 32 83 42 83 79c0 23 -21 29 -39 29zM265 553c-74 0 -138 49 -145 140h66c3 -46 31 -80 79 -80c46 0 76 32 79 80h65
c-6 -85 -64 -140 -144 -140zM259 493c120 0 184 -68 184 -204v-289h-76l-3 59h-2c-35 -36 -91 -65 -156 -65c-111 0 -164 65 -164 149c0 92 60 151 187 152h133c-3 83 -41 123 -109 123c-52 0 -102 -15 -141 -36l-32 65c34 20 98 46 179 46zM222 68c83 0 140 53 140 96v63
l-125 -1c-69 0 -113 -24 -113 -80c0 -42 30 -78 98 -78z" />
    <glyph glyph-name="uni1EB5.alt" horiz-adv-x="507" 
d="M198 773c-20 0 -40 -21 -52 -55l-53 23c19 60 54 99 97 99c36 0 56 -15 79 -29c21 -14 40 -30 63 -30c24 0 46 19 58 55l52 -17c-18 -67 -56 -105 -100 -105c-35 0 -63 19 -88 36c-20 12 -34 23 -56 23zM263 613c46 0 76 32 79 80h65c-6 -85 -64 -140 -144 -140
c-74 0 -138 49 -145 140h66c3 -46 31 -80 79 -80zM259 493c120 0 184 -68 184 -204v-289h-76l-3 59h-2c-35 -36 -91 -65 -156 -65c-111 0 -164 65 -164 149c0 92 60 151 187 152h133c-3 83 -41 123 -109 123c-52 0 -102 -15 -141 -36l-32 65c34 20 98 46 179 46zM222 68
c83 0 140 53 140 96v63l-125 -1c-69 0 -113 -24 -113 -80c0 -42 30 -78 98 -78z" />
    <glyph glyph-name="acircumflex.alt" horiz-adv-x="507" 
d="M262 645l-72 -89h-82l116 143h75l119 -143h-82l-72 89h-2zM259 493c120 0 184 -68 184 -204v-289h-76l-3 59h-2c-35 -36 -91 -65 -156 -65c-111 0 -164 65 -164 149c0 92 60 151 187 152h133c-3 83 -41 123 -109 123c-52 0 -102 -15 -141 -36l-32 65c34 20 98 46 179 46z
M222 68c83 0 140 53 140 96v63l-125 -1c-69 0 -113 -24 -113 -80c0 -42 30 -78 98 -78z" />
    <glyph glyph-name="uni1EA5.alt" horiz-adv-x="507" 
d="M581 783l-144 -142h-65l118 142h91zM263 644l-72 -89h-82l116 143h75l119 -143h-82l-72 89h-2zM259 493c120 0 184 -68 184 -204v-289h-76l-3 59h-2c-35 -36 -91 -65 -156 -65c-111 0 -164 65 -164 149c0 92 60 151 187 152h133c-3 83 -41 123 -109 123
c-52 0 -102 -15 -141 -36l-32 65c34 20 98 46 179 46zM222 68c83 0 140 53 140 96v63l-125 -1c-69 0 -113 -24 -113 -80c0 -42 30 -78 98 -78z" />
    <glyph glyph-name="uni1EAD.alt" horiz-adv-x="507" 
d="M262 644l-72 -89h-82l116 143h75l119 -143h-82l-72 89h-2zM259 493c120 0 184 -68 184 -204v-289h-76l-3 59h-2c-35 -36 -91 -65 -156 -65c-111 0 -164 65 -164 149c0 92 60 151 187 152h133c-3 83 -41 123 -109 123c-52 0 -102 -15 -141 -36l-32 65c34 20 98 46 179 46z
M222 68c83 0 140 53 140 96v63l-125 -1c-69 0 -113 -24 -113 -80c0 -42 30 -78 98 -78zM263 -111c33 0 58 -25 58 -57c0 -31 -25 -57 -58 -57c-32 0 -58 26 -58 57c0 32 26 57 58 57z" />
    <glyph glyph-name="uni1EA7.alt" horiz-adv-x="507" 
d="M478 641h-65l-124 142h91zM260 644l-72 -89h-82l116 143h75l119 -143h-82l-72 89h-2zM259 493c120 0 184 -68 184 -204v-289h-76l-3 59h-2c-35 -36 -91 -65 -156 -65c-111 0 -164 65 -164 149c0 92 60 151 187 152h133c-3 83 -41 123 -109 123c-52 0 -102 -15 -141 -36
l-32 65c34 20 98 46 179 46zM222 68c83 0 140 53 140 96v63l-125 -1c-69 0 -113 -24 -113 -80c0 -42 30 -78 98 -78z" />
    <glyph glyph-name="uni1EA9.alt" horiz-adv-x="507" 
d="M429 797c55 0 87 -32 87 -74c0 -40 -34 -66 -82 -81l-6 -26h-34c-9 9 -15 16 -15 27c0 32 79 42 79 79c0 20 -17 28 -35 28c-28 0 -54 -12 -70 -31l-35 32c25 26 66 46 111 46zM262 644l-72 -89h-82l116 143h75l119 -143h-82l-72 89h-2zM259 493c120 0 184 -68 184 -204
v-289h-76l-3 59h-2c-35 -36 -91 -65 -156 -65c-111 0 -164 65 -164 149c0 92 60 151 187 152h133c-3 83 -41 123 -109 123c-52 0 -102 -15 -141 -36l-32 65c34 20 98 46 179 46zM222 68c83 0 140 53 140 96v63l-125 -1c-69 0 -113 -24 -113 -80c0 -42 30 -78 98 -78z" />
    <glyph glyph-name="uni1EAB.alt" horiz-adv-x="507" 
d="M199 773c-20 0 -40 -21 -52 -55l-53 23c19 60 54 99 97 99c36 0 56 -15 79 -29c21 -14 40 -30 63 -30c24 0 46 19 58 55l52 -17c-18 -67 -56 -105 -100 -105c-35 0 -63 19 -88 36c-20 12 -34 23 -56 23zM224 698h75l119 -143h-82l-72 89h-2l-72 -89h-82zM259 493
c120 0 184 -68 184 -204v-289h-76l-3 59h-2c-35 -36 -91 -65 -156 -65c-111 0 -164 65 -164 149c0 92 60 151 187 152h133c-3 83 -41 123 -109 123c-52 0 -102 -15 -141 -36l-32 65c34 20 98 46 179 46zM222 68c83 0 140 53 140 96v63l-125 -1c-69 0 -113 -24 -113 -80
c0 -42 30 -78 98 -78z" />
    <glyph glyph-name="adieresis.alt" horiz-adv-x="507" 
d="M173 577c-33 0 -58 25 -58 57c0 31 25 57 58 57c32 0 58 -26 58 -57c0 -32 -26 -57 -58 -57zM354 578c-32 0 -57 25 -57 56c0 30 25 56 57 56s57 -26 57 -56c0 -31 -25 -56 -57 -56zM259 493c120 0 184 -68 184 -204v-289h-76l-3 59h-2c-35 -36 -91 -65 -156 -65
c-111 0 -164 65 -164 149c0 92 60 151 187 152h133c-3 83 -41 123 -109 123c-52 0 -102 -15 -141 -36l-32 65c34 20 98 46 179 46zM222 68c83 0 140 53 140 96v63l-125 -1c-69 0 -113 -24 -113 -80c0 -42 30 -78 98 -78z" />
    <glyph glyph-name="uni1EA1.alt" horiz-adv-x="507" 
d="M259 493c120 0 184 -68 184 -204v-289h-76l-3 59h-2c-35 -36 -91 -65 -156 -65c-111 0 -164 65 -164 149c0 92 60 151 187 152h133c-3 83 -41 123 -109 123c-52 0 -102 -15 -141 -36l-32 65c34 20 98 46 179 46zM222 68c83 0 140 53 140 96v63l-125 -1
c-69 0 -113 -24 -113 -80c0 -42 30 -78 98 -78zM263 -111c33 0 58 -25 58 -57c0 -31 -25 -57 -58 -57c-32 0 -58 26 -58 57c0 32 26 57 58 57z" />
    <glyph glyph-name="agrave.alt" horiz-adv-x="507" 
d="M338 557h-86l-124 142l93 -1zM259 493c120 0 184 -68 184 -204v-289h-76l-3 59h-2c-35 -36 -91 -65 -156 -65c-111 0 -164 65 -164 149c0 92 60 151 187 152h133c-3 83 -41 123 -109 123c-52 0 -102 -15 -141 -36l-32 65c34 20 98 46 179 46zM222 68c83 0 140 53 140 96
v63l-125 -1c-69 0 -113 -24 -113 -80c0 -42 30 -78 98 -78z" />
    <glyph glyph-name="uni1EA3.alt" horiz-adv-x="507" 
d="M268 667c-27 0 -53 -13 -70 -32l-35 32c25 26 66 46 111 46c58 0 91 -32 91 -74c0 -40 -35 -66 -85 -80l-7 -27h-34c-9 9 -15 16 -15 27c0 32 83 42 83 79c0 23 -21 29 -39 29zM259 493c120 0 184 -68 184 -204v-289h-76l-3 59h-2c-35 -36 -91 -65 -156 -65
c-111 0 -164 65 -164 149c0 92 60 151 187 152h133c-3 83 -41 123 -109 123c-52 0 -102 -15 -141 -36l-32 65c34 20 98 46 179 46zM222 68c83 0 140 53 140 96v63l-125 -1c-69 0 -113 -24 -113 -80c0 -42 30 -78 98 -78z" />
    <glyph glyph-name="amacron.alt" horiz-adv-x="507" 
d="M407 665v-69h-287v69h287zM259 493c120 0 184 -68 184 -204v-289h-76l-3 59h-2c-35 -36 -91 -65 -156 -65c-111 0 -164 65 -164 149c0 92 60 151 187 152h133c-3 83 -41 123 -109 123c-52 0 -102 -15 -141 -36l-32 65c34 20 98 46 179 46zM222 68c83 0 140 53 140 96v63
l-125 -1c-69 0 -113 -24 -113 -80c0 -42 30 -78 98 -78z" />
    <glyph glyph-name="aogonek.alt" horiz-adv-x="507" 
d="M456 -120l6 -53c-18 -8 -40 -13 -68 -13c-62 0 -100 32 -100 84c0 34 25 77 72 107l1 1l-3 53h-2c-35 -36 -91 -65 -156 -65c-111 0 -164 65 -164 149c0 92 60 151 187 152h133c-3 83 -41 123 -109 123c-52 0 -102 -15 -141 -36l-32 65c34 20 98 46 179 46
c120 0 184 -68 184 -204v-289h-1c-50 -14 -81 -51 -81 -84c0 -27 15 -45 49 -45c25 0 33 2 46 9zM222 68c83 0 140 53 140 96v63l-125 -1c-69 0 -113 -24 -113 -80c0 -42 30 -78 98 -78z" />
    <glyph glyph-name="aring.alt" horiz-adv-x="507" 
d="M263 537c-52 0 -96 42 -96 95c0 52 41 95 96 95c54 0 98 -41 98 -95c0 -51 -42 -95 -98 -95zM264 676c-24 0 -43 -20 -43 -43c0 -24 19 -42 43 -42c23 0 43 19 43 42s-20 43 -43 43zM259 493c120 0 184 -68 184 -204v-289h-76l-3 59h-2c-35 -36 -91 -65 -156 -65
c-111 0 -164 65 -164 149c0 92 60 151 187 152h133c-3 83 -41 123 -109 123c-52 0 -102 -15 -141 -36l-32 65c34 20 98 46 179 46zM222 68c83 0 140 53 140 96v63l-125 -1c-69 0 -113 -24 -113 -80c0 -42 30 -78 98 -78z" />
    <glyph glyph-name="aringacute.alt" horiz-adv-x="507" 
d="M265 537c-52 0 -96 42 -96 95c0 52 41 95 96 95c27 0 52 -10 69 -27l70 48l97 1l-139 -103c1 -5 1 -9 1 -14c0 -51 -42 -95 -98 -95zM266 676c-24 0 -43 -20 -43 -43c0 -24 19 -42 43 -42c23 0 43 19 43 42s-20 43 -43 43zM259 493c120 0 184 -68 184 -204v-289h-76
l-3 59h-2c-35 -36 -91 -65 -156 -65c-111 0 -164 65 -164 149c0 92 60 151 187 152h133c-3 83 -41 123 -109 123c-52 0 -102 -15 -141 -36l-32 65c34 20 98 46 179 46zM222 68c83 0 140 53 140 96v63l-125 -1c-69 0 -113 -24 -113 -80c0 -42 30 -78 98 -78z" />
    <glyph glyph-name="atilde.alt" horiz-adv-x="507" 
d="M197 621c-27 0 -47 -21 -60 -55l-52 23c18 60 52 99 103 99c36 0 59 -15 82 -29c21 -14 40 -30 63 -30c24 0 46 19 58 55l52 -17c-18 -67 -56 -105 -100 -105c-35 0 -63 19 -88 36c-20 12 -39 23 -58 23zM259 493c120 0 184 -68 184 -204v-289h-76l-3 59h-2
c-35 -36 -91 -65 -156 -65c-111 0 -164 65 -164 149c0 92 60 151 187 152h133c-3 83 -41 123 -109 123c-52 0 -102 -15 -141 -36l-32 65c34 20 98 46 179 46zM222 68c83 0 140 53 140 96v63l-125 -1c-69 0 -113 -24 -113 -80c0 -42 30 -78 98 -78z" />
    <glyph glyph-name="g.alt" horiz-adv-x="530" 
d="M307 72c100 0 208 -21 208 -132c0 -84 -70 -158 -247 -158c-147 0 -238 46 -238 145c0 45 26 82 56 108v1c-22 15 -32 37 -32 61c1 38 22 69 64 109v2c-25 29 -40 66 -40 109c0 100 76 176 193 176c42 0 80 -10 111 -28h4l90 89l48 -48l-91 -86v-2c20 -27 31 -62 31 -101
c0 -98 -76 -173 -193 -173c-38 0 -73 9 -103 25l-2 -1c-27 -25 -39 -41 -39 -62c0 -22 21 -34 59 -34h121zM271 423c-69 0 -113 -42 -113 -106c0 -63 44 -103 113 -103c68 0 112 40 112 103c0 64 -44 106 -112 106zM271 -143c97 0 163 29 163 82s-60 62 -149 62
c-23 0 -105 -1 -140 3c-9 -6 -38 -33 -38 -66c0 -53 48 -81 164 -81z" />
    <glyph glyph-name="gbreve.alt" horiz-adv-x="530" 
d="M271 552c-74 0 -138 49 -145 140h66c3 -46 31 -80 79 -80c46 0 76 32 79 80h65c-6 -85 -64 -140 -144 -140zM307 72c100 0 208 -21 208 -132c0 -84 -70 -158 -247 -158c-147 0 -238 46 -238 145c0 45 26 82 56 108v1c-22 15 -32 37 -32 61c1 38 22 69 64 109v2
c-25 29 -40 66 -40 109c0 100 76 176 193 176c42 0 80 -10 111 -28h4l90 89l48 -48l-91 -86v-2c20 -27 31 -62 31 -101c0 -98 -76 -173 -193 -173c-38 0 -73 9 -103 25l-2 -1c-27 -25 -39 -41 -39 -62c0 -22 21 -34 59 -34h121zM271 423c-69 0 -113 -42 -113 -106
c0 -63 44 -103 113 -103c68 0 112 40 112 103c0 64 -44 106 -112 106zM271 -143c97 0 163 29 163 82s-60 62 -149 62c-23 0 -105 -1 -140 3c-9 -6 -38 -33 -38 -66c0 -53 48 -81 164 -81z" />
    <glyph glyph-name="gcaron.alt" horiz-adv-x="530" 
d="M305 554h-74l-116 143h82l72 -90h2l72 90h82zM307 72c100 0 208 -21 208 -132c0 -84 -70 -158 -247 -158c-147 0 -238 46 -238 145c0 45 26 82 56 108v1c-22 15 -32 37 -32 61c1 38 22 69 64 109v2c-25 29 -40 66 -40 109c0 100 76 176 193 176c42 0 80 -10 111 -28h4
l90 89l48 -48l-91 -86v-2c20 -27 31 -62 31 -101c0 -98 -76 -173 -193 -173c-38 0 -73 9 -103 25l-2 -1c-27 -25 -39 -41 -39 -62c0 -22 21 -34 59 -34h121zM271 423c-69 0 -113 -42 -113 -106c0 -63 44 -103 113 -103c68 0 112 40 112 103c0 64 -44 106 -112 106zM271 -143
c97 0 163 29 163 82s-60 62 -149 62c-23 0 -105 -1 -140 3c-9 -6 -38 -33 -38 -66c0 -53 48 -81 164 -81z" />
    <glyph glyph-name="gcircumflex.alt" horiz-adv-x="530" 
d="M269 646l-73 -90h-81l115 143h75l120 -143h-83zM307 72c100 0 208 -21 208 -132c0 -84 -70 -158 -247 -158c-147 0 -238 46 -238 145c0 45 26 82 56 108v1c-22 15 -32 37 -32 61c1 38 22 69 64 109v2c-25 29 -40 66 -40 109c0 100 76 176 193 176c42 0 80 -10 111 -28h4
l90 89l48 -48l-91 -86v-2c20 -27 31 -62 31 -101c0 -98 -76 -173 -193 -173c-38 0 -73 9 -103 25l-2 -1c-27 -25 -39 -41 -39 -62c0 -22 21 -34 59 -34h121zM271 423c-69 0 -113 -42 -113 -106c0 -63 44 -103 113 -103c68 0 112 40 112 103c0 64 -44 106 -112 106zM271 -143
c97 0 163 29 163 82s-60 62 -149 62c-23 0 -105 -1 -140 3c-9 -6 -38 -33 -38 -66c0 -53 48 -81 164 -81z" />
    <glyph glyph-name="gcommaaccent.alt" horiz-adv-x="530" 
d="M315 553h-74c-4 16 -5 31 -5 51c0 65 46 103 113 108l20 -49c-46 -10 -60 -32 -60 -64c0 -17 2 -28 6 -46zM307 72c100 0 208 -21 208 -132c0 -84 -70 -158 -247 -158c-147 0 -238 46 -238 145c0 45 26 82 56 108v1c-22 15 -32 37 -32 61c1 38 22 69 64 109v2
c-25 29 -40 66 -40 109c0 100 76 176 193 176c42 0 80 -10 111 -28h4l90 89l48 -48l-91 -86v-2c20 -27 31 -62 31 -101c0 -98 -76 -173 -193 -173c-38 0 -73 9 -103 25l-2 -1c-27 -25 -39 -41 -39 -62c0 -22 21 -34 59 -34h121zM271 423c-69 0 -113 -42 -113 -106
c0 -63 44 -103 113 -103c68 0 112 40 112 103c0 64 -44 106 -112 106zM271 -143c97 0 163 29 163 82s-60 62 -149 62c-23 0 -105 -1 -140 3c-9 -6 -38 -33 -38 -66c0 -53 48 -81 164 -81z" />
    <glyph glyph-name="gdotaccent.alt" horiz-adv-x="530" 
d="M271 575c-33 0 -58 25 -58 57c0 31 25 57 58 57c32 0 58 -26 58 -57c0 -32 -26 -57 -58 -57zM307 72c100 0 208 -21 208 -132c0 -84 -70 -158 -247 -158c-147 0 -238 46 -238 145c0 45 26 82 56 108v1c-22 15 -32 37 -32 61c1 38 22 69 64 109v2c-25 29 -40 66 -40 109
c0 100 76 176 193 176c42 0 80 -10 111 -28h4l90 89l48 -48l-91 -86v-2c20 -27 31 -62 31 -101c0 -98 -76 -173 -193 -173c-38 0 -73 9 -103 25l-2 -1c-27 -25 -39 -41 -39 -62c0 -22 21 -34 59 -34h121zM271 423c-69 0 -113 -42 -113 -106c0 -63 44 -103 113 -103
c68 0 112 40 112 103c0 64 -44 106 -112 106zM271 -143c97 0 163 29 163 82s-60 62 -149 62c-23 0 -105 -1 -140 3c-9 -6 -38 -33 -38 -66c0 -53 48 -81 164 -81z" />
    <glyph glyph-name="f.calt" horiz-adv-x="335" 
d="M98 0v417h-60v70h60v98c0 105 50 158 136 158c29 0 54 -5 76 -13l-17 -72c-17 6 -33 9 -48 9c-40 0 -67 -25 -67 -89v-91h138v-70h-138v-417h-80z" />
    <glyph glyph-name="j.calt" horiz-adv-x="228" 
d="M116 577c-33 0 -58 25 -58 57c0 31 25 57 58 57c32 0 58 -26 58 -57c0 -32 -26 -57 -58 -57zM-3 -129c5 -1 25 -1 30 -1c36 0 49 23 49 79v538h81v-538c0 -95 -32 -153 -114 -153c-15 0 -38 1 -52 3z" />
    <glyph glyph-name="uni0237.calt" horiz-adv-x="228" 
d="M-3 -129c5 -1 25 -1 30 -1c36 0 49 23 49 79v538h81v-538c0 -95 -32 -153 -114 -153c-15 0 -38 1 -52 3z" />
    <glyph glyph-name="jcircumflex.calt" horiz-adv-x="228" 
d="M151 699l119 -143h-82l-72 89h-2l-72 -89h-82l116 143h75zM76 -51v538h81v-538c0 -95 -32 -153 -114 -153c-15 0 -38 1 -52 3l6 72c5 -1 25 -1 30 -1c36 0 49 23 49 79z" />
    <glyph glyph-name="germandbls.calt" horiz-adv-x="743" 
d="M492 406c119 -47 219 -79 219 -212c0 -131 -114 -200 -231 -200c-73 0 -155 27 -221 88l41 79c51 -58 122 -86 181 -86c81 0 140 40 140 110c0 78 -65 100 -160 135c-33 12 -67 27 -103 44l10 16l126 241v1c-62 9 -124 15 -167 15c-116 0 -171 -41 -171 -150l-1 -487h-87
l1 492c0 157 91 225 248 225c70 0 192 -18 297 -42l-139 -261l2 -2z" />
    <glyph glyph-name="ordfeminine" unicode="&#xaa;" horiz-adv-x="390" 
d="M282 687h59v-292h-59v43h-1c-25 -31 -63 -48 -107 -48c-85 0 -145 61 -145 149c0 87 58 152 142 152c42 0 83 -19 110 -53h1v49zM187 447c52 0 93 36 93 92c0 54 -38 95 -92 95c-55 0 -98 -38 -98 -95c0 -53 40 -92 97 -92z" />
    <glyph glyph-name="ordmasculine" unicode="&#xba;" horiz-adv-x="378" 
d="M184 390c-92 0 -155 65 -155 151c0 85 63 150 155 150c88 0 155 -61 155 -150c0 -90 -67 -151 -155 -151zM184 446c51 0 91 39 91 95c0 55 -39 94 -91 94c-54 0 -91 -42 -91 -94c0 -53 37 -95 91 -95z" />
    <glyph glyph-name="Alpha" unicode="&#x391;" 
d="M563 0l-63 173h-317l-63 -173h-92l269 710h87l271 -710h-92zM211 249h261l-130 355h-2z" />
    <glyph glyph-name="Beta" unicode="&#x392;" horiz-adv-x="639" 
d="M439 373c81 -17 147 -76 147 -181c0 -112 -76 -192 -237 -192h-259v710h232c139 0 229 -52 229 -173c0 -69 -36 -135 -112 -162v-2zM177 630v-225h144c68 0 141 30 141 115c0 67 -45 110 -158 110h-127zM325 80c101 0 170 39 170 120c0 79 -58 127 -166 127h-152v-247
h148z" />
    <glyph glyph-name="Gamma" unicode="&#x393;" horiz-adv-x="567" 
d="M90 0v710h447v-80h-360v-630h-87z" />
    <glyph glyph-name="uni0394" unicode="&#x394;" horiz-adv-x="667" 
d="M377 710l253 -642v-68h-71h-512h-10v68l251 642h89zM136 80h393l-195 521h-2z" />
    <glyph glyph-name="Epsilon" unicode="&#x395;" horiz-adv-x="598" 
d="M90 0v710h435v-80h-347v-237h285v-80h-285v-233h368v-80h-456z" />
    <glyph glyph-name="Zeta" unicode="&#x396;" horiz-adv-x="618" 
d="M170 80h385v-80h-496v69l379 560v1h-359v80h473v-69z" />
    <glyph glyph-name="Eta" unicode="&#x397;" horiz-adv-x="726" 
d="M90 0v710h87v-333h372v333h87v-710h-87v297h-372v-297h-87z" />
    <glyph glyph-name="Theta" unicode="&#x398;" horiz-adv-x="840" 
d="M416 -6c-213 0 -357 156 -357 361s144 362 357 362c200 0 354 -145 354 -362c0 -216 -154 -361 -354 -361zM416 77c147 0 263 115 263 278c0 165 -116 279 -263 279c-159 0 -267 -125 -267 -279s108 -278 267 -278zM249 311v80h342v-80h-342z" />
    <glyph glyph-name="Iota" unicode="&#x399;" horiz-adv-x="278" 
d="M95 0v710h88v-710h-88z" />
    <glyph glyph-name="Kappa" unicode="&#x39a;" horiz-adv-x="650" 
d="M281 316h-3l-101 -120v-196h-87v710h87v-390h2l323 390h111l-275 -323l283 -387h-109z" />
    <glyph glyph-name="Lambda" unicode="&#x39b;" horiz-adv-x="674" 
d="M550 0l-213 587h-2l-211 -587h-94l262 710h89l264 -710h-95z" />
    <glyph glyph-name="Mu" unicode="&#x39c;" horiz-adv-x="879" 
d="M702 710h87v-710h-87v544h-2l-231 -401h-59l-231 401h-2v-544h-87v710h88l261 -459h2z" />
    <glyph glyph-name="Nu" unicode="&#x39d;" horiz-adv-x="756" 
d="M579 710h87v-710h-89l-398 560h-2v-560h-87v710h86l401 -566h2v566z" />
    <glyph glyph-name="Xi" unicode="&#x39e;" horiz-adv-x="630" 
d="M72 628v82h487v-82h-487zM118 309v82h393v-82h-393zM65 0v83h500v-83h-500z" />
    <glyph glyph-name="Omicron" unicode="&#x39f;" horiz-adv-x="829" 
d="M416 -6c-213 0 -357 156 -357 361s144 362 357 362c200 0 354 -145 354 -362c0 -216 -154 -361 -354 -361zM416 77c147 0 263 115 263 278c0 165 -116 279 -263 279c-159 0 -267 -125 -267 -279s108 -278 267 -278z" />
    <glyph glyph-name="Pi" unicode="&#x3a0;" horiz-adv-x="701" 
d="M90 0v710h521v-710h-87v630h-347v-630h-87z" />
    <glyph glyph-name="Rho" unicode="&#x3a1;" horiz-adv-x="618" 
d="M90 0v710h249c166 0 235 -94 235 -220c0 -150 -102 -219 -250 -219h-147v-271h-87zM177 351h139c119 0 167 60 167 141c0 90 -58 138 -153 138h-153v-279z" />
    <glyph glyph-name="Sigma" unicode="&#x3a3;" horiz-adv-x="581" 
d="M536 630h-368v-2l188 -271l-189 -276v-1h369v-80h-480v63l200 294l-200 288v65h480v-80z" />
    <glyph glyph-name="Tau" unicode="&#x3a4;" horiz-adv-x="577" 
d="M244 0v630h-213v80h514v-80h-214v-630h-87z" />
    <glyph glyph-name="Upsilon" unicode="&#x3a5;" horiz-adv-x="604" 
d="M486 710h101l-242 -393v-317h-87v317l-241 393h100l184 -306h2z" />
    <glyph glyph-name="Phi" unicode="&#x3a6;" horiz-adv-x="814" 
d="M765 357c0 -168 -120 -280 -313 -294v-63h-88v63c-195 14 -314 126 -314 294c0 174 119 293 314 308v55h88v-55c194 -16 313 -134 313 -308zM140 357c0 -121 84 -202 226 -215v444c-142 -14 -226 -100 -226 -229zM450 142c141 13 224 94 224 215c0 128 -82 214 -224 229
v-444z" />
    <glyph glyph-name="Chi" unicode="&#x3a7;" horiz-adv-x="667" 
d="M530 0l-195 286h-2l-195 -286h-103l243 355l-240 355h100l195 -287h2l194 287h101l-239 -356l242 -354h-103z" />
    <glyph glyph-name="Psi" unicode="&#x3a8;" horiz-adv-x="791" 
d="M635 710h87l-1 -254c0 -180 -85 -286 -283 -288v-168h-87v168c-189 2 -282 102 -282 288l1 254h87l-1 -246c0 -138 52 -212 195 -215v461h87v-461c135 3 196 69 196 215z" />
    <glyph glyph-name="uni03A9" unicode="&#x3a9;" horiz-adv-x="780" 
d="M573 82v-2h138v-80h-266v80c113 65 186 176 186 297c0 152 -97 256 -241 256s-242 -104 -242 -256c0 -121 73 -232 186 -297v-80h-266v80h139v2c-92 71 -149 180 -149 296c0 199 134 338 332 338s331 -139 331 -338c0 -116 -56 -225 -148 -296z" />
    <glyph glyph-name="Alphatonos" unicode="&#x386;" 
d="M563 0l-63 173h-317l-63 -173h-92l269 710h87l271 -710h-92zM175 705l-89 -164h-78l74 164h93zM211 249h261l-130 355h-2z" />
    <glyph glyph-name="Epsilontonos" unicode="&#x388;" horiz-adv-x="598" 
d="M90 0v710h435v-80h-347v-237h285v-80h-285v-233h368v-80h-456zM-148 543l74 164h93l-89 -164h-78z" />
    <glyph glyph-name="Etatonos" unicode="&#x389;" horiz-adv-x="726" 
d="M90 0v710h87v-333h372v333h87v-710h-87v297h-372v-297h-87zM-149 543l74 164h93l-89 -164h-78z" />
    <glyph glyph-name="Iotatonos" unicode="&#x38a;" horiz-adv-x="278" 
d="M95 0v710h88v-710h-88zM-152 543l74 164h93l-89 -164h-78z" />
    <glyph glyph-name="Omicrontonos" unicode="&#x38c;" horiz-adv-x="829" 
d="M416 -6c-213 0 -357 156 -357 361s144 362 357 362c200 0 354 -145 354 -362c0 -216 -154 -361 -354 -361zM-82 543l74 164h93l-89 -164h-78zM416 77c147 0 263 115 263 278c0 165 -116 279 -263 279c-159 0 -267 -125 -267 -279s108 -278 267 -278z" />
    <glyph glyph-name="Upsilontonos" unicode="&#x38e;" horiz-adv-x="604" 
d="M486 710h101l-242 -393v-317h-87v317l-241 393h100l184 -306h2zM-193 543l74 164h93l-89 -164h-78z" />
    <glyph glyph-name="Omegatonos" unicode="&#x38f;" horiz-adv-x="780" 
d="M573 82v-2h138v-80h-266v80c113 65 186 176 186 297c0 152 -97 256 -241 256s-242 -104 -242 -256c0 -121 73 -232 186 -297v-80h-266v80h139v2c-92 71 -149 180 -149 296c0 199 134 338 332 338s331 -139 331 -338c0 -116 -56 -225 -148 -296zM-22 707h93l-89 -164h-78z
" />
    <glyph glyph-name="Iotadieresis" unicode="&#x3aa;" horiz-adv-x="278" 
d="M25 812c-33 0 -58 25 -58 57c0 31 25 57 58 57c32 0 58 -26 58 -57c0 -32 -26 -57 -58 -57zM252 813c-32 0 -57 25 -57 56c0 30 25 56 57 56c31 0 57 -26 57 -56c0 -31 -26 -56 -57 -56zM95 0v710h88v-710h-88z" />
    <glyph glyph-name="Upsilondieresis" unicode="&#x3ab;" horiz-adv-x="604" 
d="M183 812c-33 0 -58 25 -58 57c0 31 25 57 58 57c32 0 58 -26 58 -57c0 -32 -26 -57 -58 -57zM410 813c-32 0 -57 25 -57 56c0 30 25 56 57 56c31 0 57 -26 57 -56c0 -31 -26 -56 -57 -56zM486 710h101l-242 -393v-317h-87v317l-241 393h100l184 -306h2z" />
    <glyph glyph-name="alpha" unicode="&#x3b1;" horiz-adv-x="603" 
d="M582 75l8 -67c-20 -8 -40 -14 -69 -14c-52 0 -78 35 -83 85h-2c-38 -52 -95 -85 -168 -85c-132 0 -224 100 -224 246c0 144 94 253 230 253c72 0 135 -32 174 -94h1l4 88h77l-23 -236v-108c0 -44 6 -74 40 -74c12 0 24 2 35 6zM277 68c86 0 152 69 162 172
c0 106 -60 178 -154 178c-88 0 -158 -70 -158 -178c0 -98 59 -172 150 -172z" />
    <glyph glyph-name="beta" unicode="&#x3b2;" horiz-adv-x="588" 
d="M417 399c80 -34 127 -105 127 -185c0 -132 -89 -220 -224 -220c-68 0 -123 26 -160 71h-1v-263h-81v693c0 169 92 248 221 248s208 -78 208 -182c0 -56 -18 -125 -90 -161v-1zM312 67c92 0 150 59 150 143c0 76 -56 143 -166 143h-42v70h38c119 2 135 81 135 131
c0 61 -44 114 -125 114c-80 0 -143 -49 -143 -168v-275c0 -85 61 -158 153 -158z" />
    <glyph glyph-name="gamma" unicode="&#x3b3;" horiz-adv-x="524" 
d="M499 487l-196 -495c12 -53 10 -112 10 -190h-80c-1 75 4 142 -24 214l-184 471h88l149 -396h2l147 396h88z" />
    <glyph glyph-name="delta" unicode="&#x3b4;" horiz-adv-x="575" 
d="M369 471c81 -37 163 -110 163 -236c0 -148 -107 -241 -241 -241c-145 0 -246 104 -246 244c0 113 65 190 156 233c-56 35 -83 80 -83 132c0 76 65 138 178 140c54 0 138 -10 209 -51l-33 -65c-58 31 -116 41 -167 41c-62 0 -107 -25 -107 -66c0 -35 19 -58 87 -90
c22 -11 43 -22 84 -41zM291 68c86 0 159 62 159 167c0 97 -66 152 -159 191c-8 3 -15 6 -21 9c-86 -35 -142 -106 -142 -197c0 -96 65 -170 163 -170z" />
    <glyph glyph-name="epsilon" unicode="&#x3b5;" horiz-adv-x="490" 
d="M421 110l37 -60c-71 -44 -140 -56 -219 -56c-113 0 -189 46 -189 137c0 54 28 100 87 123c-48 23 -73 63 -73 102c0 82 64 136 182 137c51 1 136 -10 207 -51l-33 -61c-58 27 -120 38 -164 38c-72 -1 -110 -27 -110 -69c0 -27 30 -64 103 -65h84v-72h-95
c-77 0 -103 -44 -103 -73c0 -49 46 -72 124 -72c56 0 108 11 162 42z" />
    <glyph glyph-name="zeta" unicode="&#x3b6;" horiz-adv-x="459" 
d="M461 674c-181 -134 -332 -300 -333 -439c-1 -96 72 -123 175 -157c109 -34 148 -65 148 -134c0 -59 -40 -118 -76 -156l-69 36c28 32 62 69 62 109c0 36 -20 52 -117 81c-113 35 -206 78 -205 221c1 142 128 294 294 429v3h-261v69h382v-62z" />
    <glyph glyph-name="eta" unicode="&#x3b7;" horiz-adv-x="577" 
d="M335 493c105 0 174 -66 174 -204v-487h-81v464c0 110 -48 152 -119 152c-89 0 -150 -67 -150 -176v-242h-81v487h81v-83h2c41 57 104 89 174 89z" />
    <glyph glyph-name="theta" unicode="&#x3b8;" horiz-adv-x="585" 
d="M292 743c142 0 247 -113 247 -374c0 -210 -69 -375 -247 -375c-142 0 -247 111 -247 375c0 207 69 374 247 374zM292 668c-103 0 -155 -103 -163 -258h328c-8 172 -71 258 -165 258zM292 68c108 0 160 107 166 272h-330c6 -182 69 -272 164 -272z" />
    <glyph glyph-name="iota" unicode="&#x3b9;" horiz-adv-x="269" 
d="M184 -6c-85 0 -103 58 -103 117v376h81v-351c0 -46 4 -67 41 -67c18 0 33 4 47 8l9 -68c-22 -8 -42 -15 -75 -15z" />
    <glyph glyph-name="kappa" unicode="&#x3ba;" horiz-adv-x="569" 
d="M267 226h-1l-108 -106v-120h-81v487h81v-263h2l269 263h103l-207 -203l222 -284h-101z" />
    <glyph glyph-name="lambda" unicode="&#x3bb;" horiz-adv-x="543" 
d="M433 0c-48 132 -95 264 -142 392h-2l-171 -392h-88l221 496c-10 27 -20 53 -29 80c-23 62 -50 93 -94 93c-20 0 -37 -4 -51 -8l-11 68c19 6 47 14 81 14c77 0 118 -56 155 -156c70 -188 144 -387 217 -587h-86z" />
    <glyph glyph-name="uni03BC" unicode="&#x3bc;" horiz-adv-x="574" 
d="M420 487h81v-487h-74l-5 80h-2c-37 -54 -93 -86 -155 -86c-52 0 -89 18 -114 52l-1 -1c3 -35 5 -72 5 -106v-137h-81v685h81v-258c0 -111 47 -161 126 -161c78 0 139 67 139 177v242z" />
    <glyph glyph-name="nu" unicode="&#x3bd;" horiz-adv-x="523" 
d="M411 487h88l-198 -487h-78l-199 487h87l150 -384h3z" />
    <glyph glyph-name="xi" unicode="&#x3be;" horiz-adv-x="481" 
d="M293 82c120 -45 165 -75 165 -142c0 -50 -41 -115 -76 -152l-69 36c27 30 62 74 62 108c0 36 -27 51 -121 84c-106 38 -207 92 -207 209c0 71 49 141 133 175v3c-57 28 -97 77 -97 155c0 123 102 185 199 185c47 0 121 -10 193 -51l-34 -65c-58 31 -106 41 -150 41
c-78 0 -125 -50 -125 -113c0 -89 74 -124 184 -124h67v-70h-107c-116 0 -180 -66 -180 -131c0 -75 65 -112 163 -148z" />
    <glyph glyph-name="omicron" unicode="&#x3bf;" horiz-adv-x="581" 
d="M291 -6c-146 0 -247 106 -247 249c0 144 101 250 247 250c142 0 246 -102 246 -250s-104 -249 -246 -249zM291 68c91 0 163 72 163 175c0 104 -71 175 -163 175c-97 0 -165 -75 -165 -175s69 -175 165 -175z" />
    <glyph glyph-name="pi" unicode="&#x3c0;" horiz-adv-x="607" 
d="M585 487v-70h-92v-417h-81v417h-222v-417h-81v417h-83v70h559z" />
    <glyph glyph-name="rho" unicode="&#x3c1;" horiz-adv-x="597" 
d="M305 493c144 0 248 -109 248 -253c0 -147 -102 -246 -232 -246c-73 0 -132 28 -171 77h-1v-269h-81v438c0 148 97 253 237 253zM305 68c99 0 166 75 166 172c0 107 -74 178 -166 178c-94 0 -159 -78 -159 -178c0 -103 71 -172 159 -172z" />
    <glyph glyph-name="uni03C2" unicode="&#x3c2;" horiz-adv-x="502" 
d="M371 -213l-69 37c30 33 61 64 61 106c0 36 -24 52 -97 79c-124 46 -224 101 -224 251c0 136 97 233 246 233c69 0 144 -30 192 -87l-55 -49c-31 37 -81 61 -135 61c-102 0 -165 -67 -165 -159c0 -99 70 -141 186 -183c95 -34 135 -69 135 -137c0 -65 -42 -113 -75 -152z
" />
    <glyph glyph-name="sigma" unicode="&#x3c3;" horiz-adv-x="591" 
d="M572 417h-134v-1c55 -45 93 -108 93 -188c0 -133 -97 -234 -243 -234c-139 0 -242 95 -242 244c0 143 100 249 247 249h279v-70zM289 68c97 0 159 74 159 170c0 78 -41 140 -102 179h-53c-98 0 -165 -79 -165 -179c0 -105 73 -170 161 -170z" />
    <glyph glyph-name="tau" unicode="&#x3c4;" horiz-adv-x="460" 
d="M281 -6c-86 0 -121 48 -121 146v277h-143v70h413v-70h-189v-257c0 -59 8 -91 63 -91c33 0 62 12 88 26l21 -71c-37 -18 -80 -30 -132 -30z" />
    <glyph glyph-name="upsilon" unicode="&#x3c5;" horiz-adv-x="559" 
d="M279 -6c-125 0 -213 80 -213 238v255h81v-244c0 -124 60 -175 132 -175c78 0 133 51 133 175v244h80v-255c0 -158 -81 -238 -213 -238z" />
    <glyph glyph-name="phi" unicode="&#x3c6;" horiz-adv-x="701" 
d="M655 261c0 -145 -102 -261 -271 -264v-195h-81v195c-146 3 -254 97 -254 246c0 107 37 183 101 256l80 -24c-66 -69 -99 -150 -99 -225c0 -103 69 -173 172 -180v236c0 129 66 187 158 187c111 0 194 -99 194 -232zM384 70c124 5 189 87 189 189c0 81 -41 160 -106 160
c-66 0 -83 -58 -83 -125v-224z" />
    <glyph glyph-name="chi" unicode="&#x3c7;" horiz-adv-x="518" 
d="M502 -127l9 -65c-18 -9 -32 -12 -55 -12c-56 0 -85 37 -114 97l-84 181h-2l-147 -272h-89l199 352l-105 209c-18 37 -34 56 -63 56c-7 0 -14 -2 -23 -3l-9 65c18 8 35 12 57 12c55 0 85 -38 111 -97l75 -163l139 254h88l-188 -332l114 -229c19 -38 36 -57 61 -57
c10 0 20 2 26 4z" />
    <glyph glyph-name="psi" unicode="&#x3c8;" horiz-adv-x="707" 
d="M561 487h81v-257c0 -156 -99 -235 -249 -236v-192h-81v192c-147 1 -245 80 -245 236v257h81v-245c0 -121 73 -171 164 -172v566h81v-566c94 1 168 51 168 172v245z" />
    <glyph glyph-name="omega" unicode="&#x3c9;" horiz-adv-x="758" 
d="M610 499c63 -68 100 -146 100 -265c0 -147 -81 -240 -183 -240c-77 0 -124 41 -147 104h-2c-24 -63 -70 -104 -148 -104c-102 0 -182 93 -182 240c0 119 37 197 100 265l73 -19c-53 -63 -91 -152 -91 -239c0 -110 46 -173 110 -173c63 0 99 68 99 177v120h80v-120
c0 -109 35 -177 99 -177s109 63 109 173c0 87 -37 176 -90 239z" />
    <glyph glyph-name="iotatonos" unicode="&#x3af;" horiz-adv-x="269" 
d="M83 557l59 164h94l-74 -164h-79zM184 -6c-85 0 -103 58 -103 117v376h81v-351c0 -46 4 -67 41 -67c18 0 33 4 47 8l9 -68c-22 -8 -42 -15 -75 -15z" />
    <glyph glyph-name="iotadieresis" unicode="&#x3ca;" horiz-adv-x="269" 
d="M9 577c-33 0 -58 25 -58 57c0 31 25 57 58 57c32 0 58 -26 58 -57c0 -32 -26 -57 -58 -57zM236 578c-32 0 -57 25 -57 56c0 30 25 56 57 56c31 0 57 -26 57 -56c0 -31 -26 -56 -57 -56zM184 -6c-85 0 -103 58 -103 117v376h81v-351c0 -46 4 -67 41 -67c18 0 33 4 47 8
l9 -68c-22 -8 -42 -15 -75 -15z" />
    <glyph glyph-name="iotadieresistonos" unicode="&#x390;" horiz-adv-x="269" 
d="M89 557l35 164h75l-48 -164h-62zM4 577c-32 0 -58 25 -58 57c0 31 26 57 58 57s58 -26 58 -57c0 -32 -26 -57 -58 -57zM271 578c-32 0 -57 25 -57 56c0 30 25 56 57 56c31 0 57 -26 57 -56c0 -31 -26 -56 -57 -56zM184 -6c-85 0 -103 58 -103 117v376h81v-351
c0 -46 4 -67 41 -67c18 0 33 4 47 8l9 -68c-22 -8 -42 -15 -75 -15z" />
    <glyph glyph-name="upsilontonos" unicode="&#x3cd;" horiz-adv-x="559" 
d="M240 558l59 164h94l-74 -164h-79zM279 -6c-125 0 -213 80 -213 238v255h81v-244c0 -124 60 -175 132 -175c78 0 133 51 133 175v244h80v-255c0 -158 -81 -238 -213 -238z" />
    <glyph glyph-name="upsilondieresis" unicode="&#x3cb;" horiz-adv-x="559" 
d="M166 578c-33 0 -58 25 -58 57c0 31 25 57 58 57c32 0 58 -26 58 -57c0 -32 -26 -57 -58 -57zM393 579c-32 0 -57 25 -57 56c0 30 25 56 57 56c31 0 57 -26 57 -56c0 -31 -26 -56 -57 -56zM279 -6c-125 0 -213 80 -213 238v255h81v-244c0 -124 60 -175 132 -175
c78 0 133 51 133 175v244h80v-255c0 -158 -81 -238 -213 -238z" />
    <glyph glyph-name="upsilondieresistonos" unicode="&#x3b0;" horiz-adv-x="559" 
d="M244 558l35 164h75l-48 -164h-62zM159 578c-32 0 -58 25 -58 57c0 31 26 57 58 57s58 -26 58 -57c0 -32 -26 -57 -58 -57zM426 579c-32 0 -57 25 -57 56c0 30 25 56 57 56c31 0 57 -26 57 -56c0 -31 -26 -56 -57 -56zM279 -6c-125 0 -213 80 -213 238v255h81v-244
c0 -124 60 -175 132 -175c78 0 133 51 133 175v244h80v-255c0 -158 -81 -238 -213 -238z" />
    <glyph glyph-name="omicrontonos" unicode="&#x3cc;" horiz-adv-x="581" 
d="M251 558l59 164h94l-74 -164h-79zM291 -6c-146 0 -247 106 -247 249c0 144 101 250 247 250c142 0 246 -102 246 -250s-104 -249 -246 -249zM291 68c91 0 163 72 163 175c0 104 -71 175 -163 175c-97 0 -165 -75 -165 -175s69 -175 165 -175z" />
    <glyph glyph-name="omegatonos" unicode="&#x3ce;" horiz-adv-x="758" 
d="M493 722l-74 -164h-79l59 164h94zM610 499c63 -68 100 -146 100 -265c0 -147 -81 -240 -183 -240c-77 0 -124 41 -147 104h-2c-24 -63 -70 -104 -148 -104c-102 0 -182 93 -182 240c0 119 37 197 100 265l73 -19c-53 -63 -91 -152 -91 -239c0 -110 46 -173 110 -173
c63 0 99 68 99 177v120h80v-120c0 -109 35 -177 99 -177s109 63 109 173c0 87 -37 176 -90 239z" />
    <glyph glyph-name="alphatonos" unicode="&#x3ac;" horiz-adv-x="603" 
d="M409 722l-74 -164h-79l59 164h94zM582 75l8 -67c-20 -8 -40 -14 -69 -14c-52 0 -78 35 -83 85h-2c-38 -52 -95 -85 -168 -85c-132 0 -224 100 -224 246c0 144 94 253 230 253c72 0 135 -32 174 -94h1l4 88h77l-23 -236v-108c0 -44 6 -74 40 -74c12 0 24 2 35 6zM277 68
c86 0 152 69 162 172c0 106 -60 178 -154 178c-88 0 -158 -70 -158 -178c0 -98 59 -172 150 -172z" />
    <glyph glyph-name="epsilontonos" unicode="&#x3ad;" horiz-adv-x="490" 
d="M366 722l-74 -164h-79l59 164h94zM421 110l37 -60c-71 -44 -140 -56 -219 -56c-113 0 -189 46 -189 137c0 54 28 100 87 123c-48 23 -73 63 -73 102c0 82 64 136 182 137c51 1 136 -10 207 -51l-33 -61c-58 27 -120 38 -164 38c-72 -1 -110 -27 -110 -69
c0 -27 30 -64 103 -65h84v-72h-95c-77 0 -103 -44 -103 -73c0 -49 46 -72 124 -72c56 0 108 11 162 42z" />
    <glyph glyph-name="etatonos" unicode="&#x3ae;" horiz-adv-x="577" 
d="M404 722l-74 -164h-79l59 164h94zM335 493c105 0 174 -66 174 -204v-487h-81v464c0 110 -48 152 -119 152c-89 0 -150 -67 -150 -176v-242h-81v487h81v-83h2c41 57 104 89 174 89z" />
    <glyph glyph-name="uni03D7" unicode="&#x3d7;" horiz-adv-x="585" 
d="M317 281c43 -133 130 -203 240 -226v-46c-127 -154 -220 -225 -361 -225c-74 0 -140 20 -188 49l16 74c48 -35 109 -53 162 -53c94 0 177 46 266 143v2c-97 42 -159 117 -192 220h-1l-101 -107v-112h-81v487h81v-267h2l251 267h100z" />
    <glyph glyph-name="gamma.alt" horiz-adv-x="541" 
d="M500 487c-22 -197 -97 -349 -206 -502c10 -60 16 -121 20 -183h-77c-14 128 -24 204 -62 344c-52 192 -82 274 -135 274c-7 0 -15 -2 -24 -4l-9 65c18 7 37 12 57 12c69 0 105 -63 144 -189c20 -59 44 -147 60 -218h2c69 108 136 251 142 401h88z" />
    <glyph glyph-name="eta.alt" horiz-adv-x="609" 
d="M360 493c109 0 181 -67 181 -209v-482h-82v459c0 114 -47 157 -122 157c-83 0 -144 -72 -144 -183v-235h-81l1 350c0 44 -9 70 -40 70c-7 0 -15 -2 -26 -4l-8 65c20 8 37 12 60 12c55 0 87 -39 93 -93h1c40 59 101 93 167 93z" />
    <glyph glyph-name="uni03BC.alt" horiz-adv-x="589" 
d="M569 77l9 -68c-19 -10 -39 -15 -66 -15c-56 0 -84 38 -93 87h-1c-35 -55 -88 -87 -150 -87c-53 0 -91 19 -117 56l-1 -1c3 -35 5 -74 5 -110v-137h-81v685h81v-258c0 -111 45 -161 122 -161s137 72 137 182v237h81v-348c0 -46 5 -70 39 -70c12 0 24 3 35 8z" />
    <glyph glyph-name="nu.alt" horiz-adv-x="528" 
d="M403 487h88c-7 -203 -92 -362 -198 -487h-78l-191 487h87l150 -403h2c77 103 145 243 140 403z" />
    <glyph glyph-name="xi.alt" horiz-adv-x="481" 
d="M459 669c-187 -17 -271 -66 -272 -146c-2 -64 53 -105 163 -105h63v-70h-108c-106 0 -175 -45 -175 -119c0 -80 64 -111 163 -146c120 -41 165 -64 165 -143c0 -50 -41 -115 -76 -152l-69 36c27 30 62 74 62 108c0 39 -27 51 -121 84c-106 38 -207 78 -207 208
c0 78 49 139 131 169v3c-45 25 -74 66 -74 124c1 74 50 119 109 145v2h-130v69h377v-67h-1z" />
    <glyph glyph-name="pi.alt" horiz-adv-x="622" 
d="M595 417h-98v-288c0 -39 7 -60 47 -60c16 0 27 3 38 6l8 -70c-24 -6 -44 -11 -75 -11c-78 0 -99 54 -99 114v309h-223v-417h-81v417h-86v64l93 6h476v-70z" />
    <glyph glyph-name="upsilon.alt" horiz-adv-x="550" 
d="M271 -6c-124 0 -210 78 -210 240v253h81v-242c0 -128 59 -177 130 -177c79 0 145 71 145 209c0 58 -9 135 -31 206l79 15c29 -88 35 -155 35 -220c0 -199 -100 -284 -229 -284z" />
    <glyph glyph-name="psi.alt" horiz-adv-x="695" 
d="M648 281c0 -198 -102 -284 -256 -287v-192h-81v192c-154 2 -251 81 -251 236v257h81v-245c0 -120 72 -170 170 -172v567l81 6v-573c98 3 174 60 174 213c0 70 -12 140 -34 200l78 15c31 -85 38 -149 38 -217z" />
    <glyph glyph-name="upsilontonos.alt" horiz-adv-x="550" 
d="M235 558l59 164h94l-74 -164h-79zM271 -6c-124 0 -210 78 -210 240v253h81v-242c0 -128 59 -177 130 -177c79 0 145 71 145 209c0 58 -9 135 -31 206l79 15c29 -88 35 -155 35 -220c0 -199 -100 -284 -229 -284z" />
    <glyph glyph-name="upsilondieresis.alt" horiz-adv-x="550" 
d="M161 578c-33 0 -58 25 -58 57c0 31 25 57 58 57c32 0 58 -26 58 -57c0 -32 -26 -57 -58 -57zM388 579c-32 0 -57 25 -57 56c0 30 25 56 57 56c31 0 57 -26 57 -56c0 -31 -26 -56 -57 -56zM271 -6c-124 0 -210 78 -210 240v253h81v-242c0 -128 59 -177 130 -177
c79 0 145 71 145 209c0 58 -9 135 -31 206l79 15c29 -88 35 -155 35 -220c0 -199 -100 -284 -229 -284z" />
    <glyph glyph-name="upsilondieresistonos.alt" horiz-adv-x="550" 
d="M227 558l35 164h75l-48 -164h-62zM142 578c-32 0 -58 25 -58 57c0 31 26 57 58 57s58 -26 58 -57c0 -32 -26 -57 -58 -57zM409 579c-32 0 -57 25 -57 56c0 30 25 56 57 56c31 0 57 -26 57 -56c0 -31 -26 -56 -57 -56zM271 -6c-124 0 -210 78 -210 240v253h81v-242
c0 -128 59 -177 130 -177c79 0 145 71 145 209c0 58 -9 135 -31 206l79 15c29 -88 35 -155 35 -220c0 -199 -100 -284 -229 -284z" />
    <glyph glyph-name="etatonos.alt" horiz-adv-x="609" 
d="M439 722l-74 -164h-79l59 164h94zM360 493c109 0 181 -67 181 -209v-482h-82v459c0 114 -47 157 -122 157c-83 0 -144 -72 -144 -183v-235h-81l1 350c0 44 -9 70 -40 70c-7 0 -15 -2 -26 -4l-8 65c20 8 37 12 60 12c55 0 87 -39 93 -93h1c40 59 101 93 167 93z" />
    <glyph glyph-name="zero" unicode="0" horiz-adv-x="628" 
d="M314 -6c-149 0 -258 125 -258 349c0 203 94 350 258 350c149 0 258 -125 258 -350c0 -203 -94 -349 -258 -349zM314 72c110 0 173 107 173 271c0 176 -71 272 -173 272c-109 0 -173 -107 -173 -272c0 -174 72 -271 173 -271z" />
    <glyph glyph-name="one" unicode="1" horiz-adv-x="375" 
d="M200 0v585l-137 -103l-42 63l193 142h70v-687h-84z" />
    <glyph glyph-name="two" unicode="2" horiz-adv-x="521" 
d="M167 77h305v-77h-432l-1 58l235 240c58 60 105 116 105 184c0 76 -53 132 -129 132c-65 0 -116 -32 -148 -94l-62 43c38 75 107 130 215 130c109 0 208 -75 208 -202c0 -78 -32 -145 -117 -231l-179 -181v-2z" />
    <glyph glyph-name="three" unicode="3" horiz-adv-x="538" 
d="M368 356c72 -28 117 -90 117 -172c0 -113 -95 -190 -222 -190c-117 0 -200 57 -235 136l73 34c25 -56 77 -91 157 -91c79 0 142 49 142 124c0 65 -49 122 -151 122h-57v74h67c88 0 124 51 124 109c0 68 -57 112 -129 112c-67 0 -108 -28 -134 -67l-68 37
c35 63 105 109 204 109c117 0 211 -66 211 -180c0 -68 -36 -126 -99 -156v-1z" />
    <glyph glyph-name="four" unicode="4" horiz-adv-x="568" 
d="M350 0v121h-319v60l332 506h71v-490h100v-76h-100v-121h-84zM132 195h220v339z" />
    <glyph glyph-name="five" unicode="5" horiz-adv-x="557" 
d="M285 436c122 0 222 -81 222 -219c0 -133 -106 -224 -239 -224c-95 0 -180 43 -228 115l63 48c31 -51 88 -84 159 -84c89 0 160 62 160 146c0 93 -76 144 -159 144c-45 0 -89 -10 -121 -38l-49 15l20 348h363v-78h-284l-11 -193c37 13 78 20 104 20z" />
    <glyph glyph-name="six" unicode="6" horiz-adv-x="584" 
d="M320 433c123 0 214 -81 214 -218c0 -126 -101 -221 -237 -221c-137 0 -242 107 -242 265c0 248 168 418 349 451l25 -72c-126 -31 -239 -116 -278 -266h1c42 38 103 61 168 61zM296 73c92 0 154 65 154 143c0 84 -58 139 -149 139c-76 0 -134 -45 -164 -94v-7
c0 -108 66 -181 159 -181z" />
    <glyph glyph-name="seven" unicode="7" horiz-adv-x="494" 
d="M27 687h425v-59l-272 -640l-84 17l263 604h-332v78z" />
    <glyph glyph-name="eight" unicode="8" horiz-adv-x="575" 
d="M398 372c75 -24 131 -89 131 -183c0 -119 -107 -195 -242 -195c-141 0 -241 83 -241 195c0 93 55 159 130 183v1c-47 15 -96 71 -96 145c0 110 89 175 207 175c124 0 208 -70 208 -175c0 -74 -50 -130 -97 -145v-1zM287 618c-76 0 -126 -49 -126 -106
c0 -63 52 -104 126 -104c75 0 128 41 128 104c0 62 -55 106 -128 106zM287 70c94 0 155 60 155 128c0 78 -62 132 -155 132c-94 0 -156 -54 -156 -132c0 -74 69 -128 156 -128z" />
    <glyph glyph-name="nine" unicode="9" horiz-adv-x="579" 
d="M285 693c135 0 241 -107 241 -270c-1 -250 -180 -414 -359 -447l-24 72c123 31 245 112 286 264l-2 1c-43 -38 -104 -61 -171 -61c-118 0 -209 82 -209 216c0 128 102 225 238 225zM274 330c70 0 135 38 170 95v5c0 112 -67 185 -158 185c-93 0 -154 -68 -154 -147
c0 -82 57 -138 142 -138z" />
    <glyph glyph-name="fraction" unicode="&#x2044;" horiz-adv-x="227" 
d="M3 -17l-66 28l310 711l66 -29z" />
    <glyph glyph-name="onehalf" unicode="&#xbd;" horiz-adv-x="810" 
d="M501 722l66 -29l-310 -710l-66 28zM202 299h-70v324l-79 -54l-34 54l128 88h55v-412zM600 64h178v-64h-282v48l143 137c40 37 63 65 63 100c0 38 -29 67 -70 67c-29 0 -65 -15 -85 -51l-52 38c25 44 77 78 141 78c72 0 137 -47 137 -124c0 -49 -17 -85 -75 -138l-98 -89
v-2z" />
    <glyph glyph-name="onequarter" unicode="&#xbc;" horiz-adv-x="778" 
d="M257 -17l-66 28l310 711l66 -29zM132 299v324l-79 -54l-34 54l128 88h55v-412h-70zM624 0v68h-188v45l203 299h54v-283h61v-61h-61v-68h-69zM515 125h114v170z" />
    <glyph glyph-name="threequarters" unicode="&#xbe;" horiz-adv-x="842" 
d="M564 722l66 -29l-310 -710l-66 28zM318 410c0 -70 -58 -117 -144 -117c-77 0 -133 38 -154 89l63 25c14 -33 41 -51 86 -51c47 0 77 24 77 65c0 35 -31 62 -84 62h-34v54h41c44 0 71 25 71 56c0 37 -28 60 -73 60c-35 0 -59 -14 -73 -40l-58 32c21 41 68 71 132 71
c77 0 138 -39 138 -110c0 -41 -19 -74 -56 -93v-2c44 -18 68 -53 68 -101zM757 129h61v-61h-61v-68h-69v68h-188v45l203 299h54v-283zM693 125v170l-114 -170h114z" />
    <glyph glyph-name="uni2070" unicode="&#x2070;" horiz-adv-x="405" 
d="M202 430c-104 0 -172 81 -172 212c0 130 68 212 172 212s173 -81 173 -212c0 -130 -68 -212 -173 -212zM203 496c63 0 101 54 101 146c0 96 -42 147 -101 147c-65 0 -103 -55 -103 -147c0 -95 42 -146 103 -146z" />
    <glyph glyph-name="uni00B9" unicode="&#xb9;" horiz-adv-x="265" 
d="M133 436v324l-79 -54l-34 54l128 88h55v-412h-70z" />
    <glyph glyph-name="uni00B2" unicode="&#xb2;" horiz-adv-x="341" 
d="M131 500h178v-64h-282v48l143 137c40 37 63 65 63 100c0 38 -29 67 -70 67c-29 0 -65 -15 -85 -51l-52 38c25 44 77 78 141 78c72 0 137 -47 137 -124c0 -49 -17 -85 -75 -138l-98 -89v-2z" />
    <glyph glyph-name="uni00B3" unicode="&#xb3;" horiz-adv-x="346" 
d="M250 648c44 -18 68 -53 68 -101c0 -70 -58 -117 -144 -117c-77 0 -133 38 -154 89l63 25c14 -33 41 -51 86 -51c47 0 77 24 77 65c0 35 -31 62 -84 62h-34v54h41c44 0 71 25 71 56c0 37 -28 60 -73 60c-35 0 -59 -14 -73 -40l-58 32c21 41 68 71 132 71
c77 0 138 -39 138 -110c0 -41 -19 -74 -56 -93v-2z" />
    <glyph glyph-name="asterisk" unicode="*" horiz-adv-x="409" 
d="M178 393l3 118l-99 -62l-28 48l104 54l-105 56l29 47l99 -62l-3 118h54l-4 -118l100 62l27 -47l-105 -56l105 -54l-27 -48l-99 62l3 -118h-54z" />
    <glyph glyph-name="backslash" unicode="\" horiz-adv-x="420" 
d="M376 -113l-384 852l65 31l385 -853z" />
    <glyph glyph-name="periodcentered" unicode="&#xb7;" horiz-adv-x="238" 
d="M120 185c-33 0 -58 25 -58 56c0 32 25 57 58 57c31 0 57 -25 57 -57c0 -31 -26 -56 -57 -56z" />
    <glyph glyph-name="bullet" unicode="&#x2022;" horiz-adv-x="412" 
d="M206 214c-58 0 -103 45 -103 102s45 102 103 102c57 0 103 -45 103 -102s-46 -102 -103 -102z" />
    <glyph glyph-name="colon" unicode=":" horiz-adv-x="238" 
d="M117 379c-33 0 -58 25 -58 56c0 32 25 57 58 57c31 0 57 -25 57 -57c0 -31 -26 -56 -57 -56zM117 -6c-33 0 -58 25 -58 56c0 32 25 57 58 57c31 0 57 -25 57 -57c0 -31 -26 -56 -57 -56z" />
    <glyph glyph-name="comma" unicode="," horiz-adv-x="215" 
d="M32 -130l32 240h89l-61 -240h-60z" />
    <glyph glyph-name="ellipsis" unicode="&#x2026;" horiz-adv-x="1000" 
d="M167 -6c-33 0 -58 25 -58 56c0 32 25 57 58 57c31 0 57 -25 57 -57c0 -31 -26 -56 -57 -56zM500 -6c-33 0 -58 25 -58 56c0 32 25 57 58 57c31 0 57 -25 57 -57c0 -31 -26 -56 -57 -56zM834 -6c-33 0 -58 25 -58 56c0 32 25 57 58 57c31 0 57 -25 57 -57
c0 -31 -26 -56 -57 -56z" />
    <glyph glyph-name="exclam" unicode="!" horiz-adv-x="246" 
d="M93 209l-15 527h93l-15 -527h-63zM123 -6c-33 0 -58 25 -58 56c0 32 25 57 58 57c31 0 57 -25 57 -57c0 -31 -26 -56 -57 -56z" />
    <glyph glyph-name="exclamdown" unicode="&#xa1;" horiz-adv-x="246" 
d="M123 492c31 0 57 -25 57 -56c0 -32 -26 -57 -57 -57c-33 0 -58 25 -58 57c0 31 25 56 58 56zM93 277h63l15 -527h-93z" />
    <glyph glyph-name="numbersign" unicode="#" horiz-adv-x="633" 
d="M128 -35l32 204h-118v63h127l25 161h-131v62h141l30 201h62l-30 -201h155l31 201h62l-31 -201h122v-62h-132l-24 -161h134v-63h-144l-31 -204h-61l31 204h-156l-32 -204h-62zM231 232h156l25 161h-156z" />
    <glyph glyph-name="period" unicode="." horiz-adv-x="241" 
d="M121 -6c-33 0 -58 25 -58 56c0 32 25 57 58 57c31 0 57 -25 57 -57c0 -31 -26 -56 -57 -56z" />
    <glyph glyph-name="question" unicode="?" horiz-adv-x="451" 
d="M158 208v53c0 62 46 105 90 151c38 40 72 82 72 140c0 70 -50 109 -113 109c-46 0 -95 -24 -124 -68l-61 57c44 59 114 93 191 93c107 0 197 -70 197 -187c0 -80 -44 -134 -89 -180c-43 -43 -87 -78 -89 -119l-2 -49h-72zM197 -6c-33 0 -58 25 -58 56c0 32 25 57 58 57
c31 0 57 -25 57 -57c0 -31 -26 -56 -57 -56z" />
    <glyph glyph-name="questiondown" unicode="&#xbf;" horiz-adv-x="429" 
d="M254 492c33 0 58 -25 58 -56c0 -32 -25 -57 -58 -57c-31 0 -57 25 -57 57c0 31 26 56 57 56zM293 278v-53c0 -62 -46 -105 -90 -151c-38 -40 -72 -82 -72 -140c0 -70 50 -109 113 -109c46 0 95 24 124 68l61 -57c-44 -59 -114 -93 -191 -93c-107 0 -197 70 -197 187
c0 80 44 134 89 180c43 43 87 78 89 119l2 49h72z" />
    <glyph glyph-name="quotedbl" unicode="&#x22;" horiz-adv-x="341" 
d="M39 469l33 241h88l-54 -241h-67zM181 469l32 241h89l-53 -241h-68z" />
    <glyph glyph-name="quotesingle" unicode="'" horiz-adv-x="199" 
d="M39 469l33 241h88l-54 -241h-67z" />
    <glyph glyph-name="semicolon" unicode=";" horiz-adv-x="227" 
d="M111 378c-33 0 -58 25 -58 56c0 32 25 57 58 57c31 0 57 -25 57 -57c0 -31 -26 -56 -57 -56zM33 -130l32 240h89l-61 -240h-60z" />
    <glyph glyph-name="slash" unicode="/" horiz-adv-x="414" 
d="M38 -113l-66 30l385 853l65 -31z" />
    <glyph glyph-name="underscore" unicode="_" horiz-adv-x="527" 
d="M-2 -85v58h531v-58h-531z" />
    <glyph glyph-name="bullet.case" horiz-adv-x="425" 
d="M206 240c-58 0 -103 45 -103 102s45 102 103 102c57 0 103 -45 103 -102s-46 -102 -103 -102z" />
    <glyph glyph-name="exclamdown.case" horiz-adv-x="246" 
d="M123 535c31 0 57 -25 57 -56c0 -32 -26 -57 -57 -57c-33 0 -58 25 -58 57c0 31 25 56 58 56zM93 320h63l15 -527h-93z" />
    <glyph glyph-name="questiondown.case" horiz-adv-x="451" 
d="M254 534c33 0 58 -25 58 -56c0 -32 -25 -57 -58 -57c-31 0 -57 25 -57 57c0 31 26 56 57 56zM293 320v-53c0 -62 -46 -105 -90 -151c-38 -40 -72 -82 -72 -140c0 -70 50 -109 113 -109c46 0 95 24 124 68l61 -57c-44 -59 -114 -93 -191 -93c-107 0 -197 70 -197 187
c0 80 44 134 89 180c43 43 87 78 89 119l2 49h72z" />
    <glyph glyph-name="braceleft" unicode="{" horiz-adv-x="338" 
d="M198 389c0 -56 -13 -87 -58 -99v-2c45 -12 58 -33 58 -100v-196c0 -54 17 -78 64 -78h26v-58h-53c-60 0 -108 42 -108 111v213c0 39 -1 72 -79 76v65c78 5 79 41 79 76v221c0 61 40 111 108 111h53v-58h-26c-43 0 -64 -33 -64 -67v-215z" />
    <glyph glyph-name="braceright" unicode="}" horiz-adv-x="338" 
d="M211 397c0 -35 1 -71 79 -76v-65c-78 -4 -79 -37 -79 -76v-213c0 -69 -48 -111 -108 -111h-53v58h26c47 0 64 24 64 78v196c0 67 13 88 58 100v2c-45 12 -58 43 -58 99v215c0 34 -21 67 -64 67h-26v58h53c68 0 108 -50 108 -111v-221z" />
    <glyph glyph-name="bracketleft" unicode="[" horiz-adv-x="311" 
d="M68 -145v874h195v-64h-123v-746h123v-64h-195z" />
    <glyph glyph-name="bracketright" unicode="]" horiz-adv-x="311" 
d="M243 -145h-195v64h123v746h-123v64h195v-874z" />
    <glyph glyph-name="parenleft" unicode="(" horiz-adv-x="284" 
d="M173 -148c-68 121 -112 268 -112 444c0 170 44 329 116 445l62 -30c-63 -114 -102 -260 -102 -415c0 -160 40 -296 99 -416z" />
    <glyph glyph-name="parenright" unicode=")" horiz-adv-x="284" 
d="M111 -148l-63 28c59 120 99 256 99 416c0 155 -39 301 -102 415l62 30c72 -116 116 -275 116 -445c0 -176 -44 -323 -112 -444z" />
    <glyph glyph-name="braceleft.case" horiz-adv-x="304" 
d="M198 435c0 -56 -13 -87 -58 -99v-2c45 -12 58 -33 58 -100v-196c0 -54 17 -78 64 -78h26v-58h-53c-60 0 -108 42 -108 111v213c0 39 -1 72 -79 76v65c78 5 79 41 79 76v221c0 61 40 111 108 111h53v-58h-26c-43 0 -64 -33 -64 -67v-215z" />
    <glyph glyph-name="braceright.case" horiz-adv-x="304" 
d="M177 443c0 -35 1 -71 79 -76v-65c-78 -4 -79 -37 -79 -76v-213c0 -69 -48 -111 -108 -111h-53v58h26c47 0 64 24 64 78v196c0 67 13 88 58 100v2c-45 12 -58 43 -58 99v215c0 34 -21 67 -64 67h-26v58h53c68 0 108 -50 108 -111v-221z" />
    <glyph glyph-name="bracketleft.case" horiz-adv-x="275" 
d="M68 -101v874h195v-64h-123v-746h123v-64h-195z" />
    <glyph glyph-name="bracketright.case" horiz-adv-x="304" 
d="M236 -100h-195v64h123v746h-123v64h195v-874z" />
    <glyph glyph-name="parenleft.case" horiz-adv-x="260" 
d="M173 -103c-68 121 -112 268 -112 444c0 170 44 329 116 445l62 -30c-63 -114 -102 -260 -102 -415c0 -160 40 -296 99 -416z" />
    <glyph glyph-name="parenright.case" horiz-adv-x="271" 
d="M101 -103l-63 28c59 120 99 256 99 416c0 155 -39 301 -102 415l62 30c72 -116 116 -275 116 -445c0 -176 -44 -323 -112 -444z" />
    <glyph glyph-name="emdash" unicode="&#x2014;" horiz-adv-x="1047" 
d="M57 261v73h933v-73h-933z" />
    <glyph glyph-name="endash" unicode="&#x2013;" horiz-adv-x="580" 
d="M57 261v73h466v-73h-466z" />
    <glyph glyph-name="uni2015" unicode="&#x2015;" horiz-adv-x="1199" 
d="M57 261v73h1086v-73h-1086z" />
    <glyph glyph-name="hyphen" unicode="-" horiz-adv-x="410" 
d="M57 269v79h296v-79h-296z" />
    <glyph glyph-name="emdash.case" horiz-adv-x="1030" 
d="M48 283v73h933v-73h-933z" />
    <glyph glyph-name="endash.case" horiz-adv-x="563" 
d="M48 283v73h466v-73h-466z" />
    <glyph glyph-name="uni2015.case" horiz-adv-x="1182" 
d="M48 283v73h1086v-73h-1086z" />
    <glyph glyph-name="hyphen.case" horiz-adv-x="380" 
d="M47 288v80h285v-80h-285z" />
    <glyph glyph-name="guillemotleft" unicode="&#xab;" horiz-adv-x="463" 
d="M247 26h-81l-124 219l125 222h81l-125 -222zM423 26h-81l-124 219l126 222h80l-125 -222z" />
    <glyph glyph-name="guillemotright" unicode="&#xbb;" horiz-adv-x="463" 
d="M40 26l124 219l-125 222h80l126 -222l-124 -219h-81zM216 26l124 219l-125 222h81l125 -222l-124 -219h-81z" />
    <glyph glyph-name="guilsinglleft" unicode="&#x2039;" horiz-adv-x="291" 
d="M255 26h-81l-124 219l126 222h80l-125 -222z" />
    <glyph glyph-name="guilsinglright" unicode="&#x203a;" horiz-adv-x="287" 
d="M40 26l124 219l-125 222h80l126 -222l-124 -219h-81z" />
    <glyph glyph-name="quotedblbase" unicode="&#x201e;" horiz-adv-x="357" 
d="M32 -76l33 241h88l-54 -241h-67zM174 -76l32 241h89l-53 -241h-68z" />
    <glyph glyph-name="quotedblleft" unicode="&#x201c;" horiz-adv-x="341" 
d="M160 710l-32 -241h-89l53 241h68zM302 710l-33 -241h-88l54 241h67z" />
    <glyph glyph-name="quotedblright" unicode="&#x201d;" horiz-adv-x="341" 
d="M39 469l33 241h88l-54 -241h-67zM181 469l32 241h89l-53 -241h-68z" />
    <glyph glyph-name="quoteleft" unicode="&#x2018;" horiz-adv-x="199" 
d="M160 710l-33 -241h-88l54 241h67z" />
    <glyph glyph-name="quoteright" unicode="&#x2019;" horiz-adv-x="199" 
d="M39 469l33 241h88l-54 -241h-67z" />
    <glyph glyph-name="quotesinglbase" unicode="&#x201a;" horiz-adv-x="215" 
d="M32 -130l32 240h89l-61 -240h-60z" />
    <glyph glyph-name="guillemotleft.case" horiz-adv-x="463" 
d="M247 71h-81l-124 219l125 222h81l-125 -222zM423 71h-81l-124 219l126 222h80l-125 -222z" />
    <glyph glyph-name="guillemotright.case" horiz-adv-x="463" 
d="M40 70l124 219l-125 222h80l126 -222l-124 -219h-81zM216 70l124 219l-125 222h81l125 -222l-124 -219h-81z" />
    <glyph glyph-name="anoteleia" unicode="&#x387;" horiz-adv-x="241" 
d="M121 378c-33 0 -58 25 -58 56c0 32 25 57 58 57c31 0 57 -25 57 -57c0 -31 -26 -56 -57 -56z" />
    <glyph glyph-name="uni037E" unicode="&#x37e;" horiz-adv-x="227" 
d="M111 378c-33 0 -58 25 -58 56c0 32 25 57 58 57c31 0 57 -25 57 -57c0 -31 -26 -56 -57 -56zM33 -130l32 240h89l-61 -240h-60z" />
    <glyph glyph-name="uni2003" unicode="&#x2003;" horiz-adv-x="934" 
 />
    <glyph glyph-name="uni2002" unicode="&#x2002;" horiz-adv-x="467" 
 />
    <glyph glyph-name="space" unicode=" " horiz-adv-x="275" 
 />
    <glyph glyph-name="uni2009" unicode="&#x2009;" horiz-adv-x="30" 
 />
    <glyph glyph-name="CR" horiz-adv-x="249" 
 />
    <glyph glyph-name="cent" unicode="&#xa2;" horiz-adv-x="545" 
d="M506 130c-36 -39 -96 -71 -168 -80v-103h-65v102c-132 12 -222 110 -222 248c0 136 89 235 222 248v106h65v-106c63 -7 124 -35 166 -84l-55 -49c-32 36 -82 61 -142 61c-103 0 -173 -73 -173 -175c0 -103 70 -175 173 -175c60 0 112 24 144 58z" />
    <glyph glyph-name="currency" unicode="&#xa4;" horiz-adv-x="505" 
d="M434 386c0 -41 -13 -78 -36 -108l78 -79l-39 -39l-78 79c-30 -22 -68 -35 -109 -35c-40 0 -78 13 -108 35l-78 -78l-40 40l79 78c-23 30 -35 67 -35 107s13 78 35 108l-79 78l40 39l78 -78c30 23 68 37 108 37c41 0 79 -13 109 -36l78 78l39 -39l-78 -78
c23 -30 36 -68 36 -109zM251 264c67 0 123 56 124 123c-1 68 -57 123 -125 123c-66 0 -122 -55 -123 -123c1 -67 57 -123 124 -123z" />
    <glyph glyph-name="dollar" unicode="$" horiz-adv-x="566" 
d="M521 181c0 -102 -72 -173 -194 -183v-122h-67v123c-74 8 -145 41 -204 98l52 62c56 -55 128 -83 193 -83c74 0 128 37 128 100c0 72 -57 95 -150 124c-109 35 -209 70 -209 189c0 97 68 171 190 177v126h67v-131c61 -10 126 -38 171 -73l-51 -62c-52 38 -119 59 -168 59
c-70 0 -119 -32 -119 -91c0 -62 61 -85 144 -113c123 -39 217 -71 217 -200z" />
    <glyph glyph-name="dong" unicode="&#x20ab;" horiz-adv-x="609" 
d="M533 632h69v-65h-69v-567h-77v77h-2c-39 -52 -98 -83 -168 -83c-135 0 -239 97 -239 246c0 144 100 253 238 253c66 0 126 -28 166 -79h1v153h-120v65h120v104h81v-104zM293 68c86 0 162 69 162 172c0 100 -69 178 -161 178s-165 -70 -165 -178c0 -98 65 -172 164 -172z
M69 -147v75h468v-75h-468z" />
    <glyph glyph-name="Euro" unicode="&#x20ac;" horiz-adv-x="599" 
d="M522 118l48 -64c-50 -35 -113 -60 -192 -60c-133 0 -265 86 -300 250h-65v54h57c-1 11 -1 23 -1 35c0 13 1 25 2 37h-58v55h66c32 144 142 250 299 250c66 0 130 -18 187 -58l-49 -63c-41 29 -87 43 -138 43c-100 0 -179 -69 -209 -172h275v-55h-285
c-1 -12 -2 -24 -2 -37c0 -12 1 -24 2 -35h285v-54h-275c31 -109 118 -171 209 -171c60 0 105 17 144 45z" />
    <glyph glyph-name="florin" unicode="&#x192;" horiz-adv-x="538" 
d="M102 -125c-64 0 -108 20 -130 41l31 58c26 -16 55 -24 85 -24c48 0 82 25 92 101l46 346h-77l10 71h77l15 117c15 109 70 157 161 157c62 0 107 -21 130 -40l-33 -58c-25 15 -54 23 -85 23c-48 0 -82 -24 -92 -101l-12 -98h149l-10 -71h-149l-48 -364
c-15 -110 -69 -158 -160 -158z" />
    <glyph glyph-name="uni20BA" unicode="&#x20ba;" horiz-adv-x="541" 
d="M450 219l71 -29c-52 -144 -139 -190 -256 -190h-177v213l-67 -33l-24 54l91 45v72l-67 -33l-24 54l91 45v285h87v-242l137 67l23 -54l-160 -79v-72l137 67l23 -54l-160 -79v-184h80c105 0 157 44 195 147z" />
    <glyph glyph-name="sterling" unicode="&#xa3;" horiz-adv-x="563" 
d="M47 0v80h78v258h-62v67h62v57c0 165 94 229 199 229c77 0 144 -36 186 -98l-46 -59c-32 49 -79 75 -130 75c-70 0 -122 -41 -122 -156v-48h168v-67h-167v-258h323v-80h-489z" />
    <glyph glyph-name="yen" unicode="&#xa5;" horiz-adv-x="561" 
d="M549 685l-158 -277h99v-54h-130l-35 -61v-2h164v-55h-164v-236h-88v236h-170v55h170v2l-35 61h-135v54h104l-158 278h101l166 -307h2l166 307z" />
    <glyph glyph-name="uni2126" unicode="&#x2126;" horiz-adv-x="780" 
d="M573 82v-2h138v-80h-266v80c113 65 186 176 186 297c0 152 -97 256 -241 256s-242 -104 -242 -256c0 -121 73 -232 186 -297v-80h-266v80h139v2c-92 71 -149 180 -149 296c0 199 134 338 332 338s331 -139 331 -338c0 -116 -56 -225 -148 -296z" />
    <glyph glyph-name="approxequal" unicode="&#x2248;" horiz-adv-x="593" 
d="M410 322c-71 0 -130 50 -206 50c-53 0 -98 -25 -120 -40l-23 58c16 15 72 55 137 55c84 0 133 -49 205 -49c46 0 78 23 104 46l25 -58c-26 -28 -65 -62 -122 -62zM410 104c-71 0 -130 49 -206 49c-53 0 -98 -24 -120 -39l-23 57c16 16 71 56 137 56c84 0 133 -49 205 -49
c46 0 78 23 104 46l25 -58c-26 -29 -65 -62 -122 -62z" />
    <glyph glyph-name="asciitilde" unicode="~" horiz-adv-x="562" 
d="M379 211c-43 0 -77 18 -108 33c-26 12 -50 22 -75 22c-34 0 -59 -20 -76 -53l-59 24c23 63 65 106 126 106c43 0 73 -14 102 -28c25 -13 51 -26 81 -26c29 0 57 19 72 52l59 -21c-22 -66 -69 -109 -122 -109z" />
    <glyph glyph-name="divide" unicode="&#xf7;" horiz-adv-x="581" 
d="M290 413c-33 0 -58 25 -58 57c0 31 25 57 58 57c32 0 58 -26 58 -57c0 -32 -26 -57 -58 -57zM63 239v75h468v-75h-468zM290 19c-33 0 -58 25 -58 57c0 31 25 57 58 57c32 0 58 -26 58 -57c0 -32 -26 -57 -58 -57z" />
    <glyph glyph-name="emptyset" unicode="&#x2205;" horiz-adv-x="705" 
d="M584 510c43 -52 69 -120 69 -192c0 -164 -132 -303 -301 -303c-74 0 -141 27 -193 71l-45 -45l-36 36l45 45c-45 53 -71 122 -71 196c0 164 132 303 301 303c75 0 143 -28 195 -73l40 40l37 -37zM118 317c0 -56 19 -108 52 -148l331 332c-40 33 -91 53 -148 53
c-133 0 -235 -108 -235 -237zM352 82c131 0 234 107 234 236c0 54 -18 105 -49 145l-331 -330c40 -32 90 -51 146 -51z" />
    <glyph glyph-name="equal" unicode="=" horiz-adv-x="583" 
d="M64 352v75h468v-75h-468zM64 126v75h468v-75h-468z" />
    <glyph glyph-name="greater" unicode="&#x3e;" horiz-adv-x="574" 
d="M68 42v82l338 154l-338 153v83l450 -207v-60z" />
    <glyph glyph-name="greaterequal" unicode="&#x2265;" horiz-adv-x="581" 
d="M70 149v82l338 154l-338 153v83l450 -207v-60zM69 0v75h453v-75h-453z" />
    <glyph glyph-name="uni2206" unicode="&#x2206;" horiz-adv-x="667" 
d="M377 710l253 -642v-68h-71h-512h-10v68l251 642h89zM136 80h393l-195 521h-2z" />
    <glyph glyph-name="infinity" unicode="&#x221e;" horiz-adv-x="779" 
d="M560 438c89 0 160 -71 160 -163c0 -95 -74 -162 -160 -162c-60 0 -118 29 -171 105c-45 -63 -101 -105 -170 -105c-90 0 -161 71 -161 162c0 96 75 163 161 163c59 0 117 -30 170 -106c45 62 101 106 171 106zM220 179c41 0 82 29 127 96c-36 53 -76 97 -127 97
c-52 0 -94 -40 -94 -97c0 -56 42 -96 94 -96zM561 179c48 0 91 40 91 96c0 57 -43 97 -91 97c-41 0 -85 -29 -130 -97c36 -52 78 -96 130 -96z" />
    <glyph glyph-name="integral" unicode="&#x222b;" horiz-adv-x="359" 
d="M43 -168c-25 -3 -46 -1 -70 1l8 63h9c65 0 69 22 83 108l83 556c13 86 52 129 106 135c42 2 68 -5 83 -5l-8 -59h-23c-65 0 -68 -18 -83 -109l-84 -557c-12 -83 -51 -126 -104 -133z" />
    <glyph glyph-name="less" unicode="&#x3c;" horiz-adv-x="574" 
d="M506 42l-450 205v60l450 207v-83l-338 -153l338 -154v-82z" />
    <glyph glyph-name="lessequal" unicode="&#x2264;" horiz-adv-x="581" 
d="M511 149l-450 205v60l450 207v-83l-338 -153l338 -154v-82zM512 0h-453v75h453v-75z" />
    <glyph glyph-name="logicalnot" unicode="&#xac;" horiz-adv-x="562" 
d="M430 164v158h-372v74h445v-232h-73z" />
    <glyph glyph-name="uni00B5" unicode="&#xb5;" horiz-adv-x="574" 
d="M420 487h81v-487h-74l-5 80h-2c-37 -54 -93 -86 -155 -86c-52 0 -89 18 -114 52l-1 -1c3 -35 5 -72 5 -106v-137h-81v685h81v-258c0 -111 47 -161 126 -161c78 0 139 67 139 177v242z" />
    <glyph glyph-name="minus" unicode="&#x2212;" horiz-adv-x="583" 
d="M58 239v75h468v-75h-468z" />
    <glyph glyph-name="multiply" unicode="&#xd7;" horiz-adv-x="512" 
d="M107 76l-52 52l149 149l-149 148l52 53l148 -149l149 149l53 -52l-149 -150l149 -149l-53 -50l-148 147z" />
    <glyph glyph-name="notequal" unicode="&#x2260;" horiz-adv-x="583" 
d="M526 352h-167l-71 -151h238v-75h-273l-57 -123l-56 23l47 100h-129v75h164l70 151h-234v75h269l60 128l56 -23l-49 -105h132v-75z" />
    <glyph glyph-name="partialdiff" unicode="&#x2202;" horiz-adv-x="577" 
d="M279 693c202 0 248 -250 248 -401c0 -202 -106 -298 -242 -298c-137 0 -237 92 -237 221c0 140 98 223 219 223c71 0 132 -25 172 -70h1c-13 124 -54 247 -174 247c-50 0 -97 -21 -145 -41l-25 73c63 29 128 46 183 46zM287 76c88 0 154 68 157 188
c-31 52 -89 98 -164 98c-87 0 -144 -55 -144 -145c0 -78 60 -141 151 -141z" />
    <glyph glyph-name="percent" unicode="%" horiz-adv-x="999" 
d="M378 -17l-66 28l311 711l66 -29zM244 323c-110 0 -199 79 -199 198c0 107 80 195 199 195c110 0 200 -77 200 -195c0 -109 -80 -198 -200 -198zM245 387c78 0 129 60 129 133c0 79 -58 131 -129 131c-78 0 -129 -58 -129 -131c0 -80 57 -133 129 -133zM751 -6
c-109 0 -199 79 -199 197c0 107 80 196 199 196c110 0 200 -79 200 -196c0 -108 -79 -197 -200 -197zM751 58c79 0 130 59 130 132c0 80 -58 132 -130 132c-77 0 -128 -59 -128 -132c0 -79 57 -132 128 -132z" />
    <glyph glyph-name="perthousand" unicode="&#x2030;" horiz-adv-x="1447" 
d="M378 -17l-66 28l311 711l66 -29zM244 323c-110 0 -199 79 -199 198c0 107 80 195 199 195c110 0 200 -77 200 -195c0 -109 -80 -198 -200 -198zM245 387c78 0 129 60 129 133c0 79 -58 131 -129 131c-78 0 -129 -58 -129 -131c0 -80 57 -133 129 -133zM751 -6
c-109 0 -199 79 -199 197c0 107 80 196 199 196c110 0 200 -79 200 -196c0 -108 -79 -197 -200 -197zM1199 -6c-110 0 -199 79 -199 197c0 107 80 196 199 196c110 0 200 -79 200 -196c0 -108 -80 -197 -200 -197zM751 58c79 0 130 59 130 132c0 80 -58 132 -130 132
c-77 0 -128 -59 -128 -132c0 -79 57 -132 128 -132zM1200 58c78 0 129 59 129 132c0 80 -58 132 -129 132c-78 0 -129 -59 -129 -132c0 -79 57 -132 129 -132z" />
    <glyph glyph-name="plus" unicode="+" horiz-adv-x="582" 
d="M253 43v196h-196v75h196v197h76v-197h196v-75h-196v-196h-76z" />
    <glyph glyph-name="plusminus" unicode="&#xb1;" horiz-adv-x="603" 
d="M255 160v196h-196v75h196v197h76v-197h196v-75h-196v-196h-76zM75 -3v75h468v-75h-468z" />
    <glyph glyph-name="product" unicode="&#x220f;" horiz-adv-x="695" 
d="M87 -102v812h521v-812h-87v732h-347v-732h-87z" />
    <glyph glyph-name="radical" unicode="&#x221a;" horiz-adv-x="695" 
d="M674 822h72l-375 -822h-60l-167 499h-110v73h171l148 -455h2z" />
    <glyph glyph-name="uni2236" unicode="&#x2236;" horiz-adv-x="236" 
d="M117 439c-33 0 -58 25 -58 56c0 32 25 57 58 57c31 0 57 -25 57 -57c0 -31 -26 -56 -57 -56zM117 54c-33 0 -58 25 -58 56c0 32 25 57 58 57c31 0 57 -25 57 -57c0 -31 -26 -56 -57 -56z" />
    <glyph glyph-name="summation" unicode="&#x2211;" horiz-adv-x="603" 
d="M558 710v-79h-388l209 -318l-209 -318h388v-80h-503v64l224 334l-224 332v65h503z" />
    <glyph glyph-name="plus.case" horiz-adv-x="582" 
d="M253 93v196h-196v75h196v197h76v-197h196v-75h-196v-196h-76z" />
    <glyph glyph-name="uni2713" unicode="&#x2713;" horiz-adv-x="587" 
d="M215 115l-193 200l48 47l133 -138l337 552l58 -36z" />
    <glyph glyph-name="uni2715" unicode="&#x2715;" horiz-adv-x="375" 
d="M68 110l-46 47l121 120l-121 120l45 45l120 -120l122 122l45 -47l-121 -121l121 -121l-45 -44l-121 120z" />
    <glyph glyph-name="bar" unicode="|" horiz-adv-x="294" 
d="M111 -115v852h72v-852h-72z" />
    <glyph glyph-name="brokenbar" unicode="&#xa6;" horiz-adv-x="294" 
d="M111 386v351h72v-351h-72zM111 -114v353h72v-353h-72z" />
    <glyph glyph-name="at" unicode="@" horiz-adv-x="902" 
d="M648 42c-60 0 -98 38 -97 96h-2c-30 -55 -82 -85 -149 -85c-98 0 -171 75 -171 191c0 92 60 227 200 227c64 0 108 -29 135 -86h1l9 80h82l-26 -270c-1 -11 -2 -20 -2 -28c0 -50 18 -59 43 -59c80 0 117 119 117 187c0 173 -122 301 -304 301c-267 0 -370 -206 -370 -362
c0 -177 136 -313 300 -313c80 0 151 21 211 53l30 -47c-69 -44 -151 -67 -241 -67c-207 0 -365 157 -365 375c0 167 113 421 435 421c222 0 369 -149 369 -361c0 -92 -46 -253 -205 -253zM424 127c90 0 137 82 137 149c0 69 -45 120 -109 120c-89 0 -139 -71 -139 -145
c0 -72 46 -124 111 -124z" />
    <glyph glyph-name="ampersand" unicode="&#x26;" horiz-adv-x="657" 
d="M531 0l-57 68c-48 -47 -111 -74 -197 -74c-126 0 -226 83 -226 209c0 90 56 167 135 210l-86 103c10 117 94 201 211 201c114 0 179 -70 207 -134l-70 -27c-21 46 -60 86 -131 87c-82 0 -124 -51 -131 -114l289 -345c26 45 38 98 38 145l79 2c0 -68 -18 -148 -63 -212
l100 -119h-98zM136 207c0 -78 60 -135 149 -135c60 0 107 20 142 52v1l-191 229c-63 -30 -100 -88 -100 -147z" />
    <glyph glyph-name="paragraph" unicode="&#xb6;" horiz-adv-x="474" 
d="M326 -150v746h-61v-596h-55v350c-95 5 -163 57 -163 150c0 94 66 152 173 152h160v-802h-54z" />
    <glyph glyph-name="copyright" unicode="&#xa9;" horiz-adv-x="699" 
d="M349 13c-169 0 -302 139 -302 305c0 165 133 305 304 305c170 0 301 -140 301 -305c0 -164 -132 -305 -303 -305zM349 71c138 0 245 112 245 247c0 136 -106 247 -243 247c-140 0 -246 -113 -246 -248s106 -246 244 -246zM358 153c-88 0 -163 56 -163 163
c0 90 57 164 163 164c45 0 92 -18 127 -62l-39 -33c-22 27 -53 44 -88 44c-66 0 -108 -45 -108 -113c0 -69 45 -111 108 -111c38 0 69 17 88 42l39 -33c-27 -35 -69 -61 -127 -61z" />
    <glyph glyph-name="registered" unicode="&#xae;" horiz-adv-x="702" 
d="M352 625c170 0 303 -140 303 -307c0 -165 -134 -306 -304 -306s-304 139 -304 306c0 166 134 307 305 307zM351 69c138 0 245 114 245 249c0 136 -106 248 -244 248c-140 0 -247 -113 -247 -249c0 -135 107 -248 246 -248zM471 379c0 -53 -28 -84 -72 -96l87 -125h-61
l-81 120h-47v-120h-51v324h117c75 0 108 -44 108 -103zM297 435v-110h54c48 0 66 25 66 55c0 33 -23 55 -62 55h-58z" />
    <glyph glyph-name="section" unicode="&#xa7;" horiz-adv-x="540" 
d="M400 137c41 -26 66 -61 66 -119c0 -97 -75 -163 -195 -163c-78 0 -154 29 -212 91l50 60c45 -52 108 -74 161 -74c58 0 107 30 107 84c0 55 -47 73 -123 101c-106 40 -197 75 -197 171c0 61 31 106 86 131c-37 26 -62 61 -62 116c0 90 70 158 182 158
c66 0 142 -29 193 -71l-49 -59c-48 36 -100 52 -140 52c-54 0 -98 -29 -98 -78c0 -53 49 -73 117 -99c116 -46 196 -70 196 -174c0 -54 -30 -100 -82 -127zM140 302c0 -53 48 -77 138 -110l50 -19c44 11 71 41 71 81c0 57 -46 74 -136 108l-46 18c-47 -8 -77 -38 -77 -78z
" />
    <glyph glyph-name="trademark" unicode="&#x2122;" horiz-adv-x="683" 
d="M115 387v274h-92v49h239v-49h-93v-274h-54zM311 387v323h56l106 -194l106 194h56v-323h-54v222l-90 -158h-36l-91 158v-222h-53z" />
    <glyph glyph-name="degree" unicode="&#xb0;" horiz-adv-x="394" 
d="M197 445c-76 0 -139 60 -139 135s66 137 139 137s138 -62 138 -138c0 -74 -63 -134 -138 -134zM196 501c45 0 81 36 81 79c0 44 -38 80 -81 80c-42 0 -80 -36 -80 -80c0 -43 36 -79 80 -79z" />
    <glyph glyph-name="estimated" unicode="&#x212e;" horiz-adv-x="791" 
d="M396 -10c-196 0 -337 144 -337 321c0 187 151 321 337 321c195 0 336 -144 336 -321v-9h-537v-207c54 -56 136 -76 201 -76c83 0 167 32 214 85h42c-58 -71 -158 -114 -256 -114zM195 334h398v201c-50 50 -129 67 -197 67c-72 0 -152 -23 -200 -69z" />
    <glyph glyph-name="uni2113" unicode="&#x2113;" horiz-adv-x="454" 
d="M402 111l30 -21c-43 -64 -103 -96 -172 -96c-102 0 -154 61 -161 153c-17 -13 -37 -29 -56 -43l-18 26c24 19 50 39 73 58l2 268c1 167 72 223 159 223c66 0 110 -59 110 -146c0 -108 -76 -215 -191 -322v-23c0 -120 53 -152 101 -152c52 0 97 41 123 75zM266 634
c-44 0 -89 -38 -88 -171v-207c98 98 155 186 155 274c0 71 -29 104 -67 104z" />
    <glyph glyph-name="uni2116" unicode="&#x2116;" horiz-adv-x="1107" 
d="M897 412c-92 0 -155 65 -155 151c0 85 63 150 155 150c88 0 155 -61 155 -150c0 -90 -67 -151 -155 -151zM579 144v566h87v-710h-89l-398 560h-2v-560h-87v710h86l401 -566h2zM897 657c-54 0 -91 -42 -91 -94c0 -53 37 -95 91 -95c51 0 91 39 91 95c0 55 -39 94 -91 94z
M750 354h303v-58h-303v58z" />
    <glyph glyph-name="asciicircum" unicode="^" horiz-adv-x="468" 
d="M61 500l140 210h65l141 -210h-74l-100 153l-100 -153h-72z" />
    <glyph glyph-name="dagger" unicode="&#x2020;" horiz-adv-x="402" 
d="M202 248l-27 47l4 134l-1 111h-20l-100 -4v54l100 -4h20l-3 99h54l-3 -99h18l100 4v-54l-100 4h-19v-111l4 -134z" />
    <glyph glyph-name="daggerdbl" unicode="&#x2021;" horiz-adv-x="402" 
d="M175 58l3 97h-20l-100 -3v54l99 -3h22v90l-4 82l4 83v82h-21l-100 -4v53l99 -3h21l-3 99h54l-4 -99h19l100 3v-53l-101 4h-18v-82l4 -83l-5 -82l1 -90h19l100 4v-54l-100 2h-19l4 -97h-54z" />
    <glyph glyph-name="at.case" horiz-adv-x="896" 
d="M648 115c-60 0 -98 38 -97 96h-2c-30 -55 -82 -85 -149 -85c-98 0 -171 75 -171 191c0 92 60 227 200 227c64 0 108 -29 135 -86h1l9 80h82l-26 -270c-1 -11 -2 -20 -2 -28c0 -50 18 -59 43 -59c80 0 117 119 117 187c0 173 -122 301 -304 301
c-267 0 -370 -206 -370 -362c0 -177 136 -313 300 -313c80 0 151 21 211 53l30 -47c-69 -44 -151 -67 -241 -67c-207 0 -365 157 -365 375c0 167 113 421 435 421c222 0 369 -149 369 -361c0 -92 -46 -253 -205 -253zM424 200c90 0 137 82 137 149c0 69 -45 120 -109 120
c-89 0 -139 -71 -139 -145c0 -72 46 -124 111 -124z" />
    <glyph glyph-name="uni0374" unicode="&#x374;" horiz-adv-x="246" 
d="M34 480l54 246h84l-66 -246h-72z" />
    <glyph glyph-name="uni0375" unicode="&#x375;" horiz-adv-x="246" 
d="M64 -146l54 246h84l-66 -246h-72z" />
    <glyph glyph-name="acute" unicode="&#xb4;" horiz-adv-x="505" 
d="M165 541l117 141l92 1l-124 -142h-85z" />
    <glyph glyph-name="breve" unicode="&#x2d8;" horiz-adv-x="466" 
d="M233 538c-74 0 -138 49 -145 140h66c3 -46 31 -80 79 -80c46 0 76 32 79 80h65c-6 -85 -64 -140 -144 -140z" />
    <glyph glyph-name="caron" unicode="&#x2c7;" horiz-adv-x="495" 
d="M320 683h82l-120 -143h-74l-116 143h82l72 -90h2z" />
    <glyph glyph-name="cedilla" unicode="&#xb8;" horiz-adv-x="386" 
d="M189 -33c52 -3 87 -31 87 -79c0 -42 -33 -76 -107 -76c-24 0 -41 3 -56 6v44c13 -4 27 -7 48 -7c29 0 56 11 56 37c0 22 -27 42 -83 42v30l20 42h51l-17 -37z" />
    <glyph glyph-name="circumflex" unicode="&#x2c6;" horiz-adv-x="495" 
d="M320 540l-72 89h-2l-72 -89h-82l116 143h75l119 -143h-82z" />
    <glyph glyph-name="dieresis" unicode="&#xa8;" horiz-adv-x="508" 
d="M164 561c-33 0 -58 25 -58 57c0 31 25 57 58 57c32 0 58 -26 58 -57c0 -32 -26 -57 -58 -57zM345 562c-32 0 -57 25 -57 56c0 30 25 56 57 56s57 -26 57 -56c0 -31 -25 -56 -57 -56z" />
    <glyph glyph-name="dotaccent" unicode="&#x2d9;" horiz-adv-x="494" 
d="M247 561c-33 0 -58 25 -58 57c0 31 25 57 58 57c32 0 58 -26 58 -57c0 -32 -26 -57 -58 -57z" />
    <glyph glyph-name="grave" unicode="`" horiz-adv-x="505" 
d="M255 541l-124 142l93 -1l117 -141h-86z" />
    <glyph glyph-name="hungarumlaut" unicode="&#x2dd;" horiz-adv-x="516" 
d="M75 541l117 141l86 1l-124 -142h-79zM242 541l117 141l86 1l-124 -142h-79z" />
    <glyph glyph-name="macron" unicode="&#xaf;" horiz-adv-x="457" 
d="M85 580v69h287v-69h-287z" />
    <glyph glyph-name="ogonek" unicode="&#x2db;" horiz-adv-x="468" 
d="M272 -186c-62 0 -100 32 -100 84c0 38 31 86 88 116l60 -14c-50 -14 -81 -51 -81 -84c0 -27 15 -45 49 -45c25 0 33 2 46 9l6 -53c-18 -8 -40 -13 -68 -13z" />
    <glyph glyph-name="ring" unicode="&#x2da;" horiz-adv-x="460" 
d="M229 521c-52 0 -96 42 -96 95c0 52 41 95 96 95c54 0 98 -41 98 -95c0 -51 -42 -95 -98 -95zM230 575c23 0 43 19 43 42s-20 43 -43 43c-24 0 -43 -20 -43 -43c0 -24 19 -42 43 -42z" />
    <glyph glyph-name="tilde" unicode="&#x2dc;" horiz-adv-x="505" 
d="M332 546c-35 0 -63 19 -88 36c-20 12 -39 23 -58 23c-27 0 -47 -21 -60 -55l-52 23c18 60 52 99 103 99c36 0 59 -15 82 -29c21 -14 40 -30 63 -30c24 0 46 19 58 55l52 -17c-18 -67 -56 -105 -100 -105z" />
    <glyph glyph-name="tonos" unicode="&#x384;" horiz-adv-x="464" 
d="M165 541l59 164h94l-74 -164h-79z" />
    <glyph glyph-name="dieresistonos" unicode="&#x385;" horiz-adv-x="550" 
d="M214 541l35 164h75l-48 -164h-62zM129 561c-32 0 -58 25 -58 57c0 31 26 57 58 57s58 -26 58 -57c0 -32 -26 -57 -58 -57zM396 562c-32 0 -57 25 -57 56c0 30 25 56 57 56c31 0 57 -26 57 -56c0 -31 -26 -56 -57 -56z" />
    <glyph glyph-name="NULL" horiz-adv-x="0" 
 />
    <glyph glyph-name="KB" horiz-adv-x="924" 
d="M473 -1c-130 0 -219 57 -254 131l21 9c52 -69 116 -94 200 -94c64 0 122 28 122 101c0 57 -61 119 -161 157c-6 -22 -13 -47 -19 -74c23 -4 47 -9 71 -17l-5 -36h-248l-1 34c29 20 62 38 98 50l73 382l-65 19l-2 30c26 16 68 29 117 29l70 -35l-63 -194l-66 -189l10 -2
c49 184 127 244 221 244c70 0 122 -29 122 -98c0 -74 -59 -136 -195 -136c-22 0 -45 1 -69 4v-9c105 -13 257 -38 257 -152c0 -85 -82 -154 -234 -154zM410 330c133 5 173 74 173 124c0 27 -15 50 -41 50c-28 0 -86 -42 -132 -174zM49 -146l-12 39h6l9 -28l8 28h6l8 -28
l9 28h6l-12 -39h-6l-8 29l-8 -29h-6zM105 -146l-12 39h7l8 -28l8 28h7l7 -28l9 28h7l-12 -39h-7l-7 29l-9 -29h-6zM162 -146l-13 39h7l9 -28l7 28h7l8 -28l8 28h7l-12 -39h-6l-8 29l-9 -29h-5zM218 -146v39h7v-19l15 19h8l-15 -18l16 -21h-9l-11 16l-4 -5v-11h-7zM270 -146
c-12 0 -20 8 -20 20c0 11 8 19 20 19c11 0 19 -8 19 -19c0 -13 -8 -20 -19 -20zM309 -146c-5 0 -11 1 -15 6l4 5c3 -4 7 -5 11 -5s6 1 6 4c0 4 -2 5 -7 7c-6 2 -12 4 -12 11c0 6 5 11 12 11c5 0 9 -1 13 -5l-4 -5c-3 3 -6 4 -9 4s-5 -1 -5 -4s2 -4 7 -6c6 -2 12 -4 12 -12
s-8 -11 -13 -11zM336 -146v33h-11v6h29v-6h-11v-33h-7zM353 -146l15 39h6l15 -39h-7l-3 8h-16l-3 -8h-7zM406 -146c-5 0 -10 1 -14 6l4 5c3 -4 6 -5 10 -5s6 1 6 4c0 4 -2 5 -7 7c-6 2 -12 4 -12 11c0 6 5 11 12 11c5 0 9 -1 13 -5l-4 -5c-3 3 -6 4 -9 4s-5 -1 -5 -4
s2 -4 7 -6c7 -2 12 -4 12 -12s-7 -11 -13 -11zM426 -146v39h14c8 0 13 -3 13 -10c0 -4 -2 -7 -6 -8c4 -1 8 -5 8 -10c0 -7 -5 -11 -13 -11h-16zM458 -146l14 39h7l14 -39h-7l-3 8h-15l-3 -8h-7zM499 -146v39h15c8 0 13 -6 13 -13c0 -6 -4 -10 -9 -11l10 -15h-8l-9 14h-5v-14
h-7zM542 -146v33h-11v6h29v-6h-12v-33h-6zM578 -146c-5 0 -11 1 -15 6l5 5c2 -4 6 -5 10 -5s6 1 6 4c0 4 -2 5 -7 7c-6 2 -12 4 -12 11c0 6 5 11 12 11c5 0 9 -1 13 -5l-4 -5c-3 3 -6 4 -9 4s-5 -1 -5 -4s2 -4 7 -6c6 -2 12 -4 12 -12s-8 -11 -13 -11zM616 -146
c-12 0 -19 8 -19 20c0 11 7 19 19 19c11 0 20 -8 20 -19c0 -13 -9 -20 -20 -20zM643 -146v39h7v-19l15 19h8l-14 -18l15 -21h-8l-12 16l-4 -5v-11h-7zM676 -146l14 39h7l14 -39h-6l-3 8h-16l-3 -8h-7zM729 -146c-5 0 -10 1 -14 6l4 5c3 -4 7 -5 10 -5c4 0 6 1 6 4
c0 4 -3 5 -7 7c-6 2 -12 4 -12 11c0 6 6 11 12 11c5 0 9 -1 13 -5l-4 -5c-3 3 -6 4 -9 4s-5 -1 -5 -4s3 -4 7 -6c7 -2 12 -4 12 -12s-7 -11 -13 -11zM779 -146c-11 0 -20 6 -20 19c0 11 7 20 20 20c5 0 11 -2 15 -7l-5 -4c-2 3 -6 5 -10 5c-8 0 -13 -6 -13 -14s5 -13 13 -13
c4 0 8 2 10 5l5 -4c-3 -4 -8 -7 -15 -7zM818 -146c-11 0 -19 8 -19 20c0 11 8 19 19 19c12 0 20 -8 20 -19c0 -13 -8 -20 -20 -20zM846 -146v39h6l13 -23l13 23h6v-39h-6v26l-11 -19h-4l-11 19v-26h-6zM270 -140c7 0 12 5 12 14c0 7 -5 13 -12 13c-8 0 -13 -6 -13 -13
c0 -8 5 -14 13 -14zM433 -124h6c3 0 7 2 7 6c0 3 -2 5 -8 5h-5v-11zM506 -126h6c6 0 8 2 8 6s-3 7 -7 7h-7v-13zM616 -140c7 0 13 5 13 14c0 7 -6 13 -13 13c-8 0 -12 -6 -12 -13c0 -8 4 -14 12 -14zM818 -140c8 0 13 5 13 14c0 7 -5 13 -13 13c-7 0 -12 -6 -12 -13
c0 -8 5 -14 12 -14zM365 -132h11l-5 17zM470 -132h11l-5 17zM688 -132h12l-6 17zM433 -140h7c4 0 8 2 8 5c0 4 -3 6 -8 6h-7v-11zM207 -146c-3 0 -4 1 -4 3c0 3 1 5 4 5c2 0 3 -2 3 -5c0 -2 -1 -3 -3 -3zM751 -146c-2 0 -4 1 -4 3c0 3 2 5 4 5s4 -2 4 -5c0 -2 -2 -3 -4 -3z
" />
    <glyph glyph-name="jacute" horiz-adv-x="228" 
d="M79 568l117 141l92 1l-124 -142h-85zM33 -204c-28 0 -53 3 -84 16l13 72c17 -9 35 -14 51 -14c36 0 63 23 63 79v538h81v-538c0 -95 -47 -153 -124 -153z" />
    <glyph glyph-name="Jacute" horiz-adv-x="497" 
d="M338 788l117 141l92 1l-124 -142h-85zM218 -5c-63 0 -137 30 -186 90l49 64c34 -39 85 -71 134 -71c69 0 117 40 117 155v477h86v-479c0 -152 -59 -236 -200 -236z" />
    </font>
</defs>
</svg>
