<?xml version="1.0" standalone="no"?>
<!DOCTYPE svg PUBLIC "-//W3C//DTD SVG 1.1//EN" "http://www.w3.org/Graphics/SVG/1.1/DTD/svg11.dtd" >
<svg xmlns="http://www.w3.org/2000/svg" xmlns:xlink="http://www.w3.org/1999/xlink" version="1.1">
<metadata>
Created by FontForge 20170910 at Sat Jan  2 15:11:08 2016
 By Jimmy Wärting
Copyright (c) 2015 by Kostas Bartsokas. All rights reserved.
</metadata>
<defs>
<font id="AvertaStd-SemiboldItalic" horiz-adv-x="647" >
  <font-face 
    font-family="Averta Std Semibold"
    font-weight="600"
    font-style="italic"
    font-stretch="normal"
    units-per-em="1000"
    panose-1="0 0 7 0 0 0 0 0 0 0"
    ascent="772"
    descent="-228"
    x-height="488"
    cap-height="710"
    bbox="-167 -389 1388 982"
    underline-thickness="49"
    underline-position="-85"
    slope="-7"
    stemh="88"
    stemv="93"
    unicode-range="U+0020-2715"
  />
<missing-glyph horiz-adv-x="404" 
 />
    <glyph glyph-name=".notdef" horiz-adv-x="404" 
 />
    <glyph glyph-name="A" unicode="A" 
d="M471 0l-29 154h-255l-67 -154h-124l324 710h123l150 -710h-122zM231 257h192l-58 305h-2z" />
    <glyph glyph-name="Aacute" unicode="&#xc1;" 
d="M587 932l-129 -145h-111l119 144zM471 0l-29 154h-255l-67 -154h-124l324 710h123l150 -710h-122zM231 257h192l-58 305h-2z" />
    <glyph glyph-name="Abreve" unicode="&#x102;" 
d="M399 782c-82 0 -141 53 -133 146h85c-4 -41 9 -69 49 -69c38 0 66 30 74 69h85c-17 -88 -77 -146 -160 -146zM471 0l-29 154h-255l-67 -154h-124l324 710h123l150 -710h-122zM231 257h192l-58 305h-2z" />
    <glyph glyph-name="uni1EAE" unicode="&#x1eae;" 
d="M570 950l-134 -101h-82l109 100zM390 743c-74 0 -130 42 -135 117h69c4 -33 23 -54 73 -54c31 0 59 17 78 54h72c-24 -71 -81 -117 -157 -117zM471 0l-29 154h-255l-67 -154h-124l324 710h123l150 -710h-122zM231 257h192l-58 305h-2z" />
    <glyph glyph-name="uni1EB6" unicode="&#x1eb6;" 
d="M400 782c-82 0 -141 53 -133 146h85c-4 -41 9 -69 49 -69c38 0 66 30 74 69h85c-17 -88 -77 -146 -160 -146zM593 0h-122l-29 154h-255l-67 -154h-124l324 710h123zM231 257h192l-58 305h-2zM278 -99c41 0 71 -31 71 -71c0 -43 -32 -74 -74 -74c-41 0 -72 30 -72 71
c0 42 32 74 75 74z" />
    <glyph glyph-name="uni1EB0" unicode="&#x1eb0;" 
d="M445 849h-82l-120 101l110 -1zM324 860c4 -33 23 -54 73 -54c31 0 59 17 78 54h72c-24 -71 -81 -117 -157 -117c-74 0 -130 42 -135 117h69zM471 0l-29 154h-255l-67 -154h-124l324 710h123l150 -710h-122zM231 257h192l-58 305h-2z" />
    <glyph glyph-name="uni1EB2" unicode="&#x1eb2;" 
d="M411 917c-25 0 -48 -13 -64 -29l-34 41c24 24 66 41 101 41c46 0 71 -27 71 -63c0 -41 -31 -63 -72 -74l-11 -12h-21c-13 0 -20 9 -20 19c0 28 67 41 67 64c0 9 -6 13 -17 13zM390 743c-74 0 -130 42 -135 117h69c4 -33 23 -54 73 -54c31 0 59 17 78 54h72
c-24 -71 -81 -117 -157 -117zM471 0l-29 154h-255l-67 -154h-124l324 710h123l150 -710h-122zM231 257h192l-58 305h-2z" />
    <glyph glyph-name="uni1EB4" unicode="&#x1eb4;" 
d="M345 912c-13 0 -30 -14 -44 -35l-55 20c22 44 58 75 96 75c33 0 54 -13 72 -23c13 -7 25 -13 40 -13c21 0 39 13 53 35l55 -15c-22 -50 -60 -81 -103 -81c-27 0 -48 11 -66 20c-16 9 -31 17 -48 17zM397 806c31 0 59 17 78 54h72c-24 -71 -81 -117 -157 -117
c-74 0 -130 42 -135 117h69c4 -33 23 -54 73 -54zM471 0l-29 154h-255l-67 -154h-124l324 710h123l150 -710h-122zM231 257h192l-58 305h-2z" />
    <glyph glyph-name="Acircumflex" unicode="&#xc2;" 
d="M404 861l-55 -76h-110l118 147h104l87 -147h-106l-36 76h-2zM471 0l-29 154h-255l-67 -154h-124l324 710h123l150 -710h-122zM231 257h192l-58 305h-2z" />
    <glyph glyph-name="uni1EA4" unicode="&#x1ea4;" 
d="M653 953l120 1l-154 -145h-81zM400 846l-55 -76h-110l118 147h104l87 -147h-106l-36 76h-2zM320 710h123l150 -710h-122l-29 154h-255l-67 -154h-124zM231 257h192l-58 305h-2z" />
    <glyph glyph-name="uni1EAC" unicode="&#x1eac;" 
d="M404 861l-55 -76h-110l118 147h104l87 -147h-106l-36 76h-2zM593 0h-122l-29 154h-255l-67 -154h-124l324 710h123zM231 257h192l-58 305h-2zM278 -99c41 0 71 -31 71 -71c0 -43 -32 -74 -74 -74c-41 0 -72 30 -72 71c0 42 32 74 75 74z" />
    <glyph glyph-name="uni1EA6" unicode="&#x1ea6;" 
d="M668 808h-81l-106 145h120zM400 846l-55 -76h-110l118 147h104l87 -147h-106l-36 76h-2zM320 710h123l150 -710h-122l-29 154h-255l-67 -154h-124zM231 257h192l-58 305h-2z" />
    <glyph glyph-name="uni1EA8" unicode="&#x1ea8;" 
d="M619 962c55 0 84 -31 84 -72c0 -44 -31 -74 -88 -86l-13 -26l-39 2c-9 10 -16 19 -15 33c3 30 85 40 86 76c0 9 -8 14 -21 14c-27 0 -53 -13 -71 -32l-38 45c27 27 74 46 115 46zM402 846l-55 -76h-110l118 147h104l87 -147h-106l-36 76h-2zM320 710h123l150 -710h-122
l-29 154h-255l-67 -154h-124zM231 257h192l-58 305h-2z" />
    <glyph glyph-name="uni1EAA" unicode="&#x1eaa;" 
d="M362 912c-14 0 -31 -16 -44 -37l-51 24c21 44 52 73 85 73c32 0 51 -15 66 -26c13 -5 24 -10 35 -10c21 0 40 15 53 37l50 -19c-21 -50 -54 -79 -91 -79c-26 0 -45 12 -60 23c-16 7 -29 14 -43 14zM396 805l-64 -68h-96l118 122h92l92 -122h-93l-46 68h-3zM471 0l-29 154
h-255l-67 -154h-124l324 710h123l150 -710h-122zM231 257h192l-58 305h-2z" />
    <glyph glyph-name="Adieresis" unicode="&#xc4;" 
d="M309 793c-41 0 -72 31 -72 71c0 43 32 74 75 74c40 0 71 -30 71 -71c0 -42 -32 -74 -74 -74zM499 793c-42 0 -72 31 -72 71c0 43 32 74 75 74c40 0 71 -30 71 -71c0 -42 -32 -74 -74 -74zM471 0l-29 154h-255l-67 -154h-124l324 710h123l150 -710h-122zM231 257h192
l-58 305h-2z" />
    <glyph glyph-name="uni1EA0" unicode="&#x1ea0;" 
d="M593 0h-122l-29 154h-255l-67 -154h-124l324 710h123zM231 257h192l-58 305h-2zM278 -99c41 0 71 -31 71 -71c0 -43 -32 -74 -74 -74c-41 0 -72 30 -72 71c0 42 32 74 75 74z" />
    <glyph glyph-name="Agrave" unicode="&#xc0;" 
d="M441 787h-111l-94 145l122 -1zM471 0l-29 154h-255l-67 -154h-124l324 710h123l150 -710h-122zM231 257h192l-58 305h-2z" />
    <glyph glyph-name="uni1EA2" unicode="&#x1ea2;" 
d="M415 889c-27 0 -53 -14 -71 -33l-38 46c28 27 74 46 115 46c56 0 85 -31 85 -73c-1 -43 -31 -73 -89 -85l-13 -26l-39 2c-9 9 -16 19 -15 33c4 30 86 39 86 76c0 9 -8 14 -21 14zM471 0l-29 154h-255l-67 -154h-124l324 710h123l150 -710h-122zM231 257h192l-58 305h-2z
" />
    <glyph glyph-name="Amacron" unicode="&#x100;" 
d="M547 908l-11 -92h-274l11 92h274zM471 0l-29 154h-255l-67 -154h-124l324 710h123l150 -710h-122zM231 257h192l-58 305h-2z" />
    <glyph glyph-name="Aogonek" unicode="&#x104;" 
d="M587 0c-55 -11 -93 -51 -93 -87c0 -19 11 -30 28 -30c18 0 31 3 40 8l2 -68c-19 -9 -49 -11 -69 -11c-61 0 -92 27 -92 75c0 43 30 87 68 114l-29 153h-255l-67 -154h-124l324 710h123l150 -710h-6zM231 257h192l-58 305h-2z" />
    <glyph glyph-name="Aring" unicode="&#xc5;" 
d="M405 762c-58 0 -103 44 -103 103c0 60 46 105 107 105c59 0 103 -44 103 -102c0 -61 -46 -106 -107 -106zM408 905c-22 0 -39 -18 -39 -39c0 -22 16 -38 38 -38s39 17 39 39c0 21 -17 38 -38 38zM471 0l-29 154h-255l-67 -154h-124l324 710h123l150 -710h-122zM231 257
h192l-58 305h-2z" />
    <glyph glyph-name="Aringacute" unicode="&#x1fa;" 
d="M405 762c-58 0 -103 44 -103 103c0 60 46 105 107 105c30 0 56 -11 75 -30l55 42h122l-149 -112v-2c0 -61 -46 -106 -107 -106zM408 905c-22 0 -39 -18 -39 -39c0 -22 16 -38 38 -38s39 17 39 39c0 21 -17 38 -38 38zM320 710h123l150 -710h-122l-29 154h-255l-67 -154
h-124zM231 257h192l-58 305h-2z" />
    <glyph glyph-name="Atilde" unicode="&#xc3;" 
d="M352 839c-25 0 -46 -22 -60 -54l-68 35c27 64 67 107 118 107c39 0 55 -18 73 -30c16 -11 31 -23 47 -23c24 0 46 21 60 53l68 -26c-27 -73 -69 -116 -116 -116c-36 0 -59 21 -76 32c-16 12 -31 22 -46 22zM471 0l-29 154h-255l-67 -154h-124l324 710h123l150 -710h-122z
M231 257h192l-58 305h-2z" />
    <glyph glyph-name="AE" unicode="&#xc6;" horiz-adv-x="875" 
d="M846 604h-295l-25 -198h243l-14 -106h-242l-23 -194h313l-13 -106h-428l19 154h-189l-86 -154h-129l407 710h475zM249 257h145l40 327h-3z" />
    <glyph glyph-name="AEacute" unicode="&#x1fc;" horiz-adv-x="875" 
d="M666 932l-129 -145h-111l119 144zM846 604h-295l-25 -198h243l-14 -106h-242l-23 -194h313l-13 -106h-428l19 154h-189l-86 -154h-129l407 710h475zM249 257h145l40 327h-3z" />
    <glyph glyph-name="B" unicode="B" horiz-adv-x="613" 
d="M455 377c63 -18 105 -62 105 -144c0 -135 -89 -233 -237 -233h-261l87 710h229c128 0 191 -44 191 -147c0 -77 -41 -151 -114 -184v-2zM254 604l-23 -189h99c66 0 118 52 118 126c0 45 -31 63 -98 63h-96zM295 106c87 0 142 57 142 131c0 52 -33 76 -107 76h-111
l-26 -207h102z" />
    <glyph glyph-name="C" unicode="C" horiz-adv-x="679" 
d="M614 113c-64 -71 -156 -121 -261 -121c-162 0 -286 99 -286 297c0 234 148 429 369 429c89 0 178 -37 246 -148l-100 -70c-38 73 -87 106 -151 106c-147 0 -241 -154 -241 -317c0 -115 60 -185 168 -185c62 0 126 35 168 86z" />
    <glyph glyph-name="Cacute" unicode="&#x106;" horiz-adv-x="679" 
d="M507 931l121 1l-129 -145h-111zM614 113c-64 -71 -156 -121 -261 -121c-162 0 -286 99 -286 297c0 234 148 429 369 429c89 0 178 -37 246 -148l-100 -70c-38 73 -87 106 -151 106c-147 0 -241 -154 -241 -317c0 -115 60 -185 168 -185c62 0 126 35 168 86z" />
    <glyph glyph-name="Ccaron" unicode="&#x10c;" horiz-adv-x="679" 
d="M516 785h-104l-85 147h106l35 -77h3l55 77h110zM358 104c62 0 126 35 168 86l88 -77c-64 -71 -156 -121 -261 -121c-162 0 -286 99 -286 297c0 234 148 429 369 429c89 0 178 -37 246 -148l-100 -70c-38 73 -87 106 -151 106c-147 0 -241 -154 -241 -317
c0 -115 60 -185 168 -185z" />
    <glyph glyph-name="Ccedilla" unicode="&#xc7;" horiz-adv-x="679" 
d="M358 104c62 0 126 35 168 86l88 -77c-63 -69 -152 -119 -254 -121l-15 -23l1 -1c48 -2 75 -23 75 -66c0 -49 -46 -92 -115 -92c-19 0 -44 3 -57 6l3 54c11 -5 28 -6 43 -6c32 0 52 13 52 37c0 19 -22 27 -69 27l2 36l18 31v1c-134 20 -231 118 -231 293
c0 234 148 429 369 429c89 0 178 -37 246 -148l-100 -70c-38 73 -87 106 -151 106c-147 0 -241 -154 -241 -317c0 -115 60 -185 168 -185z" />
    <glyph glyph-name="Ccircumflex" unicode="&#x108;" horiz-adv-x="679" 
d="M472 861l-55 -76h-110l118 147h104l87 -147h-106l-36 76h-2zM358 104c62 0 126 35 168 86l88 -77c-64 -71 -156 -121 -261 -121c-162 0 -286 99 -286 297c0 234 148 429 369 429c89 0 178 -37 246 -148l-100 -70c-38 73 -87 106 -151 106c-147 0 -241 -154 -241 -317
c0 -115 60 -185 168 -185z" />
    <glyph glyph-name="Cdotaccent" unicode="&#x10a;" horiz-adv-x="679" 
d="M476 938c41 0 72 -30 72 -71c0 -42 -32 -74 -75 -74c-41 0 -71 31 -71 71c0 43 32 74 74 74zM614 113c-64 -71 -156 -121 -261 -121c-162 0 -286 99 -286 297c0 234 148 429 369 429c89 0 178 -37 246 -148l-100 -70c-38 73 -87 106 -151 106c-147 0 -241 -154 -241 -317
c0 -115 60 -185 168 -185c62 0 126 35 168 86z" />
    <glyph glyph-name="D" unicode="D" horiz-adv-x="693" 
d="M277 0h-215l87 710h212c193 0 291 -113 291 -293c0 -251 -143 -417 -375 -417zM289 106c147 0 240 130 240 311c0 113 -62 187 -177 187h-98l-61 -498h96z" />
    <glyph glyph-name="Eth" unicode="&#xd0;" horiz-adv-x="690" 
d="M363 710c193 0 291 -113 291 -293c0 -251 -143 -417 -375 -417h-215l37 302h-58l13 101h57l38 307h212zM291 106c147 0 240 130 240 311c0 113 -62 187 -177 187h-98l-25 -201h98l-13 -101h-97l-24 -196h96z" />
    <glyph glyph-name="Dcaron" unicode="&#x10e;" horiz-adv-x="693" 
d="M465 785h-104l-85 147h106l35 -77h3l55 77h110zM361 710c193 0 291 -113 291 -293c0 -251 -143 -417 -375 -417h-215l87 710h212zM289 106c147 0 240 130 240 311c0 113 -62 187 -177 187h-98l-61 -498h96z" />
    <glyph glyph-name="Dcroat" unicode="&#x110;" horiz-adv-x="690" 
d="M363 710c193 0 291 -113 291 -293c0 -251 -143 -417 -375 -417h-215l37 302h-58l13 101h57l38 307h212zM291 106c147 0 240 130 240 311c0 113 -62 187 -177 187h-98l-25 -201h98l-13 -101h-97l-24 -196h96z" />
    <glyph glyph-name="E" unicode="E" horiz-adv-x="575" 
d="M502 106l-13 -106h-427l87 710h409l-14 -106h-291l-24 -199h235l-13 -106h-235l-24 -193h310z" />
    <glyph glyph-name="Eacute" unicode="&#xc9;" horiz-adv-x="575" 
d="M390 931l121 1l-129 -145h-111zM502 106l-13 -106h-427l87 710h409l-14 -106h-291l-24 -199h235l-13 -106h-235l-24 -193h310z" />
    <glyph glyph-name="Ebreve" unicode="&#x114;" horiz-adv-x="575" 
d="M371 782c-82 0 -141 53 -133 146h85c-4 -41 9 -69 49 -69c38 0 66 30 74 69h85c-17 -88 -77 -146 -160 -146zM502 106l-13 -106h-427l87 710h409l-14 -106h-291l-24 -199h235l-13 -106h-235l-24 -193h310z" />
    <glyph glyph-name="Ecaron" unicode="&#x11a;" horiz-adv-x="575" 
d="M420 785h-104l-85 147h106l35 -77h3l55 77h110zM544 604h-291l-24 -199h235l-13 -106h-235l-24 -193h310l-13 -106h-427l87 710h409z" />
    <glyph glyph-name="Ecircumflex" unicode="&#xca;" horiz-adv-x="575" 
d="M376 861l-55 -76h-110l118 147h104l87 -147h-106l-36 76h-2zM544 604h-291l-24 -199h235l-13 -106h-235l-24 -193h310l-13 -106h-427l87 710h409z" />
    <glyph glyph-name="uni1EBE" unicode="&#x1ebe;" horiz-adv-x="575" 
d="M625 953l120 1l-154 -145h-81zM372 846l-55 -76h-110l118 147h104l87 -147h-106l-36 76h-2zM62 0l87 710h409l-14 -106h-291l-24 -199h235l-13 -106h-235l-24 -193h310l-13 -106h-427z" />
    <glyph glyph-name="uni1EC6" unicode="&#x1ec6;" horiz-adv-x="575" 
d="M376 861l-55 -76h-110l118 147h104l87 -147h-106l-36 76h-2zM544 604h-291l-24 -199h235l-13 -106h-235l-24 -193h310l-13 -106h-427l87 710h409zM264 -99c41 0 71 -31 71 -71c0 -43 -32 -74 -74 -74c-41 0 -72 30 -72 71c0 42 32 74 75 74z" />
    <glyph glyph-name="uni1EC0" unicode="&#x1ec0;" horiz-adv-x="575" 
d="M573 953l67 -145h-81l-106 145h120zM372 846l-55 -76h-110l118 147h104l87 -147h-106l-36 76h-2zM62 0l87 710h409l-14 -106h-291l-24 -199h235l-13 -106h-235l-24 -193h310l-13 -106h-427z" />
    <glyph glyph-name="uni1EC2" unicode="&#x1ec2;" horiz-adv-x="575" 
d="M591 962c55 0 84 -31 84 -72c0 -44 -31 -74 -88 -86l-13 -26l-39 2c-9 10 -16 19 -15 33c3 30 85 40 86 76c0 9 -8 14 -21 14c-27 0 -53 -13 -71 -32l-38 45c27 27 74 46 115 46zM374 846l-55 -76h-110l118 147h104l87 -147h-106l-36 76h-2zM62 0l87 710h409l-14 -106
h-291l-24 -199h235l-13 -106h-235l-24 -193h310l-13 -106h-427z" />
    <glyph glyph-name="uni1EC4" unicode="&#x1ec4;" horiz-adv-x="575" 
d="M334 912c-14 0 -31 -16 -44 -37l-51 24c21 44 52 73 85 73c32 0 51 -15 66 -26c13 -5 24 -10 35 -10c21 0 40 15 53 37l50 -19c-21 -50 -54 -79 -91 -79c-26 0 -45 12 -60 23c-16 7 -29 14 -43 14zM368 805l-64 -68h-96l118 122h92l92 -122h-93l-46 68h-3zM544 604h-291
l-24 -199h235l-13 -106h-235l-24 -193h310l-13 -106h-427l87 710h409z" />
    <glyph glyph-name="Edieresis" unicode="&#xcb;" horiz-adv-x="575" 
d="M284 938c40 0 71 -30 71 -71c0 -42 -32 -74 -74 -74c-41 0 -72 31 -72 71c0 43 32 74 75 74zM474 938c40 0 71 -30 71 -71c0 -42 -32 -74 -74 -74s-72 31 -72 71c0 43 32 74 75 74zM502 106l-13 -106h-427l87 710h409l-14 -106h-291l-24 -199h235l-13 -106h-235l-24 -193
h310z" />
    <glyph glyph-name="Edotaccent" unicode="&#x116;" horiz-adv-x="575" 
d="M380 938c41 0 72 -30 72 -71c0 -42 -32 -74 -75 -74c-41 0 -71 31 -71 71c0 43 32 74 74 74zM502 106l-13 -106h-427l87 710h409l-14 -106h-291l-24 -199h235l-13 -106h-235l-24 -193h310z" />
    <glyph glyph-name="uni1EB8" unicode="&#x1eb8;" horiz-adv-x="575" 
d="M502 106l-13 -106h-427l87 710h409l-14 -106h-291l-24 -199h235l-13 -106h-235l-24 -193h310zM261 -244c-41 0 -72 30 -72 71c0 42 32 74 75 74c41 0 71 -31 71 -71c0 -43 -32 -74 -74 -74z" />
    <glyph glyph-name="Egrave" unicode="&#xc8;" horiz-adv-x="575" 
d="M383 931l83 -144h-111l-94 145zM502 106l-13 -106h-427l87 710h409l-14 -106h-291l-24 -199h235l-13 -106h-235l-24 -193h310z" />
    <glyph glyph-name="uni1EBA" unicode="&#x1eba;" horiz-adv-x="575" 
d="M316 856l-38 46c28 27 74 46 115 46c56 0 85 -31 85 -73c-1 -43 -31 -73 -89 -85l-13 -26l-39 2c-9 9 -16 19 -15 33c4 30 86 39 86 76c0 9 -8 14 -21 14c-27 0 -53 -14 -71 -33zM502 106l-13 -106h-427l87 710h409l-14 -106h-291l-24 -199h235l-13 -106h-235l-24 -193
h310z" />
    <glyph glyph-name="Emacron" unicode="&#x112;" horiz-adv-x="575" 
d="M245 908h274l-11 -92h-274zM502 106l-13 -106h-427l87 710h409l-14 -106h-291l-24 -199h235l-13 -106h-235l-24 -193h310z" />
    <glyph glyph-name="Eogonek" unicode="&#x118;" horiz-adv-x="575" 
d="M544 604h-291l-24 -199h235l-13 -106h-235l-24 -193h310l-13 -106h-3c-55 -11 -93 -51 -93 -87c0 -19 11 -30 28 -30c18 0 31 3 40 8l2 -68c-19 -9 -49 -11 -69 -11c-61 0 -92 27 -92 75c0 42 28 85 66 112v1h-306l87 710h409z" />
    <glyph glyph-name="uni1EBC" unicode="&#x1ebc;" horiz-adv-x="575" 
d="M196 820c27 64 67 107 118 107c39 0 55 -18 73 -30c16 -11 31 -23 47 -23c24 0 46 21 60 53l68 -26c-27 -73 -69 -116 -116 -116c-36 0 -59 21 -76 32c-16 12 -31 22 -46 22c-25 0 -46 -22 -60 -54zM502 106l-13 -106h-427l87 710h409l-14 -106h-291l-24 -199h235
l-13 -106h-235l-24 -193h310z" />
    <glyph glyph-name="F" unicode="F" horiz-adv-x="563" 
d="M254 604l-27 -215h257l-13 -106h-257l-34 -283h-118l87 710h424l-13 -106h-306z" />
    <glyph glyph-name="G" unicode="G" horiz-adv-x="707" 
d="M652 378l-35 -298c-65 -54 -164 -88 -261 -88c-165 0 -289 99 -289 297c0 234 152 429 364 429c103 0 188 -39 243 -122l-98 -72c-33 52 -82 82 -150 82c-136 0 -235 -142 -235 -314c0 -120 61 -192 170 -192c51 0 96 15 143 48l17 124h-149l14 106h266z" />
    <glyph glyph-name="Gbreve" unicode="&#x11e;" horiz-adv-x="707" 
d="M454 782c-82 0 -141 53 -133 146h85c-4 -41 9 -69 49 -69c38 0 66 30 74 69h85c-17 -88 -77 -146 -160 -146zM652 378l-35 -298c-65 -54 -164 -88 -261 -88c-165 0 -289 99 -289 297c0 234 152 429 364 429c103 0 188 -39 243 -122l-98 -72c-33 52 -82 82 -150 82
c-136 0 -235 -142 -235 -314c0 -120 61 -192 170 -192c51 0 96 15 143 48l17 124h-149l14 106h266z" />
    <glyph glyph-name="Gcaron" unicode="&#x1e6;" horiz-adv-x="707" 
d="M503 785h-104l-85 147h106l35 -77h3l55 77h110zM372 272l14 106h266l-35 -298c-65 -54 -164 -88 -261 -88c-165 0 -289 99 -289 297c0 234 152 429 364 429c103 0 188 -39 243 -122l-98 -72c-33 52 -82 82 -150 82c-136 0 -235 -142 -235 -314c0 -120 61 -192 170 -192
c51 0 96 15 143 48l17 124h-149z" />
    <glyph glyph-name="Gcircumflex" unicode="&#x11c;" horiz-adv-x="707" 
d="M459 861l-55 -76h-110l118 147h104l87 -147h-106l-36 76h-2zM372 272l14 106h266l-35 -298c-65 -54 -164 -88 -261 -88c-165 0 -289 99 -289 297c0 234 152 429 364 429c103 0 188 -39 243 -122l-98 -72c-33 52 -82 82 -150 82c-136 0 -235 -142 -235 -314
c0 -120 61 -192 170 -192c51 0 96 15 143 48l17 124h-149z" />
    <glyph glyph-name="Gcommaaccent" unicode="&#x122;" horiz-adv-x="707" 
d="M372 272l14 106h266l-35 -298c-65 -54 -164 -88 -261 -88c-165 0 -289 99 -289 297c0 234 152 429 364 429c103 0 188 -39 243 -122l-98 -72c-33 52 -82 82 -150 82c-136 0 -235 -142 -235 -314c0 -120 61 -192 170 -192c51 0 96 15 143 48l17 124h-149zM297 -77
c0 8 -1 14 -2 24h98v-22c0 -81 -48 -135 -139 -144l-16 65c42 16 59 34 59 77z" />
    <glyph glyph-name="Gdotaccent" unicode="&#x120;" horiz-adv-x="707" 
d="M463 938c41 0 72 -30 72 -71c0 -42 -32 -74 -75 -74c-41 0 -71 31 -71 71c0 43 32 74 74 74zM652 378l-35 -298c-65 -54 -164 -88 -261 -88c-165 0 -289 99 -289 297c0 234 152 429 364 429c103 0 188 -39 243 -122l-98 -72c-33 52 -82 82 -150 82
c-136 0 -235 -142 -235 -314c0 -120 61 -192 170 -192c51 0 96 15 143 48l17 124h-149l14 106h266z" />
    <glyph glyph-name="H" unicode="H" horiz-adv-x="699" 
d="M665 710l-87 -710h-119l36 286h-280l-35 -286h-118l87 710h118l-39 -318h280l39 318h118z" />
    <glyph glyph-name="Hbar" unicode="&#x126;" horiz-adv-x="706" 
d="M695 593l-9 -75h-42l-63 -518h-119l36 286h-280l-35 -286h-118l63 518h-45l9 75h46l14 117h118l-14 -117h280l14 117h118l-14 -117h41zM511 392l15 126h-280l-15 -126h280z" />
    <glyph glyph-name="Hcircumflex" unicode="&#x124;" horiz-adv-x="699" 
d="M427 861l-55 -76h-110l118 147h104l87 -147h-106l-36 76h-2zM547 710h118l-87 -710h-119l36 286h-280l-35 -286h-118l87 710h118l-39 -318h280z" />
    <glyph glyph-name="I" unicode="I" horiz-adv-x="311" 
d="M185 0h-119l87 710h119z" />
    <glyph glyph-name="IJ" unicode="&#x132;" horiz-adv-x="796" 
d="M185 0h-119l87 710h119zM406 166c19 -32 45 -62 83 -62c53 0 96 42 111 159l55 447h119l-56 -453c-21 -170 -88 -265 -229 -265c-64 0 -128 32 -165 92z" />
    <glyph glyph-name="Iacute" unicode="&#xcd;" horiz-adv-x="311" 
d="M295 931l121 1l-129 -145h-111zM185 0h-119l87 710h119z" />
    <glyph glyph-name="Ibreve" unicode="&#x12c;" horiz-adv-x="311" 
d="M225 782c-82 0 -141 53 -133 146h85c-4 -41 9 -69 49 -69c38 0 66 30 74 69h85c-17 -88 -77 -146 -160 -146zM185 0h-119l87 710h119z" />
    <glyph glyph-name="Icircumflex" unicode="&#xce;" horiz-adv-x="311" 
d="M230 861l-55 -76h-110l118 147h104l87 -147h-106l-36 76h-2zM66 0l87 710h119l-87 -710h-119z" />
    <glyph glyph-name="Idieresis" unicode="&#xcf;" horiz-adv-x="311" 
d="M138 938c40 0 71 -30 71 -71c0 -42 -32 -74 -74 -74c-41 0 -72 31 -72 71c0 43 32 74 75 74zM328 938c40 0 71 -30 71 -71c0 -42 -32 -74 -74 -74s-72 31 -72 71c0 43 32 74 75 74zM185 0h-119l87 710h119z" />
    <glyph glyph-name="Idotaccent" unicode="&#x130;" horiz-adv-x="311" 
d="M234 938c41 0 72 -30 72 -71c0 -42 -32 -74 -75 -74c-41 0 -71 31 -71 71c0 43 32 74 74 74zM185 0h-119l87 710h119z" />
    <glyph glyph-name="uni1ECA" unicode="&#x1eca;" horiz-adv-x="311" 
d="M185 0h-119l87 710h119zM103 -244c-41 0 -72 30 -72 71c0 42 32 74 75 74c41 0 71 -31 71 -71c0 -43 -32 -74 -74 -74z" />
    <glyph glyph-name="Igrave" unicode="&#xcc;" horiz-adv-x="311" 
d="M195 931l83 -144h-111l-94 145zM185 0h-119l87 710h119z" />
    <glyph glyph-name="uni1EC8" unicode="&#x1ec8;" horiz-adv-x="311" 
d="M170 856l-38 46c28 27 74 46 115 46c56 0 85 -31 85 -73c-1 -43 -31 -73 -89 -85l-13 -26l-39 2c-9 9 -16 19 -15 33c4 30 86 39 86 76c0 9 -8 14 -21 14c-27 0 -53 -14 -71 -33zM185 0h-119l87 710h119z" />
    <glyph glyph-name="Imacron" unicode="&#x12a;" horiz-adv-x="311" 
d="M99 908h274l-11 -92h-274zM185 0h-119l87 710h119z" />
    <glyph glyph-name="Iogonek" unicode="&#x12e;" horiz-adv-x="311" 
d="M153 710h119l-87 -710h-2c-55 -11 -93 -51 -93 -87c0 -19 11 -30 28 -30c18 0 31 3 40 8l2 -68c-19 -9 -49 -11 -69 -11c-61 0 -92 27 -92 75c0 43 29 86 67 113z" />
    <glyph glyph-name="Itilde" unicode="&#x128;" horiz-adv-x="311" 
d="M50 820c27 64 67 107 118 107c39 0 55 -18 73 -30c16 -11 31 -23 47 -23c24 0 46 21 60 53l68 -26c-27 -73 -69 -116 -116 -116c-36 0 -59 21 -76 32c-16 12 -31 22 -46 22c-25 0 -46 -22 -60 -54zM185 0h-119l87 710h119z" />
    <glyph glyph-name="J" unicode="J" horiz-adv-x="485" 
d="M95 166c19 -32 45 -62 83 -62c53 0 96 42 111 159l55 447h119l-56 -453c-21 -170 -88 -265 -229 -265c-64 0 -128 32 -165 92z" />
    <glyph glyph-name="Jcircumflex" unicode="&#x134;" horiz-adv-x="485" 
d="M421 861l-55 -76h-110l118 147h104l87 -147h-106l-36 76h-2zM289 263l55 447h119l-56 -453c-21 -170 -88 -265 -229 -265c-64 0 -128 32 -165 92l82 82c19 -32 45 -62 83 -62c53 0 96 42 111 159z" />
    <glyph glyph-name="K" unicode="K" horiz-adv-x="628" 
d="M658 710l-277 -316l196 -394h-143l-141 291h-2l-88 -101l-23 -190h-118l87 710h118l-41 -332h2l278 332h152z" />
    <glyph glyph-name="Kcommaaccent" unicode="&#x136;" horiz-adv-x="628" 
d="M658 710l-277 -316l196 -394h-143l-141 291h-2l-88 -101l-23 -190h-118l87 710h118l-41 -332h2l278 332h152zM240 -77c0 8 -1 14 -2 24h98v-22c0 -81 -48 -135 -139 -144l-16 65c42 16 59 34 59 77z" />
    <glyph glyph-name="L" unicode="L" horiz-adv-x="546" 
d="M486 106l-13 -106h-411l87 710h118l-74 -604h293z" />
    <glyph glyph-name="Lacute" unicode="&#x139;" horiz-adv-x="546" 
d="M394 931l121 1l-129 -145h-111zM486 106l-13 -106h-411l87 710h118l-74 -604h293z" />
    <glyph glyph-name="Lcaron" unicode="&#x13d;" horiz-adv-x="546" 
d="M404 781h113l-82 -198h-83zM486 106l-13 -106h-411l87 710h118l-74 -604h293z" />
    <glyph glyph-name="Lcommaaccent" unicode="&#x13b;" horiz-adv-x="546" 
d="M193 106h293l-13 -106h-411l87 710h118zM210 -77c0 8 -1 14 -2 24h98v-22c0 -81 -48 -135 -139 -144l-16 65c42 16 59 34 59 77z" />
    <glyph glyph-name="Ldot" unicode="&#x13f;" horiz-adv-x="546" 
d="M486 106l-13 -106h-411l87 710h118l-74 -604h293zM436 412c41 0 72 -31 72 -72c0 -42 -32 -74 -75 -74c-41 0 -71 31 -71 71c0 43 32 75 74 75z" />
    <glyph glyph-name="Lslash" unicode="&#x141;" horiz-adv-x="547" 
d="M194 106h293l-13 -106h-411l33 273l-72 -34l13 97l71 34l42 340h118l-34 -281l80 38l-12 -98l-80 -38z" />
    <glyph glyph-name="M" unicode="M" horiz-adv-x="832" 
d="M668 710h129l-87 -710h-118l57 470h-2l-202 -333h-82l-123 343h-2l-58 -480h-118l87 710h126l146 -417h2z" />
    <glyph glyph-name="N" unicode="N" horiz-adv-x="722" 
d="M570 710h118l-88 -710h-129l-228 504h-2l-61 -504h-118l87 710h125l231 -513h1z" />
    <glyph glyph-name="Nacute" unicode="&#x143;" horiz-adv-x="722" 
d="M579 932l-129 -145h-111l119 144zM570 710h118l-88 -710h-129l-228 504h-2l-61 -504h-118l87 710h125l231 -513h1z" />
    <glyph glyph-name="Ncaron" unicode="&#x147;" horiz-adv-x="722" 
d="M488 785h-104l-85 147h106l35 -77h3l55 77h110zM570 710h118l-88 -710h-129l-228 504h-2l-61 -504h-118l87 710h125l231 -513h1z" />
    <glyph glyph-name="Ncommaaccent" unicode="&#x145;" horiz-adv-x="722" 
d="M570 710h118l-88 -710h-129l-228 504h-2l-61 -504h-118l87 710h125l231 -513h1zM282 -77c0 8 -1 14 -2 24h98v-22c0 -81 -48 -135 -139 -144l-16 65c42 16 59 34 59 77z" />
    <glyph glyph-name="Eng" unicode="&#x14a;" horiz-adv-x="722" 
d="M570 710h118l-92 -746c-14 -117 -67 -169 -156 -169c-43 0 -65 9 -89 23l28 86c15 -11 27 -15 44 -15c32 0 48 25 56 90v2l-236 523h-1l-62 -504h-118l87 710h125l231 -514h1z" />
    <glyph glyph-name="uni019D" unicode="&#x19d;" horiz-adv-x="722" 
d="M570 710h118l-88 -710h-129l-228 504h-1l-67 -540c-14 -117 -67 -169 -155 -169c-43 0 -66 9 -90 23l28 86c15 -11 27 -15 44 -15c32 0 48 25 57 90l90 731h125l231 -514h1z" />
    <glyph glyph-name="Ntilde" unicode="&#xd1;" horiz-adv-x="722" 
d="M392 839c-25 0 -46 -22 -60 -54l-68 35c27 64 67 107 118 107c39 0 55 -18 73 -30c16 -11 31 -23 47 -23c24 0 46 21 60 53l68 -26c-27 -73 -69 -116 -116 -116c-36 0 -59 21 -76 32c-16 12 -31 22 -46 22zM570 710h118l-88 -710h-129l-228 504h-2l-61 -504h-118l87 710
h125l231 -513h1z" />
    <glyph glyph-name="O" unicode="O" horiz-adv-x="765" 
d="M439 718c170 0 286 -110 286 -298c0 -228 -140 -428 -373 -428c-171 0 -285 110 -285 299c0 224 148 427 372 427zM361 102c142 0 241 153 241 315c0 129 -68 192 -176 192c-139 0 -236 -157 -236 -315c0 -128 67 -192 171 -192z" />
    <glyph glyph-name="Oacute" unicode="&#xd3;" horiz-adv-x="765" 
d="M515 931l121 1l-129 -145h-111zM439 718c170 0 286 -110 286 -298c0 -228 -140 -428 -373 -428c-171 0 -285 110 -285 299c0 224 148 427 372 427zM361 102c142 0 241 153 241 315c0 129 -68 192 -176 192c-139 0 -236 -157 -236 -315c0 -128 67 -192 171 -192z" />
    <glyph glyph-name="Obreve" unicode="&#x14e;" horiz-adv-x="765" 
d="M476 782c-82 0 -141 53 -133 146h85c-4 -41 9 -69 49 -69c38 0 66 30 74 69h85c-17 -88 -77 -146 -160 -146zM439 718c170 0 286 -110 286 -298c0 -228 -140 -428 -373 -428c-171 0 -285 110 -285 299c0 224 148 427 372 427zM361 102c142 0 241 153 241 315
c0 129 -68 192 -176 192c-139 0 -236 -157 -236 -315c0 -128 67 -192 171 -192z" />
    <glyph glyph-name="Ocircumflex" unicode="&#xd4;" horiz-adv-x="765" 
d="M481 861l-55 -76h-110l118 147h104l87 -147h-106l-36 76h-2zM439 718c170 0 286 -110 286 -298c0 -228 -140 -428 -373 -428c-171 0 -285 110 -285 299c0 224 148 427 372 427zM361 102c142 0 241 153 241 315c0 129 -68 192 -176 192c-139 0 -236 -157 -236 -315
c0 -128 67 -192 171 -192z" />
    <glyph glyph-name="uni1ED0" unicode="&#x1ed0;" horiz-adv-x="765" 
d="M850 954l-154 -145h-81l115 144zM477 846l-55 -76h-110l118 147h104l87 -147h-106l-36 76h-2zM439 718c170 0 286 -110 286 -298c0 -228 -140 -428 -373 -428c-171 0 -285 110 -285 299c0 224 148 427 372 427zM361 102c142 0 241 153 241 315c0 129 -68 192 -176 192
c-139 0 -236 -157 -236 -315c0 -128 67 -192 171 -192z" />
    <glyph glyph-name="uni1ED8" unicode="&#x1ed8;" horiz-adv-x="765" 
d="M481 861l-55 -76h-110l118 147h104l87 -147h-106l-36 76h-2zM439 718c170 0 286 -110 286 -298c0 -228 -140 -428 -373 -428c-171 0 -285 110 -285 299c0 224 148 427 372 427zM361 102c142 0 241 153 241 315c0 129 -68 192 -176 192c-139 0 -236 -157 -236 -315
c0 -128 67 -192 171 -192zM332 -99c41 0 71 -31 71 -71c0 -43 -32 -74 -74 -74c-41 0 -72 30 -72 71c0 42 32 74 75 74z" />
    <glyph glyph-name="uni1ED2" unicode="&#x1ed2;" horiz-adv-x="765" 
d="M745 808h-81l-106 145h120zM477 846l-55 -76h-110l118 147h104l87 -147h-106l-36 76h-2zM439 718c170 0 286 -110 286 -298c0 -228 -140 -428 -373 -428c-171 0 -285 110 -285 299c0 224 148 427 372 427zM361 102c142 0 241 153 241 315c0 129 -68 192 -176 192
c-139 0 -236 -157 -236 -315c0 -128 67 -192 171 -192z" />
    <glyph glyph-name="uni1ED4" unicode="&#x1ed4;" horiz-adv-x="765" 
d="M696 962c55 0 84 -31 84 -72c0 -44 -31 -74 -88 -86l-13 -26l-39 2c-9 10 -16 19 -15 33c3 30 85 40 86 76c0 9 -8 14 -21 14c-27 0 -53 -13 -71 -32l-38 45c27 27 74 46 115 46zM479 846l-55 -76h-110l118 147h104l87 -147h-106l-36 76h-2zM439 718
c170 0 286 -110 286 -298c0 -228 -140 -428 -373 -428c-171 0 -285 110 -285 299c0 224 148 427 372 427zM361 102c142 0 241 153 241 315c0 129 -68 192 -176 192c-139 0 -236 -157 -236 -315c0 -128 67 -192 171 -192z" />
    <glyph glyph-name="uni1ED6" unicode="&#x1ed6;" horiz-adv-x="765" 
d="M439 912c-14 0 -31 -16 -44 -37l-51 24c21 44 52 73 85 73c32 0 51 -15 66 -26c13 -5 24 -10 35 -10c21 0 40 15 53 37l50 -19c-21 -50 -54 -79 -91 -79c-26 0 -45 12 -60 23c-16 7 -29 14 -43 14zM473 805l-64 -68h-96l118 122h92l92 -122h-93l-46 68h-3zM439 718
c170 0 286 -110 286 -298c0 -228 -140 -428 -373 -428c-171 0 -285 110 -285 299c0 224 148 427 372 427zM361 102c142 0 241 153 241 315c0 129 -68 192 -176 192c-139 0 -236 -157 -236 -315c0 -128 67 -192 171 -192z" />
    <glyph glyph-name="Odieresis" unicode="&#xd6;" horiz-adv-x="765" 
d="M389 938c40 0 71 -30 71 -71c0 -42 -32 -74 -74 -74c-41 0 -72 31 -72 71c0 43 32 74 75 74zM579 938c40 0 71 -30 71 -71c0 -42 -32 -74 -74 -74s-72 31 -72 71c0 43 32 74 75 74zM439 718c170 0 286 -110 286 -298c0 -228 -140 -428 -373 -428
c-171 0 -285 110 -285 299c0 224 148 427 372 427zM361 102c142 0 241 153 241 315c0 129 -68 192 -176 192c-139 0 -236 -157 -236 -315c0 -128 67 -192 171 -192z" />
    <glyph glyph-name="uni1ECC" unicode="&#x1ecc;" horiz-adv-x="765" 
d="M439 718c170 0 286 -110 286 -298c0 -228 -140 -428 -373 -428c-171 0 -285 110 -285 299c0 224 148 427 372 427zM361 102c142 0 241 153 241 315c0 129 -68 192 -176 192c-139 0 -236 -157 -236 -315c0 -128 67 -192 171 -192zM329 -244c-41 0 -72 30 -72 71
c0 42 32 74 75 74c41 0 71 -31 71 -71c0 -43 -32 -74 -74 -74z" />
    <glyph glyph-name="Ograve" unicode="&#xd2;" horiz-adv-x="765" 
d="M442 931l83 -144h-111l-94 145zM439 718c170 0 286 -110 286 -298c0 -228 -140 -428 -373 -428c-171 0 -285 110 -285 299c0 224 148 427 372 427zM361 102c142 0 241 153 241 315c0 129 -68 192 -176 192c-139 0 -236 -157 -236 -315c0 -128 67 -192 171 -192z" />
    <glyph glyph-name="uni1ECE" unicode="&#x1ece;" horiz-adv-x="765" 
d="M421 856l-38 46c28 27 74 46 115 46c56 0 85 -31 85 -73c-1 -43 -31 -73 -89 -85l-13 -26l-39 2c-9 9 -16 19 -15 33c4 30 86 39 86 76c0 9 -8 14 -21 14c-27 0 -53 -14 -71 -33zM439 718c170 0 286 -110 286 -298c0 -228 -140 -428 -373 -428c-171 0 -285 110 -285 299
c0 224 148 427 372 427zM361 102c142 0 241 153 241 315c0 129 -68 192 -176 192c-139 0 -236 -157 -236 -315c0 -128 67 -192 171 -192z" />
    <glyph glyph-name="Ohorn" unicode="&#x1a0;" horiz-adv-x="810" 
d="M737 774h104l-12 -91c-13 -98 -54 -153 -115 -170c7 -28 11 -59 11 -93c0 -228 -140 -428 -373 -428c-171 0 -285 110 -285 299c0 224 148 427 372 427c113 0 202 -49 249 -137c27 16 33 63 40 120zM361 102c142 0 241 153 241 315c0 129 -68 192 -176 192
c-139 0 -236 -157 -236 -315c0 -128 67 -192 171 -192z" />
    <glyph glyph-name="uni1EDA" unicode="&#x1eda;" horiz-adv-x="810" 
d="M636 932l-129 -145h-111l119 144zM737 774h104l-12 -91c-13 -98 -54 -153 -115 -170c7 -28 11 -59 11 -93c0 -228 -140 -428 -373 -428c-171 0 -285 110 -285 299c0 224 148 427 372 427c113 0 202 -49 249 -137c27 16 33 63 40 120zM361 102c142 0 241 153 241 315
c0 129 -68 192 -176 192c-139 0 -236 -157 -236 -315c0 -128 67 -192 171 -192z" />
    <glyph glyph-name="uni1EE2" unicode="&#x1ee2;" horiz-adv-x="810" 
d="M737 774h104l-12 -91c-13 -98 -54 -153 -115 -170c7 -28 11 -59 11 -93c0 -228 -140 -428 -373 -428c-171 0 -285 110 -285 299c0 224 148 427 372 427c113 0 202 -49 249 -137c27 16 33 63 40 120zM361 102c142 0 241 153 241 315c0 129 -68 192 -176 192
c-139 0 -236 -157 -236 -315c0 -128 67 -192 171 -192zM332 -99c41 0 71 -31 71 -71c0 -43 -32 -74 -74 -74c-41 0 -72 30 -72 71c0 42 32 74 75 74z" />
    <glyph glyph-name="uni1EDC" unicode="&#x1edc;" horiz-adv-x="810" 
d="M525 787h-111l-94 145l122 -1zM737 774h104l-12 -91c-13 -98 -54 -153 -115 -170c7 -28 11 -59 11 -93c0 -228 -140 -428 -373 -428c-171 0 -285 110 -285 299c0 224 148 427 372 427c113 0 202 -49 249 -137c27 16 33 63 40 120zM361 102c142 0 241 153 241 315
c0 129 -68 192 -176 192c-139 0 -236 -157 -236 -315c0 -128 67 -192 171 -192z" />
    <glyph glyph-name="uni1EDE" unicode="&#x1ede;" horiz-adv-x="810" 
d="M492 889c-27 0 -53 -14 -71 -33l-38 46c28 27 74 46 115 46c56 0 85 -31 85 -73c-1 -43 -31 -73 -89 -85l-13 -26l-39 2c-9 9 -16 19 -15 33c4 30 86 39 86 76c0 9 -8 14 -21 14zM737 774h104l-12 -91c-13 -98 -54 -153 -115 -170c7 -28 11 -59 11 -93
c0 -228 -140 -428 -373 -428c-171 0 -285 110 -285 299c0 224 148 427 372 427c113 0 202 -49 249 -137c27 16 33 63 40 120zM361 102c142 0 241 153 241 315c0 129 -68 192 -176 192c-139 0 -236 -157 -236 -315c0 -128 67 -192 171 -192z" />
    <glyph glyph-name="uni1EE0" unicode="&#x1ee0;" horiz-adv-x="810" 
d="M429 839c-25 0 -46 -22 -60 -54l-68 35c27 64 67 107 118 107c39 0 55 -18 73 -30c16 -11 31 -23 47 -23c24 0 46 21 60 53l68 -26c-27 -73 -69 -116 -116 -116c-36 0 -59 21 -76 32c-16 12 -31 22 -46 22zM737 774h104l-12 -91c-13 -98 -54 -153 -115 -170
c7 -28 11 -59 11 -93c0 -228 -140 -428 -373 -428c-171 0 -285 110 -285 299c0 224 148 427 372 427c113 0 202 -49 249 -137c27 16 33 63 40 120zM361 102c142 0 241 153 241 315c0 129 -68 192 -176 192c-139 0 -236 -157 -236 -315c0 -128 67 -192 171 -192z" />
    <glyph glyph-name="Ohungarumlaut" unicode="&#x150;" horiz-adv-x="765" 
d="M435 931l116 1l-129 -145h-106zM618 931l116 1l-129 -145h-105zM439 718c170 0 286 -110 286 -298c0 -228 -140 -428 -373 -428c-171 0 -285 110 -285 299c0 224 148 427 372 427zM361 102c142 0 241 153 241 315c0 129 -68 192 -176 192c-139 0 -236 -157 -236 -315
c0 -128 67 -192 171 -192z" />
    <glyph glyph-name="Omacron" unicode="&#x14c;" horiz-adv-x="765" 
d="M350 908h274l-11 -92h-274zM439 718c170 0 286 -110 286 -298c0 -228 -140 -428 -373 -428c-171 0 -285 110 -285 299c0 224 148 427 372 427zM361 102c142 0 241 153 241 315c0 129 -68 192 -176 192c-139 0 -236 -157 -236 -315c0 -128 67 -192 171 -192z" />
    <glyph glyph-name="uni01EA" unicode="&#x1ea;" horiz-adv-x="765" 
d="M418 -2c-50 -14 -83 -51 -83 -85c0 -19 11 -30 28 -30c18 0 31 3 40 8l2 -68c-19 -9 -49 -11 -69 -11c-61 0 -92 27 -92 75c0 39 24 78 57 106l1 2c-143 20 -235 126 -235 296c0 224 148 427 372 427c170 0 286 -110 286 -298c0 -206 -114 -388 -307 -422zM190 294
c0 -128 67 -192 171 -192c142 0 241 153 241 315c0 129 -68 192 -176 192c-139 0 -236 -157 -236 -315z" />
    <glyph glyph-name="Oslash" unicode="&#xd8;" horiz-adv-x="767" 
d="M754 682l-76 -80c32 -48 49 -109 49 -182c0 -228 -140 -428 -373 -428c-77 0 -143 23 -192 65l-81 -86l-58 60l86 91c-26 45 -40 102 -40 169c0 224 148 427 372 427c71 0 133 -19 181 -56l74 78zM192 294c0 -28 3 -53 9 -75l339 357c-29 22 -67 33 -112 33
c-139 0 -236 -157 -236 -315zM604 417c0 35 -5 66 -15 91l-344 -364c29 -28 69 -42 118 -42c142 0 241 153 241 315z" />
    <glyph glyph-name="Oslashacute" unicode="&#x1fe;" horiz-adv-x="767" 
d="M640 932l-129 -145h-111l119 144zM754 682l-76 -80c32 -48 49 -109 49 -182c0 -228 -140 -428 -373 -428c-77 0 -143 23 -192 65l-81 -86l-58 60l86 91c-26 45 -40 102 -40 169c0 224 148 427 372 427c71 0 133 -19 181 -56l74 78zM192 294c0 -28 3 -53 9 -75l339 357
c-29 22 -67 33 -112 33c-139 0 -236 -157 -236 -315zM604 417c0 35 -5 66 -15 91l-344 -364c29 -28 69 -42 118 -42c142 0 241 153 241 315z" />
    <glyph glyph-name="Otilde" unicode="&#xd5;" horiz-adv-x="765" 
d="M301 820c27 64 67 107 118 107c39 0 55 -18 73 -30c16 -11 31 -23 47 -23c24 0 46 21 60 53l68 -26c-27 -73 -69 -116 -116 -116c-36 0 -59 21 -76 32c-16 12 -31 22 -46 22c-25 0 -46 -22 -60 -54zM439 718c170 0 286 -110 286 -298c0 -228 -140 -428 -373 -428
c-171 0 -285 110 -285 299c0 224 148 427 372 427zM361 102c142 0 241 153 241 315c0 129 -68 192 -176 192c-139 0 -236 -157 -236 -315c0 -128 67 -192 171 -192z" />
    <glyph glyph-name="OE" unicode="&#x152;" horiz-adv-x="892" 
d="M862 604h-288l-25 -199h232l-13 -106h-231l-24 -193h306l-13 -106h-424h-30c-171 0 -285 109 -285 291c0 227 148 419 377 419h62h369zM362 110h34l60 491h-26c-143 1 -240 -146 -240 -307c0 -121 67 -184 172 -184z" />
    <glyph glyph-name="P" unicode="P" horiz-adv-x="596" 
d="M388 710c138 0 194 -69 194 -191c0 -164 -97 -264 -281 -264h-90l-31 -255h-118l87 710h239zM317 361c87 0 142 51 142 158c0 52 -39 85 -98 85h-107l-30 -243h93z" />
    <glyph glyph-name="Thorn" unicode="&#xde;" horiz-adv-x="614" 
d="M195 125l-15 -125h-118l87 710h118l-16 -130h135c138 0 198 -69 198 -191c0 -160 -97 -264 -281 -264h-108zM320 231c86 0 141 55 141 158c0 52 -38 85 -98 85h-125l-30 -243h112z" />
    <glyph glyph-name="Q" unicode="Q" horiz-adv-x="783" 
d="M725 420c0 -107 -31 -208 -88 -285l66 -71l-76 -84l-69 76c-56 -40 -126 -64 -206 -64c-171 0 -285 110 -285 299c0 224 148 426 372 426c170 0 286 -109 286 -297zM361 102c45 0 85 15 119 41l-58 65l74 80l57 -61c31 54 49 121 49 190c0 129 -68 191 -176 191
c-139 0 -236 -156 -236 -314c0 -128 67 -192 171 -192z" />
    <glyph glyph-name="R" unicode="R" horiz-adv-x="626" 
d="M424 273v-1l128 -272h-136l-113 255h-92l-31 -255h-118l87 710h244c138 0 194 -69 194 -191c0 -121 -56 -210 -163 -246zM254 604l-30 -243h98c86 0 142 56 142 158c0 52 -39 85 -98 85h-112z" />
    <glyph glyph-name="Racute" unicode="&#x154;" horiz-adv-x="626" 
d="M525 932l-129 -145h-111l119 144zM424 273v-1l128 -272h-136l-113 255h-92l-31 -255h-118l87 710h244c138 0 194 -69 194 -191c0 -121 -56 -210 -163 -246zM254 604l-30 -243h98c86 0 142 56 142 158c0 52 -39 85 -98 85h-112z" />
    <glyph glyph-name="Rcaron" unicode="&#x158;" horiz-adv-x="626" 
d="M434 785h-104l-85 147h106l35 -77h3l55 77h110zM424 273v-1l128 -272h-136l-113 255h-92l-31 -255h-118l87 710h244c138 0 194 -69 194 -191c0 -121 -56 -210 -163 -246zM254 604l-30 -243h98c86 0 142 56 142 158c0 52 -39 85 -98 85h-112z" />
    <glyph glyph-name="Rcommaaccent" unicode="&#x156;" horiz-adv-x="626" 
d="M424 273v-1l128 -272h-136l-113 255h-92l-31 -255h-118l87 710h244c138 0 194 -69 194 -191c0 -121 -56 -210 -163 -246zM254 604l-30 -243h98c86 0 142 56 142 158c0 52 -39 85 -98 85h-112zM238 -77c0 8 -1 14 -2 24h98v-22c0 -81 -48 -135 -139 -144l-16 65
c42 16 59 34 59 77z" />
    <glyph glyph-name="S" unicode="S" horiz-adv-x="564" 
d="M315 422c95 -56 194 -90 194 -205c0 -150 -110 -225 -242 -225c-104 0 -194 48 -239 120l87 80c29 -59 87 -91 144 -91c74 0 126 45 126 100c-1 51 -49 67 -122 110c-82 48 -176 93 -176 201c0 127 104 206 232 206c81 0 159 -38 208 -103l-86 -75c-39 58 -92 71 -130 71
c-62 0 -102 -39 -101 -85c2 -44 38 -64 105 -104z" />
    <glyph glyph-name="Sacute" unicode="&#x15a;" horiz-adv-x="564" 
d="M403 931l121 1l-129 -145h-111zM315 422c95 -56 194 -90 194 -205c0 -150 -110 -225 -242 -225c-104 0 -194 48 -239 120l87 80c29 -59 87 -91 144 -91c74 0 126 45 126 100c-1 51 -49 67 -122 110c-82 48 -176 93 -176 201c0 127 104 206 232 206c81 0 159 -38 208 -103
l-86 -75c-39 58 -92 71 -130 71c-62 0 -102 -39 -101 -85c2 -44 38 -64 105 -104z" />
    <glyph glyph-name="Scaron" unicode="&#x160;" horiz-adv-x="564" 
d="M392 785h-104l-85 147h106l35 -77h3l55 77h110zM315 422c95 -56 194 -90 194 -205c0 -150 -110 -225 -242 -225c-104 0 -194 48 -239 120l87 80c29 -59 87 -91 144 -91c74 0 126 45 126 100c-1 51 -49 67 -122 110c-82 48 -176 93 -176 201c0 127 104 206 232 206
c81 0 159 -38 208 -103l-86 -75c-39 58 -92 71 -130 71c-62 0 -102 -39 -101 -85c2 -44 38 -64 105 -104z" />
    <glyph glyph-name="Scedilla" unicode="&#x15e;" horiz-adv-x="564" 
d="M315 422c95 -56 194 -90 194 -205c0 -150 -110 -225 -242 -225h-1l-15 -23l1 -1c48 -2 75 -23 75 -66c0 -49 -46 -92 -115 -92c-19 0 -44 3 -57 6l3 54c11 -5 28 -6 43 -6c32 0 52 13 52 37c0 19 -22 27 -69 27l2 36l19 34c-77 15 -141 57 -177 114l87 80
c29 -59 87 -91 144 -91c74 0 126 45 126 100c-1 51 -49 67 -122 110c-82 48 -176 93 -176 201c0 127 104 206 232 206c81 0 159 -38 208 -103l-86 -75c-39 58 -92 71 -130 71c-62 0 -102 -39 -101 -85c2 -44 38 -64 105 -104z" />
    <glyph glyph-name="Scircumflex" unicode="&#x15c;" horiz-adv-x="564" 
d="M348 861l-55 -76h-110l118 147h104l87 -147h-106l-36 76h-2zM315 422c95 -56 194 -90 194 -205c0 -150 -110 -225 -242 -225c-104 0 -194 48 -239 120l87 80c29 -59 87 -91 144 -91c74 0 126 45 126 100c-1 51 -49 67 -122 110c-82 48 -176 93 -176 201
c0 127 104 206 232 206c81 0 159 -38 208 -103l-86 -75c-39 58 -92 71 -130 71c-62 0 -102 -39 -101 -85c2 -44 38 -64 105 -104z" />
    <glyph glyph-name="Scommaaccent" unicode="&#x218;" horiz-adv-x="564" 
d="M315 422c95 -56 194 -90 194 -205c0 -150 -110 -225 -242 -225c-104 0 -194 48 -239 120l87 80c29 -59 87 -91 144 -91c74 0 126 45 126 100c-1 51 -49 67 -122 110c-82 48 -176 93 -176 201c0 127 104 206 232 206c81 0 159 -38 208 -103l-86 -75c-39 58 -92 71 -130 71
c-62 0 -102 -39 -101 -85c2 -44 38 -64 105 -104zM205 -77c0 8 -1 14 -2 24h98v-22c0 -81 -48 -135 -139 -144l-16 65c42 16 59 34 59 77z" />
    <glyph glyph-name="uni1E9E" unicode="&#x1e9e;" horiz-adv-x="731" 
d="M525 405c90 -52 180 -88 180 -193c0 -145 -110 -220 -224 -220c-87 0 -168 38 -215 92l64 103c29 -60 89 -88 144 -88c60 0 107 46 107 102c1 54 -47 69 -121 112c-19 12 -40 23 -84 45l150 238v2c-55 7 -106 11 -136 11c-99 0 -155 -34 -167 -136l-59 -473h-117l59 479
c21 170 129 239 285 239c65 0 196 -20 305 -47l-171 -265v-1z" />
    <glyph glyph-name="uni018F" unicode="&#x18f;" horiz-adv-x="642" 
d="M343 718c160 0 274 -121 274 -295c0 -240 -143 -431 -381 -431c-111 0 -192 67 -192 161c0 193 220 267 411 262c9 0 23 -1 38 -3h1v11c0 108 -56 186 -161 186c-43 0 -87 -13 -139 -55l-73 84c71 51 142 80 222 80zM250 105c109 0 195 81 229 201l-2 2c-8 1 -16 2 -22 2
c-195 4 -288 -69 -288 -142c0 -29 23 -63 83 -63z" />
    <glyph glyph-name="T" unicode="T" horiz-adv-x="546" 
d="M557 604h-181l-74 -604h-118l74 604h-180l12 106h480z" />
    <glyph glyph-name="Tbar" unicode="&#x166;" horiz-adv-x="546" 
d="M557 604h-181l-25 -201h110l-13 -101h-109l-37 -302h-118l37 302h-98l13 101h97l25 201h-180l12 106h480z" />
    <glyph glyph-name="Tcaron" unicode="&#x164;" horiz-adv-x="546" 
d="M392 785h-104l-85 147h106l35 -77h3l55 77h110zM90 710h480l-13 -106h-181l-74 -604h-118l74 604h-180z" />
    <glyph glyph-name="uni0162" unicode="&#x162;" horiz-adv-x="546" 
d="M90 710h480l-13 -106h-181l-74 -604h-47l-20 -31l1 -1c48 -2 75 -23 75 -66c0 -49 -46 -92 -115 -92c-19 0 -44 3 -57 6l3 54c11 -5 28 -6 43 -6c32 0 52 13 52 37c0 19 -22 27 -69 27l2 36l21 36h-7l74 604h-180z" />
    <glyph glyph-name="uni021A" unicode="&#x21a;" horiz-adv-x="546" 
d="M90 710h480l-13 -106h-181l-74 -604h-118l74 604h-180zM189 -77c0 8 -1 14 -2 24h98v-22c0 -81 -48 -135 -139 -144l-16 65c42 16 59 34 59 77z" />
    <glyph glyph-name="U" unicode="U" horiz-adv-x="680" 
d="M605 294c-25 -208 -121 -302 -293 -302c-158 0 -228 100 -228 251c0 19 1 39 4 60l50 407h118l-50 -407c-3 -19 -4 -38 -4 -55c0 -86 32 -144 115 -144c90 0 153 51 170 190l51 416h118z" />
    <glyph glyph-name="Uacute" unicode="&#xda;" horiz-adv-x="680" 
d="M466 931l121 1l-129 -145h-111zM605 294c-25 -208 -121 -302 -293 -302c-158 0 -228 100 -228 251c0 19 1 39 4 60l50 407h118l-50 -407c-3 -19 -4 -38 -4 -55c0 -86 32 -144 115 -144c90 0 153 51 170 190l51 416h118z" />
    <glyph glyph-name="Ubreve" unicode="&#x16c;" horiz-adv-x="680" 
d="M416 782c-82 0 -141 53 -133 146h85c-4 -41 9 -69 49 -69c38 0 66 30 74 69h85c-17 -88 -77 -146 -160 -146zM605 294c-25 -208 -121 -302 -293 -302c-158 0 -228 100 -228 251c0 19 1 39 4 60l50 407h118l-50 -407c-3 -19 -4 -38 -4 -55c0 -86 32 -144 115 -144
c90 0 153 51 170 190l51 416h118z" />
    <glyph glyph-name="Ucircumflex" unicode="&#xdb;" horiz-adv-x="680" 
d="M421 861l-55 -76h-110l118 147h104l87 -147h-106l-36 76h-2zM538 710h118l-51 -416c-25 -208 -121 -302 -293 -302c-158 0 -228 100 -228 251c0 19 1 39 4 60l50 407h118l-50 -407c-3 -19 -4 -38 -4 -55c0 -86 32 -144 115 -144c90 0 153 51 170 190z" />
    <glyph glyph-name="Udieresis" unicode="&#xdc;" horiz-adv-x="680" 
d="M329 938c40 0 71 -30 71 -71c0 -42 -32 -74 -74 -74c-41 0 -72 31 -72 71c0 43 32 74 75 74zM519 938c40 0 71 -30 71 -71c0 -42 -32 -74 -74 -74s-72 31 -72 71c0 43 32 74 75 74zM605 294c-25 -208 -121 -302 -293 -302c-158 0 -228 100 -228 251c0 19 1 39 4 60
l50 407h118l-50 -407c-3 -19 -4 -38 -4 -55c0 -86 32 -144 115 -144c90 0 153 51 170 190l51 416h118z" />
    <glyph glyph-name="uni1EE4" unicode="&#x1ee4;" horiz-adv-x="680" 
d="M605 294c-25 -208 -121 -302 -293 -302c-158 0 -228 100 -228 251c0 19 1 39 4 60l50 407h118l-50 -407c-3 -19 -4 -38 -4 -55c0 -86 32 -144 115 -144c90 0 153 51 170 190l51 416h118zM289 -244c-41 0 -72 30 -72 71c0 42 32 74 75 74c41 0 71 -31 71 -71
c0 -43 -32 -74 -74 -74z" />
    <glyph glyph-name="Ugrave" unicode="&#xd9;" horiz-adv-x="680" 
d="M362 931l83 -144h-111l-94 145zM605 294c-25 -208 -121 -302 -293 -302c-158 0 -228 100 -228 251c0 19 1 39 4 60l50 407h118l-50 -407c-3 -19 -4 -38 -4 -55c0 -86 32 -144 115 -144c90 0 153 51 170 190l51 416h118z" />
    <glyph glyph-name="uni1EE6" unicode="&#x1ee6;" horiz-adv-x="680" 
d="M361 856l-38 46c28 27 74 46 115 46c56 0 85 -31 85 -73c-1 -43 -31 -73 -89 -85l-13 -26l-39 2c-9 9 -16 19 -15 33c4 30 86 39 86 76c0 9 -8 14 -21 14c-27 0 -53 -14 -71 -33zM605 294c-25 -208 -121 -302 -293 -302c-158 0 -228 100 -228 251c0 19 1 39 4 60l50 407
h118l-50 -407c-3 -19 -4 -38 -4 -55c0 -86 32 -144 115 -144c90 0 153 51 170 190l51 416h118z" />
    <glyph glyph-name="Uhorn" unicode="&#x1af;" horiz-adv-x="766" 
d="M723 774h104l-12 -91c-16 -120 -74 -175 -157 -175c-8 0 -16 1 -26 3l-27 -217c-25 -208 -121 -302 -293 -302c-158 0 -228 100 -228 251c0 19 1 39 4 60l50 407h118l-50 -407c-3 -19 -4 -38 -4 -55c0 -86 32 -144 115 -144c90 0 153 51 170 190l51 416h118l-16 -132
c5 -2 10 -2 14 -2c44 0 51 56 60 125z" />
    <glyph glyph-name="uni1EE8" unicode="&#x1ee8;" horiz-adv-x="766" 
d="M587 932l-129 -145h-111l119 144zM723 774h104l-12 -91c-16 -120 -74 -175 -157 -175c-8 0 -16 1 -26 3l-27 -217c-25 -208 -121 -302 -293 -302c-158 0 -228 100 -228 251c0 19 1 39 4 60l50 407h118l-50 -407c-3 -19 -4 -38 -4 -55c0 -86 32 -144 115 -144
c90 0 153 51 170 190l51 416h118l-16 -132c5 -2 10 -2 14 -2c44 0 51 56 60 125z" />
    <glyph glyph-name="uni1EF0" unicode="&#x1ef0;" horiz-adv-x="766" 
d="M723 774h104l-12 -91c-16 -120 -74 -175 -157 -175c-8 0 -16 1 -26 3l-27 -217c-25 -208 -121 -302 -293 -302c-158 0 -228 100 -228 251c0 19 1 39 4 60l50 407h118l-50 -407c-3 -19 -4 -38 -4 -55c0 -86 32 -144 115 -144c90 0 153 51 170 190l51 416h118l-16 -132
c5 -2 10 -2 14 -2c44 0 51 56 60 125zM292 -99c41 0 71 -31 71 -71c0 -43 -32 -74 -74 -74c-41 0 -72 30 -72 71c0 42 32 74 75 74z" />
    <glyph glyph-name="uni1EEA" unicode="&#x1eea;" horiz-adv-x="766" 
d="M445 787h-111l-94 145l122 -1zM723 774h104l-12 -91c-16 -120 -74 -175 -157 -175c-8 0 -16 1 -26 3l-27 -217c-25 -208 -121 -302 -293 -302c-158 0 -228 100 -228 251c0 19 1 39 4 60l50 407h118l-50 -407c-3 -19 -4 -38 -4 -55c0 -86 32 -144 115 -144
c90 0 153 51 170 190l51 416h118l-16 -132c5 -2 10 -2 14 -2c44 0 51 56 60 125z" />
    <glyph glyph-name="uni1EEC" unicode="&#x1eec;" horiz-adv-x="766" 
d="M432 889c-27 0 -53 -14 -71 -33l-38 46c28 27 74 46 115 46c56 0 85 -31 85 -73c-1 -43 -31 -73 -89 -85l-13 -26l-39 2c-9 9 -16 19 -15 33c4 30 86 39 86 76c0 9 -8 14 -21 14zM723 774h104l-12 -91c-16 -120 -74 -175 -157 -175c-8 0 -16 1 -26 3l-27 -217
c-25 -208 -121 -302 -293 -302c-158 0 -228 100 -228 251c0 19 1 39 4 60l50 407h118l-50 -407c-3 -19 -4 -38 -4 -55c0 -86 32 -144 115 -144c90 0 153 51 170 190l51 416h118l-16 -132c5 -2 10 -2 14 -2c44 0 51 56 60 125z" />
    <glyph glyph-name="uni1EEE" unicode="&#x1eee;" horiz-adv-x="766" 
d="M369 839c-25 0 -46 -22 -60 -54l-68 35c27 64 67 107 118 107c39 0 55 -18 73 -30c16 -11 31 -23 47 -23c24 0 46 21 60 53l68 -26c-27 -73 -69 -116 -116 -116c-36 0 -59 21 -76 32c-16 12 -31 22 -46 22zM723 774h104l-12 -91c-16 -120 -74 -175 -157 -175
c-8 0 -16 1 -26 3l-27 -217c-25 -208 -121 -302 -293 -302c-158 0 -228 100 -228 251c0 19 1 39 4 60l50 407h118l-50 -407c-3 -19 -4 -38 -4 -55c0 -86 32 -144 115 -144c90 0 153 51 170 190l51 416h118l-16 -132c5 -2 10 -2 14 -2c44 0 51 56 60 125z" />
    <glyph glyph-name="Uhungarumlaut" unicode="&#x170;" horiz-adv-x="680" 
d="M360 931l116 1l-129 -145h-106zM543 931l116 1l-129 -145h-105zM605 294c-25 -208 -121 -302 -293 -302c-158 0 -228 100 -228 251c0 19 1 39 4 60l50 407h118l-50 -407c-3 -19 -4 -38 -4 -55c0 -86 32 -144 115 -144c90 0 153 51 170 190l51 416h118z" />
    <glyph glyph-name="Umacron" unicode="&#x16a;" horiz-adv-x="680" 
d="M290 908h274l-11 -92h-274zM605 294c-25 -208 -121 -302 -293 -302c-158 0 -228 100 -228 251c0 19 1 39 4 60l50 407h118l-50 -407c-3 -19 -4 -38 -4 -55c0 -86 32 -144 115 -144c90 0 153 51 170 190l51 416h118z" />
    <glyph glyph-name="Uogonek" unicode="&#x172;" horiz-adv-x="680" 
d="M538 710h118l-51 -416c-20 -169 -87 -262 -203 -292c-53 -17 -95 -54 -95 -89c0 -19 12 -30 27 -30c16 0 27 2 41 8l1 -68c-19 -9 -48 -11 -68 -11c-62 0 -92 27 -92 75c0 39 24 79 57 106v1c-130 16 -189 111 -189 249c0 19 1 39 4 60l50 407h118l-50 -407
c-3 -19 -4 -38 -4 -55c0 -86 32 -144 115 -144c90 0 153 51 170 190z" />
    <glyph glyph-name="Uring" unicode="&#x16e;" horiz-adv-x="680" 
d="M426 970c59 0 103 -44 103 -102c0 -61 -46 -106 -107 -106c-58 0 -103 44 -103 103c0 60 46 105 107 105zM425 905c-22 0 -39 -18 -39 -39c0 -22 16 -38 38 -38s39 17 39 39c0 21 -17 38 -38 38zM605 294c-25 -208 -121 -302 -293 -302c-158 0 -228 100 -228 251
c0 19 1 39 4 60l50 407h118l-50 -407c-3 -19 -4 -38 -4 -55c0 -86 32 -144 115 -144c90 0 153 51 170 190l51 416h118z" />
    <glyph glyph-name="Utilde" unicode="&#x168;" horiz-adv-x="680" 
d="M241 820c27 64 67 107 118 107c39 0 55 -18 73 -30c16 -11 31 -23 47 -23c24 0 46 21 60 53l68 -26c-27 -73 -69 -116 -116 -116c-36 0 -59 21 -76 32c-16 12 -31 22 -46 22c-25 0 -46 -22 -60 -54zM605 294c-25 -208 -121 -302 -293 -302c-158 0 -228 100 -228 251
c0 19 1 39 4 60l50 407h118l-50 -407c-3 -19 -4 -38 -4 -55c0 -86 32 -144 115 -144c90 0 153 51 170 190l51 416h118z" />
    <glyph glyph-name="V" unicode="V" horiz-adv-x="643" 
d="M541 710h134l-324 -710h-112l-150 710h124l99 -544h2z" />
    <glyph glyph-name="W" unicode="W" horiz-adv-x="949" 
d="M846 710h128l-289 -710h-118l-59 507h-2l-184 -507h-117l-114 710h123l72 -504h3l176 504h134l53 -499h3z" />
    <glyph glyph-name="Wacute" unicode="&#x1e82;" horiz-adv-x="949" 
d="M731 932l-129 -145h-111l119 144zM846 710h128l-289 -710h-118l-59 507h-2l-184 -507h-117l-114 710h123l72 -504h3l176 504h134l53 -499h3z" />
    <glyph glyph-name="Wcircumflex" unicode="&#x174;" horiz-adv-x="949" 
d="M552 861l-55 -76h-110l118 147h104l87 -147h-106l-36 76h-2zM846 710h128l-289 -710h-118l-59 507h-2l-184 -507h-117l-114 710h123l72 -504h3l176 504h134l53 -499h3z" />
    <glyph glyph-name="Wdieresis" unicode="&#x1e84;" horiz-adv-x="949" 
d="M457 793c-41 0 -72 31 -72 71c0 43 32 74 75 74c40 0 71 -30 71 -71c0 -42 -32 -74 -74 -74zM647 793c-42 0 -72 31 -72 71c0 43 32 74 75 74c40 0 71 -30 71 -71c0 -42 -32 -74 -74 -74zM846 710h128l-289 -710h-118l-59 507h-2l-184 -507h-117l-114 710h123l72 -504h3
l176 504h134l53 -499h3z" />
    <glyph glyph-name="Wgrave" unicode="&#x1e80;" horiz-adv-x="949" 
d="M601 787h-111l-94 145l122 -1zM846 710h128l-289 -710h-118l-59 507h-2l-184 -507h-117l-114 710h123l72 -504h3l176 504h134l53 -499h3z" />
    <glyph glyph-name="X" unicode="X" horiz-adv-x="652" 
d="M671 710l-248 -357l165 -353h-141l-118 267h-2l-184 -267h-141l255 359l-159 351h134l116 -267h2l175 267h146z" />
    <glyph glyph-name="Y" unicode="Y" horiz-adv-x="581" 
d="M485 710h140l-267 -396l-40 -314h-118l39 314l-166 396h129l106 -283h3z" />
    <glyph glyph-name="Yacute" unicode="&#xdd;" horiz-adv-x="581" 
d="M537 932l-129 -145h-111l119 144zM485 710h140l-267 -396l-40 -314h-118l39 314l-166 396h129l106 -283h3z" />
    <glyph glyph-name="Ycircumflex" unicode="&#x176;" horiz-adv-x="581" 
d="M362 861l-55 -76h-110l118 147h104l87 -147h-106l-36 76h-2zM485 710h140l-267 -396l-40 -314h-118l39 314l-166 396h129l106 -283h3z" />
    <glyph glyph-name="Ydieresis" unicode="&#x178;" horiz-adv-x="581" 
d="M267 793c-41 0 -72 31 -72 71c0 43 32 74 75 74c40 0 71 -30 71 -71c0 -42 -32 -74 -74 -74zM457 793c-42 0 -72 31 -72 71c0 43 32 74 75 74c40 0 71 -30 71 -71c0 -42 -32 -74 -74 -74zM485 710h140l-267 -396l-40 -314h-118l39 314l-166 396h129l106 -283h3z" />
    <glyph glyph-name="uni1EF4" unicode="&#x1ef4;" horiz-adv-x="581" 
d="M485 710h140l-267 -396l-40 -314h-118l39 314l-166 396h129l106 -283h3zM243 -99c41 0 71 -31 71 -71c0 -43 -32 -74 -74 -74c-41 0 -72 30 -72 71c0 42 32 74 75 74z" />
    <glyph glyph-name="Ygrave" unicode="&#x1ef2;" horiz-adv-x="581" 
d="M403 787h-111l-94 145l122 -1zM485 710h140l-267 -396l-40 -314h-118l39 314l-166 396h129l106 -283h3z" />
    <glyph glyph-name="uni1EF6" unicode="&#x1ef6;" horiz-adv-x="581" 
d="M373 889c-27 0 -53 -14 -71 -33l-38 46c28 27 74 46 115 46c56 0 85 -31 85 -73c-1 -43 -31 -73 -89 -85l-13 -26l-39 2c-9 9 -16 19 -15 33c4 30 86 39 86 76c0 9 -8 14 -21 14zM485 710h140l-267 -396l-40 -314h-118l39 314l-166 396h129l106 -283h3z" />
    <glyph glyph-name="uni0232" unicode="&#x232;" horiz-adv-x="581" 
d="M505 908l-11 -92h-274l11 92h274zM485 710h140l-267 -396l-40 -314h-118l39 314l-166 396h129l106 -283h3z" />
    <glyph glyph-name="uni1EF8" unicode="&#x1ef8;" horiz-adv-x="581" 
d="M310 839c-25 0 -46 -22 -60 -54l-68 35c27 64 67 107 118 107c39 0 55 -18 73 -30c16 -11 31 -23 47 -23c24 0 46 21 60 53l68 -26c-27 -73 -69 -116 -116 -116c-36 0 -59 21 -76 32c-16 12 -31 22 -46 22zM485 710h140l-267 -396l-40 -314h-118l39 314l-166 396h129
l106 -283h3z" />
    <glyph glyph-name="Z" unicode="Z" horiz-adv-x="590" 
d="M573 619l-384 -510l-1 -3h322l-13 -106h-467l11 93l378 509v2h-303l13 106h454z" />
    <glyph glyph-name="Zacute" unicode="&#x179;" horiz-adv-x="590" 
d="M504 932l-129 -145h-111l119 144zM573 619l-384 -510l-1 -3h322l-13 -106h-467l11 93l378 509v2h-303l13 106h454z" />
    <glyph glyph-name="Zcaron" unicode="&#x17d;" horiz-adv-x="590" 
d="M413 785h-104l-85 147h106l35 -77h3l55 77h110zM573 619l-384 -510l-1 -3h322l-13 -106h-467l11 93l378 509v2h-303l13 106h454z" />
    <glyph glyph-name="Zdotaccent" unicode="&#x17b;" horiz-adv-x="590" 
d="M370 793c-41 0 -71 31 -71 71c0 43 32 74 74 74c41 0 72 -30 72 -71c0 -42 -32 -74 -75 -74zM573 619l-384 -510l-1 -3h322l-13 -106h-467l11 93l378 509v2h-303l13 106h454z" />
    <glyph glyph-name="Q.alt" horiz-adv-x="766" 
d="M725 420c0 -152 -62 -291 -172 -367l114 -114l-84 -87l-147 149c-26 -6 -54 -9 -84 -9c-171 0 -285 110 -285 299c0 224 148 426 372 426c170 0 286 -109 286 -297zM190 294c0 -128 67 -192 171 -192c142 0 241 153 241 315c0 129 -68 191 -176 191
c-139 0 -236 -156 -236 -314z" />
    <glyph glyph-name="a" unicode="a" horiz-adv-x="562" 
d="M415 488h109l-60 -488h-109l11 93h-1c-46 -68 -106 -101 -158 -101c-116 0 -168 89 -168 198c0 154 94 306 240 306c50 0 96 -14 129 -47h2zM228 89c68 0 149 93 168 243l2 18c-29 29 -73 46 -111 46c-86 0 -137 -109 -137 -208c0 -60 27 -99 78 -99z" />
    <glyph glyph-name="aacute" unicode="&#xe1;" horiz-adv-x="562" 
d="M497 701l-129 -145h-111l119 144zM415 488h109l-60 -488h-109l11 93h-1c-46 -68 -106 -101 -158 -101c-116 0 -168 89 -168 198c0 154 94 306 240 306c50 0 96 -14 129 -47h2zM228 89c68 0 149 93 168 243l2 18c-29 29 -73 46 -111 46c-86 0 -137 -109 -137 -208
c0 -60 27 -99 78 -99z" />
    <glyph glyph-name="abreve" unicode="&#x103;" horiz-adv-x="562" 
d="M333 551c-82 0 -141 53 -133 146h85c-4 -41 9 -69 49 -69c38 0 66 30 74 69h85c-17 -88 -77 -146 -160 -146zM415 488h109l-60 -488h-109l11 93h-1c-46 -68 -106 -101 -158 -101c-116 0 -168 89 -168 198c0 154 94 306 240 306c50 0 96 -14 129 -47h2zM228 89
c68 0 149 93 168 243l2 18c-29 29 -73 46 -111 46c-86 0 -137 -109 -137 -208c0 -60 27 -99 78 -99z" />
    <glyph glyph-name="uni1EAF" unicode="&#x1eaf;" horiz-adv-x="562" 
d="M517 857l-129 -145h-111l119 144zM332 551c-82 0 -141 53 -133 146h85c-4 -41 9 -69 49 -69c38 0 66 30 74 69h85c-17 -88 -77 -146 -160 -146zM415 488h109l-60 -488h-109l11 93h-1c-46 -68 -106 -101 -158 -101c-116 0 -168 89 -168 198c0 154 94 306 240 306
c50 0 96 -14 129 -47h2zM228 89c68 0 149 93 168 243l2 18c-29 29 -73 46 -111 46c-86 0 -137 -109 -137 -208c0 -60 27 -99 78 -99z" />
    <glyph glyph-name="uni1EB7" unicode="&#x1eb7;" horiz-adv-x="562" 
d="M334 551c-82 0 -141 53 -133 146h85c-4 -41 9 -69 49 -69c38 0 66 30 74 69h85c-17 -88 -77 -146 -160 -146zM415 488h109l-60 -488h-109l11 93h-1c-46 -68 -106 -101 -158 -101c-116 0 -168 89 -168 198c0 154 94 306 240 306c50 0 96 -14 129 -47h2zM228 89
c68 0 149 93 168 243l2 18c-29 29 -73 46 -111 46c-86 0 -137 -109 -137 -208c0 -60 27 -99 78 -99zM232 -99c41 0 71 -31 71 -71c0 -43 -32 -74 -74 -74c-41 0 -72 30 -72 71c0 42 32 74 75 74z" />
    <glyph glyph-name="uni1EB1" unicode="&#x1eb1;" horiz-adv-x="562" 
d="M384 712h-111l-94 145l122 -1zM331 628c38 0 66 30 74 69h85c-17 -88 -77 -146 -160 -146c-82 0 -141 53 -133 146h85c-4 -41 9 -69 49 -69zM415 488h109l-60 -488h-109l11 93h-1c-46 -68 -106 -101 -158 -101c-116 0 -168 89 -168 198c0 154 94 306 240 306
c50 0 96 -14 129 -47h2zM228 89c68 0 149 93 168 243l2 18c-29 29 -73 46 -111 46c-86 0 -137 -109 -137 -208c0 -60 27 -99 78 -99z" />
    <glyph glyph-name="uni1EB3" unicode="&#x1eb3;" horiz-adv-x="562" 
d="M371 819c-27 0 -53 -14 -71 -33l-38 46c28 27 74 46 115 46c56 0 85 -31 85 -73c-1 -43 -31 -73 -89 -85l-13 -26l-39 2c-9 9 -16 19 -15 33c4 30 86 39 86 76c0 9 -8 14 -21 14zM335 551c-82 0 -141 53 -133 146h85c-4 -41 9 -69 49 -69c38 0 66 30 74 69h85
c-17 -88 -77 -146 -160 -146zM415 488h109l-60 -488h-109l11 93h-1c-46 -68 -106 -101 -158 -101c-116 0 -168 89 -168 198c0 154 94 306 240 306c50 0 96 -14 129 -47h2zM228 89c68 0 149 93 168 243l2 18c-29 29 -73 46 -111 46c-86 0 -137 -109 -137 -208
c0 -60 27 -99 78 -99z" />
    <glyph glyph-name="uni1EB5" unicode="&#x1eb5;" horiz-adv-x="562" 
d="M312 769c-23 0 -42 -22 -57 -54l-63 35c25 64 63 107 110 107c37 0 52 -18 69 -30c15 -11 29 -23 43 -23c23 0 43 21 57 53l63 -26c-26 -73 -64 -116 -108 -116c-33 0 -56 21 -71 32c-15 12 -29 22 -43 22zM197 697h85c-4 -41 9 -69 49 -69c38 0 66 30 74 69h85
c-17 -88 -77 -146 -160 -146c-82 0 -141 53 -133 146zM410 449l5 39h109l-60 -488h-109l11 93h-1c-46 -68 -106 -101 -158 -101c-116 0 -168 89 -168 198c0 154 94 306 240 306c50 0 96 -14 129 -47h2zM228 89c68 0 149 93 168 243l2 18c-29 29 -73 46 -111 46
c-86 0 -137 -109 -137 -208c0 -60 27 -99 78 -99z" />
    <glyph glyph-name="acircumflex" unicode="&#xe2;" horiz-adv-x="562" 
d="M338 630l-55 -76h-110l118 147h104l87 -147h-106l-36 76h-2zM415 488h109l-60 -488h-109l11 93h-1c-46 -68 -106 -101 -158 -101c-116 0 -168 89 -168 198c0 154 94 306 240 306c50 0 96 -14 129 -47h2zM228 89c68 0 149 93 168 243l2 18c-29 29 -73 46 -111 46
c-86 0 -137 -109 -137 -208c0 -60 27 -99 78 -99z" />
    <glyph glyph-name="uni1EA5" unicode="&#x1ea5;" horiz-adv-x="562" 
d="M668 789l-154 -145h-81l115 145h120zM337 630l-55 -76h-110l118 147h104l87 -147h-106l-36 76h-2zM410 449l5 39h109l-60 -488h-109l11 93h-1c-46 -68 -106 -101 -158 -101c-116 0 -168 89 -168 198c0 154 94 306 240 306c50 0 96 -14 129 -47h2zM228 89
c68 0 149 93 168 243l2 18c-29 29 -73 46 -111 46c-86 0 -137 -109 -137 -208c0 -60 27 -99 78 -99z" />
    <glyph glyph-name="uni1EAD" unicode="&#x1ead;" horiz-adv-x="562" 
d="M338 630l-55 -76h-110l118 147h104l87 -147h-106l-36 76h-2zM415 488h109l-60 -488h-109l11 93h-1c-46 -68 -106 -101 -158 -101c-116 0 -168 89 -168 198c0 154 94 306 240 306c50 0 96 -14 129 -47h2zM228 89c68 0 149 93 168 243l2 18c-29 29 -73 46 -111 46
c-86 0 -137 -109 -137 -208c0 -60 27 -99 78 -99zM232 -99c41 0 71 -31 71 -71c0 -43 -32 -74 -74 -74c-41 0 -72 30 -72 71c0 42 32 74 75 74z" />
    <glyph glyph-name="uni1EA7" unicode="&#x1ea7;" horiz-adv-x="562" 
d="M544 644h-81l-106 145h120zM336 630l-55 -76h-110l118 147h104l87 -147h-106l-36 76h-2zM410 449l5 39h109l-60 -488h-109l11 93h-1c-46 -68 -106 -101 -158 -101c-116 0 -168 89 -168 198c0 154 94 306 240 306c50 0 96 -14 129 -47h2zM228 89c68 0 149 93 168 243l2 18
c-29 29 -73 46 -111 46c-86 0 -137 -109 -137 -208c0 -60 27 -99 78 -99z" />
    <glyph glyph-name="uni1EA9" unicode="&#x1ea9;" horiz-adv-x="562" 
d="M519 802c56 0 85 -32 85 -73c-1 -44 -32 -73 -89 -86l-13 -25l-39 1c-9 10 -16 19 -15 33c4 30 86 40 86 76c0 9 -8 15 -21 15c-27 0 -52 -14 -71 -33l-38 45c28 28 75 47 115 47zM337 630l-55 -76h-110l118 147h104l87 -147h-106l-36 76h-2zM410 449l5 39h109l-60 -488
h-109l11 93h-1c-46 -68 -106 -101 -158 -101c-116 0 -168 89 -168 198c0 154 94 306 240 306c50 0 96 -14 129 -47h2zM228 89c68 0 149 93 168 243l2 18c-29 29 -73 46 -111 46c-86 0 -137 -109 -137 -208c0 -60 27 -99 78 -99z" />
    <glyph glyph-name="uni1EAB" unicode="&#x1eab;" horiz-adv-x="562" 
d="M313 769c-23 0 -42 -22 -57 -54l-63 35c25 64 63 107 110 107c37 0 52 -18 69 -30c15 -11 29 -23 43 -23c23 0 43 21 57 53l63 -26c-26 -73 -64 -116 -108 -116c-33 0 -56 21 -71 32c-15 12 -29 22 -43 22zM337 630l-55 -76h-110l118 147h104l87 -147h-106l-36 76h-2z
M410 449l5 39h109l-60 -488h-109l11 93h-1c-46 -68 -106 -101 -158 -101c-116 0 -168 89 -168 198c0 154 94 306 240 306c50 0 96 -14 129 -47h2zM228 89c68 0 149 93 168 243l2 18c-29 29 -73 46 -111 46c-86 0 -137 -109 -137 -208c0 -60 27 -99 78 -99z" />
    <glyph glyph-name="adieresis" unicode="&#xe4;" horiz-adv-x="562" 
d="M243 562c-41 0 -72 31 -72 71c0 43 32 74 75 74c40 0 71 -30 71 -71c0 -42 -32 -74 -74 -74zM433 562c-42 0 -72 31 -72 71c0 43 32 74 75 74c40 0 71 -30 71 -71c0 -42 -32 -74 -74 -74zM415 488h109l-60 -488h-109l11 93h-1c-46 -68 -106 -101 -158 -101
c-116 0 -168 89 -168 198c0 154 94 306 240 306c50 0 96 -14 129 -47h2zM228 89c68 0 149 93 168 243l2 18c-29 29 -73 46 -111 46c-86 0 -137 -109 -137 -208c0 -60 27 -99 78 -99z" />
    <glyph glyph-name="uni1EA1" unicode="&#x1ea1;" horiz-adv-x="562" 
d="M415 488h109l-60 -488h-109l11 93h-1c-46 -68 -106 -101 -158 -101c-116 0 -168 89 -168 198c0 154 94 306 240 306c50 0 96 -14 129 -47h2zM228 89c68 0 149 93 168 243l2 18c-29 29 -73 46 -111 46c-86 0 -137 -109 -137 -208c0 -60 27 -99 78 -99zM232 -99
c41 0 71 -31 71 -71c0 -43 -32 -74 -74 -74c-41 0 -72 30 -72 71c0 42 32 74 75 74z" />
    <glyph glyph-name="agrave" unicode="&#xe0;" horiz-adv-x="562" 
d="M399 556h-111l-94 145l122 -1zM415 488h109l-60 -488h-109l11 93h-1c-46 -68 -106 -101 -158 -101c-116 0 -168 89 -168 198c0 154 94 306 240 306c50 0 96 -14 129 -47h2zM228 89c68 0 149 93 168 243l2 18c-29 29 -73 46 -111 46c-86 0 -137 -109 -137 -208
c0 -60 27 -99 78 -99z" />
    <glyph glyph-name="uni1EA3" unicode="&#x1ea3;" horiz-adv-x="562" 
d="M349 658c-27 0 -53 -14 -71 -33l-38 46c28 27 74 46 115 46c56 0 85 -31 85 -73c-1 -43 -31 -73 -89 -85l-13 -26l-39 2c-9 9 -16 19 -15 33c4 30 86 39 86 76c0 9 -8 14 -21 14zM415 488h109l-60 -488h-109l11 93h-1c-46 -68 -106 -101 -158 -101
c-116 0 -168 89 -168 198c0 154 94 306 240 306c50 0 96 -14 129 -47h2zM228 89c68 0 149 93 168 243l2 18c-29 29 -73 46 -111 46c-86 0 -137 -109 -137 -208c0 -60 27 -99 78 -99z" />
    <glyph glyph-name="amacron" unicode="&#x101;" horiz-adv-x="562" 
d="M481 677l-11 -92h-274l11 92h274zM415 488h109l-60 -488h-109l11 93h-1c-46 -68 -106 -101 -158 -101c-116 0 -168 89 -168 198c0 154 94 306 240 306c50 0 96 -14 129 -47h2zM228 89c68 0 149 93 168 243l2 18c-29 29 -73 46 -111 46c-86 0 -137 -109 -137 -208
c0 -60 27 -99 78 -99z" />
    <glyph glyph-name="aogonek" unicode="&#x105;" horiz-adv-x="562" 
d="M415 488h109l-60 -488h-3c-55 -11 -93 -51 -93 -87c0 -19 11 -30 28 -30c18 0 31 3 40 8l2 -68c-19 -9 -49 -11 -69 -11c-61 0 -92 27 -92 75c0 47 35 95 79 121l10 85h-1c-46 -68 -106 -101 -158 -101c-116 0 -168 89 -168 198c0 154 94 306 240 306
c50 0 96 -14 129 -47h2zM228 89c68 0 149 93 168 243l2 18c-29 29 -73 46 -111 46c-86 0 -137 -109 -137 -208c0 -60 27 -99 78 -99z" />
    <glyph glyph-name="aring" unicode="&#xe5;" horiz-adv-x="562" 
d="M339 531c-58 0 -103 44 -103 103c0 60 46 105 107 105c59 0 103 -44 103 -102c0 -61 -46 -106 -107 -106zM342 674c-22 0 -39 -18 -39 -39c0 -22 16 -38 38 -38s39 17 39 39c0 21 -17 38 -38 38zM415 488h109l-60 -488h-109l11 93h-1c-46 -68 -106 -101 -158 -101
c-116 0 -168 89 -168 198c0 154 94 306 240 306c50 0 96 -14 129 -47h2zM228 89c68 0 149 93 168 243l2 18c-29 29 -73 46 -111 46c-86 0 -137 -109 -137 -208c0 -60 27 -99 78 -99z" />
    <glyph glyph-name="aringacute" unicode="&#x1fb;" horiz-adv-x="567" 
d="M345 531c-58 0 -103 44 -103 103c0 60 46 105 107 105c27 0 50 -9 68 -24l59 43h125l-150 -109c1 -4 1 -8 1 -12c0 -61 -46 -106 -107 -106zM348 674c-22 0 -39 -18 -39 -39c0 -22 16 -38 38 -38s39 17 39 39c0 21 -17 38 -38 38zM410 449l5 39h109l-60 -488h-109l11 93
h-1c-46 -68 -106 -101 -158 -101c-116 0 -168 89 -168 198c0 154 94 306 240 306c50 0 96 -14 129 -47h2zM228 89c68 0 149 93 168 243l2 18c-29 29 -73 46 -111 46c-86 0 -137 -109 -137 -208c0 -60 27 -99 78 -99z" />
    <glyph glyph-name="atilde" unicode="&#xe3;" horiz-adv-x="562" 
d="M286 608c-25 0 -46 -22 -60 -54l-68 35c27 64 67 107 118 107c39 0 55 -18 73 -30c16 -11 31 -23 47 -23c24 0 46 21 60 53l68 -26c-27 -73 -69 -116 -116 -116c-36 0 -59 21 -76 32c-16 12 -31 22 -46 22zM410 449l5 39h109l-60 -488h-109l11 93h-1
c-46 -68 -106 -101 -158 -101c-116 0 -168 89 -168 198c0 154 94 306 240 306c50 0 96 -14 129 -47h2zM228 89c68 0 149 93 168 243l2 18c-29 29 -73 46 -111 46c-86 0 -137 -109 -137 -208c0 -60 27 -99 78 -99z" />
    <glyph glyph-name="ae" unicode="&#xe6;" horiz-adv-x="676" 
d="M472 93c21 0 60 7 95 52l86 -62c-50 -62 -113 -90 -185 -90c-78 0 -141 34 -172 99h-2c-29 -57 -70 -96 -135 -99c-86 -4 -138 69 -138 159c0 170 113 324 306 324c27 0 55 -3 82 -11h3c33 19 70 30 110 30c82 0 145 -42 145 -118c0 -118 -109 -187 -278 -217l-2 -1
c14 -45 51 -66 85 -66zM556 363c0 16 -14 33 -46 33c-44 0 -106 -53 -123 -148l1 -1c101 23 168 66 168 116zM176 92c40 0 77 56 102 158c7 46 22 88 44 124l-1 2h-6c-124 0 -186 -112 -183 -220c1 -32 16 -64 44 -64z" />
    <glyph glyph-name="aeacute" unicode="&#x1fd;" horiz-adv-x="676" 
d="M609 701l-129 -145h-111l119 144zM472 93c21 0 60 7 95 52l86 -62c-50 -62 -113 -90 -185 -90c-78 0 -141 34 -172 99h-2c-29 -57 -70 -96 -135 -99c-86 -4 -138 69 -138 159c0 170 113 324 306 324c27 0 55 -3 82 -11h3c33 19 70 30 110 30c82 0 145 -42 145 -118
c0 -118 -109 -187 -278 -217l-2 -1c14 -45 51 -66 85 -66zM556 363c0 16 -14 33 -46 33c-44 0 -106 -53 -123 -148l1 -1c101 23 168 66 168 116zM176 92c40 0 77 56 102 158c7 46 22 88 44 124l-1 2h-6c-124 0 -186 -112 -183 -220c1 -32 16 -64 44 -64z" />
    <glyph glyph-name="b" unicode="b" horiz-adv-x="573" 
d="M366 495c113 0 166 -93 166 -207c0 -144 -89 -296 -279 -296c-79 0 -142 17 -204 56l85 688h109l-41 -332h2c48 62 104 91 162 91zM242 91c115 0 178 98 178 209c0 50 -27 96 -78 96c-77 0 -152 -91 -170 -240l-7 -54c30 -9 57 -11 77 -11z" />
    <glyph glyph-name="c" unicode="c" horiz-adv-x="492" 
d="M243 -7c-122 0 -202 69 -202 207c0 159 96 295 258 295c77 0 142 -28 178 -81l-86 -64c-21 31 -55 46 -95 46c-86 0 -144 -83 -144 -187c0 -84 46 -116 96 -116c33 0 75 15 110 52l86 -62c-54 -56 -114 -90 -201 -90z" />
    <glyph glyph-name="cacute" unicode="&#x107;" horiz-adv-x="492" 
d="M364 700l121 1l-129 -145h-111zM243 -7c-122 0 -202 69 -202 207c0 159 96 295 258 295c77 0 142 -28 178 -81l-86 -64c-21 31 -55 46 -95 46c-86 0 -144 -83 -144 -187c0 -84 46 -116 96 -116c33 0 75 15 110 52l86 -62c-54 -56 -114 -90 -201 -90z" />
    <glyph glyph-name="ccaron" unicode="&#x10d;" horiz-adv-x="492" 
d="M376 554h-104l-85 147h106l35 -77h3l55 77h110zM296 396c-86 0 -144 -83 -144 -187c0 -84 46 -116 96 -116c33 0 75 15 110 52l86 -62c-54 -56 -114 -90 -201 -90c-122 0 -202 69 -202 207c0 159 96 295 258 295c77 0 142 -28 178 -81l-86 -64c-21 31 -55 46 -95 46z" />
    <glyph glyph-name="ccedilla" unicode="&#xe7;" horiz-adv-x="492" 
d="M248 93c33 0 75 15 110 52l86 -62c-51 -53 -107 -86 -186 -90l-16 -24l1 -1c48 -2 75 -23 75 -66c0 -49 -46 -92 -115 -92c-19 0 -44 3 -57 6l3 54c11 -5 28 -6 43 -6c32 0 52 13 52 37c0 19 -22 27 -69 27l2 36l19 33c-95 16 -155 84 -155 203c0 159 96 295 258 295
c77 0 142 -28 178 -81l-86 -64c-21 31 -55 46 -95 46c-86 0 -144 -83 -144 -187c0 -84 46 -116 96 -116z" />
    <glyph glyph-name="ccircumflex" unicode="&#x109;" horiz-adv-x="492" 
d="M332 630l-55 -76h-110l118 147h104l87 -147h-106l-36 76h-2zM248 93c33 0 75 15 110 52l86 -62c-54 -56 -114 -90 -201 -90c-122 0 -202 69 -202 207c0 159 96 295 258 295c77 0 142 -28 178 -81l-86 -64c-21 31 -55 46 -95 46c-86 0 -144 -83 -144 -187
c0 -84 46 -116 96 -116z" />
    <glyph glyph-name="cdotaccent" unicode="&#x10b;" horiz-adv-x="492" 
d="M336 707c41 0 72 -30 72 -71c0 -42 -32 -74 -75 -74c-41 0 -71 31 -71 71c0 43 32 74 74 74zM243 -7c-122 0 -202 69 -202 207c0 159 96 295 258 295c77 0 142 -28 178 -81l-86 -64c-21 31 -55 46 -95 46c-86 0 -144 -83 -144 -187c0 -84 46 -116 96 -116
c33 0 75 15 110 52l86 -62c-54 -56 -114 -90 -201 -90z" />
    <glyph glyph-name="d" unicode="d" horiz-adv-x="572" 
d="M450 736h110l-91 -736h-110l12 92h-3c-46 -68 -105 -100 -160 -100c-116 0 -168 89 -168 198c0 154 94 305 240 305c47 0 97 -12 133 -48h2zM229 89c71 0 153 93 171 243v-2l3 23c-28 30 -72 43 -115 43c-86 0 -137 -109 -137 -208c0 -60 27 -99 78 -99z" />
    <glyph glyph-name="eth" unicode="&#xf0;" horiz-adv-x="551" 
d="M512 317c0 -16 -1 -33 -3 -52c-9 -150 -105 -272 -264 -272c-122 0 -204 76 -204 206c0 148 108 278 251 278c33 0 60 -10 81 -26l2 1c-19 51 -47 93 -83 127l-63 -48l-45 55l49 38c-21 13 -43 24 -66 33l58 83c34 -13 66 -30 95 -49l71 54l44 -58l-57 -43
c84 -80 134 -192 134 -327zM249 93c87 0 150 76 150 197c0 54 -45 87 -93 87c-87 0 -155 -74 -155 -171c0 -76 43 -113 98 -113z" />
    <glyph glyph-name="dcaron" unicode="&#x10f;" horiz-adv-x="626" 
d="M651 781h113l-82 -198h-83zM415 447l35 289h110l-91 -736h-110l12 92h-3c-46 -68 -105 -100 -160 -100c-116 0 -168 89 -168 198c0 154 94 305 240 305c47 0 97 -12 133 -48h2zM229 89c71 0 153 93 171 243v-2l3 23c-28 30 -72 43 -115 43c-86 0 -137 -109 -137 -208
c0 -60 27 -99 78 -99z" />
    <glyph glyph-name="dcroat" unicode="&#x111;" horiz-adv-x="551" 
d="M601 637l-10 -75h-53l-69 -562h-110l12 92h-3c-46 -68 -105 -100 -160 -100c-116 0 -168 89 -168 198c0 154 94 305 240 305c47 0 97 -12 133 -48h2l14 115h-98l9 75h98l12 99h110l-12 -99h53zM229 89c71 0 153 93 171 243v-2l3 23c-28 30 -72 43 -115 43
c-86 0 -137 -109 -137 -208c0 -60 27 -99 78 -99z" />
    <glyph glyph-name="e" unicode="e" horiz-adv-x="479" 
d="M243 93c45 0 76 16 111 52l86 -62c-56 -57 -108 -90 -201 -90c-122 0 -198 76 -198 203c0 159 93 299 256 299c82 0 157 -46 157 -132c0 -124 -147 -179 -300 -197l-2 -1c12 -49 51 -72 91 -72zM292 396c-52 0 -117 -40 -137 -136l1 -1c94 12 187 40 187 99
c0 24 -18 38 -51 38z" />
    <glyph glyph-name="eacute" unicode="&#xe9;" horiz-adv-x="479" 
d="M481 701l-129 -145h-111l119 144zM454 363c0 -124 -147 -179 -300 -197l-2 -1c12 -49 51 -72 91 -72c45 0 76 16 111 52l86 -62c-56 -57 -108 -90 -201 -90c-122 0 -198 76 -198 203c0 159 93 299 256 299c82 0 157 -46 157 -132zM292 396c-52 0 -117 -40 -137 -136l1 -1
c94 12 187 40 187 99c0 24 -18 38 -51 38z" />
    <glyph glyph-name="ebreve" unicode="&#x115;" horiz-adv-x="479" 
d="M313 551c-82 0 -141 53 -133 146h85c-4 -41 9 -69 49 -69c38 0 66 30 74 69h85c-17 -88 -77 -146 -160 -146zM454 363c0 -124 -147 -179 -300 -197l-2 -1c12 -49 51 -72 91 -72c45 0 76 16 111 52l86 -62c-56 -57 -108 -90 -201 -90c-122 0 -198 76 -198 203
c0 159 93 299 256 299c82 0 157 -46 157 -132zM292 396c-52 0 -117 -40 -137 -136l1 -1c94 12 187 40 187 99c0 24 -18 38 -51 38z" />
    <glyph glyph-name="ecaron" unicode="&#x11b;" horiz-adv-x="479" 
d="M362 554h-104l-85 147h106l35 -77h3l55 77h110zM454 363c0 -124 -147 -179 -300 -197l-2 -1c12 -49 51 -72 91 -72c45 0 76 16 111 52l86 -62c-56 -57 -108 -90 -201 -90c-122 0 -198 76 -198 203c0 159 93 299 256 299c82 0 157 -46 157 -132zM292 396
c-52 0 -117 -40 -137 -136l1 -1c94 12 187 40 187 99c0 24 -18 38 -51 38z" />
    <glyph glyph-name="ecircumflex" unicode="&#xea;" horiz-adv-x="479" 
d="M318 630l-55 -76h-110l118 147h104l87 -147h-106l-36 76h-2zM454 363c0 -124 -147 -179 -300 -197l-2 -1c12 -49 51 -72 91 -72c45 0 76 16 111 52l86 -62c-56 -57 -108 -90 -201 -90c-122 0 -198 76 -198 203c0 159 93 299 256 299c82 0 157 -46 157 -132zM292 396
c-52 0 -117 -40 -137 -136l1 -1c94 12 187 40 187 99c0 24 -18 38 -51 38z" />
    <glyph glyph-name="uni1EBF" unicode="&#x1ebf;" horiz-adv-x="479" 
d="M528 789h120l-154 -145h-81zM270 701h104l87 -147h-106l-36 76h-2l-55 -76h-110zM454 363c0 -124 -147 -179 -300 -197l-2 -1c12 -49 51 -72 91 -72c45 0 76 16 111 52l86 -62c-56 -57 -108 -90 -201 -90c-122 0 -198 76 -198 203c0 159 93 299 256 299
c82 0 157 -46 157 -132zM292 396c-52 0 -117 -40 -137 -136l1 -1c94 12 187 40 187 99c0 24 -18 38 -51 38z" />
    <glyph glyph-name="uni1EC7" unicode="&#x1ec7;" horiz-adv-x="479" 
d="M318 630l-55 -76h-110l118 147h104l87 -147h-106l-36 76h-2zM454 363c0 -124 -147 -179 -300 -197l-2 -1c12 -49 51 -72 91 -72c45 0 76 16 111 52l86 -62c-56 -57 -108 -90 -201 -90c-122 0 -198 76 -198 203c0 159 93 299 256 299c82 0 157 -46 157 -132zM292 396
c-52 0 -117 -40 -137 -136l1 -1c94 12 187 40 187 99c0 24 -18 38 -51 38zM221 -99c41 0 71 -31 71 -71c0 -43 -32 -74 -74 -74c-41 0 -72 30 -72 71c0 42 32 74 75 74z" />
    <glyph glyph-name="uni1EC1" unicode="&#x1ec1;" horiz-adv-x="479" 
d="M524 644h-81l-106 145h120zM269 701h104l87 -147h-106l-36 76h-2l-55 -76h-110zM454 363c0 -124 -147 -179 -300 -197l-2 -1c12 -49 51 -72 91 -72c45 0 76 16 111 52l86 -62c-56 -57 -108 -90 -201 -90c-122 0 -198 76 -198 203c0 159 93 299 256 299
c82 0 157 -46 157 -132zM292 396c-52 0 -117 -40 -137 -136l1 -1c94 12 187 40 187 99c0 24 -18 38 -51 38z" />
    <glyph glyph-name="uni1EC3" unicode="&#x1ec3;" horiz-adv-x="479" 
d="M499 802c56 0 85 -32 85 -73c-1 -44 -32 -73 -89 -86l-13 -25l-39 1c-9 10 -16 19 -15 33c4 30 86 40 86 76c0 9 -8 15 -21 15c-27 0 -52 -14 -71 -33l-38 45c28 28 75 47 115 47zM270 701h104l87 -147h-106l-36 76h-2l-55 -76h-110zM454 363c0 -124 -147 -179 -300 -197
l-2 -1c12 -49 51 -72 91 -72c45 0 76 16 111 52l86 -62c-56 -57 -108 -90 -201 -90c-122 0 -198 76 -198 203c0 159 93 299 256 299c82 0 157 -46 157 -132zM292 396c-52 0 -117 -40 -137 -136l1 -1c94 12 187 40 187 99c0 24 -18 38 -51 38z" />
    <glyph glyph-name="uni1EC5" unicode="&#x1ec5;" horiz-adv-x="479" 
d="M452 857l63 -26c-26 -73 -64 -116 -108 -116c-33 0 -56 21 -71 32c-15 12 -29 22 -43 22c-23 0 -42 -22 -57 -54l-63 35c25 64 63 107 110 107c37 0 52 -18 69 -30c15 -11 29 -23 43 -23c23 0 43 21 57 53zM270 701h104l87 -147h-106l-36 76h-2l-55 -76h-110zM454 363
c0 -124 -147 -179 -300 -197l-2 -1c12 -49 51 -72 91 -72c45 0 76 16 111 52l86 -62c-56 -57 -108 -90 -201 -90c-122 0 -198 76 -198 203c0 159 93 299 256 299c82 0 157 -46 157 -132zM292 396c-52 0 -117 -40 -137 -136l1 -1c94 12 187 40 187 99c0 24 -18 38 -51 38z
" />
    <glyph glyph-name="edieresis" unicode="&#xeb;" horiz-adv-x="479" 
d="M223 562c-41 0 -72 31 -72 71c0 43 32 74 75 74c40 0 71 -30 71 -71c0 -42 -32 -74 -74 -74zM416 707c40 0 71 -30 71 -71c0 -42 -32 -74 -74 -74s-72 31 -72 71c0 43 32 74 75 74zM454 363c0 -124 -147 -179 -300 -197l-2 -1c12 -49 51 -72 91 -72c45 0 76 16 111 52
l86 -62c-56 -57 -108 -90 -201 -90c-122 0 -198 76 -198 203c0 159 93 299 256 299c82 0 157 -46 157 -132zM292 396c-52 0 -117 -40 -137 -136l1 -1c94 12 187 40 187 99c0 24 -18 38 -51 38z" />
    <glyph glyph-name="edotaccent" unicode="&#x117;" horiz-adv-x="479" 
d="M319 562c-41 0 -71 31 -71 71c0 43 32 74 74 74c41 0 72 -30 72 -71c0 -42 -32 -74 -75 -74zM243 93c45 0 76 16 111 52l86 -62c-56 -57 -108 -90 -201 -90c-122 0 -198 76 -198 203c0 159 93 299 256 299c82 0 157 -46 157 -132c0 -124 -147 -179 -300 -197l-2 -1
c12 -49 51 -72 91 -72zM292 396c-52 0 -117 -40 -137 -136l1 -1c94 12 187 40 187 99c0 24 -18 38 -51 38z" />
    <glyph glyph-name="uni1EB9" unicode="&#x1eb9;" horiz-adv-x="479" 
d="M243 93c45 0 76 16 111 52l86 -62c-56 -57 -108 -90 -201 -90c-122 0 -198 76 -198 203c0 159 93 299 256 299c82 0 157 -46 157 -132c0 -124 -147 -179 -300 -197l-2 -1c12 -49 51 -72 91 -72zM292 396c-52 0 -117 -40 -137 -136l1 -1c94 12 187 40 187 99
c0 24 -18 38 -51 38zM221 -99c41 0 71 -31 71 -71c0 -43 -32 -74 -74 -74c-41 0 -72 30 -72 71c0 42 32 74 75 74z" />
    <glyph glyph-name="egrave" unicode="&#xe8;" horiz-adv-x="479" 
d="M376 556h-111l-94 145l122 -1zM243 93c45 0 76 16 111 52l86 -62c-56 -57 -108 -90 -201 -90c-122 0 -198 76 -198 203c0 159 93 299 256 299c82 0 157 -46 157 -132c0 -124 -147 -179 -300 -197l-2 -1c12 -49 51 -72 91 -72zM292 396c-52 0 -117 -40 -137 -136l1 -1
c94 12 187 40 187 99c0 24 -18 38 -51 38z" />
    <glyph glyph-name="uni1EBB" unicode="&#x1ebb;" horiz-adv-x="479" 
d="M329 658c-27 0 -53 -14 -71 -33l-38 46c28 27 74 46 115 46c56 0 85 -31 85 -73c-1 -43 -31 -73 -89 -85l-13 -26l-39 2c-9 9 -16 19 -15 33c4 30 86 39 86 76c0 9 -8 14 -21 14zM243 93c45 0 76 16 111 52l86 -62c-56 -57 -108 -90 -201 -90c-122 0 -198 76 -198 203
c0 159 93 299 256 299c82 0 157 -46 157 -132c0 -124 -147 -179 -300 -197l-2 -1c12 -49 51 -72 91 -72zM292 396c-52 0 -117 -40 -137 -136l1 -1c94 12 187 40 187 99c0 24 -18 38 -51 38z" />
    <glyph glyph-name="emacron" unicode="&#x113;" horiz-adv-x="479" 
d="M461 677l-11 -92h-274l11 92h274zM454 363c0 -124 -147 -179 -300 -197l-2 -1c12 -49 51 -72 91 -72c45 0 76 16 111 52l86 -62c-56 -57 -108 -90 -201 -90c-122 0 -198 76 -198 203c0 159 93 299 256 299c82 0 157 -46 157 -132zM292 396c-52 0 -117 -40 -137 -136l1 -1
c94 12 187 40 187 99c0 24 -18 38 -51 38z" />
    <glyph glyph-name="eogonek" unicode="&#x119;" horiz-adv-x="479" 
d="M243 93c45 0 76 16 111 52l86 -62c-37 -38 -72 -65 -119 -79h1c-58 -17 -98 -55 -98 -91c0 -17 9 -30 32 -30c7 0 26 3 36 8l1 -68c-19 -9 -48 -11 -68 -11c-61 0 -92 27 -92 75c0 40 25 81 59 108v2c-94 17 -151 89 -151 199c0 159 93 299 256 299
c82 0 157 -46 157 -132c0 -124 -147 -179 -300 -197l-2 -1c12 -49 51 -72 91 -72zM292 396c-52 0 -117 -40 -137 -136l1 -1c94 12 187 40 187 99c0 24 -18 38 -51 38z" />
    <glyph glyph-name="uni1EBD" unicode="&#x1ebd;" horiz-adv-x="479" 
d="M266 608c-25 0 -46 -22 -60 -54l-68 35c27 64 67 107 118 107c39 0 55 -18 73 -30c16 -11 31 -23 47 -23c24 0 46 21 60 53l68 -26c-27 -73 -69 -116 -116 -116c-36 0 -59 21 -76 32c-16 12 -31 22 -46 22zM454 363c0 -124 -147 -179 -300 -197l-2 -1
c12 -49 51 -72 91 -72c45 0 76 16 111 52l86 -62c-56 -57 -108 -90 -201 -90c-122 0 -198 76 -198 203c0 159 93 299 256 299c82 0 157 -46 157 -132zM292 396c-52 0 -117 -40 -137 -136l1 -1c94 12 187 40 187 99c0 24 -18 38 -51 38z" />
    <glyph glyph-name="f" unicode="f" horiz-adv-x="319" 
d="M354 620c-24 17 -47 24 -63 24c-27 0 -49 -13 -57 -76l-9 -80h97l-11 -93h-99l-48 -395h-109l48 395h-46l11 93h47l12 101c13 104 65 155 145 155c41 0 75 -7 111 -33z" />
    <glyph glyph-name="g" unicode="g" horiz-adv-x="563" 
d="M417 488h109l-52 -427c-27 -218 -142 -267 -276 -267c-57 0 -114 15 -165 48l36 95c42 -27 83 -43 134 -43c85 0 144 29 162 175l6 44h-3c-46 -71 -106 -105 -160 -105c-116 0 -167 89 -167 198c0 138 93 289 239 289c50 0 96 -14 129 -46h3zM229 105
c65 0 143 86 166 211l4 33c-29 30 -73 47 -110 47c-87 0 -137 -109 -137 -192c0 -60 27 -99 77 -99z" />
    <glyph glyph-name="gbreve" unicode="&#x11f;" horiz-adv-x="563" 
d="M332 551c-82 0 -141 53 -133 146h85c-4 -41 9 -69 49 -69c38 0 66 30 74 69h85c-17 -88 -77 -146 -160 -146zM417 488h109l-52 -427c-27 -218 -142 -267 -276 -267c-57 0 -114 15 -165 48l36 95c42 -27 83 -43 134 -43c85 0 144 29 162 175l6 44h-3
c-46 -71 -106 -105 -160 -105c-116 0 -167 89 -167 198c0 138 93 289 239 289c50 0 96 -14 129 -46h3zM229 105c65 0 143 86 166 211l4 33c-29 30 -73 47 -110 47c-87 0 -137 -109 -137 -192c0 -60 27 -99 77 -99z" />
    <glyph glyph-name="gcaron" unicode="&#x1e7;" horiz-adv-x="563" 
d="M381 554h-104l-85 147h106l35 -77h3l55 77h110zM417 488h109l-52 -427c-27 -218 -142 -267 -276 -267c-57 0 -114 15 -165 48l36 95c42 -27 83 -43 134 -43c85 0 144 29 162 175l6 44h-3c-46 -71 -106 -105 -160 -105c-116 0 -167 89 -167 198c0 138 93 289 239 289
c50 0 96 -14 129 -46h3zM229 105c65 0 143 86 166 211l4 33c-29 30 -73 47 -110 47c-87 0 -137 -109 -137 -192c0 -60 27 -99 77 -99z" />
    <glyph glyph-name="gcircumflex" unicode="&#x11d;" horiz-adv-x="563" 
d="M337 630l-55 -76h-110l118 147h104l87 -147h-106l-36 76h-2zM417 488h109l-52 -427c-27 -218 -142 -267 -276 -267c-57 0 -114 15 -165 48l36 95c42 -27 83 -43 134 -43c85 0 144 29 162 175l6 44h-3c-46 -71 -106 -105 -160 -105c-116 0 -167 89 -167 198
c0 138 93 289 239 289c50 0 96 -14 129 -46h3zM229 105c65 0 143 86 166 211l4 33c-29 30 -73 47 -110 47c-87 0 -137 -109 -137 -192c0 -60 27 -99 77 -99z" />
    <glyph glyph-name="gcommaaccent" unicode="&#x123;" horiz-adv-x="563" 
d="M381 583c0 -8 1 -14 2 -24h-98v22c0 81 48 135 139 144l16 -65c-42 -16 -59 -34 -59 -77zM417 488h109l-52 -427c-27 -218 -142 -267 -276 -267c-57 0 -114 15 -165 48l36 95c42 -27 83 -43 134 -43c85 0 144 29 162 175l6 44h-3c-46 -71 -106 -105 -160 -105
c-116 0 -167 89 -167 198c0 138 93 289 239 289c50 0 96 -14 129 -46h3zM229 105c65 0 143 86 166 211l4 33c-29 30 -73 47 -110 47c-87 0 -137 -109 -137 -192c0 -60 27 -99 77 -99z" />
    <glyph glyph-name="gdotaccent" unicode="&#x121;" horiz-adv-x="563" 
d="M338 562c-41 0 -71 31 -71 71c0 43 32 74 74 74c41 0 72 -30 72 -71c0 -42 -32 -74 -75 -74zM417 488h109l-52 -427c-27 -218 -142 -267 -276 -267c-57 0 -114 15 -165 48l36 95c42 -27 83 -43 134 -43c85 0 144 29 162 175l6 44h-3c-46 -71 -106 -105 -160 -105
c-116 0 -167 89 -167 198c0 138 93 289 239 289c50 0 96 -14 129 -46h3zM229 105c65 0 143 86 166 211l4 33c-29 30 -73 47 -110 47c-87 0 -137 -109 -137 -192c0 -60 27 -99 77 -99z" />
    <glyph glyph-name="h" unicode="h" horiz-adv-x="561" 
d="M383 495c104 0 139 -67 121 -201l-40 -294h-110l39 285c10 71 1 111 -47 111c-60 0 -153 -93 -168 -217l-22 -179h-110l91 736h109l-41 -333h3c50 62 111 92 175 92z" />
    <glyph glyph-name="hbar" unicode="&#x127;" horiz-adv-x="561" 
d="M383 495c104 0 139 -67 121 -201l-40 -294h-110l39 285c10 71 1 111 -47 111c-60 0 -153 -93 -168 -217l-22 -179h-110l69 562h-76l9 75h77l12 99h109l-12 -99h74l-9 -75h-74l-20 -159h3c50 62 111 92 175 92z" />
    <glyph glyph-name="hcircumflex" unicode="&#x125;" horiz-adv-x="561" 
d="M352 871l-55 -76h-110l118 147h104l87 -147h-106l-36 76h-2zM383 495c104 0 139 -67 121 -201l-40 -294h-110l39 285c10 71 1 111 -47 111c-60 0 -153 -93 -168 -217l-22 -179h-110l91 736h109l-41 -333h3c50 62 111 92 175 92z" />
    <glyph glyph-name="i" unicode="i" horiz-adv-x="258" 
d="M183 707c41 0 72 -30 72 -71c0 -42 -32 -74 -75 -74c-41 0 -71 31 -71 71c0 43 32 74 74 74zM104 488h110l-60 -488h-110z" />
    <glyph glyph-name="dotlessi" unicode="&#x131;" horiz-adv-x="258" 
d="M104 488h110l-60 -488h-110z" />
    <glyph glyph-name="iacute" unicode="&#xed;" horiz-adv-x="272" 
d="M250 700l121 1l-129 -145h-111zM104 488h110l-60 -488h-110z" />
    <glyph glyph-name="ibreve" unicode="&#x12d;" horiz-adv-x="258" 
d="M176 551c-72 0 -124 53 -117 146h81c-5 -41 8 -69 39 -69c33 0 54 30 55 69h85c-15 -88 -68 -146 -143 -146zM104 488h110l-60 -488h-110z" />
    <glyph glyph-name="icircumflex" unicode="&#xee;" horiz-adv-x="258" 
d="M236 701l87 -147h-106l-36 76h-2l-55 -76h-110l118 147h104zM44 0l60 488h110l-60 -488h-110z" />
    <glyph glyph-name="idieresis" unicode="&#xef;" horiz-adv-x="258" 
d="M89 707c40 0 71 -30 71 -71c0 -42 -32 -74 -74 -74c-41 0 -72 31 -72 71c0 43 32 74 75 74zM273 707c41 0 71 -30 71 -71c0 -42 -31 -74 -74 -74c-41 0 -72 31 -72 71c0 43 33 74 75 74zM104 488h110l-60 -488h-110z" />
    <glyph glyph-name="i.loclTRK" horiz-adv-x="258" 
d="M183 707c41 0 72 -30 72 -71c0 -42 -32 -74 -75 -74c-41 0 -71 31 -71 71c0 43 32 74 74 74zM104 488h110l-60 -488h-110z" />
    <glyph glyph-name="uni1ECB" unicode="&#x1ecb;" horiz-adv-x="258" 
d="M183 707c41 0 72 -30 72 -71c0 -42 -32 -74 -75 -74c-41 0 -71 31 -71 71c0 43 32 74 74 74zM104 488h110l-60 -488h-110zM78 -244c-41 0 -72 30 -72 71c0 42 32 74 75 74c41 0 71 -31 71 -71c0 -43 -32 -74 -74 -74z" />
    <glyph glyph-name="igrave" unicode="&#xec;" horiz-adv-x="259" 
d="M175 709l50 -144h-113l-59 145zM104 488h110l-60 -488h-110z" />
    <glyph glyph-name="uni1EC9" unicode="&#x1ec9;" horiz-adv-x="258" 
d="M119 625l-38 46c28 27 74 46 115 46c56 0 85 -31 85 -73c-1 -43 -31 -73 -89 -85l-13 -26l-39 2c-9 9 -16 19 -15 33c4 30 86 39 86 76c0 9 -8 14 -21 14c-27 0 -53 -14 -71 -33zM104 488h110l-60 -488h-110z" />
    <glyph glyph-name="ij" unicode="&#x133;" horiz-adv-x="498" 
d="M183 707c41 0 72 -30 72 -71c0 -42 -32 -74 -75 -74c-41 0 -71 31 -71 71c0 43 32 74 74 74zM426 707c41 0 72 -30 72 -71c0 -42 -32 -74 -75 -74c-41 0 -71 31 -71 71c0 43 32 74 74 74zM104 488h110l-60 -488h-110zM185 -96c14 -11 27 -15 44 -15c32 0 49 25 56 90
l63 509h110l-65 -524c-14 -117 -67 -169 -147 -169c-43 0 -66 9 -89 23z" />
    <glyph glyph-name="imacron" unicode="&#x12b;" horiz-adv-x="258" 
d="M48 677h274l-11 -92h-274zM104 488h110l-60 -488h-110z" />
    <glyph glyph-name="iogonek" unicode="&#x12f;" horiz-adv-x="258" 
d="M183 707c41 0 72 -30 72 -71c0 -42 -32 -74 -75 -74c-41 0 -71 31 -71 71c0 43 32 74 74 74zM45 8l59 480h110l-60 -488h-3c-55 -11 -93 -51 -93 -87c0 -19 11 -30 28 -30c18 0 31 3 40 8l2 -68c-19 -9 -49 -11 -69 -11c-61 0 -92 27 -92 75c0 47 35 94 78 121z" />
    <glyph glyph-name="itilde" unicode="&#x129;" horiz-adv-x="258" 
d="M16 589c25 64 63 107 110 107c37 0 52 -18 69 -30c15 -11 29 -23 43 -23c23 0 43 21 57 53l63 -26c-26 -73 -64 -116 -108 -116c-33 0 -56 21 -71 32c-15 12 -29 22 -43 22c-23 0 -42 -22 -57 -54zM104 488h110l-60 -488h-110z" />
    <glyph glyph-name="j" unicode="j" horiz-adv-x="240" 
d="M168 707c41 0 72 -30 72 -71c0 -42 -32 -74 -75 -74c-41 0 -71 31 -71 71c0 43 32 74 74 74zM-73 -96c14 -11 27 -15 44 -15c32 0 49 25 56 90l63 509h110l-65 -524c-14 -117 -67 -169 -147 -169c-43 0 -66 9 -89 23z" />
    <glyph glyph-name="uni0237" unicode="&#x237;" horiz-adv-x="240" 
d="M-73 -96c14 -11 27 -15 44 -15c32 0 49 25 56 90l63 509h110l-65 -524c-14 -117 -67 -169 -147 -169c-43 0 -66 9 -89 23z" />
    <glyph glyph-name="jcircumflex" unicode="&#x135;" horiz-adv-x="240" 
d="M221 701l87 -147h-106l-36 76h-2l-55 -76h-110l118 147h104zM27 -21l63 509h110l-65 -524c-14 -117 -67 -169 -147 -169c-43 0 -66 9 -89 23l28 86c14 -11 27 -15 44 -15c32 0 49 25 56 90z" />
    <glyph glyph-name="k" unicode="k" horiz-adv-x="519" 
d="M376 172c28 -70 48 -85 90 -94l-32 -84c-8 -1 -16 -2 -23 -2c-77 1 -98 58 -136 150l-10 24h-2c-30 -21 -63 -40 -98 -56l-13 -110h-109l91 736h109l-62 -508h1c116 71 174 166 202 260h111c-19 -91 -71 -178 -145 -251z" />
    <glyph glyph-name="kcommaaccent" unicode="&#x137;" horiz-adv-x="519" 
d="M376 172c28 -70 48 -85 90 -94l-32 -84c-8 -1 -16 -2 -23 -2c-77 1 -98 58 -136 150l-10 24h-2c-30 -21 -63 -40 -98 -56l-13 -110h-109l91 736h109l-62 -508h1c116 71 174 166 202 260h111c-19 -91 -71 -178 -145 -251zM184 -77c0 8 -1 14 -2 24h98v-22
c0 -81 -48 -135 -139 -144l-16 65c42 16 59 34 59 77z" />
    <glyph glyph-name="kgreenlandic" unicode="&#x138;" horiz-adv-x="519" 
d="M376 172c28 -70 48 -85 90 -94l-32 -84c-8 -1 -16 -2 -23 -2c-77 1 -98 58 -136 150l-10 24h-2c-30 -21 -63 -40 -98 -56l-13 -110h-109l61 488h108l-31 -260h1c116 71 174 166 202 260h111c-19 -91 -71 -178 -145 -251z" />
    <glyph glyph-name="l" unicode="l" horiz-adv-x="255" 
d="M140 736h110l-91 -736h-109z" />
    <glyph glyph-name="lacute" unicode="&#x13a;" horiz-adv-x="255" 
d="M273 944l121 1l-129 -145h-111zM140 736h110l-91 -736h-109z" />
    <glyph glyph-name="lcaron" unicode="&#x13e;" horiz-adv-x="316" 
d="M342 781h112l-81 -198h-84zM140 736h110l-91 -736h-109z" />
    <glyph glyph-name="lcommaaccent" unicode="&#x13c;" horiz-adv-x="255" 
d="M140 736h110l-91 -736h-109zM50 -77c0 8 -1 14 -2 24h98v-22c0 -81 -48 -135 -139 -144l-16 65c42 16 59 34 59 77z" />
    <glyph glyph-name="ldot" unicode="&#x140;" horiz-adv-x="445" 
d="M140 736h110l-91 -736h-109zM364 318c41 0 72 -31 72 -72c0 -42 -32 -74 -75 -74c-41 0 -71 31 -71 71c0 43 32 75 74 75z" />
    <glyph glyph-name="lslash" unicode="&#x142;" horiz-adv-x="288" 
d="M280 430l-12 -103l-61 -28l-37 -299h-109l30 245l-59 -27l13 103l59 27l47 388h110l-41 -334z" />
    <glyph glyph-name="m" unicode="m" horiz-adv-x="832" 
d="M657 495c101 0 136 -67 118 -201l-40 -294h-110l39 285c9 71 0 111 -39 111c-48 0 -133 -84 -155 -197l-27 -199h-109l38 285c9 71 0 111 -39 111c-50 0 -142 -92 -158 -214l-22 -182h-110l61 488h109l-10 -85h1c49 62 107 92 164 92c63 0 101 -30 114 -90h3
c48 61 105 90 172 90z" />
    <glyph glyph-name="n" unicode="n" horiz-adv-x="557" 
d="M380 495c104 0 139 -67 121 -201l-40 -294h-109l38 285c10 71 1 111 -47 111c-60 0 -152 -92 -168 -214l-22 -182h-110l61 488h109l-11 -86h2c51 63 111 93 176 93z" />
    <glyph glyph-name="nacute" unicode="&#x144;" horiz-adv-x="557" 
d="M472 701l-129 -145h-111l119 144zM380 495c104 0 139 -67 121 -201l-40 -294h-109l38 285c10 71 1 111 -47 111c-60 0 -152 -92 -168 -214l-22 -182h-110l61 488h109l-11 -86h2c51 63 111 93 176 93z" />
    <glyph glyph-name="napostrophe" unicode="&#x149;" horiz-adv-x="669" 
d="M74 710h113l-82 -207h-83zM492 495c104 0 139 -67 121 -201l-40 -294h-109l38 285c10 71 1 111 -47 111c-60 0 -152 -92 -168 -214l-22 -182h-110l61 488h109l-11 -86h2c51 63 111 93 176 93z" />
    <glyph glyph-name="ncaron" unicode="&#x148;" horiz-adv-x="557" 
d="M382 554h-104l-85 147h106l35 -77h3l55 77h110zM380 495c104 0 139 -67 121 -201l-40 -294h-109l38 285c10 71 1 111 -47 111c-60 0 -152 -92 -168 -214l-22 -182h-110l61 488h109l-11 -86h2c51 63 111 93 176 93z" />
    <glyph glyph-name="ncommaaccent" unicode="&#x146;" horiz-adv-x="557" 
d="M380 495c104 0 139 -67 121 -201l-40 -294h-109l38 285c10 71 1 111 -47 111c-60 0 -152 -92 -168 -214l-22 -182h-110l61 488h109l-11 -86h2c51 63 111 93 176 93zM201 -77c0 8 -1 14 -2 24h98v-22c0 -81 -48 -135 -139 -144l-16 65c42 16 59 34 59 77z" />
    <glyph glyph-name="eng" unicode="&#x14b;" horiz-adv-x="538" 
d="M371 495c93 0 127 -72 110 -201l-41 -330c-15 -117 -67 -169 -147 -169c-43 0 -66 9 -89 23l27 86c15 -11 28 -15 45 -15c32 0 48 25 56 90l38 307c9 70 6 110 -42 110c-49 0 -134 -88 -152 -207l-23 -189h-110l61 488h109l-10 -85h1c50 62 108 92 167 92z" />
    <glyph glyph-name="uni0272" unicode="&#x272;" horiz-adv-x="557" 
d="M380 495c104 0 139 -67 121 -201l-40 -294h-109l38 285c10 71 1 111 -47 111c-59 0 -153 -90 -168 -213l-27 -219c-14 -117 -67 -169 -147 -169c-43 0 -65 9 -89 23l28 86c15 -11 27 -15 44 -15c32 0 48 25 57 90l63 509h109l-11 -86h2c51 63 111 93 176 93z" />
    <glyph glyph-name="ntilde" unicode="&#xf1;" horiz-adv-x="557" 
d="M286 608c-25 0 -46 -22 -60 -54l-68 35c27 64 67 107 118 107c39 0 55 -18 73 -30c16 -11 31 -23 47 -23c24 0 46 21 60 53l68 -26c-27 -73 -69 -116 -116 -116c-36 0 -59 21 -76 32c-16 12 -31 22 -46 22zM380 495c104 0 139 -67 121 -201l-40 -294h-109l38 285
c10 71 1 111 -47 111c-60 0 -152 -92 -168 -214l-22 -182h-110l61 488h109l-11 -86h2c51 63 111 93 176 93z" />
    <glyph glyph-name="o" unicode="o" horiz-adv-x="548" 
d="M300 495c124 0 207 -71 207 -201c0 -168 -92 -302 -261 -302c-125 0 -205 75 -205 206c0 158 98 297 259 297zM293 396c-86 0 -142 -93 -142 -185c0 -68 36 -119 98 -119c88 0 147 86 147 192c0 92 -61 112 -103 112z" />
    <glyph glyph-name="oacute" unicode="&#xf3;" horiz-adv-x="548" 
d="M378 700l121 1l-129 -145h-111zM300 495c124 0 207 -71 207 -201c0 -168 -92 -302 -261 -302c-125 0 -205 75 -205 206c0 158 98 297 259 297zM293 396c-86 0 -142 -93 -142 -185c0 -68 36 -119 98 -119c88 0 147 86 147 192c0 92 -61 112 -103 112z" />
    <glyph glyph-name="obreve" unicode="&#x14f;" horiz-adv-x="548" 
d="M322 551c-82 0 -141 53 -133 146h85c-4 -41 9 -69 49 -69c38 0 66 30 74 69h85c-17 -88 -77 -146 -160 -146zM300 495c124 0 207 -71 207 -201c0 -168 -92 -302 -261 -302c-125 0 -205 75 -205 206c0 158 98 297 259 297zM293 396c-86 0 -142 -93 -142 -185
c0 -68 36 -119 98 -119c88 0 147 86 147 192c0 92 -61 112 -103 112z" />
    <glyph glyph-name="ocircumflex" unicode="&#xf4;" horiz-adv-x="548" 
d="M327 630l-55 -76h-110l118 147h104l87 -147h-106l-36 76h-2zM300 495c124 0 207 -71 207 -201c0 -168 -92 -302 -261 -302c-125 0 -205 75 -205 206c0 158 98 297 259 297zM249 92c88 0 147 86 147 192c0 92 -61 112 -103 112c-86 0 -142 -93 -142 -185
c0 -68 36 -119 98 -119z" />
    <glyph glyph-name="uni1ED1" unicode="&#x1ed1;" horiz-adv-x="548" 
d="M657 789l-154 -145h-81l115 145h120zM326 630l-55 -76h-110l118 147h104l87 -147h-106l-36 76h-2zM300 495c124 0 207 -71 207 -201c0 -168 -92 -302 -261 -302c-125 0 -205 75 -205 206c0 158 98 297 259 297zM249 92c88 0 147 86 147 192c0 92 -61 112 -103 112
c-86 0 -142 -93 -142 -185c0 -68 36 -119 98 -119z" />
    <glyph glyph-name="uni1ED9" unicode="&#x1ed9;" horiz-adv-x="548" 
d="M327 630l-55 -76h-110l118 147h104l87 -147h-106l-36 76h-2zM300 495c124 0 207 -71 207 -201c0 -168 -92 -302 -261 -302c-125 0 -205 75 -205 206c0 158 98 297 259 297zM249 92c88 0 147 86 147 192c0 92 -61 112 -103 112c-86 0 -142 -93 -142 -185
c0 -68 36 -119 98 -119zM223 -99c41 0 71 -31 71 -71c0 -43 -32 -74 -74 -74c-41 0 -72 30 -72 71c0 42 32 74 75 74z" />
    <glyph glyph-name="uni1ED3" unicode="&#x1ed3;" horiz-adv-x="548" 
d="M533 644h-81l-106 145h120zM325 630l-55 -76h-110l118 147h104l87 -147h-106l-36 76h-2zM300 495c124 0 207 -71 207 -201c0 -168 -92 -302 -261 -302c-125 0 -205 75 -205 206c0 158 98 297 259 297zM249 92c88 0 147 86 147 192c0 92 -61 112 -103 112
c-86 0 -142 -93 -142 -185c0 -68 36 -119 98 -119z" />
    <glyph glyph-name="uni1ED5" unicode="&#x1ed5;" horiz-adv-x="548" 
d="M508 802c56 0 85 -32 85 -73c-1 -44 -32 -73 -89 -86l-13 -25l-39 1c-9 10 -16 19 -15 33c4 30 86 40 86 76c0 9 -8 15 -21 15c-27 0 -52 -14 -71 -33l-38 45c28 28 75 47 115 47zM326 630l-55 -76h-110l118 147h104l87 -147h-106l-36 76h-2zM300 495
c124 0 207 -71 207 -201c0 -168 -92 -302 -261 -302c-125 0 -205 75 -205 206c0 158 98 297 259 297zM249 92c88 0 147 86 147 192c0 92 -61 112 -103 112c-86 0 -142 -93 -142 -185c0 -68 36 -119 98 -119z" />
    <glyph glyph-name="uni1ED7" unicode="&#x1ed7;" horiz-adv-x="548" 
d="M302 769c-23 0 -42 -22 -57 -54l-63 35c25 64 63 107 110 107c37 0 52 -18 69 -30c15 -11 29 -23 43 -23c23 0 43 21 57 53l63 -26c-26 -73 -64 -116 -108 -116c-33 0 -56 21 -71 32c-15 12 -29 22 -43 22zM326 630l-55 -76h-110l118 147h104l87 -147h-106l-36 76h-2z
M300 495c124 0 207 -71 207 -201c0 -168 -92 -302 -261 -302c-125 0 -205 75 -205 206c0 158 98 297 259 297zM249 92c88 0 147 86 147 192c0 92 -61 112 -103 112c-86 0 -142 -93 -142 -185c0 -68 36 -119 98 -119z" />
    <glyph glyph-name="odieresis" unicode="&#xf6;" horiz-adv-x="548" 
d="M235 707c40 0 71 -30 71 -71c0 -42 -32 -74 -74 -74c-41 0 -72 31 -72 71c0 43 32 74 75 74zM425 707c40 0 71 -30 71 -71c0 -42 -32 -74 -74 -74s-72 31 -72 71c0 43 32 74 75 74zM300 495c124 0 207 -71 207 -201c0 -168 -92 -302 -261 -302c-125 0 -205 75 -205 206
c0 158 98 297 259 297zM293 396c-86 0 -142 -93 -142 -185c0 -68 36 -119 98 -119c88 0 147 86 147 192c0 92 -61 112 -103 112z" />
    <glyph glyph-name="uni1ECD" unicode="&#x1ecd;" horiz-adv-x="548" 
d="M300 495c124 0 207 -71 207 -201c0 -168 -92 -302 -261 -302c-125 0 -205 75 -205 206c0 158 98 297 259 297zM293 396c-86 0 -142 -93 -142 -185c0 -68 36 -119 98 -119c88 0 147 86 147 192c0 92 -61 112 -103 112zM220 -244c-41 0 -72 30 -72 71c0 42 32 74 75 74
c41 0 71 -31 71 -71c0 -43 -32 -74 -74 -74z" />
    <glyph glyph-name="ograve" unicode="&#xf2;" horiz-adv-x="548" 
d="M292 700l83 -144h-111l-94 145zM300 495c124 0 207 -71 207 -201c0 -168 -92 -302 -261 -302c-125 0 -205 75 -205 206c0 158 98 297 259 297zM293 396c-86 0 -142 -93 -142 -185c0 -68 36 -119 98 -119c88 0 147 86 147 192c0 92 -61 112 -103 112z" />
    <glyph glyph-name="uni1ECF" unicode="&#x1ecf;" horiz-adv-x="548" 
d="M267 625l-38 46c28 27 74 46 115 46c56 0 85 -31 85 -73c-1 -43 -31 -73 -89 -85l-13 -26l-39 2c-9 9 -16 19 -15 33c4 30 86 39 86 76c0 9 -8 14 -21 14c-27 0 -53 -14 -71 -33zM300 495c124 0 207 -71 207 -201c0 -168 -92 -302 -261 -302c-125 0 -205 75 -205 206
c0 158 98 297 259 297zM293 396c-86 0 -142 -93 -142 -185c0 -68 36 -119 98 -119c88 0 147 86 147 192c0 92 -61 112 -103 112z" />
    <glyph glyph-name="ohorn" unicode="&#x1a1;" horiz-adv-x="636" 
d="M553 565h104l-12 -91c-15 -111 -65 -166 -138 -174v-6c0 -168 -92 -302 -261 -302c-125 0 -205 75 -205 206c0 158 98 297 259 297c98 0 170 -44 196 -126c33 9 40 61 48 123zM249 92c88 0 147 86 147 192c0 92 -61 112 -103 112c-86 0 -142 -93 -142 -185
c0 -68 36 -119 98 -119z" />
    <glyph glyph-name="uni1EDB" unicode="&#x1edb;" horiz-adv-x="636" 
d="M499 701l-129 -145h-111l119 144zM553 565h104l-12 -91c-15 -111 -65 -166 -138 -174v-6c0 -168 -92 -302 -261 -302c-125 0 -205 75 -205 206c0 158 98 297 259 297c98 0 170 -44 196 -126c33 9 40 61 48 123zM249 92c88 0 147 86 147 192c0 92 -61 112 -103 112
c-86 0 -142 -93 -142 -185c0 -68 36 -119 98 -119z" />
    <glyph glyph-name="uni1EE3" unicode="&#x1ee3;" horiz-adv-x="636" 
d="M553 565h104l-12 -91c-15 -111 -65 -166 -138 -174v-6c0 -168 -92 -302 -261 -302c-125 0 -205 75 -205 206c0 158 98 297 259 297c98 0 170 -44 196 -126c33 9 40 61 48 123zM249 92c88 0 147 86 147 192c0 92 -61 112 -103 112c-86 0 -142 -93 -142 -185
c0 -68 36 -119 98 -119zM223 -99c41 0 71 -31 71 -71c0 -43 -32 -74 -74 -74c-41 0 -72 30 -72 71c0 42 32 74 75 74z" />
    <glyph glyph-name="uni1EDD" unicode="&#x1edd;" horiz-adv-x="636" 
d="M375 556h-111l-94 145l122 -1zM553 565h104l-12 -91c-15 -111 -65 -166 -138 -174v-6c0 -168 -92 -302 -261 -302c-125 0 -205 75 -205 206c0 158 98 297 259 297c98 0 170 -44 196 -126c33 9 40 61 48 123zM249 92c88 0 147 86 147 192c0 92 -61 112 -103 112
c-86 0 -142 -93 -142 -185c0 -68 36 -119 98 -119z" />
    <glyph glyph-name="uni1EDF" unicode="&#x1edf;" horiz-adv-x="636" 
d="M338 658c-27 0 -53 -14 -71 -33l-38 46c28 27 74 46 115 46c56 0 85 -31 85 -73c-1 -43 -31 -73 -89 -85l-13 -26l-39 2c-9 9 -16 19 -15 33c4 30 86 39 86 76c0 9 -8 14 -21 14zM553 565h104l-12 -91c-15 -111 -65 -166 -138 -174v-6c0 -168 -92 -302 -261 -302
c-125 0 -205 75 -205 206c0 158 98 297 259 297c98 0 170 -44 196 -126c33 9 40 61 48 123zM249 92c88 0 147 86 147 192c0 92 -61 112 -103 112c-86 0 -142 -93 -142 -185c0 -68 36 -119 98 -119z" />
    <glyph glyph-name="uni1EE1" unicode="&#x1ee1;" horiz-adv-x="636" 
d="M275 608c-25 0 -46 -22 -60 -54l-68 35c27 64 67 107 118 107c39 0 55 -18 73 -30c16 -11 31 -23 47 -23c24 0 46 21 60 53l68 -26c-27 -73 -69 -116 -116 -116c-36 0 -59 21 -76 32c-16 12 -31 22 -46 22zM553 565h104l-12 -91c-15 -111 -65 -166 -138 -174v-6
c0 -168 -92 -302 -261 -302c-125 0 -205 75 -205 206c0 158 98 297 259 297c98 0 170 -44 196 -126c33 9 40 61 48 123zM249 92c88 0 147 86 147 192c0 92 -61 112 -103 112c-86 0 -142 -93 -142 -185c0 -68 36 -119 98 -119z" />
    <glyph glyph-name="ohungarumlaut" unicode="&#x151;" horiz-adv-x="555" 
d="M285 700l116 1l-129 -145h-106zM468 700l116 1l-129 -145h-105zM300 495c124 0 207 -71 207 -201c0 -168 -92 -302 -261 -302c-125 0 -205 75 -205 206c0 158 98 297 259 297zM293 396c-86 0 -142 -93 -142 -185c0 -68 36 -119 98 -119c88 0 147 86 147 192
c0 92 -61 112 -103 112z" />
    <glyph glyph-name="omacron" unicode="&#x14d;" horiz-adv-x="548" 
d="M196 677h274l-11 -92h-274zM300 495c124 0 207 -71 207 -201c0 -168 -92 -302 -261 -302c-125 0 -205 75 -205 206c0 158 98 297 259 297zM293 396c-86 0 -142 -93 -142 -185c0 -68 36 -119 98 -119c88 0 147 86 147 192c0 92 -61 112 -103 112z" />
    <glyph glyph-name="uni01EB" unicode="&#x1eb;" horiz-adv-x="548" 
d="M285 -5c-44 -16 -73 -51 -73 -82c0 -19 11 -30 28 -30c18 0 31 3 40 8l2 -68c-19 -9 -49 -11 -69 -11c-61 0 -92 27 -92 75c0 41 27 82 62 110v2c-88 22 -142 91 -142 199c0 158 98 297 259 297c124 0 207 -71 207 -201c0 -155 -78 -280 -222 -299zM293 396
c-86 0 -142 -93 -142 -185c0 -68 36 -119 98 -119c88 0 147 86 147 192c0 92 -61 112 -103 112z" />
    <glyph glyph-name="oslash" unicode="&#xf8;" horiz-adv-x="552" 
d="M532 460l-52 -54c17 -31 27 -68 27 -112c0 -168 -92 -302 -261 -302c-51 0 -94 12 -128 36l-50 -53l-49 50l52 54c-20 32 -30 72 -30 119c0 158 98 297 259 297c53 0 98 -13 133 -38l50 53zM151 211c0 -15 2 -29 5 -43l200 210c-20 14 -43 18 -63 18
c-86 0 -142 -93 -142 -185zM396 284c0 11 -1 22 -3 31l-198 -207c15 -10 33 -16 54 -16c88 0 147 86 147 192z" />
    <glyph glyph-name="oslashacute" unicode="&#x1ff;" horiz-adv-x="552" 
d="M495 701l-129 -145h-111l119 144zM532 460l-52 -54c17 -31 27 -68 27 -112c0 -168 -92 -302 -261 -302c-51 0 -94 12 -128 36l-50 -53l-49 50l52 54c-20 32 -30 72 -30 119c0 158 98 297 259 297c53 0 98 -13 133 -38l50 53zM151 211c0 -15 2 -29 5 -43l200 210
c-20 14 -43 18 -63 18c-86 0 -142 -93 -142 -185zM396 284c0 11 -1 22 -3 31l-198 -207c15 -10 33 -16 54 -16c88 0 147 86 147 192z" />
    <glyph glyph-name="otilde" unicode="&#xf5;" horiz-adv-x="548" 
d="M147 589c27 64 67 107 118 107c39 0 55 -18 73 -30c16 -11 31 -23 47 -23c24 0 46 21 60 53l68 -26c-27 -73 -69 -116 -116 -116c-36 0 -59 21 -76 32c-16 12 -31 22 -46 22c-25 0 -46 -22 -60 -54zM300 495c124 0 207 -71 207 -201c0 -168 -92 -302 -261 -302
c-125 0 -205 75 -205 206c0 158 98 297 259 297zM293 396c-86 0 -142 -93 -142 -185c0 -68 36 -119 98 -119c88 0 147 86 147 192c0 92 -61 112 -103 112z" />
    <glyph glyph-name="oe" unicode="&#x153;" horiz-adv-x="732" 
d="M528 93c21 0 61 7 96 52l85 -62c-50 -62 -113 -90 -184 -90c-69 0 -126 27 -160 78h-2c-40 -48 -95 -78 -161 -78c-113 0 -175 81 -175 198c0 160 88 304 244 304c56 0 107 -21 137 -78h3c43 48 101 78 167 78c82 0 145 -42 145 -118c0 -117 -109 -186 -278 -217l-1 -1
c13 -45 50 -66 84 -66zM212 93c65 0 124 84 124 197c0 67 -30 106 -69 106c-74 0 -129 -97 -129 -197c0 -77 38 -106 74 -106zM566 396c-43 0 -105 -52 -122 -147l1 -1c101 23 167 65 167 115c0 16 -14 33 -46 33z" />
    <glyph glyph-name="p" unicode="p" horiz-adv-x="571" 
d="M374 495c106 0 157 -93 157 -198c0 -153 -93 -305 -242 -305c-50 0 -96 12 -130 44h-2l-29 -234h-109l84 686h109l-11 -93h2c44 66 99 100 171 100zM273 91c89 0 147 98 147 214c0 45 -22 92 -72 92c-75 0 -156 -90 -176 -237l-3 -21c17 -31 57 -48 104 -48z" />
    <glyph glyph-name="thorn" unicode="&#xfe;" horiz-adv-x="571" 
d="M374 495c105 0 157 -93 157 -198c0 -153 -94 -305 -242 -305c-50 0 -96 12 -130 43h-2l-29 -233h-109l114 934h110l-42 -339h2c44 65 100 98 171 98zM272 91c89 0 147 98 147 214c0 45 -22 92 -72 92c-73 0 -151 -86 -174 -225l-4 -34c17 -30 56 -47 103 -47z" />
    <glyph glyph-name="q" unicode="q" horiz-adv-x="561" 
d="M415 488h109l-84 -686h-109l36 291h-2c-46 -68 -106 -101 -158 -101c-116 0 -168 89 -168 198c0 154 94 305 240 305c49 0 95 -14 129 -46h2zM228 89c68 0 149 93 168 243l2 18c-29 29 -73 46 -111 46c-86 0 -137 -109 -137 -208c0 -60 27 -99 78 -99z" />
    <glyph glyph-name="r" unicode="r" horiz-adv-x="356" 
d="M204 399c46 64 102 95 161 96l-15 -125c-99 18 -159 -65 -175 -187l-22 -183h-110l61 488h109l-11 -89h2z" />
    <glyph glyph-name="racute" unicode="&#x155;" horiz-adv-x="357" 
d="M392 701l-129 -145h-111l119 144zM204 399c46 64 102 95 161 96l-15 -125c-99 18 -159 -65 -175 -187l-22 -183h-110l61 488h109l-11 -89h2z" />
    <glyph glyph-name="rcaron" unicode="&#x159;" horiz-adv-x="356" 
d="M309 554h-104l-85 147h106l35 -77h3l55 77h110zM204 399c46 64 102 95 161 96l-15 -125c-99 18 -159 -65 -175 -187l-22 -183h-110l61 488h109l-11 -89h2z" />
    <glyph glyph-name="rcommaaccent" unicode="&#x157;" horiz-adv-x="356" 
d="M204 399c46 64 102 95 161 96l-15 -125c-99 18 -159 -65 -175 -187l-22 -183h-110l61 488h109l-11 -89h2zM43 -77c0 8 -1 14 -2 24h98v-22c0 -81 -48 -135 -139 -144l-16 65c42 16 59 34 59 77z" />
    <glyph glyph-name="s" unicode="s" horiz-adv-x="427" 
d="M85 147c28 -37 67 -59 107 -59c42 0 77 17 77 48c0 28 -33 40 -89 66c-68 30 -121 72 -121 144c0 90 77 149 169 149c60 0 126 -20 170 -69l-73 -74c-29 36 -68 49 -98 49c-34 0 -57 -18 -57 -46s36 -49 80 -70c56 -28 129 -61 130 -136c1 -103 -76 -157 -188 -157
c-72 0 -145 33 -179 84z" />
    <glyph glyph-name="sacute" unicode="&#x15b;" horiz-adv-x="427" 
d="M298 700l121 1l-129 -145h-111zM85 147c28 -37 67 -59 107 -59c42 0 77 17 77 48c0 28 -33 40 -89 66c-68 30 -121 72 -121 144c0 90 77 149 169 149c60 0 126 -20 170 -69l-73 -74c-29 36 -68 49 -98 49c-34 0 -57 -18 -57 -46s36 -49 80 -70c56 -28 129 -61 130 -136
c1 -103 -76 -157 -188 -157c-72 0 -145 33 -179 84z" />
    <glyph glyph-name="scaron" unicode="&#x161;" horiz-adv-x="427" 
d="M307 554h-104l-85 147h106l35 -77h3l55 77h110zM227 401c-34 0 -57 -18 -57 -46s36 -49 80 -70c56 -28 129 -61 130 -136c1 -103 -76 -157 -188 -157c-72 0 -145 33 -179 84l72 71c28 -37 67 -59 107 -59c42 0 77 17 77 48c0 28 -33 40 -89 66c-68 30 -121 72 -121 144
c0 90 77 149 169 149c60 0 126 -20 170 -69l-73 -74c-29 36 -68 49 -98 49z" />
    <glyph glyph-name="scedilla" unicode="&#x15f;" horiz-adv-x="427" 
d="M250 285c56 -28 129 -61 130 -136c1 -103 -76 -157 -188 -157h-3l-15 -23l1 -1c48 -2 75 -23 75 -66c0 -49 -46 -92 -115 -92c-19 0 -44 3 -57 6l3 54c11 -5 28 -6 43 -6c32 0 52 13 52 37c0 19 -22 27 -69 27l2 36l21 36c-49 13 -93 40 -117 76l72 71
c28 -37 67 -59 107 -59c42 0 77 17 77 48c0 28 -33 40 -89 66c-68 30 -121 72 -121 144c0 90 77 149 169 149c60 0 126 -20 170 -69l-73 -74c-29 36 -68 49 -98 49c-34 0 -57 -18 -57 -46s36 -49 80 -70z" />
    <glyph glyph-name="scircumflex" unicode="&#x15d;" horiz-adv-x="427" 
d="M263 630l-55 -76h-110l118 147h104l87 -147h-106l-36 76h-2zM227 401c-34 0 -57 -18 -57 -46s36 -49 80 -70c56 -28 129 -61 130 -136c1 -103 -76 -157 -188 -157c-72 0 -145 33 -179 84l72 71c28 -37 67 -59 107 -59c42 0 77 17 77 48c0 28 -33 40 -89 66
c-68 30 -121 72 -121 144c0 90 77 149 169 149c60 0 126 -20 170 -69l-73 -74c-29 36 -68 49 -98 49z" />
    <glyph glyph-name="scommaaccent" unicode="&#x219;" horiz-adv-x="427" 
d="M250 285c56 -28 129 -61 130 -136c1 -103 -76 -157 -188 -157c-72 0 -145 33 -179 84l72 71c28 -37 67 -59 107 -59c42 0 77 17 77 48c0 28 -33 40 -89 66c-68 30 -121 72 -121 144c0 90 77 149 169 149c60 0 126 -20 170 -69l-73 -74c-29 36 -68 49 -98 49
c-34 0 -57 -18 -57 -46s36 -49 80 -70zM128 -77c0 8 -1 14 -2 24h98v-22c0 -81 -48 -135 -139 -144l-16 65c42 16 59 34 59 77z" />
    <glyph glyph-name="germandbls" unicode="&#xdf;" horiz-adv-x="618" 
d="M588 146c0 -101 -75 -154 -183 -154c-75 0 -148 33 -183 84l74 70c27 -37 66 -58 108 -58s73 22 73 53c0 28 -26 40 -76 68c-70 41 -120 76 -120 142c0 69 61 102 104 145c25 24 42 53 42 86c0 36 -29 63 -81 63c-63 0 -117 -29 -130 -126l-63 -519h-110l66 532
c17 142 111 212 229 212c137 0 200 -68 200 -160c0 -68 -38 -109 -87 -149c-32 -26 -59 -47 -59 -70c0 -16 10 -33 70 -69c68 -40 126 -68 126 -150z" />
    <glyph glyph-name="longs" unicode="&#x17f;" horiz-adv-x="315" 
d="M354 620c-24 17 -47 24 -63 24c-27 0 -49 -13 -57 -76l-70 -568h-109l48 395h-46l11 93h47l12 101c13 104 65 155 145 155c41 0 75 -7 111 -33z" />
    <glyph glyph-name="uni0259" unicode="&#x259;" horiz-adv-x="460" 
d="M244 495c108 0 189 -75 189 -207c0 -149 -89 -295 -270 -295c-79 0 -142 48 -142 123c0 129 145 191 301 209c-11 48 -47 71 -91 71c-23 0 -69 -13 -106 -47l-65 73c52 45 116 73 184 73zM176 93c61 0 124 44 143 138l-1 1c-95 -12 -187 -43 -187 -102
c0 -18 13 -37 45 -37z" />
    <glyph glyph-name="t" unicode="t" horiz-adv-x="338" 
d="M277 122l15 -96c-36 -22 -84 -34 -123 -34c-84 0 -117 58 -107 143l32 260h-52l11 93h52l20 152l111 22l-21 -174h119l-11 -93h-119l-30 -240c-5 -42 9 -58 33 -58c18 0 43 9 70 25z" />
    <glyph glyph-name="tbar" unicode="&#x167;" horiz-adv-x="338" 
d="M323 395h-119l-11 -92h99l-10 -75h-99l-9 -73c-5 -42 9 -58 33 -58c18 0 43 9 70 25l15 -96c-36 -22 -84 -34 -123 -34c-84 0 -117 58 -107 143l11 93h-46l10 75h46l11 92h-52l11 93h52l20 152l111 22l-21 -174h119z" />
    <glyph glyph-name="tcaron" unicode="&#x165;" horiz-adv-x="352" 
d="M334 781h112l-81 -198h-83zM277 122l15 -96c-36 -22 -84 -34 -123 -34c-84 0 -117 58 -107 143l32 260h-52l11 93h52l20 152l111 22l-21 -174h119l-11 -93h-119l-30 -240c-5 -42 9 -58 33 -58c18 0 43 9 70 25z" />
    <glyph glyph-name="uni0163" unicode="&#x163;" horiz-adv-x="338" 
d="M204 395l-30 -240c-5 -42 9 -58 33 -58c18 0 43 9 70 25l15 -96c-36 -22 -83 -34 -122 -34l-15 -23l1 -1c48 -2 75 -23 75 -66c0 -49 -46 -92 -115 -92c-19 0 -44 3 -57 6l3 54c11 -5 28 -6 43 -6c32 0 52 13 52 37c0 19 -22 27 -69 27l2 36l23 40c-43 21 -58 69 -51 131
l32 260h-52l11 93h52l20 152l111 22l-21 -174h119l-11 -93h-119z" />
    <glyph glyph-name="uni021B" unicode="&#x21b;" horiz-adv-x="338" 
d="M204 395l-30 -240c-5 -42 9 -58 33 -58c18 0 43 9 70 25l15 -96c-36 -22 -84 -34 -123 -34c-84 0 -117 58 -107 143l32 260h-52l11 93h52l20 152l111 22l-21 -174h119l-11 -93h-119zM109 -77c0 8 -1 14 -2 24h98v-22c0 -81 -48 -135 -139 -144l-16 65c42 16 59 34 59 77z
" />
    <glyph glyph-name="u" unicode="u" horiz-adv-x="542" 
d="M396 488h110l-60 -488h-110l11 87h-2c-37 -56 -90 -95 -161 -95c-101 0 -146 57 -129 196l37 300h109l-34 -290c-10 -80 7 -106 51 -106c52 0 133 79 152 185z" />
    <glyph glyph-name="uacute" unicode="&#xfa;" horiz-adv-x="542" 
d="M488 701l-129 -145h-111l119 144zM396 488h110l-60 -488h-110l11 87h-2c-37 -56 -90 -95 -161 -95c-101 0 -146 57 -129 196l37 300h109l-34 -290c-10 -80 7 -106 51 -106c52 0 133 79 152 185z" />
    <glyph glyph-name="ubreve" unicode="&#x16d;" horiz-adv-x="542" 
d="M315 551c-82 0 -141 53 -133 146h85c-4 -41 9 -69 49 -69c38 0 66 30 74 69h85c-17 -88 -77 -146 -160 -146zM396 488h110l-60 -488h-110l11 87h-2c-37 -56 -90 -95 -161 -95c-101 0 -146 57 -129 196l37 300h109l-34 -290c-10 -80 7 -106 51 -106c52 0 133 79 152 185z
" />
    <glyph glyph-name="ucircumflex" unicode="&#xfb;" horiz-adv-x="542" 
d="M320 630l-55 -76h-110l118 147h104l87 -147h-106l-36 76h-2zM396 488h110l-60 -488h-110l11 87h-2c-37 -56 -90 -95 -161 -95c-101 0 -146 57 -129 196l37 300h109l-34 -290c-10 -80 7 -106 51 -106c52 0 133 79 152 185z" />
    <glyph glyph-name="udieresis" unicode="&#xfc;" horiz-adv-x="542" 
d="M225 562c-41 0 -72 31 -72 71c0 43 32 74 75 74c40 0 71 -30 71 -71c0 -42 -32 -74 -74 -74zM415 562c-42 0 -72 31 -72 71c0 43 32 74 75 74c40 0 71 -30 71 -71c0 -42 -32 -74 -74 -74zM396 488h110l-60 -488h-110l11 87h-2c-37 -56 -90 -95 -161 -95
c-101 0 -146 57 -129 196l37 300h109l-34 -290c-10 -80 7 -106 51 -106c52 0 133 79 152 185z" />
    <glyph glyph-name="uni1EE5" unicode="&#x1ee5;" horiz-adv-x="542" 
d="M396 488h110l-60 -488h-110l11 87h-2c-37 -56 -90 -95 -161 -95c-101 0 -146 57 -129 196l37 300h109l-34 -290c-10 -80 7 -106 51 -106c52 0 133 79 152 185zM225 -99c41 0 71 -31 71 -71c0 -43 -32 -74 -74 -74c-41 0 -72 30 -72 71c0 42 32 74 75 74z" />
    <glyph glyph-name="ugrave" unicode="&#xf9;" horiz-adv-x="542" 
d="M373 556h-111l-94 145l122 -1zM396 488h110l-60 -488h-110l11 87h-2c-37 -56 -90 -95 -161 -95c-101 0 -146 57 -129 196l37 300h109l-34 -290c-10 -80 7 -106 51 -106c52 0 133 79 152 185z" />
    <glyph glyph-name="uni1EE7" unicode="&#x1ee7;" horiz-adv-x="542" 
d="M331 658c-27 0 -53 -14 -71 -33l-38 46c28 27 74 46 115 46c56 0 85 -31 85 -73c-1 -43 -31 -73 -89 -85l-13 -26l-39 2c-9 9 -16 19 -15 33c4 30 86 39 86 76c0 9 -8 14 -21 14zM396 488h110l-60 -488h-110l11 87h-2c-37 -56 -90 -95 -161 -95c-101 0 -146 57 -129 196
l37 300h109l-34 -290c-10 -80 7 -106 51 -106c52 0 133 79 152 185z" />
    <glyph glyph-name="uhorn" unicode="&#x1b0;" horiz-adv-x="646" 
d="M569 565h104l-12 -91c-16 -120 -74 -175 -157 -175c-6 0 -13 0 -21 2l-37 -301h-110l11 87h-2c-37 -56 -90 -95 -161 -95c-101 0 -146 57 -129 196l37 300h109l-34 -290c-10 -80 7 -106 51 -106c52 0 133 79 152 185l26 211h110l-15 -120c3 -1 6 -1 9 -1
c44 0 51 56 60 125z" />
    <glyph glyph-name="uni1EE9" unicode="&#x1ee9;" horiz-adv-x="646" 
d="M488 701l-129 -145h-111l119 144zM569 565h104l-12 -91c-16 -120 -74 -175 -157 -175c-6 0 -13 0 -21 2l-37 -301h-110l11 87h-2c-37 -56 -90 -95 -161 -95c-101 0 -146 57 -129 196l37 300h109l-34 -290c-10 -80 7 -106 51 -106c52 0 133 79 152 185l26 211h110
l-15 -120c3 -1 6 -1 9 -1c44 0 51 56 60 125z" />
    <glyph glyph-name="uni1EF1" unicode="&#x1ef1;" horiz-adv-x="646" 
d="M569 565h104l-12 -91c-16 -120 -74 -175 -157 -175c-6 0 -13 0 -21 2l-37 -301h-110l11 87h-2c-37 -56 -90 -95 -161 -95c-101 0 -146 57 -129 196l37 300h109l-34 -290c-10 -80 7 -106 51 -106c52 0 133 79 152 185l26 211h110l-15 -120c3 -1 6 -1 9 -1
c44 0 51 56 60 125zM225 -99c41 0 71 -31 71 -71c0 -43 -32 -74 -74 -74c-41 0 -72 30 -72 71c0 42 32 74 75 74z" />
    <glyph glyph-name="uni1EEB" unicode="&#x1eeb;" horiz-adv-x="646" 
d="M373 556h-111l-94 145l122 -1zM569 565h104l-12 -91c-16 -120 -74 -175 -157 -175c-6 0 -13 0 -21 2l-37 -301h-110l11 87h-2c-37 -56 -90 -95 -161 -95c-101 0 -146 57 -129 196l37 300h109l-34 -290c-10 -80 7 -106 51 -106c52 0 133 79 152 185l26 211h110l-15 -120
c3 -1 6 -1 9 -1c44 0 51 56 60 125z" />
    <glyph glyph-name="uni1EED" unicode="&#x1eed;" horiz-adv-x="646" 
d="M331 658c-27 0 -53 -14 -71 -33l-38 46c28 27 74 46 115 46c56 0 85 -31 85 -73c-1 -43 -31 -73 -89 -85l-13 -26l-39 2c-9 9 -16 19 -15 33c4 30 86 39 86 76c0 9 -8 14 -21 14zM569 565h104l-12 -91c-16 -120 -74 -175 -157 -175c-6 0 -13 0 -21 2l-37 -301h-110l11 87
h-2c-37 -56 -90 -95 -161 -95c-101 0 -146 57 -129 196l37 300h109l-34 -290c-10 -80 7 -106 51 -106c52 0 133 79 152 185l26 211h110l-15 -120c3 -1 6 -1 9 -1c44 0 51 56 60 125z" />
    <glyph glyph-name="uni1EEF" unicode="&#x1eef;" horiz-adv-x="646" 
d="M268 608c-25 0 -46 -22 -60 -54l-68 35c27 64 67 107 118 107c39 0 55 -18 73 -30c16 -11 31 -23 47 -23c24 0 46 21 60 53l68 -26c-27 -73 -69 -116 -116 -116c-36 0 -59 21 -76 32c-16 12 -31 22 -46 22zM569 565h104l-12 -91c-16 -120 -74 -175 -157 -175
c-6 0 -13 0 -21 2l-37 -301h-110l11 87h-2c-37 -56 -90 -95 -161 -95c-101 0 -146 57 -129 196l37 300h109l-34 -290c-10 -80 7 -106 51 -106c52 0 133 79 152 185l26 211h110l-15 -120c3 -1 6 -1 9 -1c44 0 51 56 60 125z" />
    <glyph glyph-name="uhungarumlaut" unicode="&#x171;" horiz-adv-x="553" 
d="M392 701l-129 -145h-106l119 144zM446 556h-105l118 144l116 1zM370 277l26 211h110l-60 -488h-110l11 87h-2c-37 -56 -90 -95 -161 -95c-101 0 -146 57 -129 196l37 300h109l-34 -290c-10 -80 7 -106 51 -106c52 0 133 79 152 185z" />
    <glyph glyph-name="umacron" unicode="&#x16b;" horiz-adv-x="542" 
d="M463 677l-11 -92h-274l11 92h274zM396 488h110l-60 -488h-110l11 87h-2c-37 -56 -90 -95 -161 -95c-101 0 -146 57 -129 196l37 300h109l-34 -290c-10 -80 7 -106 51 -106c52 0 133 79 152 185z" />
    <glyph glyph-name="uogonek" unicode="&#x173;" horiz-adv-x="542" 
d="M396 488h110l-60 -488h-3c-55 -11 -93 -51 -93 -87c0 -19 11 -30 28 -30c18 0 31 3 40 8l2 -68c-19 -9 -49 -11 -69 -11c-61 0 -92 27 -92 75c0 47 35 94 78 121l10 79h-2c-37 -56 -90 -95 -161 -95c-101 0 -146 57 -129 196l37 300h109l-34 -290c-10 -80 7 -106 51 -106
c52 0 133 79 152 185z" />
    <glyph glyph-name="uring" unicode="&#x16f;" horiz-adv-x="542" 
d="M321 531c-58 0 -103 44 -103 103c0 60 46 105 107 105c59 0 103 -44 103 -102c0 -61 -46 -106 -107 -106zM324 674c-22 0 -39 -18 -39 -39c0 -22 16 -38 38 -38s39 17 39 39c0 21 -17 38 -38 38zM396 488h110l-60 -488h-110l11 87h-2c-37 -56 -90 -95 -161 -95
c-101 0 -146 57 -129 196l37 300h109l-34 -290c-10 -80 7 -106 51 -106c52 0 133 79 152 185z" />
    <glyph glyph-name="utilde" unicode="&#x169;" horiz-adv-x="542" 
d="M268 608c-25 0 -46 -22 -60 -54l-68 35c27 64 67 107 118 107c39 0 55 -18 73 -30c16 -11 31 -23 47 -23c24 0 46 21 60 53l68 -26c-27 -73 -69 -116 -116 -116c-36 0 -59 21 -76 32c-16 12 -31 22 -46 22zM370 277l26 211h110l-60 -488h-110l11 87h-2
c-37 -56 -90 -95 -161 -95c-101 0 -146 57 -129 196l37 300h109l-34 -290c-10 -80 7 -106 51 -106c52 0 133 79 152 185z" />
    <glyph glyph-name="v" unicode="v" horiz-adv-x="507" 
d="M202 -8c-117 0 -160 76 -143 216l35 280h110l-34 -271c-10 -86 -1 -125 44 -125c53 0 135 72 151 244c5 53 2 99 -6 152h112c8 -44 10 -97 8 -141c-18 -256 -146 -355 -277 -355z" />
    <glyph glyph-name="w" unicode="w" horiz-adv-x="704" 
d="M668 488c11 -61 11 -95 5 -161c-19 -233 -146 -335 -255 -335c-63 0 -100 27 -113 86h-3c-34 -60 -79 -86 -130 -86c-91 0 -131 71 -114 206l36 290h110l-35 -281c-9 -76 4 -115 32 -115c32 0 83 48 99 149l32 247h109l-35 -285c-10 -80 4 -111 30 -111
c37 0 111 82 128 249c4 48 0 94 -7 147h111z" />
    <glyph glyph-name="wacute" unicode="&#x1e83;" horiz-adv-x="704" 
d="M580 701l-129 -145h-111l119 144zM668 488c11 -61 11 -95 5 -161c-19 -233 -146 -335 -255 -335c-63 0 -100 27 -113 86h-3c-34 -60 -79 -86 -130 -86c-91 0 -131 71 -114 206l36 290h110l-35 -281c-9 -76 4 -115 32 -115c32 0 83 48 99 149l32 247h109l-35 -285
c-10 -80 4 -111 30 -111c37 0 111 82 128 249c4 48 0 94 -7 147h111z" />
    <glyph glyph-name="wcircumflex" unicode="&#x175;" horiz-adv-x="704" 
d="M404 630l-55 -76h-110l118 147h104l87 -147h-106l-36 76h-2zM668 488c11 -61 11 -95 5 -161c-19 -233 -146 -335 -255 -335c-63 0 -100 27 -113 86h-3c-34 -60 -79 -86 -130 -86c-91 0 -131 71 -114 206l36 290h110l-35 -281c-9 -76 4 -115 32 -115c32 0 83 48 99 149
l32 247h109l-35 -285c-10 -80 4 -111 30 -111c37 0 111 82 128 249c4 48 0 94 -7 147h111z" />
    <glyph glyph-name="wdieresis" unicode="&#x1e85;" horiz-adv-x="704" 
d="M309 562c-41 0 -72 31 -72 71c0 43 32 74 75 74c40 0 71 -30 71 -71c0 -42 -32 -74 -74 -74zM499 562c-42 0 -72 31 -72 71c0 43 32 74 75 74c40 0 71 -30 71 -71c0 -42 -32 -74 -74 -74zM668 488c11 -61 11 -95 5 -161c-19 -233 -146 -335 -255 -335
c-63 0 -100 27 -113 86h-3c-34 -60 -79 -86 -130 -86c-91 0 -131 71 -114 206l36 290h110l-35 -281c-9 -76 4 -115 32 -115c32 0 83 48 99 149l32 247h109l-35 -285c-10 -80 4 -111 30 -111c37 0 111 82 128 249c4 48 0 94 -7 147h111z" />
    <glyph glyph-name="wgrave" unicode="&#x1e81;" horiz-adv-x="704" 
d="M455 556h-111l-94 145l122 -1zM668 488c11 -61 11 -95 5 -161c-19 -233 -146 -335 -255 -335c-63 0 -100 27 -113 86h-3c-34 -60 -79 -86 -130 -86c-91 0 -131 71 -114 206l36 290h110l-35 -281c-9 -76 4 -115 32 -115c32 0 83 48 99 149l32 247h109l-35 -285
c-10 -80 4 -111 30 -111c37 0 111 82 128 249c4 48 0 94 -7 147h111z" />
    <glyph glyph-name="x" unicode="x" horiz-adv-x="488" 
d="M491 488l-181 -241l122 -247h-126l-74 155h-2l-110 -155h-125l183 249l-120 239h126l66 -154h2l106 154h133z" />
    <glyph glyph-name="y" unicode="y" horiz-adv-x="545" 
d="M401 488h108l-52 -427c-26 -218 -146 -267 -266 -267c-56 0 -118 15 -169 48l36 95c42 -27 83 -43 133 -43c80 0 140 29 158 175l2 18h-2c-38 -56 -92 -95 -165 -95c-101 0 -146 57 -129 196l37 300h109l-34 -290c-10 -80 7 -105 51 -106c59 0 145 85 158 198z" />
    <glyph glyph-name="yacute" unicode="&#xfd;" horiz-adv-x="545" 
d="M482 701l-129 -145h-111l119 144zM401 488h108l-52 -427c-26 -218 -146 -267 -266 -267c-56 0 -118 15 -169 48l36 95c42 -27 83 -43 133 -43c80 0 140 29 158 175l2 18h-2c-38 -56 -92 -95 -165 -95c-101 0 -146 57 -129 196l37 300h109l-34 -290
c-10 -80 7 -105 51 -106c59 0 145 85 158 198z" />
    <glyph glyph-name="ycircumflex" unicode="&#x177;" horiz-adv-x="545" 
d="M322 630l-55 -76h-110l118 147h104l87 -147h-106l-36 76h-2zM401 488h108l-52 -427c-26 -218 -146 -267 -266 -267c-56 0 -118 15 -169 48l36 95c42 -27 83 -43 133 -43c80 0 140 29 158 175l2 18h-2c-38 -56 -92 -95 -165 -95c-101 0 -146 57 -129 196l37 300h109
l-34 -290c-10 -80 7 -105 51 -106c59 0 145 85 158 198z" />
    <glyph glyph-name="ydieresis" unicode="&#xff;" horiz-adv-x="545" 
d="M227 562c-41 0 -72 31 -72 71c0 43 32 74 75 74c40 0 71 -30 71 -71c0 -42 -32 -74 -74 -74zM417 562c-42 0 -72 31 -72 71c0 43 32 74 75 74c40 0 71 -30 71 -71c0 -42 -32 -74 -74 -74zM401 488h108l-52 -427c-26 -218 -146 -267 -266 -267c-56 0 -118 15 -169 48
l36 95c42 -27 83 -43 133 -43c80 0 140 29 158 175l2 18h-2c-38 -56 -92 -95 -165 -95c-101 0 -146 57 -129 196l37 300h109l-34 -290c-10 -80 7 -105 51 -106c59 0 145 85 158 198z" />
    <glyph glyph-name="uni1EF5" unicode="&#x1ef5;" horiz-adv-x="545" 
d="M401 488h108l-52 -427c-26 -218 -146 -267 -266 -267c-56 0 -118 15 -169 48l36 95c42 -27 83 -43 133 -43c80 0 140 29 158 175l2 18h-2c-38 -56 -92 -95 -165 -95c-101 0 -146 57 -129 196l37 300h109l-34 -290c-10 -80 7 -105 51 -106c59 0 145 85 158 198zM213 -244
c41 0 71 -31 71 -71c0 -43 -32 -74 -74 -74c-41 0 -72 30 -72 71c0 42 32 74 75 74z" />
    <glyph glyph-name="ygrave" unicode="&#x1ef3;" horiz-adv-x="545" 
d="M371 556h-111l-94 145l122 -1zM401 488h108l-52 -427c-26 -218 -146 -267 -266 -267c-56 0 -118 15 -169 48l36 95c42 -27 83 -43 133 -43c80 0 140 29 158 175l2 18h-2c-38 -56 -92 -95 -165 -95c-101 0 -146 57 -129 196l37 300h109l-34 -290c-10 -80 7 -105 51 -106
c59 0 145 85 158 198z" />
    <glyph glyph-name="uni1EF7" unicode="&#x1ef7;" horiz-adv-x="545" 
d="M333 658c-27 0 -53 -14 -71 -33l-38 46c28 27 74 46 115 46c56 0 85 -31 85 -73c-1 -43 -31 -73 -89 -85l-13 -26l-39 2c-9 9 -16 19 -15 33c4 30 86 39 86 76c0 9 -8 14 -21 14zM401 488h108l-52 -427c-26 -218 -146 -267 -266 -267c-56 0 -118 15 -169 48l36 95
c42 -27 83 -43 133 -43c80 0 140 29 158 175l2 18h-2c-38 -56 -92 -95 -165 -95c-101 0 -146 57 -129 196l37 300h109l-34 -290c-10 -80 7 -105 51 -106c59 0 145 85 158 198z" />
    <glyph glyph-name="uni0233" unicode="&#x233;" horiz-adv-x="545" 
d="M465 677l-11 -92h-274l11 92h274zM401 488h108l-52 -427c-26 -218 -146 -267 -266 -267c-56 0 -118 15 -169 48l36 95c42 -27 83 -43 133 -43c80 0 140 29 158 175l2 18h-2c-38 -56 -92 -95 -165 -95c-101 0 -146 57 -129 196l37 300h109l-34 -290
c-10 -80 7 -105 51 -106c59 0 145 85 158 198z" />
    <glyph glyph-name="uni1EF9" unicode="&#x1ef9;" horiz-adv-x="545" 
d="M270 608c-25 0 -46 -22 -60 -54l-68 35c27 64 67 107 118 107c39 0 55 -18 73 -30c16 -11 31 -23 47 -23c24 0 46 21 60 53l68 -26c-27 -73 -69 -116 -116 -116c-36 0 -59 21 -76 32c-16 12 -31 22 -46 22zM401 488h108l-52 -427c-26 -218 -146 -267 -266 -267
c-56 0 -118 15 -169 48l36 95c42 -27 83 -43 133 -43c80 0 140 29 158 175l2 18h-2c-38 -56 -92 -95 -165 -95c-101 0 -146 57 -129 196l37 300h109l-34 -290c-10 -80 7 -105 51 -106c59 0 145 85 158 198z" />
    <glyph glyph-name="z" unicode="z" horiz-adv-x="466" 
d="M434 412l-263 -317v-2c77 -2 160 -9 234 -32l-30 -90c-98 30 -234 29 -363 29l9 77l259 317v1h-204l11 93h355z" />
    <glyph glyph-name="zacute" unicode="&#x17a;" horiz-adv-x="466" 
d="M413 701l-129 -145h-111l119 144zM434 412l-263 -317v-2c77 -2 160 -9 234 -32l-30 -90c-98 30 -234 29 -363 29l9 77l259 317v1h-204l11 93h355z" />
    <glyph glyph-name="zcaron" unicode="&#x17e;" horiz-adv-x="466" 
d="M325 554h-104l-85 147h106l35 -77h3l55 77h110zM76 395l11 93h355l-8 -76l-263 -317v-2c77 -2 160 -9 234 -32l-30 -90c-98 30 -234 29 -363 29l9 77l259 317v1h-204z" />
    <glyph glyph-name="zdotaccent" unicode="&#x17c;" horiz-adv-x="466" 
d="M282 562c-41 0 -71 31 -71 71c0 43 32 74 74 74c41 0 72 -30 72 -71c0 -42 -32 -74 -75 -74zM434 412l-263 -317v-2c77 -2 160 -9 234 -32l-30 -90c-98 30 -234 29 -363 29l9 77l259 317v1h-204l11 93h355z" />
    <glyph glyph-name="f.calt" horiz-adv-x="313" 
d="M311 641c-8 2 -14 3 -20 3c-27 0 -49 -13 -57 -76l-9 -80h97l-11 -93h-99l-48 -395h-109l48 395h-46l11 93h47l12 101c13 104 65 155 145 155c24 0 46 -2 67 -10z" />
    <glyph glyph-name="germandbls.calt" horiz-adv-x="731" 
d="M525 405c90 -52 180 -88 180 -193c0 -145 -110 -220 -224 -220c-87 0 -168 38 -215 92l64 103c29 -60 89 -88 144 -88c60 0 107 46 107 102c1 54 -47 69 -121 112c-19 12 -40 23 -84 45l150 238v2c-55 7 -106 11 -136 11c-99 0 -155 -34 -167 -136l-59 -473h-117l59 479
c21 170 129 239 285 239c65 0 196 -20 305 -47l-171 -265v-1z" />
    <glyph glyph-name="ordfeminine" unicode="&#xaa;" horiz-adv-x="377" 
d="M292 687h76l-36 -293h-77l6 44h-3c-25 -29 -56 -49 -93 -49c-53 0 -102 39 -102 122c0 100 73 181 156 181c30 0 53 -10 68 -25h2zM180 462c38 0 89 44 98 122l2 10c-12 20 -38 25 -54 25c-51 0 -83 -58 -83 -108c0 -33 14 -49 37 -49z" />
    <glyph glyph-name="ordmasculine" unicode="&#xba;" horiz-adv-x="337" 
d="M223 692c68 0 123 -37 123 -122c0 -89 -51 -180 -158 -180c-74 0 -124 43 -124 124c0 90 54 178 159 178zM218 620c-40 0 -71 -48 -71 -98c0 -34 18 -60 44 -60c38 0 72 45 72 102c0 45 -28 56 -45 56z" />
    <glyph glyph-name="Alpha" unicode="&#x391;" 
d="M471 0l-29 154h-255l-67 -154h-124l324 710h123l150 -710h-122zM231 257h192l-58 305h-2z" />
    <glyph glyph-name="Beta" unicode="&#x392;" horiz-adv-x="613" 
d="M455 377c63 -18 105 -62 105 -144c0 -135 -89 -233 -237 -233h-261l87 710h229c128 0 191 -44 191 -147c0 -77 -41 -151 -114 -184v-2zM254 604l-23 -189h99c66 0 118 52 118 126c0 45 -31 63 -98 63h-96zM295 106c87 0 142 57 142 131c0 52 -33 76 -107 76h-111
l-26 -207h102z" />
    <glyph glyph-name="Gamma" unicode="&#x393;" horiz-adv-x="548" 
d="M557 604h-303l-74 -604h-118l87 710h421z" />
    <glyph glyph-name="uni0394" unicode="&#x394;" horiz-adv-x="617" 
d="M427 710l132 -619l-12 -91h-93h-431h-13l11 91l283 619h123zM151 106h283l-84 458h-1z" />
    <glyph glyph-name="Epsilon" unicode="&#x395;" horiz-adv-x="575" 
d="M502 106l-13 -106h-427l87 710h409l-14 -106h-291l-24 -199h235l-13 -106h-235l-24 -193h310z" />
    <glyph glyph-name="Zeta" unicode="&#x396;" horiz-adv-x="590" 
d="M573 619l-384 -510l-1 -3h322l-13 -106h-467l11 93l378 509v2h-303l13 106h454z" />
    <glyph glyph-name="Eta" unicode="&#x397;" horiz-adv-x="699" 
d="M665 710l-87 -710h-119l36 286h-280l-35 -286h-118l87 710h118l-39 -318h280l39 318h118z" />
    <glyph glyph-name="Theta" unicode="&#x398;" horiz-adv-x="764" 
d="M442 718c170 0 286 -110 286 -298c0 -228 -140 -428 -373 -428c-171 0 -285 110 -285 299c0 224 148 427 372 427zM364 102c142 0 241 153 241 315c0 129 -68 192 -176 192c-139 0 -236 -157 -236 -315c0 -128 67 -192 171 -192zM270 297l13 106h240l-13 -106h-240z" />
    <glyph glyph-name="Iota" unicode="&#x399;" horiz-adv-x="311" 
d="M185 0h-119l87 710h119z" />
    <glyph glyph-name="Kappa" unicode="&#x39a;" horiz-adv-x="628" 
d="M658 710l-277 -316l196 -394h-143l-141 291h-2l-88 -101l-23 -190h-118l87 710h118l-41 -332h2l278 332h152z" />
    <glyph glyph-name="Lambda" unicode="&#x39b;" horiz-adv-x="636" 
d="M455 0l-96 560h-3l-235 -560h-124l316 710h124l141 -710h-123z" />
    <glyph glyph-name="Mu" unicode="&#x39c;" horiz-adv-x="832" 
d="M668 710h129l-87 -710h-118l57 470h-2l-202 -333h-82l-123 343h-2l-58 -480h-118l87 710h126l146 -417h2z" />
    <glyph glyph-name="Nu" unicode="&#x39d;" horiz-adv-x="722" 
d="M570 710h118l-88 -710h-129l-228 504h-2l-61 -504h-118l87 710h125l231 -513h1z" />
    <glyph glyph-name="Xi" unicode="&#x39e;" horiz-adv-x="606" 
d="M578 602h-462l13 108h463zM489 297h-361l13 107h361zM511 0h-476l14 108h476z" />
    <glyph glyph-name="Omicron" unicode="&#x39f;" horiz-adv-x="765" 
d="M439 718c170 0 286 -110 286 -298c0 -228 -140 -428 -373 -428c-171 0 -285 110 -285 299c0 224 148 427 372 427zM361 102c142 0 241 153 241 315c0 129 -68 192 -176 192c-139 0 -236 -157 -236 -315c0 -128 67 -192 171 -192z" />
    <glyph glyph-name="Pi" unicode="&#x3a0;" horiz-adv-x="673" 
d="M149 710h490l-88 -710h-117l74 604h-254l-74 -604h-118z" />
    <glyph glyph-name="Rho" unicode="&#x3a1;" horiz-adv-x="596" 
d="M388 710c138 0 194 -69 194 -191c0 -164 -97 -264 -281 -264h-90l-31 -255h-118l87 710h239zM317 361c87 0 142 51 142 158c0 52 -39 85 -98 85h-107l-30 -243h93z" />
    <glyph glyph-name="Sigma" unicode="&#x3a3;" horiz-adv-x="552" 
d="M553 604h-301v-1l125 -247l-184 -249v-1h299l-14 -106h-453l10 83l202 273l-134 268l9 86h453z" />
    <glyph glyph-name="Tau" unicode="&#x3a4;" horiz-adv-x="546" 
d="M557 604h-181l-74 -604h-118l74 604h-180l12 106h480z" />
    <glyph glyph-name="Upsilon" unicode="&#x3a5;" horiz-adv-x="581" 
d="M485 710h140l-267 -396l-40 -314h-118l39 314l-166 396h129l106 -283h3z" />
    <glyph glyph-name="Phi" unicode="&#x3a6;" horiz-adv-x="769" 
d="M737 395c0 -176 -107 -323 -318 -340l-6 -55h-119l8 58c-149 23 -245 115 -245 270c0 167 115 321 320 339l6 55h118l-7 -59c145 -23 243 -116 243 -268zM177 333c0 -100 49 -156 142 -171l50 400c-127 -18 -192 -121 -192 -229zM428 161c127 20 187 118 187 229
c0 98 -53 151 -137 169z" />
    <glyph glyph-name="Chi" unicode="&#x3a7;" horiz-adv-x="652" 
d="M671 710l-248 -357l165 -353h-141l-118 267h-2l-184 -267h-141l255 359l-159 351h134l116 -267h2l175 267h146z" />
    <glyph glyph-name="Psi" unicode="&#x3a8;" horiz-adv-x="736" 
d="M610 710h118l-32 -258c-25 -199 -117 -289 -280 -290l-20 -162h-118l20 162c-160 4 -231 109 -207 295l32 253h118l-31 -245c-16 -132 6 -194 101 -198l54 443h118l-54 -443c87 5 133 54 151 202z" />
    <glyph glyph-name="uni03A9" unicode="&#x3a9;" horiz-adv-x="712" 
d="M527 107v-1h104l-13 -106h-250l13 106c102 74 173 184 173 328c0 105 -58 173 -150 173c-130 0 -209 -129 -209 -267c0 -98 40 -173 102 -234l-13 -106h-251l13 106h117v1c-56 60 -90 141 -90 237c0 210 138 374 336 374c162 0 269 -121 269 -282
c0 -132 -60 -250 -151 -329z" />
    <glyph glyph-name="Alphatonos" unicode="&#x386;" 
d="M471 0l-29 154h-255l-67 -154h-124l324 710h123l150 -710h-122zM238 707l-108 -169h-107l84 169h131zM231 257h192l-58 305h-2z" />
    <glyph glyph-name="Epsilontonos" unicode="&#x388;" horiz-adv-x="577" 
d="M-40 710h131l-108 -169h-107zM504 106l-13 -106h-427l87 710h409l-14 -106h-291l-24 -199h235l-13 -106h-235l-24 -193h310z" />
    <glyph glyph-name="Etatonos" unicode="&#x389;" horiz-adv-x="700" 
d="M-40 710h131l-108 -169h-107zM665 710l-87 -710h-119l36 286h-280l-35 -286h-118l87 710h118l-39 -318h280l39 318h118z" />
    <glyph glyph-name="Iotatonos" unicode="&#x38a;" horiz-adv-x="311" 
d="M-35 710h131l-108 -169h-107zM185 0h-119l87 710h119z" />
    <glyph glyph-name="Omicrontonos" unicode="&#x38c;" horiz-adv-x="764" 
d="M439 718c170 0 286 -110 286 -298c0 -228 -140 -428 -373 -428c-171 0 -285 110 -285 299c0 224 148 427 372 427zM22 710h131l-108 -169h-107zM361 102c142 0 241 153 241 315c0 129 -68 192 -176 192c-139 0 -236 -157 -236 -315c0 -128 67 -192 171 -192z" />
    <glyph glyph-name="Upsilontonos" unicode="&#x38e;" horiz-adv-x="584" 
d="M-167 541l84 169h131l-108 -169h-107zM488 710h140l-267 -396l-40 -314h-118l39 314l-166 396h129l106 -283h3z" />
    <glyph glyph-name="Omegatonos" unicode="&#x38f;" horiz-adv-x="711" 
d="M527 107v-1h104l-13 -106h-250l13 106c102 74 173 184 173 328c0 105 -58 173 -150 173c-130 0 -209 -129 -209 -267c0 -98 40 -173 102 -234l-13 -106h-251l13 106h117v1c-56 60 -90 141 -90 237c0 210 138 374 336 374c162 0 269 -121 269 -282
c0 -132 -60 -250 -151 -329zM151 710l-108 -169h-107l84 169h131z" />
    <glyph glyph-name="Iotadieresis" unicode="&#x3aa;" horiz-adv-x="311" 
d="M123 938c40 0 71 -30 71 -71c0 -42 -32 -74 -74 -74c-41 0 -72 31 -72 71c0 43 32 74 75 74zM343 938c41 0 71 -30 71 -71c0 -42 -31 -74 -74 -74c-41 0 -72 31 -72 71c0 43 33 74 75 74zM185 0h-119l87 710h119z" />
    <glyph glyph-name="Upsilondieresis" unicode="&#x3ab;" horiz-adv-x="581" 
d="M249 793c-41 0 -72 31 -72 71c0 43 32 74 75 74c40 0 71 -30 71 -71c0 -42 -32 -74 -74 -74zM469 793c-41 0 -72 31 -72 71c0 43 33 74 75 74c41 0 71 -30 71 -71c0 -42 -31 -74 -74 -74zM485 710h140l-267 -396l-40 -314h-118l39 314l-166 396h129l106 -283h3z" />
    <glyph glyph-name="alpha" unicode="&#x3b1;" horiz-adv-x="576" 
d="M490 90c9 0 19 1 33 3l19 -75c-29 -19 -64 -25 -93 -26c-55 -1 -86 26 -92 107h-2c-39 -68 -93 -107 -157 -107c-95 0 -161 83 -161 206c0 164 102 297 225 297c89 0 124 -49 147 -121h1l44 125l99 -43l-103 -224l4 -77c2 -50 6 -65 36 -65zM219 93c49 0 101 53 128 151
c-4 113 -38 150 -77 150c-74 0 -122 -99 -122 -185c0 -73 22 -116 71 -116z" />
    <glyph glyph-name="beta" unicode="&#x3b2;" horiz-adv-x="532" 
d="M428 390c36 -32 62 -79 62 -146c0 -151 -95 -252 -234 -252c-113 0 -207 70 -204 265c5 241 121 487 319 487c101 0 162 -62 162 -152c0 -67 -35 -138 -105 -200v-2zM360 645c-93 0 -163 -148 -187 -289c154 55 249 148 249 224c0 44 -26 65 -62 65zM261 91
c62 0 118 55 118 156c0 39 -12 67 -33 86c-51 -30 -111 -56 -182 -74v-7c0 -96 35 -161 97 -161z" />
    <glyph glyph-name="gamma" unicode="&#x3b3;" horiz-adv-x="512" 
d="M500 488c-42 -184 -107 -325 -231 -490c2 -62 -2 -128 -7 -196h-115c12 119 17 207 1 345c-25 210 -34 256 -75 256c-9 0 -17 -2 -27 -5l-4 81c23 10 46 16 69 16c74 0 93 -44 109 -121c12 -56 25 -144 33 -226h2c56 96 98 199 131 340h114z" />
    <glyph glyph-name="delta" unicode="&#x3b4;" horiz-adv-x="536" 
d="M360 494c83 -55 137 -111 137 -211c0 -155 -98 -291 -255 -291c-127 0 -203 84 -203 201c0 116 65 222 160 275v2c-42 37 -58 77 -58 126c0 81 76 146 192 148c56 1 136 -12 194 -57l-60 -86c-42 29 -92 44 -139 44c-34 0 -77 -13 -77 -51c1 -20 7 -34 58 -67
c21 -13 33 -21 51 -33zM245 92c87 0 140 89 140 174c0 67 -40 110 -90 140l-23 14c-68 -41 -125 -131 -122 -220c3 -74 50 -108 95 -108z" />
    <glyph glyph-name="epsilon" unicode="&#x3b5;" horiz-adv-x="461" 
d="M223 92c61 0 97 9 162 49l40 -84c-82 -53 -136 -65 -218 -65c-114 0 -175 48 -176 122c-1 57 29 112 84 141v2c-36 21 -50 54 -50 87c0 91 87 151 193 151c57 0 129 -7 192 -56l-49 -81c-46 32 -92 38 -124 38c-61 1 -101 -23 -101 -59c0 -21 17 -37 57 -37l83 -1
l-10 -93h-78c-49 0 -86 -34 -86 -68c0 -32 28 -46 81 -46z" />
    <glyph glyph-name="zeta" unicode="&#x3b6;" horiz-adv-x="421" 
d="M471 653c-138 -114 -321 -305 -321 -449c0 -64 45 -80 119 -113c86 -38 117 -75 117 -129c0 -60 -52 -134 -96 -184l-87 57c36 37 72 80 72 114c0 23 -14 34 -77 61c-79 34 -159 72 -159 186c0 156 142 317 288 445v2h-209l10 93h352z" />
    <glyph glyph-name="eta" unicode="&#x3b7;" horiz-adv-x="566" 
d="M376 495c109 0 148 -68 130 -201l-65 -492h-109l64 483c9 71 0 111 -47 111c-55 0 -138 -93 -153 -216l-22 -180h-109l43 350c5 38 3 54 -20 54c-9 0 -19 -2 -29 -5l-3 81c25 11 45 15 72 15c61 0 87 -40 88 -92h2c45 62 97 92 158 92z" />
    <glyph glyph-name="theta" unicode="&#x3b8;" horiz-adv-x="556" 
d="M331 744c116 0 200 -64 200 -263c0 -245 -83 -489 -281 -489c-111 0 -195 66 -195 264c0 245 91 488 276 488zM328 645c-73 0 -122 -107 -146 -226h235c1 20 2 39 2 58c0 110 -29 168 -91 168zM252 92c84 0 132 112 154 234h-236c-2 -21 -3 -41 -3 -61
c0 -110 28 -173 85 -173z" />
    <glyph glyph-name="iota" unicode="&#x3b9;" horiz-adv-x="303" 
d="M269 13c-35 -14 -64 -21 -98 -21c-97 0 -114 63 -104 141l44 355h108l-41 -339c-6 -43 9 -58 39 -58c10 0 22 2 35 5z" />
    <glyph glyph-name="kappa" unicode="&#x3ba;" horiz-adv-x="547" 
d="M452 91c12 0 27 3 44 7l17 -79c-29 -17 -55 -27 -101 -27c-79 0 -101 44 -111 122c-3 29 -5 63 -7 101h-2c-47 -47 -92 -94 -137 -141l-9 -74h-104l60 488h109l-24 -198c-1 -10 -6 -41 -12 -71h2c88 111 187 218 277 296l77 -72c-50 -44 -101 -92 -151 -140
c6 -56 10 -104 17 -140c9 -45 23 -72 55 -72z" />
    <glyph glyph-name="lambda" unicode="&#x3bb;" horiz-adv-x="508" 
d="M338 0c-18 109 -37 217 -57 326h-2l-159 -326h-125l249 473l-22 109c-9 45 -26 66 -65 66c-13 0 -30 -2 -49 -7l-6 88c20 6 50 15 88 15c80 0 120 -50 144 -154c46 -203 87 -401 122 -590h-118z" />
    <glyph glyph-name="uni03BC" unicode="&#x3bc;" horiz-adv-x="558" 
d="M508 92l17 -76c-23 -16 -51 -24 -89 -24c-53 0 -82 31 -89 79h-3c-29 -46 -70 -79 -124 -79c-37 0 -60 13 -74 35l-2 -1c2 -36 1 -75 -3 -110l-15 -114h-108l84 686h109l-36 -295c-6 -73 21 -101 57 -101c54 0 113 44 128 152l30 244h109l-42 -343c-6 -42 -1 -55 26 -55
c7 0 15 1 25 2z" />
    <glyph glyph-name="nu" unicode="&#x3bd;" horiz-adv-x="520" 
d="M393 488h116c-38 -188 -109 -354 -231 -488h-125l-101 488h117l69 -383h2c70 103 120 220 153 383z" />
    <glyph glyph-name="xi" unicode="&#x3be;" horiz-adv-x="451" 
d="M478 645c-138 -20 -241 -71 -241 -153c0 -44 35 -68 125 -68h50l-12 -93h-78c-99 0 -172 -39 -172 -116c0 -57 48 -81 121 -114c88 -40 127 -67 127 -139c0 -60 -49 -135 -97 -184l-86 57c29 30 71 79 71 113c0 27 -17 43 -69 64c-86 36 -178 80 -178 188
c0 93 55 156 134 187v3c-29 20 -47 50 -47 89c0 84 53 132 119 163v1h-118l12 93h350z" />
    <glyph glyph-name="omicron" unicode="&#x3bf;" horiz-adv-x="537" 
d="M297 496c121 0 201 -71 201 -199c0 -168 -88 -305 -256 -305c-127 0 -203 74 -203 203c0 159 87 301 258 301zM289 396c-84 0 -139 -95 -139 -187c0 -67 33 -117 96 -117c86 0 141 88 141 194c0 90 -57 110 -98 110z" />
    <glyph glyph-name="pi" unicode="&#x3c0;" horiz-adv-x="578" 
d="M479 395l-30 -246c-6 -46 1 -59 27 -59c8 0 18 2 30 4l16 -78c-25 -16 -49 -24 -85 -24c-65 0 -110 42 -98 146l32 257h-138l-48 -395h-109l48 395h-81l12 83c28 5 66 10 103 10h427l-16 -93h-90z" />
    <glyph glyph-name="rho" unicode="&#x3c1;" horiz-adv-x="548" 
d="M308 495c137 0 203 -91 203 -202c0 -185 -105 -301 -232 -301c-60 0 -102 21 -127 49h-3l-29 -239h-110l54 442c21 175 115 251 244 251zM267 92c73 0 133 78 133 192c0 64 -44 112 -97 112c-65 0 -116 -48 -129 -155l-9 -76c14 -44 52 -73 102 -73z" />
    <glyph glyph-name="uni03C2" unicode="&#x3c2;" horiz-adv-x="461" 
d="M150 209c0 -74 45 -85 119 -118c85 -38 117 -72 117 -127c0 -65 -51 -131 -96 -186l-86 57c30 33 71 75 71 114c0 23 -13 35 -77 61c-74 31 -159 69 -159 196c0 150 101 289 257 289c70 0 135 -28 170 -81l-86 -64c-21 32 -55 46 -80 46c-87 0 -150 -83 -150 -187z" />
    <glyph glyph-name="sigma" unicode="&#x3c3;" horiz-adv-x="561" 
d="M546 395h-89l-1 -2c24 -32 39 -74 39 -121c0 -143 -96 -279 -259 -279c-119 0 -197 75 -197 207c0 155 83 288 251 288h268zM241 93c81 0 143 77 143 188c0 54 -16 93 -50 114h-42c-93 0 -143 -83 -143 -189c0 -62 35 -113 92 -113z" />
    <glyph glyph-name="tau" unicode="&#x3c4;" horiz-adv-x="429" 
d="M128 149l30 246h-120l11 93h383l-12 -93h-152l-29 -240c-6 -47 8 -63 32 -63c18 0 41 5 68 20l18 -86c-37 -22 -84 -34 -124 -34c-83 0 -117 54 -105 157z" />
    <glyph glyph-name="upsilon" unicode="&#x3c5;" horiz-adv-x="530" 
d="M235 -8c-115 0 -169 76 -166 171c2 77 29 167 34 204c3 28 -8 35 -23 35c-7 0 -14 -1 -21 -3l-3 81c27 10 51 15 77 15c45 0 85 -30 81 -100c-3 -60 -32 -137 -34 -218c-1 -50 14 -85 64 -85c100 0 141 153 141 293c0 30 -2 65 -7 97l102 17c11 -45 16 -91 16 -125
c0 -207 -81 -382 -261 -382z" />
    <glyph glyph-name="phi" unicode="&#x3c6;" horiz-adv-x="653" 
d="M456 494c86 -2 167 -64 165 -200c-4 -181 -128 -293 -271 -301l-23 -191h-109l24 191c-111 3 -204 87 -204 219c0 110 46 215 130 294l89 -30c-69 -77 -108 -165 -108 -249c0 -79 41 -134 105 -134l28 228c15 124 90 175 174 173zM362 93c84 8 148 97 148 206
c0 62 -26 96 -58 95c-29 0 -56 -21 -64 -81z" />
    <glyph glyph-name="chi" unicode="&#x3c7;" horiz-adv-x="479" 
d="M398 -113c7 0 16 2 25 4l4 -81c-23 -10 -41 -16 -64 -16c-73 0 -87 46 -109 121l-39 133h-2l-148 -246h-122l232 363l-67 196c-9 28 -19 42 -36 42c-7 0 -15 -2 -25 -4l-4 81c23 10 41 15 64 15c74 0 89 -45 109 -120l27 -97h2l127 210h125l-215 -328l80 -231
c10 -28 19 -42 36 -42z" />
    <glyph glyph-name="psi" unicode="&#x3c8;" horiz-adv-x="661" 
d="M628 364c0 -189 -83 -367 -274 -372l-24 -190h-109l23 190c-99 2 -197 58 -197 180c0 95 36 153 36 240c0 16 -1 53 -9 76h111c6 -14 10 -58 10 -78c0 -88 -36 -142 -36 -222c0 -78 59 -93 98 -96l67 550l110 8l-68 -558c115 10 151 160 151 290c0 34 -2 68 -8 103
l101 16c11 -43 18 -91 18 -137z" />
    <glyph glyph-name="omega" unicode="&#x3c9;" horiz-adv-x="696" 
d="M603 501c34 -63 53 -133 53 -226c0 -141 -77 -283 -205 -283c-64 0 -106 23 -125 77h-3c-32 -52 -79 -77 -137 -77c-83 0 -148 63 -148 192c0 122 42 232 119 320l96 -26c-73 -93 -104 -205 -104 -285c0 -64 19 -101 57 -101c43 0 77 60 89 163l14 110h108l-20 -163
c-5 -66 11 -110 49 -110c69 0 99 103 99 193c0 74 -20 153 -40 197z" />
    <glyph glyph-name="iotatonos" unicode="&#x3af;" horiz-adv-x="303" 
d="M198 725h132l-102 -169h-108zM269 13c-35 -14 -64 -21 -98 -21c-97 0 -114 63 -104 141l44 355h108l-41 -339c-6 -43 9 -58 39 -58c10 0 22 2 35 5z" />
    <glyph glyph-name="iotadieresis" unicode="&#x3ca;" horiz-adv-x="303" 
d="M73 707c40 0 71 -30 71 -71c0 -42 -32 -74 -74 -74c-41 0 -72 31 -72 71c0 43 32 74 75 74zM293 707c41 0 71 -30 71 -71c0 -42 -31 -74 -74 -74c-41 0 -72 31 -72 71c0 43 33 74 75 74zM269 13c-35 -14 -64 -21 -98 -21c-97 0 -114 63 -104 141l44 355h108l-41 -339
c-6 -43 9 -58 39 -58c10 0 22 2 35 5z" />
    <glyph glyph-name="iotadieresistonos" unicode="&#x390;" horiz-adv-x="303" 
d="M181 725h103l-72 -169h-83zM40 707c40 0 71 -30 71 -71c0 -42 -32 -74 -74 -74c-41 0 -72 31 -72 71c0 43 32 74 75 74zM357 707c41 0 72 -30 72 -71c0 -42 -32 -74 -75 -74c-41 0 -71 31 -71 71c0 43 32 74 74 74zM269 13c-35 -14 -64 -21 -98 -21
c-97 0 -114 63 -104 141l44 355h108l-41 -339c-6 -43 9 -58 39 -58c10 0 22 2 35 5z" />
    <glyph glyph-name="upsilontonos" unicode="&#x3cd;" horiz-adv-x="530" 
d="M339 725h132l-102 -169h-108zM235 -8c-115 0 -169 76 -166 171c2 77 29 167 34 204c3 28 -8 35 -23 35c-7 0 -14 -1 -21 -3l-3 81c27 10 51 15 77 15c45 0 85 -30 81 -100c-3 -60 -32 -137 -34 -218c-1 -50 14 -85 64 -85c100 0 141 153 141 293c0 30 -2 65 -7 97l102 17
c11 -45 16 -91 16 -125c0 -207 -81 -382 -261 -382z" />
    <glyph glyph-name="upsilondieresis" unicode="&#x3cb;" horiz-adv-x="530" 
d="M214 707c40 0 71 -30 71 -71c0 -42 -32 -74 -74 -74c-41 0 -72 31 -72 71c0 43 32 74 75 74zM434 707c41 0 71 -30 71 -71c0 -42 -31 -74 -74 -74c-41 0 -72 31 -72 71c0 43 33 74 75 74zM235 -8c-115 0 -169 76 -166 171c2 77 29 167 34 204c3 28 -8 35 -23 35
c-7 0 -14 -1 -21 -3l-3 81c27 10 51 15 77 15c45 0 85 -30 81 -100c-3 -60 -32 -137 -34 -218c-1 -50 14 -85 64 -85c100 0 141 153 141 293c0 30 -2 65 -7 97l102 17c11 -45 16 -91 16 -125c0 -207 -81 -382 -261 -382z" />
    <glyph glyph-name="upsilondieresistonos" unicode="&#x3b0;" horiz-adv-x="530" 
d="M322 725h103l-72 -169h-83zM181 707c40 0 71 -30 71 -71c0 -42 -32 -74 -74 -74c-41 0 -72 31 -72 71c0 43 32 74 75 74zM498 707c41 0 72 -30 72 -71c0 -42 -32 -74 -75 -74c-41 0 -71 31 -71 71c0 43 32 74 74 74zM235 -8c-115 0 -169 76 -166 171c2 77 29 167 34 204
c3 28 -8 35 -23 35c-7 0 -14 -1 -21 -3l-3 81c27 10 51 15 77 15c45 0 85 -30 81 -100c-3 -60 -32 -137 -34 -218c-1 -50 14 -85 64 -85c100 0 141 153 141 293c0 30 -2 65 -7 97l102 17c11 -45 16 -91 16 -125c0 -207 -81 -382 -261 -382z" />
    <glyph glyph-name="omicrontonos" unicode="&#x3cc;" horiz-adv-x="537" 
d="M338 725h132l-102 -169h-108zM297 496c121 0 201 -71 201 -199c0 -168 -88 -305 -256 -305c-127 0 -203 74 -203 203c0 159 87 301 258 301zM289 396c-84 0 -139 -95 -139 -187c0 -67 33 -117 96 -117c86 0 141 88 141 194c0 90 -57 110 -98 110z" />
    <glyph glyph-name="omegatonos" unicode="&#x3ce;" horiz-adv-x="696" 
d="M547 725l-102 -169h-108l78 169h132zM603 501c34 -63 53 -133 53 -226c0 -141 -77 -283 -205 -283c-64 0 -106 23 -125 77h-3c-32 -52 -79 -77 -137 -77c-83 0 -148 63 -148 192c0 122 42 232 119 320l96 -26c-73 -93 -104 -205 -104 -285c0 -64 19 -101 57 -101
c43 0 77 60 89 163l14 110h108l-20 -163c-5 -66 11 -110 49 -110c69 0 99 103 99 193c0 74 -20 153 -40 197z" />
    <glyph glyph-name="alphatonos" unicode="&#x3ac;" horiz-adv-x="576" 
d="M480 725l-102 -169h-108l78 169h132zM490 90c9 0 19 1 33 3l19 -75c-29 -19 -64 -25 -93 -26c-55 -1 -86 26 -92 107h-2c-39 -68 -93 -107 -157 -107c-95 0 -161 83 -161 206c0 164 102 297 225 297c89 0 124 -49 147 -121h1l44 125l99 -43l-103 -224l4 -77
c2 -50 6 -65 36 -65zM219 93c49 0 101 53 128 151c-4 113 -38 150 -77 150c-74 0 -122 -99 -122 -185c0 -73 22 -116 71 -116z" />
    <glyph glyph-name="epsilontonos" unicode="&#x3ad;" horiz-adv-x="461" 
d="M427 725l-102 -169h-108l78 169h132zM223 92c61 0 97 9 162 49l40 -84c-82 -53 -136 -65 -218 -65c-114 0 -175 48 -176 122c-1 57 29 112 84 141v2c-36 21 -50 54 -50 87c0 91 87 151 193 151c57 0 129 -7 192 -56l-49 -81c-46 32 -92 38 -124 38
c-61 1 -101 -23 -101 -59c0 -21 17 -37 57 -37l83 -1l-10 -93h-78c-49 0 -86 -34 -86 -68c0 -32 28 -46 81 -46z" />
    <glyph glyph-name="etatonos" unicode="&#x3ae;" horiz-adv-x="566" 
d="M482 725l-102 -169h-108l78 169h132zM376 495c109 0 148 -68 130 -201l-65 -492h-109l64 483c9 71 0 111 -47 111c-55 0 -138 -93 -153 -216l-22 -180h-109l43 350c5 38 3 54 -20 54c-9 0 -19 -2 -29 -5l-3 81c25 11 45 15 72 15c61 0 87 -40 88 -92h2
c45 62 97 92 158 92z" />
    <glyph glyph-name="uni03D7" unicode="&#x3d7;" horiz-adv-x="627" 
d="M459 83c28 -11 66 -13 118 -11l-8 -60c-161 -155 -261 -228 -407 -228c-77 0 -148 25 -198 69l52 66c43 -29 91 -45 137 -45c80 0 163 38 263 117v2c-67 6 -107 56 -121 149l-10 69h-2c-43 -46 -85 -93 -126 -139l-9 -72h-104l60 488h109l-24 -198c-1 -10 -6 -39 -12 -68
h2c80 103 182 207 270 288l72 -67c-55 -47 -106 -96 -156 -146l31 -125c11 -49 31 -75 63 -89z" />
    <glyph glyph-name="zero" unicode="0" horiz-adv-x="592" 
d="M352 694c127 0 202 -90 202 -265c0 -225 -100 -437 -285 -437c-127 0 -207 91 -207 266c0 221 99 436 290 436zM344 589c-118 0 -167 -188 -167 -337c0 -102 34 -154 93 -154c119 0 169 182 169 337c0 102 -29 154 -95 154z" />
    <glyph glyph-name="one" unicode="1" horiz-adv-x="385" 
d="M260 687h90l-85 -687h-114l67 534l-109 -80l-54 88z" />
    <glyph glyph-name="two" unicode="2" horiz-adv-x="500" 
d="M193 106v-2h239l-14 -104h-403l7 76l220 234c55 59 116 126 116 200c0 44 -24 78 -68 78c-43 0 -97 -27 -128 -84l-83 61c41 75 128 129 220 129c97 0 175 -66 175 -175c0 -98 -58 -182 -136 -263z" />
    <glyph glyph-name="three" unicode="3" horiz-adv-x="515" 
d="M374 356c51 -25 81 -73 81 -143c0 -133 -101 -221 -234 -221c-113 0 -183 64 -203 152l111 40c9 -57 38 -86 88 -86c75 0 122 53 122 128c0 47 -22 80 -92 80h-50l12 96h42c76 0 112 69 112 118c0 42 -28 69 -70 69c-53 0 -86 -29 -109 -66l-94 53c38 69 117 118 210 118
c99 0 177 -53 177 -155c0 -82 -39 -147 -103 -182v-1z" />
    <glyph glyph-name="four" unicode="4" horiz-adv-x="535" 
d="M405 217h90l-13 -101h-90l-14 -116h-113l14 116h-262l9 78l344 493h92zM163 214h135l32 252z" />
    <glyph glyph-name="five" unicode="5" horiz-adv-x="527" 
d="M484 583h-235l-26 -156c31 8 63 13 84 13c102 0 166 -69 166 -182c0 -155 -106 -266 -251 -266c-92 0 -159 42 -200 118l95 62c21 -47 56 -75 103 -75c81 0 138 66 138 152c0 60 -31 94 -91 94c-38 0 -72 -14 -105 -38l-66 23l64 359h338z" />
    <glyph glyph-name="six" unicode="6" horiz-adv-x="552" 
d="M348 438c75 0 151 -59 151 -179c0 -152 -96 -267 -249 -267c-111 0 -197 77 -197 216c0 229 149 441 382 502l22 -98c-137 -49 -222 -125 -263 -227l1 -1c42 34 96 54 153 54zM254 98c72 0 130 63 130 155c0 51 -30 82 -85 82c-44 0 -101 -32 -133 -74
c-1 -13 -1 -26 -1 -40c0 -77 37 -123 89 -123z" />
    <glyph glyph-name="seven" unicode="7" horiz-adv-x="457" 
d="M79 687h384l-8 -76l-291 -625l-117 22l274 575h-255z" />
    <glyph glyph-name="eight" unicode="8" horiz-adv-x="535" 
d="M398 373c52 -17 91 -67 91 -144c0 -148 -108 -236 -260 -236c-116 0 -193 62 -193 163c0 94 50 177 136 214v1c-33 17 -64 56 -64 116c0 121 95 207 220 207c90 0 168 -51 168 -148c0 -80 -37 -140 -98 -171v-2zM312 594c-54 0 -96 -42 -96 -101c0 -42 30 -73 74 -73
c53 0 97 42 97 104c0 41 -26 70 -75 70zM246 94c70 0 126 52 126 129c0 58 -35 93 -94 93c-74 0 -125 -62 -125 -128c0 -57 35 -94 93 -94z" />
    <glyph glyph-name="nine" unicode="9" horiz-adv-x="545" 
d="M325 694c115 0 193 -82 193 -217c0 -244 -159 -453 -385 -500l-20 94c128 38 214 118 258 221l-1 1c-41 -29 -91 -45 -139 -45c-91 0 -160 60 -160 174c0 161 111 272 254 272zM186 442c0 -59 28 -91 84 -91c51 0 101 34 132 74c1 14 2 27 2 41c0 77 -32 123 -92 123
c-74 0 -126 -61 -126 -147z" />
    <glyph glyph-name="fraction" unicode="&#x2044;" horiz-adv-x="183" 
d="M350 686l-370 -707l-86 40l369 708z" />
    <glyph glyph-name="onehalf" unicode="&#xbd;" horiz-adv-x="779" 
d="M519 727l87 -41l-370 -707l-86 40zM225 299h-92l37 294l-61 -44l-38 71l133 91h72zM607 85v-2h128l-10 -83h-261l5 62l132 132c33 34 63 65 63 102c0 23 -13 36 -33 36s-46 -13 -66 -44l-65 54c29 43 80 76 142 76c69 0 116 -42 116 -109c0 -64 -30 -106 -80 -155z" />
    <glyph glyph-name="onequarter" unicode="&#xbc;" horiz-adv-x="743" 
d="M519 727l87 -41l-370 -707l-86 40zM225 299h-92l37 294l-61 -44l-38 71l133 91h72zM662 144h50l-10 -80h-50l-8 -64h-92l9 64h-151l6 57l207 291h72zM514 138h68l17 127z" />
    <glyph glyph-name="threequarters" unicode="&#xbe;" horiz-adv-x="781" 
d="M556 727l87 -41l-370 -707l-86 40zM325 428c0 -85 -64 -136 -147 -136c-74 0 -123 44 -135 97l86 29c5 -32 20 -45 44 -45c36 0 57 31 57 64c0 24 -16 38 -45 38h-28l9 69h30c29 0 52 28 52 58c0 22 -16 33 -32 33c-23 0 -44 -13 -55 -38l-73 45c22 44 74 75 130 75
c68 0 118 -35 118 -100c0 -44 -23 -82 -60 -104v-2c31 -16 49 -44 49 -83zM700 144h50l-10 -80h-50l-8 -64h-92l9 64h-151l6 57l207 291h72zM552 138h68l17 127z" />
    <glyph glyph-name="uni2070" unicode="&#x2070;" horiz-adv-x="383" 
d="M263 856c91 0 142 -67 142 -172c0 -134 -66 -256 -186 -256c-90 0 -141 63 -141 173c0 130 65 255 185 255zM262 770c-63 0 -92 -94 -92 -171c0 -59 19 -84 52 -84c62 0 91 93 91 170c0 56 -19 85 -51 85z" />
    <glyph glyph-name="uni00B9" unicode="&#xb9;" horiz-adv-x="272" 
d="M216 848h72l-51 -412h-92l37 294l-61 -44l-38 71z" />
    <glyph glyph-name="uni00B2" unicode="&#xb2;" horiz-adv-x="320" 
d="M196 521v-2h128l-10 -83h-261l5 62l132 132c33 34 63 65 63 102c0 23 -13 36 -33 36s-46 -13 -66 -44l-65 54c29 43 80 76 142 76c69 0 116 -42 116 -109c0 -64 -30 -106 -80 -155z" />
    <glyph glyph-name="uni00B3" unicode="&#xb3;" horiz-adv-x="325" 
d="M288 648c31 -16 49 -44 49 -83c0 -85 -64 -136 -147 -136c-74 0 -123 44 -135 97l86 29c5 -32 20 -45 44 -45c36 0 57 31 57 64c0 24 -16 38 -45 38h-28l9 69h30c29 0 52 28 52 58c0 22 -16 33 -32 33c-23 0 -44 -13 -55 -38l-73 45c22 44 74 75 130 75
c68 0 118 -35 118 -100c0 -44 -23 -82 -60 -104v-2z" />
    <glyph glyph-name="asterisk" unicode="*" horiz-adv-x="387" 
d="M327 438l-70 58l-11 -109h-71l18 109l-84 -58l-29 61l87 49l-76 51l43 61l71 -58l10 108h71l-18 -108l84 57l29 -60l-87 -50l76 -50z" />
    <glyph glyph-name="backslash" unicode="\" horiz-adv-x="396" 
d="M53 741l90 40l239 -853l-91 -40z" />
    <glyph glyph-name="periodcentered" unicode="&#xb7;" horiz-adv-x="278" 
d="M151 318c41 0 72 -31 72 -72c0 -42 -32 -74 -75 -74c-41 0 -71 31 -71 71c0 43 32 75 74 75z" />
    <glyph glyph-name="bullet" unicode="&#x2022;" horiz-adv-x="433" 
d="M228 425c62 0 108 -46 108 -107c0 -65 -49 -113 -113 -113c-62 0 -108 47 -108 109c0 63 48 111 113 111z" />
    <glyph glyph-name="colon" unicode=":" horiz-adv-x="276" 
d="M165 495c41 0 72 -31 72 -72c0 -42 -32 -74 -75 -74c-41 0 -71 31 -71 71c0 43 32 75 74 75zM119 138c41 0 72 -31 72 -72c0 -42 -32 -74 -75 -74c-41 0 -71 31 -71 71c0 43 32 75 74 75z" />
    <glyph glyph-name="comma" unicode="," horiz-adv-x="235" 
d="M42 120h116l-94 -252h-81z" />
    <glyph glyph-name="ellipsis" unicode="&#x2026;" horiz-adv-x="1000" 
d="M147 138c41 0 72 -31 72 -72c0 -42 -32 -74 -75 -74c-41 0 -71 31 -71 71c0 43 32 75 74 75zM480 138c41 0 72 -31 72 -72c0 -42 -32 -74 -75 -74c-41 0 -71 31 -71 71c0 43 32 75 74 75zM814 138c41 0 72 -31 72 -72c0 -42 -32 -74 -75 -74c-41 0 -71 31 -71 71
c0 43 32 75 74 75z" />
    <glyph glyph-name="exclam" unicode="!" horiz-adv-x="274" 
d="M100 223l42 513h121l-83 -513h-80zM128 138c41 0 72 -31 72 -72c0 -42 -32 -74 -75 -74c-41 0 -71 31 -71 71c0 43 32 75 74 75z" />
    <glyph glyph-name="exclamdown" unicode="&#xa1;" horiz-adv-x="268" 
d="M140 350c-41 0 -72 31 -72 72c0 42 32 74 75 74c41 0 71 -31 71 -71c0 -43 -32 -75 -74 -75zM168 265l-42 -513h-121l83 513h80z" />
    <glyph glyph-name="numbersign" unicode="#" horiz-adv-x="591" 
d="M461 656h77l-48 -188h100l-10 -83h-114l-37 -148h110l-11 -82h-123l-50 -195h-77l51 195h-127l-50 -195h-78l51 195h-97l10 82h110l38 148h-107l9 83h121l48 188h77l-48 -188h127zM389 385h-126l-38 -148h128z" />
    <glyph glyph-name="period" unicode="." horiz-adv-x="271" 
d="M115 138c41 0 72 -31 72 -72c0 -42 -32 -74 -75 -74c-41 0 -71 31 -71 71c0 43 32 75 74 75z" />
    <glyph glyph-name="question" unicode="?" horiz-adv-x="437" 
d="M140 578l-73 72c46 60 124 94 202 94c85 0 164 -50 164 -159c0 -89 -54 -155 -107 -205c-42 -40 -77 -73 -84 -110l-9 -47h-101l5 48c7 60 48 98 95 148c40 43 74 83 74 140c0 49 -26 76 -68 76c-37 0 -71 -21 -98 -57zM171 138c41 0 72 -31 72 -72
c0 -42 -32 -74 -75 -74c-41 0 -71 31 -71 71c0 43 32 75 74 75z" />
    <glyph glyph-name="questiondown" unicode="&#xbf;" horiz-adv-x="420" 
d="M265 349c-41 0 -72 31 -72 72c0 42 32 74 75 74c41 0 71 -31 71 -71c0 -43 -32 -75 -74 -75zM296 -91c-27 -36 -61 -57 -98 -57c-42 0 -68 27 -68 76c0 57 34 97 74 140c47 50 88 88 95 148l5 48h-101l-9 -47c-7 -37 -42 -70 -84 -110c-53 -50 -107 -116 -107 -205
c0 -109 79 -159 164 -159c78 0 156 34 202 94z" />
    <glyph glyph-name="quotedbl" unicode="&#x22;" horiz-adv-x="377" 
d="M119 710h117l-89 -252h-87zM284 710h117l-89 -252h-87z" />
    <glyph glyph-name="quotesingle" unicode="'" horiz-adv-x="211" 
d="M119 710h117l-89 -252h-87z" />
    <glyph glyph-name="semicolon" unicode=";" horiz-adv-x="251" 
d="M148 495c41 0 72 -31 72 -72c0 -42 -32 -74 -75 -74c-41 0 -71 31 -71 71c0 43 32 75 74 75zM50 120h116l-94 -252h-81z" />
    <glyph glyph-name="slash" unicode="/" horiz-adv-x="380" 
d="M450 741l-447 -853l-76 41l448 853z" />
    <glyph glyph-name="underscore" unicode="_" horiz-adv-x="479" 
d="M439 -103h-484l9 76h484z" />
    <glyph glyph-name="bullet.case" horiz-adv-x="425" 
d="M228 448c62 0 108 -46 108 -107c0 -65 -49 -113 -113 -113c-62 0 -108 47 -108 109c0 63 48 111 113 111z" />
    <glyph glyph-name="exclamdown.case" horiz-adv-x="271" 
d="M155 392c-41 0 -72 31 -72 72c0 42 32 74 75 74c41 0 71 -31 71 -71c0 -43 -32 -75 -74 -75zM183 307l-42 -513h-121l83 513h80z" />
    <glyph glyph-name="questiondown.case" horiz-adv-x="437" 
d="M270 392c-41 0 -72 31 -72 72c0 42 32 74 75 74c41 0 71 -31 71 -71c0 -43 -32 -75 -74 -75zM301 -48c-27 -36 -61 -57 -98 -57c-42 0 -68 27 -68 76c0 57 34 97 74 140c47 50 88 88 95 148l5 48h-101l-9 -47c-7 -37 -42 -70 -84 -110c-53 -50 -107 -116 -107 -205
c0 -109 79 -159 164 -159c78 0 156 34 202 94z" />
    <glyph glyph-name="braceleft" unicode="{" horiz-adv-x="346" 
d="M291 732h67l-9 -76h-23c-40 0 -58 -40 -61 -68l-25 -195c-7 -58 -23 -87 -60 -102v-2c30 -14 44 -33 34 -106l-22 -183c-5 -47 3 -70 41 -70h27l-10 -76h-63c-58 0 -102 49 -92 123l24 196c5 40 9 72 -64 75l7 85c74 3 82 45 86 79l25 201c8 67 53 119 118 119z" />
    <glyph glyph-name="braceright" unicode="}" horiz-adv-x="346" 
d="M239 408c-5 -35 -10 -72 64 -75l-7 -85c-74 -3 -82 -40 -87 -80l-23 -195c-9 -75 -60 -119 -118 -119h-68l10 76h23c42 0 56 28 62 75l22 183c9 74 24 89 62 103v2c-31 14 -43 46 -35 105l23 194c3 29 -1 64 -42 64h-26l9 76h63c65 0 101 -57 93 -124z" />
    <glyph glyph-name="bracketleft" unicode="[" horiz-adv-x="325" 
d="M209 647l-87 -709h112l-10 -85h-210l108 879h210l-10 -85h-113z" />
    <glyph glyph-name="bracketright" unicode="]" horiz-adv-x="329" 
d="M219 647h-116l10 85h214l-108 -879h-214l11 85h116z" />
    <glyph glyph-name="parenleft" unicode="(" horiz-adv-x="298" 
d="M159 175c0 -108 17 -203 47 -289l-90 -42c-39 90 -60 195 -60 316c0 208 61 427 174 583l77 -34c-96 -153 -148 -350 -148 -534z" />
    <glyph glyph-name="parenright" unicode=")" horiz-adv-x="298" 
d="M255 430c0 -211 -58 -415 -173 -582l-77 34c95 159 146 354 146 535c0 106 -17 205 -47 288l88 42c42 -86 63 -195 63 -317z" />
    <glyph glyph-name="braceleft.case" horiz-adv-x="317" 
d="M299 778h67l-9 -76h-23c-40 0 -58 -40 -61 -68l-25 -195c-7 -58 -23 -87 -60 -102v-2c30 -14 44 -33 34 -106l-22 -183c-5 -47 3 -70 41 -70h27l-10 -76h-63c-58 0 -102 49 -92 123l24 196c5 40 9 72 -64 75l7 85c74 3 82 45 86 79l25 201c8 67 53 119 118 119z" />
    <glyph glyph-name="braceright.case" horiz-adv-x="316" 
d="M218 454c-5 -35 -10 -72 64 -75l-7 -85c-74 -3 -82 -40 -87 -80l-23 -195c-9 -75 -60 -119 -118 -119h-68l10 76h23c42 0 56 28 62 75l22 183c9 74 24 89 62 103v2c-31 14 -43 46 -35 105l23 194c3 29 -1 64 -42 64h-26l9 76h63c65 0 101 -57 93 -124z" />
    <glyph glyph-name="bracketleft.case" horiz-adv-x="292" 
d="M217 691l-87 -709h112l-10 -85h-210l108 879h210l-10 -85h-113z" />
    <glyph glyph-name="bracketright.case" horiz-adv-x="338" 
d="M237 692h-116l10 85h214l-108 -879h-214l11 85h116z" />
    <glyph glyph-name="parenleft.case" horiz-adv-x="273" 
d="M167 220c0 -108 17 -203 47 -289l-90 -42c-39 90 -60 195 -60 316c0 208 61 427 174 583l77 -34c-96 -153 -148 -350 -148 -534z" />
    <glyph glyph-name="parenright.case" horiz-adv-x="273" 
d="M238 475c0 -211 -58 -415 -173 -582l-77 34c95 159 146 354 146 535c0 106 -17 205 -47 288l88 42c42 -86 63 -195 63 -317z" />
    <glyph glyph-name="emdash" unicode="&#x2014;" horiz-adv-x="1045" 
d="M990 249h-933l11 98h934z" />
    <glyph glyph-name="endash" unicode="&#x2013;" horiz-adv-x="579" 
d="M523 249h-466l11 98h468z" />
    <glyph glyph-name="uni2015" unicode="&#x2015;" horiz-adv-x="1205" 
d="M1149 249h-1093l12 98h1094z" />
    <glyph glyph-name="hyphen" unicode="-" horiz-adv-x="384" 
d="M330 255h-273l13 107h273z" />
    <glyph glyph-name="emdash.case" horiz-adv-x="1027" 
d="M983 275h-933l11 98h934z" />
    <glyph glyph-name="endash.case" horiz-adv-x="561" 
d="M516 275h-466l11 98h468z" />
    <glyph glyph-name="uni2015.case" horiz-adv-x="1188" 
d="M1143 275h-1093l12 98h1094z" />
    <glyph glyph-name="hyphen.case" horiz-adv-x="356" 
d="M313 281h-262l12 102h262z" />
    <glyph glyph-name="guillemotleft" unicode="&#xab;" horiz-adv-x="479" 
d="M235 33h-106l-84 213l138 217h105l-136 -217zM423 33h-105l-85 213l139 217h105l-137 -217z" />
    <glyph glyph-name="guillemotright" unicode="&#xbb;" horiz-adv-x="481" 
d="M6 33l136 213l-84 217h105l86 -217l-137 -213h-106zM197 33l135 213l-84 217h105l86 -217l-137 -213h-105z" />
    <glyph glyph-name="guilsinglleft" unicode="&#x2039;" horiz-adv-x="296" 
d="M237 33h-105l-85 213l139 217h105l-137 -217z" />
    <glyph glyph-name="guilsinglright" unicode="&#x203a;" horiz-adv-x="291" 
d="M6 33l136 213l-84 217h105l86 -217l-137 -213h-106z" />
    <glyph glyph-name="quotedblbase" unicode="&#x201e;" horiz-adv-x="401" 
d="M50 174h117l-89 -252h-87zM215 174h117l-89 -252h-87z" />
    <glyph glyph-name="quotedblleft" unicode="&#x201c;" horiz-adv-x="376" 
d="M174 457h-117l89 252h87zM339 457h-117l89 252h87z" />
    <glyph glyph-name="quotedblright" unicode="&#x201d;" horiz-adv-x="377" 
d="M120 710h117l-89 -252h-87zM285 710h117l-89 -252h-87z" />
    <glyph glyph-name="quoteleft" unicode="&#x2018;" horiz-adv-x="210" 
d="M174 457h-117l89 252h87z" />
    <glyph glyph-name="quoteright" unicode="&#x2019;" horiz-adv-x="211" 
d="M120 710h117l-89 -252h-87z" />
    <glyph glyph-name="quotesinglbase" unicode="&#x201a;" horiz-adv-x="235" 
d="M43 120h116l-94 -252h-81z" />
    <glyph glyph-name="guillemotleft.case" horiz-adv-x="479" 
d="M242 77h-106l-84 213l138 217h105l-136 -217zM430 77h-105l-85 213l139 217h105l-137 -217z" />
    <glyph glyph-name="guillemotright.case" horiz-adv-x="481" 
d="M14 77l136 213l-84 217h105l86 -217l-137 -213h-106zM205 77l135 213l-84 217h105l86 -217l-137 -213h-105z" />
    <glyph glyph-name="anoteleia" unicode="&#x387;" horiz-adv-x="271" 
d="M162 495c41 0 72 -31 72 -72c0 -42 -32 -74 -75 -74c-41 0 -71 31 -71 71c0 43 32 75 74 75z" />
    <glyph glyph-name="uni037E" unicode="&#x37e;" horiz-adv-x="251" 
d="M149 495c41 0 72 -31 72 -72c0 -42 -32 -74 -75 -74c-41 0 -71 31 -71 71c0 43 32 75 74 75zM51 120h116l-94 -252h-81z" />
    <glyph glyph-name="uni2003" unicode="&#x2003;" horiz-adv-x="934" 
 />
    <glyph glyph-name="uni2002" unicode="&#x2002;" horiz-adv-x="467" 
 />
    <glyph glyph-name="space" unicode=" " horiz-adv-x="203" 
 />
    <glyph glyph-name="uni2009" unicode="&#x2009;" horiz-adv-x="25" 
 />
    <glyph glyph-name="CR" horiz-adv-x="224" 
 />
    <glyph glyph-name="cent" unicode="&#xa2;" horiz-adv-x="505" 
d="M252 146c43 0 80 17 115 53l86 -62c-45 -46 -90 -76 -153 -86l-13 -99h-91l12 98c-98 16 -158 88 -158 200c0 145 83 273 219 296l12 98h92l-12 -99c53 -10 98 -36 125 -77l-86 -64c-21 32 -57 46 -88 46c-88 0 -151 -84 -151 -193c0 -73 47 -111 91 -111z" />
    <glyph glyph-name="currency" unicode="&#xa4;" horiz-adv-x="473" 
d="M423 411c0 -47 -15 -92 -42 -128l60 -77l-58 -51l-61 77c-27 -16 -58 -25 -93 -25s-64 9 -88 24l-75 -75l-49 51l79 78c-9 20 -14 44 -14 70c0 51 15 97 41 134l-62 78l59 51l60 -75c27 17 59 27 94 27c33 0 64 -9 88 -27l75 76l49 -51l-79 -79c10 -22 16 -49 16 -78z
M240 283c62 0 106 56 106 118c0 57 -35 93 -81 93c-61 0 -106 -57 -106 -125c0 -51 31 -86 81 -86z" />
    <glyph glyph-name="dollar" unicode="$" horiz-adv-x="538" 
d="M307 396c86 -52 180 -84 180 -192c0 -128 -85 -198 -194 -209l-14 -117h-94l15 121c-70 15 -129 53 -163 108l85 78c25 -57 78 -85 131 -85c65 0 114 38 114 88c-1 44 -43 57 -111 97c-76 45 -164 87 -164 191c0 109 83 181 190 192l15 123h94l-16 -131
c51 -15 96 -46 129 -90l-83 -72c-36 54 -84 66 -120 66c-51 0 -89 -33 -88 -75c2 -38 34 -56 94 -93z" />
    <glyph glyph-name="dong" unicode="&#x20ab;" horiz-adv-x="551" 
d="M601 637l-10 -75h-53l-69 -562h-110l12 92h-3c-46 -68 -105 -100 -160 -100c-116 0 -168 89 -168 198c0 154 94 305 240 305c47 0 97 -12 133 -48h2l14 115h-98l9 75h98l12 99h110l-12 -99h53zM229 89c71 0 153 93 171 243v-2l3 23c-28 30 -72 43 -115 43
c-86 0 -137 -109 -137 -208c0 -60 27 -99 78 -99zM19 -159l12 100h427l-12 -100h-427z" />
    <glyph glyph-name="Euro" unicode="&#x20ac;" horiz-adv-x="551" 
d="M325 99c47 0 83 16 114 41l61 -89c-49 -35 -104 -58 -180 -58c-126 0 -231 79 -249 241h-60l9 69h49c1 21 3 41 6 61h-48l8 69h57c45 141 155 240 304 240c58 0 120 -19 168 -60l-80 -80c-25 24 -56 35 -88 35c-84 0 -144 -57 -178 -135h211l-8 -69h-225
c-4 -20 -6 -40 -7 -61h225l-9 -69h-214c14 -88 65 -135 134 -135z" />
    <glyph glyph-name="florin" unicode="&#x192;" horiz-adv-x="498" 
d="M449 644c-39 0 -69 -25 -84 -94l-18 -81h124l-25 -94h-125l-84 -354c-26 -112 -84 -163 -180 -163c-76 0 -116 25 -130 44l48 74c21 -13 44 -18 63 -18c49 0 78 25 94 94l76 323h-72l25 94h73l26 112c27 111 86 163 171 163c75 0 116 -27 131 -44l-49 -75
c-21 13 -44 19 -64 19z" />
    <glyph glyph-name="uni20BA" unicode="&#x20ba;" horiz-adv-x="587" 
d="M468 252l93 -38c-79 -162 -171 -214 -296 -214h-174l24 198l-70 -33l-24 71l105 49l8 67l-71 -33l-22 71l104 48l30 249h118l-23 -190l126 59l23 -71l-160 -75l-8 -67l126 58l23 -70l-160 -75l-19 -158h43c96 0 149 40 204 154z" />
    <glyph glyph-name="sterling" unicode="&#xa3;" horiz-adv-x="515" 
d="M438 517c-22 43 -56 66 -88 66c-45 0 -88 -27 -100 -131l-6 -44h138l-10 -81h-137l-27 -221h260l-13 -106h-437l13 106h59l27 221h-49l10 81h49l8 61c20 171 114 225 202 225c72 0 137 -39 171 -101z" />
    <glyph glyph-name="yen" unicode="&#xa5;" horiz-adv-x="540" 
d="M587 687l-175 -275h72l-8 -68h-108l-31 -49h133l-9 -67h-135l-29 -228h-118l28 228h-143l9 67h140l-19 49h-115l8 68h81l-105 275h134l92 -285l158 285h140z" />
    <glyph glyph-name="uni2126" unicode="&#x2126;" horiz-adv-x="712" 
d="M527 107v-1h104l-13 -106h-250l13 106c102 74 173 184 173 328c0 105 -58 173 -150 173c-130 0 -209 -129 -209 -267c0 -98 40 -173 102 -234l-13 -106h-251l13 106h117v1c-56 60 -90 141 -90 237c0 210 138 374 336 374c162 0 269 -121 269 -282
c0 -132 -60 -250 -151 -329z" />
    <glyph glyph-name="approxequal" unicode="&#x2248;" horiz-adv-x="551" 
d="M382 412c41 0 76 23 101 46l28 -81c-25 -29 -70 -63 -120 -63c-64 0 -110 49 -177 49c-46 0 -89 -25 -112 -41l-27 80c15 16 75 59 132 59c74 0 115 -49 175 -49zM355 191c41 0 75 23 101 46l27 -81c-25 -29 -69 -62 -119 -62c-64 0 -110 49 -176 49
c-47 0 -90 -24 -113 -41l-27 79c15 17 75 60 131 60c74 0 116 -50 176 -50z" />
    <glyph glyph-name="asciitilde" unicode="~" horiz-adv-x="535" 
d="M56 236c31 68 78 118 138 118c45 0 67 -17 85 -27c23 -14 41 -22 60 -22c29 0 54 22 71 50l78 -31c-30 -72 -80 -122 -136 -122c-41 0 -64 12 -84 23c-27 15 -45 25 -63 25c-30 0 -53 -21 -71 -50z" />
    <glyph glyph-name="divide" unicode="&#xf7;" horiz-adv-x="535" 
d="M313 543c41 0 72 -30 72 -71c0 -42 -32 -74 -75 -74c-41 0 -71 31 -71 71c0 43 32 74 74 74zM497 227h-427l12 100h427zM264 144c41 0 72 -30 72 -71c0 -42 -32 -74 -75 -74c-41 0 -71 31 -71 71c0 43 32 74 74 74z" />
    <glyph glyph-name="emptyset" unicode="&#x2205;" horiz-adv-x="723" 
d="M604 510c41 -53 65 -120 65 -192c0 -168 -135 -311 -309 -311c-73 0 -139 25 -192 67l-48 -48l-47 47l48 48c-43 54 -69 123 -69 197c0 168 136 310 309 310c76 0 144 -27 196 -71l44 44l47 -47zM142 317c0 -49 16 -95 43 -132l308 308c-36 28 -82 45 -132 45
c-124 0 -219 -100 -219 -221zM360 97c123 0 219 101 219 221c0 47 -15 91 -40 127l-307 -307c36 -26 80 -41 128 -41z" />
    <glyph glyph-name="equal" unicode="=" horiz-adv-x="558" 
d="M523 341h-427l12 100h427zM492 113h-427l12 100h427z" />
    <glyph glyph-name="greater" unicode="&#x3e;" horiz-adv-x="545" 
d="M54 140l284 135l-250 135l13 110l393 -205l-9 -82l-443 -201z" />
    <glyph glyph-name="greaterequal" unicode="&#x2265;" horiz-adv-x="555" 
d="M79 267l284 135l-250 135l13 110l393 -205l-9 -82l-443 -201zM465 0h-418l12 100h418z" />
    <glyph glyph-name="uni2206" unicode="&#x2206;" horiz-adv-x="617" 
d="M427 710l132 -619l-12 -91h-93h-431h-13l11 91l283 619h123zM151 106h283l-84 458h-1z" />
    <glyph glyph-name="infinity" unicode="&#x221e;" horiz-adv-x="724" 
d="M531 445c80 0 136 -63 136 -148c0 -100 -74 -187 -168 -187c-56 0 -102 29 -140 97c-50 -60 -102 -97 -159 -97c-80 0 -135 62 -135 147c0 100 74 188 167 188c56 0 102 -31 139 -98c52 60 103 98 160 98zM209 196c36 0 67 29 105 85c-21 42 -42 77 -76 77
c-51 0 -84 -50 -84 -100c0 -38 21 -62 55 -62zM496 196c42 0 80 41 80 100c0 38 -21 62 -52 62c-35 0 -69 -29 -107 -85c20 -42 43 -77 79 -77z" />
    <glyph glyph-name="integral" unicode="&#x222b;" horiz-adv-x="294" 
d="M320 611h-30c-65 0 -68 -18 -82 -109l-81 -532c-13 -90 -64 -136 -128 -140c-30 -3 -53 0 -76 3l12 84h8c66 0 70 22 83 108l80 532c15 92 67 139 130 142c56 2 85 -10 96 -10z" />
    <glyph glyph-name="less" unicode="&#x3c;" horiz-adv-x="544" 
d="M464 140l-12 -108l-393 201l9 82l443 205l-13 -110l-283 -135z" />
    <glyph glyph-name="lessequal" unicode="&#x2264;" horiz-adv-x="549" 
d="M483 266l-12 -108l-393 201l9 82l443 205l-13 -110l-283 -135zM33 0l12 101h418l-12 -101h-418z" />
    <glyph glyph-name="logicalnot" unicode="&#xac;" horiz-adv-x="515" 
d="M451 153h-99l19 160h-309l11 99h409z" />
    <glyph glyph-name="uni00B5" unicode="&#xb5;" horiz-adv-x="558" 
d="M508 92l17 -76c-23 -16 -51 -24 -89 -24c-53 0 -82 31 -89 79h-3c-29 -46 -70 -79 -124 -79c-37 0 -60 13 -74 35l-2 -1c2 -36 1 -75 -3 -110l-15 -114h-108l84 686h109l-36 -295c-6 -73 21 -101 57 -101c54 0 113 44 128 152l30 244h109l-42 -343c-6 -42 -1 -55 26 -55
c7 0 15 1 25 2z" />
    <glyph glyph-name="minus" unicode="&#x2212;" horiz-adv-x="532" 
d="M478 227h-427l12 100h427z" />
    <glyph glyph-name="multiply" unicode="&#xd7;" horiz-adv-x="496" 
d="M351 67l-106 140l-140 -140l-65 69l141 141l-107 141l80 70l105 -141l140 141l66 -70l-141 -142l105 -141z" />
    <glyph glyph-name="notequal" unicode="&#x2260;" horiz-adv-x="555" 
d="M511 341h-171l-69 -128h221l-12 -100h-264l-61 -113l-72 29l46 84h-76l12 100h118l70 128h-169l12 100h211l66 121l71 -30l-49 -91h128z" />
    <glyph glyph-name="partialdiff" unicode="&#x2202;" horiz-adv-x="548" 
d="M327 694c148 0 183 -148 183 -282c0 -207 -80 -420 -274 -420c-109 0 -189 75 -189 190c0 150 95 260 226 260c48 0 90 -17 120 -52l2 1v13c1 101 -21 186 -102 186c-35 0 -92 -13 -133 -34l-18 94c65 33 127 44 185 44zM247 102c68 0 111 75 132 169
c-19 39 -52 70 -95 70c-79 0 -119 -62 -119 -134c0 -58 24 -105 82 -105z" />
    <glyph glyph-name="percent" unicode="%" horiz-adv-x="1008" 
d="M744 686l-370 -707l-87 40l369 708zM286 716c105 0 184 -73 184 -182c0 -127 -93 -214 -206 -214c-104 0 -182 76 -182 184c0 121 90 212 204 212zM283 630c-58 0 -107 -51 -107 -125c0 -60 39 -99 91 -99c59 0 108 47 108 125c0 60 -39 99 -92 99zM769 388
c106 0 185 -74 185 -182c0 -128 -93 -214 -207 -214c-104 0 -182 76 -182 184c0 121 90 212 204 212zM766 302c-57 0 -107 -52 -107 -125c0 -60 40 -99 91 -99c59 0 109 47 109 125c0 60 -40 99 -93 99z" />
    <glyph glyph-name="perthousand" unicode="&#x2030;" horiz-adv-x="1443" 
d="M744 686l-370 -707l-87 40l369 708zM286 716c105 0 184 -73 184 -182c0 -127 -93 -214 -206 -214c-104 0 -182 76 -182 184c0 121 90 212 204 212zM283 630c-58 0 -107 -51 -107 -125c0 -60 39 -99 91 -99c59 0 108 47 108 125c0 60 -39 99 -92 99zM769 388
c106 0 185 -74 185 -182c0 -128 -93 -214 -207 -214c-104 0 -182 76 -182 184c0 121 90 212 204 212zM1204 388c105 0 184 -74 184 -182c0 -128 -93 -214 -206 -214c-104 0 -182 76 -182 184c0 121 90 212 204 212zM766 302c-57 0 -107 -52 -107 -125c0 -60 40 -99 91 -99
c59 0 109 47 109 125c0 60 -40 99 -93 99zM1201 302c-57 0 -107 -52 -107 -125c0 -60 39 -99 91 -99c59 0 109 47 109 125c0 60 -40 99 -93 99z" />
    <glyph glyph-name="plus" unicode="+" horiz-adv-x="537" 
d="M479 227h-163l-22 -185h-101l22 185h-162l12 100h163l22 186h102l-23 -186h163z" />
    <glyph glyph-name="plusminus" unicode="&#xb1;" horiz-adv-x="553" 
d="M504 355h-163l-22 -185h-101l22 185h-162l12 100h163l22 186h102l-23 -186h163zM463 -2h-427l12 100h427z" />
    <glyph glyph-name="product" unicode="&#x220f;" horiz-adv-x="672" 
d="M148 710h490l-99 -814h-118l86 708h-254l-86 -708h-118z" />
    <glyph glyph-name="radical" unicode="&#x221a;" horiz-adv-x="653" 
d="M701 822h86l-452 -822h-77l-90 500h-103l12 96h197l69 -434h2z" />
    <glyph glyph-name="uni2236" unicode="&#x2236;" horiz-adv-x="276" 
d="M172 553c41 0 72 -31 72 -72c0 -42 -32 -74 -75 -74c-41 0 -71 31 -71 71c0 43 32 75 74 75zM126 196c41 0 72 -31 72 -72c0 -42 -32 -74 -75 -74c-41 0 -71 31 -71 71c0 43 32 75 74 75z" />
    <glyph glyph-name="summation" unicode="&#x2211;" horiz-adv-x="574" 
d="M580 710l-13 -106h-314l142 -288l-210 -290h311l-13 -106h-468l9 84l237 312l-158 308l9 86h468z" />
    <glyph glyph-name="plus.case" horiz-adv-x="537" 
d="M485 277h-163l-22 -185h-101l22 185h-162l12 100h163l22 186h102l-23 -186h163z" />
    <glyph glyph-name="uni2713" unicode="&#x2713;" horiz-adv-x="585" 
d="M599 740l-383 -625l-193 200l65 63l111 -116l322 526z" />
    <glyph glyph-name="uni2715" unicode="&#x2715;" horiz-adv-x="366" 
d="M282 117l-98 98l-99 -98l-62 62l99 99l-99 98l61 61l98 -98l99 99l62 -62l-99 -100l99 -99z" />
    <glyph glyph-name="bar" unicode="|" horiz-adv-x="325" 
d="M175 737h95l-104 -852h-95z" />
    <glyph glyph-name="brokenbar" unicode="&#xa6;" horiz-adv-x="325" 
d="M175 737h95l-43 -352h-95zM114 238h95l-43 -352h-95z" />
    <glyph glyph-name="at" unicode="@" horiz-adv-x="901" 
d="M667 467l-32 -263c-6 -48 -3 -77 41 -77c64 0 97 110 97 171c0 159 -107 283 -281 283c-255 0 -359 -196 -359 -353c0 -180 128 -292 281 -292c77 0 152 21 211 51l37 -60c-70 -46 -159 -72 -248 -72c-210 0 -365 141 -365 373c0 177 119 431 443 431
c227 0 366 -151 366 -360c0 -92 -44 -258 -216 -258c-61 0 -108 34 -120 93h-2c-33 -49 -82 -82 -145 -82c-78 0 -142 59 -142 168c0 142 92 253 210 253c51 0 86 -16 108 -38h2l4 32h110zM407 151c55 0 120 71 131 165l4 27c-25 20 -52 30 -85 30c-64 0 -111 -75 -111 -143
c0 -58 31 -79 61 -79z" />
    <glyph glyph-name="ampersand" unicode="&#x26;" horiz-adv-x="741" 
d="M738 442l-12 -98h-152c-25 -201 -134 -352 -339 -352c-110 0 -189 74 -189 187c0 90 49 178 144 221c-31 28 -50 65 -50 108c0 128 100 210 212 210c129 0 172 -80 189 -141l-100 -32c-7 37 -28 74 -82 75c-64 0 -105 -39 -105 -108c0 -34 21 -70 72 -70h412zM252 97
c125 0 199 126 215 247h-144c-97 0 -157 -85 -157 -154c0 -57 33 -93 86 -93z" />
    <glyph glyph-name="paragraph" unicode="&#xb6;" horiz-adv-x="519" 
d="M292 664h183l-100 -815h-69l91 741h-59l-72 -590h-71l41 319c-92 1 -160 52 -160 142c0 108 77 203 216 203z" />
    <glyph glyph-name="copyright" unicode="&#xa9;" horiz-adv-x="717" 
d="M359 631c175 0 310 -143 310 -313c0 -169 -136 -314 -312 -314c-174 0 -311 143 -311 314c0 170 138 313 313 313zM593 318c0 131 -102 237 -234 237c-134 0 -236 -108 -236 -238s102 -237 234 -237c134 0 236 108 236 238zM367 219c32 0 61 15 78 38l50 -43
c-28 -34 -71 -61 -128 -61c-89 0 -165 56 -165 163c0 90 58 164 165 164c44 0 92 -18 128 -62l-50 -43c-18 22 -46 40 -78 40c-55 0 -93 -38 -93 -99c0 -58 37 -97 93 -97z" />
    <glyph glyph-name="registered" unicode="&#xae;" horiz-adv-x="721" 
d="M361 634c176 0 312 -144 312 -316c0 -171 -137 -316 -314 -316c-175 0 -313 144 -313 316c0 171 139 316 315 316zM359 78c135 0 237 109 237 240c0 132 -102 240 -235 240c-135 0 -238 -110 -238 -241s103 -239 236 -239zM484 374c0 -51 -24 -83 -64 -98l80 -118h-79
l-71 110h-35v-110h-66v324h123c77 0 112 -46 112 -108zM315 421v-93h41c39 0 59 20 59 47s-21 46 -56 46h-44z" />
    <glyph glyph-name="section" unicode="&#xa7;" horiz-adv-x="520" 
d="M317 433c82 -40 148 -64 148 -156c0 -68 -36 -116 -90 -143c27 -23 43 -52 43 -99c0 -110 -85 -188 -204 -188c-76 0 -144 32 -193 96l71 76c36 -50 89 -69 125 -69c46 0 80 32 80 75c0 39 -26 52 -101 87c-72 34 -132 68 -132 156c0 63 35 112 89 139
c-27 24 -44 56 -44 103c0 106 84 177 194 177c74 0 145 -33 183 -77l-69 -77c-36 36 -74 49 -109 49c-52 0 -78 -26 -78 -66c0 -33 19 -49 87 -83zM261 198c11 -5 21 -10 30 -15c41 11 61 46 61 81s-19 47 -91 80l-26 12c-38 -9 -57 -44 -57 -77c0 -36 24 -51 83 -81z" />
    <glyph glyph-name="trademark" unicode="&#x2122;" horiz-adv-x="635" 
d="M81 710h223l-8 -63h-76l-32 -260h-70l32 260h-77zM570 710h74l-40 -323h-69l24 193l-74 -131h-46l-43 133l-24 -195h-69l39 323h73l55 -178z" />
    <glyph glyph-name="degree" unicode="&#xb0;" horiz-adv-x="380" 
d="M247 717c69 0 117 -46 117 -120c0 -81 -59 -155 -151 -155c-74 0 -116 46 -116 113c0 89 62 162 150 162zM239 645c-40 0 -68 -34 -68 -80c0 -30 17 -49 51 -49c40 0 69 33 69 74c0 32 -19 55 -52 55z" />
    <glyph glyph-name="estimated" unicode="&#x212e;" horiz-adv-x="801" 
d="M224 302v-211c48 -50 117 -68 177 -68c85 0 160 31 209 84h55c-61 -72 -162 -117 -265 -117c-196 0 -343 144 -343 321c0 184 154 321 343 321c196 0 343 -144 343 -321v-9h-519zM575 534c-46 43 -114 64 -174 64c-64 0 -132 -22 -177 -68l-1 -190h352v194z" />
    <glyph glyph-name="uni2113" unicode="&#x2113;" horiz-adv-x="463" 
d="M405 119l36 -25c-43 -68 -104 -102 -174 -102c-107 0 -160 58 -170 148c-17 -14 -36 -29 -55 -43l-22 31c24 20 52 41 75 61l2 264c1 167 73 226 165 226c77 0 113 -62 113 -146c0 -110 -73 -213 -184 -318v-21c0 -121 53 -148 98 -148c47 0 90 38 116 73zM272 622
c-38 0 -82 -38 -81 -164v-188c89 90 143 175 143 257c0 67 -22 95 -62 95z" />
    <glyph glyph-name="uni2116" unicode="&#x2116;" horiz-adv-x="990" 
d="M830 412c-74 0 -124 43 -124 124c0 90 54 178 159 178c68 0 123 -37 123 -122c0 -89 -51 -180 -158 -180zM570 710h118l-88 -710h-129l-228 504h-2l-61 -504h-118l87 710h125l231 -513h1zM860 642c-40 0 -71 -48 -71 -98c0 -34 18 -60 44 -60c38 0 72 45 72 102
c0 45 -28 56 -45 56zM687 290l6 73h258l-7 -73h-257z" />
    <glyph glyph-name="asciicircum" unicode="^" horiz-adv-x="444" 
d="M88 500l148 210h83l98 -210h-94l-52 136l-89 -136h-94z" />
    <glyph glyph-name="dagger" unicode="&#x2020;" horiz-adv-x="379" 
d="M356 526l-84 5h-17l-14 -110l-11 -129l-40 -57l-27 57l20 129l12 110h-17l-86 -5l9 67l84 -4h16l10 97h67l-15 -97h16l86 4z" />
    <glyph glyph-name="daggerdbl" unicode="&#x2021;" horiz-adv-x="380" 
d="M172 372l15 91l8 68h-17l-86 -4l9 65l84 -4h17l8 98h68l-16 -98h17l86 4l-9 -65l-85 4h-16l-9 -68l-7 -91l-16 -91l-8 -71h17l86 4l-8 -66l-85 3h-17l-7 -96h-67l14 96h-17l-85 -4l8 66l84 -3h18l9 71z" />
    <glyph glyph-name="at.case" horiz-adv-x="896" 
d="M667 540l-32 -263c-6 -48 -3 -77 41 -77c64 0 97 110 97 171c0 159 -107 283 -281 283c-255 0 -359 -196 -359 -353c0 -180 128 -292 281 -292c77 0 152 21 211 51l37 -60c-70 -46 -159 -72 -248 -72c-210 0 -365 141 -365 373c0 177 119 431 443 431
c227 0 366 -151 366 -360c0 -92 -44 -258 -216 -258c-61 0 -108 34 -120 93h-2c-33 -49 -82 -82 -145 -82c-78 0 -142 59 -142 168c0 142 92 253 210 253c51 0 86 -16 108 -38h2l4 32h110zM407 224c55 0 120 71 131 165l4 27c-25 20 -52 30 -85 30c-64 0 -111 -75 -111 -143
c0 -58 31 -79 61 -79z" />
    <glyph glyph-name="uni0374" unicode="&#x374;" horiz-adv-x="251" 
d="M133 729h119l-92 -254h-97z" />
    <glyph glyph-name="uni0375" unicode="&#x375;" horiz-adv-x="251" 
d="M81 103h119l-92 -254h-97z" />
    <glyph glyph-name="acute" unicode="&#xb4;" horiz-adv-x="453" 
d="M287 682l121 1l-129 -145h-111z" />
    <glyph glyph-name="breve" unicode="&#x2d8;" horiz-adv-x="418" 
d="M249 533c-82 0 -141 53 -133 146h85c-4 -41 9 -69 49 -69c38 0 66 30 74 69h85c-17 -88 -77 -146 -160 -146z" />
    <glyph glyph-name="caron" unicode="&#x2c7;" horiz-adv-x="429" 
d="M313 683h110l-120 -147h-104l-85 147h106l35 -77h3z" />
    <glyph glyph-name="cedilla" unicode="&#xb8;" horiz-adv-x="299" 
d="M113 -32c48 -2 75 -23 75 -66c0 -49 -46 -92 -115 -92c-19 0 -44 3 -57 6l3 54c11 -5 28 -6 43 -6c32 0 52 13 52 37c0 19 -22 27 -69 27l2 36l24 42h65l-24 -37z" />
    <glyph glyph-name="circumflex" unicode="&#x2c6;" horiz-adv-x="428" 
d="M297 536l-36 76h-2l-55 -76h-110l118 147h104l87 -147h-106z" />
    <glyph glyph-name="dieresis" unicode="&#xa8;" horiz-adv-x="477" 
d="M191 689c40 0 71 -30 71 -71c0 -42 -32 -74 -74 -74c-41 0 -72 31 -72 71c0 43 32 74 75 74zM381 689c40 0 71 -30 71 -71c0 -42 -32 -74 -74 -74s-72 31 -72 71c0 43 32 74 75 74z" />
    <glyph glyph-name="dotaccent" unicode="&#x2d9;" horiz-adv-x="465" 
d="M280 689c41 0 72 -30 72 -71c0 -42 -32 -74 -75 -74c-41 0 -71 31 -71 71c0 43 32 74 74 74z" />
    <glyph glyph-name="grave" unicode="`" horiz-adv-x="458" 
d="M276 682l83 -144h-111l-94 145z" />
    <glyph glyph-name="hungarumlaut" unicode="&#x2dd;" horiz-adv-x="475" 
d="M196 682l116 1l-129 -145h-106zM379 682l116 1l-129 -145h-105z" />
    <glyph glyph-name="macron" unicode="&#xaf;" horiz-adv-x="404" 
d="M116 659h274l-11 -92h-274z" />
    <glyph glyph-name="ogonek" unicode="&#x2db;" horiz-adv-x="436" 
d="M268 -177c-19 -9 -49 -11 -69 -11c-61 0 -92 27 -92 75c0 51 41 102 89 127l95 -14c-55 -11 -93 -51 -93 -87c0 -19 11 -30 28 -30c18 0 31 3 40 8z" />
    <glyph glyph-name="ring" unicode="&#x2da;" horiz-adv-x="440" 
d="M268 721c59 0 103 -44 103 -102c0 -61 -46 -106 -107 -106c-58 0 -103 44 -103 103c0 60 46 105 107 105zM267 656c-22 0 -39 -18 -39 -39c0 -22 16 -38 38 -38s39 17 39 39c0 21 -17 38 -38 38z" />
    <glyph glyph-name="tilde" unicode="&#x2dc;" horiz-adv-x="450" 
d="M87 571c27 64 67 107 118 107c39 0 55 -18 73 -30c16 -11 31 -23 47 -23c24 0 46 21 60 53l68 -26c-27 -73 -69 -116 -116 -116c-36 0 -59 21 -76 32c-16 12 -31 22 -46 22c-25 0 -46 -22 -60 -54z" />
    <glyph glyph-name="breve.short" horiz-adv-x="385" 
d="M233 533c-72 0 -124 53 -117 146h81c-5 -41 8 -69 39 -69c33 0 54 30 55 69h85c-15 -88 -68 -146 -143 -146z" />
    <glyph glyph-name="dieresis.short" horiz-adv-x="471" 
d="M191 689c40 0 71 -30 71 -71c0 -42 -32 -74 -74 -74c-41 0 -72 31 -72 71c0 43 32 74 75 74zM375 689c41 0 71 -30 71 -71c0 -42 -31 -74 -74 -74c-41 0 -72 31 -72 71c0 43 33 74 75 74z" />
    <glyph glyph-name="grave.short" horiz-adv-x="424" 
d="M276 682l50 -144h-113l-59 145z" />
    <glyph glyph-name="tilde.short" horiz-adv-x="426" 
d="M87 571c25 64 63 107 110 107c37 0 52 -18 69 -30c15 -11 29 -23 43 -23c23 0 43 21 57 53l63 -26c-26 -73 -64 -116 -108 -116c-33 0 -56 21 -71 32c-15 12 -29 22 -43 22c-23 0 -42 -22 -57 -54z" />
    <glyph glyph-name="tonos" unicode="&#x384;" horiz-adv-x="427" 
d="M248 707h132l-102 -169h-108z" />
    <glyph glyph-name="dieresistonos" unicode="&#x385;" horiz-adv-x="505" 
d="M271 707h103l-72 -169h-83zM130 689c40 0 71 -30 71 -71c0 -42 -32 -74 -74 -74c-41 0 -72 31 -72 71c0 43 32 74 75 74zM447 689c41 0 72 -30 72 -71c0 -42 -32 -74 -75 -74c-41 0 -71 31 -71 71c0 43 32 74 74 74z" />
    <glyph glyph-name="NULL" horiz-adv-x="0" 
 />
    <glyph glyph-name="KB" horiz-adv-x="928" 
d="M450 305c105 -13 257 -38 257 -152c0 -85 -82 -154 -234 -154c-130 0 -219 57 -254 131l21 9c52 -69 116 -94 200 -94c64 0 122 28 122 101c0 57 -61 119 -161 157c-6 -22 -13 -47 -19 -74c23 -4 47 -9 71 -17l-5 -36h-248l-1 34c29 20 62 38 98 50l73 382l-65 19l-2 30
c26 16 68 29 117 29l70 -35l-63 -194l-66 -189l10 -2c49 184 127 244 221 244c70 0 122 -29 122 -98c0 -74 -59 -136 -195 -136c-22 0 -45 1 -69 4v-9zM542 504c-28 0 -86 -42 -132 -174c133 5 173 74 173 124c0 27 -15 50 -41 50zM89 -107l-12 -39h-6l-8 29l-8 -29h-6
l-12 39h6l9 -28l8 28h6l8 -28l9 28h6zM146 -107l-12 -39h-7l-7 29l-9 -29h-6l-12 39h7l8 -28l8 28h7l7 -28l9 28h7zM202 -107l-12 -39h-6l-8 29l-9 -29h-5l-13 39h7l9 -28l7 28h7l8 -28l8 28h7zM229 -130l-4 -5v-11h-7v39h7v-19l15 19h8l-15 -18l16 -21h-9zM270 -107
c11 0 19 -8 19 -19c0 -13 -8 -20 -19 -20c-12 0 -20 8 -20 20c0 11 8 19 20 19zM310 -123c6 -2 12 -4 12 -12s-8 -11 -13 -11s-11 1 -15 6l4 5c3 -4 7 -5 11 -5s6 1 6 4c0 4 -2 5 -7 7c-6 2 -12 4 -12 11c0 6 5 11 12 11c5 0 9 -1 13 -5l-4 -5c-3 3 -6 4 -9 4s-5 -1 -5 -4
s2 -4 7 -6zM343 -113v-33h-7v33h-11v6h29v-6h-11zM379 -138h-16l-3 -8h-7l15 39h6l15 -39h-7zM407 -123c7 -2 12 -4 12 -12s-7 -11 -13 -11c-5 0 -10 1 -14 6l4 5c3 -4 6 -5 10 -5s6 1 6 4c0 4 -2 5 -7 7c-6 2 -12 4 -12 11c0 6 5 11 12 11c5 0 9 -1 13 -5l-4 -5
c-3 3 -6 4 -9 4s-5 -1 -5 -4s2 -4 7 -6zM447 -125c4 -1 8 -5 8 -10c0 -7 -5 -11 -13 -11h-16v39h14c8 0 13 -3 13 -10c0 -4 -2 -7 -6 -8zM483 -138h-15l-3 -8h-7l14 39h7l14 -39h-7zM520 -146l-9 14h-5v-14h-7v39h15c8 0 13 -6 13 -13c0 -6 -4 -10 -9 -11l10 -15h-8z
M548 -113v-33h-6v33h-11v6h29v-6h-12zM579 -123c6 -2 12 -4 12 -12s-8 -11 -13 -11s-11 1 -15 6l5 5c2 -4 6 -5 10 -5s6 1 6 4c0 4 -2 5 -7 7c-6 2 -12 4 -12 11c0 6 5 11 12 11c5 0 9 -1 13 -5l-4 -5c-3 3 -6 4 -9 4s-5 -1 -5 -4s2 -4 7 -6zM616 -107c11 0 20 -8 20 -19
c0 -13 -9 -20 -20 -20c-12 0 -19 8 -19 20c0 11 7 19 19 19zM654 -130l-4 -5v-11h-7v39h7v-19l15 19h8l-14 -18l15 -21h-8zM702 -138h-16l-3 -8h-7l14 39h7l14 -39h-6zM730 -123c7 -2 12 -4 12 -12s-7 -11 -13 -11c-5 0 -10 1 -14 6l4 5c3 -4 7 -5 10 -5c4 0 6 1 6 4
c0 4 -3 5 -7 7c-6 2 -12 4 -12 11c0 6 6 11 12 11c5 0 9 -1 13 -5l-4 -5c-3 3 -6 4 -9 4s-5 -1 -5 -4s3 -4 7 -6zM779 -140c4 0 8 2 10 5l5 -4c-3 -4 -8 -7 -15 -7c-11 0 -20 6 -20 19c0 11 7 20 20 20c5 0 11 -2 15 -7l-5 -4c-2 3 -6 5 -10 5c-8 0 -13 -6 -13 -14
s5 -13 13 -13zM818 -107c12 0 20 -8 20 -19c0 -13 -8 -20 -20 -20c-11 0 -19 8 -19 20c0 11 8 19 19 19zM884 -107v-39h-6v26l-11 -19h-4l-11 19v-26h-6v39h6l13 -23l13 23h6zM270 -140c7 0 12 5 12 14c0 7 -5 13 -12 13c-8 0 -13 -6 -13 -13c0 -8 5 -14 13 -14zM433 -124h6
c3 0 7 2 7 6c0 3 -2 5 -8 5h-5v-11zM506 -126h6c6 0 8 2 8 6s-3 7 -7 7h-7v-13zM616 -140c7 0 13 5 13 14c0 7 -6 13 -13 13c-8 0 -12 -6 -12 -13c0 -8 4 -14 12 -14zM818 -140c8 0 13 5 13 14c0 7 -5 13 -13 13c-7 0 -12 -6 -12 -13c0 -8 5 -14 12 -14zM376 -132l-5 17
l-6 -17h11zM481 -132l-5 17l-6 -17h11zM700 -132l-6 17l-6 -17h12zM440 -140c4 0 8 2 8 5c0 4 -3 6 -8 6h-7v-11h7zM210 -143c0 -2 -1 -3 -3 -3c-3 0 -4 1 -4 3c0 3 1 5 4 5c2 0 3 -2 3 -5zM755 -143c0 -2 -2 -3 -4 -3s-4 1 -4 3c0 3 2 5 4 5s4 -2 4 -5z" />
    <glyph glyph-name="jacute" horiz-adv-x="240" 
d="M220 700l121 1l-129 -145h-111zM-73 -96c14 -11 27 -15 44 -15c32 0 49 25 56 90l63 509h110l-65 -524c-14 -117 -67 -169 -147 -169c-43 0 -66 9 -89 23z" />
    <glyph glyph-name="Jacute" horiz-adv-x="485" 
d="M477 931l121 1l-129 -145h-111zM95 166c19 -32 45 -62 83 -62c53 0 96 42 111 159l55 447h119l-56 -453c-21 -170 -88 -265 -229 -265c-64 0 -128 32 -165 92z" />
    </font>
</defs>
</svg>
